%TF.GenerationSoftware,KiCad,Pcbnew,8.0.2-1*%
%TF.CreationDate,2024-06-24T15:07:34-04:00*%
%TF.ProjectId,stack_controller,73746163-6b5f-4636-9f6e-74726f6c6c65,rev?*%
%TF.SameCoordinates,Original*%
%TF.FileFunction,Copper,L2,Bot*%
%TF.FilePolarity,Positive*%
%FSLAX46Y46*%
G04 Gerber Fmt 4.6, Leading zero omitted, Abs format (unit mm)*
G04 Created by KiCad (PCBNEW 8.0.2-1) date 2024-06-24 15:07:34*
%MOMM*%
%LPD*%
G01*
G04 APERTURE LIST*
%TA.AperFunction,ComponentPad*%
%ADD10C,1.524000*%
%TD*%
%TA.AperFunction,ComponentPad*%
%ADD11R,1.600000X1.600000*%
%TD*%
%TA.AperFunction,ComponentPad*%
%ADD12O,1.600000X1.600000*%
%TD*%
%TA.AperFunction,ComponentPad*%
%ADD13R,1.700000X1.700000*%
%TD*%
%TA.AperFunction,ComponentPad*%
%ADD14O,1.700000X1.700000*%
%TD*%
%TA.AperFunction,ViaPad*%
%ADD15C,0.600000*%
%TD*%
%TA.AperFunction,Conductor*%
%ADD16C,0.200000*%
%TD*%
G04 APERTURE END LIST*
D10*
%TO.P,U40,1,IN*%
%TO.N,Net-(U24-2Q)*%
X171450000Y-121977000D03*
X176530000Y-121977000D03*
%TO.P,U40,2,GND*%
%TO.N,Net-(U1-C_IN)*%
X171450000Y-124517000D03*
X173990000Y-124517000D03*
%TO.P,U40,3,OUT*%
%TO.N,Net-(U13-I2)*%
X179070000Y-121977000D03*
X184150000Y-121977000D03*
%TD*%
%TO.P,U44,1,IN*%
%TO.N,Net-(U44-IN)*%
X171370000Y-153107000D03*
X176450000Y-153107000D03*
%TO.P,U44,2,GND*%
%TO.N,Net-(U1-C_IN)*%
X171370000Y-155647000D03*
X173910000Y-155647000D03*
%TO.P,U44,3,OUT*%
%TO.N,Net-(U13-I5)*%
X178990000Y-153107000D03*
X184070000Y-153107000D03*
%TD*%
D11*
%TO.P,U15,1,\u03A31*%
%TO.N,Net-(U15-\u03A31)*%
X84500000Y-78342000D03*
D12*
%TO.P,U15,2,B1*%
%TO.N,Net-(U15-B1)*%
X84500000Y-80882000D03*
%TO.P,U15,3,A1*%
%TO.N,Net-(U15-A1)*%
X84500000Y-83422000D03*
%TO.P,U15,4,\u03A30*%
%TO.N,Net-(U15-\u03A30)*%
X84500000Y-85962000D03*
%TO.P,U15,5,A0*%
%TO.N,Net-(U15-A0)*%
X84500000Y-88502000D03*
%TO.P,U15,6,B0*%
%TO.N,Net-(U15-B0)*%
X84500000Y-91042000D03*
%TO.P,U15,7,C_IN*%
%TO.N,Net-(U14-C_OUT)*%
X84500000Y-93582000D03*
%TO.P,U15,8,GND*%
%TO.N,Net-(U1-C_IN)*%
X84500000Y-96122000D03*
%TO.P,U15,9,C_OUT*%
%TO.N,Net-(U15-C_OUT)*%
X92120000Y-96122000D03*
%TO.P,U15,10,\u03A33*%
%TO.N,Net-(U15-\u03A33)*%
X92120000Y-93582000D03*
%TO.P,U15,11,B3*%
%TO.N,Net-(U15-B3)*%
X92120000Y-91042000D03*
%TO.P,U15,12,A3*%
%TO.N,Net-(U15-A3)*%
X92120000Y-88502000D03*
%TO.P,U15,13,\u03A32*%
%TO.N,Net-(U15-\u03A32)*%
X92120000Y-85962000D03*
%TO.P,U15,14,A2*%
%TO.N,Net-(U15-A2)*%
X92120000Y-83422000D03*
%TO.P,U15,15,B2*%
%TO.N,Net-(U15-B2)*%
X92120000Y-80882000D03*
%TO.P,U15,16,V+*%
%TO.N,Net-(U1-B0)*%
X92120000Y-78342000D03*
%TD*%
D11*
%TO.P,U8,1,OE#*%
%TO.N,Net-(U1-C_IN)*%
X65420000Y-27597000D03*
D12*
%TO.P,U8,2,D0*%
%TO.N,Net-(U14-A0)*%
X62880000Y-27597000D03*
%TO.P,U8,3,D1*%
%TO.N,Net-(U14-A1)*%
X60340000Y-27597000D03*
%TO.P,U8,4,D2*%
%TO.N,Net-(U14-A2)*%
X57800000Y-27597000D03*
%TO.P,U8,5,D3*%
%TO.N,Net-(U14-A3)*%
X55260000Y-27597000D03*
%TO.P,U8,6,D4*%
%TO.N,Net-(U15-A0)*%
X52720000Y-27597000D03*
%TO.P,U8,7,D5*%
%TO.N,Net-(U15-A1)*%
X50180000Y-27597000D03*
%TO.P,U8,8,D6*%
%TO.N,Net-(U15-A2)*%
X47640000Y-27597000D03*
%TO.P,U8,9,D7*%
%TO.N,Net-(U15-A3)*%
X45100000Y-27597000D03*
%TO.P,U8,10,GND*%
%TO.N,Net-(U1-C_IN)*%
X42560000Y-27597000D03*
%TO.P,U8,11,CLK*%
%TO.N,Net-(U12-CLK)*%
X42560000Y-35217000D03*
%TO.P,U8,12,Q7*%
%TO.N,Net-(U2-A3)*%
X45100000Y-35217000D03*
%TO.P,U8,13,Q6*%
%TO.N,Net-(U2-A2)*%
X47640000Y-35217000D03*
%TO.P,U8,14,Q5*%
%TO.N,Net-(U2-A1)*%
X50180000Y-35217000D03*
%TO.P,U8,15,Q4*%
%TO.N,Net-(U2-A0)*%
X52720000Y-35217000D03*
%TO.P,U8,16,Q3*%
%TO.N,Net-(U1-A3)*%
X55260000Y-35217000D03*
%TO.P,U8,17,Q2*%
%TO.N,Net-(U1-A2)*%
X57800000Y-35217000D03*
%TO.P,U8,18,Q1*%
%TO.N,Net-(U1-A1)*%
X60340000Y-35217000D03*
%TO.P,U8,19,Q0*%
%TO.N,Net-(U1-A0)*%
X62880000Y-35217000D03*
%TO.P,U8,20,V+*%
%TO.N,Net-(U1-B0)*%
X65420000Y-35217000D03*
%TD*%
D11*
%TO.P,U11,1,A14*%
%TO.N,Net-(U10-A14)*%
X199460000Y-60477000D03*
D12*
%TO.P,U11,2,A12*%
%TO.N,Net-(U10-A12)*%
X196920000Y-60477000D03*
%TO.P,U11,3,A7*%
%TO.N,Net-(U10-A7)*%
X194380000Y-60477000D03*
%TO.P,U11,4,A6*%
%TO.N,Net-(U10-A6)*%
X191840000Y-60477000D03*
%TO.P,U11,5,A5*%
%TO.N,Net-(U10-A5)*%
X189300000Y-60477000D03*
%TO.P,U11,6,A4*%
%TO.N,Net-(U10-A4)*%
X186760000Y-60477000D03*
%TO.P,U11,7,A3*%
%TO.N,Net-(U10-A3)*%
X184220000Y-60477000D03*
%TO.P,U11,8,A2*%
%TO.N,Net-(U10-A2)*%
X181680000Y-60477000D03*
%TO.P,U11,9,A1*%
%TO.N,Net-(U10-A1)*%
X179140000Y-60477000D03*
%TO.P,U11,10,A0*%
%TO.N,Net-(U10-A0)*%
X176600000Y-60477000D03*
%TO.P,U11,11,D0*%
%TO.N,Net-(U10-D0)*%
X174060000Y-60477000D03*
%TO.P,U11,12,D1*%
%TO.N,Net-(U10-D1)*%
X171520000Y-60477000D03*
%TO.P,U11,13,D2*%
%TO.N,Net-(U10-D2)*%
X168980000Y-60477000D03*
%TO.P,U11,14,GND*%
%TO.N,Net-(U1-C_IN)*%
X166440000Y-60477000D03*
%TO.P,U11,15,D3*%
%TO.N,Net-(U10-D3)*%
X166440000Y-75717000D03*
%TO.P,U11,16,D4*%
%TO.N,Net-(U10-D4)*%
X168980000Y-75717000D03*
%TO.P,U11,17,D5*%
%TO.N,Net-(U10-D5)*%
X171520000Y-75717000D03*
%TO.P,U11,18,D6*%
%TO.N,Net-(U10-D6)*%
X174060000Y-75717000D03*
%TO.P,U11,19,D7*%
%TO.N,Net-(U10-D7)*%
X176600000Y-75717000D03*
%TO.P,U11,20,CE#*%
%TO.N,Net-(U11-CE#)*%
X179140000Y-75717000D03*
%TO.P,U11,21,A10*%
%TO.N,Net-(U10-A10)*%
X181680000Y-75717000D03*
%TO.P,U11,22,OE#*%
%TO.N,Net-(U10-OE#)*%
X184220000Y-75717000D03*
%TO.P,U11,23,A11*%
%TO.N,Net-(U10-A11)*%
X186760000Y-75717000D03*
%TO.P,U11,24,A9*%
%TO.N,Net-(U10-A9)*%
X189300000Y-75717000D03*
%TO.P,U11,25,A8*%
%TO.N,Net-(U10-A8)*%
X191840000Y-75717000D03*
%TO.P,U11,26,A13*%
%TO.N,Net-(U10-A13)*%
X194380000Y-75717000D03*
%TO.P,U11,27,WE#*%
%TO.N,Net-(U10-WE#)*%
X196920000Y-75717000D03*
%TO.P,U11,28,V+*%
%TO.N,Net-(U1-B0)*%
X199460000Y-75717000D03*
%TD*%
D11*
%TO.P,U24,1,1A*%
%TO.N,Net-(U24-1A)*%
X55180000Y-120177000D03*
D12*
%TO.P,U24,2,1B*%
%TO.N,Net-(U24-1B)*%
X55180000Y-122717000D03*
%TO.P,U24,3,1Q*%
%TO.N,Net-(U24-1Q)*%
X55180000Y-125257000D03*
%TO.P,U24,4,2A*%
%TO.N,Net-(U24-2A)*%
X55180000Y-127797000D03*
%TO.P,U24,5,2B*%
%TO.N,Net-(U24-2B)*%
X55180000Y-130337000D03*
%TO.P,U24,6,2Q*%
%TO.N,Net-(U24-2Q)*%
X55180000Y-132877000D03*
%TO.P,U24,7,GND*%
%TO.N,Net-(U1-C_IN)*%
X55180000Y-135417000D03*
%TO.P,U24,8,4Q*%
%TO.N,Net-(U24-4Q)*%
X62800000Y-135417000D03*
%TO.P,U24,9,4B*%
%TO.N,Net-(U24-2A)*%
X62800000Y-132877000D03*
%TO.P,U24,10,4A*%
%TO.N,Net-(U24-4A)*%
X62800000Y-130337000D03*
%TO.P,U24,11,3Q*%
%TO.N,Net-(U24-3Q)*%
X62800000Y-127797000D03*
%TO.P,U24,12,3B*%
%TO.N,Net-(U24-2A)*%
X62800000Y-125257000D03*
%TO.P,U24,13,3A*%
%TO.N,Net-(U24-3A)*%
X62800000Y-122717000D03*
%TO.P,U24,14,V+*%
%TO.N,Net-(U1-B0)*%
X62800000Y-120177000D03*
%TD*%
D11*
%TO.P,U23,1,S*%
%TO.N,Net-(U20-S)*%
X187925000Y-32017000D03*
D12*
%TO.P,U23,2,A0*%
%TO.N,Net-(U12-D4)*%
X190465000Y-32017000D03*
%TO.P,U23,3,B0*%
%TO.N,Net-(U17-\u03A30)*%
X193005000Y-32017000D03*
%TO.P,U23,4,Q0*%
%TO.N,Net-(U10-A12)*%
X195545000Y-32017000D03*
%TO.P,U23,5,A1*%
%TO.N,Net-(U12-D5)*%
X198085000Y-32017000D03*
%TO.P,U23,6,B1*%
%TO.N,Net-(U17-\u03A31)*%
X200625000Y-32017000D03*
%TO.P,U23,7,Q1*%
%TO.N,Net-(U10-A13)*%
X203165000Y-32017000D03*
%TO.P,U23,8,GND*%
%TO.N,Net-(U1-C_IN)*%
X205705000Y-32017000D03*
%TO.P,U23,9,Q2*%
%TO.N,Net-(U10-A14)*%
X205705000Y-24397000D03*
%TO.P,U23,10,B2*%
%TO.N,Net-(U17-\u03A32)*%
X203165000Y-24397000D03*
%TO.P,U23,11,A2*%
%TO.N,Net-(U12-D6)*%
X200625000Y-24397000D03*
%TO.P,U23,12,Q3*%
%TO.N,Net-(U11-CE#)*%
X198085000Y-24397000D03*
%TO.P,U23,13,B3*%
%TO.N,Net-(U17-\u03A33)*%
X195545000Y-24397000D03*
%TO.P,U23,14,A3*%
%TO.N,Net-(U12-D7)*%
X193005000Y-24397000D03*
%TO.P,U23,15,OE#*%
%TO.N,Net-(U1-C_IN)*%
X190465000Y-24397000D03*
%TO.P,U23,16,V+*%
%TO.N,Net-(U1-B0)*%
X187925000Y-24397000D03*
%TD*%
D11*
%TO.P,U4,1,\u03A31*%
%TO.N,Net-(U4-\u03A31)*%
X63500000Y-72842000D03*
D12*
%TO.P,U4,2,B1*%
%TO.N,Net-(U1-B1)*%
X63500000Y-75382000D03*
%TO.P,U4,3,A1*%
%TO.N,Net-(U12-Q5)*%
X63500000Y-77922000D03*
%TO.P,U4,4,\u03A30*%
%TO.N,Net-(U4-\u03A30)*%
X63500000Y-80462000D03*
%TO.P,U4,5,A0*%
%TO.N,Net-(U12-Q4)*%
X63500000Y-83002000D03*
%TO.P,U4,6,B0*%
%TO.N,Net-(U1-B1)*%
X63500000Y-85542000D03*
%TO.P,U4,7,C_IN*%
%TO.N,Net-(U3-C_OUT)*%
X63500000Y-88082000D03*
%TO.P,U4,8,GND*%
%TO.N,Net-(U1-C_IN)*%
X63500000Y-90622000D03*
%TO.P,U4,9,C_OUT*%
%TO.N,unconnected-(U4-C_OUT-Pad9)*%
X71120000Y-90622000D03*
%TO.P,U4,10,\u03A33*%
%TO.N,Net-(U4-\u03A33)*%
X71120000Y-88082000D03*
%TO.P,U4,11,B3*%
%TO.N,Net-(U1-B1)*%
X71120000Y-85542000D03*
%TO.P,U4,12,A3*%
%TO.N,Net-(U12-Q7)*%
X71120000Y-83002000D03*
%TO.P,U4,13,\u03A32*%
%TO.N,Net-(U4-\u03A32)*%
X71120000Y-80462000D03*
%TO.P,U4,14,A2*%
%TO.N,Net-(U12-Q6)*%
X71120000Y-77922000D03*
%TO.P,U4,15,B2*%
%TO.N,Net-(U1-B1)*%
X71120000Y-75382000D03*
%TO.P,U4,16,V+*%
%TO.N,Net-(U1-B0)*%
X71120000Y-72842000D03*
%TD*%
D11*
%TO.P,U10,1,A14*%
%TO.N,Net-(U10-A14)*%
X236920000Y-60477000D03*
D12*
%TO.P,U10,2,A12*%
%TO.N,Net-(U10-A12)*%
X234380000Y-60477000D03*
%TO.P,U10,3,A7*%
%TO.N,Net-(U10-A7)*%
X231840000Y-60477000D03*
%TO.P,U10,4,A6*%
%TO.N,Net-(U10-A6)*%
X229300000Y-60477000D03*
%TO.P,U10,5,A5*%
%TO.N,Net-(U10-A5)*%
X226760000Y-60477000D03*
%TO.P,U10,6,A4*%
%TO.N,Net-(U10-A4)*%
X224220000Y-60477000D03*
%TO.P,U10,7,A3*%
%TO.N,Net-(U10-A3)*%
X221680000Y-60477000D03*
%TO.P,U10,8,A2*%
%TO.N,Net-(U10-A2)*%
X219140000Y-60477000D03*
%TO.P,U10,9,A1*%
%TO.N,Net-(U10-A1)*%
X216600000Y-60477000D03*
%TO.P,U10,10,A0*%
%TO.N,Net-(U10-A0)*%
X214060000Y-60477000D03*
%TO.P,U10,11,D0*%
%TO.N,Net-(U10-D0)*%
X211520000Y-60477000D03*
%TO.P,U10,12,D1*%
%TO.N,Net-(U10-D1)*%
X208980000Y-60477000D03*
%TO.P,U10,13,D2*%
%TO.N,Net-(U10-D2)*%
X206440000Y-60477000D03*
%TO.P,U10,14,GND*%
%TO.N,Net-(U1-C_IN)*%
X203900000Y-60477000D03*
%TO.P,U10,15,D3*%
%TO.N,Net-(U10-D3)*%
X203900000Y-75717000D03*
%TO.P,U10,16,D4*%
%TO.N,Net-(U10-D4)*%
X206440000Y-75717000D03*
%TO.P,U10,17,D5*%
%TO.N,Net-(U10-D5)*%
X208980000Y-75717000D03*
%TO.P,U10,18,D6*%
%TO.N,Net-(U10-D6)*%
X211520000Y-75717000D03*
%TO.P,U10,19,D7*%
%TO.N,Net-(U10-D7)*%
X214060000Y-75717000D03*
%TO.P,U10,20,CE#*%
%TO.N,Net-(U10-CE#)*%
X216600000Y-75717000D03*
%TO.P,U10,21,A10*%
%TO.N,Net-(U10-A10)*%
X219140000Y-75717000D03*
%TO.P,U10,22,OE#*%
%TO.N,Net-(U10-OE#)*%
X221680000Y-75717000D03*
%TO.P,U10,23,A11*%
%TO.N,Net-(U10-A11)*%
X224220000Y-75717000D03*
%TO.P,U10,24,A9*%
%TO.N,Net-(U10-A9)*%
X226760000Y-75717000D03*
%TO.P,U10,25,A8*%
%TO.N,Net-(U10-A8)*%
X229300000Y-75717000D03*
%TO.P,U10,26,A13*%
%TO.N,Net-(U10-A13)*%
X231840000Y-75717000D03*
%TO.P,U10,27,WE#*%
%TO.N,Net-(U10-WE#)*%
X234380000Y-75717000D03*
%TO.P,U10,28,V+*%
%TO.N,Net-(U1-B0)*%
X236920000Y-75717000D03*
%TD*%
D10*
%TO.P,U39,1,IN*%
%TO.N,Net-(U25-Q0)*%
X171450000Y-113977000D03*
X176530000Y-113977000D03*
%TO.P,U39,2,GND*%
%TO.N,Net-(U1-C_IN)*%
X171450000Y-116517000D03*
X173990000Y-116517000D03*
%TO.P,U39,3,OUT*%
%TO.N,Net-(U19-1B)*%
X179070000Y-113977000D03*
X184150000Y-113977000D03*
%TD*%
%TO.P,U37,1,IN*%
%TO.N,Net-(U27-Q1)*%
X127220000Y-136977000D03*
X132300000Y-136977000D03*
%TO.P,U37,2,GND*%
%TO.N,Net-(U1-C_IN)*%
X127220000Y-139517000D03*
X129760000Y-139517000D03*
%TO.P,U37,3,OUT*%
%TO.N,Net-(U20-S)*%
X134840000Y-136977000D03*
X139920000Y-136977000D03*
%TD*%
D11*
%TO.P,U2,1,\u03A31*%
%TO.N,Net-(U2-\u03A31)*%
X85500000Y-25342000D03*
D12*
%TO.P,U2,2,B1*%
%TO.N,Net-(U1-B1)*%
X85500000Y-27882000D03*
%TO.P,U2,3,A1*%
%TO.N,Net-(U2-A1)*%
X85500000Y-30422000D03*
%TO.P,U2,4,\u03A30*%
%TO.N,Net-(U2-\u03A30)*%
X85500000Y-32962000D03*
%TO.P,U2,5,A0*%
%TO.N,Net-(U2-A0)*%
X85500000Y-35502000D03*
%TO.P,U2,6,B0*%
%TO.N,Net-(U1-B1)*%
X85500000Y-38042000D03*
%TO.P,U2,7,C_IN*%
%TO.N,Net-(U1-C_OUT)*%
X85500000Y-40582000D03*
%TO.P,U2,8,GND*%
%TO.N,Net-(U1-C_IN)*%
X85500000Y-43122000D03*
%TO.P,U2,9,C_OUT*%
%TO.N,Net-(U2-C_OUT)*%
X93120000Y-43122000D03*
%TO.P,U2,10,\u03A33*%
%TO.N,Net-(U2-\u03A33)*%
X93120000Y-40582000D03*
%TO.P,U2,11,B3*%
%TO.N,Net-(U1-B1)*%
X93120000Y-38042000D03*
%TO.P,U2,12,A3*%
%TO.N,Net-(U2-A3)*%
X93120000Y-35502000D03*
%TO.P,U2,13,\u03A32*%
%TO.N,Net-(U2-\u03A32)*%
X93120000Y-32962000D03*
%TO.P,U2,14,A2*%
%TO.N,Net-(U2-A2)*%
X93120000Y-30422000D03*
%TO.P,U2,15,B2*%
%TO.N,Net-(U1-B1)*%
X93120000Y-27882000D03*
%TO.P,U2,16,V+*%
%TO.N,Net-(U1-B0)*%
X93120000Y-25342000D03*
%TD*%
D11*
%TO.P,U25,1,0A*%
%TO.N,Net-(U25-0A)*%
X73180000Y-116057000D03*
D12*
%TO.P,U25,2,0B*%
%TO.N,Net-(U24-1B)*%
X73180000Y-118597000D03*
%TO.P,U25,3,Q0*%
%TO.N,Net-(U25-Q0)*%
X73180000Y-121137000D03*
%TO.P,U25,4,Q1*%
%TO.N,unconnected-(U25-Q1-Pad4)*%
X73180000Y-123677000D03*
%TO.P,U25,5,1A*%
%TO.N,Net-(U1-C_IN)*%
X73180000Y-126217000D03*
%TO.P,U25,6,1B*%
X73180000Y-128757000D03*
%TO.P,U25,7,GND*%
X73180000Y-131297000D03*
%TO.P,U25,8,2A*%
%TO.N,Net-(U25-2A)*%
X80800000Y-131297000D03*
%TO.P,U25,9,2B*%
%TO.N,Net-(U25-2B)*%
X80800000Y-128757000D03*
%TO.P,U25,10,Q2*%
%TO.N,Net-(U24-3A)*%
X80800000Y-126217000D03*
%TO.P,U25,11,Q3*%
%TO.N,Net-(U25-Q3)*%
X80800000Y-123677000D03*
%TO.P,U25,12,3A*%
%TO.N,Net-(U25-3A)*%
X80800000Y-121137000D03*
%TO.P,U25,13,3B*%
%TO.N,Net-(U25-3B)*%
X80800000Y-118597000D03*
%TO.P,U25,14,V+*%
%TO.N,Net-(U1-B0)*%
X80800000Y-116057000D03*
%TD*%
D11*
%TO.P,U13,1,I0*%
%TO.N,Net-(U11-CE#)*%
X217800000Y-116057000D03*
D12*
%TO.P,U13,2,O0*%
%TO.N,Net-(U10-CE#)*%
X217800000Y-118597000D03*
%TO.P,U13,3,I1*%
%TO.N,Net-(U13-I1)*%
X217800000Y-121137000D03*
%TO.P,U13,4,O1*%
%TO.N,Net-(U10-OE#)*%
X217800000Y-123677000D03*
%TO.P,U13,5,I2*%
%TO.N,Net-(U13-I2)*%
X217800000Y-126217000D03*
%TO.P,U13,6,O2*%
%TO.N,Net-(U10-WE#)*%
X217800000Y-128757000D03*
%TO.P,U13,7,GND*%
%TO.N,Net-(U1-C_IN)*%
X217800000Y-131297000D03*
%TO.P,U13,8,03*%
%TO.N,Net-(U13-03)*%
X225420000Y-131297000D03*
%TO.P,U13,9,I3*%
%TO.N,Net-(U13-I3)*%
X225420000Y-128757000D03*
%TO.P,U13,10,O4*%
%TO.N,Net-(U13-O4)*%
X225420000Y-126217000D03*
%TO.P,U13,11,I4*%
%TO.N,Net-(U13-I4)*%
X225420000Y-123677000D03*
%TO.P,U13,12,O5*%
%TO.N,Net-(U13-O5)*%
X225420000Y-121137000D03*
%TO.P,U13,13,I5*%
%TO.N,Net-(U13-I5)*%
X225420000Y-118597000D03*
%TO.P,U13,14,V+*%
%TO.N,Net-(U1-B0)*%
X225420000Y-116057000D03*
%TD*%
D11*
%TO.P,U14,1,\u03A31*%
%TO.N,Net-(U14-\u03A31)*%
X42800000Y-72017000D03*
D12*
%TO.P,U14,2,B1*%
%TO.N,Net-(U14-B1)*%
X42800000Y-74557000D03*
%TO.P,U14,3,A1*%
%TO.N,Net-(U14-A1)*%
X42800000Y-77097000D03*
%TO.P,U14,4,\u03A30*%
%TO.N,Net-(U14-\u03A30)*%
X42800000Y-79637000D03*
%TO.P,U14,5,A0*%
%TO.N,Net-(U14-A0)*%
X42800000Y-82177000D03*
%TO.P,U14,6,B0*%
%TO.N,Net-(U14-B0)*%
X42800000Y-84717000D03*
%TO.P,U14,7,C_IN*%
%TO.N,Net-(U1-C_IN)*%
X42800000Y-87257000D03*
%TO.P,U14,8,GND*%
X42800000Y-89797000D03*
%TO.P,U14,9,C_OUT*%
%TO.N,Net-(U14-C_OUT)*%
X50420000Y-89797000D03*
%TO.P,U14,10,\u03A33*%
%TO.N,Net-(U14-\u03A33)*%
X50420000Y-87257000D03*
%TO.P,U14,11,B3*%
%TO.N,Net-(U14-B3)*%
X50420000Y-84717000D03*
%TO.P,U14,12,A3*%
%TO.N,Net-(U14-A3)*%
X50420000Y-82177000D03*
%TO.P,U14,13,\u03A32*%
%TO.N,Net-(U14-\u03A32)*%
X50420000Y-79637000D03*
%TO.P,U14,14,A2*%
%TO.N,Net-(U14-A2)*%
X50420000Y-77097000D03*
%TO.P,U14,15,B2*%
%TO.N,Net-(U14-B2)*%
X50420000Y-74557000D03*
%TO.P,U14,16,V+*%
%TO.N,Net-(U1-B0)*%
X50420000Y-72017000D03*
%TD*%
D11*
%TO.P,U3,1,\u03A31*%
%TO.N,Net-(U3-\u03A31)*%
X52300000Y-61337000D03*
D12*
%TO.P,U3,2,B1*%
%TO.N,Net-(U1-B1)*%
X52300000Y-58797000D03*
%TO.P,U3,3,A1*%
%TO.N,Net-(U12-Q1)*%
X52300000Y-56257000D03*
%TO.P,U3,4,\u03A30*%
%TO.N,Net-(U3-\u03A30)*%
X52300000Y-53717000D03*
%TO.P,U3,5,A0*%
%TO.N,Net-(U12-Q0)*%
X52300000Y-51177000D03*
%TO.P,U3,6,B0*%
%TO.N,Net-(U1-B1)*%
X52300000Y-48637000D03*
%TO.P,U3,7,C_IN*%
%TO.N,Net-(U2-C_OUT)*%
X52300000Y-46097000D03*
%TO.P,U3,8,GND*%
%TO.N,Net-(U1-C_IN)*%
X52300000Y-43557000D03*
%TO.P,U3,9,C_OUT*%
%TO.N,Net-(U3-C_OUT)*%
X44680000Y-43557000D03*
%TO.P,U3,10,\u03A33*%
%TO.N,Net-(U3-\u03A33)*%
X44680000Y-46097000D03*
%TO.P,U3,11,B3*%
%TO.N,Net-(U1-B1)*%
X44680000Y-48637000D03*
%TO.P,U3,12,A3*%
%TO.N,Net-(U12-Q3)*%
X44680000Y-51177000D03*
%TO.P,U3,13,\u03A32*%
%TO.N,Net-(U3-\u03A32)*%
X44680000Y-53717000D03*
%TO.P,U3,14,A2*%
%TO.N,Net-(U12-Q2)*%
X44680000Y-56257000D03*
%TO.P,U3,15,B2*%
%TO.N,Net-(U1-B1)*%
X44680000Y-58797000D03*
%TO.P,U3,16,V+*%
%TO.N,Net-(U1-B0)*%
X44680000Y-61337000D03*
%TD*%
D13*
%TO.P,U5,1,READ_0*%
%TO.N,Net-(U25-2B)*%
X38800000Y-165197000D03*
D14*
%TO.P,U5,2,READ_1*%
%TO.N,Net-(U25-2A)*%
X38800000Y-162657000D03*
%TO.P,U5,3,READ_2*%
%TO.N,Net-(U28-2A)*%
X38800000Y-160117000D03*
%TO.P,U5,4,READ_3*%
%TO.N,unconnected-(U5-READ_3-Pad4)*%
X38800000Y-157577000D03*
%TO.P,U5,5,WRITE_0*%
%TO.N,Net-(U24-1B)*%
X38800000Y-155037000D03*
%TO.P,U5,6,WRITE_1*%
%TO.N,Net-(U25-0A)*%
X38800000Y-152497000D03*
%TO.P,U5,7,WRITE_2*%
%TO.N,unconnected-(U5-WRITE_2-Pad7)*%
X38800000Y-149957000D03*
%TO.P,U5,8,WRITE_2*%
%TO.N,unconnected-(U5-WRITE_2-Pad8)*%
X38800000Y-147417000D03*
%TO.P,U5,9,READ_READY*%
%TO.N,Net-(U26-Q0)*%
X38800000Y-144877000D03*
%TO.P,U5,10,CLK_A*%
%TO.N,Net-(U24-2A)*%
X38800000Y-142337000D03*
%TO.P,U5,11,CLK_B*%
%TO.N,Net-(U26-CLK)*%
X38800000Y-139797000D03*
%TO.P,U5,12,V+*%
%TO.N,Net-(U1-B0)*%
X38800000Y-137257000D03*
%TO.P,U5,13,GND*%
%TO.N,Net-(U1-C_IN)*%
X38800000Y-134717000D03*
%TO.P,U5,14,D0*%
%TO.N,Net-(U18-D0)*%
X38800000Y-132177000D03*
%TO.P,U5,15,D1*%
%TO.N,Net-(U18-D1)*%
X38800000Y-129637000D03*
%TO.P,U5,16,D2*%
%TO.N,Net-(U18-D2)*%
X38800000Y-127097000D03*
%TO.P,U5,17,D3*%
%TO.N,Net-(U18-D3)*%
X38800000Y-124557000D03*
%TO.P,U5,18,D4*%
%TO.N,Net-(U18-D4)*%
X38800000Y-122017000D03*
%TO.P,U5,19,D5*%
%TO.N,Net-(U18-D5)*%
X38800000Y-119477000D03*
%TO.P,U5,20,D6*%
%TO.N,Net-(U18-D6)*%
X38800000Y-116937000D03*
%TO.P,U5,21,D7*%
%TO.N,Net-(U18-D7)*%
X38800000Y-114397000D03*
%TO.P,U5,22,FAULT*%
%TO.N,Net-(U25-Q3)*%
X38800000Y-111857000D03*
%TO.P,U5,23,ENABLE*%
%TO.N,Net-(U47-1B)*%
X38800000Y-109317000D03*
%TD*%
D11*
%TO.P,U28,1,1A*%
%TO.N,Net-(U25-Q0)*%
X92000000Y-116592000D03*
D12*
%TO.P,U28,2,1B*%
%TO.N,Net-(U28-1B)*%
X92000000Y-119132000D03*
%TO.P,U28,3,1Q*%
%TO.N,Net-(U26-D0)*%
X92000000Y-121672000D03*
%TO.P,U28,4,2A*%
%TO.N,Net-(U28-2A)*%
X92000000Y-124212000D03*
%TO.P,U28,5,2B*%
%TO.N,Net-(U24-2A)*%
X92000000Y-126752000D03*
%TO.P,U28,6,2Q*%
%TO.N,Net-(U28-2Q)*%
X92000000Y-129292000D03*
%TO.P,U28,7,GND*%
%TO.N,Net-(U1-C_IN)*%
X92000000Y-131832000D03*
%TO.P,U28,8,4Q*%
%TO.N,Net-(U27-3B)*%
X99620000Y-131832000D03*
%TO.P,U28,9,4B*%
%TO.N,Net-(U26-CLK)*%
X99620000Y-129292000D03*
%TO.P,U28,10,4A*%
%TO.N,Net-(U26-Q0)*%
X99620000Y-126752000D03*
%TO.P,U28,11,3Q*%
%TO.N,Net-(U24-1A)*%
X99620000Y-124212000D03*
%TO.P,U28,12,3B*%
%TO.N,Net-(U26-Q1)*%
X99620000Y-121672000D03*
%TO.P,U28,13,3A*%
%TO.N,Net-(U26-CLK)*%
X99620000Y-119132000D03*
%TO.P,U28,14,V+*%
%TO.N,Net-(U1-B0)*%
X99620000Y-116592000D03*
%TD*%
D11*
%TO.P,U1,1,\u03A31*%
%TO.N,Net-(U1-\u03A31)*%
X105500000Y-24842000D03*
D12*
%TO.P,U1,2,B1*%
%TO.N,Net-(U1-B1)*%
X105500000Y-27382000D03*
%TO.P,U1,3,A1*%
%TO.N,Net-(U1-A1)*%
X105500000Y-29922000D03*
%TO.P,U1,4,\u03A30*%
%TO.N,Net-(U1-\u03A30)*%
X105500000Y-32462000D03*
%TO.P,U1,5,A0*%
%TO.N,Net-(U1-A0)*%
X105500000Y-35002000D03*
%TO.P,U1,6,B0*%
%TO.N,Net-(U1-B0)*%
X105500000Y-37542000D03*
%TO.P,U1,7,C_IN*%
%TO.N,Net-(U1-C_IN)*%
X105500000Y-40082000D03*
%TO.P,U1,8,GND*%
X105500000Y-42622000D03*
%TO.P,U1,9,C_OUT*%
%TO.N,Net-(U1-C_OUT)*%
X113120000Y-42622000D03*
%TO.P,U1,10,\u03A33*%
%TO.N,Net-(U1-\u03A33)*%
X113120000Y-40082000D03*
%TO.P,U1,11,B3*%
%TO.N,Net-(U1-B1)*%
X113120000Y-37542000D03*
%TO.P,U1,12,A3*%
%TO.N,Net-(U1-A3)*%
X113120000Y-35002000D03*
%TO.P,U1,13,\u03A32*%
%TO.N,Net-(U1-\u03A32)*%
X113120000Y-32462000D03*
%TO.P,U1,14,A2*%
%TO.N,Net-(U1-A2)*%
X113120000Y-29922000D03*
%TO.P,U1,15,B2*%
%TO.N,Net-(U1-B1)*%
X113120000Y-27382000D03*
%TO.P,U1,16,V+*%
%TO.N,Net-(U1-B0)*%
X113120000Y-24842000D03*
%TD*%
D11*
%TO.P,U20,1,S*%
%TO.N,Net-(U20-S)*%
X136925000Y-67517000D03*
D12*
%TO.P,U20,2,A0*%
%TO.N,Net-(U14-A0)*%
X139465000Y-67517000D03*
%TO.P,U20,3,B0*%
%TO.N,Net-(U14-\u03A30)*%
X142005000Y-67517000D03*
%TO.P,U20,4,Q0*%
%TO.N,Net-(U10-A0)*%
X144545000Y-67517000D03*
%TO.P,U20,5,A1*%
%TO.N,Net-(U14-A1)*%
X147085000Y-67517000D03*
%TO.P,U20,6,B1*%
%TO.N,Net-(U14-\u03A31)*%
X149625000Y-67517000D03*
%TO.P,U20,7,Q1*%
%TO.N,Net-(U10-A1)*%
X152165000Y-67517000D03*
%TO.P,U20,8,GND*%
%TO.N,Net-(U1-C_IN)*%
X154705000Y-67517000D03*
%TO.P,U20,9,Q2*%
%TO.N,Net-(U10-A2)*%
X154705000Y-59897000D03*
%TO.P,U20,10,B2*%
%TO.N,Net-(U14-\u03A32)*%
X152165000Y-59897000D03*
%TO.P,U20,11,A2*%
%TO.N,Net-(U14-A2)*%
X149625000Y-59897000D03*
%TO.P,U20,12,Q3*%
%TO.N,Net-(U10-A3)*%
X147085000Y-59897000D03*
%TO.P,U20,13,B3*%
%TO.N,Net-(U14-\u03A33)*%
X144545000Y-59897000D03*
%TO.P,U20,14,A3*%
%TO.N,Net-(U14-A3)*%
X142005000Y-59897000D03*
%TO.P,U20,15,OE#*%
%TO.N,Net-(U1-C_IN)*%
X139465000Y-59897000D03*
%TO.P,U20,16,V+*%
%TO.N,Net-(U1-B0)*%
X136925000Y-59897000D03*
%TD*%
D11*
%TO.P,U47,1,1A*%
%TO.N,Net-(U26-Q0)*%
X115000000Y-151092000D03*
D12*
%TO.P,U47,2,1B*%
%TO.N,Net-(U47-1B)*%
X115000000Y-153632000D03*
%TO.P,U47,3,1Q*%
%TO.N,Net-(U44-IN)*%
X115000000Y-156172000D03*
%TO.P,U47,4,2A*%
%TO.N,Net-(U1-C_IN)*%
X115000000Y-158712000D03*
%TO.P,U47,5,2B*%
X115000000Y-161252000D03*
%TO.P,U47,6,2Q*%
%TO.N,unconnected-(U47-2Q-Pad6)*%
X115000000Y-163792000D03*
%TO.P,U47,7,GND*%
%TO.N,Net-(U1-C_IN)*%
X115000000Y-166332000D03*
%TO.P,U47,8,4Q*%
%TO.N,unconnected-(U47-4Q-Pad8)*%
X122620000Y-166332000D03*
%TO.P,U47,9,4B*%
%TO.N,Net-(U1-C_IN)*%
X122620000Y-163792000D03*
%TO.P,U47,10,4A*%
X122620000Y-161252000D03*
%TO.P,U47,11,3Q*%
%TO.N,unconnected-(U47-3Q-Pad11)*%
X122620000Y-158712000D03*
%TO.P,U47,12,3B*%
%TO.N,Net-(U1-C_IN)*%
X122620000Y-156172000D03*
%TO.P,U47,13,3A*%
X122620000Y-153632000D03*
%TO.P,U47,14,V+*%
%TO.N,Net-(U1-B0)*%
X122620000Y-151092000D03*
%TD*%
D10*
%TO.P,U36,1,IN*%
%TO.N,Net-(U27-Q2)*%
X127140000Y-128977000D03*
X132220000Y-128977000D03*
%TO.P,U36,2,GND*%
%TO.N,Net-(U1-C_IN)*%
X127140000Y-131517000D03*
X129680000Y-131517000D03*
%TO.P,U36,3,OUT*%
%TO.N,Net-(U19-4A)*%
X134760000Y-128977000D03*
X139840000Y-128977000D03*
%TD*%
D11*
%TO.P,U6,1,OE#*%
%TO.N,Net-(U1-C_IN)*%
X122500000Y-24792000D03*
D12*
%TO.P,U6,2,D0*%
%TO.N,Net-(U1-\u03A30)*%
X122500000Y-27332000D03*
%TO.P,U6,3,D1*%
%TO.N,Net-(U1-\u03A31)*%
X122500000Y-29872000D03*
%TO.P,U6,4,D2*%
%TO.N,Net-(U1-\u03A32)*%
X122500000Y-32412000D03*
%TO.P,U6,5,D3*%
%TO.N,Net-(U1-\u03A33)*%
X122500000Y-34952000D03*
%TO.P,U6,6,D4*%
%TO.N,Net-(U2-\u03A30)*%
X122500000Y-37492000D03*
%TO.P,U6,7,D5*%
%TO.N,Net-(U2-\u03A31)*%
X122500000Y-40032000D03*
%TO.P,U6,8,D6*%
%TO.N,Net-(U2-\u03A32)*%
X122500000Y-42572000D03*
%TO.P,U6,9,D7*%
%TO.N,Net-(U2-\u03A33)*%
X122500000Y-45112000D03*
%TO.P,U6,10,GND*%
%TO.N,Net-(U1-C_IN)*%
X122500000Y-47652000D03*
%TO.P,U6,11,CLK*%
%TO.N,Net-(U19-4A)*%
X130120000Y-47652000D03*
%TO.P,U6,12,Q7*%
%TO.N,Net-(U15-A3)*%
X130120000Y-45112000D03*
%TO.P,U6,13,Q6*%
%TO.N,Net-(U15-A2)*%
X130120000Y-42572000D03*
%TO.P,U6,14,Q5*%
%TO.N,Net-(U15-A1)*%
X130120000Y-40032000D03*
%TO.P,U6,15,Q4*%
%TO.N,Net-(U15-A0)*%
X130120000Y-37492000D03*
%TO.P,U6,16,Q3*%
%TO.N,Net-(U14-A3)*%
X130120000Y-34952000D03*
%TO.P,U6,17,Q2*%
%TO.N,Net-(U14-A2)*%
X130120000Y-32412000D03*
%TO.P,U6,18,Q1*%
%TO.N,Net-(U14-A1)*%
X130120000Y-29872000D03*
%TO.P,U6,19,Q0*%
%TO.N,Net-(U14-A0)*%
X130120000Y-27332000D03*
%TO.P,U6,20,V+*%
%TO.N,Net-(U1-B0)*%
X130120000Y-24792000D03*
%TD*%
D10*
%TO.P,U43,1,IN*%
%TO.N,Net-(U27-3B)*%
X171450000Y-145217000D03*
X176530000Y-145217000D03*
%TO.P,U43,2,GND*%
%TO.N,Net-(U1-C_IN)*%
X171450000Y-147757000D03*
X173990000Y-147757000D03*
%TO.P,U43,3,OUT*%
%TO.N,Net-(U29-CLK)*%
X179070000Y-145217000D03*
X184150000Y-145217000D03*
%TD*%
D11*
%TO.P,U21,1,S*%
%TO.N,Net-(U20-S)*%
X148425000Y-50517000D03*
D12*
%TO.P,U21,2,A0*%
%TO.N,Net-(U15-A0)*%
X150965000Y-50517000D03*
%TO.P,U21,3,B0*%
%TO.N,Net-(U15-\u03A30)*%
X153505000Y-50517000D03*
%TO.P,U21,4,Q0*%
%TO.N,Net-(U10-A4)*%
X156045000Y-50517000D03*
%TO.P,U21,5,A1*%
%TO.N,Net-(U15-A1)*%
X158585000Y-50517000D03*
%TO.P,U21,6,B1*%
%TO.N,Net-(U15-\u03A31)*%
X161125000Y-50517000D03*
%TO.P,U21,7,Q1*%
%TO.N,Net-(U10-A5)*%
X163665000Y-50517000D03*
%TO.P,U21,8,GND*%
%TO.N,Net-(U1-C_IN)*%
X166205000Y-50517000D03*
%TO.P,U21,9,Q2*%
%TO.N,Net-(U10-A6)*%
X166205000Y-42897000D03*
%TO.P,U21,10,B2*%
%TO.N,Net-(U15-\u03A32)*%
X163665000Y-42897000D03*
%TO.P,U21,11,A2*%
%TO.N,Net-(U15-A2)*%
X161125000Y-42897000D03*
%TO.P,U21,12,Q3*%
%TO.N,Net-(U10-A7)*%
X158585000Y-42897000D03*
%TO.P,U21,13,B3*%
%TO.N,Net-(U15-\u03A33)*%
X156045000Y-42897000D03*
%TO.P,U21,14,A3*%
%TO.N,Net-(U15-A3)*%
X153505000Y-42897000D03*
%TO.P,U21,15,OE#*%
%TO.N,Net-(U1-C_IN)*%
X150965000Y-42897000D03*
%TO.P,U21,16,V+*%
%TO.N,Net-(U1-B0)*%
X148425000Y-42897000D03*
%TD*%
D11*
%TO.P,U18,1,OE#*%
%TO.N,Net-(U1-C_IN)*%
X43640000Y-106357000D03*
D12*
%TO.P,U18,2,D0*%
%TO.N,Net-(U18-D0)*%
X46180000Y-106357000D03*
%TO.P,U18,3,D1*%
%TO.N,Net-(U18-D1)*%
X48720000Y-106357000D03*
%TO.P,U18,4,D2*%
%TO.N,Net-(U18-D2)*%
X51260000Y-106357000D03*
%TO.P,U18,5,D3*%
%TO.N,Net-(U18-D3)*%
X53800000Y-106357000D03*
%TO.P,U18,6,D4*%
%TO.N,Net-(U18-D4)*%
X56340000Y-106357000D03*
%TO.P,U18,7,D5*%
%TO.N,Net-(U18-D5)*%
X58880000Y-106357000D03*
%TO.P,U18,8,D6*%
%TO.N,Net-(U18-D6)*%
X61420000Y-106357000D03*
%TO.P,U18,9,D7*%
%TO.N,Net-(U18-D7)*%
X63960000Y-106357000D03*
%TO.P,U18,10,GND*%
%TO.N,Net-(U1-C_IN)*%
X66500000Y-106357000D03*
%TO.P,U18,11,CLK*%
%TO.N,Net-(U18-CLK)*%
X66500000Y-98737000D03*
%TO.P,U18,12,Q7*%
%TO.N,Net-(U15-B3)*%
X63960000Y-98737000D03*
%TO.P,U18,13,Q6*%
%TO.N,Net-(U15-B2)*%
X61420000Y-98737000D03*
%TO.P,U18,14,Q5*%
%TO.N,Net-(U15-B1)*%
X58880000Y-98737000D03*
%TO.P,U18,15,Q4*%
%TO.N,Net-(U15-B0)*%
X56340000Y-98737000D03*
%TO.P,U18,16,Q3*%
%TO.N,Net-(U14-B3)*%
X53800000Y-98737000D03*
%TO.P,U18,17,Q2*%
%TO.N,Net-(U14-B2)*%
X51260000Y-98737000D03*
%TO.P,U18,18,Q1*%
%TO.N,Net-(U14-B1)*%
X48720000Y-98737000D03*
%TO.P,U18,19,Q0*%
%TO.N,Net-(U14-B0)*%
X46180000Y-98737000D03*
%TO.P,U18,20,V+*%
%TO.N,Net-(U1-B0)*%
X43640000Y-98737000D03*
%TD*%
D10*
%TO.P,U45,1,IN*%
%TO.N,Net-(U13-I3)*%
X127490000Y-157897000D03*
X132570000Y-157897000D03*
%TO.P,U45,2,GND*%
%TO.N,Net-(U1-C_IN)*%
X127490000Y-160437000D03*
X130030000Y-160437000D03*
%TO.P,U45,3,OUT*%
%TO.N,Net-(U25-3A)*%
X135110000Y-157897000D03*
X140190000Y-157897000D03*
%TD*%
D11*
%TO.P,U7,1,OE#*%
%TO.N,Net-(U1-C_IN)*%
X108000000Y-52292000D03*
D12*
%TO.P,U7,2,D0*%
%TO.N,Net-(U3-\u03A30)*%
X108000000Y-54832000D03*
%TO.P,U7,3,D1*%
%TO.N,Net-(U3-\u03A31)*%
X108000000Y-57372000D03*
%TO.P,U7,4,D2*%
%TO.N,Net-(U3-\u03A32)*%
X108000000Y-59912000D03*
%TO.P,U7,5,D3*%
%TO.N,Net-(U3-\u03A33)*%
X108000000Y-62452000D03*
%TO.P,U7,6,D4*%
%TO.N,Net-(U4-\u03A30)*%
X108000000Y-64992000D03*
%TO.P,U7,7,D5*%
%TO.N,Net-(U4-\u03A31)*%
X108000000Y-67532000D03*
%TO.P,U7,8,D6*%
%TO.N,Net-(U4-\u03A32)*%
X108000000Y-70072000D03*
%TO.P,U7,9,D7*%
%TO.N,Net-(U4-\u03A33)*%
X108000000Y-72612000D03*
%TO.P,U7,10,GND*%
%TO.N,Net-(U1-C_IN)*%
X108000000Y-75152000D03*
%TO.P,U7,11,CLK*%
%TO.N,Net-(U19-4A)*%
X115620000Y-75152000D03*
%TO.P,U7,12,Q7*%
%TO.N,Net-(U12-D7)*%
X115620000Y-72612000D03*
%TO.P,U7,13,Q6*%
%TO.N,Net-(U12-D6)*%
X115620000Y-70072000D03*
%TO.P,U7,14,Q5*%
%TO.N,Net-(U12-D5)*%
X115620000Y-67532000D03*
%TO.P,U7,15,Q4*%
%TO.N,Net-(U12-D4)*%
X115620000Y-64992000D03*
%TO.P,U7,16,Q3*%
%TO.N,Net-(U12-D3)*%
X115620000Y-62452000D03*
%TO.P,U7,17,Q2*%
%TO.N,Net-(U12-D2)*%
X115620000Y-59912000D03*
%TO.P,U7,18,Q1*%
%TO.N,Net-(U12-D1)*%
X115620000Y-57372000D03*
%TO.P,U7,19,Q0*%
%TO.N,Net-(U12-D0)*%
X115620000Y-54832000D03*
%TO.P,U7,20,V+*%
%TO.N,Net-(U1-B0)*%
X115620000Y-52292000D03*
%TD*%
D13*
%TO.P,U32,1,0*%
%TO.N,Net-(U10-D0)*%
X205120000Y-91602000D03*
D14*
%TO.P,U32,2,1*%
%TO.N,Net-(U10-D1)*%
X202580000Y-91602000D03*
%TO.P,U32,3,2*%
%TO.N,Net-(U10-D2)*%
X200040000Y-91602000D03*
%TO.P,U32,4,3*%
%TO.N,Net-(U10-D3)*%
X197500000Y-91602000D03*
%TO.P,U32,5,4*%
%TO.N,Net-(U10-D4)*%
X194960000Y-91602000D03*
%TO.P,U32,6,5*%
%TO.N,Net-(U10-D5)*%
X192420000Y-91602000D03*
%TO.P,U32,7,6*%
%TO.N,Net-(U10-D6)*%
X189880000Y-91602000D03*
%TO.P,U32,8,7*%
%TO.N,Net-(U10-D7)*%
X187340000Y-91602000D03*
%TD*%
D11*
%TO.P,U16,1,\u03A31*%
%TO.N,Net-(U16-\u03A31)*%
X118880000Y-87217000D03*
D12*
%TO.P,U16,2,B1*%
%TO.N,Net-(U1-B0)*%
X116340000Y-87217000D03*
%TO.P,U16,3,A1*%
%TO.N,Net-(U12-D1)*%
X113800000Y-87217000D03*
%TO.P,U16,4,\u03A30*%
%TO.N,Net-(U16-\u03A30)*%
X111260000Y-87217000D03*
%TO.P,U16,5,A0*%
%TO.N,Net-(U12-D0)*%
X108720000Y-87217000D03*
%TO.P,U16,6,B0*%
%TO.N,Net-(U1-B0)*%
X106180000Y-87217000D03*
%TO.P,U16,7,C_IN*%
%TO.N,Net-(U15-C_OUT)*%
X103640000Y-87217000D03*
%TO.P,U16,8,GND*%
%TO.N,Net-(U1-C_IN)*%
X101100000Y-87217000D03*
%TO.P,U16,9,C_OUT*%
%TO.N,Net-(U16-C_OUT)*%
X101100000Y-94837000D03*
%TO.P,U16,10,\u03A33*%
%TO.N,Net-(U16-\u03A33)*%
X103640000Y-94837000D03*
%TO.P,U16,11,B3*%
%TO.N,Net-(U1-B0)*%
X106180000Y-94837000D03*
%TO.P,U16,12,A3*%
%TO.N,Net-(U12-D3)*%
X108720000Y-94837000D03*
%TO.P,U16,13,\u03A32*%
%TO.N,Net-(U16-\u03A32)*%
X111260000Y-94837000D03*
%TO.P,U16,14,A2*%
%TO.N,Net-(U12-D2)*%
X113800000Y-94837000D03*
%TO.P,U16,15,B2*%
%TO.N,Net-(U1-B0)*%
X116340000Y-94837000D03*
%TO.P,U16,16,V+*%
X118880000Y-94837000D03*
%TD*%
D11*
%TO.P,U31,1,I0*%
%TO.N,Net-(U26-Q0)*%
X108500000Y-120092000D03*
D12*
%TO.P,U31,2,O0*%
%TO.N,Net-(U28-1B)*%
X108500000Y-122632000D03*
%TO.P,U31,3,I1*%
%TO.N,Net-(U1-C_IN)*%
X108500000Y-125172000D03*
%TO.P,U31,4,O1*%
%TO.N,unconnected-(U31-O1-Pad4)*%
X108500000Y-127712000D03*
%TO.P,U31,5,I2*%
%TO.N,Net-(U1-C_IN)*%
X108500000Y-130252000D03*
%TO.P,U31,6,O2*%
%TO.N,unconnected-(U31-O2-Pad6)*%
X108500000Y-132792000D03*
%TO.P,U31,7,GND*%
%TO.N,Net-(U1-C_IN)*%
X108500000Y-135332000D03*
%TO.P,U31,8,03*%
%TO.N,unconnected-(U31-03-Pad8)*%
X116120000Y-135332000D03*
%TO.P,U31,9,I3*%
%TO.N,Net-(U1-C_IN)*%
X116120000Y-132792000D03*
%TO.P,U31,10,O4*%
%TO.N,unconnected-(U31-O4-Pad10)*%
X116120000Y-130252000D03*
%TO.P,U31,11,I4*%
%TO.N,Net-(U1-C_IN)*%
X116120000Y-127712000D03*
%TO.P,U31,12,O5*%
%TO.N,unconnected-(U31-O5-Pad12)*%
X116120000Y-125172000D03*
%TO.P,U31,13,I5*%
%TO.N,Net-(U1-C_IN)*%
X116120000Y-122632000D03*
%TO.P,U31,14,V+*%
%TO.N,Net-(U1-B0)*%
X116120000Y-120092000D03*
%TD*%
D13*
%TO.P,U33,1,0*%
%TO.N,Net-(U10-A0)*%
X181332500Y-49409500D03*
D14*
%TO.P,U33,2,1*%
%TO.N,Net-(U10-A1)*%
X183872500Y-49409500D03*
%TO.P,U33,3,2*%
%TO.N,Net-(U10-A2)*%
X186412500Y-49409500D03*
%TO.P,U33,4,3*%
%TO.N,Net-(U10-A3)*%
X188952500Y-49409500D03*
%TO.P,U33,5,4*%
%TO.N,Net-(U10-A4)*%
X191492500Y-49409500D03*
%TO.P,U33,6,5*%
%TO.N,Net-(U10-A5)*%
X194032500Y-49409500D03*
%TO.P,U33,7,6*%
%TO.N,Net-(U10-A6)*%
X196572500Y-49409500D03*
%TO.P,U33,8,7*%
%TO.N,Net-(U10-A7)*%
X199112500Y-49409500D03*
%TO.P,U33,9,8*%
%TO.N,Net-(U10-A8)*%
X201652500Y-49409500D03*
%TO.P,U33,10,9*%
%TO.N,Net-(U10-A9)*%
X204192500Y-49409500D03*
%TO.P,U33,11,10*%
%TO.N,Net-(U10-A10)*%
X206732500Y-49409500D03*
%TO.P,U33,12,11*%
%TO.N,Net-(U10-A11)*%
X209272500Y-49409500D03*
%TO.P,U33,13,12*%
%TO.N,Net-(U10-A12)*%
X211812500Y-49409500D03*
%TO.P,U33,14,13*%
%TO.N,Net-(U10-A13)*%
X214352500Y-49409500D03*
%TO.P,U33,15,14*%
%TO.N,Net-(U10-A14)*%
X216892500Y-49409500D03*
%TO.P,U33,16,15*%
%TO.N,Net-(U11-CE#)*%
X219432500Y-49409500D03*
%TD*%
D10*
%TO.P,U42,1,IN*%
%TO.N,Net-(U26-Q3)*%
X171450000Y-137477000D03*
X176530000Y-137477000D03*
%TO.P,U42,2,GND*%
%TO.N,Net-(U1-C_IN)*%
X171450000Y-140017000D03*
X173990000Y-140017000D03*
%TO.P,U42,3,OUT*%
%TO.N,Net-(U19-2B)*%
X179070000Y-137477000D03*
X184150000Y-137477000D03*
%TD*%
%TO.P,U35,1,IN*%
%TO.N,Net-(U24-1B)*%
X127260000Y-121094500D03*
X132340000Y-121094500D03*
%TO.P,U35,2,GND*%
%TO.N,Net-(U1-C_IN)*%
X127260000Y-123634500D03*
X129800000Y-123634500D03*
%TO.P,U35,3,OUT*%
%TO.N,Net-(U1-B1)*%
X134880000Y-121094500D03*
X139960000Y-121094500D03*
%TD*%
D11*
%TO.P,U9,1,OE#*%
%TO.N,Net-(U1-C_IN)*%
X60800000Y-145477000D03*
D12*
%TO.P,U9,2,D0*%
%TO.N,Net-(U26-Q0)*%
X60800000Y-148017000D03*
%TO.P,U9,3,D1*%
%TO.N,Net-(U24-3A)*%
X60800000Y-150557000D03*
%TO.P,U9,4,D2*%
%TO.N,Net-(U26-Q2)*%
X60800000Y-153097000D03*
%TO.P,U9,5,D3*%
%TO.N,Net-(U26-Q3)*%
X60800000Y-155637000D03*
%TO.P,U9,6,D4*%
%TO.N,Net-(U25-2B)*%
X60800000Y-158177000D03*
%TO.P,U9,7,D5*%
%TO.N,Net-(U26-Q4)*%
X60800000Y-160717000D03*
%TO.P,U9,8,D6*%
%TO.N,Net-(U25-2A)*%
X60800000Y-163257000D03*
%TO.P,U9,9,D7*%
%TO.N,Net-(U26-Q5)*%
X60800000Y-165797000D03*
%TO.P,U9,10,GND*%
%TO.N,Net-(U1-C_IN)*%
X60800000Y-168337000D03*
%TO.P,U9,11,CLK*%
%TO.N,Net-(U24-2A)*%
X68420000Y-168337000D03*
%TO.P,U9,12,Q7*%
%TO.N,Net-(U26-D6)*%
X68420000Y-165797000D03*
%TO.P,U9,13,Q6*%
%TO.N,Net-(U26-D5)*%
X68420000Y-163257000D03*
%TO.P,U9,14,Q5*%
%TO.N,Net-(U24-4A)*%
X68420000Y-160717000D03*
%TO.P,U9,15,Q4*%
%TO.N,Net-(U26-D4)*%
X68420000Y-158177000D03*
%TO.P,U9,16,Q3*%
%TO.N,Net-(U24-2B)*%
X68420000Y-155637000D03*
%TO.P,U9,17,Q2*%
%TO.N,Net-(U26-D3)*%
X68420000Y-153097000D03*
%TO.P,U9,18,Q1*%
%TO.N,Net-(U26-D2)*%
X68420000Y-150557000D03*
%TO.P,U9,19,Q0*%
%TO.N,Net-(U26-D1)*%
X68420000Y-148017000D03*
%TO.P,U9,20,V+*%
%TO.N,Net-(U1-B0)*%
X68420000Y-145477000D03*
%TD*%
D11*
%TO.P,U22,1,S*%
%TO.N,Net-(U20-S)*%
X151925000Y-32637000D03*
D12*
%TO.P,U22,2,A0*%
%TO.N,Net-(U12-D0)*%
X154465000Y-32637000D03*
%TO.P,U22,3,B0*%
%TO.N,Net-(U16-\u03A30)*%
X157005000Y-32637000D03*
%TO.P,U22,4,Q0*%
%TO.N,Net-(U10-A8)*%
X159545000Y-32637000D03*
%TO.P,U22,5,A1*%
%TO.N,Net-(U12-D1)*%
X162085000Y-32637000D03*
%TO.P,U22,6,B1*%
%TO.N,Net-(U16-\u03A31)*%
X164625000Y-32637000D03*
%TO.P,U22,7,Q1*%
%TO.N,Net-(U10-A9)*%
X167165000Y-32637000D03*
%TO.P,U22,8,GND*%
%TO.N,Net-(U1-C_IN)*%
X169705000Y-32637000D03*
%TO.P,U22,9,Q2*%
%TO.N,Net-(U10-A10)*%
X169705000Y-25017000D03*
%TO.P,U22,10,B2*%
%TO.N,Net-(U16-\u03A32)*%
X167165000Y-25017000D03*
%TO.P,U22,11,A2*%
%TO.N,Net-(U12-D2)*%
X164625000Y-25017000D03*
%TO.P,U22,12,Q3*%
%TO.N,Net-(U10-A11)*%
X162085000Y-25017000D03*
%TO.P,U22,13,B3*%
%TO.N,Net-(U16-\u03A33)*%
X159545000Y-25017000D03*
%TO.P,U22,14,A3*%
%TO.N,Net-(U12-D3)*%
X157005000Y-25017000D03*
%TO.P,U22,15,OE#*%
%TO.N,Net-(U1-C_IN)*%
X154465000Y-25017000D03*
%TO.P,U22,16,V+*%
%TO.N,Net-(U1-B0)*%
X151925000Y-25017000D03*
%TD*%
D11*
%TO.P,U12,1,OE#*%
%TO.N,Net-(U1-C_IN)*%
X69140000Y-62217000D03*
D12*
%TO.P,U12,2,D0*%
%TO.N,Net-(U12-D0)*%
X71680000Y-62217000D03*
%TO.P,U12,3,D1*%
%TO.N,Net-(U12-D1)*%
X74220000Y-62217000D03*
%TO.P,U12,4,D2*%
%TO.N,Net-(U12-D2)*%
X76760000Y-62217000D03*
%TO.P,U12,5,D3*%
%TO.N,Net-(U12-D3)*%
X79300000Y-62217000D03*
%TO.P,U12,6,D4*%
%TO.N,Net-(U12-D4)*%
X81840000Y-62217000D03*
%TO.P,U12,7,D5*%
%TO.N,Net-(U12-D5)*%
X84380000Y-62217000D03*
%TO.P,U12,8,D6*%
%TO.N,Net-(U12-D6)*%
X86920000Y-62217000D03*
%TO.P,U12,9,D7*%
%TO.N,Net-(U12-D7)*%
X89460000Y-62217000D03*
%TO.P,U12,10,GND*%
%TO.N,Net-(U1-C_IN)*%
X92000000Y-62217000D03*
%TO.P,U12,11,CLK*%
%TO.N,Net-(U12-CLK)*%
X92000000Y-54597000D03*
%TO.P,U12,12,Q7*%
%TO.N,Net-(U12-Q7)*%
X89460000Y-54597000D03*
%TO.P,U12,13,Q6*%
%TO.N,Net-(U12-Q6)*%
X86920000Y-54597000D03*
%TO.P,U12,14,Q5*%
%TO.N,Net-(U12-Q5)*%
X84380000Y-54597000D03*
%TO.P,U12,15,Q4*%
%TO.N,Net-(U12-Q4)*%
X81840000Y-54597000D03*
%TO.P,U12,16,Q3*%
%TO.N,Net-(U12-Q3)*%
X79300000Y-54597000D03*
%TO.P,U12,17,Q2*%
%TO.N,Net-(U12-Q2)*%
X76760000Y-54597000D03*
%TO.P,U12,18,Q1*%
%TO.N,Net-(U12-Q1)*%
X74220000Y-54597000D03*
%TO.P,U12,19,Q0*%
%TO.N,Net-(U12-Q0)*%
X71680000Y-54597000D03*
%TO.P,U12,20,V+*%
%TO.N,Net-(U1-B0)*%
X69140000Y-54597000D03*
%TD*%
D10*
%TO.P,U38,1,IN*%
%TO.N,Net-(U28-2Q)*%
X127220000Y-144977000D03*
X132300000Y-144977000D03*
%TO.P,U38,2,GND*%
%TO.N,Net-(U1-C_IN)*%
X127220000Y-147517000D03*
X129760000Y-147517000D03*
%TO.P,U38,3,OUT*%
%TO.N,Net-(U18-CLK)*%
X134840000Y-144977000D03*
X139920000Y-144977000D03*
%TD*%
D11*
%TO.P,U17,1,\u03A31*%
%TO.N,Net-(U17-\u03A31)*%
X128500000Y-80842000D03*
D12*
%TO.P,U17,2,B1*%
%TO.N,Net-(U1-B0)*%
X128500000Y-83382000D03*
%TO.P,U17,3,A1*%
%TO.N,Net-(U12-D5)*%
X128500000Y-85922000D03*
%TO.P,U17,4,\u03A30*%
%TO.N,Net-(U17-\u03A30)*%
X128500000Y-88462000D03*
%TO.P,U17,5,A0*%
%TO.N,Net-(U12-D4)*%
X128500000Y-91002000D03*
%TO.P,U17,6,B0*%
%TO.N,Net-(U1-B0)*%
X128500000Y-93542000D03*
%TO.P,U17,7,C_IN*%
%TO.N,Net-(U16-C_OUT)*%
X128500000Y-96082000D03*
%TO.P,U17,8,GND*%
%TO.N,Net-(U1-C_IN)*%
X128500000Y-98622000D03*
%TO.P,U17,9,C_OUT*%
%TO.N,unconnected-(U17-C_OUT-Pad9)*%
X136120000Y-98622000D03*
%TO.P,U17,10,\u03A33*%
%TO.N,Net-(U17-\u03A33)*%
X136120000Y-96082000D03*
%TO.P,U17,11,B3*%
%TO.N,Net-(U1-B0)*%
X136120000Y-93542000D03*
%TO.P,U17,12,A3*%
%TO.N,Net-(U12-D7)*%
X136120000Y-91002000D03*
%TO.P,U17,13,\u03A32*%
%TO.N,Net-(U17-\u03A32)*%
X136120000Y-88462000D03*
%TO.P,U17,14,A2*%
%TO.N,Net-(U12-D6)*%
X136120000Y-85922000D03*
%TO.P,U17,15,B2*%
%TO.N,Net-(U1-B0)*%
X136120000Y-83382000D03*
%TO.P,U17,16,V+*%
X136120000Y-80842000D03*
%TD*%
D10*
%TO.P,U41,1,IN*%
%TO.N,Net-(U24-3Q)*%
X171450000Y-129847000D03*
X176530000Y-129847000D03*
%TO.P,U41,2,GND*%
%TO.N,Net-(U1-C_IN)*%
X171450000Y-132387000D03*
X173990000Y-132387000D03*
%TO.P,U41,3,OUT*%
%TO.N,Net-(U30-CLK)*%
X179070000Y-129847000D03*
X184150000Y-129847000D03*
%TD*%
D11*
%TO.P,U29,1,OE#*%
%TO.N,Net-(U13-O5)*%
X207700000Y-96602000D03*
D12*
%TO.P,U29,2,D0*%
%TO.N,Net-(U10-D0)*%
X205160000Y-96602000D03*
%TO.P,U29,3,D1*%
%TO.N,Net-(U10-D1)*%
X202620000Y-96602000D03*
%TO.P,U29,4,D2*%
%TO.N,Net-(U10-D2)*%
X200080000Y-96602000D03*
%TO.P,U29,5,D3*%
%TO.N,Net-(U10-D3)*%
X197540000Y-96602000D03*
%TO.P,U29,6,D4*%
%TO.N,Net-(U10-D4)*%
X195000000Y-96602000D03*
%TO.P,U29,7,D5*%
%TO.N,Net-(U10-D5)*%
X192460000Y-96602000D03*
%TO.P,U29,8,D6*%
%TO.N,Net-(U10-D6)*%
X189920000Y-96602000D03*
%TO.P,U29,9,D7*%
%TO.N,Net-(U10-D7)*%
X187380000Y-96602000D03*
%TO.P,U29,10,GND*%
%TO.N,Net-(U1-C_IN)*%
X184840000Y-96602000D03*
%TO.P,U29,11,CLK*%
%TO.N,Net-(U29-CLK)*%
X184840000Y-104222000D03*
%TO.P,U29,12,Q7*%
%TO.N,Net-(U18-D7)*%
X187380000Y-104222000D03*
%TO.P,U29,13,Q6*%
%TO.N,Net-(U18-D6)*%
X189920000Y-104222000D03*
%TO.P,U29,14,Q5*%
%TO.N,Net-(U18-D5)*%
X192460000Y-104222000D03*
%TO.P,U29,15,Q4*%
%TO.N,Net-(U18-D4)*%
X195000000Y-104222000D03*
%TO.P,U29,16,Q3*%
%TO.N,Net-(U18-D3)*%
X197540000Y-104222000D03*
%TO.P,U29,17,Q2*%
%TO.N,Net-(U18-D2)*%
X200080000Y-104222000D03*
%TO.P,U29,18,Q1*%
%TO.N,Net-(U18-D1)*%
X202620000Y-104222000D03*
%TO.P,U29,19,Q0*%
%TO.N,Net-(U18-D0)*%
X205160000Y-104222000D03*
%TO.P,U29,20,V+*%
%TO.N,Net-(U1-B0)*%
X207700000Y-104222000D03*
%TD*%
D10*
%TO.P,U46,1,IN*%
%TO.N,Net-(U19-4Q)*%
X127490000Y-165897000D03*
X132570000Y-165897000D03*
%TO.P,U46,2,GND*%
%TO.N,Net-(U1-C_IN)*%
X127490000Y-168437000D03*
X130030000Y-168437000D03*
%TO.P,U46,3,OUT*%
%TO.N,Net-(U25-3B)*%
X135110000Y-165897000D03*
X140190000Y-165897000D03*
%TD*%
%TO.P,U34,1,IN*%
%TO.N,Net-(U27-Q3)*%
X127260000Y-113527000D03*
X132340000Y-113527000D03*
%TO.P,U34,2,GND*%
%TO.N,Net-(U1-C_IN)*%
X127260000Y-116067000D03*
X129800000Y-116067000D03*
%TO.P,U34,3,OUT*%
%TO.N,Net-(U12-CLK)*%
X134880000Y-113527000D03*
X139960000Y-113527000D03*
%TD*%
D11*
%TO.P,U19,1,1A*%
%TO.N,Net-(U13-03)*%
X218180000Y-85597000D03*
D12*
%TO.P,U19,2,1B*%
%TO.N,Net-(U19-1B)*%
X218180000Y-88137000D03*
%TO.P,U19,3,1Q*%
%TO.N,Net-(U13-I1)*%
X218180000Y-90677000D03*
%TO.P,U19,4,2A*%
%TO.N,Net-(U19-1B)*%
X218180000Y-93217000D03*
%TO.P,U19,5,2B*%
%TO.N,Net-(U19-2B)*%
X218180000Y-95757000D03*
%TO.P,U19,6,2Q*%
%TO.N,Net-(U13-I3)*%
X218180000Y-98297000D03*
%TO.P,U19,7,GND*%
%TO.N,Net-(U1-C_IN)*%
X218180000Y-100837000D03*
%TO.P,U19,8,4Q*%
%TO.N,Net-(U19-4Q)*%
X225800000Y-100837000D03*
%TO.P,U19,9,4B*%
%TO.N,Net-(U12-CLK)*%
X225800000Y-98297000D03*
%TO.P,U19,10,4A*%
%TO.N,Net-(U19-4A)*%
X225800000Y-95757000D03*
%TO.P,U19,11,3Q*%
%TO.N,Net-(U13-I4)*%
X225800000Y-93217000D03*
%TO.P,U19,12,3B*%
%TO.N,Net-(U19-2B)*%
X225800000Y-90677000D03*
%TO.P,U19,13,3A*%
%TO.N,Net-(U13-03)*%
X225800000Y-88137000D03*
%TO.P,U19,14,V+*%
%TO.N,Net-(U1-B0)*%
X225800000Y-85597000D03*
%TD*%
D11*
%TO.P,U30,1,OE#*%
%TO.N,Net-(U13-O4)*%
X152140000Y-99837000D03*
D12*
%TO.P,U30,2,D0*%
%TO.N,Net-(U18-D0)*%
X154680000Y-99837000D03*
%TO.P,U30,3,D1*%
%TO.N,Net-(U18-D1)*%
X157220000Y-99837000D03*
%TO.P,U30,4,D2*%
%TO.N,Net-(U18-D2)*%
X159760000Y-99837000D03*
%TO.P,U30,5,D3*%
%TO.N,Net-(U18-D3)*%
X162300000Y-99837000D03*
%TO.P,U30,6,D4*%
%TO.N,Net-(U18-D4)*%
X164840000Y-99837000D03*
%TO.P,U30,7,D5*%
%TO.N,Net-(U18-D5)*%
X167380000Y-99837000D03*
%TO.P,U30,8,D6*%
%TO.N,Net-(U18-D6)*%
X169920000Y-99837000D03*
%TO.P,U30,9,D7*%
%TO.N,Net-(U18-D7)*%
X172460000Y-99837000D03*
%TO.P,U30,10,GND*%
%TO.N,Net-(U1-C_IN)*%
X175000000Y-99837000D03*
%TO.P,U30,11,CLK*%
%TO.N,Net-(U30-CLK)*%
X175000000Y-92217000D03*
%TO.P,U30,12,Q7*%
%TO.N,Net-(U10-D7)*%
X172460000Y-92217000D03*
%TO.P,U30,13,Q6*%
%TO.N,Net-(U10-D6)*%
X169920000Y-92217000D03*
%TO.P,U30,14,Q5*%
%TO.N,Net-(U10-D5)*%
X167380000Y-92217000D03*
%TO.P,U30,15,Q4*%
%TO.N,Net-(U10-D4)*%
X164840000Y-92217000D03*
%TO.P,U30,16,Q3*%
%TO.N,Net-(U10-D3)*%
X162300000Y-92217000D03*
%TO.P,U30,17,Q2*%
%TO.N,Net-(U10-D2)*%
X159760000Y-92217000D03*
%TO.P,U30,18,Q1*%
%TO.N,Net-(U10-D1)*%
X157220000Y-92217000D03*
%TO.P,U30,19,Q0*%
%TO.N,Net-(U10-D0)*%
X154680000Y-92217000D03*
%TO.P,U30,20,V+*%
%TO.N,Net-(U1-B0)*%
X152140000Y-92217000D03*
%TD*%
D11*
%TO.P,U26,1,OE#*%
%TO.N,Net-(U1-C_IN)*%
X101680000Y-148557000D03*
D12*
%TO.P,U26,2,D0*%
%TO.N,Net-(U26-D0)*%
X101680000Y-151097000D03*
%TO.P,U26,3,D1*%
%TO.N,Net-(U26-D1)*%
X101680000Y-153637000D03*
%TO.P,U26,4,D2*%
%TO.N,Net-(U26-D2)*%
X101680000Y-156177000D03*
%TO.P,U26,5,D3*%
%TO.N,Net-(U26-D3)*%
X101680000Y-158717000D03*
%TO.P,U26,6,D4*%
%TO.N,Net-(U26-D4)*%
X101680000Y-161257000D03*
%TO.P,U26,7,D5*%
%TO.N,Net-(U26-D5)*%
X101680000Y-163797000D03*
%TO.P,U26,8,D6*%
%TO.N,Net-(U26-D6)*%
X101680000Y-166337000D03*
%TO.P,U26,9,D7*%
%TO.N,Net-(U1-C_IN)*%
X101680000Y-168877000D03*
%TO.P,U26,10,GND*%
X101680000Y-171417000D03*
%TO.P,U26,11,CLK*%
%TO.N,Net-(U26-CLK)*%
X109300000Y-171417000D03*
%TO.P,U26,12,Q7*%
%TO.N,unconnected-(U26-Q7-Pad12)*%
X109300000Y-168877000D03*
%TO.P,U26,13,Q6*%
%TO.N,Net-(U26-Q6)*%
X109300000Y-166337000D03*
%TO.P,U26,14,Q5*%
%TO.N,Net-(U26-Q5)*%
X109300000Y-163797000D03*
%TO.P,U26,15,Q4*%
%TO.N,Net-(U26-Q4)*%
X109300000Y-161257000D03*
%TO.P,U26,16,Q3*%
%TO.N,Net-(U26-Q3)*%
X109300000Y-158717000D03*
%TO.P,U26,17,Q2*%
%TO.N,Net-(U26-Q2)*%
X109300000Y-156177000D03*
%TO.P,U26,18,Q1*%
%TO.N,Net-(U26-Q1)*%
X109300000Y-153637000D03*
%TO.P,U26,19,Q0*%
%TO.N,Net-(U26-Q0)*%
X109300000Y-151097000D03*
%TO.P,U26,20,V+*%
%TO.N,Net-(U1-B0)*%
X109300000Y-148557000D03*
%TD*%
D11*
%TO.P,U27,1,0A*%
%TO.N,Net-(U1-B0)*%
X91840000Y-153217000D03*
D12*
%TO.P,U27,2,0B*%
X89300000Y-153217000D03*
%TO.P,U27,3,Q0*%
%TO.N,unconnected-(U27-Q0-Pad3)*%
X86760000Y-153217000D03*
%TO.P,U27,4,Q1*%
%TO.N,Net-(U27-Q1)*%
X84220000Y-153217000D03*
%TO.P,U27,5,1A*%
%TO.N,Net-(U25-0A)*%
X81680000Y-153217000D03*
%TO.P,U27,6,1B*%
%TO.N,Net-(U26-Q6)*%
X79140000Y-153217000D03*
%TO.P,U27,7,GND*%
%TO.N,Net-(U1-C_IN)*%
X76600000Y-153217000D03*
%TO.P,U27,8,2A*%
%TO.N,Net-(U24-4Q)*%
X76600000Y-160837000D03*
%TO.P,U27,9,2B*%
%TO.N,Net-(U24-1Q)*%
X79140000Y-160837000D03*
%TO.P,U27,10,Q2*%
%TO.N,Net-(U27-Q2)*%
X81680000Y-160837000D03*
%TO.P,U27,11,Q3*%
%TO.N,Net-(U27-Q3)*%
X84220000Y-160837000D03*
%TO.P,U27,12,3A*%
%TO.N,Net-(U24-3Q)*%
X86760000Y-160837000D03*
%TO.P,U27,13,3B*%
%TO.N,Net-(U27-3B)*%
X89300000Y-160837000D03*
%TO.P,U27,14,V+*%
%TO.N,Net-(U1-B0)*%
X91840000Y-160837000D03*
%TD*%
D15*
%TO.N,Net-(U1-B1)*%
X104702000Y-113038000D03*
X56616000Y-39299000D03*
X74851000Y-91198000D03*
X129800000Y-112217000D03*
%TO.N,Net-(U1-B0)*%
X61954000Y-70491000D03*
X209092000Y-108634000D03*
X87751000Y-114097000D03*
X58998000Y-120976000D03*
X119362000Y-148433000D03*
X98591000Y-145633000D03*
X48269000Y-94081000D03*
X69472000Y-70491000D03*
X185003000Y-81902000D03*
%TO.N,Net-(U1-C_OUT)*%
X100488000Y-44556000D03*
%TO.N,Net-(U1-A1)*%
X90313000Y-43143000D03*
X65366000Y-42212000D03*
%TO.N,Net-(U1-A3)*%
X113174000Y-46578000D03*
X63584000Y-47604000D03*
%TO.N,Net-(U1-A2)*%
X104186000Y-43852000D03*
X76114000Y-36420000D03*
%TO.N,Net-(U2-\u03A31)*%
X109180000Y-32575000D03*
X107342000Y-30737000D03*
%TO.N,Net-(U2-A0)*%
X54115000Y-38242000D03*
%TO.N,Net-(U2-\u03A30)*%
X88455000Y-38118000D03*
X99050000Y-44141000D03*
%TO.N,Net-(U3-\u03A33)*%
X81069000Y-43089000D03*
%TO.N,Net-(U4-\u03A31)*%
X66087000Y-63072000D03*
%TO.N,Net-(U4-\u03A32)*%
X82499000Y-75595000D03*
%TO.N,Net-(U4-\u03A30)*%
X64826000Y-63686000D03*
%TO.N,Net-(U1-C_IN)*%
X168800000Y-117440000D03*
X73105000Y-142041000D03*
X69494000Y-42661000D03*
X158860000Y-60403000D03*
X158612000Y-64004000D03*
%TO.N,Net-(U14-A0)*%
X38780000Y-68518000D03*
X121066000Y-76381000D03*
%TO.N,Net-(U15-A2)*%
X117478000Y-49046000D03*
X99589000Y-74001000D03*
X67588000Y-29158000D03*
X95476000Y-53680000D03*
X96936000Y-71348000D03*
%TO.N,Net-(U15-A3)*%
X111505000Y-49977000D03*
X98253000Y-55168000D03*
X81474000Y-76592000D03*
X68680000Y-30249000D03*
%TO.N,Net-(U14-A2)*%
X59688000Y-32136000D03*
X47649000Y-74098000D03*
X145960000Y-41699000D03*
%TO.N,Net-(U14-A3)*%
X47374000Y-78372000D03*
X74228000Y-48574000D03*
X60883000Y-29218000D03*
X118093000Y-47960000D03*
%TO.N,Net-(U14-A1)*%
X53727000Y-25251000D03*
X143577000Y-40719000D03*
X72394000Y-25251000D03*
%TO.N,Net-(U15-A1)*%
X46985000Y-30205000D03*
X115948000Y-79232000D03*
X86951000Y-83891000D03*
X94071000Y-74011000D03*
%TO.N,Net-(U15-A0)*%
X68713000Y-67616000D03*
X129493000Y-72927000D03*
X43184000Y-31263000D03*
X143107000Y-49915000D03*
X86468000Y-66323000D03*
%TO.N,Net-(U10-A6)*%
X193464000Y-46547000D03*
%TO.N,Net-(U10-OE#)*%
X220911000Y-121705000D03*
X221495000Y-84469000D03*
%TO.N,Net-(U10-CE#)*%
X220823000Y-119979000D03*
%TO.N,Net-(U10-A12)*%
X203599000Y-58073000D03*
%TO.N,Net-(U10-A10)*%
X230991000Y-59037000D03*
X215602000Y-69873000D03*
X181200000Y-33334000D03*
%TO.N,Net-(U10-D0)*%
X161400000Y-86800000D03*
%TO.N,Net-(U10-A14)*%
X198320000Y-62833000D03*
%TO.N,Net-(U10-A11)*%
X199720000Y-70775000D03*
X220982000Y-70938000D03*
X173100000Y-32285000D03*
%TO.N,Net-(U10-A13)*%
X225750000Y-73512000D03*
%TO.N,Net-(U10-A9)*%
X223770000Y-71581000D03*
X196757000Y-71757000D03*
%TO.N,Net-(U12-Q1)*%
X60571000Y-51360000D03*
%TO.N,Net-(U11-CE#)*%
X217690000Y-110788000D03*
%TO.N,Net-(U12-Q3)*%
X75416000Y-57763000D03*
%TO.N,Net-(U12-Q2)*%
X63436000Y-64107000D03*
%TO.N,Net-(U12-Q4)*%
X65189000Y-50300000D03*
%TO.N,Net-(U19-4A)*%
X127673000Y-110003000D03*
%TO.N,Net-(U14-\u03A33)*%
X122268000Y-99442000D03*
X128221000Y-63237000D03*
X53084000Y-91788000D03*
%TO.N,Net-(U14-\u03A30)*%
X136384000Y-101043000D03*
%TO.N,Net-(U14-C_OUT)*%
X53136000Y-93820000D03*
%TO.N,Net-(U14-\u03A32)*%
X144595000Y-75277000D03*
%TO.N,Net-(U15-\u03A33)*%
X126306000Y-97651000D03*
X141486000Y-48144000D03*
%TO.N,Net-(U15-\u03A32)*%
X112933000Y-88619000D03*
X148908000Y-78995000D03*
X119156000Y-88904000D03*
%TO.N,Net-(U15-\u03A30)*%
X142815000Y-93151000D03*
X88932000Y-102647000D03*
%TO.N,Net-(U15-\u03A31)*%
X88296000Y-103570000D03*
X143232000Y-96166000D03*
X82031000Y-84073000D03*
%TO.N,Net-(U15-B2)*%
X88510000Y-98282000D03*
%TO.N,Net-(U16-\u03A30)*%
X142477000Y-37383000D03*
X123624000Y-79440000D03*
%TO.N,Net-(U16-\u03A33)*%
X122811000Y-94363000D03*
X149504000Y-26454000D03*
%TO.N,Net-(U16-\u03A31)*%
X159863000Y-66978000D03*
%TO.N,Net-(U16-\u03A32)*%
X117245000Y-90125000D03*
X123358000Y-86232000D03*
%TO.N,Net-(U17-\u03A32)*%
X235488000Y-56154000D03*
%TO.N,Net-(U17-\u03A31)*%
X189922000Y-34769000D03*
X149804000Y-80724000D03*
%TO.N,Net-(U17-\u03A30)*%
X147245000Y-30462000D03*
%TO.N,Net-(U17-\u03A33)*%
X160773000Y-66317000D03*
X139330000Y-87886000D03*
%TO.N,Net-(U18-CLK)*%
X116370000Y-100095000D03*
%TO.N,Net-(U12-D3)*%
X110313000Y-62452000D03*
X100506000Y-76086000D03*
X124720000Y-62452000D03*
X98291000Y-87867000D03*
%TO.N,Net-(U12-D5)*%
X163240000Y-61305000D03*
X114216000Y-76552000D03*
X127995000Y-65577000D03*
%TO.N,Net-(U12-D4)*%
X120780000Y-91002000D03*
X170859000Y-58703000D03*
X113756000Y-79176000D03*
%TO.N,Net-(U12-D6)*%
X146965000Y-82630000D03*
X130428000Y-70072000D03*
%TO.N,Net-(U12-D0)*%
X128798000Y-54832000D03*
X78103000Y-73537000D03*
X138652000Y-35851000D03*
%TO.N,Net-(U12-D7)*%
X131072000Y-72026000D03*
X149096000Y-22811000D03*
X121770000Y-72052000D03*
X91800000Y-64783000D03*
%TO.N,Net-(U20-S)*%
X148261000Y-34248000D03*
%TO.N,Net-(U12-D2)*%
X142018000Y-32497000D03*
X124704000Y-59912000D03*
X113585000Y-80411000D03*
%TO.N,Net-(U12-D1)*%
X110624000Y-81670000D03*
X156268000Y-39705000D03*
X130628000Y-57536000D03*
X140331000Y-39705000D03*
%TO.N,Net-(U12-CLK)*%
X140470000Y-110539000D03*
X130732000Y-73829000D03*
X95620000Y-69383000D03*
%TO.N,Net-(U24-1A)*%
X89359000Y-114427000D03*
X68298000Y-114313000D03*
%TO.N,Net-(U24-2A)*%
X42653000Y-137869000D03*
%TO.N,Net-(U26-Q0)*%
X101245000Y-143710000D03*
%TO.N,Net-(U25-2A)*%
X71235000Y-144690000D03*
X71348000Y-136765000D03*
X65362000Y-154329000D03*
X78735000Y-136765000D03*
%TO.N,Net-(U25-2B)*%
X65087000Y-134635000D03*
X75637000Y-134165000D03*
%TO.N,Net-(U26-Q2)*%
X97443000Y-146005000D03*
%TO.N,Net-(U13-O4)*%
X173068000Y-111769000D03*
%TO.N,Net-(U13-I1)*%
X216553000Y-97201000D03*
%TO.N,Net-(U18-D7)*%
X57642000Y-114076000D03*
X173560000Y-102372000D03*
%TO.N,Net-(U18-D6)*%
X172250000Y-103225000D03*
%TO.N,Net-(U18-D4)*%
X45549000Y-122017000D03*
%TO.N,Net-(U18-D2)*%
X53734000Y-109001000D03*
%TO.N,Net-(U18-D5)*%
X46461000Y-119477000D03*
%TO.N,Net-(U19-4Q)*%
X190762000Y-161799000D03*
X212850000Y-110385000D03*
%TO.N,Net-(U24-4Q)*%
X68659000Y-135536000D03*
%TO.N,Net-(U24-3Q)*%
X72276000Y-140237000D03*
%TO.N,Net-(U25-0A)*%
X47888000Y-143540000D03*
X74131000Y-141508000D03*
%TO.N,Net-(U25-Q3)*%
X71062000Y-114844000D03*
%TO.N,Net-(U26-CLK)*%
X104426000Y-139507000D03*
%TO.N,Net-(U26-Q6)*%
X111627000Y-146255000D03*
%TO.N,Net-(U27-3B)*%
X98681000Y-142511000D03*
X165071000Y-142511000D03*
X93657000Y-142511000D03*
%TO.N,Net-(U28-2A)*%
X83516000Y-138841000D03*
%TO.N,Net-(U24-1B)*%
X117527000Y-111219000D03*
%TO.N,Net-(U26-Q3)*%
X119717000Y-152286000D03*
X96303000Y-170062000D03*
%TO.N,Net-(U13-O5)*%
X218785000Y-113337000D03*
X215132000Y-99519000D03*
%TO.N,Net-(U24-2Q)*%
X56721000Y-137230000D03*
%TO.N,Net-(U25-3A)*%
X117800000Y-146217000D03*
X117800000Y-163217000D03*
X114800000Y-145717000D03*
%TO.N,Net-(U27-Q2)*%
X95620000Y-137602000D03*
%TO.N,Net-(U27-Q3)*%
X94535000Y-152078000D03*
X121452000Y-121071000D03*
X113684000Y-143474000D03*
%TO.N,Net-(U27-Q1)*%
X94299000Y-140535000D03*
%TO.N,Net-(U28-2Q)*%
X119603000Y-136899000D03*
%TO.N,Net-(U47-1B)*%
X116300000Y-144717000D03*
X51376000Y-141545000D03*
X76300000Y-139717000D03*
X42653000Y-114978000D03*
X99300000Y-144717000D03*
X76300000Y-144717000D03*
X52083000Y-126390000D03*
X103300000Y-144717000D03*
%TO.N,Net-(U44-IN)*%
X156971000Y-150611000D03*
%TD*%
D16*
%TO.N,Net-(U1-\u03A30)*%
X112568000Y-23396000D02*
X108918000Y-27046000D01*
X106902000Y-32462000D02*
X105500000Y-32462000D01*
X122500000Y-27332000D02*
X121098000Y-27332000D01*
X121098000Y-27332000D02*
X117163000Y-23396000D01*
X117163000Y-23396000D02*
X112568000Y-23396000D01*
X108918000Y-30446000D02*
X106902000Y-32462000D01*
X108918000Y-27046000D02*
X108918000Y-30446000D01*
%TO.N,Net-(U1-B1)*%
X129575000Y-112442000D02*
X129800000Y-112217000D01*
X74851000Y-91198000D02*
X74851000Y-91400000D01*
X52300000Y-48637000D02*
X56616000Y-44321000D01*
X139959500Y-121095000D02*
X137368000Y-121095000D01*
X139960000Y-121095000D02*
X139959500Y-121095000D01*
X43244000Y-50073000D02*
X44680000Y-48637000D01*
X87727000Y-37217000D02*
X86902000Y-38042000D01*
X104047000Y-112383000D02*
X104702000Y-113038000D01*
X95835000Y-112383000D02*
X104047000Y-112383000D01*
X94522000Y-27882000D02*
X103598000Y-27882000D01*
X93120000Y-38042000D02*
X91718000Y-38042000D01*
X50873000Y-57370000D02*
X50873000Y-50064000D01*
X56616000Y-44321000D02*
X56616000Y-39299000D01*
X93120000Y-27882000D02*
X94522000Y-27882000D01*
X74851000Y-91400000D02*
X95835000Y-112383000D01*
X50873000Y-50064000D02*
X52300000Y-48637000D01*
X52300000Y-58797000D02*
X50873000Y-57370000D01*
X94522000Y-36640000D02*
X94522000Y-27882000D01*
X129575000Y-113302000D02*
X129575000Y-112442000D01*
X63500000Y-85542000D02*
X54000000Y-76041000D01*
X91718000Y-38042000D02*
X90893000Y-37217000D01*
X137368000Y-121095000D02*
X129575000Y-113302000D01*
X113120000Y-37542000D02*
X111711000Y-36133000D01*
X90893000Y-37217000D02*
X87727000Y-37217000D01*
X103598000Y-27882000D02*
X104098000Y-27382000D01*
X43244000Y-57361000D02*
X43244000Y-50073000D01*
X44680000Y-58797000D02*
X43244000Y-57361000D01*
X139959500Y-121095000D02*
X139960000Y-121094500D01*
X111711000Y-36133000D02*
X111711000Y-28791000D01*
X54000000Y-76041000D02*
X54000000Y-60497000D01*
X104098000Y-27382000D02*
X105500000Y-27382000D01*
X86902000Y-38042000D02*
X85500000Y-38042000D01*
X54000000Y-60497000D02*
X52300000Y-58797000D01*
X111711000Y-28791000D02*
X113120000Y-27382000D01*
X93120000Y-38042000D02*
X94522000Y-36640000D01*
%TO.N,Net-(U1-B0)*%
X82202000Y-116057000D02*
X84161000Y-114097000D01*
X105500000Y-37542000D02*
X106902000Y-37542000D01*
X106902000Y-33526000D02*
X106902000Y-37542000D01*
X107998000Y-96655000D02*
X106180000Y-94837000D01*
X48648000Y-66706000D02*
X48648000Y-72017000D01*
X225420000Y-116057000D02*
X225420000Y-114655000D01*
X113120000Y-24842000D02*
X109730000Y-28232000D01*
X148425000Y-42897000D02*
X148425000Y-41495000D01*
X236920000Y-77119000D02*
X235680000Y-77119000D01*
X71120000Y-71440000D02*
X70421000Y-71440000D01*
X146622000Y-34611000D02*
X148155000Y-33078000D01*
X44680000Y-62739000D02*
X48648000Y-66706000D01*
X109730000Y-28232000D02*
X109730000Y-30697000D01*
X136120000Y-80842000D02*
X136120000Y-83382000D01*
X58998000Y-120976000D02*
X56798000Y-118775000D01*
X69140000Y-55999000D02*
X61954000Y-63185000D01*
X71120000Y-72842000D02*
X71120000Y-71440000D01*
X145059000Y-50362000D02*
X145059000Y-39513000D01*
X151925000Y-25017000D02*
X151925000Y-26419000D01*
X104974000Y-145633000D02*
X107898000Y-148557000D01*
X44680000Y-61337000D02*
X44680000Y-62739000D01*
X97511000Y-144553000D02*
X98591000Y-145633000D01*
X69140000Y-54597000D02*
X69140000Y-55999000D01*
X65420000Y-36619000D02*
X65420000Y-35217000D01*
X112545000Y-52292000D02*
X106902000Y-46649000D01*
X207700000Y-107242000D02*
X207700000Y-104222000D01*
X236920000Y-75717000D02*
X236920000Y-77119000D01*
X116120000Y-118690000D02*
X116120000Y-120092000D01*
X48648000Y-72017000D02*
X48648000Y-74380000D01*
X115468000Y-118039000D02*
X116120000Y-118690000D01*
X235680000Y-77119000D02*
X227202000Y-85597000D01*
X115620000Y-52292000D02*
X112545000Y-52292000D01*
X66317000Y-37516000D02*
X65420000Y-36619000D01*
X48648000Y-74380000D02*
X48312000Y-74716000D01*
X56798000Y-118775000D02*
X54131000Y-118775000D01*
X151925000Y-26419000D02*
X148914000Y-29429000D01*
X79398000Y-116057000D02*
X80800000Y-116057000D01*
X48312000Y-94039000D02*
X48269000Y-94081000D01*
X148914000Y-29429000D02*
X148914000Y-33078000D01*
X54131000Y-118775000D02*
X51492000Y-121415000D01*
X148425000Y-41495000D02*
X149162000Y-40758000D01*
X185003000Y-81902000D02*
X193275000Y-81902000D01*
X106180000Y-94837000D02*
X106180000Y-87217000D01*
X61954000Y-63185000D02*
X61954000Y-70491000D01*
X149162000Y-33326000D02*
X148914000Y-33078000D01*
X69140000Y-54597000D02*
X69140000Y-53195000D01*
X84161000Y-114097000D02*
X87751000Y-114097000D01*
X209092000Y-108634000D02*
X207700000Y-107242000D01*
X51492000Y-124565000D02*
X38800000Y-137257000D01*
X121218000Y-150289000D02*
X119362000Y-148433000D01*
X122620000Y-151092000D02*
X121218000Y-151092000D01*
X116340000Y-94837000D02*
X116340000Y-96239000D01*
X64202000Y-120177000D02*
X70486000Y-113893000D01*
X99620000Y-116592000D02*
X97511000Y-118701000D01*
X98591000Y-145633000D02*
X104974000Y-145633000D01*
X121218000Y-151092000D02*
X121218000Y-150289000D01*
X146622000Y-34767000D02*
X146622000Y-34611000D01*
X70486000Y-113893000D02*
X77234000Y-113893000D01*
X77234000Y-113893000D02*
X79398000Y-116057000D01*
X227202000Y-85597000D02*
X225800000Y-85597000D01*
X48312000Y-74716000D02*
X48312000Y-94039000D01*
X116340000Y-96239000D02*
X115923000Y-96655000D01*
X48648000Y-72017000D02*
X50420000Y-72017000D01*
X193275000Y-81902000D02*
X199460000Y-75717000D01*
X69140000Y-53195000D02*
X66317000Y-50372000D01*
X66317000Y-50372000D02*
X66317000Y-37516000D01*
X136925000Y-59897000D02*
X136925000Y-58495000D01*
X225420000Y-114655000D02*
X224348000Y-113584000D01*
X106902000Y-46649000D02*
X106902000Y-37542000D01*
X224348000Y-87049000D02*
X225800000Y-85597000D01*
X107898000Y-148557000D02*
X109300000Y-148557000D01*
X97511000Y-118701000D02*
X97511000Y-144553000D01*
X115468000Y-96655000D02*
X107998000Y-96655000D01*
X91840000Y-160837000D02*
X91840000Y-153217000D01*
X148155000Y-33078000D02*
X148914000Y-33078000D01*
X62800000Y-120177000D02*
X64202000Y-120177000D01*
X115468000Y-96655000D02*
X115468000Y-118039000D01*
X115923000Y-96655000D02*
X115468000Y-96655000D01*
X80800000Y-116057000D02*
X82202000Y-116057000D01*
X136925000Y-58495000D02*
X145059000Y-50362000D01*
X224348000Y-113584000D02*
X224348000Y-87049000D01*
X149162000Y-40758000D02*
X149162000Y-33326000D01*
X51492000Y-121415000D02*
X51492000Y-124565000D01*
X145420000Y-35969000D02*
X146622000Y-34767000D01*
X145420000Y-39152000D02*
X145420000Y-35969000D01*
X109730000Y-30697000D02*
X106902000Y-33526000D01*
X145059000Y-39513000D02*
X145420000Y-39152000D01*
X70421000Y-71440000D02*
X69472000Y-70491000D01*
%TO.N,Net-(U1-C_OUT)*%
X86902000Y-40582000D02*
X86902000Y-42023000D01*
X85500000Y-40582000D02*
X86902000Y-40582000D01*
X99063000Y-45981000D02*
X100488000Y-44556000D01*
X86902000Y-42023000D02*
X90860000Y-45981000D01*
X90860000Y-45981000D02*
X99063000Y-45981000D01*
%TO.N,Net-(U1-A1)*%
X105500000Y-29922000D02*
X101140000Y-34281000D01*
X60340000Y-35217000D02*
X60340000Y-37185000D01*
X60340000Y-37185000D02*
X65366000Y-42212000D01*
X101140000Y-37142000D02*
X93734000Y-44549000D01*
X91719000Y-44549000D02*
X90313000Y-43143000D01*
X93734000Y-44549000D02*
X91719000Y-44549000D01*
X101140000Y-34281000D02*
X101140000Y-37142000D01*
%TO.N,Net-(U1-A3)*%
X63584000Y-44943000D02*
X63584000Y-47604000D01*
X114574000Y-36455000D02*
X113120000Y-35002000D01*
X55260000Y-35217000D02*
X55260000Y-36619000D01*
X114574000Y-45179000D02*
X114574000Y-36455000D01*
X113174000Y-46578000D02*
X114574000Y-45179000D01*
X55260000Y-36619000D02*
X63584000Y-44943000D01*
%TO.N,Net-(U1-A2)*%
X104186000Y-43852000D02*
X100610000Y-47428000D01*
X100610000Y-47428000D02*
X87122000Y-47428000D01*
X87122000Y-47428000D02*
X76114000Y-36420000D01*
%TO.N,Net-(U2-\u03A31)*%
X122500000Y-40032000D02*
X121098000Y-40032000D01*
X112776000Y-47491000D02*
X109180000Y-43895000D01*
X109180000Y-43895000D02*
X109180000Y-32575000D01*
X113640000Y-47491000D02*
X112776000Y-47491000D01*
X86902000Y-25342000D02*
X88835000Y-23409000D01*
X88835000Y-23409000D02*
X106526000Y-23409000D01*
X106526000Y-23409000D02*
X107342000Y-24225000D01*
X85500000Y-25342000D02*
X86902000Y-25342000D01*
X121098000Y-40032000D02*
X113640000Y-47491000D01*
X107342000Y-24225000D02*
X107342000Y-30737000D01*
%TO.N,Net-(U2-A0)*%
X52720000Y-35217000D02*
X52720000Y-36619000D01*
X52720000Y-36619000D02*
X54115000Y-38013000D01*
X54115000Y-38013000D02*
X54115000Y-38242000D01*
%TO.N,Net-(U2-\u03A30)*%
X91147000Y-45277000D02*
X97914000Y-45277000D01*
X97914000Y-45277000D02*
X99050000Y-44141000D01*
X88455000Y-38118000D02*
X88455000Y-42585000D01*
X88455000Y-42585000D02*
X91147000Y-45277000D01*
%TO.N,Net-(U3-\u03A33)*%
X93052000Y-48643000D02*
X86624000Y-48643000D01*
X86624000Y-48643000D02*
X81069000Y-43089000D01*
X106598000Y-62452000D02*
X106598000Y-62189000D01*
X108000000Y-62452000D02*
X106598000Y-62452000D01*
X106598000Y-62189000D02*
X93052000Y-48643000D01*
%TO.N,Net-(U3-C_OUT)*%
X51882000Y-68462000D02*
X51882000Y-76464000D01*
X49348000Y-48225000D02*
X49348000Y-65928000D01*
X51882000Y-76464000D02*
X63500000Y-88082000D01*
X49348000Y-65928000D02*
X51882000Y-68462000D01*
X44680000Y-43557000D02*
X49348000Y-48225000D01*
%TO.N,Net-(U4-\u03A31)*%
X63500000Y-71440000D02*
X66087000Y-68853000D01*
X66087000Y-68853000D02*
X66087000Y-63072000D01*
X63500000Y-72842000D02*
X63500000Y-71440000D01*
%TO.N,Net-(U4-\u03A32)*%
X100480000Y-70072000D02*
X108000000Y-70072000D01*
X96272000Y-72951000D02*
X97600000Y-72951000D01*
X82499000Y-75595000D02*
X85764000Y-72329000D01*
X85764000Y-72329000D02*
X95650000Y-72329000D01*
X95650000Y-72329000D02*
X96272000Y-72951000D01*
X97600000Y-72951000D02*
X100480000Y-70072000D01*
%TO.N,Net-(U4-\u03A33)*%
X95386000Y-73058000D02*
X95982000Y-73653000D01*
X72522000Y-86847000D02*
X86311000Y-73058000D01*
X86311000Y-73058000D02*
X95386000Y-73058000D01*
X72522000Y-88082000D02*
X72522000Y-86847000D01*
X95982000Y-73653000D02*
X97891000Y-73653000D01*
X97891000Y-73653000D02*
X98932000Y-72612000D01*
X71120000Y-88082000D02*
X72522000Y-88082000D01*
X98932000Y-72612000D02*
X108000000Y-72612000D01*
%TO.N,Net-(U4-\u03A30)*%
X64826000Y-68919000D02*
X62098000Y-71648000D01*
X62098000Y-71648000D02*
X62098000Y-79060000D01*
X64826000Y-63686000D02*
X64826000Y-68919000D01*
X62098000Y-79060000D02*
X63500000Y-80462000D01*
%TO.N,Net-(U1-C_IN)*%
X116100000Y-165232000D02*
X115000000Y-166332000D01*
X128596000Y-146141000D02*
X127220000Y-147517000D01*
X170080000Y-133757000D02*
X170080000Y-138647000D01*
X42800000Y-91199000D02*
X42238000Y-91760000D01*
X122500000Y-24792000D02*
X123940000Y-26232000D01*
X122620000Y-153632000D02*
X122620000Y-156172000D01*
X169705000Y-32637000D02*
X171107000Y-32637000D01*
X101100000Y-88619000D02*
X101100000Y-87217000D01*
X126126000Y-148611000D02*
X126126000Y-159073000D01*
X66500000Y-106357000D02*
X66500000Y-107759000D01*
X171450000Y-147757000D02*
X172849000Y-146358000D01*
X150523000Y-41054000D02*
X150965000Y-41495000D01*
X175000000Y-99837000D02*
X175000000Y-112967000D01*
X73180000Y-142041000D02*
X73180000Y-131297000D01*
X127140000Y-131517000D02*
X128623000Y-133000000D01*
X128596000Y-140893000D02*
X128596000Y-146141000D01*
X124055000Y-157607000D02*
X124055000Y-159817000D01*
X171107000Y-32637000D02*
X172742000Y-34272000D01*
X128623000Y-133000000D02*
X128623000Y-138114000D01*
X182454000Y-31890000D02*
X189947000Y-24397000D01*
X128500000Y-100024000D02*
X128500000Y-98622000D01*
X166195000Y-50527000D02*
X165687000Y-50527000D01*
X116120000Y-122632000D02*
X94860000Y-101371000D01*
X150523000Y-30360000D02*
X150523000Y-41054000D01*
X168800000Y-121867000D02*
X168800000Y-117440000D01*
X67811000Y-86311000D02*
X67811000Y-64947000D01*
X172734000Y-149041000D02*
X172734000Y-154283000D01*
X154775000Y-46707000D02*
X150965000Y-42897000D01*
X59982000Y-114277000D02*
X59982000Y-132017000D01*
X66500000Y-107759000D02*
X59982000Y-114277000D01*
X59398000Y-145477000D02*
X59398000Y-166935000D01*
X66500000Y-106357000D02*
X65098000Y-104955000D01*
X73180000Y-131297000D02*
X73180000Y-128757000D01*
X189947000Y-24397000D02*
X190465000Y-24397000D01*
X166205000Y-50517000D02*
X166195000Y-50527000D01*
X42238000Y-91760000D02*
X42238000Y-103554000D01*
X84500000Y-96122000D02*
X84500000Y-97524000D01*
X73180000Y-142041000D02*
X73105000Y-142041000D01*
X158300000Y-30254000D02*
X167322000Y-30254000D01*
X182454000Y-33398000D02*
X182454000Y-31890000D01*
X84500000Y-97524000D02*
X86210000Y-99233000D01*
X59982000Y-132017000D02*
X56582000Y-135417000D01*
X85500000Y-43122000D02*
X86902000Y-43122000D01*
X42800000Y-87257000D02*
X42800000Y-89797000D01*
X128624000Y-114703000D02*
X128624000Y-100148000D01*
X65420000Y-27597000D02*
X66684000Y-27597000D01*
X128624000Y-100148000D02*
X128500000Y-100024000D01*
X108000000Y-52292000D02*
X109412000Y-53703000D01*
X123940000Y-46212000D02*
X122500000Y-47652000D01*
X127220000Y-147517000D02*
X126126000Y-148611000D01*
X116100000Y-162352000D02*
X116100000Y-165232000D01*
X150965000Y-41495000D02*
X150965000Y-42897000D01*
X94860000Y-99233000D02*
X94860000Y-94859000D01*
X104098000Y-42622000D02*
X105500000Y-42622000D01*
X105500000Y-48390000D02*
X105500000Y-42622000D01*
X55180000Y-135417000D02*
X56582000Y-135417000D01*
X170080000Y-138647000D02*
X171450000Y-140017000D01*
X154465000Y-26419000D02*
X150523000Y-30360000D01*
X109412000Y-53703000D02*
X109412000Y-73741000D01*
X161868000Y-46707000D02*
X154775000Y-46707000D01*
X141964000Y-62396000D02*
X139465000Y-59897000D01*
X59398000Y-166935000D02*
X60800000Y-168337000D01*
X124055000Y-159817000D02*
X122620000Y-161252000D01*
X127490000Y-168437000D02*
X128866000Y-167061000D01*
X169300000Y-130237000D02*
X171450000Y-132387000D01*
X108000000Y-52292000D02*
X108000000Y-50890000D01*
X66684000Y-30870000D02*
X66684000Y-27597000D01*
X69494000Y-42661000D02*
X69494000Y-33680000D01*
X60800000Y-145477000D02*
X59398000Y-145477000D01*
X84098000Y-43122000D02*
X68573000Y-27597000D01*
X86902000Y-43122000D02*
X90502000Y-46722000D01*
X172734000Y-154283000D02*
X171370000Y-155647000D01*
X94860000Y-94859000D02*
X101100000Y-88619000D01*
X167322000Y-30254000D02*
X169705000Y-32637000D01*
X105500000Y-42622000D02*
X105500000Y-40082000D01*
X158612000Y-60651000D02*
X158612000Y-64004000D01*
X99998000Y-46722000D02*
X104098000Y-42622000D01*
X172849000Y-146358000D02*
X172849000Y-141416000D01*
X117551000Y-126281000D02*
X116120000Y-127712000D01*
X172742000Y-34272000D02*
X181580000Y-34272000D01*
X172849000Y-141416000D02*
X171450000Y-140017000D01*
X101680000Y-171417000D02*
X101680000Y-168877000D01*
X128866000Y-161813000D02*
X127490000Y-160437000D01*
X69140000Y-63619000D02*
X69140000Y-62217000D01*
X56582000Y-135417000D02*
X59398000Y-138234000D01*
X165687000Y-50527000D02*
X158860000Y-57353000D01*
X59398000Y-138234000D02*
X59398000Y-145477000D01*
X123940000Y-26232000D02*
X123940000Y-46212000D01*
X73180000Y-128757000D02*
X73180000Y-126217000D01*
X127260000Y-116067000D02*
X128624000Y-114703000D01*
X126126000Y-159073000D02*
X127490000Y-160437000D01*
X154465000Y-25017000D02*
X154465000Y-26419000D01*
X149584000Y-62396000D02*
X141964000Y-62396000D01*
X115000000Y-161252000D02*
X115000000Y-158712000D01*
X63500000Y-90622000D02*
X67811000Y-86311000D01*
X158860000Y-57353000D02*
X158860000Y-60403000D01*
X73180000Y-148395000D02*
X73180000Y-142041000D01*
X171450000Y-124517000D02*
X169300000Y-126667000D01*
X69494000Y-33680000D02*
X66684000Y-30870000D01*
X42238000Y-103554000D02*
X43640000Y-104955000D01*
X158860000Y-60403000D02*
X158612000Y-60651000D01*
X122620000Y-156172000D02*
X124055000Y-157607000D01*
X154465000Y-26419000D02*
X158300000Y-30254000D01*
X108000000Y-50890000D02*
X105500000Y-48390000D01*
X154705000Y-67517000D02*
X149584000Y-62396000D01*
X165687000Y-50527000D02*
X161868000Y-46707000D01*
X171450000Y-147757000D02*
X172734000Y-149041000D01*
X42800000Y-89797000D02*
X42800000Y-91199000D01*
X68573000Y-27597000D02*
X66684000Y-27597000D01*
X76600000Y-151815000D02*
X73180000Y-148395000D01*
X86210000Y-99233000D02*
X94860000Y-99233000D01*
X128866000Y-167061000D02*
X128866000Y-161813000D01*
X109412000Y-73741000D02*
X108000000Y-75152000D01*
X43640000Y-106357000D02*
X43640000Y-104955000D01*
X122620000Y-161252000D02*
X122620000Y-163792000D01*
X116120000Y-122632000D02*
X117551000Y-124063000D01*
X127220000Y-139517000D02*
X128596000Y-140893000D01*
X169300000Y-126667000D02*
X169300000Y-130237000D01*
X117551000Y-124063000D02*
X117551000Y-126281000D01*
X65098000Y-104955000D02*
X43640000Y-104955000D01*
X171450000Y-132387000D02*
X170080000Y-133757000D01*
X181580000Y-34272000D02*
X182454000Y-33398000D01*
X128623000Y-138114000D02*
X127220000Y-139517000D01*
X90502000Y-46722000D02*
X99998000Y-46722000D01*
X85500000Y-43122000D02*
X84098000Y-43122000D01*
X175000000Y-112967000D02*
X171450000Y-116517000D01*
X67811000Y-64947000D02*
X69140000Y-63619000D01*
X76600000Y-153217000D02*
X76600000Y-151815000D01*
X171450000Y-124517000D02*
X168800000Y-121867000D01*
X94860000Y-101371000D02*
X94860000Y-99233000D01*
X115000000Y-161252000D02*
X116100000Y-162352000D01*
%TO.N,Net-(U14-A0)*%
X120868000Y-76184000D02*
X121066000Y-76381000D01*
X38946000Y-68518000D02*
X38780000Y-68518000D01*
X38946000Y-68518000D02*
X38946000Y-28143000D01*
X132261000Y-48925000D02*
X120868000Y-60318000D01*
X38946000Y-78323000D02*
X38946000Y-68518000D01*
X130120000Y-27332000D02*
X132261000Y-29473000D01*
X132261000Y-29473000D02*
X132261000Y-48925000D01*
X42780000Y-24310000D02*
X59593000Y-24310000D01*
X120868000Y-60318000D02*
X120868000Y-76184000D01*
X38946000Y-28143000D02*
X42780000Y-24310000D01*
X59593000Y-24310000D02*
X62880000Y-27597000D01*
X42800000Y-82177000D02*
X38946000Y-78323000D01*
%TO.N,Net-(U15-A2)*%
X70435000Y-34782000D02*
X87155000Y-51502000D01*
X123430000Y-49797000D02*
X118230000Y-49797000D01*
X130120000Y-42572000D02*
X130120000Y-43108000D01*
X67588000Y-30432000D02*
X70435000Y-33280000D01*
X118230000Y-49797000D02*
X117478000Y-49046000D01*
X96936000Y-55140000D02*
X96936000Y-71348000D01*
X92120000Y-83422000D02*
X99589000Y-75953000D01*
X93299000Y-51502000D02*
X95476000Y-53680000D01*
X87155000Y-51502000D02*
X93299000Y-51502000D01*
X99589000Y-75953000D02*
X99589000Y-74001000D01*
X70435000Y-33280000D02*
X70435000Y-34782000D01*
X130120000Y-43108000D02*
X123430000Y-49797000D01*
X67588000Y-29158000D02*
X67588000Y-30432000D01*
X95476000Y-53680000D02*
X96936000Y-55140000D01*
%TO.N,Net-(U15-A3)*%
X92532000Y-49448000D02*
X86099000Y-49448000D01*
X97310000Y-72250000D02*
X98253000Y-71307000D01*
X86099000Y-49448000D02*
X80118000Y-43467000D01*
X81474000Y-76592000D02*
X81474000Y-75344000D01*
X85249000Y-71569000D02*
X95882000Y-71569000D01*
X112028000Y-50499000D02*
X111505000Y-49977000D01*
X124733000Y-50499000D02*
X112028000Y-50499000D01*
X68680000Y-30532000D02*
X68680000Y-30249000D01*
X80118000Y-43467000D02*
X80118000Y-41970000D01*
X130120000Y-45112000D02*
X124733000Y-50499000D01*
X98253000Y-55168000D02*
X92532000Y-49448000D01*
X81474000Y-75344000D02*
X85249000Y-71569000D01*
X95882000Y-71569000D02*
X96563000Y-72250000D01*
X80118000Y-41970000D02*
X68680000Y-30532000D01*
X96563000Y-72250000D02*
X97310000Y-72250000D01*
X98253000Y-71307000D02*
X98253000Y-55168000D01*
%TO.N,Net-(U14-A2)*%
X145960000Y-54831000D02*
X145960000Y-41699000D01*
X57496000Y-29303000D02*
X57496000Y-29944000D01*
X57800000Y-27597000D02*
X57800000Y-28999000D01*
X57496000Y-29944000D02*
X54523000Y-32918000D01*
X57496000Y-29944000D02*
X59688000Y-32136000D01*
X42873000Y-32918000D02*
X41152000Y-34638000D01*
X47649000Y-67693000D02*
X47649000Y-74098000D01*
X149625000Y-59897000D02*
X149625000Y-58495000D01*
X149625000Y-58495000D02*
X145960000Y-54831000D01*
X57800000Y-28999000D02*
X57496000Y-29303000D01*
X54523000Y-32918000D02*
X42873000Y-32918000D01*
X41152000Y-34638000D02*
X41152000Y-61195000D01*
X41152000Y-61195000D02*
X47649000Y-67693000D01*
%TO.N,Net-(U14-A3)*%
X74132000Y-48574000D02*
X74228000Y-48574000D01*
X126928000Y-38144000D02*
X126928000Y-45307000D01*
X50691000Y-32166000D02*
X55260000Y-27597000D01*
X130120000Y-34952000D02*
X126928000Y-38144000D01*
X119218000Y-49085000D02*
X118093000Y-47960000D01*
X62453000Y-29218000D02*
X68551000Y-35315000D01*
X40422000Y-65339000D02*
X40422000Y-34343000D01*
X60883000Y-29218000D02*
X62453000Y-29218000D01*
X40422000Y-34343000D02*
X42598000Y-32166000D01*
X47374000Y-78372000D02*
X47374000Y-77079000D01*
X47374000Y-77079000D02*
X45700000Y-75405000D01*
X126928000Y-45307000D02*
X123150000Y-49085000D01*
X123150000Y-49085000D02*
X119218000Y-49085000D01*
X42598000Y-32166000D02*
X50691000Y-32166000D01*
X45700000Y-75405000D02*
X45700000Y-70617000D01*
X68551000Y-35315000D02*
X68551000Y-42993000D01*
X45700000Y-70617000D02*
X40422000Y-65339000D01*
X68551000Y-42993000D02*
X74132000Y-48574000D01*
%TO.N,Net-(U14-A1)*%
X144008000Y-41151000D02*
X143577000Y-40719000D01*
X147085000Y-67517000D02*
X142829000Y-63261000D01*
X42800000Y-77097000D02*
X39691000Y-73988000D01*
X142829000Y-63261000D02*
X138307000Y-63261000D01*
X138307000Y-63261000D02*
X135512000Y-60467000D01*
X122832000Y-22671000D02*
X74973000Y-22671000D01*
X130120000Y-29872000D02*
X128718000Y-29872000D01*
X144008000Y-50420000D02*
X144008000Y-41151000D01*
X128718000Y-29872000D02*
X128718000Y-28558000D01*
X128718000Y-28558000D02*
X122832000Y-22671000D01*
X74973000Y-22671000D02*
X72394000Y-25251000D01*
X53727000Y-25251000D02*
X57994000Y-25251000D01*
X57994000Y-25251000D02*
X60340000Y-27597000D01*
X39691000Y-28405000D02*
X42845000Y-25251000D01*
X135512000Y-58915000D02*
X144008000Y-50420000D01*
X39691000Y-73988000D02*
X39691000Y-28405000D01*
X135512000Y-60467000D02*
X135512000Y-58915000D01*
X42845000Y-25251000D02*
X53727000Y-25251000D01*
%TO.N,Net-(U15-A1)*%
X131522000Y-41434000D02*
X131522000Y-48668000D01*
X130120000Y-40032000D02*
X131522000Y-41434000D01*
X86951000Y-81131000D02*
X94071000Y-74011000D01*
X50180000Y-27597000D02*
X47572000Y-30205000D01*
X119829000Y-75350000D02*
X115948000Y-79232000D01*
X119829000Y-60361000D02*
X119829000Y-75350000D01*
X86951000Y-83891000D02*
X86951000Y-81131000D01*
X47572000Y-30205000D02*
X46985000Y-30205000D01*
X131522000Y-48668000D02*
X119829000Y-60361000D01*
%TO.N,Net-(U15-A0)*%
X49054000Y-31263000D02*
X43184000Y-31263000D01*
X68713000Y-67616000D02*
X68570000Y-67759000D01*
X74348000Y-89420000D02*
X74348000Y-86015000D01*
X68570000Y-90103000D02*
X70498000Y-92031000D01*
X78474000Y-74441000D02*
X85946000Y-66969000D01*
X143107000Y-49915000D02*
X143107000Y-50303000D01*
X129493000Y-68715000D02*
X129493000Y-72927000D01*
X85946000Y-66969000D02*
X85946000Y-66845000D01*
X85946000Y-66845000D02*
X86468000Y-66323000D01*
X134733000Y-63475000D02*
X129493000Y-68715000D01*
X85920000Y-87082000D02*
X84500000Y-88502000D01*
X68713000Y-67616000D02*
X75539000Y-74441000D01*
X143107000Y-50303000D02*
X134733000Y-58677000D01*
X85566000Y-76920000D02*
X85920000Y-77274000D01*
X52720000Y-27597000D02*
X49054000Y-31263000D01*
X74348000Y-86015000D02*
X83444000Y-76920000D01*
X83444000Y-76920000D02*
X85566000Y-76920000D01*
X68570000Y-67759000D02*
X68570000Y-90103000D01*
X71737000Y-92031000D02*
X74348000Y-89420000D01*
X85920000Y-77274000D02*
X85920000Y-87082000D01*
X134733000Y-58677000D02*
X134733000Y-63475000D01*
X70498000Y-92031000D02*
X71737000Y-92031000D01*
X75539000Y-74441000D02*
X78474000Y-74441000D01*
%TO.N,Net-(U10-A1)*%
X183872500Y-49409500D02*
X183872500Y-49486600D01*
X183872500Y-49486600D02*
X183872000Y-49487100D01*
X183872000Y-49487100D02*
X183872000Y-49409000D01*
X179140000Y-55594000D02*
X183872000Y-50861000D01*
X179140000Y-60477000D02*
X179140000Y-55594000D01*
X183872000Y-50861000D02*
X183872000Y-49487100D01*
%TO.N,Net-(U10-A6)*%
X196572500Y-49409500D02*
X196572000Y-49409000D01*
X191840000Y-60477000D02*
X191840000Y-55594000D01*
X196572000Y-49409000D02*
X196326000Y-49409000D01*
X196326000Y-49409000D02*
X193464000Y-46547000D01*
X191840000Y-55594000D02*
X196572000Y-50861000D01*
X196572000Y-50861000D02*
X196572000Y-49409000D01*
%TO.N,Net-(U10-OE#)*%
X220911000Y-121705000D02*
X221808000Y-120808000D01*
X221680000Y-84285000D02*
X221495000Y-84469000D01*
X221808000Y-120808000D02*
X221808000Y-84782000D01*
X221680000Y-75717000D02*
X221680000Y-84285000D01*
X221808000Y-84782000D02*
X221495000Y-84469000D01*
%TO.N,Net-(U10-CE#)*%
X216600000Y-77119000D02*
X216600000Y-75717000D01*
X220437000Y-80955000D02*
X216600000Y-77119000D01*
X220437000Y-86297000D02*
X220437000Y-80955000D01*
X221093000Y-119709000D02*
X221093000Y-86953000D01*
X220823000Y-119979000D02*
X221093000Y-119709000D01*
X221093000Y-86953000D02*
X220437000Y-86297000D01*
%TO.N,Net-(U10-A12)*%
X211812000Y-49590500D02*
X211812000Y-49409000D01*
X211812000Y-50861000D02*
X210812000Y-50861000D01*
X195822000Y-33419000D02*
X195545000Y-33419000D01*
X211812000Y-49590500D02*
X211812500Y-49590000D01*
X211812500Y-49590000D02*
X211812500Y-49409500D01*
X210812000Y-50861000D02*
X203599000Y-58073000D01*
X211812000Y-49409000D02*
X195822000Y-33419000D01*
X211812000Y-50135000D02*
X211812000Y-50861000D01*
X195545000Y-33419000D02*
X195545000Y-32017000D01*
X211812000Y-49772000D02*
X211812000Y-49590500D01*
X211812000Y-50135000D02*
X211812000Y-49772000D01*
%TO.N,Net-(U10-A10)*%
X178853000Y-32763000D02*
X171107000Y-25017000D01*
X219140000Y-71368000D02*
X217097000Y-71368000D01*
X230991000Y-59037000D02*
X237948000Y-59037000D01*
X238322000Y-61568000D02*
X230056000Y-69833000D01*
X238322000Y-59411000D02*
X238322000Y-61568000D01*
X217097000Y-71368000D02*
X215602000Y-69873000D01*
X180630000Y-32763000D02*
X178853000Y-32763000D01*
X237948000Y-59037000D02*
X238322000Y-59411000D01*
X230056000Y-69833000D02*
X220675000Y-69833000D01*
X220675000Y-69833000D02*
X219140000Y-71368000D01*
X181200000Y-33334000D02*
X180630000Y-32763000D01*
X219140000Y-75717000D02*
X219140000Y-71368000D01*
X171107000Y-25017000D02*
X169705000Y-25017000D01*
%TO.N,Net-(U10-A8)*%
X191840000Y-74315000D02*
X200951000Y-65205000D01*
X201652000Y-50135000D02*
X201652000Y-49409500D01*
X201652500Y-49409500D02*
X201652000Y-49409500D01*
X191840000Y-75717000D02*
X191840000Y-74315000D01*
X201652000Y-50497000D02*
X201652000Y-50135000D01*
X200951000Y-65205000D02*
X200951000Y-51563000D01*
X201652000Y-50498000D02*
X201652000Y-50497000D01*
X201652000Y-49409500D02*
X201652000Y-49409000D01*
X201652000Y-50497000D02*
X201652000Y-50135000D01*
X201652000Y-50498000D02*
X201652000Y-50497000D01*
X201652000Y-50861000D02*
X201652000Y-50498000D01*
X200951000Y-51563000D02*
X201652000Y-50861000D01*
%TO.N,Net-(U10-A0)*%
X181332000Y-50861000D02*
X181332000Y-49409500D01*
X176600000Y-60477000D02*
X176600000Y-55594000D01*
X181332500Y-49409500D02*
X181332000Y-49409500D01*
X176600000Y-55594000D02*
X181332000Y-50861000D01*
X181332000Y-49409500D02*
X181332000Y-49409000D01*
%TO.N,Net-(U10-D4)*%
X194960000Y-95160000D02*
X195000000Y-95200000D01*
X195000000Y-95200000D02*
X195000000Y-96602000D01*
X164840000Y-81259000D02*
X168980000Y-77119000D01*
X194960000Y-91602000D02*
X194960000Y-95160000D01*
X195000000Y-96602000D02*
X196427000Y-98029000D01*
X208782000Y-98029000D02*
X209104000Y-97707000D01*
X164840000Y-92217000D02*
X164840000Y-81259000D01*
X168980000Y-77119000D02*
X168980000Y-75717000D01*
X209104000Y-97707000D02*
X209104000Y-79783000D01*
X206440000Y-77119000D02*
X206440000Y-75717000D01*
X196427000Y-98029000D02*
X208782000Y-98029000D01*
X209104000Y-79783000D02*
X206440000Y-77119000D01*
%TO.N,Net-(U10-WE#)*%
X237496000Y-74306000D02*
X235791000Y-74306000D01*
X217800000Y-128757000D02*
X219202000Y-128757000D01*
X219202000Y-128757000D02*
X223153000Y-132708000D01*
X235791000Y-74306000D02*
X234380000Y-75717000D01*
X238333000Y-75143000D02*
X237496000Y-74306000D01*
X223153000Y-132708000D02*
X226059000Y-132708000D01*
X238333000Y-120434000D02*
X238333000Y-75143000D01*
X226059000Y-132708000D02*
X238333000Y-120434000D01*
%TO.N,Net-(U10-D0)*%
X211520000Y-61879000D02*
X211520000Y-60477000D01*
X205120000Y-90150000D02*
X202462000Y-87492000D01*
X161400000Y-76915000D02*
X161400000Y-86800000D01*
X202462000Y-87492000D02*
X202462000Y-70937000D01*
X205120000Y-91602000D02*
X205120000Y-90150000D01*
X174060000Y-60477000D02*
X174060000Y-64256000D01*
X174060000Y-64256000D02*
X161400000Y-76915000D01*
X202462000Y-70937000D02*
X211520000Y-61879000D01*
%TO.N,Net-(U10-D6)*%
X174060000Y-77119000D02*
X174060000Y-75717000D01*
X169920000Y-81259000D02*
X174060000Y-77119000D01*
X189920000Y-96602000D02*
X192768000Y-99450000D01*
X169920000Y-92217000D02*
X169920000Y-81259000D01*
X189880000Y-93054000D02*
X189920000Y-93094000D01*
X209461000Y-99450000D02*
X211520000Y-97391000D01*
X192768000Y-99450000D02*
X209461000Y-99450000D01*
X189920000Y-93094000D02*
X189920000Y-96602000D01*
X211520000Y-97391000D02*
X211520000Y-75717000D01*
X189880000Y-91602000D02*
X189880000Y-93054000D01*
%TO.N,Net-(U10-A7)*%
X199112500Y-49409500D02*
X199112000Y-49409500D01*
X199112000Y-50498000D02*
X199112000Y-50497000D01*
X199112000Y-50497000D02*
X199112000Y-50135000D01*
X194380000Y-55594000D02*
X199112000Y-50861000D01*
X199112000Y-50861000D02*
X199112000Y-50498000D01*
X199112000Y-49409500D02*
X199112000Y-49409000D01*
X199112000Y-50497000D02*
X199112000Y-50135000D01*
X194380000Y-60477000D02*
X194380000Y-55594000D01*
X199112000Y-50498000D02*
X199112000Y-50497000D01*
X199112000Y-50135000D02*
X199112000Y-49409500D01*
%TO.N,Net-(U10-A5)*%
X189300000Y-55594000D02*
X189300000Y-60477000D01*
X194032000Y-50861000D02*
X189300000Y-55594000D01*
X194032000Y-49409000D02*
X194032000Y-49409500D01*
X194032000Y-49409500D02*
X194032000Y-50861000D01*
X194032500Y-49409500D02*
X194032000Y-49409500D01*
%TO.N,Net-(U10-A14)*%
X199460000Y-60477000D02*
X199460000Y-61879000D01*
X205705000Y-25799000D02*
X216892000Y-36986000D01*
X199274000Y-61879000D02*
X198320000Y-62833000D01*
X199460000Y-61879000D02*
X199274000Y-61879000D01*
X216892000Y-36986000D02*
X216892000Y-49409000D01*
X205705000Y-24397000D02*
X205705000Y-25799000D01*
X216892500Y-49409500D02*
X216892000Y-49409000D01*
%TO.N,Net-(U10-A11)*%
X209272000Y-50498000D02*
X209272000Y-50497000D01*
X209272500Y-49409500D02*
X209272000Y-49409500D01*
X199720000Y-70775000D02*
X199720000Y-68519000D01*
X199720000Y-68519000D02*
X202498000Y-65741000D01*
X202498000Y-57635000D02*
X209272000Y-50861000D01*
X202498000Y-65741000D02*
X202498000Y-57635000D01*
X209272000Y-49409500D02*
X209272000Y-49409000D01*
X209272000Y-50135000D02*
X209272000Y-49409500D01*
X220982000Y-71078000D02*
X224220000Y-74315000D01*
X209272000Y-50498000D02*
X209272000Y-50497000D01*
X167353000Y-26538000D02*
X163606000Y-26538000D01*
X220982000Y-70938000D02*
X220982000Y-71078000D01*
X209272000Y-50497000D02*
X209272000Y-50135000D01*
X209272000Y-50497000D02*
X209272000Y-50135000D01*
X163606000Y-26538000D02*
X162085000Y-25017000D01*
X173100000Y-32285000D02*
X167353000Y-26538000D01*
X224220000Y-74315000D02*
X224220000Y-75717000D01*
X209272000Y-50861000D02*
X209272000Y-50498000D01*
%TO.N,Net-(U10-D7)*%
X214060000Y-95901000D02*
X209776000Y-100185000D01*
X185888000Y-91602000D02*
X181237000Y-86950000D01*
X187340000Y-91602000D02*
X185888000Y-91602000D01*
X187340000Y-91602000D02*
X187340000Y-93054000D01*
X214060000Y-75717000D02*
X214060000Y-95901000D01*
X181237000Y-86950000D02*
X176600000Y-86950000D01*
X209776000Y-100185000D02*
X190963000Y-100185000D01*
X172460000Y-90815000D02*
X176325000Y-86950000D01*
X187380000Y-93094000D02*
X187380000Y-96602000D01*
X176325000Y-86950000D02*
X176600000Y-86950000D01*
X172460000Y-92217000D02*
X172460000Y-90815000D01*
X190963000Y-100185000D02*
X187380000Y-96602000D01*
X176600000Y-86950000D02*
X176600000Y-75717000D01*
X187340000Y-93054000D02*
X187380000Y-93094000D01*
%TO.N,Net-(U10-D5)*%
X209835000Y-77973000D02*
X208980000Y-77119000D01*
X192460000Y-96602000D02*
X194599000Y-98741000D01*
X194599000Y-98741000D02*
X209155000Y-98741000D01*
X192460000Y-96602000D02*
X192460000Y-95200000D01*
X209155000Y-98741000D02*
X209835000Y-98061000D01*
X192460000Y-95200000D02*
X192420000Y-95160000D01*
X167380000Y-81259000D02*
X171520000Y-77119000D01*
X192420000Y-95160000D02*
X192420000Y-91602000D01*
X208980000Y-77119000D02*
X208980000Y-75717000D01*
X209835000Y-98061000D02*
X209835000Y-77973000D01*
X167380000Y-92217000D02*
X167380000Y-81259000D01*
X171520000Y-77119000D02*
X171520000Y-75717000D01*
%TO.N,Net-(U10-A13)*%
X238042000Y-58136000D02*
X223079000Y-58136000D01*
X203165000Y-36770000D02*
X203165000Y-32017000D01*
X214352500Y-49409500D02*
X214352000Y-49409000D01*
X225752000Y-73510000D02*
X225750000Y-73512000D01*
X231840000Y-75717000D02*
X231840000Y-73510000D01*
X231840000Y-73510000D02*
X225752000Y-73510000D01*
X214352000Y-47958000D02*
X203165000Y-36770000D01*
X231840000Y-73510000D02*
X239023000Y-66327000D01*
X239023000Y-59117000D02*
X238042000Y-58136000D01*
X223079000Y-58136000D02*
X214352500Y-49409500D01*
X239023000Y-66327000D02*
X239023000Y-59117000D01*
X214352000Y-49409000D02*
X214352000Y-47958000D01*
%TO.N,Net-(U10-A4)*%
X186760000Y-55594000D02*
X186760000Y-60477000D01*
X191492000Y-50861000D02*
X186760000Y-55594000D01*
X191492000Y-49409500D02*
X191492000Y-50861000D01*
X191492000Y-49409000D02*
X191492000Y-49409500D01*
X191492500Y-49409500D02*
X191492000Y-49409500D01*
%TO.N,Net-(U10-D1)*%
X165038000Y-69007000D02*
X165038000Y-59826000D01*
X201722000Y-89292000D02*
X202580000Y-90150000D01*
X201722000Y-69137000D02*
X201722000Y-89292000D01*
X171357000Y-60477000D02*
X171520000Y-60477000D01*
X202580000Y-90150000D02*
X202580000Y-91602000D01*
X157220000Y-92217000D02*
X157220000Y-76825000D01*
X208980000Y-61879000D02*
X201722000Y-69137000D01*
X169922000Y-59042000D02*
X171357000Y-60477000D01*
X165822000Y-59042000D02*
X169922000Y-59042000D01*
X157220000Y-76825000D02*
X165038000Y-69007000D01*
X208980000Y-60477000D02*
X208980000Y-61879000D01*
X165038000Y-59826000D02*
X165822000Y-59042000D01*
%TO.N,Net-(U10-D3)*%
X204133000Y-95200000D02*
X198942000Y-95200000D01*
X197500000Y-91602000D02*
X197500000Y-93054000D01*
X203900000Y-77119000D02*
X206572000Y-79791000D01*
X163702000Y-89414000D02*
X163702000Y-79857000D01*
X166440000Y-77119000D02*
X166440000Y-75717000D01*
X206572000Y-92761000D02*
X204133000Y-95200000D01*
X203900000Y-75717000D02*
X203900000Y-77119000D01*
X197540000Y-93094000D02*
X197540000Y-96602000D01*
X198942000Y-95200000D02*
X197540000Y-96602000D01*
X162300000Y-92217000D02*
X162300000Y-90815000D01*
X197500000Y-93054000D02*
X197540000Y-93094000D01*
X206572000Y-79791000D02*
X206572000Y-92761000D01*
X163702000Y-79857000D02*
X166440000Y-77119000D01*
X162300000Y-90815000D02*
X163702000Y-89414000D01*
%TO.N,Net-(U10-A9)*%
X204192500Y-49409500D02*
X204192000Y-49409500D01*
X196757000Y-71757000D02*
X196757000Y-70489000D01*
X204192000Y-50498000D02*
X204192000Y-50497000D01*
X226614000Y-75717000D02*
X223770000Y-72873000D01*
X226760000Y-75717000D02*
X226614000Y-75717000D01*
X196757000Y-70489000D02*
X201652000Y-65594000D01*
X204192000Y-50861000D02*
X204192000Y-50498000D01*
X204192000Y-50497000D02*
X204192000Y-50135000D01*
X204192000Y-50497000D02*
X204192000Y-50135000D01*
X201652000Y-53401000D02*
X204192000Y-50861000D01*
X204192000Y-50135000D02*
X204192000Y-49409500D01*
X204192000Y-49409500D02*
X204192000Y-49409000D01*
X201652000Y-65594000D02*
X201652000Y-53401000D01*
X223770000Y-72873000D02*
X223770000Y-71581000D01*
X204192000Y-50498000D02*
X204192000Y-50497000D01*
%TO.N,Net-(U10-A2)*%
X186412500Y-49409500D02*
X186412000Y-49409500D01*
X186412000Y-49409500D02*
X186412000Y-50861000D01*
X186412000Y-49409000D02*
X186412000Y-49409500D01*
X186412000Y-50861000D02*
X181680000Y-55594000D01*
X181680000Y-55594000D02*
X181680000Y-60477000D01*
%TO.N,Net-(U10-D2)*%
X206440000Y-62791000D02*
X206440000Y-60477000D01*
X200040000Y-91602000D02*
X200040000Y-90150000D01*
X200040000Y-90150000D02*
X200963000Y-89227000D01*
X168980000Y-67185000D02*
X168980000Y-60477000D01*
X200963000Y-89227000D02*
X200963000Y-68268000D01*
X200963000Y-68268000D02*
X206440000Y-62791000D01*
X159760000Y-76405000D02*
X168980000Y-67185000D01*
X159760000Y-92217000D02*
X159760000Y-76405000D01*
%TO.N,Net-(U10-A3)*%
X188952000Y-49409000D02*
X188952000Y-49409500D01*
X188952500Y-49409500D02*
X188952000Y-49409500D01*
X184220000Y-55594000D02*
X184220000Y-60477000D01*
X188952000Y-49409500D02*
X188952000Y-50861000D01*
X188952000Y-50861000D02*
X184220000Y-55594000D01*
%TO.N,Net-(U12-Q1)*%
X55675000Y-56257000D02*
X60571000Y-51360000D01*
X52300000Y-56257000D02*
X55675000Y-56257000D01*
%TO.N,Net-(U11-CE#)*%
X217800000Y-116057000D02*
X217800000Y-114655000D01*
X217690000Y-114545000D02*
X217690000Y-110788000D01*
X217800000Y-114655000D02*
X217690000Y-114545000D01*
%TO.N,Net-(U12-Q3)*%
X79300000Y-55999000D02*
X77180000Y-55999000D01*
X77180000Y-55999000D02*
X75416000Y-57763000D01*
X79300000Y-54597000D02*
X79300000Y-55999000D01*
%TO.N,Net-(U12-Q2)*%
X68619000Y-58590000D02*
X63436000Y-63773000D01*
X63436000Y-63773000D02*
X63436000Y-64107000D01*
X76760000Y-54597000D02*
X72767000Y-58590000D01*
X72767000Y-58590000D02*
X68619000Y-58590000D01*
%TO.N,Net-(U12-Q7)*%
X72522000Y-83002000D02*
X71120000Y-83002000D01*
X89460000Y-54597000D02*
X89460000Y-55999000D01*
X94104000Y-64761000D02*
X91195000Y-67670000D01*
X87854000Y-67670000D02*
X72522000Y-83002000D01*
X94104000Y-60643000D02*
X94104000Y-64761000D01*
X89460000Y-55999000D02*
X94104000Y-60643000D01*
X91195000Y-67670000D02*
X87854000Y-67670000D01*
%TO.N,Net-(U12-Q5)*%
X79501000Y-59476000D02*
X69426000Y-59476000D01*
X69426000Y-59476000D02*
X67037000Y-61865000D01*
X67037000Y-74385000D02*
X63500000Y-77922000D01*
X67037000Y-61865000D02*
X67037000Y-74385000D01*
X84380000Y-54597000D02*
X79501000Y-59476000D01*
%TO.N,Net-(U12-Q6)*%
X71120000Y-77922000D02*
X75985000Y-77922000D01*
X87363000Y-66968000D02*
X90893000Y-66968000D01*
X86682000Y-67225000D02*
X87106000Y-67225000D01*
X90893000Y-66968000D02*
X93402000Y-64459000D01*
X75985000Y-77922000D02*
X86682000Y-67225000D01*
X87106000Y-67225000D02*
X87363000Y-66968000D01*
X87796000Y-55999000D02*
X86920000Y-55999000D01*
X86920000Y-55999000D02*
X86920000Y-54597000D01*
X93402000Y-64459000D02*
X93402000Y-61605000D01*
X93402000Y-61605000D02*
X87796000Y-55999000D01*
%TO.N,Net-(U12-Q4)*%
X61052000Y-54438000D02*
X61052000Y-80554000D01*
X65189000Y-50300000D02*
X61052000Y-54438000D01*
X61052000Y-80554000D02*
X63500000Y-83002000D01*
%TO.N,Net-(U19-4A)*%
X121317000Y-104127000D02*
X121317000Y-97506000D01*
X126716000Y-109526000D02*
X127196000Y-109526000D01*
X121685000Y-97138000D02*
X121685000Y-85530000D01*
X121685000Y-85530000D02*
X117072000Y-80917000D01*
X125870000Y-110373000D02*
X126716000Y-109526000D01*
X117022000Y-73750000D02*
X115620000Y-75152000D01*
X126716000Y-109526000D02*
X121317000Y-104127000D01*
X117022000Y-62152000D02*
X117022000Y-73750000D01*
X127196000Y-109526000D02*
X127673000Y-110003000D01*
X138211000Y-128977000D02*
X125870000Y-116635000D01*
X117072000Y-80917000D02*
X116358000Y-80917000D01*
X116358000Y-80917000D02*
X115039000Y-79598000D01*
X130120000Y-49054000D02*
X117022000Y-62152000D01*
X115039000Y-77135000D02*
X115620000Y-76554000D01*
X115620000Y-76554000D02*
X115620000Y-75152000D01*
X125870000Y-116635000D02*
X125870000Y-110373000D01*
X115039000Y-79598000D02*
X115039000Y-77135000D01*
X121317000Y-97506000D02*
X121685000Y-97138000D01*
X130120000Y-47652000D02*
X130120000Y-49054000D01*
X139840000Y-128977000D02*
X138211000Y-128977000D01*
%TO.N,Net-(U14-B2)*%
X51260000Y-95331000D02*
X49016000Y-93087000D01*
X51260000Y-98737000D02*
X51260000Y-95331000D01*
X49016000Y-75961000D02*
X50420000Y-74557000D01*
X49016000Y-93087000D02*
X49016000Y-75961000D01*
%TO.N,Net-(U14-\u03A33)*%
X50420000Y-87257000D02*
X53084000Y-89921000D01*
X125399000Y-96310000D02*
X122268000Y-99442000D01*
X128221000Y-63237000D02*
X128004000Y-63237000D01*
X53084000Y-89921000D02*
X53084000Y-91788000D01*
X128004000Y-63237000D02*
X125399000Y-65842000D01*
X125399000Y-65842000D02*
X125399000Y-96310000D01*
%TO.N,Net-(U14-\u03A30)*%
X142005000Y-67517000D02*
X140582000Y-66094000D01*
X135517000Y-66445000D02*
X135517000Y-68567000D01*
X135517000Y-68567000D02*
X140282000Y-73331000D01*
X140582000Y-66094000D02*
X135868000Y-66094000D01*
X135868000Y-66094000D02*
X135517000Y-66445000D01*
X140282000Y-73331000D02*
X140282000Y-97146000D01*
X140282000Y-97146000D02*
X136384000Y-101043000D01*
%TO.N,Net-(U14-B1)*%
X44999000Y-76756000D02*
X42800000Y-74557000D01*
X47318000Y-79635000D02*
X44999000Y-77316000D01*
X47318000Y-95934000D02*
X47318000Y-79635000D01*
X44999000Y-77316000D02*
X44999000Y-76756000D01*
X48720000Y-98737000D02*
X48720000Y-97335000D01*
X48720000Y-97335000D02*
X47318000Y-95934000D01*
%TO.N,Net-(U14-C_OUT)*%
X50420000Y-91199000D02*
X53041000Y-93820000D01*
X53041000Y-93820000D02*
X53136000Y-93820000D01*
X50420000Y-89797000D02*
X50420000Y-91199000D01*
%TO.N,Net-(U14-B3)*%
X53800000Y-97335000D02*
X54040000Y-97096000D01*
X54040000Y-88337000D02*
X50420000Y-84717000D01*
X53800000Y-98737000D02*
X53800000Y-97335000D01*
X54040000Y-97096000D02*
X54040000Y-88337000D01*
%TO.N,Net-(U14-B0)*%
X46180000Y-88097000D02*
X46180000Y-98737000D01*
X42800000Y-84717000D02*
X46180000Y-88097000D01*
%TO.N,Net-(U14-\u03A32)*%
X148927000Y-75277000D02*
X144595000Y-75277000D01*
X152165000Y-62701000D02*
X156137000Y-66674000D01*
X152165000Y-59897000D02*
X152165000Y-62701000D01*
X156137000Y-68067000D02*
X148927000Y-75277000D01*
X156137000Y-66674000D02*
X156137000Y-68067000D01*
%TO.N,Net-(U15-\u03A33)*%
X128378000Y-64375000D02*
X127859000Y-64375000D01*
X126306000Y-65928000D02*
X126306000Y-97651000D01*
X141233000Y-50191000D02*
X129136000Y-62289000D01*
X141486000Y-48144000D02*
X141233000Y-48397000D01*
X129136000Y-63617000D02*
X128378000Y-64375000D01*
X127859000Y-64375000D02*
X126306000Y-65928000D01*
X129136000Y-62289000D02*
X129136000Y-63617000D01*
X141233000Y-48397000D02*
X141233000Y-50191000D01*
%TO.N,Net-(U15-\u03A32)*%
X163665000Y-42897000D02*
X163665000Y-44299000D01*
X159762000Y-64334000D02*
X158962000Y-65135000D01*
X163665000Y-44299000D02*
X167626000Y-48259000D01*
X159762000Y-58990000D02*
X159762000Y-64334000D01*
X167626000Y-48259000D02*
X167626000Y-51126000D01*
X118871000Y-88619000D02*
X112933000Y-88619000D01*
X158962000Y-65135000D02*
X158962000Y-69217000D01*
X149183000Y-78995000D02*
X148908000Y-78995000D01*
X119156000Y-88904000D02*
X118871000Y-88619000D01*
X167626000Y-51126000D02*
X159762000Y-58990000D01*
X158962000Y-69217000D02*
X149183000Y-78995000D01*
%TO.N,Net-(U15-\u03A30)*%
X153505000Y-50517000D02*
X153505000Y-51919000D01*
X157558000Y-65217000D02*
X157558000Y-68635000D01*
X149201000Y-76993000D02*
X148626000Y-76993000D01*
X83016000Y-97062000D02*
X88601000Y-102647000D01*
X84500000Y-85962000D02*
X83016000Y-87446000D01*
X157558000Y-68635000D02*
X149201000Y-76993000D01*
X153505000Y-51919000D02*
X157009000Y-55423000D01*
X157009000Y-64668000D02*
X157558000Y-65217000D01*
X83016000Y-87446000D02*
X83016000Y-97062000D01*
X157009000Y-55423000D02*
X157009000Y-64668000D01*
X88601000Y-102647000D02*
X88932000Y-102647000D01*
X142815000Y-82804000D02*
X142815000Y-93151000D01*
X148626000Y-76993000D02*
X142815000Y-82804000D01*
%TO.N,Net-(U15-C_OUT)*%
X99242000Y-89000000D02*
X92120000Y-96122000D01*
X103640000Y-87217000D02*
X102188000Y-85765000D01*
X99242000Y-87042000D02*
X99242000Y-89000000D01*
X100519000Y-85765000D02*
X99242000Y-87042000D01*
X102188000Y-85765000D02*
X100519000Y-85765000D01*
%TO.N,Net-(U15-B1)*%
X83098000Y-80882000D02*
X83098000Y-81661000D01*
X84500000Y-80882000D02*
X83098000Y-80882000D01*
X62462000Y-95155000D02*
X58880000Y-98737000D01*
X69605000Y-95155000D02*
X62462000Y-95155000D01*
X83098000Y-81661000D02*
X69605000Y-95155000D01*
%TO.N,Net-(U15-\u03A31)*%
X158260000Y-68926000D02*
X149142000Y-78044000D01*
X82031000Y-97304000D02*
X88296000Y-103570000D01*
X158260000Y-64926000D02*
X158260000Y-68926000D01*
X157711000Y-55333000D02*
X157711000Y-64377000D01*
X82031000Y-84073000D02*
X82031000Y-97304000D01*
X161125000Y-50517000D02*
X161125000Y-51919000D01*
X161125000Y-51919000D02*
X157711000Y-55333000D01*
X157711000Y-64377000D02*
X158260000Y-64926000D01*
X143924000Y-82687000D02*
X143924000Y-95474000D01*
X148567000Y-78044000D02*
X143924000Y-82687000D01*
X149142000Y-78044000D02*
X148567000Y-78044000D01*
X143924000Y-95474000D02*
X143232000Y-96166000D01*
%TO.N,Net-(U15-B2)*%
X92120000Y-80882000D02*
X88510000Y-84492000D01*
X88510000Y-84492000D02*
X88510000Y-98282000D01*
%TO.N,Net-(U16-\u03A30)*%
X141233000Y-38627000D02*
X141233000Y-46129000D01*
X139082000Y-48281000D02*
X139082000Y-50358000D01*
X141233000Y-46129000D02*
X139082000Y-48281000D01*
X128506000Y-60934000D02*
X128235000Y-60934000D01*
X139082000Y-50358000D02*
X128506000Y-60934000D01*
X142477000Y-37383000D02*
X141233000Y-38627000D01*
X128235000Y-60934000D02*
X123624000Y-65544000D01*
X123624000Y-65544000D02*
X123624000Y-79440000D01*
%TO.N,Net-(U16-\u03A33)*%
X139784000Y-50649000D02*
X128797000Y-61635000D01*
X144971000Y-30987000D02*
X144971000Y-34433000D01*
X139784000Y-48571000D02*
X139784000Y-50649000D01*
X143472000Y-37750000D02*
X141935000Y-39287000D01*
X141935000Y-39287000D02*
X141935000Y-46420000D01*
X124697000Y-92477000D02*
X122811000Y-94363000D01*
X128797000Y-61635000D02*
X128526000Y-61635000D01*
X143472000Y-35933000D02*
X143472000Y-37750000D01*
X124697000Y-65463000D02*
X124697000Y-92477000D01*
X141935000Y-46420000D02*
X139784000Y-48571000D01*
X149504000Y-26454000D02*
X144971000Y-30987000D01*
X128526000Y-61635000D02*
X124697000Y-65463000D01*
X144971000Y-34433000D02*
X143472000Y-35933000D01*
%TO.N,Net-(U16-\u03A31)*%
X164625000Y-32637000D02*
X164625000Y-34039000D01*
X168331000Y-51414000D02*
X160464000Y-59281000D01*
X159863000Y-65568000D02*
X159863000Y-66978000D01*
X160464000Y-59281000D02*
X160464000Y-64967000D01*
X160464000Y-64967000D02*
X159863000Y-65568000D01*
X168331000Y-37744000D02*
X168331000Y-51414000D01*
X164625000Y-34039000D02*
X168331000Y-37744000D01*
%TO.N,Net-(U16-\u03A32)*%
X150859000Y-22832000D02*
X142920000Y-30771000D01*
X122722000Y-85597000D02*
X123358000Y-86232000D01*
X135769000Y-50214000D02*
X130051000Y-55933000D01*
X111260000Y-94837000D02*
X115972000Y-90125000D01*
X167165000Y-25017000D02*
X164980000Y-22832000D01*
X129964000Y-55933000D02*
X122722000Y-63175000D01*
X115972000Y-90125000D02*
X117245000Y-90125000D01*
X164980000Y-22832000D02*
X150859000Y-22832000D01*
X122722000Y-63175000D02*
X122722000Y-85597000D01*
X142920000Y-30771000D02*
X142920000Y-33851000D01*
X130051000Y-55933000D02*
X129964000Y-55933000D01*
X142920000Y-33851000D02*
X135769000Y-41002000D01*
X135769000Y-41002000D02*
X135769000Y-50214000D01*
%TO.N,Net-(U17-\u03A32)*%
X203165000Y-24397000D02*
X204627000Y-22935000D01*
X204627000Y-22935000D02*
X206279000Y-22935000D01*
X206279000Y-22935000D02*
X235488000Y-52143000D01*
X235488000Y-52143000D02*
X235488000Y-56154000D01*
%TO.N,Net-(U17-\u03A31)*%
X189064000Y-34769000D02*
X164270000Y-59563000D01*
X164270000Y-66258000D02*
X149804000Y-80724000D01*
X164270000Y-59563000D02*
X164270000Y-66258000D01*
X189922000Y-34769000D02*
X189064000Y-34769000D01*
%TO.N,Net-(U17-\u03A30)*%
X144718000Y-35678000D02*
X144718000Y-38241000D01*
X128539000Y-68637000D02*
X128539000Y-77406000D01*
X128539000Y-77406000D02*
X129932000Y-78799000D01*
X129932000Y-78799000D02*
X129932000Y-87030000D01*
X141935000Y-49811000D02*
X141935000Y-50482000D01*
X145920000Y-34477000D02*
X144718000Y-35678000D01*
X147245000Y-30462000D02*
X145920000Y-31787000D01*
X129932000Y-87030000D02*
X128500000Y-88462000D01*
X144718000Y-38241000D02*
X142637000Y-40323000D01*
X142637000Y-40323000D02*
X142637000Y-49109000D01*
X133951000Y-58466000D02*
X133951000Y-63225000D01*
X133951000Y-63225000D02*
X128539000Y-68637000D01*
X142637000Y-49109000D02*
X141935000Y-49811000D01*
X145920000Y-31787000D02*
X145920000Y-34477000D01*
X141935000Y-50482000D02*
X133951000Y-58466000D01*
%TO.N,Net-(U17-\u03A33)*%
X183505000Y-37235000D02*
X161419000Y-59321000D01*
X139330000Y-87886000D02*
X139330000Y-92871000D01*
X161419000Y-65670000D02*
X160773000Y-66317000D01*
X195545000Y-24397000D02*
X195545000Y-25799000D01*
X195545000Y-25799000D02*
X189577000Y-25799000D01*
X139330000Y-92871000D02*
X136120000Y-96082000D01*
X183505000Y-31870000D02*
X183505000Y-37235000D01*
X189577000Y-25799000D02*
X183505000Y-31870000D01*
X161419000Y-59321000D02*
X161419000Y-65670000D01*
%TO.N,Net-(U18-CLK)*%
X137380000Y-142437000D02*
X137380000Y-136363000D01*
X137380000Y-136363000D02*
X125647000Y-124630000D01*
X125647000Y-123948000D02*
X116370000Y-114671000D01*
X125647000Y-124630000D02*
X125647000Y-123948000D01*
X116370000Y-114671000D02*
X116370000Y-100095000D01*
X139920000Y-144977000D02*
X137380000Y-142437000D01*
%TO.N,Net-(U12-D3)*%
X100977000Y-76556000D02*
X108604000Y-76556000D01*
X143621000Y-31062000D02*
X143621000Y-34503000D01*
X130342000Y-56634000D02*
X130255000Y-56634000D01*
X124720000Y-62169000D02*
X124720000Y-62452000D01*
X155563000Y-23575000D02*
X151109000Y-23575000D01*
X143621000Y-34503000D02*
X136471000Y-41654000D01*
X100977000Y-76556000D02*
X100506000Y-76086000D01*
X157005000Y-25017000D02*
X155563000Y-23575000D01*
X136471000Y-41654000D02*
X136471000Y-50505000D01*
X136471000Y-50505000D02*
X130342000Y-56634000D01*
X130255000Y-56634000D02*
X124720000Y-62169000D01*
X110313000Y-74847000D02*
X110313000Y-62452000D01*
X108604000Y-76556000D02*
X110313000Y-74847000D01*
X151109000Y-23575000D02*
X143621000Y-31062000D01*
X98291000Y-79241000D02*
X98291000Y-87867000D01*
X100977000Y-76556000D02*
X98291000Y-79241000D01*
%TO.N,Net-(U12-D5)*%
X184909000Y-32576000D02*
X184909000Y-37895000D01*
X115620000Y-67532000D02*
X114216000Y-68936000D01*
X127086000Y-66487000D02*
X127086000Y-84508000D01*
X127995000Y-65577000D02*
X127086000Y-66487000D01*
X127086000Y-84508000D02*
X128500000Y-85922000D01*
X196640000Y-30572000D02*
X186912000Y-30572000D01*
X186912000Y-30572000D02*
X184909000Y-32576000D01*
X198085000Y-32017000D02*
X196640000Y-30572000D01*
X184909000Y-37895000D02*
X163240000Y-59563000D01*
X114216000Y-68936000D02*
X114216000Y-76552000D01*
X163240000Y-59563000D02*
X163240000Y-61305000D01*
%TO.N,Net-(U12-D4)*%
X170859000Y-55108000D02*
X170859000Y-58703000D01*
X190465000Y-33419000D02*
X190824000Y-33777000D01*
X120984000Y-90799000D02*
X120984000Y-85825000D01*
X120780000Y-91002000D02*
X120984000Y-90799000D01*
X113756000Y-79307000D02*
X113756000Y-79176000D01*
X113320000Y-71364000D02*
X113314000Y-71370000D01*
X190465000Y-32017000D02*
X190465000Y-33419000D01*
X116067000Y-81618000D02*
X113756000Y-79307000D01*
X113320000Y-67292000D02*
X113320000Y-71364000D01*
X120984000Y-85825000D02*
X116777000Y-81618000D01*
X116777000Y-81618000D02*
X116067000Y-81618000D01*
X190824000Y-33777000D02*
X190824000Y-35143000D01*
X113314000Y-71370000D02*
X113314000Y-78735000D01*
X190824000Y-35143000D02*
X170859000Y-55108000D01*
X113314000Y-78735000D02*
X113756000Y-79176000D01*
X115620000Y-64992000D02*
X113320000Y-67292000D01*
%TO.N,Net-(U12-D6)*%
X134252000Y-84054000D02*
X134252000Y-73895000D01*
X134252000Y-73895000D02*
X130428000Y-70072000D01*
X146965000Y-82630000D02*
X146965000Y-82288000D01*
X162321000Y-66932000D02*
X162321000Y-59414000D01*
X196551000Y-28471000D02*
X200625000Y-24397000D01*
X184207000Y-37528000D02*
X184207000Y-32203000D01*
X184207000Y-32203000D02*
X187939000Y-28471000D01*
X146965000Y-82288000D02*
X162321000Y-66932000D01*
X162321000Y-59414000D02*
X184207000Y-37528000D01*
X136120000Y-85922000D02*
X134252000Y-84054000D01*
X187939000Y-28471000D02*
X196551000Y-28471000D01*
%TO.N,Net-(U12-D0)*%
X111215000Y-70493000D02*
X111215000Y-59237000D01*
X138652000Y-35851000D02*
X134281000Y-40222000D01*
X71680000Y-63619000D02*
X78103000Y-70042000D01*
X134281000Y-49349000D02*
X128798000Y-54832000D01*
X108720000Y-87217000D02*
X108720000Y-78423000D01*
X108720000Y-78423000D02*
X111150000Y-75993000D01*
X78103000Y-70042000D02*
X78103000Y-73537000D01*
X111150000Y-70558000D02*
X111215000Y-70493000D01*
X71680000Y-62217000D02*
X71680000Y-63619000D01*
X111215000Y-59237000D02*
X115620000Y-54832000D01*
X134281000Y-40222000D02*
X134281000Y-49349000D01*
X111150000Y-75993000D02*
X111150000Y-70558000D01*
%TO.N,Net-(U12-D7)*%
X136120000Y-91002000D02*
X133211000Y-88093000D01*
X121770000Y-60409000D02*
X132962000Y-49216000D01*
X89460000Y-62217000D02*
X89460000Y-63619000D01*
X132962000Y-38944000D02*
X149096000Y-22811000D01*
X133211000Y-88093000D02*
X133211000Y-74165000D01*
X121770000Y-72052000D02*
X121770000Y-60409000D01*
X89460000Y-63619000D02*
X90636000Y-63619000D01*
X90636000Y-63619000D02*
X91800000Y-64783000D01*
X133211000Y-74165000D02*
X131072000Y-72026000D01*
X132962000Y-49216000D02*
X132962000Y-38944000D01*
%TO.N,Net-(U20-S)*%
X156186000Y-65124000D02*
X156856000Y-65795000D01*
X148425000Y-50517000D02*
X148425000Y-49115000D01*
X148425000Y-51919000D02*
X148775000Y-51919000D01*
X148425000Y-49115000D02*
X146999000Y-47689000D01*
X156856000Y-68345000D02*
X148973000Y-76228000D01*
X148425000Y-50517000D02*
X148425000Y-51919000D01*
X136925000Y-68919000D02*
X144234000Y-76228000D01*
X146999000Y-35510000D02*
X148261000Y-34248000D01*
X136925000Y-67517000D02*
X136925000Y-68919000D01*
X146999000Y-47689000D02*
X146999000Y-35510000D01*
X156186000Y-59329000D02*
X156186000Y-65124000D01*
X141864000Y-135033000D02*
X141864000Y-78599000D01*
X139920000Y-136977000D02*
X141864000Y-135033000D01*
X148973000Y-76228000D02*
X144234000Y-76228000D01*
X148775000Y-51919000D02*
X156186000Y-59329000D01*
X156856000Y-65795000D02*
X156856000Y-68345000D01*
X141864000Y-78599000D02*
X144234000Y-76228000D01*
%TO.N,Net-(U12-D2)*%
X117611000Y-91026000D02*
X118336000Y-91026000D01*
X112618000Y-62914000D02*
X112618000Y-71074000D01*
X135067000Y-49837000D02*
X124993000Y-59912000D01*
X135068000Y-40711000D02*
X135068000Y-49837000D01*
X113800000Y-94837000D02*
X117611000Y-91026000D01*
X142018000Y-33761000D02*
X135068000Y-40711000D01*
X116487000Y-82320000D02*
X115493000Y-82320000D01*
X112612000Y-79439000D02*
X113585000Y-80411000D01*
X112612000Y-71080000D02*
X112612000Y-79439000D01*
X115493000Y-82320000D02*
X113585000Y-80411000D01*
X112618000Y-71074000D02*
X112612000Y-71080000D01*
X135068000Y-49837000D02*
X135067000Y-49837000D01*
X124993000Y-59912000D02*
X124704000Y-59912000D01*
X142018000Y-32497000D02*
X142018000Y-33761000D01*
X115620000Y-59912000D02*
X112618000Y-62914000D01*
X120282000Y-86115000D02*
X116487000Y-82320000D01*
X118336000Y-91026000D02*
X120282000Y-89081000D01*
X120282000Y-89081000D02*
X120282000Y-86115000D01*
%TO.N,Net-(U12-D1)*%
X113800000Y-87217000D02*
X113800000Y-85815000D01*
X138380000Y-41657000D02*
X138380000Y-49785000D01*
X115620000Y-57372000D02*
X111917000Y-61075000D01*
X138380000Y-49785000D02*
X130628000Y-57536000D01*
X140331000Y-39705000D02*
X138380000Y-41657000D01*
X113800000Y-85815000D02*
X110624000Y-82639000D01*
X111917000Y-61075000D02*
X111917000Y-70783000D01*
X110624000Y-82639000D02*
X110624000Y-81670000D01*
X161934000Y-34039000D02*
X156268000Y-39705000D01*
X111852000Y-70848000D02*
X111852000Y-80442000D01*
X111917000Y-70783000D02*
X111852000Y-70848000D01*
X111852000Y-80442000D02*
X110624000Y-81670000D01*
X162085000Y-32637000D02*
X162085000Y-34039000D01*
X162085000Y-34039000D02*
X161934000Y-34039000D01*
%TO.N,Net-(U12-CLK)*%
X140470000Y-110539000D02*
X130732000Y-100801000D01*
X130732000Y-100801000D02*
X130732000Y-73829000D01*
X95620000Y-59619000D02*
X95620000Y-69383000D01*
X139960000Y-113527000D02*
X140470000Y-113017000D01*
X92000000Y-55999000D02*
X95620000Y-59619000D01*
X44002000Y-33775000D02*
X65966000Y-33775000D01*
X140470000Y-113017000D02*
X140470000Y-110539000D01*
X90550000Y-53147000D02*
X92000000Y-54597000D01*
X42560000Y-35217000D02*
X44002000Y-33775000D01*
X65966000Y-33775000D02*
X67719000Y-35528000D01*
X67719000Y-43388000D02*
X77478000Y-53147000D01*
X67719000Y-35528000D02*
X67719000Y-43388000D01*
X77478000Y-53147000D02*
X90550000Y-53147000D01*
X92000000Y-54597000D02*
X92000000Y-55999000D01*
%TO.N,Net-(U24-1A)*%
X89359000Y-114427000D02*
X88102000Y-113171000D01*
X88102000Y-113171000D02*
X69441000Y-113171000D01*
X69441000Y-113171000D02*
X68298000Y-114313000D01*
%TO.N,Net-(U24-2A)*%
X42653000Y-138484000D02*
X42653000Y-137869000D01*
X68420000Y-168337000D02*
X66313000Y-166230000D01*
X38800000Y-142337000D02*
X42653000Y-138484000D01*
X66313000Y-134585000D02*
X64605000Y-132877000D01*
X64605000Y-132877000D02*
X62800000Y-132877000D01*
X66313000Y-166230000D02*
X66313000Y-134585000D01*
%TO.N,Net-(U19-2B)*%
X184150000Y-137477000D02*
X213640000Y-107987000D01*
X213640000Y-98839000D02*
X216722000Y-95757000D01*
X216722000Y-95757000D02*
X218180000Y-95757000D01*
X213640000Y-107987000D02*
X213640000Y-98839000D01*
%TO.N,Net-(U26-Q0)*%
X101357000Y-143597000D02*
X101245000Y-143710000D01*
X99620000Y-126752000D02*
X101357000Y-128489000D01*
X110702000Y-149138000D02*
X109300000Y-150539000D01*
X110702000Y-147976000D02*
X110702000Y-149138000D01*
X106323000Y-143597000D02*
X110702000Y-147976000D01*
X109300000Y-150539000D02*
X109300000Y-151097000D01*
X101357000Y-128489000D02*
X101357000Y-143597000D01*
X101357000Y-143597000D02*
X106323000Y-143597000D01*
%TO.N,Net-(U24-2B)*%
X69036000Y-169741000D02*
X60219000Y-169741000D01*
X69833000Y-168944000D02*
X69036000Y-169741000D01*
X53005000Y-132512000D02*
X55180000Y-130337000D01*
X68420000Y-155637000D02*
X69833000Y-157050000D01*
X53005000Y-162527000D02*
X53005000Y-132512000D01*
X69833000Y-157050000D02*
X69833000Y-168944000D01*
X60219000Y-169741000D02*
X53005000Y-162527000D01*
%TO.N,Net-(U25-2A)*%
X80800000Y-131297000D02*
X80800000Y-134700000D01*
X71235000Y-136877000D02*
X71348000Y-136765000D01*
X60800000Y-163257000D02*
X65362000Y-158695000D01*
X71235000Y-144690000D02*
X71235000Y-136877000D01*
X80800000Y-134700000D02*
X78735000Y-136765000D01*
X65362000Y-158695000D02*
X65362000Y-154329000D01*
%TO.N,Net-(U25-2B)*%
X62572000Y-156405000D02*
X60800000Y-158177000D01*
X62572000Y-155844000D02*
X62572000Y-156405000D01*
X65087000Y-153329000D02*
X62572000Y-155844000D01*
X75637000Y-133920000D02*
X75637000Y-134165000D01*
X80800000Y-128757000D02*
X75637000Y-133920000D01*
X65087000Y-134635000D02*
X65087000Y-153329000D01*
%TO.N,Net-(U24-3A)*%
X61393000Y-124124000D02*
X61393000Y-135993000D01*
X62800000Y-122717000D02*
X61393000Y-124124000D01*
X62202000Y-136801000D02*
X62202000Y-149155000D01*
X62202000Y-149155000D02*
X60800000Y-150557000D01*
X61393000Y-135993000D02*
X62202000Y-136801000D01*
%TO.N,Net-(U26-Q2)*%
X104542000Y-151419000D02*
X104542000Y-148963000D01*
X98369000Y-146932000D02*
X97443000Y-146005000D01*
X102511000Y-146932000D02*
X98369000Y-146932000D01*
X109300000Y-156177000D02*
X104542000Y-151419000D01*
X104542000Y-148963000D02*
X102511000Y-146932000D01*
%TO.N,Net-(U24-4A)*%
X67015000Y-159312000D02*
X67015000Y-133150000D01*
X64202000Y-130337000D02*
X62800000Y-130337000D01*
X67015000Y-133150000D02*
X64202000Y-130337000D01*
X68420000Y-160717000D02*
X67015000Y-159312000D01*
%TO.N,Net-(U13-I3)*%
X220388000Y-119139000D02*
X219922000Y-119606000D01*
X219922000Y-123259000D02*
X225420000Y-128757000D01*
X219922000Y-119606000D02*
X219922000Y-123259000D01*
X218180000Y-98297000D02*
X220388000Y-100505000D01*
X220388000Y-100505000D02*
X220388000Y-119139000D01*
%TO.N,Net-(U13-I4)*%
X225800000Y-93217000D02*
X227213000Y-94630000D01*
X227213000Y-94630000D02*
X227213000Y-121884000D01*
X227213000Y-121884000D02*
X225420000Y-123677000D01*
%TO.N,Net-(U13-03)*%
X225800000Y-88137000D02*
X227925000Y-90262000D01*
X227925000Y-90262000D02*
X227925000Y-128792000D01*
X227925000Y-128792000D02*
X225420000Y-131297000D01*
%TO.N,Net-(U13-O4)*%
X164072000Y-111769000D02*
X173068000Y-111769000D01*
X152140000Y-99837000D02*
X164072000Y-111769000D01*
%TO.N,Net-(U13-I1)*%
X219686000Y-118848000D02*
X217800000Y-120735000D01*
X217800000Y-120735000D02*
X217800000Y-121137000D01*
X216553000Y-106032000D02*
X219686000Y-109165000D01*
X216553000Y-97201000D02*
X216553000Y-106032000D01*
X219686000Y-109165000D02*
X219686000Y-118848000D01*
%TO.N,Net-(U18-D7)*%
X63960000Y-106357000D02*
X63960000Y-107758000D01*
X173560000Y-102338000D02*
X173560000Y-102372000D01*
X63960000Y-107758000D02*
X57642000Y-114076000D01*
X172460000Y-101239000D02*
X173560000Y-102338000D01*
X172460000Y-99837000D02*
X172460000Y-101239000D01*
%TO.N,Net-(U18-D6)*%
X169920000Y-101239000D02*
X170263000Y-101239000D01*
X169920000Y-99837000D02*
X169920000Y-101239000D01*
X170263000Y-101239000D02*
X172250000Y-103225000D01*
%TO.N,Net-(U18-D4)*%
X56047000Y-108198000D02*
X45549000Y-118697000D01*
X45549000Y-118697000D02*
X45549000Y-122017000D01*
X56340000Y-107759000D02*
X56047000Y-107759000D01*
X56340000Y-106357000D02*
X56340000Y-107759000D01*
X56047000Y-107759000D02*
X56047000Y-108198000D01*
%TO.N,Net-(U18-D2)*%
X44688000Y-121209000D02*
X38800000Y-127097000D01*
X53734000Y-109001000D02*
X44688000Y-118047000D01*
X44688000Y-118047000D02*
X44688000Y-121209000D01*
%TO.N,Net-(U18-D0)*%
X36645000Y-130022000D02*
X38800000Y-132177000D01*
X42556000Y-107759000D02*
X41855000Y-107057000D01*
X41855000Y-107057000D02*
X37990000Y-107057000D01*
X36645000Y-108402000D02*
X36645000Y-130022000D01*
X37990000Y-107057000D02*
X36645000Y-108402000D01*
X44778000Y-107759000D02*
X42556000Y-107759000D01*
X46180000Y-106357000D02*
X44778000Y-107759000D01*
%TO.N,Net-(U18-D5)*%
X57722000Y-107759000D02*
X46461000Y-119021000D01*
X58880000Y-106357000D02*
X58880000Y-107759000D01*
X46461000Y-119021000D02*
X46461000Y-119477000D01*
X58880000Y-107759000D02*
X57722000Y-107759000D01*
%TO.N,Net-(U18-D1)*%
X46847000Y-108507000D02*
X47595000Y-107759000D01*
X38193000Y-107846000D02*
X41449000Y-107846000D01*
X37347000Y-128184000D02*
X37347000Y-108693000D01*
X37347000Y-108693000D02*
X38193000Y-107846000D01*
X48720000Y-107759000D02*
X48720000Y-106357000D01*
X41449000Y-107846000D02*
X42110000Y-108507000D01*
X42110000Y-108507000D02*
X46847000Y-108507000D01*
X38800000Y-129637000D02*
X37347000Y-128184000D01*
X47595000Y-107759000D02*
X48720000Y-107759000D01*
%TO.N,Net-(U18-D3)*%
X38800000Y-124557000D02*
X43308000Y-120049000D01*
X43308000Y-117568000D02*
X53116000Y-107759000D01*
X53116000Y-107759000D02*
X53800000Y-107759000D01*
X53800000Y-107759000D02*
X53800000Y-106357000D01*
X43308000Y-120049000D02*
X43308000Y-117568000D01*
%TO.N,Net-(U19-1B)*%
X216778000Y-93217000D02*
X216778000Y-94181000D01*
X185708000Y-101362000D02*
X183394000Y-103676000D01*
X216780000Y-93217000D02*
X216778000Y-93217000D01*
X216701000Y-89616000D02*
X218180000Y-88137000D01*
X216778000Y-94181000D02*
X209597000Y-101362000D01*
X216780000Y-93217000D02*
X216701000Y-93138000D01*
X209597000Y-101362000D02*
X185708000Y-101362000D01*
X218180000Y-93217000D02*
X216780000Y-93217000D01*
X183394000Y-113221000D02*
X184150000Y-113977000D01*
X216701000Y-93138000D02*
X216701000Y-89616000D01*
X183394000Y-103676000D02*
X183394000Y-113221000D01*
%TO.N,Net-(U19-4Q)*%
X212850000Y-110385000D02*
X190762000Y-132474000D01*
X190762000Y-132474000D02*
X190762000Y-161799000D01*
%TO.N,Net-(U24-4Q)*%
X70284000Y-137161000D02*
X70284000Y-153119000D01*
X70284000Y-153119000D02*
X76600000Y-159435000D01*
X68659000Y-135536000D02*
X70284000Y-137161000D01*
X76600000Y-159435000D02*
X76600000Y-160837000D01*
%TO.N,Net-(U24-3Q)*%
X77164000Y-155771000D02*
X81694000Y-155771000D01*
X72276000Y-140237000D02*
X72201000Y-140312000D01*
X72201000Y-140312000D02*
X72201000Y-150809000D01*
X81694000Y-155771000D02*
X86760000Y-160837000D01*
X72201000Y-150809000D02*
X77164000Y-155771000D01*
X62800000Y-127797000D02*
X64202000Y-127797000D01*
X64202000Y-127797000D02*
X72276000Y-135872000D01*
X72276000Y-135872000D02*
X72276000Y-140237000D01*
%TO.N,Net-(U24-1Q)*%
X52278000Y-162792000D02*
X52278000Y-128159000D01*
X52278000Y-128159000D02*
X55180000Y-125257000D01*
X59936000Y-170451000D02*
X52278000Y-162792000D01*
X79140000Y-160837000D02*
X69526000Y-170451000D01*
X69526000Y-170451000D02*
X59936000Y-170451000D01*
%TO.N,Net-(U25-0A)*%
X38800000Y-152497000D02*
X40252000Y-152497000D01*
X40252000Y-152497000D02*
X40252000Y-151176000D01*
X40252000Y-151176000D02*
X47888000Y-143540000D01*
X74622000Y-117499000D02*
X74622000Y-141508000D01*
X74622000Y-144757000D02*
X81680000Y-151815000D01*
X74622000Y-141508000D02*
X74622000Y-144757000D01*
X74622000Y-141508000D02*
X74131000Y-141508000D01*
X73180000Y-116057000D02*
X74622000Y-117499000D01*
X81680000Y-151815000D02*
X81680000Y-153217000D01*
%TO.N,Net-(U25-Q3)*%
X79398000Y-122275000D02*
X79398000Y-119788000D01*
X74265000Y-114655000D02*
X71250000Y-114655000D01*
X80800000Y-123677000D02*
X79398000Y-122275000D01*
X79398000Y-119788000D02*
X74265000Y-114655000D01*
X71250000Y-114655000D02*
X71062000Y-114844000D01*
%TO.N,Net-(U26-Q1)*%
X111451000Y-151486000D02*
X109300000Y-153637000D01*
X104289000Y-140739000D02*
X104526000Y-140739000D01*
X111451000Y-147664000D02*
X111451000Y-151486000D01*
X103524000Y-125577000D02*
X103524000Y-139974000D01*
X99620000Y-121672000D02*
X103524000Y-125577000D01*
X103524000Y-139974000D02*
X104289000Y-140739000D01*
X104526000Y-140739000D02*
X111451000Y-147664000D01*
%TO.N,Net-(U26-CLK)*%
X98216000Y-127888000D02*
X98216000Y-120536000D01*
X104960000Y-138469000D02*
X104960000Y-124472000D01*
X104960000Y-124472000D02*
X99620000Y-119132000D01*
X109300000Y-171417000D02*
X112855000Y-167862000D01*
X98216000Y-120536000D02*
X99620000Y-119132000D01*
X99620000Y-129292000D02*
X98216000Y-127888000D01*
X112855000Y-146205000D02*
X105118000Y-138469000D01*
X112855000Y-167862000D02*
X112855000Y-146205000D01*
X104426000Y-139003000D02*
X104426000Y-139507000D01*
X104960000Y-138469000D02*
X104426000Y-139003000D01*
X105118000Y-138469000D02*
X104960000Y-138469000D01*
%TO.N,Net-(U26-D0)*%
X96522000Y-126194000D02*
X92000000Y-121672000D01*
X96522000Y-147340000D02*
X96522000Y-126194000D01*
X100278000Y-151097000D02*
X96522000Y-147340000D01*
X101680000Y-151097000D02*
X100278000Y-151097000D01*
%TO.N,Net-(U26-Q6)*%
X109300000Y-166337000D02*
X112153000Y-163484000D01*
X112153000Y-163484000D02*
X112153000Y-146782000D01*
X112153000Y-146782000D02*
X111627000Y-146255000D01*
%TO.N,Net-(U27-3B)*%
X93254000Y-142914000D02*
X93657000Y-142511000D01*
X90731000Y-162268000D02*
X92432000Y-162268000D01*
X89300000Y-160837000D02*
X90731000Y-162268000D01*
X98218000Y-131832000D02*
X98218000Y-142049000D01*
X99620000Y-131832000D02*
X98218000Y-131832000D01*
X92432000Y-162268000D02*
X93254000Y-161445000D01*
X98218000Y-142049000D02*
X98681000Y-142511000D01*
X93254000Y-161445000D02*
X93254000Y-142914000D01*
X168744000Y-142511000D02*
X165071000Y-142511000D01*
X171450000Y-145217000D02*
X168744000Y-142511000D01*
%TO.N,Net-(U28-2A)*%
X92000000Y-124212000D02*
X83516000Y-132696000D01*
X83516000Y-132696000D02*
X83516000Y-138841000D01*
%TO.N,Net-(U28-1B)*%
X97357000Y-115177000D02*
X93402000Y-119132000D01*
X108500000Y-122632000D02*
X107098000Y-122632000D01*
X93402000Y-119132000D02*
X92000000Y-119132000D01*
X107098000Y-122088000D02*
X100187000Y-115177000D01*
X100187000Y-115177000D02*
X97357000Y-115177000D01*
X107098000Y-122632000D02*
X107098000Y-122088000D01*
%TO.N,Net-(U24-1B)*%
X55180000Y-122717000D02*
X53778000Y-122717000D01*
X48803000Y-145034000D02*
X38800000Y-155037000D01*
X127260000Y-121094500D02*
X127260000Y-120953000D01*
X127260000Y-121095000D02*
X127260000Y-121094500D01*
X48803000Y-128350000D02*
X48803000Y-145034000D01*
X53778000Y-122717000D02*
X53778000Y-123375000D01*
X53778000Y-123375000D02*
X48803000Y-128350000D01*
X127260000Y-120953000D02*
X117527000Y-111219000D01*
%TO.N,Net-(U26-Q3)*%
X119717000Y-152286000D02*
X119717000Y-163598000D01*
X110482000Y-172832000D02*
X102619000Y-172832000D01*
X105857000Y-162160000D02*
X105857000Y-169227000D01*
X109300000Y-158717000D02*
X105857000Y-162160000D01*
X119717000Y-163598000D02*
X110482000Y-172832000D01*
X102619000Y-172832000D02*
X102436000Y-172649000D01*
X102254000Y-172830000D02*
X99071000Y-172830000D01*
X105857000Y-169227000D02*
X102436000Y-172649000D01*
X102436000Y-172649000D02*
X102254000Y-172830000D01*
X99071000Y-172830000D02*
X96303000Y-170062000D01*
%TO.N,Net-(U13-O5)*%
X215132000Y-106636000D02*
X218785000Y-110289000D01*
X218785000Y-110289000D02*
X218785000Y-113337000D01*
X215132000Y-99519000D02*
X215132000Y-106636000D01*
%TO.N,Net-(U24-2Q)*%
X53738000Y-134319000D02*
X53738000Y-135981000D01*
X55180000Y-132877000D02*
X53738000Y-134319000D01*
X53738000Y-135981000D02*
X54988000Y-137230000D01*
X54988000Y-137230000D02*
X56721000Y-137230000D01*
%TO.N,Net-(U25-3B)*%
X131182000Y-169825000D02*
X130300000Y-169825000D01*
X125425000Y-152341000D02*
X125425000Y-168369000D01*
X125425000Y-168369000D02*
X126881000Y-169825000D01*
X113071000Y-144224000D02*
X115293000Y-144224000D01*
X117051000Y-143967000D02*
X125425000Y-152341000D01*
X102023000Y-113699000D02*
X102295000Y-113970000D01*
X91362000Y-113699000D02*
X102023000Y-113699000D01*
X102295000Y-113970000D02*
X105932000Y-113970000D01*
X80800000Y-118597000D02*
X86464000Y-118597000D01*
X115293000Y-144224000D02*
X115550000Y-143967000D01*
X115550000Y-143967000D02*
X117051000Y-143967000D01*
X110849000Y-142002000D02*
X113071000Y-144224000D01*
X110849000Y-118887000D02*
X110849000Y-142002000D01*
X105932000Y-113970000D02*
X110849000Y-118887000D01*
X126881000Y-169825000D02*
X130300000Y-169825000D01*
X135110000Y-165897000D02*
X131182000Y-169825000D01*
X86464000Y-118597000D02*
X91362000Y-113699000D01*
%TO.N,Net-(U25-3A)*%
X101478000Y-115029000D02*
X103707000Y-115029000D01*
X117800000Y-146217000D02*
X117800000Y-163217000D01*
X109902000Y-142048000D02*
X113255000Y-145401000D01*
X105126000Y-115029000D02*
X105554000Y-115029000D01*
X104316000Y-115029000D02*
X105126000Y-115029000D01*
X80800000Y-121137000D02*
X85004000Y-121137000D01*
X113255000Y-145401000D02*
X114484000Y-145401000D01*
X105126000Y-115029000D02*
X105554000Y-115029000D01*
X91681000Y-114460000D02*
X100909000Y-114460000D01*
X103707000Y-115029000D02*
X104316000Y-115029000D01*
X105554000Y-115029000D02*
X105936000Y-115029000D01*
X114484000Y-145401000D02*
X114800000Y-145717000D01*
X85004000Y-121137000D02*
X91681000Y-114460000D01*
X105936000Y-115029000D02*
X109902000Y-118996000D01*
X100909000Y-114460000D02*
X101478000Y-115029000D01*
X103707000Y-115029000D02*
X104316000Y-115029000D01*
X109902000Y-118996000D02*
X109902000Y-142048000D01*
%TO.N,Net-(U27-Q2)*%
X81680000Y-160837000D02*
X84589000Y-163746000D01*
X95620000Y-161236000D02*
X95620000Y-137602000D01*
X93110000Y-163746000D02*
X95620000Y-161236000D01*
X84589000Y-163746000D02*
X93110000Y-163746000D01*
%TO.N,Net-(U27-Q3)*%
X121452000Y-124414000D02*
X121452000Y-121071000D01*
X94535000Y-152078000D02*
X94535000Y-161199000D01*
X92734000Y-163001000D02*
X86384000Y-163001000D01*
X113684000Y-143474000D02*
X118253000Y-138905000D01*
X118253000Y-127613000D02*
X121452000Y-124414000D01*
X94535000Y-161199000D02*
X92734000Y-163001000D01*
X118253000Y-138905000D02*
X118253000Y-127613000D01*
X86384000Y-163001000D02*
X84220000Y-160837000D01*
%TO.N,Net-(U27-Q1)*%
X84220000Y-150613000D02*
X94299000Y-140535000D01*
X84220000Y-153217000D02*
X84220000Y-150613000D01*
%TO.N,Net-(U28-2Q)*%
X127220000Y-144516000D02*
X119603000Y-136899000D01*
X127220000Y-144977000D02*
X127220000Y-144516000D01*
%TO.N,Net-(U29-CLK)*%
X185552000Y-132308000D02*
X185552000Y-106336000D01*
X185552000Y-106336000D02*
X184840000Y-105624000D01*
X184840000Y-105624000D02*
X184840000Y-104222000D01*
X184150000Y-145217000D02*
X182774000Y-143841000D01*
X182774000Y-135087000D02*
X185552000Y-132308000D01*
X182774000Y-143841000D02*
X182774000Y-135087000D01*
%TO.N,Net-(U30-CLK)*%
X181610000Y-127307000D02*
X184150000Y-129847000D01*
X181610000Y-100229000D02*
X181610000Y-127307000D01*
X175000000Y-92217000D02*
X175000000Y-93619000D01*
X175000000Y-93619000D02*
X181610000Y-100229000D01*
%TO.N,Net-(U47-1B)*%
X115000000Y-153632000D02*
X116300000Y-152332000D01*
X76300000Y-144717000D02*
X76300000Y-139717000D01*
X103300000Y-144717000D02*
X99300000Y-144717000D01*
X116300000Y-152332000D02*
X116300000Y-144717000D01*
X38800000Y-109317000D02*
X42653000Y-113170000D01*
X52083000Y-126390000D02*
X51376000Y-127097000D01*
X42653000Y-113170000D02*
X42653000Y-114978000D01*
X51376000Y-127097000D02*
X51376000Y-141545000D01*
%TO.N,Net-(U44-IN)*%
X168874000Y-150611000D02*
X156971000Y-150611000D01*
X171370000Y-153107000D02*
X168874000Y-150611000D01*
%TD*%
M02*
