%TF.GenerationSoftware,KiCad,Pcbnew,8.0.2-1*%
%TF.CreationDate,2024-08-04T09:10:22-04:00*%
%TF.ProjectId,startup_controller,73746172-7475-4705-9f63-6f6e74726f6c,rev?*%
%TF.SameCoordinates,Original*%
%TF.FileFunction,Copper,L2,Bot*%
%TF.FilePolarity,Positive*%
%FSLAX46Y46*%
G04 Gerber Fmt 4.6, Leading zero omitted, Abs format (unit mm)*
G04 Created by KiCad (PCBNEW 8.0.2-1) date 2024-08-04 09:10:22*
%MOMM*%
%LPD*%
G01*
G04 APERTURE LIST*
%TA.AperFunction,ComponentPad*%
%ADD10R,1.600000X1.600000*%
%TD*%
%TA.AperFunction,ComponentPad*%
%ADD11O,1.600000X1.600000*%
%TD*%
%TA.AperFunction,ComponentPad*%
%ADD12C,1.524000*%
%TD*%
%TA.AperFunction,ComponentPad*%
%ADD13R,1.800000X1.800000*%
%TD*%
%TA.AperFunction,ComponentPad*%
%ADD14C,1.800000*%
%TD*%
%TA.AperFunction,ComponentPad*%
%ADD15R,1.700000X1.700000*%
%TD*%
%TA.AperFunction,ComponentPad*%
%ADD16O,1.700000X1.700000*%
%TD*%
%TA.AperFunction,ComponentPad*%
%ADD17C,1.600000*%
%TD*%
%TA.AperFunction,ViaPad*%
%ADD18C,0.600000*%
%TD*%
%TA.AperFunction,Conductor*%
%ADD19C,0.200000*%
%TD*%
G04 APERTURE END LIST*
D10*
%TO.P,U3,1,0Q*%
%TO.N,unconnected-(U3-0Q-Pad1)*%
X143505000Y-113020000D03*
D11*
%TO.P,U3,2,0Q#*%
%TO.N,unconnected-(U3-0Q#-Pad2)*%
X146045000Y-113020000D03*
%TO.P,U3,3,0CLK*%
%TO.N,Net-(D1-K)*%
X148585000Y-113020000D03*
%TO.P,U3,4,0RESET*%
X151125000Y-113020000D03*
%TO.P,U3,5,0D*%
X153665000Y-113020000D03*
%TO.P,U3,6,0SET*%
X156205000Y-113020000D03*
%TO.P,U3,7,GND*%
X158745000Y-113020000D03*
%TO.P,U3,8,1SET*%
X158745000Y-105400000D03*
%TO.P,U3,9,1D*%
%TO.N,Net-(D2-A)*%
X156205000Y-105400000D03*
%TO.P,U3,10,1RESET*%
%TO.N,Net-(D1-A)*%
X153665000Y-105400000D03*
%TO.P,U3,11,1CLK*%
%TO.N,Net-(U2-1Q)*%
X151125000Y-105400000D03*
%TO.P,U3,12,1Q3*%
%TO.N,Net-(U2-1A)*%
X148585000Y-105400000D03*
%TO.P,U3,13,1Q*%
%TO.N,Net-(D3-A)*%
X146045000Y-105400000D03*
%TO.P,U3,14,V+*%
%TO.N,Net-(D5-A)*%
X143505000Y-105400000D03*
%TD*%
D12*
%TO.P,R3,1*%
%TO.N,Net-(U5-IN-_1)*%
X189190000Y-81280000D03*
%TO.P,R3,2*%
%TO.N,Net-(U5-IN+_2)*%
X179030000Y-81280000D03*
%TD*%
D13*
%TO.P,D4,1,K*%
%TO.N,Net-(D1-K)*%
X133350000Y-93980000D03*
D14*
%TO.P,D4,2,A*%
%TO.N,Net-(D4-A)*%
X133350000Y-96520000D03*
%TD*%
D10*
%TO.P,U5,1,OUT_1*%
%TO.N,Net-(D2-A)*%
X194270000Y-101600000D03*
D11*
%TO.P,U5,2,IN-_1*%
%TO.N,Net-(U5-IN-_1)*%
X191730000Y-101600000D03*
%TO.P,U5,3,IN+_1*%
%TO.N,Net-(U5-IN+_1)*%
X189190000Y-101600000D03*
%TO.P,U5,4,V+*%
%TO.N,Net-(D5-A)*%
X186650000Y-101600000D03*
%TO.P,U5,5,IN+_2*%
%TO.N,Net-(U5-IN+_2)*%
X184110000Y-101600000D03*
%TO.P,U5,6,IN-_2*%
%TO.N,Net-(U5-IN+_1)*%
X181570000Y-101600000D03*
%TO.P,U5,7,OUT_2*%
%TO.N,Net-(D1-A)*%
X179030000Y-101600000D03*
%TO.P,U5,8,OUT_3*%
%TO.N,unconnected-(U5-OUT_3-Pad8)*%
X179030000Y-109220000D03*
%TO.P,U5,9,IN-_3*%
%TO.N,Net-(D1-K)*%
X181570000Y-109220000D03*
%TO.P,U5,10,IN+_3*%
X184110000Y-109220000D03*
%TO.P,U5,11,GND*%
X186650000Y-109220000D03*
%TO.P,U5,12,IN+_4*%
X189190000Y-109220000D03*
%TO.P,U5,13,IN-_4*%
X191730000Y-109220000D03*
%TO.P,U5,14,OUT_4*%
%TO.N,unconnected-(U5-OUT_4-Pad14)*%
X194270000Y-109220000D03*
%TD*%
D15*
%TO.P,U1,1,V+*%
%TO.N,Net-(D5-A)*%
X126580000Y-85000000D03*
D16*
%TO.P,U1,2,GND*%
%TO.N,Net-(D1-K)*%
X126580000Y-87540000D03*
%TO.P,U1,3,A_CLK*%
%TO.N,Net-(U1-A_CLK)*%
X126580000Y-90080000D03*
%TO.P,U1,4,B_CLK*%
%TO.N,Net-(U1-B_CLK)*%
X126580000Y-92620000D03*
%TO.P,U1,5,START*%
%TO.N,Net-(D4-A)*%
X126580000Y-95160000D03*
%TO.P,U1,6,ENABLE*%
%TO.N,Net-(D3-A)*%
X126580000Y-97700000D03*
%TO.P,U1,7,FAULT*%
%TO.N,unconnected-(U1-FAULT-Pad7)*%
X126580000Y-100240000D03*
%TD*%
D10*
%TO.P,C1,1*%
%TO.N,Net-(U5-IN-_1)*%
X190460000Y-92710000D03*
D17*
%TO.P,C1,2*%
%TO.N,Net-(D1-K)*%
X187960000Y-92710000D03*
%TD*%
D12*
%TO.P,R4,1*%
%TO.N,Net-(D5-A)*%
X195540000Y-85090000D03*
%TO.P,R4,2*%
%TO.N,Net-(U5-IN+_1)*%
X195540000Y-95250000D03*
%TD*%
D10*
%TO.P,U2,1,1A*%
%TO.N,Net-(U2-1A)*%
X143510000Y-97780000D03*
D11*
%TO.P,U2,2,1B*%
%TO.N,Net-(U1-B_CLK)*%
X146050000Y-97780000D03*
%TO.P,U2,3,1Q*%
%TO.N,Net-(U2-1Q)*%
X148590000Y-97780000D03*
%TO.P,U2,4,2A*%
%TO.N,Net-(D3-A)*%
X151130000Y-97780000D03*
%TO.P,U2,5,2B*%
%TO.N,Net-(U1-A_CLK)*%
X153670000Y-97780000D03*
%TO.P,U2,6,2Q*%
%TO.N,Net-(U2-2Q)*%
X156210000Y-97780000D03*
%TO.P,U2,7,GND*%
%TO.N,Net-(D1-K)*%
X158750000Y-97780000D03*
%TO.P,U2,8,4Q*%
%TO.N,Net-(U2-4Q)*%
X158750000Y-90160000D03*
%TO.P,U2,9,4B*%
%TO.N,Net-(D2-A)*%
X156210000Y-90160000D03*
%TO.P,U2,10,4A*%
%TO.N,Net-(U2-3A)*%
X153670000Y-90160000D03*
%TO.P,U2,11,3Q*%
%TO.N,Net-(U2-3Q)*%
X151130000Y-90160000D03*
%TO.P,U2,12,3B*%
%TO.N,Net-(U1-B_CLK)*%
X148590000Y-90160000D03*
%TO.P,U2,13,3A*%
%TO.N,Net-(U2-3A)*%
X146050000Y-90160000D03*
%TO.P,U2,14,V+*%
%TO.N,Net-(D5-A)*%
X143510000Y-90160000D03*
%TD*%
D13*
%TO.P,D5,1,K*%
%TO.N,Net-(D1-K)*%
X133080000Y-87630000D03*
D14*
%TO.P,D5,2,A*%
%TO.N,Net-(D5-A)*%
X133080000Y-85090000D03*
%TD*%
D12*
%TO.P,R2,1*%
%TO.N,Net-(U5-IN+_2)*%
X176490000Y-81280000D03*
%TO.P,R2,2*%
%TO.N,Net-(D1-K)*%
X176490000Y-91440000D03*
%TD*%
D13*
%TO.P,D3,1,K*%
%TO.N,Net-(D1-K)*%
X133350000Y-101600000D03*
D14*
%TO.P,D3,2,A*%
%TO.N,Net-(D3-A)*%
X133350000Y-104140000D03*
%TD*%
D12*
%TO.P,R5,1*%
%TO.N,Net-(U5-IN+_1)*%
X176490000Y-96520000D03*
%TO.P,R5,2*%
%TO.N,Net-(D1-K)*%
X186650000Y-96520000D03*
%TD*%
D13*
%TO.P,D1,1,K*%
%TO.N,Net-(D1-K)*%
X168870000Y-88900000D03*
D14*
%TO.P,D1,2,A*%
%TO.N,Net-(D1-A)*%
X168870000Y-91440000D03*
%TD*%
D12*
%TO.P,R1,1*%
%TO.N,Net-(D5-A)*%
X180300000Y-87630000D03*
%TO.P,R1,2*%
%TO.N,Net-(U5-IN-_1)*%
X190460000Y-87630000D03*
%TD*%
D13*
%TO.P,D2,1,K*%
%TO.N,Net-(D1-K)*%
X168870000Y-100330000D03*
D14*
%TO.P,D2,2,A*%
%TO.N,Net-(D2-A)*%
X168870000Y-102870000D03*
%TD*%
D10*
%TO.P,U4,1,0Q*%
%TO.N,Net-(D4-A)*%
X143435000Y-81760000D03*
D11*
%TO.P,U4,2,0Q#*%
%TO.N,unconnected-(U4-0Q#-Pad2)*%
X145975000Y-81760000D03*
%TO.P,U4,3,0CLK*%
%TO.N,Net-(U2-2Q)*%
X148515000Y-81760000D03*
%TO.P,U4,4,0RESET*%
%TO.N,Net-(D1-A)*%
X151055000Y-81760000D03*
%TO.P,U4,5,0D*%
%TO.N,Net-(U2-4Q)*%
X153595000Y-81760000D03*
%TO.P,U4,6,0SET*%
%TO.N,Net-(D1-K)*%
X156135000Y-81760000D03*
%TO.P,U4,7,GND*%
X158675000Y-81760000D03*
%TO.P,U4,8,1SET*%
X158675000Y-74140000D03*
%TO.P,U4,9,1D*%
%TO.N,Net-(D4-A)*%
X156135000Y-74140000D03*
%TO.P,U4,10,1RESET*%
%TO.N,Net-(D1-A)*%
X153595000Y-74140000D03*
%TO.P,U4,11,1CLK*%
%TO.N,Net-(U2-3Q)*%
X151055000Y-74140000D03*
%TO.P,U4,12,1Q3*%
%TO.N,Net-(U2-3A)*%
X148515000Y-74140000D03*
%TO.P,U4,13,1Q*%
%TO.N,unconnected-(U4-1Q-Pad13)*%
X145975000Y-74140000D03*
%TO.P,U4,14,V+*%
%TO.N,Net-(D5-A)*%
X143435000Y-74140000D03*
%TD*%
D18*
%TO.N,Net-(D4-A)*%
X140692500Y-86211800D03*
%TD*%
D19*
%TO.N,Net-(U5-IN-_1)*%
X190460000Y-94411700D02*
X190050500Y-94821200D01*
X190460000Y-92710000D02*
X190460000Y-94411700D01*
X190050500Y-98400300D02*
X191548500Y-99898300D01*
X190460000Y-87630000D02*
X190460000Y-92710000D01*
X190460000Y-82550000D02*
X190460000Y-87630000D01*
X190050500Y-94821200D02*
X190050500Y-98400300D01*
X189190000Y-81280000D02*
X190460000Y-82550000D01*
X191548500Y-99898300D02*
X191730000Y-99898300D01*
X191730000Y-101600000D02*
X191730000Y-99898300D01*
%TO.N,Net-(U5-IN+_2)*%
X184110000Y-99898300D02*
X178637800Y-94426100D01*
X178637800Y-89778700D02*
X176490000Y-87630900D01*
X178637800Y-94426100D02*
X178637800Y-89778700D01*
X176490000Y-87630900D02*
X176490000Y-81280000D01*
X184110000Y-101600000D02*
X184110000Y-99898300D01*
%TO.N,Net-(U5-IN+_1)*%
X179868300Y-99898300D02*
X176490000Y-96520000D01*
X181570000Y-99898300D02*
X179868300Y-99898300D01*
X181570000Y-101600000D02*
X181570000Y-99898300D01*
%TO.N,Net-(U1-B_CLK)*%
X148590000Y-91861700D02*
X146050000Y-94401700D01*
X148590000Y-90160000D02*
X148590000Y-91861700D01*
X146050000Y-97780000D02*
X146050000Y-96078300D01*
X146050000Y-94401700D02*
X146050000Y-96078300D01*
%TO.N,Net-(U2-1Q)*%
X148590000Y-97780000D02*
X148590000Y-101163300D01*
X151125000Y-105400000D02*
X151125000Y-103698300D01*
X148590000Y-101163300D02*
X151125000Y-103698300D01*
%TO.N,Net-(U2-3A)*%
X142870700Y-77960400D02*
X140731600Y-80099500D01*
X140731600Y-83415800D02*
X145774100Y-88458300D01*
X148515000Y-74140000D02*
X144694600Y-77960400D01*
X146050000Y-90160000D02*
X146050000Y-88458300D01*
X145774100Y-88458300D02*
X146050000Y-88458300D01*
X144694600Y-77960400D02*
X142870700Y-77960400D01*
X140731600Y-80099500D02*
X140731600Y-83415800D01*
%TO.N,Net-(U2-1A)*%
X148585000Y-105400000D02*
X148585000Y-103698300D01*
X144368400Y-99481700D02*
X148585000Y-103698300D01*
X143510000Y-97780000D02*
X143510000Y-99481700D01*
X143510000Y-99481700D02*
X144368400Y-99481700D01*
%TO.N,Net-(U2-4Q)*%
X158750000Y-88458300D02*
X158591600Y-88458300D01*
X153595000Y-81760000D02*
X153595000Y-83461700D01*
X158591600Y-88458300D02*
X153595000Y-83461700D01*
X158750000Y-90160000D02*
X158750000Y-88458300D01*
%TO.N,Net-(U2-3Q)*%
X141733300Y-82980400D02*
X141733300Y-80514400D01*
X145472100Y-79722900D02*
X151055000Y-74140000D01*
X142894500Y-84141600D02*
X141733300Y-82980400D01*
X142524800Y-79722900D02*
X145472100Y-79722900D01*
X145111600Y-84141600D02*
X142894500Y-84141600D01*
X141733300Y-80514400D02*
X142524800Y-79722900D01*
X151130000Y-90160000D02*
X145111600Y-84141600D01*
%TO.N,Net-(D1-A)*%
X151055000Y-81760000D02*
X151055000Y-80058300D01*
X151055000Y-80058300D02*
X153595000Y-77518300D01*
X179030000Y-101600000D02*
X168870000Y-91440000D01*
X153595000Y-77518300D02*
X153595000Y-74140000D01*
%TO.N,Net-(D1-K)*%
X158750000Y-97780000D02*
X158750000Y-99481700D01*
X186650000Y-96520000D02*
X187960000Y-95210000D01*
X133080000Y-89431700D02*
X133350000Y-89701700D01*
X133350000Y-89701700D02*
X133350000Y-93980000D01*
X137165000Y-101600000D02*
X133350000Y-101600000D01*
X158745000Y-105400000D02*
X158745000Y-107101700D01*
X133080000Y-87630000D02*
X133080000Y-89431700D01*
X160376700Y-82208400D02*
X160376700Y-81760000D01*
X158675000Y-81760000D02*
X160376700Y-81760000D01*
X158675000Y-74140000D02*
X158675000Y-81760000D01*
X158745000Y-113020000D02*
X156205000Y-113020000D01*
X167068300Y-88900000D02*
X160376700Y-82208400D01*
X158745000Y-99486700D02*
X158745000Y-105400000D01*
X168870000Y-88900000D02*
X167068300Y-88900000D01*
X148585000Y-113020000D02*
X137165000Y-101600000D01*
X158750000Y-99481700D02*
X158745000Y-99486700D01*
X158745000Y-113020000D02*
X158745000Y-107101700D01*
X181570000Y-109220000D02*
X172680000Y-100330000D01*
X187960000Y-95210000D02*
X187960000Y-92710000D01*
X172680000Y-100330000D02*
X168870000Y-100330000D01*
%TO.N,Net-(D2-A)*%
X194270000Y-101600000D02*
X192568300Y-103301700D01*
X156210000Y-90160000D02*
X156210000Y-91861700D01*
X168251700Y-102870000D02*
X168870000Y-102870000D01*
X165892600Y-100166400D02*
X165892600Y-100510900D01*
X164514700Y-100166400D02*
X156210000Y-91861700D01*
X165892600Y-100510900D02*
X168251700Y-102870000D01*
X192568300Y-103301700D02*
X178325200Y-103301700D01*
X173551800Y-98528300D02*
X167530700Y-98528300D01*
X167530700Y-98528300D02*
X165892600Y-100166400D01*
X178325200Y-103301700D02*
X173551800Y-98528300D01*
X165892600Y-100166400D02*
X164514700Y-100166400D01*
%TO.N,Net-(D3-A)*%
X129962700Y-101082700D02*
X129962700Y-101300000D01*
X132802700Y-104140000D02*
X133350000Y-104140000D01*
X129962700Y-101300000D02*
X132802700Y-104140000D01*
X126580000Y-97700000D02*
X129962700Y-101082700D01*
%TO.N,Net-(D4-A)*%
X140692500Y-89727100D02*
X140692500Y-86211800D01*
X133350000Y-96520000D02*
X133899600Y-96520000D01*
X133899600Y-96520000D02*
X140692500Y-89727100D01*
%TO.N,Net-(D5-A)*%
X186650000Y-101600000D02*
X186650000Y-99898300D01*
X180300000Y-87630000D02*
X180300000Y-93548300D01*
X180300000Y-93548300D02*
X186650000Y-99898300D01*
X141808300Y-93563400D02*
X143510000Y-91861700D01*
X143505000Y-103698300D02*
X141808300Y-102001600D01*
X143505000Y-105400000D02*
X143505000Y-103698300D01*
X143510000Y-90160000D02*
X143510000Y-91861700D01*
X141808300Y-102001600D02*
X141808300Y-93563400D01*
%TD*%
%TA.AperFunction,Conductor*%
%TO.N,Net-(D1-K)*%
G36*
X197562539Y-72275185D02*
G01*
X197608294Y-72327989D01*
X197619500Y-72379500D01*
X197619500Y-114945500D01*
X197599815Y-115012539D01*
X197547011Y-115058294D01*
X197495500Y-115069500D01*
X125084500Y-115069500D01*
X125017461Y-115049815D01*
X124971706Y-114997011D01*
X124960500Y-114945500D01*
X124960500Y-112175039D01*
X141904500Y-112175039D01*
X141904500Y-113864960D01*
X141919630Y-113999249D01*
X141919631Y-113999254D01*
X141979211Y-114169523D01*
X142055711Y-114291271D01*
X142075184Y-114322262D01*
X142202738Y-114449816D01*
X142355478Y-114545789D01*
X142525745Y-114605368D01*
X142525750Y-114605369D01*
X142616246Y-114615565D01*
X142660040Y-114620499D01*
X142660043Y-114620500D01*
X142660046Y-114620500D01*
X144349957Y-114620500D01*
X144349958Y-114620499D01*
X144417104Y-114612934D01*
X144484249Y-114605369D01*
X144484252Y-114605368D01*
X144484255Y-114605368D01*
X144654522Y-114545789D01*
X144807262Y-114449816D01*
X144932324Y-114324753D01*
X144993643Y-114291271D01*
X145063335Y-114296255D01*
X145097238Y-114316205D01*
X145097405Y-114315976D01*
X145099774Y-114317697D01*
X145100526Y-114318140D01*
X145101341Y-114318836D01*
X145101346Y-114318839D01*
X145316140Y-114450466D01*
X145546270Y-114545788D01*
X145548889Y-114546873D01*
X145793852Y-114605683D01*
X146045000Y-114625449D01*
X146296148Y-114605683D01*
X146541111Y-114546873D01*
X146773859Y-114450466D01*
X146988659Y-114318836D01*
X147180224Y-114155224D01*
X147343836Y-113963659D01*
X147475466Y-113748859D01*
X147571873Y-113516111D01*
X147630683Y-113271148D01*
X147650449Y-113020000D01*
X147630683Y-112768852D01*
X147571873Y-112523889D01*
X147475466Y-112291141D01*
X147475466Y-112291140D01*
X147343839Y-112076346D01*
X147343838Y-112076343D01*
X147306875Y-112033066D01*
X147180224Y-111884776D01*
X147053571Y-111776604D01*
X146988656Y-111721161D01*
X146988653Y-111721160D01*
X146773859Y-111589533D01*
X146541110Y-111493126D01*
X146296151Y-111434317D01*
X146045000Y-111414551D01*
X145793848Y-111434317D01*
X145548889Y-111493126D01*
X145316140Y-111589533D01*
X145101349Y-111721158D01*
X145101327Y-111721174D01*
X145100516Y-111721867D01*
X145100145Y-111722032D01*
X145097404Y-111724025D01*
X145096985Y-111723448D01*
X145036749Y-111750426D01*
X144967665Y-111739976D01*
X144932321Y-111715243D01*
X144807262Y-111590184D01*
X144654523Y-111494211D01*
X144484254Y-111434631D01*
X144484249Y-111434630D01*
X144349960Y-111419500D01*
X144349954Y-111419500D01*
X142660046Y-111419500D01*
X142660039Y-111419500D01*
X142525750Y-111434630D01*
X142525745Y-111434631D01*
X142355476Y-111494211D01*
X142202737Y-111590184D01*
X142075184Y-111717737D01*
X141979211Y-111870476D01*
X141919631Y-112040745D01*
X141919630Y-112040750D01*
X141904500Y-112175039D01*
X124960500Y-112175039D01*
X124960500Y-109220000D01*
X177424551Y-109220000D01*
X177444317Y-109471151D01*
X177503126Y-109716110D01*
X177599533Y-109948859D01*
X177731160Y-110163653D01*
X177731161Y-110163656D01*
X177731164Y-110163659D01*
X177894776Y-110355224D01*
X178043066Y-110481875D01*
X178086343Y-110518838D01*
X178086346Y-110518839D01*
X178301140Y-110650466D01*
X178533889Y-110746873D01*
X178778852Y-110805683D01*
X179030000Y-110825449D01*
X179281148Y-110805683D01*
X179526111Y-110746873D01*
X179758859Y-110650466D01*
X179973659Y-110518836D01*
X180165224Y-110355224D01*
X180328836Y-110163659D01*
X180460466Y-109948859D01*
X180556873Y-109716111D01*
X180615683Y-109471148D01*
X180635449Y-109220000D01*
X192664551Y-109220000D01*
X192684317Y-109471151D01*
X192743126Y-109716110D01*
X192839533Y-109948859D01*
X192971160Y-110163653D01*
X192971161Y-110163656D01*
X192971164Y-110163659D01*
X193134776Y-110355224D01*
X193283066Y-110481875D01*
X193326343Y-110518838D01*
X193326346Y-110518839D01*
X193541140Y-110650466D01*
X193773889Y-110746873D01*
X194018852Y-110805683D01*
X194270000Y-110825449D01*
X194521148Y-110805683D01*
X194766111Y-110746873D01*
X194998859Y-110650466D01*
X195213659Y-110518836D01*
X195405224Y-110355224D01*
X195568836Y-110163659D01*
X195700466Y-109948859D01*
X195796873Y-109716111D01*
X195855683Y-109471148D01*
X195875449Y-109220000D01*
X195855683Y-108968852D01*
X195796873Y-108723889D01*
X195700466Y-108491141D01*
X195700466Y-108491140D01*
X195568839Y-108276346D01*
X195568838Y-108276343D01*
X195531875Y-108233066D01*
X195405224Y-108084776D01*
X195278571Y-107976604D01*
X195213656Y-107921161D01*
X195213653Y-107921160D01*
X194998859Y-107789533D01*
X194766110Y-107693126D01*
X194521151Y-107634317D01*
X194270000Y-107614551D01*
X194018848Y-107634317D01*
X193773889Y-107693126D01*
X193541140Y-107789533D01*
X193326346Y-107921160D01*
X193326343Y-107921161D01*
X193134776Y-108084776D01*
X192971161Y-108276343D01*
X192971160Y-108276346D01*
X192839533Y-108491140D01*
X192743126Y-108723889D01*
X192684317Y-108968848D01*
X192664551Y-109220000D01*
X180635449Y-109220000D01*
X180615683Y-108968852D01*
X180556873Y-108723889D01*
X180460466Y-108491141D01*
X180460466Y-108491140D01*
X180328839Y-108276346D01*
X180328838Y-108276343D01*
X180291875Y-108233066D01*
X180165224Y-108084776D01*
X180038571Y-107976604D01*
X179973656Y-107921161D01*
X179973653Y-107921160D01*
X179758859Y-107789533D01*
X179526110Y-107693126D01*
X179281151Y-107634317D01*
X179030000Y-107614551D01*
X178778848Y-107634317D01*
X178533889Y-107693126D01*
X178301140Y-107789533D01*
X178086346Y-107921160D01*
X178086343Y-107921161D01*
X177894776Y-108084776D01*
X177731161Y-108276343D01*
X177731160Y-108276346D01*
X177599533Y-108491140D01*
X177503126Y-108723889D01*
X177444317Y-108968848D01*
X177424551Y-109220000D01*
X124960500Y-109220000D01*
X124960500Y-101195748D01*
X124980185Y-101128709D01*
X125032989Y-101082954D01*
X125102147Y-101073010D01*
X125165703Y-101102035D01*
X125190226Y-101130957D01*
X125240588Y-101213140D01*
X125409311Y-101410689D01*
X125606860Y-101579412D01*
X125828372Y-101715154D01*
X125828374Y-101715154D01*
X125828376Y-101715156D01*
X125855860Y-101726540D01*
X126068390Y-101814573D01*
X126321006Y-101875221D01*
X126580000Y-101895604D01*
X126838994Y-101875221D01*
X127091610Y-101814573D01*
X127331628Y-101715154D01*
X127553140Y-101579412D01*
X127750689Y-101410689D01*
X127919412Y-101213140D01*
X128055154Y-100991628D01*
X128143170Y-100779140D01*
X128187011Y-100724737D01*
X128253305Y-100702672D01*
X128321005Y-100719951D01*
X128345412Y-100738912D01*
X129052239Y-101445739D01*
X129085724Y-101507062D01*
X129086175Y-101509229D01*
X129096803Y-101562659D01*
X129096805Y-101562667D01*
X129112270Y-101600000D01*
X129112271Y-101600003D01*
X129164683Y-101726540D01*
X129164687Y-101726547D01*
X129214085Y-101800476D01*
X129250866Y-101855522D01*
X129263237Y-101874038D01*
X129263238Y-101874039D01*
X131621556Y-104232356D01*
X131655041Y-104293679D01*
X131657528Y-104310770D01*
X131663777Y-104394155D01*
X131704027Y-104570499D01*
X131720492Y-104642637D01*
X131813607Y-104879888D01*
X131941041Y-105100612D01*
X132099950Y-105299877D01*
X132286783Y-105473232D01*
X132497366Y-105616805D01*
X132497371Y-105616807D01*
X132497372Y-105616808D01*
X132497373Y-105616809D01*
X132568686Y-105651151D01*
X132726992Y-105727387D01*
X132726993Y-105727387D01*
X132726996Y-105727389D01*
X132970542Y-105802513D01*
X133222565Y-105840500D01*
X133477435Y-105840500D01*
X133729458Y-105802513D01*
X133973004Y-105727389D01*
X134202634Y-105616805D01*
X134413217Y-105473232D01*
X134600050Y-105299877D01*
X134758959Y-105100612D01*
X134886393Y-104879888D01*
X134979508Y-104642637D01*
X135036222Y-104394157D01*
X135055268Y-104140000D01*
X135054792Y-104133654D01*
X135036222Y-103885845D01*
X135033319Y-103873127D01*
X134979508Y-103637363D01*
X134886393Y-103400112D01*
X134758959Y-103179388D01*
X134600050Y-102980123D01*
X134413217Y-102806768D01*
X134202634Y-102663195D01*
X134202630Y-102663193D01*
X134202627Y-102663191D01*
X134202626Y-102663190D01*
X133973006Y-102552612D01*
X133973008Y-102552612D01*
X133729466Y-102477489D01*
X133729462Y-102477488D01*
X133729458Y-102477487D01*
X133608231Y-102459214D01*
X133477440Y-102439500D01*
X133477435Y-102439500D01*
X133222565Y-102439500D01*
X133222559Y-102439500D01*
X133065609Y-102463157D01*
X132970542Y-102477487D01*
X132970539Y-102477488D01*
X132970533Y-102477489D01*
X132726998Y-102552610D01*
X132726996Y-102552611D01*
X132645497Y-102591858D01*
X132576557Y-102603209D01*
X132512423Y-102575486D01*
X132504017Y-102567818D01*
X130873160Y-100936960D01*
X130839675Y-100875637D01*
X130839237Y-100873539D01*
X130828595Y-100820034D01*
X130805921Y-100765296D01*
X130789651Y-100726016D01*
X130789641Y-100725995D01*
X130789629Y-100725964D01*
X130760713Y-100656153D01*
X130737057Y-100620750D01*
X130686131Y-100544534D01*
X130686131Y-100544533D01*
X130665406Y-100513516D01*
X130662164Y-100508664D01*
X128244436Y-98090936D01*
X128210951Y-98029613D01*
X128211544Y-97974305D01*
X128215221Y-97958994D01*
X128235604Y-97700000D01*
X128215221Y-97441006D01*
X128154573Y-97188390D01*
X128055154Y-96948372D01*
X127919412Y-96726860D01*
X127750689Y-96529311D01*
X127744809Y-96524289D01*
X127742006Y-96519995D01*
X131644732Y-96519995D01*
X131644732Y-96520004D01*
X131663777Y-96774154D01*
X131678733Y-96839682D01*
X131720492Y-97022637D01*
X131813607Y-97259888D01*
X131941041Y-97480612D01*
X132099950Y-97679877D01*
X132286783Y-97853232D01*
X132497366Y-97996805D01*
X132497371Y-97996807D01*
X132497372Y-97996808D01*
X132497373Y-97996809D01*
X132619328Y-98055538D01*
X132726992Y-98107387D01*
X132726993Y-98107387D01*
X132726996Y-98107389D01*
X132970542Y-98182513D01*
X133222565Y-98220500D01*
X133477435Y-98220500D01*
X133729458Y-98182513D01*
X133973004Y-98107389D01*
X134202634Y-97996805D01*
X134413217Y-97853232D01*
X134600050Y-97679877D01*
X134758959Y-97480612D01*
X134886393Y-97259888D01*
X134979508Y-97022637D01*
X135036222Y-96774157D01*
X135042284Y-96693257D01*
X135066922Y-96627877D01*
X135078249Y-96614849D01*
X141391963Y-90301136D01*
X141405340Y-90281116D01*
X141490513Y-90153647D01*
X141558394Y-89989766D01*
X141563680Y-89963195D01*
X141591962Y-89821009D01*
X141593000Y-89815791D01*
X141593000Y-86887055D01*
X141612685Y-86820016D01*
X141618046Y-86812328D01*
X141632173Y-86793621D01*
X141723082Y-86611050D01*
X141778897Y-86414883D01*
X141797715Y-86211800D01*
X141782793Y-86050766D01*
X141796208Y-85982199D01*
X141844565Y-85931767D01*
X141912511Y-85915484D01*
X141978473Y-85938521D01*
X141993945Y-85951646D01*
X144903881Y-88861581D01*
X144937366Y-88922904D01*
X144932382Y-88992596D01*
X144910491Y-89029793D01*
X144874291Y-89072178D01*
X144815784Y-89110372D01*
X144745916Y-89110871D01*
X144686869Y-89073517D01*
X144685710Y-89072179D01*
X144685709Y-89072178D01*
X144645224Y-89024776D01*
X144510032Y-88909311D01*
X144453656Y-88861161D01*
X144453653Y-88861160D01*
X144238859Y-88729533D01*
X144006110Y-88633126D01*
X143761151Y-88574317D01*
X143510000Y-88554551D01*
X143258848Y-88574317D01*
X143013889Y-88633126D01*
X142781140Y-88729533D01*
X142566346Y-88861160D01*
X142566343Y-88861161D01*
X142374776Y-89024776D01*
X142211161Y-89216343D01*
X142211160Y-89216346D01*
X142079533Y-89431140D01*
X141983126Y-89663889D01*
X141924317Y-89908848D01*
X141904551Y-90160000D01*
X141924317Y-90411151D01*
X141983126Y-90656110D01*
X142079533Y-90888859D01*
X142211160Y-91103653D01*
X142211161Y-91103656D01*
X142230359Y-91126134D01*
X142374776Y-91295224D01*
X142445035Y-91355230D01*
X142503723Y-91405356D01*
X142541916Y-91463863D01*
X142542414Y-91533731D01*
X142510872Y-91587327D01*
X141108840Y-92989358D01*
X141108834Y-92989365D01*
X141083429Y-93027388D01*
X141083429Y-93027389D01*
X141010288Y-93136850D01*
X141010287Y-93136852D01*
X140996213Y-93170831D01*
X140996213Y-93170832D01*
X140942406Y-93300731D01*
X140942403Y-93300741D01*
X140928303Y-93371629D01*
X140907800Y-93474704D01*
X140907800Y-102090296D01*
X140942403Y-102264259D01*
X140942406Y-102264269D01*
X140956984Y-102299461D01*
X140956985Y-102299465D01*
X141010283Y-102428140D01*
X141010287Y-102428147D01*
X141058632Y-102500500D01*
X141093451Y-102552610D01*
X141108837Y-102575638D01*
X141108838Y-102575639D01*
X142505873Y-103972673D01*
X142539358Y-104033996D01*
X142534374Y-104103688D01*
X142498724Y-104154644D01*
X142369776Y-104264776D01*
X142206161Y-104456343D01*
X142206160Y-104456346D01*
X142074533Y-104671140D01*
X141978126Y-104903889D01*
X141919317Y-105148848D01*
X141899551Y-105400000D01*
X141919317Y-105651151D01*
X141978126Y-105896110D01*
X142074533Y-106128859D01*
X142206160Y-106343653D01*
X142206161Y-106343656D01*
X142206164Y-106343659D01*
X142369776Y-106535224D01*
X142518066Y-106661875D01*
X142561343Y-106698838D01*
X142561346Y-106698839D01*
X142776140Y-106830466D01*
X143008889Y-106926873D01*
X143253852Y-106985683D01*
X143505000Y-107005449D01*
X143756148Y-106985683D01*
X144001111Y-106926873D01*
X144233859Y-106830466D01*
X144448659Y-106698836D01*
X144640224Y-106535224D01*
X144680710Y-106487819D01*
X144739216Y-106449627D01*
X144809084Y-106449128D01*
X144868130Y-106486482D01*
X144869235Y-106487756D01*
X144909775Y-106535223D01*
X144909776Y-106535224D01*
X145101343Y-106698838D01*
X145101346Y-106698839D01*
X145316140Y-106830466D01*
X145548889Y-106926873D01*
X145793852Y-106985683D01*
X146045000Y-107005449D01*
X146296148Y-106985683D01*
X146541111Y-106926873D01*
X146773859Y-106830466D01*
X146988659Y-106698836D01*
X147180224Y-106535224D01*
X147220710Y-106487819D01*
X147279216Y-106449627D01*
X147349084Y-106449128D01*
X147408130Y-106486482D01*
X147409235Y-106487756D01*
X147449775Y-106535223D01*
X147449776Y-106535224D01*
X147641343Y-106698838D01*
X147641346Y-106698839D01*
X147856140Y-106830466D01*
X148088889Y-106926873D01*
X148333852Y-106985683D01*
X148585000Y-107005449D01*
X148836148Y-106985683D01*
X149081111Y-106926873D01*
X149313859Y-106830466D01*
X149528659Y-106698836D01*
X149720224Y-106535224D01*
X149760710Y-106487819D01*
X149819216Y-106449627D01*
X149889084Y-106449128D01*
X149948130Y-106486482D01*
X149949235Y-106487756D01*
X149989775Y-106535223D01*
X149989776Y-106535224D01*
X150181343Y-106698838D01*
X150181346Y-106698839D01*
X150396140Y-106830466D01*
X150628889Y-106926873D01*
X150873852Y-106985683D01*
X151125000Y-107005449D01*
X151376148Y-106985683D01*
X151621111Y-106926873D01*
X151853859Y-106830466D01*
X152068659Y-106698836D01*
X152260224Y-106535224D01*
X152300710Y-106487819D01*
X152359216Y-106449627D01*
X152429084Y-106449128D01*
X152488130Y-106486482D01*
X152489235Y-106487756D01*
X152529775Y-106535223D01*
X152529776Y-106535224D01*
X152721343Y-106698838D01*
X152721346Y-106698839D01*
X152936140Y-106830466D01*
X153168889Y-106926873D01*
X153413852Y-106985683D01*
X153665000Y-107005449D01*
X153916148Y-106985683D01*
X154161111Y-106926873D01*
X154393859Y-106830466D01*
X154608659Y-106698836D01*
X154800224Y-106535224D01*
X154840710Y-106487819D01*
X154899216Y-106449627D01*
X154969084Y-106449128D01*
X155028130Y-106486482D01*
X155029235Y-106487756D01*
X155069775Y-106535223D01*
X155069776Y-106535224D01*
X155261343Y-106698838D01*
X155261346Y-106698839D01*
X155476140Y-106830466D01*
X155708889Y-106926873D01*
X155953852Y-106985683D01*
X156205000Y-107005449D01*
X156456148Y-106985683D01*
X156701111Y-106926873D01*
X156933859Y-106830466D01*
X157148659Y-106698836D01*
X157340224Y-106535224D01*
X157503836Y-106343659D01*
X157635466Y-106128859D01*
X157731873Y-105896111D01*
X157790683Y-105651148D01*
X157810449Y-105400000D01*
X157790683Y-105148852D01*
X157731873Y-104903889D01*
X157721932Y-104879890D01*
X157635466Y-104671140D01*
X157503839Y-104456346D01*
X157503838Y-104456343D01*
X157413755Y-104350870D01*
X157340224Y-104264776D01*
X157186699Y-104133653D01*
X157148656Y-104101161D01*
X157148653Y-104101160D01*
X156933859Y-103969533D01*
X156701110Y-103873126D01*
X156456151Y-103814317D01*
X156205000Y-103794551D01*
X155953848Y-103814317D01*
X155708889Y-103873126D01*
X155476140Y-103969533D01*
X155261346Y-104101160D01*
X155261343Y-104101161D01*
X155069776Y-104264776D01*
X155029290Y-104312179D01*
X154970783Y-104350372D01*
X154900915Y-104350870D01*
X154841869Y-104313516D01*
X154840710Y-104312179D01*
X154839507Y-104310770D01*
X154800224Y-104264776D01*
X154646699Y-104133653D01*
X154608656Y-104101161D01*
X154608653Y-104101160D01*
X154393859Y-103969533D01*
X154161110Y-103873126D01*
X153916151Y-103814317D01*
X153665000Y-103794551D01*
X153413848Y-103814317D01*
X153168889Y-103873126D01*
X152936140Y-103969533D01*
X152721346Y-104101160D01*
X152721343Y-104101161D01*
X152529776Y-104264776D01*
X152489290Y-104312179D01*
X152430783Y-104350372D01*
X152360915Y-104350870D01*
X152301869Y-104313516D01*
X152300710Y-104312179D01*
X152299507Y-104310770D01*
X152260224Y-104264776D01*
X152068967Y-104101427D01*
X152030775Y-104042921D01*
X152025500Y-104007138D01*
X152025500Y-103609606D01*
X152025499Y-103609604D01*
X151990896Y-103435641D01*
X151990893Y-103435633D01*
X151955434Y-103350024D01*
X151923016Y-103271759D01*
X151923009Y-103271746D01*
X151824465Y-103124266D01*
X151771841Y-103071642D01*
X151699035Y-102998836D01*
X150613107Y-101912908D01*
X149526819Y-100826619D01*
X149493334Y-100765296D01*
X149490500Y-100738938D01*
X149490500Y-99172862D01*
X149510185Y-99105823D01*
X149533968Y-99078572D01*
X149552046Y-99063132D01*
X149725224Y-98915224D01*
X149765710Y-98867819D01*
X149824216Y-98829627D01*
X149894084Y-98829128D01*
X149953130Y-98866482D01*
X149954235Y-98867756D01*
X149986230Y-98905218D01*
X149994776Y-98915224D01*
X150186343Y-99078838D01*
X150186346Y-99078839D01*
X150401140Y-99210466D01*
X150537298Y-99266864D01*
X150633889Y-99306873D01*
X150878852Y-99365683D01*
X151130000Y-99385449D01*
X151381148Y-99365683D01*
X151626111Y-99306873D01*
X151858859Y-99210466D01*
X152073659Y-99078836D01*
X152265224Y-98915224D01*
X152305710Y-98867819D01*
X152364216Y-98829627D01*
X152434084Y-98829128D01*
X152493130Y-98866482D01*
X152494235Y-98867756D01*
X152526230Y-98905218D01*
X152534776Y-98915224D01*
X152726343Y-99078838D01*
X152726346Y-99078839D01*
X152941140Y-99210466D01*
X153077298Y-99266864D01*
X153173889Y-99306873D01*
X153418852Y-99365683D01*
X153670000Y-99385449D01*
X153921148Y-99365683D01*
X154166111Y-99306873D01*
X154398859Y-99210466D01*
X154613659Y-99078836D01*
X154805224Y-98915224D01*
X154845710Y-98867819D01*
X154904216Y-98829627D01*
X154974084Y-98829128D01*
X155033130Y-98866482D01*
X155034235Y-98867756D01*
X155066230Y-98905218D01*
X155074776Y-98915224D01*
X155266343Y-99078838D01*
X155266346Y-99078839D01*
X155481140Y-99210466D01*
X155617298Y-99266864D01*
X155713889Y-99306873D01*
X155958852Y-99365683D01*
X156210000Y-99385449D01*
X156461148Y-99365683D01*
X156706111Y-99306873D01*
X156938859Y-99210466D01*
X157153659Y-99078836D01*
X157345224Y-98915224D01*
X157508836Y-98723659D01*
X157640466Y-98508859D01*
X157736873Y-98276111D01*
X157795683Y-98031148D01*
X157815449Y-97780000D01*
X157795683Y-97528852D01*
X157736873Y-97283889D01*
X157726932Y-97259890D01*
X157640466Y-97051140D01*
X157508839Y-96836346D01*
X157508838Y-96836343D01*
X157455723Y-96774154D01*
X157345224Y-96644776D01*
X157196790Y-96518001D01*
X157153656Y-96481161D01*
X157153653Y-96481160D01*
X156938859Y-96349533D01*
X156706110Y-96253126D01*
X156461151Y-96194317D01*
X156210000Y-96174551D01*
X155958848Y-96194317D01*
X155713889Y-96253126D01*
X155481140Y-96349533D01*
X155266346Y-96481160D01*
X155266343Y-96481161D01*
X155074776Y-96644776D01*
X155034290Y-96692179D01*
X154975783Y-96730372D01*
X154905915Y-96730870D01*
X154846869Y-96693516D01*
X154845710Y-96692179D01*
X154807445Y-96647377D01*
X154805224Y-96644776D01*
X154656790Y-96518001D01*
X154613656Y-96481161D01*
X154613653Y-96481160D01*
X154398859Y-96349533D01*
X154166110Y-96253126D01*
X153921151Y-96194317D01*
X153670000Y-96174551D01*
X153418848Y-96194317D01*
X153173889Y-96253126D01*
X152941140Y-96349533D01*
X152726346Y-96481160D01*
X152726343Y-96481161D01*
X152534776Y-96644776D01*
X152494290Y-96692179D01*
X152435783Y-96730372D01*
X152365915Y-96730870D01*
X152306869Y-96693516D01*
X152305710Y-96692179D01*
X152267445Y-96647377D01*
X152265224Y-96644776D01*
X152116790Y-96518001D01*
X152073656Y-96481161D01*
X152073653Y-96481160D01*
X151858859Y-96349533D01*
X151626110Y-96253126D01*
X151381151Y-96194317D01*
X151130000Y-96174551D01*
X150878848Y-96194317D01*
X150633889Y-96253126D01*
X150401140Y-96349533D01*
X150186346Y-96481160D01*
X150186343Y-96481161D01*
X149994776Y-96644776D01*
X149954290Y-96692179D01*
X149895783Y-96730372D01*
X149825915Y-96730870D01*
X149766869Y-96693516D01*
X149765710Y-96692179D01*
X149727445Y-96647377D01*
X149725224Y-96644776D01*
X149576790Y-96518001D01*
X149533656Y-96481161D01*
X149533653Y-96481160D01*
X149318859Y-96349533D01*
X149086110Y-96253126D01*
X148841151Y-96194317D01*
X148590000Y-96174551D01*
X148338848Y-96194317D01*
X148093889Y-96253126D01*
X147861140Y-96349533D01*
X147646346Y-96481160D01*
X147646343Y-96481161D01*
X147454776Y-96644776D01*
X147414290Y-96692179D01*
X147355783Y-96730372D01*
X147285915Y-96730870D01*
X147226869Y-96693516D01*
X147225710Y-96692179D01*
X147187445Y-96647377D01*
X147185224Y-96644776D01*
X146993967Y-96481427D01*
X146955775Y-96422921D01*
X146950500Y-96387138D01*
X146950500Y-94826061D01*
X146970185Y-94759022D01*
X146986819Y-94738380D01*
X148132062Y-93593137D01*
X149289463Y-92435736D01*
X149294043Y-92428882D01*
X149388013Y-92288247D01*
X149455894Y-92124366D01*
X149455894Y-92124361D01*
X149455896Y-92124358D01*
X149490499Y-91950395D01*
X149490500Y-91950393D01*
X149490500Y-91552862D01*
X149510185Y-91485823D01*
X149533968Y-91458572D01*
X149544811Y-91449311D01*
X149725224Y-91295224D01*
X149765710Y-91247819D01*
X149824216Y-91209627D01*
X149894084Y-91209128D01*
X149953130Y-91246482D01*
X149954235Y-91247756D01*
X149981931Y-91280184D01*
X149994776Y-91295224D01*
X150186343Y-91458838D01*
X150186346Y-91458839D01*
X150401140Y-91590466D01*
X150537298Y-91646864D01*
X150633889Y-91686873D01*
X150878852Y-91745683D01*
X151130000Y-91765449D01*
X151381148Y-91745683D01*
X151626111Y-91686873D01*
X151858859Y-91590466D01*
X152073659Y-91458836D01*
X152265224Y-91295224D01*
X152305710Y-91247819D01*
X152364216Y-91209627D01*
X152434084Y-91209128D01*
X152493130Y-91246482D01*
X152494235Y-91247756D01*
X152521931Y-91280184D01*
X152534776Y-91295224D01*
X152726343Y-91458838D01*
X152726346Y-91458839D01*
X152941140Y-91590466D01*
X153077298Y-91646864D01*
X153173889Y-91686873D01*
X153418852Y-91745683D01*
X153670000Y-91765449D01*
X153921148Y-91745683D01*
X154166111Y-91686873D01*
X154398859Y-91590466D01*
X154613659Y-91458836D01*
X154805224Y-91295224D01*
X154845710Y-91247819D01*
X154904216Y-91209627D01*
X154974084Y-91209128D01*
X155033130Y-91246482D01*
X155034235Y-91247756D01*
X155061931Y-91280184D01*
X155074776Y-91295224D01*
X155266032Y-91458572D01*
X155304225Y-91517079D01*
X155309500Y-91552862D01*
X155309500Y-91950396D01*
X155344103Y-92124358D01*
X155344105Y-92124366D01*
X155378046Y-92206306D01*
X155378046Y-92206307D01*
X155411984Y-92288242D01*
X155411985Y-92288244D01*
X155471063Y-92376660D01*
X155471064Y-92376661D01*
X155510534Y-92435734D01*
X155510535Y-92435735D01*
X155510536Y-92435736D01*
X163815236Y-100740435D01*
X163894834Y-100820033D01*
X163940666Y-100865865D01*
X164088146Y-100964409D01*
X164088159Y-100964416D01*
X164211063Y-101015323D01*
X164252034Y-101032294D01*
X164294635Y-101040768D01*
X164426005Y-101066900D01*
X164426008Y-101066900D01*
X164426009Y-101066900D01*
X165123737Y-101066900D01*
X165190776Y-101086585D01*
X165211418Y-101103219D01*
X167147308Y-103039108D01*
X167180793Y-103100431D01*
X167183279Y-103117511D01*
X167183777Y-103124149D01*
X167183778Y-103124158D01*
X167240489Y-103372628D01*
X167240490Y-103372630D01*
X167240492Y-103372637D01*
X167333497Y-103609609D01*
X167333608Y-103609890D01*
X167349469Y-103637362D01*
X167461041Y-103830612D01*
X167619950Y-104029877D01*
X167806783Y-104203232D01*
X168017366Y-104346805D01*
X168017371Y-104346807D01*
X168017372Y-104346808D01*
X168017373Y-104346809D01*
X168115687Y-104394154D01*
X168246992Y-104457387D01*
X168246993Y-104457387D01*
X168246996Y-104457389D01*
X168490542Y-104532513D01*
X168742565Y-104570500D01*
X168997435Y-104570500D01*
X169249458Y-104532513D01*
X169493004Y-104457389D01*
X169722634Y-104346805D01*
X169933217Y-104203232D01*
X170120050Y-104029877D01*
X170278959Y-103830612D01*
X170406393Y-103609888D01*
X170499508Y-103372637D01*
X170556222Y-103124157D01*
X170567016Y-102980121D01*
X170575268Y-102870004D01*
X170575268Y-102869995D01*
X170556222Y-102615845D01*
X170550747Y-102591858D01*
X170499508Y-102367363D01*
X170406393Y-102130112D01*
X170278959Y-101909388D01*
X170120050Y-101710123D01*
X169933217Y-101536768D01*
X169722634Y-101393195D01*
X169722630Y-101393193D01*
X169722627Y-101393191D01*
X169722626Y-101393190D01*
X169493006Y-101282612D01*
X169493008Y-101282612D01*
X169249466Y-101207489D01*
X169249462Y-101207488D01*
X169249458Y-101207487D01*
X169128231Y-101189214D01*
X168997440Y-101169500D01*
X168997435Y-101169500D01*
X168742565Y-101169500D01*
X168742559Y-101169500D01*
X168585609Y-101193157D01*
X168490542Y-101207487D01*
X168490539Y-101207488D01*
X168490533Y-101207489D01*
X168246992Y-101282612D01*
X168117578Y-101344935D01*
X168048637Y-101356287D01*
X167984503Y-101328565D01*
X167976096Y-101320896D01*
X167081530Y-100426330D01*
X167048045Y-100365007D01*
X167053029Y-100295315D01*
X167081530Y-100250968D01*
X167867380Y-99465119D01*
X167928703Y-99431634D01*
X167955061Y-99428800D01*
X173127438Y-99428800D01*
X173194477Y-99448485D01*
X173215119Y-99465119D01*
X177751166Y-104001166D01*
X177790723Y-104027595D01*
X177794137Y-104029877D01*
X177810236Y-104040633D01*
X177810239Y-104040636D01*
X177861243Y-104074716D01*
X177898653Y-104099713D01*
X177980593Y-104133653D01*
X177980594Y-104133653D01*
X177980595Y-104133654D01*
X177995916Y-104140000D01*
X178062534Y-104167595D01*
X178236503Y-104202199D01*
X178236507Y-104202200D01*
X178236508Y-104202200D01*
X192656993Y-104202200D01*
X192656994Y-104202199D01*
X192830966Y-104167595D01*
X192912906Y-104133653D01*
X192994847Y-104099713D01*
X192994849Y-104099711D01*
X192994852Y-104099710D01*
X193083255Y-104040639D01*
X193083255Y-104040638D01*
X193083259Y-104040636D01*
X193142336Y-104001164D01*
X193906681Y-103236819D01*
X193968004Y-103203334D01*
X193994362Y-103200500D01*
X195114957Y-103200500D01*
X195114958Y-103200499D01*
X195182104Y-103192934D01*
X195249249Y-103185369D01*
X195249252Y-103185368D01*
X195249255Y-103185368D01*
X195419522Y-103125789D01*
X195572262Y-103029816D01*
X195699816Y-102902262D01*
X195795789Y-102749522D01*
X195855368Y-102579255D01*
X195855776Y-102575639D01*
X195862934Y-102512104D01*
X195870500Y-102444954D01*
X195870500Y-100755046D01*
X195855368Y-100620745D01*
X195795789Y-100450478D01*
X195699816Y-100297738D01*
X195572262Y-100170184D01*
X195555496Y-100159649D01*
X195419523Y-100074211D01*
X195249254Y-100014631D01*
X195249249Y-100014630D01*
X195114960Y-99999500D01*
X195114954Y-99999500D01*
X193425046Y-99999500D01*
X193425039Y-99999500D01*
X193290750Y-100014630D01*
X193290745Y-100014631D01*
X193120476Y-100074211D01*
X192967739Y-100170183D01*
X192842678Y-100295244D01*
X192781355Y-100328728D01*
X192711663Y-100323744D01*
X192674408Y-100301803D01*
X192673911Y-100301378D01*
X192635754Y-100242848D01*
X192630500Y-100207137D01*
X192630500Y-99809606D01*
X192630499Y-99809604D01*
X192595896Y-99635641D01*
X192595893Y-99635633D01*
X192561953Y-99553693D01*
X192528016Y-99471759D01*
X192528009Y-99471746D01*
X192429464Y-99324265D01*
X192429461Y-99324261D01*
X192304038Y-99198838D01*
X192304034Y-99198835D01*
X192156553Y-99100290D01*
X192156540Y-99100283D01*
X191992668Y-99032406D01*
X191992663Y-99032405D01*
X191983916Y-99030665D01*
X191922005Y-98998278D01*
X191920429Y-98996729D01*
X190987319Y-98063619D01*
X190953834Y-98002296D01*
X190951000Y-97975938D01*
X190951000Y-95250000D01*
X193972668Y-95250000D01*
X193991963Y-95495179D01*
X193991963Y-95495182D01*
X193991964Y-95495185D01*
X194016828Y-95598750D01*
X194049380Y-95734336D01*
X194143494Y-95961550D01*
X194143496Y-95961553D01*
X194271998Y-96171249D01*
X194271999Y-96171252D01*
X194272002Y-96171255D01*
X194431729Y-96358271D01*
X194557614Y-96465787D01*
X194618747Y-96518000D01*
X194618749Y-96518000D01*
X194627123Y-96523132D01*
X194828446Y-96646503D01*
X194828449Y-96646505D01*
X195032127Y-96730870D01*
X195055668Y-96740621D01*
X195294815Y-96798036D01*
X195540000Y-96817332D01*
X195785185Y-96798036D01*
X196024332Y-96740621D01*
X196141282Y-96692179D01*
X196251550Y-96646505D01*
X196251551Y-96646504D01*
X196251554Y-96646503D01*
X196461255Y-96517998D01*
X196648271Y-96358271D01*
X196807998Y-96171255D01*
X196936503Y-95961554D01*
X197030621Y-95734332D01*
X197088036Y-95495185D01*
X197107332Y-95250000D01*
X197088036Y-95004815D01*
X197030621Y-94765668D01*
X197016886Y-94732509D01*
X196936505Y-94538449D01*
X196936503Y-94538446D01*
X196856796Y-94408376D01*
X196808000Y-94328749D01*
X196808000Y-94328747D01*
X196762611Y-94275604D01*
X196648271Y-94141729D01*
X196496685Y-94012262D01*
X196461252Y-93981999D01*
X196461249Y-93981998D01*
X196251553Y-93853496D01*
X196251550Y-93853494D01*
X196024336Y-93759380D01*
X196024332Y-93759379D01*
X195785185Y-93701964D01*
X195785182Y-93701963D01*
X195785179Y-93701963D01*
X195540000Y-93682668D01*
X195294820Y-93701963D01*
X195294816Y-93701963D01*
X195294815Y-93701964D01*
X195175241Y-93730671D01*
X195055663Y-93759380D01*
X194828449Y-93853494D01*
X194828446Y-93853496D01*
X194618750Y-93981998D01*
X194618747Y-93981999D01*
X194431729Y-94141729D01*
X194271999Y-94328747D01*
X194271998Y-94328750D01*
X194143496Y-94538446D01*
X194143494Y-94538449D01*
X194049380Y-94765663D01*
X194049379Y-94765668D01*
X193993088Y-95000136D01*
X193991963Y-95004820D01*
X193972668Y-95250000D01*
X190951000Y-95250000D01*
X190951000Y-95245561D01*
X190970685Y-95178522D01*
X190987319Y-95157880D01*
X191159460Y-94985739D01*
X191159463Y-94985736D01*
X191167751Y-94973332D01*
X191258013Y-94838247D01*
X191325894Y-94674366D01*
X191360500Y-94500391D01*
X191360500Y-94410908D01*
X191380185Y-94343869D01*
X191432989Y-94298114D01*
X191443536Y-94293869D01*
X191609522Y-94235789D01*
X191762262Y-94139816D01*
X191889816Y-94012262D01*
X191985789Y-93859522D01*
X192045368Y-93689255D01*
X192060500Y-93554954D01*
X192060500Y-91865046D01*
X192049278Y-91765448D01*
X192045369Y-91730750D01*
X192045368Y-91730745D01*
X192032562Y-91694148D01*
X191985789Y-91560478D01*
X191889816Y-91407738D01*
X191762262Y-91280184D01*
X191725161Y-91256872D01*
X191609521Y-91184210D01*
X191516845Y-91151781D01*
X191443544Y-91126132D01*
X191386770Y-91085412D01*
X191361022Y-91020460D01*
X191360500Y-91009092D01*
X191360500Y-88972888D01*
X191380185Y-88905849D01*
X191403969Y-88878598D01*
X191417593Y-88866962D01*
X191568271Y-88738271D01*
X191727998Y-88551255D01*
X191856503Y-88341554D01*
X191950621Y-88114332D01*
X192008036Y-87875185D01*
X192027332Y-87630000D01*
X192008036Y-87384815D01*
X191950621Y-87145668D01*
X191950619Y-87145663D01*
X191856505Y-86918449D01*
X191856503Y-86918446D01*
X191728001Y-86708750D01*
X191728000Y-86708747D01*
X191644556Y-86611047D01*
X191568271Y-86521729D01*
X191403967Y-86381400D01*
X191365775Y-86322894D01*
X191360500Y-86287111D01*
X191360500Y-85090000D01*
X193972668Y-85090000D01*
X193991963Y-85335179D01*
X193991963Y-85335182D01*
X193991964Y-85335185D01*
X193994118Y-85344157D01*
X194049380Y-85574336D01*
X194143494Y-85801550D01*
X194143496Y-85801553D01*
X194271998Y-86011249D01*
X194271999Y-86011252D01*
X194287375Y-86029255D01*
X194431729Y-86198271D01*
X194535747Y-86287111D01*
X194618747Y-86358000D01*
X194618749Y-86358000D01*
X194625274Y-86361999D01*
X194828446Y-86486503D01*
X194828449Y-86486505D01*
X195044000Y-86575788D01*
X195055668Y-86580621D01*
X195294815Y-86638036D01*
X195540000Y-86657332D01*
X195785185Y-86638036D01*
X196024332Y-86580621D01*
X196166511Y-86521729D01*
X196251550Y-86486505D01*
X196251551Y-86486504D01*
X196251554Y-86486503D01*
X196461255Y-86357998D01*
X196648271Y-86198271D01*
X196807998Y-86011255D01*
X196936503Y-85801554D01*
X197030621Y-85574332D01*
X197088036Y-85335185D01*
X197107332Y-85090000D01*
X197088036Y-84844815D01*
X197030621Y-84605668D01*
X197023039Y-84587363D01*
X196936505Y-84378449D01*
X196936503Y-84378446D01*
X196808001Y-84168750D01*
X196808000Y-84168747D01*
X196753588Y-84105039D01*
X196648271Y-83981729D01*
X196485076Y-83842347D01*
X196461252Y-83821999D01*
X196461249Y-83821998D01*
X196251553Y-83693496D01*
X196251550Y-83693494D01*
X196024336Y-83599380D01*
X196024332Y-83599379D01*
X195785185Y-83541964D01*
X195785182Y-83541963D01*
X195785179Y-83541963D01*
X195540000Y-83522668D01*
X195294820Y-83541963D01*
X195294816Y-83541963D01*
X195294815Y-83541964D01*
X195259694Y-83550396D01*
X195055663Y-83599380D01*
X194828449Y-83693494D01*
X194828446Y-83693496D01*
X194618750Y-83821998D01*
X194618747Y-83821999D01*
X194431729Y-83981729D01*
X194271999Y-84168747D01*
X194271998Y-84168750D01*
X194143496Y-84378446D01*
X194143494Y-84378449D01*
X194049380Y-84605663D01*
X193991963Y-84844820D01*
X193972668Y-85090000D01*
X191360500Y-85090000D01*
X191360500Y-82461308D01*
X191360499Y-82461307D01*
X191349571Y-82406364D01*
X191325895Y-82287334D01*
X191281931Y-82181197D01*
X191258013Y-82123453D01*
X191258012Y-82123451D01*
X191258011Y-82123449D01*
X191182973Y-82011148D01*
X191182973Y-82011147D01*
X191182971Y-82011146D01*
X191159464Y-81975964D01*
X191159463Y-81975962D01*
X191159461Y-81975960D01*
X190776315Y-81592815D01*
X190742830Y-81531492D01*
X190740378Y-81495416D01*
X190757332Y-81280000D01*
X190738036Y-81034815D01*
X190680621Y-80795668D01*
X190645497Y-80710870D01*
X190586505Y-80568449D01*
X190586503Y-80568446D01*
X190458001Y-80358750D01*
X190458000Y-80358747D01*
X190352393Y-80235098D01*
X190298271Y-80171729D01*
X190135672Y-80032856D01*
X190111252Y-80011999D01*
X190111249Y-80011998D01*
X189901553Y-79883496D01*
X189901550Y-79883494D01*
X189674336Y-79789380D01*
X189674332Y-79789379D01*
X189435185Y-79731964D01*
X189435182Y-79731963D01*
X189435179Y-79731963D01*
X189190000Y-79712668D01*
X188944820Y-79731963D01*
X188944816Y-79731963D01*
X188944815Y-79731964D01*
X188825241Y-79760671D01*
X188705663Y-79789380D01*
X188478449Y-79883494D01*
X188478446Y-79883496D01*
X188268750Y-80011998D01*
X188268747Y-80011999D01*
X188081729Y-80171729D01*
X187921999Y-80358747D01*
X187921998Y-80358750D01*
X187793496Y-80568446D01*
X187793494Y-80568449D01*
X187699380Y-80795663D01*
X187641963Y-81034820D01*
X187622668Y-81280000D01*
X187641963Y-81525179D01*
X187641963Y-81525182D01*
X187641964Y-81525185D01*
X187658201Y-81592815D01*
X187699380Y-81764336D01*
X187793494Y-81991550D01*
X187793496Y-81991553D01*
X187921998Y-82201249D01*
X187921999Y-82201252D01*
X187976125Y-82264625D01*
X188081729Y-82388271D01*
X188199502Y-82488859D01*
X188268747Y-82548000D01*
X188268750Y-82548001D01*
X188478446Y-82676503D01*
X188478449Y-82676505D01*
X188705663Y-82770619D01*
X188705668Y-82770621D01*
X188944815Y-82828036D01*
X189190000Y-82847332D01*
X189405410Y-82830379D01*
X189473782Y-82844742D01*
X189502815Y-82866315D01*
X189523181Y-82886681D01*
X189556666Y-82948004D01*
X189559500Y-82974362D01*
X189559500Y-86287111D01*
X189539815Y-86354150D01*
X189516032Y-86381400D01*
X189472914Y-86418227D01*
X189351729Y-86521729D01*
X189191999Y-86708747D01*
X189191998Y-86708750D01*
X189063496Y-86918446D01*
X189063494Y-86918449D01*
X188969380Y-87145663D01*
X188911963Y-87384820D01*
X188892668Y-87630000D01*
X188911963Y-87875179D01*
X188911963Y-87875182D01*
X188911964Y-87875185D01*
X188961986Y-88083538D01*
X188969380Y-88114336D01*
X189063494Y-88341550D01*
X189063496Y-88341553D01*
X189191998Y-88551249D01*
X189191999Y-88551252D01*
X189261927Y-88633127D01*
X189351729Y-88738271D01*
X189496106Y-88861581D01*
X189516031Y-88878598D01*
X189554225Y-88937104D01*
X189559500Y-88972888D01*
X189559500Y-91009092D01*
X189539815Y-91076131D01*
X189487011Y-91121886D01*
X189476463Y-91126130D01*
X189420093Y-91145854D01*
X189310478Y-91184210D01*
X189157737Y-91280184D01*
X189030184Y-91407737D01*
X188934211Y-91560476D01*
X188874631Y-91730745D01*
X188874630Y-91730750D01*
X188859500Y-91865039D01*
X188859500Y-93554960D01*
X188874630Y-93689249D01*
X188874631Y-93689254D01*
X188934211Y-93859523D01*
X189030184Y-94012262D01*
X189157739Y-94139817D01*
X189236415Y-94189253D01*
X189282705Y-94241588D01*
X189293353Y-94310641D01*
X189273545Y-94363135D01*
X189252490Y-94394646D01*
X189252487Y-94394652D01*
X189230059Y-94448799D01*
X189230059Y-94448800D01*
X189192925Y-94538449D01*
X189184605Y-94558534D01*
X189161565Y-94674366D01*
X189150000Y-94732505D01*
X189150000Y-98488996D01*
X189184603Y-98662958D01*
X189184605Y-98662966D01*
X189218546Y-98744906D01*
X189218546Y-98744907D01*
X189252484Y-98826842D01*
X189252485Y-98826843D01*
X189252487Y-98826847D01*
X189304854Y-98905218D01*
X189304854Y-98905219D01*
X189351037Y-98974338D01*
X189351040Y-98974341D01*
X190632980Y-100256280D01*
X190666465Y-100317603D01*
X190661481Y-100387295D01*
X190625832Y-100438250D01*
X190594783Y-100464768D01*
X190594776Y-100464776D01*
X190554290Y-100512179D01*
X190495783Y-100550372D01*
X190425915Y-100550870D01*
X190366869Y-100513516D01*
X190365710Y-100512179D01*
X190362705Y-100508661D01*
X190325224Y-100464776D01*
X190177548Y-100338649D01*
X190133656Y-100301161D01*
X190133653Y-100301160D01*
X189918859Y-100169533D01*
X189686110Y-100073126D01*
X189441151Y-100014317D01*
X189190000Y-99994551D01*
X188938848Y-100014317D01*
X188693889Y-100073126D01*
X188461140Y-100169533D01*
X188246346Y-100301160D01*
X188246343Y-100301161D01*
X188054776Y-100464776D01*
X188014290Y-100512179D01*
X187955783Y-100550372D01*
X187885915Y-100550870D01*
X187826869Y-100513516D01*
X187825710Y-100512179D01*
X187822705Y-100508661D01*
X187785224Y-100464776D01*
X187593967Y-100301427D01*
X187555775Y-100242921D01*
X187550500Y-100207138D01*
X187550500Y-99809607D01*
X187550499Y-99809603D01*
X187515896Y-99635641D01*
X187515895Y-99635634D01*
X187481953Y-99553693D01*
X187448013Y-99471753D01*
X187377139Y-99365683D01*
X187349464Y-99324264D01*
X187349462Y-99324261D01*
X181236819Y-93211618D01*
X181203334Y-93150295D01*
X181200500Y-93123937D01*
X181200500Y-88972888D01*
X181220185Y-88905849D01*
X181243969Y-88878598D01*
X181257593Y-88866962D01*
X181408271Y-88738271D01*
X181567998Y-88551255D01*
X181696503Y-88341554D01*
X181790621Y-88114332D01*
X181848036Y-87875185D01*
X181867332Y-87630000D01*
X181848036Y-87384815D01*
X181790621Y-87145668D01*
X181790619Y-87145663D01*
X181696505Y-86918449D01*
X181696503Y-86918446D01*
X181568001Y-86708750D01*
X181568000Y-86708747D01*
X181484556Y-86611047D01*
X181408271Y-86521729D01*
X181253102Y-86389202D01*
X181221252Y-86361999D01*
X181221249Y-86361998D01*
X181011553Y-86233496D01*
X181011550Y-86233494D01*
X180784336Y-86139380D01*
X180784332Y-86139379D01*
X180545185Y-86081964D01*
X180545182Y-86081963D01*
X180545179Y-86081963D01*
X180300000Y-86062668D01*
X180054820Y-86081963D01*
X180054816Y-86081963D01*
X180054815Y-86081964D01*
X179935241Y-86110671D01*
X179815663Y-86139380D01*
X179588449Y-86233494D01*
X179588446Y-86233496D01*
X179378750Y-86361998D01*
X179378747Y-86361999D01*
X179191729Y-86521729D01*
X179031999Y-86708747D01*
X179031998Y-86708750D01*
X178903496Y-86918446D01*
X178903494Y-86918449D01*
X178809380Y-87145663D01*
X178751963Y-87384820D01*
X178732668Y-87630000D01*
X178751963Y-87875179D01*
X178751963Y-87875182D01*
X178751964Y-87875185D01*
X178801986Y-88083538D01*
X178809380Y-88114336D01*
X178903494Y-88341550D01*
X178903496Y-88341553D01*
X179034547Y-88555409D01*
X179033207Y-88556229D01*
X179054366Y-88615520D01*
X179038545Y-88683575D01*
X178988442Y-88732272D01*
X178919965Y-88746152D01*
X178854854Y-88720806D01*
X178842888Y-88710287D01*
X177426819Y-87294218D01*
X177393334Y-87232895D01*
X177390500Y-87206537D01*
X177390500Y-82622888D01*
X177410185Y-82555849D01*
X177433969Y-82528598D01*
X177598271Y-82388271D01*
X177665711Y-82309308D01*
X177724216Y-82271116D01*
X177794084Y-82270617D01*
X177853131Y-82307971D01*
X177854208Y-82309214D01*
X177921728Y-82388270D01*
X177921729Y-82388271D01*
X178108747Y-82548000D01*
X178108750Y-82548001D01*
X178318446Y-82676503D01*
X178318449Y-82676505D01*
X178545663Y-82770619D01*
X178545668Y-82770621D01*
X178784815Y-82828036D01*
X179030000Y-82847332D01*
X179275185Y-82828036D01*
X179514332Y-82770621D01*
X179627943Y-82723562D01*
X179741550Y-82676505D01*
X179741551Y-82676504D01*
X179741554Y-82676503D01*
X179951255Y-82547998D01*
X180138271Y-82388271D01*
X180297998Y-82201255D01*
X180426503Y-81991554D01*
X180432962Y-81975962D01*
X180520619Y-81764336D01*
X180520621Y-81764332D01*
X180578036Y-81525185D01*
X180597332Y-81280000D01*
X180578036Y-81034815D01*
X180520621Y-80795668D01*
X180485497Y-80710870D01*
X180426505Y-80568449D01*
X180426503Y-80568446D01*
X180298001Y-80358750D01*
X180298000Y-80358747D01*
X180192393Y-80235098D01*
X180138271Y-80171729D01*
X179975672Y-80032856D01*
X179951252Y-80011999D01*
X179951249Y-80011998D01*
X179741553Y-79883496D01*
X179741550Y-79883494D01*
X179514336Y-79789380D01*
X179514332Y-79789379D01*
X179275185Y-79731964D01*
X179275182Y-79731963D01*
X179275179Y-79731963D01*
X179030000Y-79712668D01*
X178784820Y-79731963D01*
X178784816Y-79731963D01*
X178784815Y-79731964D01*
X178665241Y-79760671D01*
X178545663Y-79789380D01*
X178318449Y-79883494D01*
X178318446Y-79883496D01*
X178108750Y-80011998D01*
X178108747Y-80011999D01*
X177941842Y-80154551D01*
X177921729Y-80171729D01*
X177905051Y-80191257D01*
X177854290Y-80250690D01*
X177795783Y-80288883D01*
X177725915Y-80289381D01*
X177666869Y-80252027D01*
X177665710Y-80250690D01*
X177650709Y-80233126D01*
X177598271Y-80171729D01*
X177435672Y-80032856D01*
X177411252Y-80011999D01*
X177411249Y-80011998D01*
X177201553Y-79883496D01*
X177201550Y-79883494D01*
X176974336Y-79789380D01*
X176974332Y-79789379D01*
X176735185Y-79731964D01*
X176735182Y-79731963D01*
X176735179Y-79731963D01*
X176490000Y-79712668D01*
X176244820Y-79731963D01*
X176244816Y-79731963D01*
X176244815Y-79731964D01*
X176125241Y-79760671D01*
X176005663Y-79789380D01*
X175778449Y-79883494D01*
X175778446Y-79883496D01*
X175568750Y-80011998D01*
X175568747Y-80011999D01*
X175381729Y-80171729D01*
X175221999Y-80358747D01*
X175221998Y-80358750D01*
X175093496Y-80568446D01*
X175093494Y-80568449D01*
X174999380Y-80795663D01*
X174941963Y-81034820D01*
X174922668Y-81280000D01*
X174941963Y-81525179D01*
X174941963Y-81525182D01*
X174941964Y-81525185D01*
X174958201Y-81592815D01*
X174999380Y-81764336D01*
X175093494Y-81991550D01*
X175093496Y-81991553D01*
X175221998Y-82201249D01*
X175221999Y-82201252D01*
X175381731Y-82388273D01*
X175546031Y-82528598D01*
X175584225Y-82587104D01*
X175589500Y-82622888D01*
X175589500Y-87719596D01*
X175624103Y-87893558D01*
X175624105Y-87893566D01*
X175658046Y-87975506D01*
X175658046Y-87975507D01*
X175691984Y-88057442D01*
X175691987Y-88057448D01*
X175703582Y-88074800D01*
X175709421Y-88083538D01*
X175763254Y-88164106D01*
X175790537Y-88204938D01*
X175790538Y-88204939D01*
X177700981Y-90115381D01*
X177734466Y-90176704D01*
X177737300Y-90203062D01*
X177737300Y-94514796D01*
X177771903Y-94688758D01*
X177771905Y-94688766D01*
X177805846Y-94770706D01*
X177805846Y-94770707D01*
X177839784Y-94852642D01*
X177839786Y-94852645D01*
X177839787Y-94852647D01*
X177872098Y-94901003D01*
X177872101Y-94901007D01*
X177938337Y-95000138D01*
X177938338Y-95000139D01*
X181724320Y-98786119D01*
X181757805Y-98847442D01*
X181752821Y-98917134D01*
X181710949Y-98973067D01*
X181645485Y-98997484D01*
X181636639Y-98997800D01*
X180292661Y-98997800D01*
X180225622Y-98978115D01*
X180204980Y-98961481D01*
X179202490Y-97958991D01*
X178076313Y-96832813D01*
X178042830Y-96771493D01*
X178040378Y-96735416D01*
X178057332Y-96520000D01*
X178038036Y-96274815D01*
X177980621Y-96035668D01*
X177973039Y-96017363D01*
X177886505Y-95808449D01*
X177886503Y-95808446D01*
X177758001Y-95598750D01*
X177758000Y-95598747D01*
X177669544Y-95495179D01*
X177598271Y-95411729D01*
X177474625Y-95306125D01*
X177411252Y-95251999D01*
X177411249Y-95251998D01*
X177201553Y-95123496D01*
X177201550Y-95123494D01*
X176974336Y-95029380D01*
X176896854Y-95010778D01*
X176735185Y-94971964D01*
X176735182Y-94971963D01*
X176735179Y-94971963D01*
X176490000Y-94952668D01*
X176244820Y-94971963D01*
X176244816Y-94971963D01*
X176244815Y-94971964D01*
X176125241Y-95000671D01*
X176005663Y-95029380D01*
X175778449Y-95123494D01*
X175778446Y-95123496D01*
X175568750Y-95251998D01*
X175568747Y-95251999D01*
X175381729Y-95411729D01*
X175221999Y-95598747D01*
X175221998Y-95598750D01*
X175093496Y-95808446D01*
X175093494Y-95808449D01*
X174999380Y-96035665D01*
X174998094Y-96039623D01*
X174958655Y-96097298D01*
X174894296Y-96124494D01*
X174825450Y-96112578D01*
X174792483Y-96088983D01*
X170575215Y-91871715D01*
X170541730Y-91810392D01*
X170542004Y-91756443D01*
X170556222Y-91694157D01*
X170559767Y-91646862D01*
X170575268Y-91440004D01*
X170575268Y-91439995D01*
X170561081Y-91250686D01*
X170556222Y-91185843D01*
X170499508Y-90937363D01*
X170406393Y-90700112D01*
X170278959Y-90479388D01*
X170120050Y-90280123D01*
X169933217Y-90106768D01*
X169722634Y-89963195D01*
X169722630Y-89963193D01*
X169722627Y-89963191D01*
X169722626Y-89963190D01*
X169493006Y-89852612D01*
X169493008Y-89852612D01*
X169249466Y-89777489D01*
X169249462Y-89777488D01*
X169249458Y-89777487D01*
X169128231Y-89759214D01*
X168997440Y-89739500D01*
X168997435Y-89739500D01*
X168742565Y-89739500D01*
X168742559Y-89739500D01*
X168585609Y-89763157D01*
X168490542Y-89777487D01*
X168490539Y-89777488D01*
X168490533Y-89777489D01*
X168246992Y-89852612D01*
X168017373Y-89963190D01*
X168017372Y-89963191D01*
X167806782Y-90106768D01*
X167619952Y-90280121D01*
X167619950Y-90280123D01*
X167461041Y-90479388D01*
X167333608Y-90700109D01*
X167240492Y-90937362D01*
X167240490Y-90937369D01*
X167183777Y-91185845D01*
X167164732Y-91439995D01*
X167164732Y-91440004D01*
X167183777Y-91694154D01*
X167222781Y-91865043D01*
X167240492Y-91942637D01*
X167333607Y-92179888D01*
X167461041Y-92400612D01*
X167619950Y-92599877D01*
X167806783Y-92773232D01*
X168017366Y-92916805D01*
X168017371Y-92916807D01*
X168017372Y-92916808D01*
X168017373Y-92916809D01*
X168074825Y-92944476D01*
X168246992Y-93027387D01*
X168246993Y-93027387D01*
X168246996Y-93027389D01*
X168490542Y-93102513D01*
X168742565Y-93140500D01*
X168997435Y-93140500D01*
X169195863Y-93110591D01*
X169265087Y-93120064D01*
X169302025Y-93145525D01*
X173572619Y-97416119D01*
X173606104Y-97477442D01*
X173601120Y-97547134D01*
X173559248Y-97603067D01*
X173493784Y-97627484D01*
X173484938Y-97627800D01*
X167442003Y-97627800D01*
X167268041Y-97662403D01*
X167268033Y-97662405D01*
X167198254Y-97691309D01*
X167104155Y-97730285D01*
X167104146Y-97730290D01*
X166956666Y-97828834D01*
X166956664Y-97828837D01*
X165555919Y-99229581D01*
X165494596Y-99263066D01*
X165468238Y-99265900D01*
X164939061Y-99265900D01*
X164872022Y-99246215D01*
X164851380Y-99229581D01*
X157209127Y-91587327D01*
X157175642Y-91526004D01*
X157180626Y-91456312D01*
X157216276Y-91405356D01*
X157241179Y-91384087D01*
X157345224Y-91295224D01*
X157385710Y-91247819D01*
X157444216Y-91209627D01*
X157514084Y-91209128D01*
X157573130Y-91246482D01*
X157574235Y-91247756D01*
X157601931Y-91280184D01*
X157614776Y-91295224D01*
X157806343Y-91458838D01*
X157806346Y-91458839D01*
X158021140Y-91590466D01*
X158157298Y-91646864D01*
X158253889Y-91686873D01*
X158498852Y-91745683D01*
X158750000Y-91765449D01*
X159001148Y-91745683D01*
X159246111Y-91686873D01*
X159478859Y-91590466D01*
X159693659Y-91458836D01*
X159885224Y-91295224D01*
X160048836Y-91103659D01*
X160180466Y-90888859D01*
X160276873Y-90656111D01*
X160335683Y-90411148D01*
X160355449Y-90160000D01*
X160335683Y-89908852D01*
X160276873Y-89663889D01*
X160180466Y-89431141D01*
X160180466Y-89431140D01*
X160048839Y-89216346D01*
X160048838Y-89216343D01*
X160002190Y-89161726D01*
X159885224Y-89024776D01*
X159693967Y-88861427D01*
X159655775Y-88802921D01*
X159650500Y-88767138D01*
X159650500Y-88369606D01*
X159650499Y-88369604D01*
X159615896Y-88195641D01*
X159615893Y-88195632D01*
X159548016Y-88031759D01*
X159548009Y-88031746D01*
X159449464Y-87884265D01*
X159449461Y-87884261D01*
X159324038Y-87758838D01*
X159324034Y-87758835D01*
X159176553Y-87660290D01*
X159176540Y-87660283D01*
X159012474Y-87592326D01*
X158972245Y-87565446D01*
X154594127Y-83187327D01*
X154560642Y-83126004D01*
X154565626Y-83056312D01*
X154601276Y-83005356D01*
X154637565Y-82974362D01*
X154730224Y-82895224D01*
X154893836Y-82703659D01*
X155025466Y-82488859D01*
X155121873Y-82256111D01*
X155180683Y-82011148D01*
X155200449Y-81760000D01*
X155180683Y-81508852D01*
X155121873Y-81263889D01*
X155025466Y-81031141D01*
X155025466Y-81031140D01*
X154893839Y-80816346D01*
X154893838Y-80816343D01*
X154803755Y-80710870D01*
X154730224Y-80624776D01*
X154601275Y-80514643D01*
X154538656Y-80461161D01*
X154538653Y-80461160D01*
X154323859Y-80329533D01*
X154091110Y-80233126D01*
X153846151Y-80174317D01*
X153595000Y-80154551D01*
X153343848Y-80174317D01*
X153098889Y-80233126D01*
X152866140Y-80329533D01*
X152651346Y-80461160D01*
X152651343Y-80461161D01*
X152459776Y-80624776D01*
X152419290Y-80672179D01*
X152360783Y-80710372D01*
X152290915Y-80710870D01*
X152231869Y-80673516D01*
X152230710Y-80672179D01*
X152190224Y-80624776D01*
X152061275Y-80514643D01*
X152023082Y-80456136D01*
X152022584Y-80386268D01*
X152054124Y-80332674D01*
X154294463Y-78092336D01*
X154323358Y-78049092D01*
X154393013Y-77944847D01*
X154460894Y-77780966D01*
X154495500Y-77606991D01*
X154495500Y-75532862D01*
X154515185Y-75465823D01*
X154538968Y-75438572D01*
X154730224Y-75275224D01*
X154770710Y-75227819D01*
X154829216Y-75189627D01*
X154899084Y-75189128D01*
X154958130Y-75226482D01*
X154959235Y-75227756D01*
X154999775Y-75275223D01*
X154999776Y-75275224D01*
X155191343Y-75438838D01*
X155191346Y-75438839D01*
X155406140Y-75570466D01*
X155634128Y-75664901D01*
X155638889Y-75666873D01*
X155883852Y-75725683D01*
X156135000Y-75745449D01*
X156386148Y-75725683D01*
X156631111Y-75666873D01*
X156863859Y-75570466D01*
X157078659Y-75438836D01*
X157270224Y-75275224D01*
X157433836Y-75083659D01*
X157565466Y-74868859D01*
X157661873Y-74636111D01*
X157720683Y-74391148D01*
X157740449Y-74140000D01*
X157720683Y-73888852D01*
X157661873Y-73643889D01*
X157565466Y-73411141D01*
X157565466Y-73411140D01*
X157433839Y-73196346D01*
X157433838Y-73196343D01*
X157343755Y-73090870D01*
X157270224Y-73004776D01*
X157143571Y-72896604D01*
X157078656Y-72841161D01*
X157078653Y-72841160D01*
X156863859Y-72709533D01*
X156631110Y-72613126D01*
X156386151Y-72554317D01*
X156135000Y-72534551D01*
X155883848Y-72554317D01*
X155638889Y-72613126D01*
X155406140Y-72709533D01*
X155191346Y-72841160D01*
X155191343Y-72841161D01*
X154999776Y-73004776D01*
X154959290Y-73052179D01*
X154900783Y-73090372D01*
X154830915Y-73090870D01*
X154771869Y-73053516D01*
X154770710Y-73052179D01*
X154730224Y-73004776D01*
X154603571Y-72896604D01*
X154538656Y-72841161D01*
X154538653Y-72841160D01*
X154323859Y-72709533D01*
X154091110Y-72613126D01*
X153846151Y-72554317D01*
X153595000Y-72534551D01*
X153343848Y-72554317D01*
X153098889Y-72613126D01*
X152866140Y-72709533D01*
X152651346Y-72841160D01*
X152651343Y-72841161D01*
X152459776Y-73004776D01*
X152419290Y-73052179D01*
X152360783Y-73090372D01*
X152290915Y-73090870D01*
X152231869Y-73053516D01*
X152230710Y-73052179D01*
X152190224Y-73004776D01*
X152063571Y-72896604D01*
X151998656Y-72841161D01*
X151998653Y-72841160D01*
X151783859Y-72709533D01*
X151551110Y-72613126D01*
X151306151Y-72554317D01*
X151055000Y-72534551D01*
X150803848Y-72554317D01*
X150558889Y-72613126D01*
X150326140Y-72709533D01*
X150111346Y-72841160D01*
X150111343Y-72841161D01*
X149919776Y-73004776D01*
X149879290Y-73052179D01*
X149820783Y-73090372D01*
X149750915Y-73090870D01*
X149691869Y-73053516D01*
X149690710Y-73052179D01*
X149650224Y-73004776D01*
X149523571Y-72896604D01*
X149458656Y-72841161D01*
X149458653Y-72841160D01*
X149243859Y-72709533D01*
X149011110Y-72613126D01*
X148766151Y-72554317D01*
X148515000Y-72534551D01*
X148263848Y-72554317D01*
X148018889Y-72613126D01*
X147786140Y-72709533D01*
X147571346Y-72841160D01*
X147571343Y-72841161D01*
X147379776Y-73004776D01*
X147339290Y-73052179D01*
X147280783Y-73090372D01*
X147210915Y-73090870D01*
X147151869Y-73053516D01*
X147150710Y-73052179D01*
X147110224Y-73004776D01*
X146983571Y-72896604D01*
X146918656Y-72841161D01*
X146918653Y-72841160D01*
X146703859Y-72709533D01*
X146471110Y-72613126D01*
X146226151Y-72554317D01*
X145975000Y-72534551D01*
X145723848Y-72554317D01*
X145478889Y-72613126D01*
X145246140Y-72709533D01*
X145031346Y-72841160D01*
X145031343Y-72841161D01*
X144839776Y-73004776D01*
X144799290Y-73052179D01*
X144740783Y-73090372D01*
X144670915Y-73090870D01*
X144611869Y-73053516D01*
X144610710Y-73052179D01*
X144570224Y-73004776D01*
X144443571Y-72896604D01*
X144378656Y-72841161D01*
X144378653Y-72841160D01*
X144163859Y-72709533D01*
X143931110Y-72613126D01*
X143686151Y-72554317D01*
X143435000Y-72534551D01*
X143183848Y-72554317D01*
X142938889Y-72613126D01*
X142706140Y-72709533D01*
X142491346Y-72841160D01*
X142491343Y-72841161D01*
X142299776Y-73004776D01*
X142136161Y-73196343D01*
X142136160Y-73196346D01*
X142004533Y-73411140D01*
X141908126Y-73643889D01*
X141849317Y-73888848D01*
X141829551Y-74140000D01*
X141849317Y-74391151D01*
X141908126Y-74636110D01*
X142004533Y-74868859D01*
X142136160Y-75083653D01*
X142136161Y-75083656D01*
X142136164Y-75083659D01*
X142299776Y-75275224D01*
X142448066Y-75401875D01*
X142491343Y-75438838D01*
X142491346Y-75438839D01*
X142706140Y-75570466D01*
X142934128Y-75664901D01*
X142938889Y-75666873D01*
X143183852Y-75725683D01*
X143435000Y-75745449D01*
X143686148Y-75725683D01*
X143931111Y-75666873D01*
X144163859Y-75570466D01*
X144378659Y-75438836D01*
X144570224Y-75275224D01*
X144610710Y-75227819D01*
X144669216Y-75189627D01*
X144739084Y-75189128D01*
X144798130Y-75226482D01*
X144799235Y-75227756D01*
X144839775Y-75275223D01*
X144839776Y-75275224D01*
X145031343Y-75438838D01*
X145031346Y-75438839D01*
X145246140Y-75570466D01*
X145474127Y-75664901D01*
X145528530Y-75708742D01*
X145550595Y-75775036D01*
X145533316Y-75842735D01*
X145514355Y-75867143D01*
X144357919Y-77023581D01*
X144296596Y-77057066D01*
X144270238Y-77059900D01*
X142782003Y-77059900D01*
X142608041Y-77094503D01*
X142608029Y-77094506D01*
X142526092Y-77128445D01*
X142526093Y-77128446D01*
X142444155Y-77162385D01*
X142355740Y-77221463D01*
X142355739Y-77221464D01*
X142296661Y-77260937D01*
X140032137Y-79525461D01*
X139992664Y-79584539D01*
X139992663Y-79584540D01*
X139933590Y-79672947D01*
X139933583Y-79672959D01*
X139909144Y-79731963D01*
X139909144Y-79731964D01*
X139885362Y-79789379D01*
X139865705Y-79836834D01*
X139845112Y-79940364D01*
X139831100Y-80010805D01*
X139831100Y-83504496D01*
X139865703Y-83678458D01*
X139865705Y-83678466D01*
X139898139Y-83756768D01*
X139933585Y-83842344D01*
X139933590Y-83842353D01*
X139992237Y-83930123D01*
X139992237Y-83930124D01*
X140032132Y-83989831D01*
X140032138Y-83989839D01*
X140953016Y-84910717D01*
X140986501Y-84972040D01*
X140981517Y-85041732D01*
X140939645Y-85097665D01*
X140874181Y-85122082D01*
X140842553Y-85120287D01*
X140794476Y-85111300D01*
X140590524Y-85111300D01*
X140390044Y-85148776D01*
X140390041Y-85148776D01*
X140390041Y-85148777D01*
X140199864Y-85222451D01*
X140199857Y-85222455D01*
X140026460Y-85329817D01*
X140026458Y-85329819D01*
X139875737Y-85467218D01*
X139752827Y-85629978D01*
X139661922Y-85812539D01*
X139661917Y-85812552D01*
X139606102Y-86008717D01*
X139587285Y-86211799D01*
X139587285Y-86211800D01*
X139606102Y-86414882D01*
X139661917Y-86611047D01*
X139661922Y-86611060D01*
X139752827Y-86793621D01*
X139766954Y-86812328D01*
X139791646Y-86877689D01*
X139792000Y-86887055D01*
X139792000Y-89302737D01*
X139772315Y-89369776D01*
X139755681Y-89390418D01*
X134197533Y-94948565D01*
X134136210Y-94982050D01*
X134066518Y-94977066D01*
X134056051Y-94972604D01*
X133973006Y-94932612D01*
X133973008Y-94932612D01*
X133729466Y-94857489D01*
X133729462Y-94857488D01*
X133729458Y-94857487D01*
X133601765Y-94838240D01*
X133477440Y-94819500D01*
X133477435Y-94819500D01*
X133222565Y-94819500D01*
X133222559Y-94819500D01*
X133065609Y-94843157D01*
X132970542Y-94857487D01*
X132970539Y-94857488D01*
X132970533Y-94857489D01*
X132726992Y-94932612D01*
X132497373Y-95043190D01*
X132497372Y-95043191D01*
X132286782Y-95186768D01*
X132099952Y-95360121D01*
X132099950Y-95360123D01*
X131941041Y-95559388D01*
X131813608Y-95780109D01*
X131720492Y-96017362D01*
X131720490Y-96017369D01*
X131663777Y-96265845D01*
X131644732Y-96519995D01*
X127742006Y-96519995D01*
X127706617Y-96465787D01*
X127706116Y-96395919D01*
X127743468Y-96336872D01*
X127744702Y-96335802D01*
X127750689Y-96330689D01*
X127919412Y-96133140D01*
X128055154Y-95911628D01*
X128154573Y-95671610D01*
X128215221Y-95418994D01*
X128235604Y-95160000D01*
X128215221Y-94901006D01*
X128154573Y-94648390D01*
X128071900Y-94448800D01*
X128055156Y-94408376D01*
X128046742Y-94394646D01*
X127919412Y-94186860D01*
X127750689Y-93989311D01*
X127744809Y-93984289D01*
X127706617Y-93925787D01*
X127706116Y-93855919D01*
X127743468Y-93796872D01*
X127744702Y-93795802D01*
X127750689Y-93790689D01*
X127919412Y-93593140D01*
X128055154Y-93371628D01*
X128154573Y-93131610D01*
X128215221Y-92878994D01*
X128235604Y-92620000D01*
X128215221Y-92361006D01*
X128154573Y-92108390D01*
X128089128Y-91950392D01*
X128055156Y-91868376D01*
X128053115Y-91865046D01*
X127919412Y-91646860D01*
X127750689Y-91449311D01*
X127744809Y-91444289D01*
X127706617Y-91385787D01*
X127706116Y-91315919D01*
X127743468Y-91256872D01*
X127744702Y-91255802D01*
X127750689Y-91250689D01*
X127919412Y-91053140D01*
X128055154Y-90831628D01*
X128154573Y-90591610D01*
X128215221Y-90338994D01*
X128235604Y-90080000D01*
X128215221Y-89821006D01*
X128154573Y-89568390D01*
X128055154Y-89328372D01*
X127919412Y-89106860D01*
X127750689Y-88909311D01*
X127553140Y-88740588D01*
X127331628Y-88604846D01*
X127331627Y-88604845D01*
X127331623Y-88604843D01*
X127165627Y-88536086D01*
X127091610Y-88505427D01*
X127091611Y-88505427D01*
X126953921Y-88472370D01*
X126838994Y-88444779D01*
X126838992Y-88444778D01*
X126838991Y-88444778D01*
X126580000Y-88424396D01*
X126321009Y-88444778D01*
X126068389Y-88505427D01*
X125828376Y-88604843D01*
X125606859Y-88740588D01*
X125409311Y-88909311D01*
X125240585Y-89106862D01*
X125240584Y-89106864D01*
X125190227Y-89189041D01*
X125138416Y-89235916D01*
X125069486Y-89247339D01*
X125005323Y-89219682D01*
X124966298Y-89161726D01*
X124960500Y-89124251D01*
X124960500Y-86511940D01*
X124980185Y-86444901D01*
X125032989Y-86399146D01*
X125102147Y-86389202D01*
X125165703Y-86418227D01*
X125172181Y-86424259D01*
X125227738Y-86479816D01*
X125380478Y-86575789D01*
X125481240Y-86611047D01*
X125550745Y-86635368D01*
X125550750Y-86635369D01*
X125641246Y-86645565D01*
X125685040Y-86650499D01*
X125685043Y-86650500D01*
X125685046Y-86650500D01*
X127474957Y-86650500D01*
X127474958Y-86650499D01*
X127542104Y-86642934D01*
X127609249Y-86635369D01*
X127609252Y-86635368D01*
X127609255Y-86635368D01*
X127779522Y-86575789D01*
X127932262Y-86479816D01*
X128059816Y-86352262D01*
X128155789Y-86199522D01*
X128215368Y-86029255D01*
X128217397Y-86011252D01*
X128230499Y-85894960D01*
X128230500Y-85894956D01*
X128230500Y-85089995D01*
X131374732Y-85089995D01*
X131374732Y-85090004D01*
X131393777Y-85344154D01*
X131421866Y-85467221D01*
X131450492Y-85592637D01*
X131543607Y-85829888D01*
X131671041Y-86050612D01*
X131829950Y-86249877D01*
X132016783Y-86423232D01*
X132227366Y-86566805D01*
X132227371Y-86566807D01*
X132227372Y-86566808D01*
X132227373Y-86566809D01*
X132319262Y-86611060D01*
X132456992Y-86677387D01*
X132456993Y-86677387D01*
X132456996Y-86677389D01*
X132700542Y-86752513D01*
X132952565Y-86790500D01*
X133207435Y-86790500D01*
X133459458Y-86752513D01*
X133703004Y-86677389D01*
X133932634Y-86566805D01*
X134143217Y-86423232D01*
X134330050Y-86249877D01*
X134488959Y-86050612D01*
X134616393Y-85829888D01*
X134709508Y-85592637D01*
X134766222Y-85344157D01*
X134777590Y-85192458D01*
X134785268Y-85090004D01*
X134785268Y-85089995D01*
X134766222Y-84835845D01*
X134713684Y-84605663D01*
X134709508Y-84587363D01*
X134616393Y-84350112D01*
X134488959Y-84129388D01*
X134330050Y-83930123D01*
X134143217Y-83756768D01*
X133932634Y-83613195D01*
X133932630Y-83613193D01*
X133932627Y-83613191D01*
X133932626Y-83613190D01*
X133703006Y-83502612D01*
X133703008Y-83502612D01*
X133459466Y-83427489D01*
X133459462Y-83427488D01*
X133459458Y-83427487D01*
X133338231Y-83409214D01*
X133207440Y-83389500D01*
X133207435Y-83389500D01*
X132952565Y-83389500D01*
X132952559Y-83389500D01*
X132795609Y-83413157D01*
X132700542Y-83427487D01*
X132700539Y-83427488D01*
X132700533Y-83427489D01*
X132456992Y-83502612D01*
X132227373Y-83613190D01*
X132227372Y-83613191D01*
X132016782Y-83756768D01*
X131829952Y-83930121D01*
X131829950Y-83930123D01*
X131671041Y-84129388D01*
X131543608Y-84350109D01*
X131450492Y-84587362D01*
X131450490Y-84587369D01*
X131393777Y-84835845D01*
X131374732Y-85089995D01*
X128230500Y-85089995D01*
X128230500Y-84105043D01*
X128230499Y-84105039D01*
X128215369Y-83970750D01*
X128215368Y-83970744D01*
X128170442Y-83842353D01*
X128155789Y-83800478D01*
X128152209Y-83794781D01*
X128088566Y-83693494D01*
X128059816Y-83647738D01*
X127932262Y-83520184D01*
X127907295Y-83504496D01*
X127779523Y-83424211D01*
X127609254Y-83364631D01*
X127609249Y-83364630D01*
X127474960Y-83349500D01*
X127474954Y-83349500D01*
X125685046Y-83349500D01*
X125685039Y-83349500D01*
X125550750Y-83364630D01*
X125550745Y-83364631D01*
X125380476Y-83424211D01*
X125227737Y-83520184D01*
X125172181Y-83575741D01*
X125110858Y-83609226D01*
X125041166Y-83604242D01*
X124985233Y-83562370D01*
X124960816Y-83496906D01*
X124960500Y-83488060D01*
X124960500Y-72379500D01*
X124980185Y-72312461D01*
X125032989Y-72266706D01*
X125084500Y-72255500D01*
X197495500Y-72255500D01*
X197562539Y-72275185D01*
G37*
%TD.AperFunction*%
%TD*%
M02*
