%TF.GenerationSoftware,KiCad,Pcbnew,8.0.2-1*%
%TF.CreationDate,2024-08-04T09:10:22-04:00*%
%TF.ProjectId,startup_controller,73746172-7475-4705-9f63-6f6e74726f6c,rev?*%
%TF.SameCoordinates,Original*%
%TF.FileFunction,Legend,Top*%
%TF.FilePolarity,Positive*%
%FSLAX46Y46*%
G04 Gerber Fmt 4.6, Leading zero omitted, Abs format (unit mm)*
G04 Created by KiCad (PCBNEW 8.0.2-1) date 2024-08-04 09:10:22*
%MOMM*%
%LPD*%
G01*
G04 APERTURE LIST*
%ADD10C,0.150000*%
%ADD11C,0.100000*%
%ADD12C,0.120000*%
G04 APERTURE END LIST*
D10*
X140629819Y-109971904D02*
X141439342Y-109971904D01*
X141439342Y-109971904D02*
X141534580Y-109924285D01*
X141534580Y-109924285D02*
X141582200Y-109876666D01*
X141582200Y-109876666D02*
X141629819Y-109781428D01*
X141629819Y-109781428D02*
X141629819Y-109590952D01*
X141629819Y-109590952D02*
X141582200Y-109495714D01*
X141582200Y-109495714D02*
X141534580Y-109448095D01*
X141534580Y-109448095D02*
X141439342Y-109400476D01*
X141439342Y-109400476D02*
X140629819Y-109400476D01*
X140629819Y-109019523D02*
X140629819Y-108400476D01*
X140629819Y-108400476D02*
X141010771Y-108733809D01*
X141010771Y-108733809D02*
X141010771Y-108590952D01*
X141010771Y-108590952D02*
X141058390Y-108495714D01*
X141058390Y-108495714D02*
X141106009Y-108448095D01*
X141106009Y-108448095D02*
X141201247Y-108400476D01*
X141201247Y-108400476D02*
X141439342Y-108400476D01*
X141439342Y-108400476D02*
X141534580Y-108448095D01*
X141534580Y-108448095D02*
X141582200Y-108495714D01*
X141582200Y-108495714D02*
X141629819Y-108590952D01*
X141629819Y-108590952D02*
X141629819Y-108876666D01*
X141629819Y-108876666D02*
X141582200Y-108971904D01*
X141582200Y-108971904D02*
X141534580Y-109019523D01*
D11*
X184152580Y-81113333D02*
X184628771Y-80780000D01*
X184152580Y-80541905D02*
X185152580Y-80541905D01*
X185152580Y-80541905D02*
X185152580Y-80922857D01*
X185152580Y-80922857D02*
X185104961Y-81018095D01*
X185104961Y-81018095D02*
X185057342Y-81065714D01*
X185057342Y-81065714D02*
X184962104Y-81113333D01*
X184962104Y-81113333D02*
X184819247Y-81113333D01*
X184819247Y-81113333D02*
X184724009Y-81065714D01*
X184724009Y-81065714D02*
X184676390Y-81018095D01*
X184676390Y-81018095D02*
X184628771Y-80922857D01*
X184628771Y-80922857D02*
X184628771Y-80541905D01*
X185152580Y-81446667D02*
X185152580Y-82065714D01*
X185152580Y-82065714D02*
X184771628Y-81732381D01*
X184771628Y-81732381D02*
X184771628Y-81875238D01*
X184771628Y-81875238D02*
X184724009Y-81970476D01*
X184724009Y-81970476D02*
X184676390Y-82018095D01*
X184676390Y-82018095D02*
X184581152Y-82065714D01*
X184581152Y-82065714D02*
X184343057Y-82065714D01*
X184343057Y-82065714D02*
X184247819Y-82018095D01*
X184247819Y-82018095D02*
X184200200Y-81970476D01*
X184200200Y-81970476D02*
X184152580Y-81875238D01*
X184152580Y-81875238D02*
X184152580Y-81589524D01*
X184152580Y-81589524D02*
X184200200Y-81494286D01*
X184200200Y-81494286D02*
X184247819Y-81446667D01*
D10*
X137264819Y-95988094D02*
X136264819Y-95988094D01*
X136264819Y-95988094D02*
X136264819Y-95749999D01*
X136264819Y-95749999D02*
X136312438Y-95607142D01*
X136312438Y-95607142D02*
X136407676Y-95511904D01*
X136407676Y-95511904D02*
X136502914Y-95464285D01*
X136502914Y-95464285D02*
X136693390Y-95416666D01*
X136693390Y-95416666D02*
X136836247Y-95416666D01*
X136836247Y-95416666D02*
X137026723Y-95464285D01*
X137026723Y-95464285D02*
X137121961Y-95511904D01*
X137121961Y-95511904D02*
X137217200Y-95607142D01*
X137217200Y-95607142D02*
X137264819Y-95749999D01*
X137264819Y-95749999D02*
X137264819Y-95988094D01*
X136598152Y-94559523D02*
X137264819Y-94559523D01*
X136217200Y-94797618D02*
X136931485Y-95035713D01*
X136931485Y-95035713D02*
X136931485Y-94416666D01*
X196054819Y-106171904D02*
X196864342Y-106171904D01*
X196864342Y-106171904D02*
X196959580Y-106124285D01*
X196959580Y-106124285D02*
X197007200Y-106076666D01*
X197007200Y-106076666D02*
X197054819Y-105981428D01*
X197054819Y-105981428D02*
X197054819Y-105790952D01*
X197054819Y-105790952D02*
X197007200Y-105695714D01*
X197007200Y-105695714D02*
X196959580Y-105648095D01*
X196959580Y-105648095D02*
X196864342Y-105600476D01*
X196864342Y-105600476D02*
X196054819Y-105600476D01*
X196054819Y-104648095D02*
X196054819Y-105124285D01*
X196054819Y-105124285D02*
X196531009Y-105171904D01*
X196531009Y-105171904D02*
X196483390Y-105124285D01*
X196483390Y-105124285D02*
X196435771Y-105029047D01*
X196435771Y-105029047D02*
X196435771Y-104790952D01*
X196435771Y-104790952D02*
X196483390Y-104695714D01*
X196483390Y-104695714D02*
X196531009Y-104648095D01*
X196531009Y-104648095D02*
X196626247Y-104600476D01*
X196626247Y-104600476D02*
X196864342Y-104600476D01*
X196864342Y-104600476D02*
X196959580Y-104648095D01*
X196959580Y-104648095D02*
X197007200Y-104695714D01*
X197007200Y-104695714D02*
X197054819Y-104790952D01*
X197054819Y-104790952D02*
X197054819Y-105029047D01*
X197054819Y-105029047D02*
X197007200Y-105124285D01*
X197007200Y-105124285D02*
X196959580Y-105171904D01*
X125818095Y-82124819D02*
X125818095Y-82934342D01*
X125818095Y-82934342D02*
X125865714Y-83029580D01*
X125865714Y-83029580D02*
X125913333Y-83077200D01*
X125913333Y-83077200D02*
X126008571Y-83124819D01*
X126008571Y-83124819D02*
X126199047Y-83124819D01*
X126199047Y-83124819D02*
X126294285Y-83077200D01*
X126294285Y-83077200D02*
X126341904Y-83029580D01*
X126341904Y-83029580D02*
X126389523Y-82934342D01*
X126389523Y-82934342D02*
X126389523Y-82124819D01*
X127389523Y-83124819D02*
X126818095Y-83124819D01*
X127103809Y-83124819D02*
X127103809Y-82124819D01*
X127103809Y-82124819D02*
X127008571Y-82267676D01*
X127008571Y-82267676D02*
X126913333Y-82362914D01*
X126913333Y-82362914D02*
X126818095Y-82410533D01*
X189043333Y-96819580D02*
X188995714Y-96867200D01*
X188995714Y-96867200D02*
X188852857Y-96914819D01*
X188852857Y-96914819D02*
X188757619Y-96914819D01*
X188757619Y-96914819D02*
X188614762Y-96867200D01*
X188614762Y-96867200D02*
X188519524Y-96771961D01*
X188519524Y-96771961D02*
X188471905Y-96676723D01*
X188471905Y-96676723D02*
X188424286Y-96486247D01*
X188424286Y-96486247D02*
X188424286Y-96343390D01*
X188424286Y-96343390D02*
X188471905Y-96152914D01*
X188471905Y-96152914D02*
X188519524Y-96057676D01*
X188519524Y-96057676D02*
X188614762Y-95962438D01*
X188614762Y-95962438D02*
X188757619Y-95914819D01*
X188757619Y-95914819D02*
X188852857Y-95914819D01*
X188852857Y-95914819D02*
X188995714Y-95962438D01*
X188995714Y-95962438D02*
X189043333Y-96010057D01*
X189995714Y-96914819D02*
X189424286Y-96914819D01*
X189710000Y-96914819D02*
X189710000Y-95914819D01*
X189710000Y-95914819D02*
X189614762Y-96057676D01*
X189614762Y-96057676D02*
X189519524Y-96152914D01*
X189519524Y-96152914D02*
X189424286Y-96200533D01*
D11*
X195373333Y-90127419D02*
X195040000Y-89651228D01*
X194801905Y-90127419D02*
X194801905Y-89127419D01*
X194801905Y-89127419D02*
X195182857Y-89127419D01*
X195182857Y-89127419D02*
X195278095Y-89175038D01*
X195278095Y-89175038D02*
X195325714Y-89222657D01*
X195325714Y-89222657D02*
X195373333Y-89317895D01*
X195373333Y-89317895D02*
X195373333Y-89460752D01*
X195373333Y-89460752D02*
X195325714Y-89555990D01*
X195325714Y-89555990D02*
X195278095Y-89603609D01*
X195278095Y-89603609D02*
X195182857Y-89651228D01*
X195182857Y-89651228D02*
X194801905Y-89651228D01*
X196230476Y-89460752D02*
X196230476Y-90127419D01*
X195992381Y-89079800D02*
X195754286Y-89794085D01*
X195754286Y-89794085D02*
X196373333Y-89794085D01*
D10*
X140634819Y-94731904D02*
X141444342Y-94731904D01*
X141444342Y-94731904D02*
X141539580Y-94684285D01*
X141539580Y-94684285D02*
X141587200Y-94636666D01*
X141587200Y-94636666D02*
X141634819Y-94541428D01*
X141634819Y-94541428D02*
X141634819Y-94350952D01*
X141634819Y-94350952D02*
X141587200Y-94255714D01*
X141587200Y-94255714D02*
X141539580Y-94208095D01*
X141539580Y-94208095D02*
X141444342Y-94160476D01*
X141444342Y-94160476D02*
X140634819Y-94160476D01*
X140730057Y-93731904D02*
X140682438Y-93684285D01*
X140682438Y-93684285D02*
X140634819Y-93589047D01*
X140634819Y-93589047D02*
X140634819Y-93350952D01*
X140634819Y-93350952D02*
X140682438Y-93255714D01*
X140682438Y-93255714D02*
X140730057Y-93208095D01*
X140730057Y-93208095D02*
X140825295Y-93160476D01*
X140825295Y-93160476D02*
X140920533Y-93160476D01*
X140920533Y-93160476D02*
X141063390Y-93208095D01*
X141063390Y-93208095D02*
X141634819Y-93779523D01*
X141634819Y-93779523D02*
X141634819Y-93160476D01*
X130074819Y-87098094D02*
X129074819Y-87098094D01*
X129074819Y-87098094D02*
X129074819Y-86859999D01*
X129074819Y-86859999D02*
X129122438Y-86717142D01*
X129122438Y-86717142D02*
X129217676Y-86621904D01*
X129217676Y-86621904D02*
X129312914Y-86574285D01*
X129312914Y-86574285D02*
X129503390Y-86526666D01*
X129503390Y-86526666D02*
X129646247Y-86526666D01*
X129646247Y-86526666D02*
X129836723Y-86574285D01*
X129836723Y-86574285D02*
X129931961Y-86621904D01*
X129931961Y-86621904D02*
X130027200Y-86717142D01*
X130027200Y-86717142D02*
X130074819Y-86859999D01*
X130074819Y-86859999D02*
X130074819Y-87098094D01*
X129074819Y-85621904D02*
X129074819Y-86098094D01*
X129074819Y-86098094D02*
X129551009Y-86145713D01*
X129551009Y-86145713D02*
X129503390Y-86098094D01*
X129503390Y-86098094D02*
X129455771Y-86002856D01*
X129455771Y-86002856D02*
X129455771Y-85764761D01*
X129455771Y-85764761D02*
X129503390Y-85669523D01*
X129503390Y-85669523D02*
X129551009Y-85621904D01*
X129551009Y-85621904D02*
X129646247Y-85574285D01*
X129646247Y-85574285D02*
X129884342Y-85574285D01*
X129884342Y-85574285D02*
X129979580Y-85621904D01*
X129979580Y-85621904D02*
X130027200Y-85669523D01*
X130027200Y-85669523D02*
X130074819Y-85764761D01*
X130074819Y-85764761D02*
X130074819Y-86002856D01*
X130074819Y-86002856D02*
X130027200Y-86098094D01*
X130027200Y-86098094D02*
X129979580Y-86145713D01*
D11*
X176323333Y-86317419D02*
X175990000Y-85841228D01*
X175751905Y-86317419D02*
X175751905Y-85317419D01*
X175751905Y-85317419D02*
X176132857Y-85317419D01*
X176132857Y-85317419D02*
X176228095Y-85365038D01*
X176228095Y-85365038D02*
X176275714Y-85412657D01*
X176275714Y-85412657D02*
X176323333Y-85507895D01*
X176323333Y-85507895D02*
X176323333Y-85650752D01*
X176323333Y-85650752D02*
X176275714Y-85745990D01*
X176275714Y-85745990D02*
X176228095Y-85793609D01*
X176228095Y-85793609D02*
X176132857Y-85841228D01*
X176132857Y-85841228D02*
X175751905Y-85841228D01*
X176704286Y-85412657D02*
X176751905Y-85365038D01*
X176751905Y-85365038D02*
X176847143Y-85317419D01*
X176847143Y-85317419D02*
X177085238Y-85317419D01*
X177085238Y-85317419D02*
X177180476Y-85365038D01*
X177180476Y-85365038D02*
X177228095Y-85412657D01*
X177228095Y-85412657D02*
X177275714Y-85507895D01*
X177275714Y-85507895D02*
X177275714Y-85603133D01*
X177275714Y-85603133D02*
X177228095Y-85745990D01*
X177228095Y-85745990D02*
X176656667Y-86317419D01*
X176656667Y-86317419D02*
X177275714Y-86317419D01*
D10*
X137264819Y-103608094D02*
X136264819Y-103608094D01*
X136264819Y-103608094D02*
X136264819Y-103369999D01*
X136264819Y-103369999D02*
X136312438Y-103227142D01*
X136312438Y-103227142D02*
X136407676Y-103131904D01*
X136407676Y-103131904D02*
X136502914Y-103084285D01*
X136502914Y-103084285D02*
X136693390Y-103036666D01*
X136693390Y-103036666D02*
X136836247Y-103036666D01*
X136836247Y-103036666D02*
X137026723Y-103084285D01*
X137026723Y-103084285D02*
X137121961Y-103131904D01*
X137121961Y-103131904D02*
X137217200Y-103227142D01*
X137217200Y-103227142D02*
X137264819Y-103369999D01*
X137264819Y-103369999D02*
X137264819Y-103608094D01*
X136264819Y-102703332D02*
X136264819Y-102084285D01*
X136264819Y-102084285D02*
X136645771Y-102417618D01*
X136645771Y-102417618D02*
X136645771Y-102274761D01*
X136645771Y-102274761D02*
X136693390Y-102179523D01*
X136693390Y-102179523D02*
X136741009Y-102131904D01*
X136741009Y-102131904D02*
X136836247Y-102084285D01*
X136836247Y-102084285D02*
X137074342Y-102084285D01*
X137074342Y-102084285D02*
X137169580Y-102131904D01*
X137169580Y-102131904D02*
X137217200Y-102179523D01*
X137217200Y-102179523D02*
X137264819Y-102274761D01*
X137264819Y-102274761D02*
X137264819Y-102560475D01*
X137264819Y-102560475D02*
X137217200Y-102655713D01*
X137217200Y-102655713D02*
X137169580Y-102703332D01*
D11*
X181527419Y-96686666D02*
X181051228Y-97019999D01*
X181527419Y-97258094D02*
X180527419Y-97258094D01*
X180527419Y-97258094D02*
X180527419Y-96877142D01*
X180527419Y-96877142D02*
X180575038Y-96781904D01*
X180575038Y-96781904D02*
X180622657Y-96734285D01*
X180622657Y-96734285D02*
X180717895Y-96686666D01*
X180717895Y-96686666D02*
X180860752Y-96686666D01*
X180860752Y-96686666D02*
X180955990Y-96734285D01*
X180955990Y-96734285D02*
X181003609Y-96781904D01*
X181003609Y-96781904D02*
X181051228Y-96877142D01*
X181051228Y-96877142D02*
X181051228Y-97258094D01*
X180527419Y-95781904D02*
X180527419Y-96258094D01*
X180527419Y-96258094D02*
X181003609Y-96305713D01*
X181003609Y-96305713D02*
X180955990Y-96258094D01*
X180955990Y-96258094D02*
X180908371Y-96162856D01*
X180908371Y-96162856D02*
X180908371Y-95924761D01*
X180908371Y-95924761D02*
X180955990Y-95829523D01*
X180955990Y-95829523D02*
X181003609Y-95781904D01*
X181003609Y-95781904D02*
X181098847Y-95734285D01*
X181098847Y-95734285D02*
X181336942Y-95734285D01*
X181336942Y-95734285D02*
X181432180Y-95781904D01*
X181432180Y-95781904D02*
X181479800Y-95829523D01*
X181479800Y-95829523D02*
X181527419Y-95924761D01*
X181527419Y-95924761D02*
X181527419Y-96162856D01*
X181527419Y-96162856D02*
X181479800Y-96258094D01*
X181479800Y-96258094D02*
X181432180Y-96305713D01*
D10*
X172784819Y-90908094D02*
X171784819Y-90908094D01*
X171784819Y-90908094D02*
X171784819Y-90669999D01*
X171784819Y-90669999D02*
X171832438Y-90527142D01*
X171832438Y-90527142D02*
X171927676Y-90431904D01*
X171927676Y-90431904D02*
X172022914Y-90384285D01*
X172022914Y-90384285D02*
X172213390Y-90336666D01*
X172213390Y-90336666D02*
X172356247Y-90336666D01*
X172356247Y-90336666D02*
X172546723Y-90384285D01*
X172546723Y-90384285D02*
X172641961Y-90431904D01*
X172641961Y-90431904D02*
X172737200Y-90527142D01*
X172737200Y-90527142D02*
X172784819Y-90669999D01*
X172784819Y-90669999D02*
X172784819Y-90908094D01*
X172784819Y-89384285D02*
X172784819Y-89955713D01*
X172784819Y-89669999D02*
X171784819Y-89669999D01*
X171784819Y-89669999D02*
X171927676Y-89765237D01*
X171927676Y-89765237D02*
X172022914Y-89860475D01*
X172022914Y-89860475D02*
X172070533Y-89955713D01*
D11*
X185337419Y-87796666D02*
X184861228Y-88129999D01*
X185337419Y-88368094D02*
X184337419Y-88368094D01*
X184337419Y-88368094D02*
X184337419Y-87987142D01*
X184337419Y-87987142D02*
X184385038Y-87891904D01*
X184385038Y-87891904D02*
X184432657Y-87844285D01*
X184432657Y-87844285D02*
X184527895Y-87796666D01*
X184527895Y-87796666D02*
X184670752Y-87796666D01*
X184670752Y-87796666D02*
X184765990Y-87844285D01*
X184765990Y-87844285D02*
X184813609Y-87891904D01*
X184813609Y-87891904D02*
X184861228Y-87987142D01*
X184861228Y-87987142D02*
X184861228Y-88368094D01*
X185337419Y-86844285D02*
X185337419Y-87415713D01*
X185337419Y-87129999D02*
X184337419Y-87129999D01*
X184337419Y-87129999D02*
X184480276Y-87225237D01*
X184480276Y-87225237D02*
X184575514Y-87320475D01*
X184575514Y-87320475D02*
X184623133Y-87415713D01*
D10*
X172784819Y-102338094D02*
X171784819Y-102338094D01*
X171784819Y-102338094D02*
X171784819Y-102099999D01*
X171784819Y-102099999D02*
X171832438Y-101957142D01*
X171832438Y-101957142D02*
X171927676Y-101861904D01*
X171927676Y-101861904D02*
X172022914Y-101814285D01*
X172022914Y-101814285D02*
X172213390Y-101766666D01*
X172213390Y-101766666D02*
X172356247Y-101766666D01*
X172356247Y-101766666D02*
X172546723Y-101814285D01*
X172546723Y-101814285D02*
X172641961Y-101861904D01*
X172641961Y-101861904D02*
X172737200Y-101957142D01*
X172737200Y-101957142D02*
X172784819Y-102099999D01*
X172784819Y-102099999D02*
X172784819Y-102338094D01*
X171880057Y-101385713D02*
X171832438Y-101338094D01*
X171832438Y-101338094D02*
X171784819Y-101242856D01*
X171784819Y-101242856D02*
X171784819Y-101004761D01*
X171784819Y-101004761D02*
X171832438Y-100909523D01*
X171832438Y-100909523D02*
X171880057Y-100861904D01*
X171880057Y-100861904D02*
X171975295Y-100814285D01*
X171975295Y-100814285D02*
X172070533Y-100814285D01*
X172070533Y-100814285D02*
X172213390Y-100861904D01*
X172213390Y-100861904D02*
X172784819Y-101433332D01*
X172784819Y-101433332D02*
X172784819Y-100814285D01*
X140559819Y-78711904D02*
X141369342Y-78711904D01*
X141369342Y-78711904D02*
X141464580Y-78664285D01*
X141464580Y-78664285D02*
X141512200Y-78616666D01*
X141512200Y-78616666D02*
X141559819Y-78521428D01*
X141559819Y-78521428D02*
X141559819Y-78330952D01*
X141559819Y-78330952D02*
X141512200Y-78235714D01*
X141512200Y-78235714D02*
X141464580Y-78188095D01*
X141464580Y-78188095D02*
X141369342Y-78140476D01*
X141369342Y-78140476D02*
X140559819Y-78140476D01*
X140893152Y-77235714D02*
X141559819Y-77235714D01*
X140512200Y-77473809D02*
X141226485Y-77711904D01*
X141226485Y-77711904D02*
X141226485Y-77092857D01*
D12*
%TO.C,U3*%
X142175000Y-106560000D02*
X142175000Y-108210000D01*
X142175000Y-110210000D02*
X142175000Y-111860000D01*
X142175000Y-111860000D02*
X160075000Y-111860000D01*
X160075000Y-106560000D02*
X142175000Y-106560000D01*
X160075000Y-111860000D02*
X160075000Y-106560000D01*
X142175000Y-108210000D02*
G75*
G02*
X142175000Y-110210000I0J-1000000D01*
G01*
D11*
%TO.C,R3*%
X179665000Y-81280000D02*
X180300000Y-81280000D01*
X187920000Y-81280000D02*
X188555000Y-81280000D01*
X187920000Y-80010000D02*
X180300000Y-80010000D01*
X180300000Y-82550000D01*
X187920000Y-82550000D01*
X187920000Y-80010000D01*
D12*
%TO.C,D4*%
X132270000Y-93190000D02*
X131951000Y-93190000D01*
X134749000Y-93190000D02*
X134430000Y-93190000D01*
X132269039Y-96932713D02*
G75*
G02*
X132270000Y-93566670I1080961J1682713D01*
G01*
X132269276Y-97493242D02*
G75*
G02*
X131951251Y-93190000I1080724J2243242D01*
G01*
X134430000Y-93566670D02*
G75*
G02*
X134430961Y-96932713I-1080000J-1683330D01*
G01*
X134748749Y-93190000D02*
G75*
G02*
X134430724Y-97493242I-1398749J-2060000D01*
G01*
%TO.C,U5*%
X177700000Y-102760000D02*
X177700000Y-108060000D01*
X177700000Y-108060000D02*
X195600000Y-108060000D01*
X195600000Y-102760000D02*
X177700000Y-102760000D01*
X195600000Y-104410000D02*
X195600000Y-102760000D01*
X195600000Y-108060000D02*
X195600000Y-106410000D01*
X195600000Y-106410000D02*
G75*
G02*
X195600000Y-104410000I0J1000000D01*
G01*
%TO.C,U1*%
X125250000Y-83670000D02*
X126580000Y-83670000D01*
X125250000Y-85000000D02*
X125250000Y-83670000D01*
X125250000Y-86270000D02*
X125250000Y-101570000D01*
X125250000Y-86270000D02*
X127910000Y-86270000D01*
X125250000Y-101570000D02*
X127910000Y-101570000D01*
X127910000Y-86270000D02*
X127910000Y-101570000D01*
%TO.C,C1*%
X186609000Y-92994000D02*
X186609000Y-92426000D01*
X186649000Y-93228000D02*
X186649000Y-92192000D01*
X186689000Y-93387000D02*
X186689000Y-92033000D01*
X186729000Y-93515000D02*
X186729000Y-91905000D01*
X186769000Y-93625000D02*
X186769000Y-91795000D01*
X186809000Y-93721000D02*
X186809000Y-91699000D01*
X186849000Y-93808000D02*
X186849000Y-91612000D01*
X186889000Y-93888000D02*
X186889000Y-91532000D01*
X186929000Y-91670000D02*
X186929000Y-91459000D01*
X186929000Y-93961000D02*
X186929000Y-93750000D01*
X186969000Y-91670000D02*
X186969000Y-91391000D01*
X186969000Y-94029000D02*
X186969000Y-93750000D01*
X187009000Y-91670000D02*
X187009000Y-91327000D01*
X187009000Y-94093000D02*
X187009000Y-93750000D01*
X187049000Y-91670000D02*
X187049000Y-91267000D01*
X187049000Y-94153000D02*
X187049000Y-93750000D01*
X187089000Y-91670000D02*
X187089000Y-91210000D01*
X187089000Y-94210000D02*
X187089000Y-93750000D01*
X187129000Y-91670000D02*
X187129000Y-91156000D01*
X187129000Y-94264000D02*
X187129000Y-93750000D01*
X187169000Y-91670000D02*
X187169000Y-91105000D01*
X187169000Y-94315000D02*
X187169000Y-93750000D01*
X187209000Y-91670000D02*
X187209000Y-91057000D01*
X187209000Y-94363000D02*
X187209000Y-93750000D01*
X187249000Y-91670000D02*
X187249000Y-91011000D01*
X187249000Y-94409000D02*
X187249000Y-93750000D01*
X187289000Y-91670000D02*
X187289000Y-90967000D01*
X187289000Y-94453000D02*
X187289000Y-93750000D01*
X187329000Y-91670000D02*
X187329000Y-90925000D01*
X187329000Y-94495000D02*
X187329000Y-93750000D01*
X187369000Y-91670000D02*
X187369000Y-90884000D01*
X187369000Y-94536000D02*
X187369000Y-93750000D01*
X187409000Y-91670000D02*
X187409000Y-90846000D01*
X187409000Y-94574000D02*
X187409000Y-93750000D01*
X187449000Y-91670000D02*
X187449000Y-90809000D01*
X187449000Y-94611000D02*
X187449000Y-93750000D01*
X187489000Y-91670000D02*
X187489000Y-90773000D01*
X187489000Y-94647000D02*
X187489000Y-93750000D01*
X187529000Y-91670000D02*
X187529000Y-90739000D01*
X187529000Y-94681000D02*
X187529000Y-93750000D01*
X187569000Y-91670000D02*
X187569000Y-90706000D01*
X187569000Y-94714000D02*
X187569000Y-93750000D01*
X187609000Y-91670000D02*
X187609000Y-90675000D01*
X187609000Y-94745000D02*
X187609000Y-93750000D01*
X187649000Y-91670000D02*
X187649000Y-90645000D01*
X187649000Y-94775000D02*
X187649000Y-93750000D01*
X187689000Y-91670000D02*
X187689000Y-90615000D01*
X187689000Y-94805000D02*
X187689000Y-93750000D01*
X187729000Y-91670000D02*
X187729000Y-90588000D01*
X187729000Y-94832000D02*
X187729000Y-93750000D01*
X187769000Y-91670000D02*
X187769000Y-90561000D01*
X187769000Y-94859000D02*
X187769000Y-93750000D01*
X187809000Y-91670000D02*
X187809000Y-90535000D01*
X187809000Y-94885000D02*
X187809000Y-93750000D01*
X187849000Y-91670000D02*
X187849000Y-90510000D01*
X187849000Y-94910000D02*
X187849000Y-93750000D01*
X187889000Y-91670000D02*
X187889000Y-90486000D01*
X187889000Y-94934000D02*
X187889000Y-93750000D01*
X187929000Y-91670000D02*
X187929000Y-90463000D01*
X187929000Y-94957000D02*
X187929000Y-93750000D01*
X187969000Y-91670000D02*
X187969000Y-90442000D01*
X187969000Y-94978000D02*
X187969000Y-93750000D01*
X188009000Y-91670000D02*
X188009000Y-90420000D01*
X188009000Y-95000000D02*
X188009000Y-93750000D01*
X188049000Y-91670000D02*
X188049000Y-90400000D01*
X188049000Y-95020000D02*
X188049000Y-93750000D01*
X188089000Y-91670000D02*
X188089000Y-90381000D01*
X188089000Y-95039000D02*
X188089000Y-93750000D01*
X188129000Y-91670000D02*
X188129000Y-90362000D01*
X188129000Y-95058000D02*
X188129000Y-93750000D01*
X188169000Y-91670000D02*
X188169000Y-90345000D01*
X188169000Y-95075000D02*
X188169000Y-93750000D01*
X188209000Y-91670000D02*
X188209000Y-90328000D01*
X188209000Y-95092000D02*
X188209000Y-93750000D01*
X188249000Y-91670000D02*
X188249000Y-90312000D01*
X188249000Y-95108000D02*
X188249000Y-93750000D01*
X188289000Y-91670000D02*
X188289000Y-90296000D01*
X188289000Y-95124000D02*
X188289000Y-93750000D01*
X188329000Y-91670000D02*
X188329000Y-90282000D01*
X188329000Y-95138000D02*
X188329000Y-93750000D01*
X188369000Y-91670000D02*
X188369000Y-90268000D01*
X188369000Y-95152000D02*
X188369000Y-93750000D01*
X188409000Y-91670000D02*
X188409000Y-90255000D01*
X188409000Y-95165000D02*
X188409000Y-93750000D01*
X188449000Y-91670000D02*
X188449000Y-90242000D01*
X188449000Y-95178000D02*
X188449000Y-93750000D01*
X188489000Y-91670000D02*
X188489000Y-90230000D01*
X188489000Y-95190000D02*
X188489000Y-93750000D01*
X188530000Y-91670000D02*
X188530000Y-90219000D01*
X188530000Y-95201000D02*
X188530000Y-93750000D01*
X188570000Y-91670000D02*
X188570000Y-90209000D01*
X188570000Y-95211000D02*
X188570000Y-93750000D01*
X188610000Y-91670000D02*
X188610000Y-90199000D01*
X188610000Y-95221000D02*
X188610000Y-93750000D01*
X188650000Y-91670000D02*
X188650000Y-90190000D01*
X188650000Y-95230000D02*
X188650000Y-93750000D01*
X188690000Y-91670000D02*
X188690000Y-90182000D01*
X188690000Y-95238000D02*
X188690000Y-93750000D01*
X188730000Y-91670000D02*
X188730000Y-90174000D01*
X188730000Y-95246000D02*
X188730000Y-93750000D01*
X188770000Y-91670000D02*
X188770000Y-90167000D01*
X188770000Y-95253000D02*
X188770000Y-93750000D01*
X188810000Y-91670000D02*
X188810000Y-90160000D01*
X188810000Y-95260000D02*
X188810000Y-93750000D01*
X188850000Y-91670000D02*
X188850000Y-90154000D01*
X188850000Y-95266000D02*
X188850000Y-93750000D01*
X188890000Y-91670000D02*
X188890000Y-90149000D01*
X188890000Y-95271000D02*
X188890000Y-93750000D01*
X188930000Y-91670000D02*
X188930000Y-90145000D01*
X188930000Y-95275000D02*
X188930000Y-93750000D01*
X188970000Y-91670000D02*
X188970000Y-90141000D01*
X188970000Y-95279000D02*
X188970000Y-93750000D01*
X189010000Y-95283000D02*
X189010000Y-90137000D01*
X189050000Y-95286000D02*
X189050000Y-90134000D01*
X189090000Y-95288000D02*
X189090000Y-90132000D01*
X189130000Y-95289000D02*
X189130000Y-90131000D01*
X189170000Y-95290000D02*
X189170000Y-90130000D01*
X189210000Y-95290000D02*
X189210000Y-90130000D01*
X191764775Y-94435000D02*
X191764775Y-93935000D01*
X192014775Y-94185000D02*
X191514775Y-94185000D01*
X191830000Y-92710000D02*
G75*
G02*
X186590000Y-92710000I-2620000J0D01*
G01*
X186590000Y-92710000D02*
G75*
G02*
X191830000Y-92710000I2620000J0D01*
G01*
D11*
%TO.C,R4*%
X195540000Y-86360000D02*
X195540000Y-85725000D01*
X195540000Y-94615000D02*
X195540000Y-93980000D01*
X194270000Y-86360000D02*
X196810000Y-86360000D01*
X196810000Y-93980000D01*
X194270000Y-93980000D01*
X194270000Y-86360000D01*
D12*
%TO.C,U2*%
X142180000Y-91320000D02*
X142180000Y-92970000D01*
X142180000Y-94970000D02*
X142180000Y-96620000D01*
X142180000Y-96620000D02*
X160080000Y-96620000D01*
X160080000Y-91320000D02*
X142180000Y-91320000D01*
X160080000Y-96620000D02*
X160080000Y-91320000D01*
X142180000Y-92970000D02*
G75*
G02*
X142180000Y-94970000I0J-1000000D01*
G01*
%TO.C,D5*%
X131681000Y-88420000D02*
X132000000Y-88420000D01*
X134160000Y-88420000D02*
X134479000Y-88420000D01*
X131681251Y-88420000D02*
G75*
G02*
X131999276Y-84116758I1398749J2060000D01*
G01*
X132000000Y-88043330D02*
G75*
G02*
X131999039Y-84677287I1080000J1683330D01*
G01*
X134160724Y-84116758D02*
G75*
G02*
X134478749Y-88420000I-1080724J-2243242D01*
G01*
X134160961Y-84677287D02*
G75*
G02*
X134160000Y-88043330I-1080961J-1682713D01*
G01*
D11*
%TO.C,R2*%
X176490000Y-82550000D02*
X176490000Y-81915000D01*
X176490000Y-90805000D02*
X176490000Y-90170000D01*
X175220000Y-82550000D02*
X177760000Y-82550000D01*
X177760000Y-90170000D01*
X175220000Y-90170000D01*
X175220000Y-82550000D01*
D12*
%TO.C,D3*%
X132270000Y-100810000D02*
X131951000Y-100810000D01*
X134749000Y-100810000D02*
X134430000Y-100810000D01*
X132269039Y-104552713D02*
G75*
G02*
X132270000Y-101186670I1080961J1682713D01*
G01*
X132269276Y-105113242D02*
G75*
G02*
X131951251Y-100810000I1080724J2243242D01*
G01*
X134430000Y-101186670D02*
G75*
G02*
X134430961Y-104552713I-1080000J-1683330D01*
G01*
X134748749Y-100810000D02*
G75*
G02*
X134430724Y-105113242I-1398749J-2060000D01*
G01*
D11*
%TO.C,R5*%
X177760000Y-96520000D02*
X177125000Y-96520000D01*
X186015000Y-96520000D02*
X185380000Y-96520000D01*
X177760000Y-97790000D02*
X185380000Y-97790000D01*
X185380000Y-95250000D01*
X177760000Y-95250000D01*
X177760000Y-97790000D01*
D12*
%TO.C,D1*%
X167790000Y-88110000D02*
X167471000Y-88110000D01*
X170269000Y-88110000D02*
X169950000Y-88110000D01*
X167789039Y-91852713D02*
G75*
G02*
X167790000Y-88486670I1080961J1682713D01*
G01*
X167789276Y-92413242D02*
G75*
G02*
X167471251Y-88110000I1080724J2243242D01*
G01*
X169950000Y-88486670D02*
G75*
G02*
X169950961Y-91852713I-1080000J-1683330D01*
G01*
X170268749Y-88110000D02*
G75*
G02*
X169950724Y-92413242I-1398749J-2060000D01*
G01*
D11*
%TO.C,R1*%
X181570000Y-87630000D02*
X180935000Y-87630000D01*
X189825000Y-87630000D02*
X189190000Y-87630000D01*
X181570000Y-88900000D02*
X189190000Y-88900000D01*
X189190000Y-86360000D01*
X181570000Y-86360000D01*
X181570000Y-88900000D01*
D12*
%TO.C,D2*%
X167790000Y-99540000D02*
X167471000Y-99540000D01*
X170269000Y-99540000D02*
X169950000Y-99540000D01*
X167789039Y-103282713D02*
G75*
G02*
X167790000Y-99916670I1080961J1682713D01*
G01*
X167789276Y-103843242D02*
G75*
G02*
X167471251Y-99540000I1080724J2243242D01*
G01*
X169950000Y-99916670D02*
G75*
G02*
X169950961Y-103282713I-1080000J-1683330D01*
G01*
X170268749Y-99540000D02*
G75*
G02*
X169950724Y-103843242I-1398749J-2060000D01*
G01*
%TO.C,U4*%
X142105000Y-75300000D02*
X142105000Y-76950000D01*
X142105000Y-78950000D02*
X142105000Y-80600000D01*
X142105000Y-80600000D02*
X160005000Y-80600000D01*
X160005000Y-75300000D02*
X142105000Y-75300000D01*
X160005000Y-80600000D02*
X160005000Y-75300000D01*
X142105000Y-76950000D02*
G75*
G02*
X142105000Y-78950000I0J-1000000D01*
G01*
%TD*%
M02*
