%TF.GenerationSoftware,KiCad,Pcbnew,8.0.2-1*%
%TF.CreationDate,2024-08-04T09:10:22-04:00*%
%TF.ProjectId,startup_controller,73746172-7475-4705-9f63-6f6e74726f6c,rev?*%
%TF.SameCoordinates,Original*%
%TF.FileFunction,Soldermask,Bot*%
%TF.FilePolarity,Negative*%
%FSLAX46Y46*%
G04 Gerber Fmt 4.6, Leading zero omitted, Abs format (unit mm)*
G04 Created by KiCad (PCBNEW 8.0.2-1) date 2024-08-04 09:10:22*
%MOMM*%
%LPD*%
G01*
G04 APERTURE LIST*
%ADD10R,1.600000X1.600000*%
%ADD11O,1.600000X1.600000*%
%ADD12C,1.524000*%
%ADD13R,1.800000X1.800000*%
%ADD14C,1.800000*%
%ADD15R,1.700000X1.700000*%
%ADD16O,1.700000X1.700000*%
%ADD17C,1.600000*%
G04 APERTURE END LIST*
D10*
%TO.C,U3*%
X143505000Y-113020000D03*
D11*
X146045000Y-113020000D03*
X148585000Y-113020000D03*
X151125000Y-113020000D03*
X153665000Y-113020000D03*
X156205000Y-113020000D03*
X158745000Y-113020000D03*
X158745000Y-105400000D03*
X156205000Y-105400000D03*
X153665000Y-105400000D03*
X151125000Y-105400000D03*
X148585000Y-105400000D03*
X146045000Y-105400000D03*
X143505000Y-105400000D03*
%TD*%
D12*
%TO.C,R3*%
X189190000Y-81280000D03*
X179030000Y-81280000D03*
%TD*%
D13*
%TO.C,D4*%
X133350000Y-93980000D03*
D14*
X133350000Y-96520000D03*
%TD*%
D10*
%TO.C,U5*%
X194270000Y-101600000D03*
D11*
X191730000Y-101600000D03*
X189190000Y-101600000D03*
X186650000Y-101600000D03*
X184110000Y-101600000D03*
X181570000Y-101600000D03*
X179030000Y-101600000D03*
X179030000Y-109220000D03*
X181570000Y-109220000D03*
X184110000Y-109220000D03*
X186650000Y-109220000D03*
X189190000Y-109220000D03*
X191730000Y-109220000D03*
X194270000Y-109220000D03*
%TD*%
D15*
%TO.C,U1*%
X126580000Y-85000000D03*
D16*
X126580000Y-87540000D03*
X126580000Y-90080000D03*
X126580000Y-92620000D03*
X126580000Y-95160000D03*
X126580000Y-97700000D03*
X126580000Y-100240000D03*
%TD*%
D10*
%TO.C,C1*%
X190460000Y-92710000D03*
D17*
X187960000Y-92710000D03*
%TD*%
D12*
%TO.C,R4*%
X195540000Y-85090000D03*
X195540000Y-95250000D03*
%TD*%
D10*
%TO.C,U2*%
X143510000Y-97780000D03*
D11*
X146050000Y-97780000D03*
X148590000Y-97780000D03*
X151130000Y-97780000D03*
X153670000Y-97780000D03*
X156210000Y-97780000D03*
X158750000Y-97780000D03*
X158750000Y-90160000D03*
X156210000Y-90160000D03*
X153670000Y-90160000D03*
X151130000Y-90160000D03*
X148590000Y-90160000D03*
X146050000Y-90160000D03*
X143510000Y-90160000D03*
%TD*%
D13*
%TO.C,D5*%
X133080000Y-87630000D03*
D14*
X133080000Y-85090000D03*
%TD*%
D12*
%TO.C,R2*%
X176490000Y-81280000D03*
X176490000Y-91440000D03*
%TD*%
D13*
%TO.C,D3*%
X133350000Y-101600000D03*
D14*
X133350000Y-104140000D03*
%TD*%
D12*
%TO.C,R5*%
X176490000Y-96520000D03*
X186650000Y-96520000D03*
%TD*%
D13*
%TO.C,D1*%
X168870000Y-88900000D03*
D14*
X168870000Y-91440000D03*
%TD*%
D12*
%TO.C,R1*%
X180300000Y-87630000D03*
X190460000Y-87630000D03*
%TD*%
D13*
%TO.C,D2*%
X168870000Y-100330000D03*
D14*
X168870000Y-102870000D03*
%TD*%
D10*
%TO.C,U4*%
X143435000Y-81760000D03*
D11*
X145975000Y-81760000D03*
X148515000Y-81760000D03*
X151055000Y-81760000D03*
X153595000Y-81760000D03*
X156135000Y-81760000D03*
X158675000Y-81760000D03*
X158675000Y-74140000D03*
X156135000Y-74140000D03*
X153595000Y-74140000D03*
X151055000Y-74140000D03*
X148515000Y-74140000D03*
X145975000Y-74140000D03*
X143435000Y-74140000D03*
%TD*%
M02*
