M48
; DRILL file {KiCad 8.0.2-1} date 2024-08-04T09:10:31-0400
; FORMAT={-:-/ absolute / inch / decimal}
; #@! TF.CreationDate,2024-08-04T09:10:31-04:00
; #@! TF.GenerationSoftware,Kicad,Pcbnew,8.0.2-1
; #@! TF.FileFunction,Plated,1,2,PTH
FMAT,2
INCH
; #@! TA.AperFunction,Plated,PTH,ViaDrill
T1C0.0118
; #@! TA.AperFunction,Plated,PTH,ComponentDrill
T2C0.0300
; #@! TA.AperFunction,Plated,PTH,ComponentDrill
T3C0.0315
; #@! TA.AperFunction,Plated,PTH,ComponentDrill
T4C0.0354
; #@! TA.AperFunction,Plated,PTH,ComponentDrill
T5C0.0394
%
G90
G05
T1
X5.5391Y-3.3942
T2
X6.9484Y-3.2
X6.9484Y-3.6
X6.9484Y-3.8
X7.0484Y-3.2
X7.0984Y-3.45
X7.3484Y-3.8
X7.4484Y-3.2
X7.4984Y-3.45
X7.6984Y-3.35
X7.6984Y-3.75
T3
X5.647Y-2.9189
X5.647Y-3.2189
X5.6498Y-4.1496
X5.6498Y-4.4496
X5.65Y-3.5496
X5.65Y-3.8496
X5.747Y-2.9189
X5.747Y-3.2189
X5.7498Y-4.1496
X5.7498Y-4.4496
X5.75Y-3.5496
X5.75Y-3.8496
X5.847Y-2.9189
X5.847Y-3.2189
X5.8498Y-4.1496
X5.8498Y-4.4496
X5.85Y-3.5496
X5.85Y-3.8496
X5.947Y-2.9189
X5.947Y-3.2189
X5.9498Y-4.1496
X5.9498Y-4.4496
X5.95Y-3.5496
X5.95Y-3.8496
X6.047Y-2.9189
X6.047Y-3.2189
X6.0498Y-4.1496
X6.0498Y-4.4496
X6.05Y-3.5496
X6.05Y-3.8496
X6.147Y-2.9189
X6.147Y-3.2189
X6.1498Y-4.1496
X6.1498Y-4.4496
X6.15Y-3.5496
X6.15Y-3.8496
X6.247Y-2.9189
X6.247Y-3.2189
X6.2498Y-4.1496
X6.2498Y-4.4496
X6.25Y-3.5496
X6.25Y-3.8496
X7.0484Y-4.0
X7.0484Y-4.3
X7.1484Y-4.0
X7.1484Y-4.3
X7.2484Y-4.0
X7.2484Y-4.3
X7.3484Y-4.0
X7.3484Y-4.3
X7.4Y-3.65
X7.4484Y-4.0
X7.4484Y-4.3
X7.4984Y-3.65
X7.5484Y-4.0
X7.5484Y-4.3
X7.6484Y-4.0
X7.6484Y-4.3
T4
X5.2394Y-3.35
X5.2394Y-3.45
X5.25Y-3.7
X5.25Y-3.8
X5.25Y-4.0
X5.25Y-4.1
X6.6484Y-3.5
X6.6484Y-3.6
X6.6484Y-3.95
X6.6484Y-4.05
T5
X4.9835Y-3.3465
X4.9835Y-3.4465
X4.9835Y-3.5465
X4.9835Y-3.6465
X4.9835Y-3.7465
X4.9835Y-3.8465
X4.9835Y-3.9465
M30
