%TF.GenerationSoftware,KiCad,Pcbnew,8.0.2-1*%
%TF.CreationDate,2024-08-04T09:10:22-04:00*%
%TF.ProjectId,startup_controller,73746172-7475-4705-9f63-6f6e74726f6c,rev?*%
%TF.SameCoordinates,Original*%
%TF.FileFunction,Copper,L1,Top*%
%TF.FilePolarity,Positive*%
%FSLAX46Y46*%
G04 Gerber Fmt 4.6, Leading zero omitted, Abs format (unit mm)*
G04 Created by KiCad (PCBNEW 8.0.2-1) date 2024-08-04 09:10:22*
%MOMM*%
%LPD*%
G01*
G04 APERTURE LIST*
%TA.AperFunction,ComponentPad*%
%ADD10R,1.600000X1.600000*%
%TD*%
%TA.AperFunction,ComponentPad*%
%ADD11O,1.600000X1.600000*%
%TD*%
%TA.AperFunction,ComponentPad*%
%ADD12C,1.524000*%
%TD*%
%TA.AperFunction,ComponentPad*%
%ADD13R,1.800000X1.800000*%
%TD*%
%TA.AperFunction,ComponentPad*%
%ADD14C,1.800000*%
%TD*%
%TA.AperFunction,ComponentPad*%
%ADD15R,1.700000X1.700000*%
%TD*%
%TA.AperFunction,ComponentPad*%
%ADD16O,1.700000X1.700000*%
%TD*%
%TA.AperFunction,ComponentPad*%
%ADD17C,1.600000*%
%TD*%
%TA.AperFunction,ViaPad*%
%ADD18C,0.600000*%
%TD*%
%TA.AperFunction,Conductor*%
%ADD19C,0.200000*%
%TD*%
G04 APERTURE END LIST*
D10*
%TO.P,U3,1,0Q*%
%TO.N,unconnected-(U3-0Q-Pad1)*%
X143505000Y-113020000D03*
D11*
%TO.P,U3,2,0Q#*%
%TO.N,unconnected-(U3-0Q#-Pad2)*%
X146045000Y-113020000D03*
%TO.P,U3,3,0CLK*%
%TO.N,Net-(D1-K)*%
X148585000Y-113020000D03*
%TO.P,U3,4,0RESET*%
X151125000Y-113020000D03*
%TO.P,U3,5,0D*%
X153665000Y-113020000D03*
%TO.P,U3,6,0SET*%
X156205000Y-113020000D03*
%TO.P,U3,7,GND*%
X158745000Y-113020000D03*
%TO.P,U3,8,1SET*%
X158745000Y-105400000D03*
%TO.P,U3,9,1D*%
%TO.N,Net-(D2-A)*%
X156205000Y-105400000D03*
%TO.P,U3,10,1RESET*%
%TO.N,Net-(D1-A)*%
X153665000Y-105400000D03*
%TO.P,U3,11,1CLK*%
%TO.N,Net-(U2-1Q)*%
X151125000Y-105400000D03*
%TO.P,U3,12,1Q3*%
%TO.N,Net-(U2-1A)*%
X148585000Y-105400000D03*
%TO.P,U3,13,1Q*%
%TO.N,Net-(D3-A)*%
X146045000Y-105400000D03*
%TO.P,U3,14,V+*%
%TO.N,Net-(D5-A)*%
X143505000Y-105400000D03*
%TD*%
D12*
%TO.P,R3,1*%
%TO.N,Net-(U5-IN-_1)*%
X189190000Y-81280000D03*
%TO.P,R3,2*%
%TO.N,Net-(U5-IN+_2)*%
X179030000Y-81280000D03*
%TD*%
D13*
%TO.P,D4,1,K*%
%TO.N,Net-(D1-K)*%
X133350000Y-93980000D03*
D14*
%TO.P,D4,2,A*%
%TO.N,Net-(D4-A)*%
X133350000Y-96520000D03*
%TD*%
D10*
%TO.P,U5,1,OUT_1*%
%TO.N,Net-(D2-A)*%
X194270000Y-101600000D03*
D11*
%TO.P,U5,2,IN-_1*%
%TO.N,Net-(U5-IN-_1)*%
X191730000Y-101600000D03*
%TO.P,U5,3,IN+_1*%
%TO.N,Net-(U5-IN+_1)*%
X189190000Y-101600000D03*
%TO.P,U5,4,V+*%
%TO.N,Net-(D5-A)*%
X186650000Y-101600000D03*
%TO.P,U5,5,IN+_2*%
%TO.N,Net-(U5-IN+_2)*%
X184110000Y-101600000D03*
%TO.P,U5,6,IN-_2*%
%TO.N,Net-(U5-IN+_1)*%
X181570000Y-101600000D03*
%TO.P,U5,7,OUT_2*%
%TO.N,Net-(D1-A)*%
X179030000Y-101600000D03*
%TO.P,U5,8,OUT_3*%
%TO.N,unconnected-(U5-OUT_3-Pad8)*%
X179030000Y-109220000D03*
%TO.P,U5,9,IN-_3*%
%TO.N,Net-(D1-K)*%
X181570000Y-109220000D03*
%TO.P,U5,10,IN+_3*%
X184110000Y-109220000D03*
%TO.P,U5,11,GND*%
X186650000Y-109220000D03*
%TO.P,U5,12,IN+_4*%
X189190000Y-109220000D03*
%TO.P,U5,13,IN-_4*%
X191730000Y-109220000D03*
%TO.P,U5,14,OUT_4*%
%TO.N,unconnected-(U5-OUT_4-Pad14)*%
X194270000Y-109220000D03*
%TD*%
D15*
%TO.P,U1,1,V+*%
%TO.N,Net-(D5-A)*%
X126580000Y-85000000D03*
D16*
%TO.P,U1,2,GND*%
%TO.N,Net-(D1-K)*%
X126580000Y-87540000D03*
%TO.P,U1,3,A_CLK*%
%TO.N,Net-(U1-A_CLK)*%
X126580000Y-90080000D03*
%TO.P,U1,4,B_CLK*%
%TO.N,Net-(U1-B_CLK)*%
X126580000Y-92620000D03*
%TO.P,U1,5,START*%
%TO.N,Net-(D4-A)*%
X126580000Y-95160000D03*
%TO.P,U1,6,ENABLE*%
%TO.N,Net-(D3-A)*%
X126580000Y-97700000D03*
%TO.P,U1,7,FAULT*%
%TO.N,unconnected-(U1-FAULT-Pad7)*%
X126580000Y-100240000D03*
%TD*%
D10*
%TO.P,C1,1*%
%TO.N,Net-(U5-IN-_1)*%
X190460000Y-92710000D03*
D17*
%TO.P,C1,2*%
%TO.N,Net-(D1-K)*%
X187960000Y-92710000D03*
%TD*%
D12*
%TO.P,R4,1*%
%TO.N,Net-(D5-A)*%
X195540000Y-85090000D03*
%TO.P,R4,2*%
%TO.N,Net-(U5-IN+_1)*%
X195540000Y-95250000D03*
%TD*%
D10*
%TO.P,U2,1,1A*%
%TO.N,Net-(U2-1A)*%
X143510000Y-97780000D03*
D11*
%TO.P,U2,2,1B*%
%TO.N,Net-(U1-B_CLK)*%
X146050000Y-97780000D03*
%TO.P,U2,3,1Q*%
%TO.N,Net-(U2-1Q)*%
X148590000Y-97780000D03*
%TO.P,U2,4,2A*%
%TO.N,Net-(D3-A)*%
X151130000Y-97780000D03*
%TO.P,U2,5,2B*%
%TO.N,Net-(U1-A_CLK)*%
X153670000Y-97780000D03*
%TO.P,U2,6,2Q*%
%TO.N,Net-(U2-2Q)*%
X156210000Y-97780000D03*
%TO.P,U2,7,GND*%
%TO.N,Net-(D1-K)*%
X158750000Y-97780000D03*
%TO.P,U2,8,4Q*%
%TO.N,Net-(U2-4Q)*%
X158750000Y-90160000D03*
%TO.P,U2,9,4B*%
%TO.N,Net-(D2-A)*%
X156210000Y-90160000D03*
%TO.P,U2,10,4A*%
%TO.N,Net-(U2-3A)*%
X153670000Y-90160000D03*
%TO.P,U2,11,3Q*%
%TO.N,Net-(U2-3Q)*%
X151130000Y-90160000D03*
%TO.P,U2,12,3B*%
%TO.N,Net-(U1-B_CLK)*%
X148590000Y-90160000D03*
%TO.P,U2,13,3A*%
%TO.N,Net-(U2-3A)*%
X146050000Y-90160000D03*
%TO.P,U2,14,V+*%
%TO.N,Net-(D5-A)*%
X143510000Y-90160000D03*
%TD*%
D13*
%TO.P,D5,1,K*%
%TO.N,Net-(D1-K)*%
X133080000Y-87630000D03*
D14*
%TO.P,D5,2,A*%
%TO.N,Net-(D5-A)*%
X133080000Y-85090000D03*
%TD*%
D12*
%TO.P,R2,1*%
%TO.N,Net-(U5-IN+_2)*%
X176490000Y-81280000D03*
%TO.P,R2,2*%
%TO.N,Net-(D1-K)*%
X176490000Y-91440000D03*
%TD*%
D13*
%TO.P,D3,1,K*%
%TO.N,Net-(D1-K)*%
X133350000Y-101600000D03*
D14*
%TO.P,D3,2,A*%
%TO.N,Net-(D3-A)*%
X133350000Y-104140000D03*
%TD*%
D12*
%TO.P,R5,1*%
%TO.N,Net-(U5-IN+_1)*%
X176490000Y-96520000D03*
%TO.P,R5,2*%
%TO.N,Net-(D1-K)*%
X186650000Y-96520000D03*
%TD*%
D13*
%TO.P,D1,1,K*%
%TO.N,Net-(D1-K)*%
X168870000Y-88900000D03*
D14*
%TO.P,D1,2,A*%
%TO.N,Net-(D1-A)*%
X168870000Y-91440000D03*
%TD*%
D12*
%TO.P,R1,1*%
%TO.N,Net-(D5-A)*%
X180300000Y-87630000D03*
%TO.P,R1,2*%
%TO.N,Net-(U5-IN-_1)*%
X190460000Y-87630000D03*
%TD*%
D13*
%TO.P,D2,1,K*%
%TO.N,Net-(D1-K)*%
X168870000Y-100330000D03*
D14*
%TO.P,D2,2,A*%
%TO.N,Net-(D2-A)*%
X168870000Y-102870000D03*
%TD*%
D10*
%TO.P,U4,1,0Q*%
%TO.N,Net-(D4-A)*%
X143435000Y-81760000D03*
D11*
%TO.P,U4,2,0Q#*%
%TO.N,unconnected-(U4-0Q#-Pad2)*%
X145975000Y-81760000D03*
%TO.P,U4,3,0CLK*%
%TO.N,Net-(U2-2Q)*%
X148515000Y-81760000D03*
%TO.P,U4,4,0RESET*%
%TO.N,Net-(D1-A)*%
X151055000Y-81760000D03*
%TO.P,U4,5,0D*%
%TO.N,Net-(U2-4Q)*%
X153595000Y-81760000D03*
%TO.P,U4,6,0SET*%
%TO.N,Net-(D1-K)*%
X156135000Y-81760000D03*
%TO.P,U4,7,GND*%
X158675000Y-81760000D03*
%TO.P,U4,8,1SET*%
X158675000Y-74140000D03*
%TO.P,U4,9,1D*%
%TO.N,Net-(D4-A)*%
X156135000Y-74140000D03*
%TO.P,U4,10,1RESET*%
%TO.N,Net-(D1-A)*%
X153595000Y-74140000D03*
%TO.P,U4,11,1CLK*%
%TO.N,Net-(U2-3Q)*%
X151055000Y-74140000D03*
%TO.P,U4,12,1Q3*%
%TO.N,Net-(U2-3A)*%
X148515000Y-74140000D03*
%TO.P,U4,13,1Q*%
%TO.N,unconnected-(U4-1Q-Pad13)*%
X145975000Y-74140000D03*
%TO.P,U4,14,V+*%
%TO.N,Net-(D5-A)*%
X143435000Y-74140000D03*
%TD*%
D18*
%TO.N,Net-(D4-A)*%
X140692500Y-86211800D03*
%TD*%
D19*
%TO.N,Net-(U5-IN+_2)*%
X176490000Y-81280000D02*
X179030000Y-81280000D01*
%TO.N,Net-(U5-IN+_1)*%
X190891700Y-99898300D02*
X189190000Y-99898300D01*
X195540000Y-95250000D02*
X190891700Y-99898300D01*
X183271700Y-99898300D02*
X189190000Y-99898300D01*
X189190000Y-101600000D02*
X189190000Y-99898300D01*
X181570000Y-101600000D02*
X183271700Y-99898300D01*
%TO.N,Net-(U1-B_CLK)*%
X134881700Y-92178300D02*
X135728500Y-93025100D01*
X128773400Y-92178300D02*
X134881700Y-92178300D01*
X141650300Y-93025100D02*
X146050000Y-97424800D01*
X146050000Y-97424800D02*
X146050000Y-97780000D01*
X126580000Y-92620000D02*
X128331700Y-92620000D01*
X135728500Y-93025100D02*
X141650300Y-93025100D01*
X128331700Y-92620000D02*
X128773400Y-92178300D01*
%TO.N,Net-(U1-A_CLK)*%
X145946500Y-95584800D02*
X141539800Y-91178100D01*
X151474800Y-95584800D02*
X145946500Y-95584800D01*
X135413200Y-91178100D02*
X134315100Y-90080000D01*
X134315100Y-90080000D02*
X128331700Y-90080000D01*
X153670000Y-97780000D02*
X151474800Y-95584800D01*
X126580000Y-90080000D02*
X128331700Y-90080000D01*
X141539800Y-91178100D02*
X135413200Y-91178100D01*
%TO.N,Net-(U2-2Q)*%
X158449200Y-87434600D02*
X154189600Y-87434600D01*
X160457300Y-89442700D02*
X158449200Y-87434600D01*
X160457300Y-91831000D02*
X160457300Y-89442700D01*
X156210000Y-97780000D02*
X156210000Y-96078300D01*
X154189600Y-87434600D02*
X148515000Y-81760000D01*
X156210000Y-96078300D02*
X160457300Y-91831000D01*
%TO.N,Net-(U2-3A)*%
X147775200Y-88434800D02*
X151944800Y-88434800D01*
X151944800Y-88434800D02*
X153670000Y-90160000D01*
X146050000Y-90160000D02*
X147775200Y-88434800D01*
%TO.N,Net-(D1-A)*%
X171817700Y-107110600D02*
X155375600Y-107110600D01*
X155318300Y-86023300D02*
X151055000Y-81760000D01*
X179030000Y-101600000D02*
X177328300Y-101600000D01*
X168870000Y-91440000D02*
X164314000Y-91440000D01*
X158897300Y-86023300D02*
X155318300Y-86023300D01*
X164314000Y-91440000D02*
X158897300Y-86023300D01*
X155375600Y-107110600D02*
X153665000Y-105400000D01*
X177328300Y-101600000D02*
X171817700Y-107110600D01*
%TO.N,Net-(D1-K)*%
X187960000Y-92710000D02*
X186690000Y-91440000D01*
X158750000Y-97780000D02*
X160451700Y-97780000D01*
X170717400Y-97581700D02*
X168870000Y-99429100D01*
X133350000Y-99798300D02*
X135151700Y-97996600D01*
X170717400Y-91440000D02*
X170717400Y-97581700D01*
X184110000Y-109220000D02*
X181570000Y-109220000D01*
X158675000Y-81760000D02*
X156135000Y-81760000D01*
X170671700Y-91394300D02*
X170717400Y-91440000D01*
X133350000Y-93980000D02*
X135151700Y-93980000D01*
X151125000Y-113020000D02*
X148585000Y-113020000D01*
X153665000Y-113020000D02*
X151125000Y-113020000D01*
X162100800Y-99429100D02*
X160451700Y-97780000D01*
X168870000Y-99429100D02*
X162100800Y-99429100D01*
X156205000Y-113020000D02*
X153665000Y-113020000D01*
X126580000Y-87540000D02*
X131188300Y-87540000D01*
X168870000Y-100330000D02*
X168870000Y-99429100D01*
X191730000Y-109220000D02*
X189190000Y-109220000D01*
X133350000Y-101600000D02*
X133350000Y-99798300D01*
X168870000Y-88900000D02*
X170671700Y-88900000D01*
X170671700Y-88900000D02*
X170671700Y-91394300D01*
X189190000Y-109220000D02*
X186650000Y-109220000D01*
X131188300Y-87540000D02*
X131278300Y-87630000D01*
X186650000Y-109220000D02*
X184110000Y-109220000D01*
X186690000Y-91440000D02*
X176490000Y-91440000D01*
X135151700Y-97996600D02*
X135151700Y-93980000D01*
X133080000Y-87630000D02*
X131278300Y-87630000D01*
X170717400Y-91440000D02*
X176490000Y-91440000D01*
%TO.N,Net-(D2-A)*%
X156205000Y-105400000D02*
X158735000Y-102870000D01*
X158735000Y-102870000D02*
X168870000Y-102870000D01*
%TO.N,Net-(D3-A)*%
X146045000Y-103698300D02*
X133791700Y-103698300D01*
X150261600Y-99481700D02*
X151130000Y-99481700D01*
X151130000Y-97780000D02*
X151130000Y-99481700D01*
X146045000Y-105400000D02*
X146045000Y-103698300D01*
X146045000Y-103698300D02*
X150261600Y-99481700D01*
X133791700Y-103698300D02*
X133350000Y-104140000D01*
%TO.N,Net-(D4-A)*%
X126580000Y-95160000D02*
X128331700Y-95160000D01*
X143435000Y-81760000D02*
X143435000Y-83461700D01*
X140692500Y-86204200D02*
X143435000Y-83461700D01*
X128331700Y-95160000D02*
X129691700Y-96520000D01*
X129691700Y-96520000D02*
X133350000Y-96520000D01*
X146159200Y-79035800D02*
X143435000Y-81760000D01*
X151239200Y-79035800D02*
X146159200Y-79035800D01*
X140692500Y-86211800D02*
X140692500Y-86204200D01*
X156135000Y-74140000D02*
X151239200Y-79035800D01*
%TO.N,Net-(D5-A)*%
X195540000Y-85090000D02*
X182840000Y-85090000D01*
X126580000Y-85000000D02*
X128331700Y-85000000D01*
X133080000Y-85090000D02*
X128421700Y-85090000D01*
X143435000Y-74140000D02*
X143435000Y-75841700D01*
X136949200Y-85300900D02*
X136949200Y-85090000D01*
X182840000Y-85090000D02*
X180300000Y-87630000D01*
X143510000Y-90160000D02*
X141808300Y-90160000D01*
X136949200Y-85090000D02*
X133080000Y-85090000D01*
X136949200Y-85090000D02*
X136949200Y-82327500D01*
X146246300Y-108141300D02*
X143505000Y-105400000D01*
X128421700Y-85090000D02*
X128331700Y-85000000D01*
X178330200Y-107110400D02*
X177299300Y-108141300D01*
X177299300Y-108141300D02*
X146246300Y-108141300D01*
X141808300Y-90160000D02*
X136949200Y-85300900D01*
X186650000Y-101600000D02*
X181139600Y-107110400D01*
X181139600Y-107110400D02*
X178330200Y-107110400D01*
X136949200Y-82327500D02*
X143435000Y-75841700D01*
%TD*%
%TA.AperFunction,Conductor*%
%TO.N,Net-(D5-A)*%
G36*
X197562539Y-72275185D02*
G01*
X197608294Y-72327989D01*
X197619500Y-72379500D01*
X197619500Y-114945500D01*
X197599815Y-115012539D01*
X197547011Y-115058294D01*
X197495500Y-115069500D01*
X125084500Y-115069500D01*
X125017461Y-115049815D01*
X124971706Y-114997011D01*
X124960500Y-114945500D01*
X124960500Y-112175039D01*
X141904500Y-112175039D01*
X141904500Y-113864960D01*
X141919630Y-113999249D01*
X141919631Y-113999254D01*
X141979211Y-114169523D01*
X142055711Y-114291271D01*
X142075184Y-114322262D01*
X142202738Y-114449816D01*
X142355478Y-114545789D01*
X142525745Y-114605368D01*
X142525750Y-114605369D01*
X142616246Y-114615565D01*
X142660040Y-114620499D01*
X142660043Y-114620500D01*
X142660046Y-114620500D01*
X144349957Y-114620500D01*
X144349958Y-114620499D01*
X144417104Y-114612934D01*
X144484249Y-114605369D01*
X144484252Y-114605368D01*
X144484255Y-114605368D01*
X144654522Y-114545789D01*
X144807262Y-114449816D01*
X144932324Y-114324753D01*
X144993643Y-114291271D01*
X145063335Y-114296255D01*
X145097238Y-114316205D01*
X145097405Y-114315976D01*
X145099774Y-114317697D01*
X145100526Y-114318140D01*
X145101341Y-114318836D01*
X145101346Y-114318839D01*
X145316140Y-114450466D01*
X145546270Y-114545788D01*
X145548889Y-114546873D01*
X145793852Y-114605683D01*
X146045000Y-114625449D01*
X146296148Y-114605683D01*
X146541111Y-114546873D01*
X146773859Y-114450466D01*
X146988659Y-114318836D01*
X147180224Y-114155224D01*
X147220710Y-114107819D01*
X147279216Y-114069627D01*
X147349084Y-114069128D01*
X147408130Y-114106482D01*
X147409235Y-114107756D01*
X147449775Y-114155223D01*
X147449776Y-114155224D01*
X147641343Y-114318838D01*
X147641346Y-114318839D01*
X147856140Y-114450466D01*
X148086270Y-114545788D01*
X148088889Y-114546873D01*
X148333852Y-114605683D01*
X148585000Y-114625449D01*
X148836148Y-114605683D01*
X149081111Y-114546873D01*
X149313859Y-114450466D01*
X149528659Y-114318836D01*
X149720224Y-114155224D01*
X149760710Y-114107819D01*
X149819216Y-114069627D01*
X149889084Y-114069128D01*
X149948130Y-114106482D01*
X149949235Y-114107756D01*
X149989775Y-114155223D01*
X149989776Y-114155224D01*
X150181343Y-114318838D01*
X150181346Y-114318839D01*
X150396140Y-114450466D01*
X150626270Y-114545788D01*
X150628889Y-114546873D01*
X150873852Y-114605683D01*
X151125000Y-114625449D01*
X151376148Y-114605683D01*
X151621111Y-114546873D01*
X151853859Y-114450466D01*
X152068659Y-114318836D01*
X152260224Y-114155224D01*
X152300710Y-114107819D01*
X152359216Y-114069627D01*
X152429084Y-114069128D01*
X152488130Y-114106482D01*
X152489235Y-114107756D01*
X152529775Y-114155223D01*
X152529776Y-114155224D01*
X152721343Y-114318838D01*
X152721346Y-114318839D01*
X152936140Y-114450466D01*
X153166270Y-114545788D01*
X153168889Y-114546873D01*
X153413852Y-114605683D01*
X153665000Y-114625449D01*
X153916148Y-114605683D01*
X154161111Y-114546873D01*
X154393859Y-114450466D01*
X154608659Y-114318836D01*
X154800224Y-114155224D01*
X154840710Y-114107819D01*
X154899216Y-114069627D01*
X154969084Y-114069128D01*
X155028130Y-114106482D01*
X155029235Y-114107756D01*
X155069775Y-114155223D01*
X155069776Y-114155224D01*
X155261343Y-114318838D01*
X155261346Y-114318839D01*
X155476140Y-114450466D01*
X155706270Y-114545788D01*
X155708889Y-114546873D01*
X155953852Y-114605683D01*
X156205000Y-114625449D01*
X156456148Y-114605683D01*
X156701111Y-114546873D01*
X156933859Y-114450466D01*
X157148659Y-114318836D01*
X157340224Y-114155224D01*
X157380710Y-114107819D01*
X157439216Y-114069627D01*
X157509084Y-114069128D01*
X157568130Y-114106482D01*
X157569235Y-114107756D01*
X157609775Y-114155223D01*
X157609776Y-114155224D01*
X157801343Y-114318838D01*
X157801346Y-114318839D01*
X158016140Y-114450466D01*
X158246270Y-114545788D01*
X158248889Y-114546873D01*
X158493852Y-114605683D01*
X158745000Y-114625449D01*
X158996148Y-114605683D01*
X159241111Y-114546873D01*
X159473859Y-114450466D01*
X159688659Y-114318836D01*
X159880224Y-114155224D01*
X160043836Y-113963659D01*
X160175466Y-113748859D01*
X160271873Y-113516111D01*
X160330683Y-113271148D01*
X160350449Y-113020000D01*
X160330683Y-112768852D01*
X160271873Y-112523889D01*
X160175466Y-112291141D01*
X160175466Y-112291140D01*
X160043839Y-112076346D01*
X160043838Y-112076343D01*
X159953755Y-111970870D01*
X159880224Y-111884776D01*
X159753571Y-111776604D01*
X159688656Y-111721161D01*
X159688653Y-111721160D01*
X159473859Y-111589533D01*
X159241110Y-111493126D01*
X158996151Y-111434317D01*
X158745000Y-111414551D01*
X158493848Y-111434317D01*
X158248889Y-111493126D01*
X158016140Y-111589533D01*
X157801346Y-111721160D01*
X157801343Y-111721161D01*
X157609776Y-111884776D01*
X157569290Y-111932179D01*
X157510783Y-111970372D01*
X157440915Y-111970870D01*
X157381869Y-111933516D01*
X157380710Y-111932179D01*
X157340224Y-111884776D01*
X157213571Y-111776604D01*
X157148656Y-111721161D01*
X157148653Y-111721160D01*
X156933859Y-111589533D01*
X156701110Y-111493126D01*
X156456151Y-111434317D01*
X156205000Y-111414551D01*
X155953848Y-111434317D01*
X155708889Y-111493126D01*
X155476140Y-111589533D01*
X155261346Y-111721160D01*
X155261343Y-111721161D01*
X155069776Y-111884776D01*
X155029290Y-111932179D01*
X154970783Y-111970372D01*
X154900915Y-111970870D01*
X154841869Y-111933516D01*
X154840710Y-111932179D01*
X154800224Y-111884776D01*
X154673571Y-111776604D01*
X154608656Y-111721161D01*
X154608653Y-111721160D01*
X154393859Y-111589533D01*
X154161110Y-111493126D01*
X153916151Y-111434317D01*
X153665000Y-111414551D01*
X153413848Y-111434317D01*
X153168889Y-111493126D01*
X152936140Y-111589533D01*
X152721346Y-111721160D01*
X152721343Y-111721161D01*
X152529776Y-111884776D01*
X152489290Y-111932179D01*
X152430783Y-111970372D01*
X152360915Y-111970870D01*
X152301869Y-111933516D01*
X152300710Y-111932179D01*
X152260224Y-111884776D01*
X152133571Y-111776604D01*
X152068656Y-111721161D01*
X152068653Y-111721160D01*
X151853859Y-111589533D01*
X151621110Y-111493126D01*
X151376151Y-111434317D01*
X151125000Y-111414551D01*
X150873848Y-111434317D01*
X150628889Y-111493126D01*
X150396140Y-111589533D01*
X150181346Y-111721160D01*
X150181343Y-111721161D01*
X149989776Y-111884776D01*
X149949290Y-111932179D01*
X149890783Y-111970372D01*
X149820915Y-111970870D01*
X149761869Y-111933516D01*
X149760710Y-111932179D01*
X149720224Y-111884776D01*
X149593571Y-111776604D01*
X149528656Y-111721161D01*
X149528653Y-111721160D01*
X149313859Y-111589533D01*
X149081110Y-111493126D01*
X148836151Y-111434317D01*
X148585000Y-111414551D01*
X148333848Y-111434317D01*
X148088889Y-111493126D01*
X147856140Y-111589533D01*
X147641346Y-111721160D01*
X147641343Y-111721161D01*
X147449776Y-111884776D01*
X147409290Y-111932179D01*
X147350783Y-111970372D01*
X147280915Y-111970870D01*
X147221869Y-111933516D01*
X147220710Y-111932179D01*
X147180224Y-111884776D01*
X147053571Y-111776604D01*
X146988656Y-111721161D01*
X146988653Y-111721160D01*
X146773859Y-111589533D01*
X146541110Y-111493126D01*
X146296151Y-111434317D01*
X146045000Y-111414551D01*
X145793848Y-111434317D01*
X145548889Y-111493126D01*
X145316140Y-111589533D01*
X145101349Y-111721158D01*
X145101327Y-111721174D01*
X145100516Y-111721867D01*
X145100145Y-111722032D01*
X145097404Y-111724025D01*
X145096985Y-111723448D01*
X145036749Y-111750426D01*
X144967665Y-111739976D01*
X144932321Y-111715243D01*
X144807262Y-111590184D01*
X144654523Y-111494211D01*
X144484254Y-111434631D01*
X144484249Y-111434630D01*
X144349960Y-111419500D01*
X144349954Y-111419500D01*
X142660046Y-111419500D01*
X142660039Y-111419500D01*
X142525750Y-111434630D01*
X142525745Y-111434631D01*
X142355476Y-111494211D01*
X142202737Y-111590184D01*
X142075184Y-111717737D01*
X141979211Y-111870476D01*
X141919631Y-112040745D01*
X141919630Y-112040750D01*
X141904500Y-112175039D01*
X124960500Y-112175039D01*
X124960500Y-109220000D01*
X177424551Y-109220000D01*
X177444317Y-109471151D01*
X177503126Y-109716110D01*
X177599533Y-109948859D01*
X177731160Y-110163653D01*
X177731161Y-110163656D01*
X177731164Y-110163659D01*
X177894776Y-110355224D01*
X178043066Y-110481875D01*
X178086343Y-110518838D01*
X178086346Y-110518839D01*
X178301140Y-110650466D01*
X178533889Y-110746873D01*
X178778852Y-110805683D01*
X179030000Y-110825449D01*
X179281148Y-110805683D01*
X179526111Y-110746873D01*
X179758859Y-110650466D01*
X179973659Y-110518836D01*
X180165224Y-110355224D01*
X180205710Y-110307819D01*
X180264216Y-110269627D01*
X180334084Y-110269128D01*
X180393130Y-110306482D01*
X180394235Y-110307756D01*
X180434775Y-110355223D01*
X180434776Y-110355224D01*
X180626343Y-110518838D01*
X180626346Y-110518839D01*
X180841140Y-110650466D01*
X181073889Y-110746873D01*
X181318852Y-110805683D01*
X181570000Y-110825449D01*
X181821148Y-110805683D01*
X182066111Y-110746873D01*
X182298859Y-110650466D01*
X182513659Y-110518836D01*
X182705224Y-110355224D01*
X182745710Y-110307819D01*
X182804216Y-110269627D01*
X182874084Y-110269128D01*
X182933130Y-110306482D01*
X182934235Y-110307756D01*
X182974775Y-110355223D01*
X182974776Y-110355224D01*
X183166343Y-110518838D01*
X183166346Y-110518839D01*
X183381140Y-110650466D01*
X183613889Y-110746873D01*
X183858852Y-110805683D01*
X184110000Y-110825449D01*
X184361148Y-110805683D01*
X184606111Y-110746873D01*
X184838859Y-110650466D01*
X185053659Y-110518836D01*
X185245224Y-110355224D01*
X185285710Y-110307819D01*
X185344216Y-110269627D01*
X185414084Y-110269128D01*
X185473130Y-110306482D01*
X185474235Y-110307756D01*
X185514775Y-110355223D01*
X185514776Y-110355224D01*
X185706343Y-110518838D01*
X185706346Y-110518839D01*
X185921140Y-110650466D01*
X186153889Y-110746873D01*
X186398852Y-110805683D01*
X186650000Y-110825449D01*
X186901148Y-110805683D01*
X187146111Y-110746873D01*
X187378859Y-110650466D01*
X187593659Y-110518836D01*
X187785224Y-110355224D01*
X187825710Y-110307819D01*
X187884216Y-110269627D01*
X187954084Y-110269128D01*
X188013130Y-110306482D01*
X188014235Y-110307756D01*
X188054775Y-110355223D01*
X188054776Y-110355224D01*
X188246343Y-110518838D01*
X188246346Y-110518839D01*
X188461140Y-110650466D01*
X188693889Y-110746873D01*
X188938852Y-110805683D01*
X189190000Y-110825449D01*
X189441148Y-110805683D01*
X189686111Y-110746873D01*
X189918859Y-110650466D01*
X190133659Y-110518836D01*
X190325224Y-110355224D01*
X190365710Y-110307819D01*
X190424216Y-110269627D01*
X190494084Y-110269128D01*
X190553130Y-110306482D01*
X190554235Y-110307756D01*
X190594775Y-110355223D01*
X190594776Y-110355224D01*
X190786343Y-110518838D01*
X190786346Y-110518839D01*
X191001140Y-110650466D01*
X191233889Y-110746873D01*
X191478852Y-110805683D01*
X191730000Y-110825449D01*
X191981148Y-110805683D01*
X192226111Y-110746873D01*
X192458859Y-110650466D01*
X192673659Y-110518836D01*
X192865224Y-110355224D01*
X192905710Y-110307819D01*
X192964216Y-110269627D01*
X193034084Y-110269128D01*
X193093130Y-110306482D01*
X193094235Y-110307756D01*
X193134775Y-110355223D01*
X193134776Y-110355224D01*
X193326343Y-110518838D01*
X193326346Y-110518839D01*
X193541140Y-110650466D01*
X193773889Y-110746873D01*
X194018852Y-110805683D01*
X194270000Y-110825449D01*
X194521148Y-110805683D01*
X194766111Y-110746873D01*
X194998859Y-110650466D01*
X195213659Y-110518836D01*
X195405224Y-110355224D01*
X195568836Y-110163659D01*
X195700466Y-109948859D01*
X195796873Y-109716111D01*
X195855683Y-109471148D01*
X195875449Y-109220000D01*
X195855683Y-108968852D01*
X195796873Y-108723889D01*
X195700466Y-108491141D01*
X195700466Y-108491140D01*
X195568839Y-108276346D01*
X195568838Y-108276343D01*
X195478755Y-108170870D01*
X195405224Y-108084776D01*
X195278442Y-107976494D01*
X195213656Y-107921161D01*
X195213653Y-107921160D01*
X194998859Y-107789533D01*
X194766110Y-107693126D01*
X194521151Y-107634317D01*
X194270000Y-107614551D01*
X194018848Y-107634317D01*
X193773889Y-107693126D01*
X193541140Y-107789533D01*
X193326346Y-107921160D01*
X193326343Y-107921161D01*
X193134776Y-108084776D01*
X193094290Y-108132179D01*
X193035783Y-108170372D01*
X192965915Y-108170870D01*
X192906869Y-108133516D01*
X192905710Y-108132179D01*
X192865224Y-108084776D01*
X192738442Y-107976494D01*
X192673656Y-107921161D01*
X192673653Y-107921160D01*
X192458859Y-107789533D01*
X192226110Y-107693126D01*
X191981151Y-107634317D01*
X191730000Y-107614551D01*
X191478848Y-107634317D01*
X191233889Y-107693126D01*
X191001140Y-107789533D01*
X190786346Y-107921160D01*
X190786343Y-107921161D01*
X190594776Y-108084776D01*
X190554290Y-108132179D01*
X190495783Y-108170372D01*
X190425915Y-108170870D01*
X190366869Y-108133516D01*
X190365710Y-108132179D01*
X190325224Y-108084776D01*
X190198442Y-107976494D01*
X190133656Y-107921161D01*
X190133653Y-107921160D01*
X189918859Y-107789533D01*
X189686110Y-107693126D01*
X189441151Y-107634317D01*
X189190000Y-107614551D01*
X188938848Y-107634317D01*
X188693889Y-107693126D01*
X188461140Y-107789533D01*
X188246346Y-107921160D01*
X188246343Y-107921161D01*
X188054776Y-108084776D01*
X188014290Y-108132179D01*
X187955783Y-108170372D01*
X187885915Y-108170870D01*
X187826869Y-108133516D01*
X187825710Y-108132179D01*
X187785224Y-108084776D01*
X187658442Y-107976494D01*
X187593656Y-107921161D01*
X187593653Y-107921160D01*
X187378859Y-107789533D01*
X187146110Y-107693126D01*
X186901151Y-107634317D01*
X186650000Y-107614551D01*
X186398848Y-107634317D01*
X186153889Y-107693126D01*
X185921140Y-107789533D01*
X185706346Y-107921160D01*
X185706343Y-107921161D01*
X185514776Y-108084776D01*
X185474290Y-108132179D01*
X185415783Y-108170372D01*
X185345915Y-108170870D01*
X185286869Y-108133516D01*
X185285710Y-108132179D01*
X185245224Y-108084776D01*
X185118442Y-107976494D01*
X185053656Y-107921161D01*
X185053653Y-107921160D01*
X184838859Y-107789533D01*
X184606110Y-107693126D01*
X184361151Y-107634317D01*
X184110000Y-107614551D01*
X183858848Y-107634317D01*
X183613889Y-107693126D01*
X183381140Y-107789533D01*
X183166346Y-107921160D01*
X183166343Y-107921161D01*
X182974776Y-108084776D01*
X182934290Y-108132179D01*
X182875783Y-108170372D01*
X182805915Y-108170870D01*
X182746869Y-108133516D01*
X182745710Y-108132179D01*
X182705224Y-108084776D01*
X182578442Y-107976494D01*
X182513656Y-107921161D01*
X182513653Y-107921160D01*
X182298859Y-107789533D01*
X182066110Y-107693126D01*
X181821151Y-107634317D01*
X181570000Y-107614551D01*
X181318848Y-107634317D01*
X181073889Y-107693126D01*
X180841140Y-107789533D01*
X180626346Y-107921160D01*
X180626343Y-107921161D01*
X180434776Y-108084776D01*
X180394290Y-108132179D01*
X180335783Y-108170372D01*
X180265915Y-108170870D01*
X180206869Y-108133516D01*
X180205710Y-108132179D01*
X180165224Y-108084776D01*
X180038442Y-107976494D01*
X179973656Y-107921161D01*
X179973653Y-107921160D01*
X179758859Y-107789533D01*
X179526110Y-107693126D01*
X179281151Y-107634317D01*
X179030000Y-107614551D01*
X178778848Y-107634317D01*
X178533889Y-107693126D01*
X178301140Y-107789533D01*
X178086346Y-107921160D01*
X178086343Y-107921161D01*
X177894776Y-108084776D01*
X177731161Y-108276343D01*
X177731160Y-108276346D01*
X177599533Y-108491140D01*
X177503126Y-108723889D01*
X177444317Y-108968848D01*
X177424551Y-109220000D01*
X124960500Y-109220000D01*
X124960500Y-101195748D01*
X124980185Y-101128709D01*
X125032989Y-101082954D01*
X125102147Y-101073010D01*
X125165703Y-101102035D01*
X125190226Y-101130957D01*
X125240588Y-101213140D01*
X125409311Y-101410689D01*
X125606860Y-101579412D01*
X125828372Y-101715154D01*
X125828374Y-101715154D01*
X125828376Y-101715156D01*
X125869667Y-101732259D01*
X126068390Y-101814573D01*
X126321006Y-101875221D01*
X126580000Y-101895604D01*
X126838994Y-101875221D01*
X127091610Y-101814573D01*
X127331628Y-101715154D01*
X127553140Y-101579412D01*
X127750689Y-101410689D01*
X127919412Y-101213140D01*
X128055154Y-100991628D01*
X128154573Y-100751610D01*
X128215221Y-100498994D01*
X128235604Y-100240000D01*
X128215221Y-99981006D01*
X128154573Y-99728390D01*
X128089128Y-99570393D01*
X128055156Y-99488376D01*
X128021224Y-99433004D01*
X127919412Y-99266860D01*
X127750689Y-99069311D01*
X127744809Y-99064289D01*
X127706617Y-99005787D01*
X127706116Y-98935919D01*
X127743468Y-98876872D01*
X127744702Y-98875802D01*
X127750689Y-98870689D01*
X127919412Y-98673140D01*
X128055154Y-98451628D01*
X128154573Y-98211610D01*
X128215221Y-97958994D01*
X128235604Y-97700000D01*
X128215221Y-97441006D01*
X128154573Y-97188390D01*
X128078335Y-97004336D01*
X128055156Y-96948376D01*
X128046987Y-96935046D01*
X127919412Y-96726860D01*
X127750689Y-96529311D01*
X127744809Y-96524289D01*
X127706617Y-96465787D01*
X127706116Y-96395919D01*
X127743468Y-96336872D01*
X127744702Y-96335802D01*
X127750689Y-96330689D01*
X127883854Y-96174772D01*
X127942361Y-96136580D01*
X128012229Y-96136082D01*
X128065825Y-96167624D01*
X128992236Y-97094035D01*
X129055539Y-97157338D01*
X129117666Y-97219465D01*
X129265146Y-97318009D01*
X129265159Y-97318016D01*
X129388063Y-97368923D01*
X129429034Y-97385894D01*
X129429036Y-97385894D01*
X129429041Y-97385896D01*
X129603004Y-97420499D01*
X129603007Y-97420500D01*
X129603009Y-97420500D01*
X131834743Y-97420500D01*
X131901782Y-97440185D01*
X131937361Y-97477495D01*
X131938422Y-97476772D01*
X131941035Y-97480604D01*
X131941040Y-97480610D01*
X131941041Y-97480612D01*
X132099950Y-97679877D01*
X132286783Y-97853232D01*
X132497366Y-97996805D01*
X132497371Y-97996807D01*
X132497372Y-97996808D01*
X132497373Y-97996809D01*
X132554825Y-98024476D01*
X132726992Y-98107387D01*
X132726993Y-98107387D01*
X132726996Y-98107389D01*
X132970542Y-98182513D01*
X133222565Y-98220500D01*
X133354937Y-98220500D01*
X133421976Y-98240185D01*
X133467731Y-98292989D01*
X133477675Y-98362147D01*
X133448650Y-98425703D01*
X133442618Y-98432181D01*
X132650538Y-99224260D01*
X132650537Y-99224261D01*
X132626341Y-99260475D01*
X132626340Y-99260476D01*
X132551987Y-99371752D01*
X132551984Y-99371757D01*
X132543184Y-99393006D01*
X132543183Y-99393009D01*
X132484105Y-99535633D01*
X132484103Y-99535641D01*
X132453048Y-99691764D01*
X132453049Y-99691765D01*
X132449500Y-99709608D01*
X132449500Y-99783677D01*
X132429815Y-99850716D01*
X132377011Y-99896471D01*
X132339385Y-99906897D01*
X132270748Y-99914631D01*
X132270745Y-99914631D01*
X132100476Y-99974211D01*
X131947737Y-100070184D01*
X131820184Y-100197737D01*
X131724211Y-100350476D01*
X131664631Y-100520745D01*
X131664630Y-100520750D01*
X131649500Y-100655039D01*
X131649500Y-102544960D01*
X131664630Y-102679249D01*
X131664631Y-102679254D01*
X131724211Y-102849523D01*
X131758917Y-102904756D01*
X131820184Y-103002262D01*
X131894357Y-103076435D01*
X131927841Y-103137759D01*
X131922856Y-103207450D01*
X131914063Y-103226115D01*
X131813607Y-103400111D01*
X131720492Y-103637362D01*
X131720490Y-103637369D01*
X131663777Y-103885845D01*
X131644732Y-104139995D01*
X131644732Y-104140004D01*
X131663777Y-104394154D01*
X131720490Y-104642630D01*
X131720492Y-104642637D01*
X131813608Y-104879890D01*
X131827463Y-104903887D01*
X131941041Y-105100612D01*
X132099950Y-105299877D01*
X132286783Y-105473232D01*
X132497366Y-105616805D01*
X132497371Y-105616807D01*
X132497372Y-105616808D01*
X132497373Y-105616809D01*
X132568686Y-105651151D01*
X132726992Y-105727387D01*
X132726993Y-105727387D01*
X132726996Y-105727389D01*
X132970542Y-105802513D01*
X133222565Y-105840500D01*
X133477435Y-105840500D01*
X133729458Y-105802513D01*
X133973004Y-105727389D01*
X134202634Y-105616805D01*
X134413217Y-105473232D01*
X134600050Y-105299877D01*
X134758959Y-105100612D01*
X134886393Y-104879888D01*
X134965826Y-104677496D01*
X135008642Y-104622284D01*
X135074512Y-104598983D01*
X135081254Y-104598800D01*
X144458919Y-104598800D01*
X144525958Y-104618485D01*
X144571713Y-104671289D01*
X144581657Y-104740447D01*
X144573480Y-104770252D01*
X144518127Y-104903885D01*
X144518127Y-104903887D01*
X144459317Y-105148848D01*
X144439551Y-105400000D01*
X144459317Y-105651151D01*
X144518126Y-105896110D01*
X144614533Y-106128859D01*
X144746160Y-106343653D01*
X144746161Y-106343656D01*
X144746164Y-106343659D01*
X144909776Y-106535224D01*
X145058066Y-106661875D01*
X145101343Y-106698838D01*
X145101346Y-106698839D01*
X145316140Y-106830466D01*
X145548889Y-106926873D01*
X145793852Y-106985683D01*
X146045000Y-107005449D01*
X146296148Y-106985683D01*
X146541111Y-106926873D01*
X146773859Y-106830466D01*
X146988659Y-106698836D01*
X147180224Y-106535224D01*
X147220710Y-106487819D01*
X147279216Y-106449627D01*
X147349084Y-106449128D01*
X147408130Y-106486482D01*
X147409235Y-106487756D01*
X147449775Y-106535223D01*
X147449776Y-106535224D01*
X147641343Y-106698838D01*
X147641346Y-106698839D01*
X147856140Y-106830466D01*
X148088889Y-106926873D01*
X148333852Y-106985683D01*
X148585000Y-107005449D01*
X148836148Y-106985683D01*
X149081111Y-106926873D01*
X149313859Y-106830466D01*
X149528659Y-106698836D01*
X149720224Y-106535224D01*
X149760710Y-106487819D01*
X149819216Y-106449627D01*
X149889084Y-106449128D01*
X149948130Y-106486482D01*
X149949235Y-106487756D01*
X149989775Y-106535223D01*
X149989776Y-106535224D01*
X150181343Y-106698838D01*
X150181346Y-106698839D01*
X150396140Y-106830466D01*
X150628889Y-106926873D01*
X150873852Y-106985683D01*
X151125000Y-107005449D01*
X151376148Y-106985683D01*
X151621111Y-106926873D01*
X151853859Y-106830466D01*
X152068659Y-106698836D01*
X152260224Y-106535224D01*
X152300710Y-106487819D01*
X152359216Y-106449627D01*
X152429084Y-106449128D01*
X152488130Y-106486482D01*
X152489235Y-106487756D01*
X152529775Y-106535223D01*
X152529776Y-106535224D01*
X152721343Y-106698838D01*
X152721346Y-106698839D01*
X152936140Y-106830466D01*
X153168889Y-106926873D01*
X153413852Y-106985683D01*
X153665000Y-107005449D01*
X153915745Y-106985714D01*
X153984119Y-107000078D01*
X154013152Y-107021651D01*
X154676136Y-107684635D01*
X154781034Y-107789533D01*
X154801566Y-107810065D01*
X154949046Y-107908609D01*
X154949051Y-107908612D01*
X154949052Y-107908612D01*
X154949053Y-107908613D01*
X154979354Y-107921164D01*
X155112934Y-107976495D01*
X155286904Y-108011099D01*
X155286908Y-108011100D01*
X155286909Y-108011100D01*
X171906393Y-108011100D01*
X171906394Y-108011099D01*
X172080366Y-107976495D01*
X172162306Y-107942553D01*
X172244247Y-107908613D01*
X172244249Y-107908611D01*
X172244252Y-107908610D01*
X172332655Y-107849539D01*
X172332655Y-107849538D01*
X172332659Y-107849536D01*
X172391736Y-107810064D01*
X177602674Y-102599124D01*
X177663995Y-102565641D01*
X177733687Y-102570625D01*
X177784643Y-102606275D01*
X177894776Y-102735224D01*
X178028602Y-102849522D01*
X178086343Y-102898838D01*
X178086346Y-102898839D01*
X178301140Y-103030466D01*
X178412120Y-103076435D01*
X178533889Y-103126873D01*
X178778852Y-103185683D01*
X179030000Y-103205449D01*
X179281148Y-103185683D01*
X179526111Y-103126873D01*
X179758859Y-103030466D01*
X179973659Y-102898836D01*
X180165224Y-102735224D01*
X180205710Y-102687819D01*
X180264216Y-102649627D01*
X180334084Y-102649128D01*
X180393130Y-102686482D01*
X180394235Y-102687756D01*
X180426310Y-102725311D01*
X180434776Y-102735224D01*
X180626343Y-102898838D01*
X180626346Y-102898839D01*
X180841140Y-103030466D01*
X180952120Y-103076435D01*
X181073889Y-103126873D01*
X181318852Y-103185683D01*
X181570000Y-103205449D01*
X181821148Y-103185683D01*
X182066111Y-103126873D01*
X182298859Y-103030466D01*
X182513659Y-102898836D01*
X182705224Y-102735224D01*
X182745710Y-102687819D01*
X182804216Y-102649627D01*
X182874084Y-102649128D01*
X182933130Y-102686482D01*
X182934235Y-102687756D01*
X182966310Y-102725311D01*
X182974776Y-102735224D01*
X183166343Y-102898838D01*
X183166346Y-102898839D01*
X183381140Y-103030466D01*
X183492120Y-103076435D01*
X183613889Y-103126873D01*
X183858852Y-103185683D01*
X184110000Y-103205449D01*
X184361148Y-103185683D01*
X184606111Y-103126873D01*
X184838859Y-103030466D01*
X185053659Y-102898836D01*
X185245224Y-102735224D01*
X185408836Y-102543659D01*
X185540466Y-102328859D01*
X185636873Y-102096111D01*
X185695683Y-101851148D01*
X185715449Y-101600000D01*
X185695683Y-101348852D01*
X185636873Y-101103889D01*
X185636872Y-101103886D01*
X185636872Y-101103885D01*
X185581520Y-100970252D01*
X185574051Y-100900783D01*
X185605326Y-100838304D01*
X185665415Y-100802652D01*
X185696081Y-100798800D01*
X187603919Y-100798800D01*
X187670958Y-100818485D01*
X187716713Y-100871289D01*
X187726657Y-100940447D01*
X187718480Y-100970252D01*
X187663127Y-101103885D01*
X187663127Y-101103887D01*
X187604317Y-101348848D01*
X187584551Y-101600000D01*
X187604317Y-101851151D01*
X187663126Y-102096110D01*
X187759533Y-102328859D01*
X187891160Y-102543653D01*
X187891161Y-102543656D01*
X187892275Y-102544960D01*
X188054776Y-102735224D01*
X188188602Y-102849522D01*
X188246343Y-102898838D01*
X188246346Y-102898839D01*
X188461140Y-103030466D01*
X188572120Y-103076435D01*
X188693889Y-103126873D01*
X188938852Y-103185683D01*
X189190000Y-103205449D01*
X189441148Y-103185683D01*
X189686111Y-103126873D01*
X189918859Y-103030466D01*
X190133659Y-102898836D01*
X190325224Y-102735224D01*
X190365710Y-102687819D01*
X190424216Y-102649627D01*
X190494084Y-102649128D01*
X190553130Y-102686482D01*
X190554235Y-102687756D01*
X190586310Y-102725311D01*
X190594776Y-102735224D01*
X190786343Y-102898838D01*
X190786346Y-102898839D01*
X191001140Y-103030466D01*
X191112120Y-103076435D01*
X191233889Y-103126873D01*
X191478852Y-103185683D01*
X191730000Y-103205449D01*
X191981148Y-103185683D01*
X192226111Y-103126873D01*
X192458859Y-103030466D01*
X192673659Y-102898836D01*
X192674463Y-102898148D01*
X192674832Y-102897983D01*
X192677595Y-102895976D01*
X192678016Y-102896556D01*
X192738223Y-102869577D01*
X192807309Y-102880012D01*
X192842678Y-102904756D01*
X192967738Y-103029816D01*
X193041932Y-103076435D01*
X193117880Y-103124157D01*
X193120478Y-103125789D01*
X193171265Y-103143560D01*
X193290745Y-103185368D01*
X193290750Y-103185369D01*
X193381246Y-103195565D01*
X193425040Y-103200499D01*
X193425043Y-103200500D01*
X193425046Y-103200500D01*
X195114957Y-103200500D01*
X195114958Y-103200499D01*
X195182104Y-103192934D01*
X195249249Y-103185369D01*
X195249252Y-103185368D01*
X195249255Y-103185368D01*
X195419522Y-103125789D01*
X195572262Y-103029816D01*
X195699816Y-102902262D01*
X195795789Y-102749522D01*
X195855368Y-102579255D01*
X195856341Y-102570625D01*
X195862934Y-102512104D01*
X195870500Y-102444954D01*
X195870500Y-100755046D01*
X195859233Y-100655046D01*
X195855369Y-100620750D01*
X195855368Y-100620745D01*
X195795788Y-100450476D01*
X195732955Y-100350478D01*
X195699816Y-100297738D01*
X195572262Y-100170184D01*
X195506026Y-100128565D01*
X195419523Y-100074211D01*
X195249254Y-100014631D01*
X195249249Y-100014630D01*
X195114960Y-99999500D01*
X195114954Y-99999500D01*
X193425046Y-99999500D01*
X193425039Y-99999500D01*
X193290750Y-100014630D01*
X193290745Y-100014631D01*
X193120476Y-100074211D01*
X192967739Y-100170183D01*
X192842678Y-100295244D01*
X192781355Y-100328728D01*
X192711663Y-100323744D01*
X192677771Y-100303797D01*
X192677603Y-100304029D01*
X192675203Y-100302286D01*
X192674463Y-100301850D01*
X192673662Y-100301166D01*
X192673656Y-100301162D01*
X192458859Y-100169533D01*
X192230870Y-100075098D01*
X192176467Y-100031257D01*
X192154402Y-99964963D01*
X192171681Y-99897264D01*
X192190638Y-99872860D01*
X195227185Y-96836313D01*
X195288506Y-96802830D01*
X195324582Y-96800378D01*
X195540000Y-96817332D01*
X195785185Y-96798036D01*
X196024332Y-96740621D01*
X196141282Y-96692179D01*
X196251550Y-96646505D01*
X196251551Y-96646504D01*
X196251554Y-96646503D01*
X196461255Y-96517998D01*
X196648271Y-96358271D01*
X196807998Y-96171255D01*
X196936503Y-95961554D01*
X197030621Y-95734332D01*
X197088036Y-95495185D01*
X197107332Y-95250000D01*
X197088036Y-95004815D01*
X197030621Y-94765668D01*
X197011251Y-94718905D01*
X196936505Y-94538449D01*
X196936503Y-94538446D01*
X196888762Y-94460540D01*
X196808000Y-94328749D01*
X196808000Y-94328747D01*
X196748857Y-94259500D01*
X196648271Y-94141729D01*
X196476350Y-93994894D01*
X196461252Y-93981999D01*
X196461249Y-93981998D01*
X196251553Y-93853496D01*
X196251550Y-93853494D01*
X196024336Y-93759380D01*
X196024332Y-93759379D01*
X195785185Y-93701964D01*
X195785182Y-93701963D01*
X195785179Y-93701963D01*
X195540000Y-93682668D01*
X195294820Y-93701963D01*
X195294816Y-93701963D01*
X195294815Y-93701964D01*
X195175241Y-93730671D01*
X195055663Y-93759380D01*
X194828449Y-93853494D01*
X194828446Y-93853496D01*
X194618750Y-93981998D01*
X194618747Y-93981999D01*
X194431729Y-94141729D01*
X194271999Y-94328747D01*
X194271998Y-94328750D01*
X194143496Y-94538446D01*
X194143494Y-94538449D01*
X194049380Y-94765663D01*
X193991963Y-95004820D01*
X193972668Y-95250000D01*
X193989620Y-95465406D01*
X193975255Y-95533783D01*
X193953683Y-95562815D01*
X190555019Y-98961481D01*
X190493696Y-98994966D01*
X190467338Y-98997800D01*
X183183003Y-98997800D01*
X183009041Y-99032403D01*
X183009029Y-99032406D01*
X182927092Y-99066345D01*
X182927093Y-99066346D01*
X182845155Y-99100285D01*
X182756740Y-99159363D01*
X182756739Y-99159364D01*
X182697661Y-99198837D01*
X181918150Y-99978348D01*
X181856827Y-100011833D01*
X181820740Y-100014284D01*
X181570000Y-99994551D01*
X181318848Y-100014317D01*
X181073889Y-100073126D01*
X180841140Y-100169533D01*
X180626346Y-100301160D01*
X180626343Y-100301161D01*
X180434776Y-100464776D01*
X180394290Y-100512179D01*
X180335783Y-100550372D01*
X180265915Y-100550870D01*
X180206869Y-100513516D01*
X180205710Y-100512179D01*
X180194449Y-100498994D01*
X180165224Y-100464776D01*
X180031396Y-100350476D01*
X179973656Y-100301161D01*
X179973653Y-100301160D01*
X179758859Y-100169533D01*
X179526110Y-100073126D01*
X179281151Y-100014317D01*
X179030000Y-99994551D01*
X178778848Y-100014317D01*
X178533889Y-100073126D01*
X178301140Y-100169533D01*
X178086346Y-100301160D01*
X178086343Y-100301161D01*
X177894776Y-100464776D01*
X177731428Y-100656032D01*
X177672921Y-100694225D01*
X177637138Y-100699500D01*
X177239606Y-100699500D01*
X177065640Y-100734104D01*
X177065632Y-100734106D01*
X176901759Y-100801983D01*
X176901746Y-100801990D01*
X176754266Y-100900534D01*
X176754264Y-100900537D01*
X171481019Y-106173781D01*
X171419696Y-106207266D01*
X171393338Y-106210100D01*
X160327394Y-106210100D01*
X160260355Y-106190415D01*
X160214600Y-106137611D01*
X160204656Y-106068453D01*
X160212833Y-106038647D01*
X160271873Y-105896110D01*
X160285224Y-105840499D01*
X160330683Y-105651148D01*
X160350449Y-105400000D01*
X160330683Y-105148852D01*
X160271873Y-104903889D01*
X160261932Y-104879890D01*
X160175466Y-104671140D01*
X160043839Y-104456346D01*
X160043838Y-104456343D01*
X159953755Y-104350870D01*
X159880224Y-104264776D01*
X159734124Y-104139995D01*
X159688656Y-104101161D01*
X159688653Y-104101160D01*
X159523946Y-104000227D01*
X159477071Y-103948415D01*
X159465648Y-103879486D01*
X159493305Y-103815323D01*
X159551261Y-103776298D01*
X159588736Y-103770500D01*
X167354743Y-103770500D01*
X167421782Y-103790185D01*
X167457361Y-103827495D01*
X167458422Y-103826772D01*
X167461035Y-103830604D01*
X167461040Y-103830610D01*
X167461041Y-103830612D01*
X167619950Y-104029877D01*
X167806783Y-104203232D01*
X168017366Y-104346805D01*
X168017371Y-104346807D01*
X168017372Y-104346808D01*
X168017373Y-104346809D01*
X168115687Y-104394154D01*
X168246992Y-104457387D01*
X168246993Y-104457387D01*
X168246996Y-104457389D01*
X168490542Y-104532513D01*
X168742565Y-104570500D01*
X168997435Y-104570500D01*
X169249458Y-104532513D01*
X169493004Y-104457389D01*
X169722634Y-104346805D01*
X169933217Y-104203232D01*
X170120050Y-104029877D01*
X170278959Y-103830612D01*
X170406393Y-103609888D01*
X170499508Y-103372637D01*
X170556222Y-103124157D01*
X170565357Y-103002260D01*
X170575268Y-102870004D01*
X170575268Y-102869995D01*
X170560974Y-102679254D01*
X170556222Y-102615843D01*
X170499508Y-102367363D01*
X170406393Y-102130112D01*
X170333643Y-102004104D01*
X170305937Y-101956115D01*
X170289464Y-101888214D01*
X170312317Y-101822188D01*
X170325632Y-101806445D01*
X170399816Y-101732262D01*
X170495789Y-101579522D01*
X170555368Y-101409255D01*
X170570500Y-101274954D01*
X170570500Y-99385046D01*
X170559143Y-99284251D01*
X170555369Y-99250750D01*
X170555366Y-99250737D01*
X170520572Y-99151302D01*
X170517010Y-99081523D01*
X170549930Y-99022668D01*
X171416864Y-98155736D01*
X171462570Y-98087332D01*
X171480085Y-98061119D01*
X171504569Y-98024476D01*
X171515413Y-98008247D01*
X171553414Y-97916503D01*
X171583295Y-97844366D01*
X171617900Y-97670392D01*
X171617900Y-97493008D01*
X171617900Y-96520000D01*
X174922668Y-96520000D01*
X174941963Y-96765179D01*
X174941963Y-96765182D01*
X174941964Y-96765185D01*
X174969409Y-96879500D01*
X174999380Y-97004336D01*
X175093494Y-97231550D01*
X175093496Y-97231553D01*
X175221998Y-97441249D01*
X175221999Y-97441252D01*
X175222002Y-97441255D01*
X175381729Y-97628271D01*
X175465713Y-97700000D01*
X175568747Y-97788000D01*
X175568750Y-97788001D01*
X175778446Y-97916503D01*
X175778449Y-97916505D01*
X175999939Y-98008248D01*
X176005668Y-98010621D01*
X176244815Y-98068036D01*
X176490000Y-98087332D01*
X176735185Y-98068036D01*
X176974332Y-98010621D01*
X177098981Y-97958990D01*
X177201550Y-97916505D01*
X177201551Y-97916504D01*
X177201554Y-97916503D01*
X177411255Y-97787998D01*
X177598271Y-97628271D01*
X177757998Y-97441255D01*
X177886503Y-97231554D01*
X177891511Y-97219465D01*
X177965406Y-97041064D01*
X177980621Y-97004332D01*
X178038036Y-96765185D01*
X178057332Y-96520000D01*
X185082668Y-96520000D01*
X185101963Y-96765179D01*
X185101963Y-96765182D01*
X185101964Y-96765185D01*
X185129409Y-96879500D01*
X185159380Y-97004336D01*
X185253494Y-97231550D01*
X185253496Y-97231553D01*
X185381998Y-97441249D01*
X185381999Y-97441252D01*
X185382002Y-97441255D01*
X185541729Y-97628271D01*
X185625713Y-97700000D01*
X185728747Y-97788000D01*
X185728750Y-97788001D01*
X185938446Y-97916503D01*
X185938449Y-97916505D01*
X186159939Y-98008248D01*
X186165668Y-98010621D01*
X186404815Y-98068036D01*
X186650000Y-98087332D01*
X186895185Y-98068036D01*
X187134332Y-98010621D01*
X187258981Y-97958990D01*
X187361550Y-97916505D01*
X187361551Y-97916504D01*
X187361554Y-97916503D01*
X187571255Y-97787998D01*
X187758271Y-97628271D01*
X187917998Y-97441255D01*
X188046503Y-97231554D01*
X188051511Y-97219465D01*
X188125406Y-97041064D01*
X188140621Y-97004332D01*
X188198036Y-96765185D01*
X188217332Y-96520000D01*
X188198036Y-96274815D01*
X188140621Y-96035668D01*
X188134974Y-96022035D01*
X188046505Y-95808449D01*
X188046503Y-95808446D01*
X187918001Y-95598750D01*
X187918000Y-95598747D01*
X187853784Y-95523560D01*
X187758271Y-95411729D01*
X187634625Y-95306125D01*
X187571252Y-95251999D01*
X187571249Y-95251998D01*
X187361553Y-95123496D01*
X187361550Y-95123494D01*
X187134336Y-95029380D01*
X187134332Y-95029379D01*
X186895185Y-94971964D01*
X186895182Y-94971963D01*
X186895179Y-94971963D01*
X186650000Y-94952668D01*
X186404820Y-94971963D01*
X186404816Y-94971963D01*
X186404815Y-94971964D01*
X186285241Y-95000671D01*
X186165663Y-95029380D01*
X185938449Y-95123494D01*
X185938446Y-95123496D01*
X185728750Y-95251998D01*
X185728747Y-95251999D01*
X185541729Y-95411729D01*
X185381999Y-95598747D01*
X185381998Y-95598750D01*
X185253496Y-95808446D01*
X185253494Y-95808449D01*
X185159380Y-96035663D01*
X185144214Y-96098834D01*
X185124848Y-96179500D01*
X185101963Y-96274820D01*
X185082668Y-96520000D01*
X178057332Y-96520000D01*
X178038036Y-96274815D01*
X177980621Y-96035668D01*
X177974974Y-96022035D01*
X177886505Y-95808449D01*
X177886503Y-95808446D01*
X177758001Y-95598750D01*
X177758000Y-95598747D01*
X177693784Y-95523560D01*
X177598271Y-95411729D01*
X177474625Y-95306125D01*
X177411252Y-95251999D01*
X177411249Y-95251998D01*
X177201553Y-95123496D01*
X177201550Y-95123494D01*
X176974336Y-95029380D01*
X176974332Y-95029379D01*
X176735185Y-94971964D01*
X176735182Y-94971963D01*
X176735179Y-94971963D01*
X176490000Y-94952668D01*
X176244820Y-94971963D01*
X176244816Y-94971963D01*
X176244815Y-94971964D01*
X176125241Y-95000671D01*
X176005663Y-95029380D01*
X175778449Y-95123494D01*
X175778446Y-95123496D01*
X175568750Y-95251998D01*
X175568747Y-95251999D01*
X175381729Y-95411729D01*
X175221999Y-95598747D01*
X175221998Y-95598750D01*
X175093496Y-95808446D01*
X175093494Y-95808449D01*
X174999380Y-96035663D01*
X174984214Y-96098834D01*
X174964848Y-96179500D01*
X174941963Y-96274820D01*
X174922668Y-96520000D01*
X171617900Y-96520000D01*
X171617900Y-92464500D01*
X171637585Y-92397461D01*
X171690389Y-92351706D01*
X171741900Y-92340500D01*
X175147111Y-92340500D01*
X175214150Y-92360185D01*
X175241400Y-92383967D01*
X175381729Y-92548271D01*
X175526498Y-92671915D01*
X175568747Y-92708000D01*
X175568750Y-92708001D01*
X175778446Y-92836503D01*
X175778449Y-92836505D01*
X176005663Y-92930619D01*
X176005668Y-92930621D01*
X176244815Y-92988036D01*
X176490000Y-93007332D01*
X176735185Y-92988036D01*
X176974332Y-92930621D01*
X177087943Y-92883562D01*
X177201550Y-92836505D01*
X177201551Y-92836504D01*
X177201554Y-92836503D01*
X177411255Y-92707998D01*
X177598271Y-92548271D01*
X177738599Y-92383967D01*
X177797106Y-92345775D01*
X177832889Y-92340500D01*
X186249489Y-92340500D01*
X186316528Y-92360185D01*
X186362283Y-92412989D01*
X186373106Y-92474228D01*
X186363218Y-92599876D01*
X186354551Y-92709999D01*
X186374317Y-92961151D01*
X186433126Y-93206110D01*
X186529533Y-93438859D01*
X186661160Y-93653653D01*
X186661161Y-93653656D01*
X186702420Y-93701964D01*
X186824776Y-93845224D01*
X186961408Y-93961919D01*
X187016343Y-94008838D01*
X187016346Y-94008839D01*
X187231140Y-94140466D01*
X187385132Y-94204251D01*
X187463889Y-94236873D01*
X187708852Y-94295683D01*
X187960000Y-94315449D01*
X188211148Y-94295683D01*
X188456111Y-94236873D01*
X188688859Y-94140466D01*
X188896638Y-94013138D01*
X188964081Y-93994894D01*
X189030684Y-94016010D01*
X189049107Y-94031185D01*
X189157738Y-94139816D01*
X189310478Y-94235789D01*
X189405507Y-94269041D01*
X189480745Y-94295368D01*
X189480750Y-94295369D01*
X189571246Y-94305565D01*
X189615040Y-94310499D01*
X189615043Y-94310500D01*
X189615046Y-94310500D01*
X191304957Y-94310500D01*
X191304958Y-94310499D01*
X191372104Y-94302934D01*
X191439249Y-94295369D01*
X191439252Y-94295368D01*
X191439255Y-94295368D01*
X191609522Y-94235789D01*
X191762262Y-94139816D01*
X191889816Y-94012262D01*
X191985789Y-93859522D01*
X192045368Y-93689255D01*
X192049380Y-93653653D01*
X192056197Y-93593140D01*
X192060500Y-93554954D01*
X192060500Y-91865046D01*
X192049062Y-91763526D01*
X192045369Y-91730750D01*
X192045368Y-91730745D01*
X192035214Y-91701726D01*
X191985789Y-91560478D01*
X191889816Y-91407738D01*
X191762262Y-91280184D01*
X191725161Y-91256872D01*
X191609523Y-91184211D01*
X191439254Y-91124631D01*
X191439249Y-91124630D01*
X191304960Y-91109500D01*
X191304954Y-91109500D01*
X189615046Y-91109500D01*
X189615039Y-91109500D01*
X189480750Y-91124630D01*
X189480745Y-91124631D01*
X189310476Y-91184211D01*
X189157739Y-91280183D01*
X189049107Y-91388815D01*
X188987784Y-91422299D01*
X188918092Y-91417315D01*
X188896636Y-91406860D01*
X188688859Y-91279533D01*
X188456110Y-91183126D01*
X188211151Y-91124317D01*
X188022787Y-91109492D01*
X187960000Y-91104551D01*
X187959999Y-91104551D01*
X187709256Y-91124284D01*
X187640879Y-91109919D01*
X187611847Y-91088347D01*
X187264039Y-90740538D01*
X187264038Y-90740537D01*
X187203538Y-90700113D01*
X187203537Y-90700112D01*
X187116552Y-90641990D01*
X187116540Y-90641983D01*
X187024993Y-90604064D01*
X186952666Y-90574105D01*
X186952658Y-90574103D01*
X186778696Y-90539500D01*
X186778692Y-90539500D01*
X186778691Y-90539500D01*
X177832889Y-90539500D01*
X177765850Y-90519815D01*
X177738599Y-90496032D01*
X177723742Y-90478637D01*
X177598271Y-90331729D01*
X177474625Y-90226125D01*
X177411252Y-90171999D01*
X177411249Y-90171998D01*
X177201553Y-90043496D01*
X177201550Y-90043494D01*
X176974336Y-89949380D01*
X176909954Y-89933923D01*
X176735185Y-89891964D01*
X176735182Y-89891963D01*
X176735179Y-89891963D01*
X176490000Y-89872668D01*
X176244820Y-89891963D01*
X176244816Y-89891963D01*
X176244815Y-89891964D01*
X176174473Y-89908852D01*
X176005663Y-89949380D01*
X175778449Y-90043494D01*
X175778446Y-90043496D01*
X175568750Y-90171998D01*
X175568747Y-90171999D01*
X175386307Y-90327819D01*
X175381729Y-90331729D01*
X175256259Y-90478636D01*
X175241401Y-90496032D01*
X175182894Y-90534225D01*
X175147111Y-90539500D01*
X171696200Y-90539500D01*
X171629161Y-90519815D01*
X171583406Y-90467011D01*
X171572200Y-90415500D01*
X171572200Y-88811306D01*
X171572199Y-88811304D01*
X171537596Y-88637341D01*
X171537593Y-88637332D01*
X171469716Y-88473459D01*
X171469709Y-88473446D01*
X171371164Y-88325965D01*
X171371161Y-88325961D01*
X171245738Y-88200538D01*
X171245734Y-88200535D01*
X171098253Y-88101990D01*
X171098240Y-88101983D01*
X170934367Y-88034106D01*
X170934358Y-88034103D01*
X170760394Y-87999500D01*
X170760391Y-87999500D01*
X170686322Y-87999500D01*
X170619283Y-87979815D01*
X170573528Y-87927011D01*
X170563102Y-87889383D01*
X170555369Y-87820750D01*
X170555368Y-87820745D01*
X170495788Y-87650476D01*
X170482922Y-87630000D01*
X188892668Y-87630000D01*
X188911963Y-87875179D01*
X188911963Y-87875182D01*
X188911964Y-87875185D01*
X188950118Y-88034106D01*
X188969380Y-88114336D01*
X189063494Y-88341550D01*
X189063496Y-88341553D01*
X189191998Y-88551249D01*
X189191999Y-88551252D01*
X189231645Y-88597671D01*
X189351729Y-88738271D01*
X189477614Y-88845787D01*
X189538747Y-88898000D01*
X189538750Y-88898001D01*
X189748446Y-89026503D01*
X189748449Y-89026505D01*
X189952127Y-89110870D01*
X189975668Y-89120621D01*
X190214815Y-89178036D01*
X190460000Y-89197332D01*
X190705185Y-89178036D01*
X190944332Y-89120621D01*
X191098497Y-89056764D01*
X191171550Y-89026505D01*
X191171551Y-89026504D01*
X191171554Y-89026503D01*
X191381255Y-88897998D01*
X191568271Y-88738271D01*
X191727998Y-88551255D01*
X191856503Y-88341554D01*
X191859177Y-88335100D01*
X191942447Y-88134065D01*
X191950621Y-88114332D01*
X192008036Y-87875185D01*
X192027332Y-87630000D01*
X192008036Y-87384815D01*
X191950621Y-87145668D01*
X191929129Y-87093781D01*
X191856505Y-86918449D01*
X191856503Y-86918446D01*
X191780010Y-86793621D01*
X191728000Y-86708749D01*
X191728000Y-86708747D01*
X191668411Y-86638978D01*
X191568271Y-86521729D01*
X191440848Y-86412899D01*
X191381252Y-86361999D01*
X191381249Y-86361998D01*
X191171553Y-86233496D01*
X191171550Y-86233494D01*
X190944336Y-86139380D01*
X190944332Y-86139379D01*
X190705185Y-86081964D01*
X190705182Y-86081963D01*
X190705179Y-86081963D01*
X190460000Y-86062668D01*
X190214820Y-86081963D01*
X190214816Y-86081963D01*
X190214815Y-86081964D01*
X190095241Y-86110671D01*
X189975663Y-86139380D01*
X189748449Y-86233494D01*
X189748446Y-86233496D01*
X189538750Y-86361998D01*
X189538747Y-86361999D01*
X189351729Y-86521729D01*
X189191999Y-86708747D01*
X189191998Y-86708750D01*
X189063496Y-86918446D01*
X189063494Y-86918449D01*
X188969380Y-87145663D01*
X188911963Y-87384820D01*
X188892668Y-87630000D01*
X170482922Y-87630000D01*
X170399815Y-87497737D01*
X170272262Y-87370184D01*
X170119523Y-87274211D01*
X169949254Y-87214631D01*
X169949249Y-87214630D01*
X169814960Y-87199500D01*
X169814954Y-87199500D01*
X167925046Y-87199500D01*
X167925039Y-87199500D01*
X167790750Y-87214630D01*
X167790745Y-87214631D01*
X167620476Y-87274211D01*
X167467737Y-87370184D01*
X167340184Y-87497737D01*
X167244211Y-87650476D01*
X167184631Y-87820745D01*
X167184630Y-87820750D01*
X167169500Y-87955039D01*
X167169500Y-89844960D01*
X167184630Y-89979249D01*
X167184631Y-89979254D01*
X167244211Y-90149523D01*
X167340184Y-90302262D01*
X167365741Y-90327819D01*
X167399226Y-90389142D01*
X167394242Y-90458834D01*
X167352370Y-90514767D01*
X167286906Y-90539184D01*
X167278060Y-90539500D01*
X164738361Y-90539500D01*
X164671322Y-90519815D01*
X164650680Y-90503181D01*
X162074510Y-87927011D01*
X159471336Y-85323836D01*
X159471335Y-85323835D01*
X159471330Y-85323831D01*
X159412261Y-85284364D01*
X159412260Y-85284363D01*
X159323844Y-85225285D01*
X159323842Y-85225284D01*
X159241907Y-85191346D01*
X159241906Y-85191346D01*
X159159966Y-85157405D01*
X159159958Y-85157403D01*
X158985996Y-85122800D01*
X158985992Y-85122800D01*
X158985991Y-85122800D01*
X155742661Y-85122800D01*
X155675622Y-85103115D01*
X155654980Y-85086481D01*
X154055643Y-83487143D01*
X154022158Y-83425820D01*
X154027142Y-83356128D01*
X154069014Y-83300195D01*
X154095872Y-83284901D01*
X154323855Y-83190468D01*
X154323856Y-83190467D01*
X154323859Y-83190466D01*
X154538659Y-83058836D01*
X154730224Y-82895224D01*
X154770710Y-82847819D01*
X154829216Y-82809627D01*
X154899084Y-82809128D01*
X154958130Y-82846482D01*
X154959235Y-82847756D01*
X154999775Y-82895223D01*
X154999776Y-82895224D01*
X155191343Y-83058838D01*
X155191346Y-83058839D01*
X155406140Y-83190466D01*
X155611280Y-83275437D01*
X155638889Y-83286873D01*
X155883852Y-83345683D01*
X156135000Y-83365449D01*
X156386148Y-83345683D01*
X156631111Y-83286873D01*
X156863859Y-83190466D01*
X157078659Y-83058836D01*
X157270224Y-82895224D01*
X157310710Y-82847819D01*
X157369216Y-82809627D01*
X157439084Y-82809128D01*
X157498130Y-82846482D01*
X157499235Y-82847756D01*
X157539775Y-82895223D01*
X157539776Y-82895224D01*
X157731343Y-83058838D01*
X157731346Y-83058839D01*
X157946140Y-83190466D01*
X158151280Y-83275437D01*
X158178889Y-83286873D01*
X158423852Y-83345683D01*
X158675000Y-83365449D01*
X158926148Y-83345683D01*
X159171111Y-83286873D01*
X159403859Y-83190466D01*
X159618659Y-83058836D01*
X159810224Y-82895224D01*
X159973836Y-82703659D01*
X160105466Y-82488859D01*
X160201873Y-82256111D01*
X160260683Y-82011148D01*
X160280449Y-81760000D01*
X160260683Y-81508852D01*
X160205741Y-81280000D01*
X174922668Y-81280000D01*
X174941963Y-81525179D01*
X174999380Y-81764336D01*
X175093494Y-81991550D01*
X175093496Y-81991553D01*
X175221998Y-82201249D01*
X175221999Y-82201252D01*
X175276125Y-82264625D01*
X175381729Y-82388271D01*
X175499502Y-82488859D01*
X175568747Y-82548000D01*
X175568749Y-82548000D01*
X175778446Y-82676503D01*
X175778449Y-82676505D01*
X175929943Y-82739255D01*
X176005668Y-82770621D01*
X176244815Y-82828036D01*
X176490000Y-82847332D01*
X176735185Y-82828036D01*
X176974332Y-82770621D01*
X177087943Y-82723562D01*
X177201550Y-82676505D01*
X177201551Y-82676504D01*
X177201554Y-82676503D01*
X177411255Y-82547998D01*
X177598271Y-82388271D01*
X177665711Y-82309308D01*
X177724216Y-82271116D01*
X177794084Y-82270617D01*
X177853131Y-82307971D01*
X177854208Y-82309214D01*
X177921728Y-82388270D01*
X177921729Y-82388271D01*
X178108747Y-82548000D01*
X178108749Y-82548000D01*
X178318446Y-82676503D01*
X178318449Y-82676505D01*
X178469943Y-82739255D01*
X178545668Y-82770621D01*
X178784815Y-82828036D01*
X179030000Y-82847332D01*
X179275185Y-82828036D01*
X179514332Y-82770621D01*
X179627943Y-82723562D01*
X179741550Y-82676505D01*
X179741551Y-82676504D01*
X179741554Y-82676503D01*
X179951255Y-82547998D01*
X180138271Y-82388271D01*
X180297998Y-82201255D01*
X180426503Y-81991554D01*
X180520621Y-81764332D01*
X180578036Y-81525185D01*
X180597332Y-81280000D01*
X187622668Y-81280000D01*
X187641963Y-81525179D01*
X187699380Y-81764336D01*
X187793494Y-81991550D01*
X187793496Y-81991553D01*
X187921998Y-82201249D01*
X187921999Y-82201252D01*
X187976125Y-82264625D01*
X188081729Y-82388271D01*
X188199502Y-82488859D01*
X188268747Y-82548000D01*
X188268749Y-82548000D01*
X188478446Y-82676503D01*
X188478449Y-82676505D01*
X188629943Y-82739255D01*
X188705668Y-82770621D01*
X188944815Y-82828036D01*
X189190000Y-82847332D01*
X189435185Y-82828036D01*
X189674332Y-82770621D01*
X189787943Y-82723562D01*
X189901550Y-82676505D01*
X189901551Y-82676504D01*
X189901554Y-82676503D01*
X190111255Y-82547998D01*
X190298271Y-82388271D01*
X190457998Y-82201255D01*
X190586503Y-81991554D01*
X190680621Y-81764332D01*
X190738036Y-81525185D01*
X190757332Y-81280000D01*
X190738036Y-81034815D01*
X190680621Y-80795668D01*
X190645497Y-80710870D01*
X190586505Y-80568449D01*
X190586503Y-80568446D01*
X190458001Y-80358750D01*
X190458000Y-80358747D01*
X190352393Y-80235098D01*
X190298271Y-80171729D01*
X190114166Y-80014488D01*
X190111252Y-80011999D01*
X190111249Y-80011998D01*
X189901553Y-79883496D01*
X189901550Y-79883494D01*
X189674336Y-79789380D01*
X189674332Y-79789379D01*
X189435185Y-79731964D01*
X189435182Y-79731963D01*
X189435179Y-79731963D01*
X189190000Y-79712668D01*
X188944820Y-79731963D01*
X188944816Y-79731963D01*
X188944815Y-79731964D01*
X188931070Y-79735264D01*
X188705663Y-79789380D01*
X188478449Y-79883494D01*
X188478446Y-79883496D01*
X188268750Y-80011998D01*
X188268747Y-80011999D01*
X188081729Y-80171729D01*
X187921999Y-80358747D01*
X187921998Y-80358750D01*
X187793496Y-80568446D01*
X187793494Y-80568449D01*
X187699380Y-80795663D01*
X187641963Y-81034820D01*
X187622668Y-81280000D01*
X180597332Y-81280000D01*
X180578036Y-81034815D01*
X180520621Y-80795668D01*
X180485497Y-80710870D01*
X180426505Y-80568449D01*
X180426503Y-80568446D01*
X180298001Y-80358750D01*
X180298000Y-80358747D01*
X180192393Y-80235098D01*
X180138271Y-80171729D01*
X179954166Y-80014488D01*
X179951252Y-80011999D01*
X179951249Y-80011998D01*
X179741553Y-79883496D01*
X179741550Y-79883494D01*
X179514336Y-79789380D01*
X179514332Y-79789379D01*
X179275185Y-79731964D01*
X179275182Y-79731963D01*
X179275179Y-79731963D01*
X179030000Y-79712668D01*
X178784820Y-79731963D01*
X178784816Y-79731963D01*
X178784815Y-79731964D01*
X178771070Y-79735264D01*
X178545663Y-79789380D01*
X178318449Y-79883494D01*
X178318446Y-79883496D01*
X178108750Y-80011998D01*
X178108747Y-80011999D01*
X177941842Y-80154551D01*
X177921729Y-80171729D01*
X177905051Y-80191257D01*
X177854290Y-80250690D01*
X177795783Y-80288883D01*
X177725915Y-80289381D01*
X177666869Y-80252027D01*
X177665710Y-80250690D01*
X177652393Y-80235098D01*
X177598271Y-80171729D01*
X177414166Y-80014488D01*
X177411252Y-80011999D01*
X177411249Y-80011998D01*
X177201553Y-79883496D01*
X177201550Y-79883494D01*
X176974336Y-79789380D01*
X176974332Y-79789379D01*
X176735185Y-79731964D01*
X176735182Y-79731963D01*
X176735179Y-79731963D01*
X176490000Y-79712668D01*
X176244820Y-79731963D01*
X176244816Y-79731963D01*
X176244815Y-79731964D01*
X176231070Y-79735264D01*
X176005663Y-79789380D01*
X175778449Y-79883494D01*
X175778446Y-79883496D01*
X175568750Y-80011998D01*
X175568747Y-80011999D01*
X175381729Y-80171729D01*
X175221999Y-80358747D01*
X175221998Y-80358750D01*
X175093496Y-80568446D01*
X175093494Y-80568449D01*
X174999380Y-80795663D01*
X174941963Y-81034820D01*
X174922668Y-81280000D01*
X160205741Y-81280000D01*
X160201873Y-81263889D01*
X160105466Y-81031141D01*
X160105466Y-81031140D01*
X159973839Y-80816346D01*
X159973838Y-80816343D01*
X159883755Y-80710870D01*
X159810224Y-80624776D01*
X159683571Y-80516604D01*
X159618656Y-80461161D01*
X159618653Y-80461160D01*
X159403859Y-80329533D01*
X159171110Y-80233126D01*
X158926151Y-80174317D01*
X158675000Y-80154551D01*
X158423848Y-80174317D01*
X158178889Y-80233126D01*
X157946140Y-80329533D01*
X157731346Y-80461160D01*
X157731343Y-80461161D01*
X157539776Y-80624776D01*
X157499290Y-80672179D01*
X157440783Y-80710372D01*
X157370915Y-80710870D01*
X157311869Y-80673516D01*
X157310710Y-80672179D01*
X157270224Y-80624776D01*
X157143571Y-80516604D01*
X157078656Y-80461161D01*
X157078653Y-80461160D01*
X156863859Y-80329533D01*
X156631110Y-80233126D01*
X156386151Y-80174317D01*
X156135000Y-80154551D01*
X155883848Y-80174317D01*
X155638889Y-80233126D01*
X155406140Y-80329533D01*
X155191346Y-80461160D01*
X155191343Y-80461161D01*
X154999776Y-80624776D01*
X154959290Y-80672179D01*
X154900783Y-80710372D01*
X154830915Y-80710870D01*
X154771869Y-80673516D01*
X154770710Y-80672179D01*
X154730224Y-80624776D01*
X154603571Y-80516604D01*
X154538656Y-80461161D01*
X154538653Y-80461160D01*
X154323859Y-80329533D01*
X154091110Y-80233126D01*
X153846151Y-80174317D01*
X153595000Y-80154551D01*
X153343848Y-80174317D01*
X153098889Y-80233126D01*
X152866140Y-80329533D01*
X152651346Y-80461160D01*
X152651343Y-80461161D01*
X152459776Y-80624776D01*
X152419290Y-80672179D01*
X152360783Y-80710372D01*
X152290915Y-80710870D01*
X152231869Y-80673516D01*
X152230710Y-80672179D01*
X152190224Y-80624776D01*
X152063571Y-80516604D01*
X151998656Y-80461161D01*
X151998653Y-80461160D01*
X151783859Y-80329533D01*
X151551110Y-80233126D01*
X151376709Y-80191257D01*
X151323353Y-80178447D01*
X151262762Y-80143657D01*
X151230598Y-80081631D01*
X151237074Y-80012062D01*
X151280133Y-79957038D01*
X151328110Y-79936257D01*
X151411508Y-79919668D01*
X151501866Y-79901695D01*
X151583806Y-79867753D01*
X151665747Y-79833813D01*
X151665749Y-79833811D01*
X151665752Y-79833810D01*
X151754155Y-79774739D01*
X151754155Y-79774738D01*
X151754159Y-79774736D01*
X151813236Y-79735264D01*
X155786848Y-75761649D01*
X155848169Y-75728166D01*
X155884250Y-75725714D01*
X156135000Y-75745449D01*
X156386148Y-75725683D01*
X156631111Y-75666873D01*
X156863859Y-75570466D01*
X157078659Y-75438836D01*
X157270224Y-75275224D01*
X157310710Y-75227819D01*
X157369216Y-75189627D01*
X157439084Y-75189128D01*
X157498130Y-75226482D01*
X157499235Y-75227756D01*
X157539775Y-75275223D01*
X157539776Y-75275224D01*
X157731343Y-75438838D01*
X157731346Y-75438839D01*
X157946140Y-75570466D01*
X158174128Y-75664901D01*
X158178889Y-75666873D01*
X158423852Y-75725683D01*
X158675000Y-75745449D01*
X158926148Y-75725683D01*
X159171111Y-75666873D01*
X159403859Y-75570466D01*
X159618659Y-75438836D01*
X159810224Y-75275224D01*
X159973836Y-75083659D01*
X160105466Y-74868859D01*
X160201873Y-74636111D01*
X160260683Y-74391148D01*
X160280449Y-74140000D01*
X160260683Y-73888852D01*
X160201873Y-73643889D01*
X160105466Y-73411141D01*
X160105466Y-73411140D01*
X159973839Y-73196346D01*
X159973838Y-73196343D01*
X159883755Y-73090870D01*
X159810224Y-73004776D01*
X159683571Y-72896604D01*
X159618656Y-72841161D01*
X159618653Y-72841160D01*
X159403859Y-72709533D01*
X159171110Y-72613126D01*
X158926151Y-72554317D01*
X158675000Y-72534551D01*
X158423848Y-72554317D01*
X158178889Y-72613126D01*
X157946140Y-72709533D01*
X157731346Y-72841160D01*
X157731343Y-72841161D01*
X157539776Y-73004776D01*
X157499290Y-73052179D01*
X157440783Y-73090372D01*
X157370915Y-73090870D01*
X157311869Y-73053516D01*
X157310710Y-73052179D01*
X157270224Y-73004776D01*
X157143571Y-72896604D01*
X157078656Y-72841161D01*
X157078653Y-72841160D01*
X156863859Y-72709533D01*
X156631110Y-72613126D01*
X156386151Y-72554317D01*
X156135000Y-72534551D01*
X155883848Y-72554317D01*
X155638889Y-72613126D01*
X155406140Y-72709533D01*
X155191346Y-72841160D01*
X155191343Y-72841161D01*
X154999776Y-73004776D01*
X154959290Y-73052179D01*
X154900783Y-73090372D01*
X154830915Y-73090870D01*
X154771869Y-73053516D01*
X154770710Y-73052179D01*
X154730224Y-73004776D01*
X154603571Y-72896604D01*
X154538656Y-72841161D01*
X154538653Y-72841160D01*
X154323859Y-72709533D01*
X154091110Y-72613126D01*
X153846151Y-72554317D01*
X153595000Y-72534551D01*
X153343848Y-72554317D01*
X153098889Y-72613126D01*
X152866140Y-72709533D01*
X152651346Y-72841160D01*
X152651343Y-72841161D01*
X152459776Y-73004776D01*
X152419290Y-73052179D01*
X152360783Y-73090372D01*
X152290915Y-73090870D01*
X152231869Y-73053516D01*
X152230710Y-73052179D01*
X152190224Y-73004776D01*
X152063571Y-72896604D01*
X151998656Y-72841161D01*
X151998653Y-72841160D01*
X151783859Y-72709533D01*
X151551110Y-72613126D01*
X151306151Y-72554317D01*
X151055000Y-72534551D01*
X150803848Y-72554317D01*
X150558889Y-72613126D01*
X150326140Y-72709533D01*
X150111346Y-72841160D01*
X150111343Y-72841161D01*
X149919776Y-73004776D01*
X149879290Y-73052179D01*
X149820783Y-73090372D01*
X149750915Y-73090870D01*
X149691869Y-73053516D01*
X149690710Y-73052179D01*
X149650224Y-73004776D01*
X149523571Y-72896604D01*
X149458656Y-72841161D01*
X149458653Y-72841160D01*
X149243859Y-72709533D01*
X149011110Y-72613126D01*
X148766151Y-72554317D01*
X148515000Y-72534551D01*
X148263848Y-72554317D01*
X148018889Y-72613126D01*
X147786140Y-72709533D01*
X147571346Y-72841160D01*
X147571343Y-72841161D01*
X147379776Y-73004776D01*
X147339290Y-73052179D01*
X147280783Y-73090372D01*
X147210915Y-73090870D01*
X147151869Y-73053516D01*
X147150710Y-73052179D01*
X147110224Y-73004776D01*
X146983571Y-72896604D01*
X146918656Y-72841161D01*
X146918653Y-72841160D01*
X146703859Y-72709533D01*
X146471110Y-72613126D01*
X146226151Y-72554317D01*
X145975000Y-72534551D01*
X145723848Y-72554317D01*
X145478889Y-72613126D01*
X145246140Y-72709533D01*
X145031346Y-72841160D01*
X145031343Y-72841161D01*
X144839776Y-73004776D01*
X144676161Y-73196343D01*
X144676160Y-73196346D01*
X144544533Y-73411140D01*
X144448126Y-73643889D01*
X144389317Y-73888848D01*
X144369551Y-74140000D01*
X144389317Y-74391151D01*
X144448126Y-74636110D01*
X144544533Y-74868859D01*
X144676160Y-75083653D01*
X144676161Y-75083656D01*
X144676164Y-75083659D01*
X144839776Y-75275224D01*
X144988066Y-75401875D01*
X145031343Y-75438838D01*
X145031346Y-75438839D01*
X145246140Y-75570466D01*
X145474128Y-75664901D01*
X145478889Y-75666873D01*
X145723852Y-75725683D01*
X145975000Y-75745449D01*
X146226148Y-75725683D01*
X146471111Y-75666873D01*
X146703859Y-75570466D01*
X146918659Y-75438836D01*
X147110224Y-75275224D01*
X147150710Y-75227819D01*
X147209216Y-75189627D01*
X147279084Y-75189128D01*
X147338130Y-75226482D01*
X147339235Y-75227756D01*
X147379775Y-75275223D01*
X147379776Y-75275224D01*
X147571343Y-75438838D01*
X147571346Y-75438839D01*
X147786140Y-75570466D01*
X148014128Y-75664901D01*
X148018889Y-75666873D01*
X148263852Y-75725683D01*
X148515000Y-75745449D01*
X148766148Y-75725683D01*
X149011111Y-75666873D01*
X149243859Y-75570466D01*
X149458659Y-75438836D01*
X149650224Y-75275224D01*
X149690710Y-75227819D01*
X149749216Y-75189627D01*
X149819084Y-75189128D01*
X149878130Y-75226482D01*
X149879235Y-75227756D01*
X149919775Y-75275223D01*
X149919776Y-75275224D01*
X150111343Y-75438838D01*
X150111346Y-75438839D01*
X150326140Y-75570466D01*
X150554128Y-75664901D01*
X150558889Y-75666873D01*
X150803852Y-75725683D01*
X151055000Y-75745449D01*
X151306148Y-75725683D01*
X151551111Y-75666873D01*
X151783859Y-75570466D01*
X151998659Y-75438836D01*
X152190224Y-75275224D01*
X152230710Y-75227819D01*
X152289216Y-75189627D01*
X152359084Y-75189128D01*
X152418130Y-75226482D01*
X152419235Y-75227756D01*
X152459775Y-75275223D01*
X152459776Y-75275224D01*
X152651343Y-75438838D01*
X152651346Y-75438839D01*
X152866140Y-75570466D01*
X153094127Y-75664901D01*
X153148530Y-75708742D01*
X153170595Y-75775036D01*
X153153316Y-75842735D01*
X153134355Y-75867143D01*
X150902519Y-78098981D01*
X150841196Y-78132466D01*
X150814838Y-78135300D01*
X146070504Y-78135300D01*
X145896539Y-78169903D01*
X145896523Y-78169908D01*
X145780653Y-78217902D01*
X145780654Y-78217903D01*
X145732654Y-78237786D01*
X145585165Y-78336335D01*
X145585161Y-78336338D01*
X143798319Y-80123181D01*
X143736996Y-80156666D01*
X143710638Y-80159500D01*
X142590039Y-80159500D01*
X142455750Y-80174630D01*
X142455745Y-80174631D01*
X142285476Y-80234211D01*
X142132737Y-80330184D01*
X142005184Y-80457737D01*
X141909211Y-80610476D01*
X141849631Y-80780745D01*
X141849630Y-80780750D01*
X141834500Y-80915039D01*
X141834500Y-82604960D01*
X141849630Y-82739249D01*
X141849631Y-82739254D01*
X141909211Y-82909523D01*
X142005184Y-83062262D01*
X142132739Y-83189817D01*
X142185713Y-83223103D01*
X142232003Y-83275437D01*
X142242651Y-83344491D01*
X142214276Y-83408339D01*
X142207421Y-83415777D01*
X140520975Y-85102223D01*
X140459652Y-85135708D01*
X140456081Y-85136430D01*
X140390044Y-85148775D01*
X140199864Y-85222451D01*
X140199857Y-85222455D01*
X140026460Y-85329817D01*
X140026458Y-85329819D01*
X139875737Y-85467218D01*
X139752827Y-85629978D01*
X139661922Y-85812539D01*
X139661917Y-85812552D01*
X139606102Y-86008717D01*
X139587285Y-86211799D01*
X139587285Y-86211800D01*
X139606102Y-86414882D01*
X139661917Y-86611047D01*
X139661922Y-86611060D01*
X139752827Y-86793621D01*
X139875737Y-86956381D01*
X140026458Y-87093780D01*
X140026460Y-87093782D01*
X140125641Y-87155192D01*
X140199863Y-87201148D01*
X140390044Y-87274824D01*
X140590524Y-87312300D01*
X140590526Y-87312300D01*
X140794474Y-87312300D01*
X140794476Y-87312300D01*
X140994956Y-87274824D01*
X141185137Y-87201148D01*
X141358541Y-87093781D01*
X141509264Y-86956379D01*
X141632173Y-86793621D01*
X141723082Y-86611050D01*
X141778897Y-86414883D01*
X141778897Y-86414880D01*
X141779461Y-86412899D01*
X141811044Y-86359154D01*
X144134464Y-84035735D01*
X144233013Y-83888247D01*
X144252895Y-83840247D01*
X144300895Y-83724366D01*
X144335500Y-83550391D01*
X144335500Y-83460908D01*
X144355185Y-83393869D01*
X144407989Y-83348114D01*
X144418536Y-83343869D01*
X144584522Y-83285789D01*
X144737262Y-83189816D01*
X144862324Y-83064753D01*
X144923643Y-83031271D01*
X144993335Y-83036255D01*
X145027238Y-83056205D01*
X145027405Y-83055976D01*
X145029774Y-83057697D01*
X145030526Y-83058140D01*
X145031341Y-83058836D01*
X145031346Y-83058839D01*
X145246140Y-83190466D01*
X145451280Y-83275437D01*
X145478889Y-83286873D01*
X145723852Y-83345683D01*
X145975000Y-83365449D01*
X146226148Y-83345683D01*
X146471111Y-83286873D01*
X146703859Y-83190466D01*
X146918659Y-83058836D01*
X147110224Y-82895224D01*
X147150710Y-82847819D01*
X147209216Y-82809627D01*
X147279084Y-82809128D01*
X147338130Y-82846482D01*
X147339235Y-82847756D01*
X147379775Y-82895223D01*
X147379776Y-82895224D01*
X147571343Y-83058838D01*
X147571346Y-83058839D01*
X147786140Y-83190466D01*
X147991280Y-83275437D01*
X148018889Y-83286873D01*
X148263852Y-83345683D01*
X148515000Y-83365449D01*
X148765744Y-83345714D01*
X148834118Y-83360078D01*
X148863151Y-83381651D01*
X153490136Y-88008635D01*
X153583484Y-88101983D01*
X153615566Y-88134065D01*
X153763046Y-88232609D01*
X153763059Y-88232616D01*
X153885963Y-88283523D01*
X153926934Y-88300494D01*
X153969535Y-88308968D01*
X154100905Y-88335100D01*
X154100908Y-88335100D01*
X154100909Y-88335100D01*
X155907592Y-88335100D01*
X155974631Y-88354785D01*
X156020386Y-88407589D01*
X156030330Y-88476747D01*
X156001305Y-88540303D01*
X155942527Y-88578077D01*
X155936545Y-88579672D01*
X155905783Y-88587057D01*
X155713889Y-88633126D01*
X155481140Y-88729533D01*
X155266346Y-88861160D01*
X155266343Y-88861161D01*
X155074776Y-89024776D01*
X155034290Y-89072179D01*
X154975783Y-89110372D01*
X154905915Y-89110870D01*
X154846869Y-89073516D01*
X154845710Y-89072179D01*
X154832544Y-89056764D01*
X154805224Y-89024776D01*
X154656790Y-88898001D01*
X154613656Y-88861161D01*
X154613653Y-88861160D01*
X154398859Y-88729533D01*
X154166110Y-88633126D01*
X153921151Y-88574317D01*
X153732787Y-88559492D01*
X153670000Y-88554551D01*
X153669999Y-88554551D01*
X153419255Y-88574284D01*
X153350878Y-88559919D01*
X153321846Y-88538347D01*
X152518839Y-87735338D01*
X152436456Y-87680292D01*
X152436457Y-87680292D01*
X152436455Y-87680291D01*
X152371347Y-87636787D01*
X152371340Y-87636783D01*
X152289407Y-87602846D01*
X152289406Y-87602846D01*
X152207466Y-87568905D01*
X152207458Y-87568903D01*
X152033496Y-87534300D01*
X152033492Y-87534300D01*
X152033491Y-87534300D01*
X147863892Y-87534300D01*
X147686508Y-87534300D01*
X147686503Y-87534300D01*
X147512541Y-87568903D01*
X147512529Y-87568906D01*
X147430592Y-87602845D01*
X147430593Y-87602846D01*
X147348655Y-87636785D01*
X147201165Y-87735335D01*
X147201164Y-87735337D01*
X146398152Y-88538347D01*
X146336829Y-88571832D01*
X146300743Y-88574284D01*
X146050000Y-88554551D01*
X145798848Y-88574317D01*
X145553889Y-88633126D01*
X145321140Y-88729533D01*
X145106346Y-88861160D01*
X145106343Y-88861161D01*
X144914776Y-89024776D01*
X144751161Y-89216343D01*
X144751160Y-89216346D01*
X144619533Y-89431140D01*
X144523126Y-89663889D01*
X144464317Y-89908848D01*
X144444551Y-90160000D01*
X144464317Y-90411151D01*
X144523126Y-90656110D01*
X144619533Y-90888859D01*
X144751160Y-91103653D01*
X144751161Y-91103656D01*
X144778899Y-91136133D01*
X144914776Y-91295224D01*
X145020812Y-91385787D01*
X145106343Y-91458838D01*
X145106346Y-91458839D01*
X145321140Y-91590466D01*
X145457298Y-91646864D01*
X145553889Y-91686873D01*
X145798852Y-91745683D01*
X146050000Y-91765449D01*
X146301148Y-91745683D01*
X146546111Y-91686873D01*
X146778859Y-91590466D01*
X146993659Y-91458836D01*
X147185224Y-91295224D01*
X147225710Y-91247819D01*
X147284216Y-91209627D01*
X147354084Y-91209128D01*
X147413130Y-91246482D01*
X147414235Y-91247756D01*
X147439625Y-91277484D01*
X147454776Y-91295224D01*
X147646343Y-91458838D01*
X147646346Y-91458839D01*
X147861140Y-91590466D01*
X147997298Y-91646864D01*
X148093889Y-91686873D01*
X148338852Y-91745683D01*
X148590000Y-91765449D01*
X148841148Y-91745683D01*
X149086111Y-91686873D01*
X149318859Y-91590466D01*
X149533659Y-91458836D01*
X149725224Y-91295224D01*
X149765710Y-91247819D01*
X149824216Y-91209627D01*
X149894084Y-91209128D01*
X149953130Y-91246482D01*
X149954235Y-91247756D01*
X149979625Y-91277484D01*
X149994776Y-91295224D01*
X150186343Y-91458838D01*
X150186346Y-91458839D01*
X150401140Y-91590466D01*
X150537298Y-91646864D01*
X150633889Y-91686873D01*
X150878852Y-91745683D01*
X151130000Y-91765449D01*
X151381148Y-91745683D01*
X151626111Y-91686873D01*
X151858859Y-91590466D01*
X152073659Y-91458836D01*
X152265224Y-91295224D01*
X152305710Y-91247819D01*
X152364216Y-91209627D01*
X152434084Y-91209128D01*
X152493130Y-91246482D01*
X152494235Y-91247756D01*
X152519625Y-91277484D01*
X152534776Y-91295224D01*
X152726343Y-91458838D01*
X152726346Y-91458839D01*
X152941140Y-91590466D01*
X153077298Y-91646864D01*
X153173889Y-91686873D01*
X153418852Y-91745683D01*
X153670000Y-91765449D01*
X153921148Y-91745683D01*
X154166111Y-91686873D01*
X154398859Y-91590466D01*
X154613659Y-91458836D01*
X154805224Y-91295224D01*
X154845710Y-91247819D01*
X154904216Y-91209627D01*
X154974084Y-91209128D01*
X155033130Y-91246482D01*
X155034235Y-91247756D01*
X155059625Y-91277484D01*
X155074776Y-91295224D01*
X155266343Y-91458838D01*
X155266346Y-91458839D01*
X155481140Y-91590466D01*
X155617298Y-91646864D01*
X155713889Y-91686873D01*
X155958852Y-91745683D01*
X156210000Y-91765449D01*
X156461148Y-91745683D01*
X156706111Y-91686873D01*
X156938859Y-91590466D01*
X157153659Y-91458836D01*
X157345224Y-91295224D01*
X157385710Y-91247819D01*
X157444216Y-91209627D01*
X157514084Y-91209128D01*
X157573130Y-91246482D01*
X157574235Y-91247756D01*
X157599625Y-91277484D01*
X157614776Y-91295224D01*
X157806343Y-91458838D01*
X157806346Y-91458839D01*
X158021140Y-91590466D01*
X158157298Y-91646864D01*
X158253889Y-91686873D01*
X158498852Y-91745683D01*
X158750000Y-91765449D01*
X158956931Y-91749162D01*
X159025305Y-91763526D01*
X159075062Y-91812577D01*
X159090401Y-91880742D01*
X159066453Y-91946379D01*
X159054338Y-91960461D01*
X155510540Y-95504258D01*
X155510534Y-95504265D01*
X155473704Y-95559387D01*
X155473704Y-95559388D01*
X155411985Y-95651755D01*
X155378046Y-95733693D01*
X155344106Y-95815629D01*
X155344103Y-95815641D01*
X155309500Y-95989603D01*
X155309500Y-96387138D01*
X155289815Y-96454177D01*
X155266032Y-96481427D01*
X155209968Y-96529311D01*
X155074776Y-96644776D01*
X155034290Y-96692179D01*
X154975783Y-96730372D01*
X154905915Y-96730870D01*
X154846869Y-96693516D01*
X154845710Y-96692179D01*
X154805224Y-96644776D01*
X154656790Y-96518001D01*
X154613656Y-96481161D01*
X154613653Y-96481160D01*
X154398859Y-96349533D01*
X154166110Y-96253126D01*
X153921151Y-96194317D01*
X153728867Y-96179184D01*
X153670000Y-96174551D01*
X153669999Y-96174551D01*
X153419255Y-96194284D01*
X153350878Y-96179919D01*
X153321846Y-96158347D01*
X152048839Y-94885338D01*
X152048838Y-94885337D01*
X152025526Y-94869761D01*
X151956221Y-94823453D01*
X151956219Y-94823452D01*
X151956219Y-94823451D01*
X151901344Y-94786785D01*
X151901342Y-94786784D01*
X151819407Y-94752846D01*
X151819406Y-94752846D01*
X151737466Y-94718905D01*
X151737458Y-94718903D01*
X151563496Y-94684300D01*
X151563492Y-94684300D01*
X151563491Y-94684300D01*
X146370862Y-94684300D01*
X146303823Y-94664615D01*
X146283181Y-94647981D01*
X142113839Y-90478638D01*
X142113838Y-90478637D01*
X142040286Y-90429492D01*
X142040287Y-90429492D01*
X142040285Y-90429491D01*
X141966347Y-90380087D01*
X141966340Y-90380083D01*
X141867140Y-90338994D01*
X141802466Y-90312205D01*
X141802458Y-90312203D01*
X141628496Y-90277600D01*
X141628492Y-90277600D01*
X141628491Y-90277600D01*
X135837562Y-90277600D01*
X135770523Y-90257915D01*
X135749881Y-90241281D01*
X134889141Y-89380540D01*
X134889138Y-89380537D01*
X134814250Y-89330499D01*
X134741644Y-89281985D01*
X134741642Y-89281984D01*
X134650686Y-89244310D01*
X134650677Y-89244302D01*
X134650676Y-89244306D01*
X134650666Y-89244302D01*
X134649246Y-89243713D01*
X134643288Y-89241245D01*
X134588888Y-89197399D01*
X134566830Y-89131103D01*
X134584115Y-89063405D01*
X134603070Y-89039007D01*
X134609816Y-89032262D01*
X134705789Y-88879522D01*
X134765368Y-88709255D01*
X134780500Y-88574954D01*
X134780500Y-86685046D01*
X134772163Y-86611050D01*
X134765369Y-86550750D01*
X134765368Y-86550745D01*
X134717827Y-86414882D01*
X134705789Y-86380478D01*
X134698772Y-86369311D01*
X134666582Y-86318080D01*
X134609816Y-86227738D01*
X134482262Y-86100184D01*
X134453265Y-86081964D01*
X134329523Y-86004211D01*
X134159254Y-85944631D01*
X134159249Y-85944630D01*
X134024960Y-85929500D01*
X134024954Y-85929500D01*
X132135046Y-85929500D01*
X132135039Y-85929500D01*
X132000750Y-85944630D01*
X132000745Y-85944631D01*
X131830476Y-86004211D01*
X131677737Y-86100184D01*
X131550184Y-86227737D01*
X131454210Y-86380478D01*
X131417239Y-86486137D01*
X131394632Y-86550745D01*
X131394631Y-86550747D01*
X131392635Y-86556454D01*
X131351913Y-86613230D01*
X131286961Y-86638978D01*
X131275593Y-86639500D01*
X128033369Y-86639500D01*
X127966330Y-86619815D01*
X127927641Y-86580289D01*
X127919412Y-86566860D01*
X127750689Y-86369311D01*
X127553140Y-86200588D01*
X127331628Y-86064846D01*
X127331627Y-86064845D01*
X127331623Y-86064843D01*
X127165627Y-85996086D01*
X127091610Y-85965427D01*
X127091611Y-85965427D01*
X126941964Y-85929500D01*
X126838994Y-85904779D01*
X126838992Y-85904778D01*
X126838991Y-85904778D01*
X126580000Y-85884396D01*
X126321009Y-85904778D01*
X126068389Y-85965427D01*
X125828376Y-86064843D01*
X125606859Y-86200588D01*
X125409311Y-86369311D01*
X125240585Y-86566862D01*
X125240584Y-86566864D01*
X125190227Y-86649041D01*
X125138416Y-86695916D01*
X125069486Y-86707339D01*
X125005323Y-86679682D01*
X124966298Y-86621726D01*
X124960500Y-86584251D01*
X124960500Y-72379500D01*
X124980185Y-72312461D01*
X125032989Y-72266706D01*
X125084500Y-72255500D01*
X197495500Y-72255500D01*
X197562539Y-72275185D01*
G37*
%TD.AperFunction*%
%TD*%
M02*
