%TF.GenerationSoftware,KiCad,Pcbnew,8.0.2-1*%
%TF.CreationDate,2024-08-04T09:43:41-04:00*%
%TF.ProjectId,stack_controller,73746163-6b5f-4636-9f6e-74726f6c6c65,rev?*%
%TF.SameCoordinates,Original*%
%TF.FileFunction,Soldermask,Bot*%
%TF.FilePolarity,Negative*%
%FSLAX46Y46*%
G04 Gerber Fmt 4.6, Leading zero omitted, Abs format (unit mm)*
G04 Created by KiCad (PCBNEW 8.0.2-1) date 2024-08-04 09:43:41*
%MOMM*%
%LPD*%
G01*
G04 APERTURE LIST*
%ADD10C,1.524000*%
%ADD11R,1.600000X1.600000*%
%ADD12O,1.600000X1.600000*%
%ADD13R,1.700000X1.700000*%
%ADD14O,1.700000X1.700000*%
G04 APERTURE END LIST*
D10*
%TO.C,U40*%
X179376000Y-128268000D03*
X184456000Y-128268000D03*
X179376000Y-130808000D03*
X181916000Y-130808000D03*
X186996000Y-128268000D03*
X192076000Y-128268000D03*
%TD*%
%TO.C,U44*%
X179296000Y-159398000D03*
X184376000Y-159398000D03*
X179296000Y-161938000D03*
X181836000Y-161938000D03*
X186916000Y-159398000D03*
X191996000Y-159398000D03*
%TD*%
D11*
%TO.C,U15*%
X81052000Y-78415000D03*
D12*
X81052000Y-80955000D03*
X81052000Y-83495000D03*
X81052000Y-86035000D03*
X81052000Y-88575000D03*
X81052000Y-91115000D03*
X81052000Y-93655000D03*
X81052000Y-96195000D03*
X88672000Y-96195000D03*
X88672000Y-93655000D03*
X88672000Y-91115000D03*
X88672000Y-88575000D03*
X88672000Y-86035000D03*
X88672000Y-83495000D03*
X88672000Y-80955000D03*
X88672000Y-78415000D03*
%TD*%
D11*
%TO.C,U8*%
X62230000Y-25400000D03*
D12*
X59690000Y-25400000D03*
X57150000Y-25400000D03*
X54610000Y-25400000D03*
X52070000Y-25400000D03*
X49530000Y-25400000D03*
X46990000Y-25400000D03*
X44450000Y-25400000D03*
X41910000Y-25400000D03*
X39370000Y-25400000D03*
X39370000Y-33020000D03*
X41910000Y-33020000D03*
X44450000Y-33020000D03*
X46990000Y-33020000D03*
X49530000Y-33020000D03*
X52070000Y-33020000D03*
X54610000Y-33020000D03*
X57150000Y-33020000D03*
X59690000Y-33020000D03*
X62230000Y-33020000D03*
%TD*%
D11*
%TO.C,U11*%
X198496000Y-68321000D03*
D12*
X195956000Y-68321000D03*
X193416000Y-68321000D03*
X190876000Y-68321000D03*
X188336000Y-68321000D03*
X185796000Y-68321000D03*
X183256000Y-68321000D03*
X180716000Y-68321000D03*
X178176000Y-68321000D03*
X175636000Y-68321000D03*
X173096000Y-68321000D03*
X170556000Y-68321000D03*
X168016000Y-68321000D03*
X165476000Y-68321000D03*
X165476000Y-83561000D03*
X168016000Y-83561000D03*
X170556000Y-83561000D03*
X173096000Y-83561000D03*
X175636000Y-83561000D03*
X178176000Y-83561000D03*
X180716000Y-83561000D03*
X183256000Y-83561000D03*
X185796000Y-83561000D03*
X188336000Y-83561000D03*
X190876000Y-83561000D03*
X193416000Y-83561000D03*
X195956000Y-83561000D03*
X198496000Y-83561000D03*
%TD*%
D11*
%TO.C,U24*%
X99060000Y-138430000D03*
D12*
X96520000Y-138430000D03*
X93980000Y-138430000D03*
X91440000Y-138430000D03*
X88900000Y-138430000D03*
X86360000Y-138430000D03*
X83820000Y-138430000D03*
X83820000Y-146050000D03*
X86360000Y-146050000D03*
X88900000Y-146050000D03*
X91440000Y-146050000D03*
X93980000Y-146050000D03*
X96520000Y-146050000D03*
X99060000Y-146050000D03*
%TD*%
D11*
%TO.C,U23*%
X196088000Y-33782000D03*
D12*
X198628000Y-33782000D03*
X201168000Y-33782000D03*
X203708000Y-33782000D03*
X206248000Y-33782000D03*
X208788000Y-33782000D03*
X211328000Y-33782000D03*
X213868000Y-33782000D03*
X213868000Y-26162000D03*
X211328000Y-26162000D03*
X208788000Y-26162000D03*
X206248000Y-26162000D03*
X203708000Y-26162000D03*
X201168000Y-26162000D03*
X198628000Y-26162000D03*
X196088000Y-26162000D03*
%TD*%
D11*
%TO.C,U4*%
X60716000Y-69611000D03*
D12*
X60716000Y-72151000D03*
X60716000Y-74691000D03*
X60716000Y-77231000D03*
X60716000Y-79771000D03*
X60716000Y-82311000D03*
X60716000Y-84851000D03*
X60716000Y-87391000D03*
X68336000Y-87391000D03*
X68336000Y-84851000D03*
X68336000Y-82311000D03*
X68336000Y-79771000D03*
X68336000Y-77231000D03*
X68336000Y-74691000D03*
X68336000Y-72151000D03*
X68336000Y-69611000D03*
%TD*%
D11*
%TO.C,U10*%
X235956000Y-68321000D03*
D12*
X233416000Y-68321000D03*
X230876000Y-68321000D03*
X228336000Y-68321000D03*
X225796000Y-68321000D03*
X223256000Y-68321000D03*
X220716000Y-68321000D03*
X218176000Y-68321000D03*
X215636000Y-68321000D03*
X213096000Y-68321000D03*
X210556000Y-68321000D03*
X208016000Y-68321000D03*
X205476000Y-68321000D03*
X202936000Y-68321000D03*
X202936000Y-83561000D03*
X205476000Y-83561000D03*
X208016000Y-83561000D03*
X210556000Y-83561000D03*
X213096000Y-83561000D03*
X215636000Y-83561000D03*
X218176000Y-83561000D03*
X220716000Y-83561000D03*
X223256000Y-83561000D03*
X225796000Y-83561000D03*
X228336000Y-83561000D03*
X230876000Y-83561000D03*
X233416000Y-83561000D03*
X235956000Y-83561000D03*
%TD*%
D10*
%TO.C,U39*%
X179376000Y-120268000D03*
X184456000Y-120268000D03*
X179376000Y-122808000D03*
X181916000Y-122808000D03*
X186996000Y-120268000D03*
X192076000Y-120268000D03*
%TD*%
%TO.C,U37*%
X136104000Y-140444000D03*
X141184000Y-140444000D03*
X136104000Y-142984000D03*
X138644000Y-142984000D03*
X143724000Y-140444000D03*
X148804000Y-140444000D03*
%TD*%
D11*
%TO.C,U2*%
X92875000Y-30200000D03*
D12*
X90335000Y-30200000D03*
X87795000Y-30200000D03*
X85255000Y-30200000D03*
X82715000Y-30200000D03*
X80175000Y-30200000D03*
X77635000Y-30200000D03*
X75095000Y-30200000D03*
X75095000Y-37820000D03*
X77635000Y-37820000D03*
X80175000Y-37820000D03*
X82715000Y-37820000D03*
X85255000Y-37820000D03*
X87795000Y-37820000D03*
X90335000Y-37820000D03*
X92875000Y-37820000D03*
%TD*%
D11*
%TO.C,U25*%
X84074000Y-118200000D03*
D12*
X81534000Y-118200000D03*
X78994000Y-118200000D03*
X76454000Y-118200000D03*
X73914000Y-118200000D03*
X71374000Y-118200000D03*
X68834000Y-118200000D03*
X68834000Y-125820000D03*
X71374000Y-125820000D03*
X73914000Y-125820000D03*
X76454000Y-125820000D03*
X78994000Y-125820000D03*
X81534000Y-125820000D03*
X84074000Y-125820000D03*
%TD*%
D11*
%TO.C,U13*%
X222566000Y-124171000D03*
D12*
X222566000Y-126711000D03*
X222566000Y-129251000D03*
X222566000Y-131791000D03*
X222566000Y-134331000D03*
X222566000Y-136871000D03*
X222566000Y-139411000D03*
X230186000Y-139411000D03*
X230186000Y-136871000D03*
X230186000Y-134331000D03*
X230186000Y-131791000D03*
X230186000Y-129251000D03*
X230186000Y-126711000D03*
X230186000Y-124171000D03*
%TD*%
D11*
%TO.C,U14*%
X39634000Y-70373000D03*
D12*
X39634000Y-72913000D03*
X39634000Y-75453000D03*
X39634000Y-77993000D03*
X39634000Y-80533000D03*
X39634000Y-83073000D03*
X39634000Y-85613000D03*
X39634000Y-88153000D03*
X47254000Y-88153000D03*
X47254000Y-85613000D03*
X47254000Y-83073000D03*
X47254000Y-80533000D03*
X47254000Y-77993000D03*
X47254000Y-75453000D03*
X47254000Y-72913000D03*
X47254000Y-70373000D03*
%TD*%
D11*
%TO.C,U3*%
X48852000Y-61410000D03*
D12*
X48852000Y-58870000D03*
X48852000Y-56330000D03*
X48852000Y-53790000D03*
X48852000Y-51250000D03*
X48852000Y-48710000D03*
X48852000Y-46170000D03*
X48852000Y-43630000D03*
X41232000Y-43630000D03*
X41232000Y-46170000D03*
X41232000Y-48710000D03*
X41232000Y-51250000D03*
X41232000Y-53790000D03*
X41232000Y-56330000D03*
X41232000Y-58870000D03*
X41232000Y-61410000D03*
%TD*%
D13*
%TO.C,U5*%
X38800000Y-165197000D03*
D14*
X38800000Y-162657000D03*
X38800000Y-160117000D03*
X38800000Y-157577000D03*
X38800000Y-155037000D03*
X38800000Y-152497000D03*
X38800000Y-149957000D03*
X38800000Y-147417000D03*
X38800000Y-144877000D03*
X38800000Y-142337000D03*
X38800000Y-139797000D03*
X38800000Y-137257000D03*
X38800000Y-134717000D03*
X38800000Y-132177000D03*
X38800000Y-129637000D03*
X38800000Y-127097000D03*
X38800000Y-124557000D03*
X38800000Y-122017000D03*
X38800000Y-119477000D03*
X38800000Y-116937000D03*
X38800000Y-114397000D03*
X38800000Y-111857000D03*
X38800000Y-109317000D03*
%TD*%
D11*
%TO.C,U28*%
X93840000Y-126620000D03*
D12*
X96380000Y-126620000D03*
X98920000Y-126620000D03*
X101460000Y-126620000D03*
X104000000Y-126620000D03*
X106540000Y-126620000D03*
X109080000Y-126620000D03*
X109080000Y-119000000D03*
X106540000Y-119000000D03*
X104000000Y-119000000D03*
X101460000Y-119000000D03*
X98920000Y-119000000D03*
X96380000Y-119000000D03*
X93840000Y-119000000D03*
%TD*%
D11*
%TO.C,U1*%
X102108000Y-20828000D03*
D12*
X102108000Y-23368000D03*
X102108000Y-25908000D03*
X102108000Y-28448000D03*
X102108000Y-30988000D03*
X102108000Y-33528000D03*
X102108000Y-36068000D03*
X102108000Y-38608000D03*
X109728000Y-38608000D03*
X109728000Y-36068000D03*
X109728000Y-33528000D03*
X109728000Y-30988000D03*
X109728000Y-28448000D03*
X109728000Y-25908000D03*
X109728000Y-23368000D03*
X109728000Y-20828000D03*
%TD*%
D11*
%TO.C,U20*%
X134889000Y-67300000D03*
D12*
X137429000Y-67300000D03*
X139969000Y-67300000D03*
X142509000Y-67300000D03*
X145049000Y-67300000D03*
X147589000Y-67300000D03*
X150129000Y-67300000D03*
X152669000Y-67300000D03*
X152669000Y-59680000D03*
X150129000Y-59680000D03*
X147589000Y-59680000D03*
X145049000Y-59680000D03*
X142509000Y-59680000D03*
X139969000Y-59680000D03*
X137429000Y-59680000D03*
X134889000Y-59680000D03*
%TD*%
D11*
%TO.C,U47*%
X123890000Y-149539000D03*
D12*
X123890000Y-152079000D03*
X123890000Y-154619000D03*
X123890000Y-157159000D03*
X123890000Y-159699000D03*
X123890000Y-162239000D03*
X123890000Y-164779000D03*
X131510000Y-164779000D03*
X131510000Y-162239000D03*
X131510000Y-159699000D03*
X131510000Y-157159000D03*
X131510000Y-154619000D03*
X131510000Y-152079000D03*
X131510000Y-149539000D03*
%TD*%
D10*
%TO.C,U36*%
X136024000Y-132444000D03*
X141104000Y-132444000D03*
X136024000Y-134984000D03*
X138564000Y-134984000D03*
X143644000Y-132444000D03*
X148724000Y-132444000D03*
%TD*%
D11*
%TO.C,U6*%
X122000000Y-22300000D03*
D12*
X122000000Y-24840000D03*
X122000000Y-27380000D03*
X122000000Y-29920000D03*
X122000000Y-32460000D03*
X122000000Y-35000000D03*
X122000000Y-37540000D03*
X122000000Y-40080000D03*
X122000000Y-42620000D03*
X122000000Y-45160000D03*
X129620000Y-45160000D03*
X129620000Y-42620000D03*
X129620000Y-40080000D03*
X129620000Y-37540000D03*
X129620000Y-35000000D03*
X129620000Y-32460000D03*
X129620000Y-29920000D03*
X129620000Y-27380000D03*
X129620000Y-24840000D03*
X129620000Y-22300000D03*
%TD*%
D10*
%TO.C,U43*%
X179376000Y-151508000D03*
X184456000Y-151508000D03*
X179376000Y-154048000D03*
X181916000Y-154048000D03*
X186996000Y-151508000D03*
X192076000Y-151508000D03*
%TD*%
D11*
%TO.C,U21*%
X155971000Y-50790000D03*
D12*
X158511000Y-50790000D03*
X161051000Y-50790000D03*
X163591000Y-50790000D03*
X166131000Y-50790000D03*
X168671000Y-50790000D03*
X171211000Y-50790000D03*
X173751000Y-50790000D03*
X173751000Y-43170000D03*
X171211000Y-43170000D03*
X168671000Y-43170000D03*
X166131000Y-43170000D03*
X163591000Y-43170000D03*
X161051000Y-43170000D03*
X158511000Y-43170000D03*
X155971000Y-43170000D03*
%TD*%
D11*
%TO.C,U18*%
X43942000Y-105410000D03*
D12*
X46482000Y-105410000D03*
X49022000Y-105410000D03*
X51562000Y-105410000D03*
X54102000Y-105410000D03*
X56642000Y-105410000D03*
X59182000Y-105410000D03*
X61722000Y-105410000D03*
X64262000Y-105410000D03*
X66802000Y-105410000D03*
X66802000Y-97790000D03*
X64262000Y-97790000D03*
X61722000Y-97790000D03*
X59182000Y-97790000D03*
X56642000Y-97790000D03*
X54102000Y-97790000D03*
X51562000Y-97790000D03*
X49022000Y-97790000D03*
X46482000Y-97790000D03*
X43942000Y-97790000D03*
%TD*%
D10*
%TO.C,U45*%
X136144000Y-158396000D03*
X141224000Y-158396000D03*
X136144000Y-160936000D03*
X138684000Y-160936000D03*
X143764000Y-158396000D03*
X148844000Y-158396000D03*
%TD*%
D11*
%TO.C,U7*%
X100575000Y-67800000D03*
D12*
X103115000Y-67800000D03*
X105655000Y-67800000D03*
X108195000Y-67800000D03*
X110735000Y-67800000D03*
X113275000Y-67800000D03*
X115815000Y-67800000D03*
X118355000Y-67800000D03*
X120895000Y-67800000D03*
X123435000Y-67800000D03*
X123435000Y-60180000D03*
X120895000Y-60180000D03*
X118355000Y-60180000D03*
X115815000Y-60180000D03*
X113275000Y-60180000D03*
X110735000Y-60180000D03*
X108195000Y-60180000D03*
X105655000Y-60180000D03*
X103115000Y-60180000D03*
X100575000Y-60180000D03*
%TD*%
D13*
%TO.C,U32*%
X204099000Y-97668000D03*
D14*
X201559000Y-97668000D03*
X199019000Y-97668000D03*
X196479000Y-97668000D03*
X193939000Y-97668000D03*
X191399000Y-97668000D03*
X188859000Y-97668000D03*
X186319000Y-97668000D03*
%TD*%
D11*
%TO.C,U16*%
X115301000Y-89418000D03*
D12*
X112761000Y-89418000D03*
X110221000Y-89418000D03*
X107681000Y-89418000D03*
X105141000Y-89418000D03*
X102601000Y-89418000D03*
X100061000Y-89418000D03*
X97521000Y-89418000D03*
X97521000Y-97038000D03*
X100061000Y-97038000D03*
X102601000Y-97038000D03*
X105141000Y-97038000D03*
X107681000Y-97038000D03*
X110221000Y-97038000D03*
X112761000Y-97038000D03*
X115301000Y-97038000D03*
%TD*%
D11*
%TO.C,U31*%
X118882000Y-116375000D03*
D12*
X118882000Y-118915000D03*
X118882000Y-121455000D03*
X118882000Y-123995000D03*
X118882000Y-126535000D03*
X118882000Y-129075000D03*
X118882000Y-131615000D03*
X126502000Y-131615000D03*
X126502000Y-129075000D03*
X126502000Y-126535000D03*
X126502000Y-123995000D03*
X126502000Y-121455000D03*
X126502000Y-118915000D03*
X126502000Y-116375000D03*
%TD*%
D13*
%TO.C,U33*%
X189312500Y-52872500D03*
D14*
X191852500Y-52872500D03*
X194392500Y-52872500D03*
X196932500Y-52872500D03*
X199472500Y-52872500D03*
X202012500Y-52872500D03*
X204552500Y-52872500D03*
X207092500Y-52872500D03*
X209632500Y-52872500D03*
X212172500Y-52872500D03*
X214712500Y-52872500D03*
X217252500Y-52872500D03*
X219792500Y-52872500D03*
X222332500Y-52872500D03*
X224872500Y-52872500D03*
X227412500Y-52872500D03*
%TD*%
D10*
%TO.C,U42*%
X179376000Y-143768000D03*
X184456000Y-143768000D03*
X179376000Y-146308000D03*
X181916000Y-146308000D03*
X186996000Y-143768000D03*
X192076000Y-143768000D03*
%TD*%
%TO.C,U35*%
X136144000Y-124561500D03*
X141224000Y-124561500D03*
X136144000Y-127101500D03*
X138684000Y-127101500D03*
X143764000Y-124561500D03*
X148844000Y-124561500D03*
%TD*%
D11*
%TO.C,U9*%
X66812000Y-145542000D03*
D12*
X66812000Y-148082000D03*
X66812000Y-150622000D03*
X66812000Y-153162000D03*
X66812000Y-155702000D03*
X66812000Y-158242000D03*
X66812000Y-160782000D03*
X66812000Y-163322000D03*
X66812000Y-165862000D03*
X66812000Y-168402000D03*
X74432000Y-168402000D03*
X74432000Y-165862000D03*
X74432000Y-163322000D03*
X74432000Y-160782000D03*
X74432000Y-158242000D03*
X74432000Y-155702000D03*
X74432000Y-153162000D03*
X74432000Y-150622000D03*
X74432000Y-148082000D03*
X74432000Y-145542000D03*
%TD*%
D11*
%TO.C,U22*%
X156987000Y-32502000D03*
D12*
X159527000Y-32502000D03*
X162067000Y-32502000D03*
X164607000Y-32502000D03*
X167147000Y-32502000D03*
X169687000Y-32502000D03*
X172227000Y-32502000D03*
X174767000Y-32502000D03*
X174767000Y-24882000D03*
X172227000Y-24882000D03*
X169687000Y-24882000D03*
X167147000Y-24882000D03*
X164607000Y-24882000D03*
X162067000Y-24882000D03*
X159527000Y-24882000D03*
X156987000Y-24882000D03*
%TD*%
D11*
%TO.C,U12*%
X66040000Y-59436000D03*
D12*
X68580000Y-59436000D03*
X71120000Y-59436000D03*
X73660000Y-59436000D03*
X76200000Y-59436000D03*
X78740000Y-59436000D03*
X81280000Y-59436000D03*
X83820000Y-59436000D03*
X86360000Y-59436000D03*
X88900000Y-59436000D03*
X88900000Y-51816000D03*
X86360000Y-51816000D03*
X83820000Y-51816000D03*
X81280000Y-51816000D03*
X78740000Y-51816000D03*
X76200000Y-51816000D03*
X73660000Y-51816000D03*
X71120000Y-51816000D03*
X68580000Y-51816000D03*
X66040000Y-51816000D03*
%TD*%
D10*
%TO.C,U38*%
X136104000Y-148444000D03*
X141184000Y-148444000D03*
X136104000Y-150984000D03*
X138644000Y-150984000D03*
X143724000Y-148444000D03*
X148804000Y-148444000D03*
%TD*%
D11*
%TO.C,U17*%
X129000000Y-81300000D03*
D12*
X129000000Y-83840000D03*
X129000000Y-86380000D03*
X129000000Y-88920000D03*
X129000000Y-91460000D03*
X129000000Y-94000000D03*
X129000000Y-96540000D03*
X129000000Y-99080000D03*
X136620000Y-99080000D03*
X136620000Y-96540000D03*
X136620000Y-94000000D03*
X136620000Y-91460000D03*
X136620000Y-88920000D03*
X136620000Y-86380000D03*
X136620000Y-83840000D03*
X136620000Y-81300000D03*
%TD*%
D10*
%TO.C,U41*%
X179376000Y-136138000D03*
X184456000Y-136138000D03*
X179376000Y-138678000D03*
X181916000Y-138678000D03*
X186996000Y-136138000D03*
X192076000Y-136138000D03*
%TD*%
D11*
%TO.C,U29*%
X206679000Y-102668000D03*
D12*
X204139000Y-102668000D03*
X201599000Y-102668000D03*
X199059000Y-102668000D03*
X196519000Y-102668000D03*
X193979000Y-102668000D03*
X191439000Y-102668000D03*
X188899000Y-102668000D03*
X186359000Y-102668000D03*
X183819000Y-102668000D03*
X183819000Y-110288000D03*
X186359000Y-110288000D03*
X188899000Y-110288000D03*
X191439000Y-110288000D03*
X193979000Y-110288000D03*
X196519000Y-110288000D03*
X199059000Y-110288000D03*
X201599000Y-110288000D03*
X204139000Y-110288000D03*
X206679000Y-110288000D03*
%TD*%
D10*
%TO.C,U46*%
X136144000Y-166396000D03*
X141224000Y-166396000D03*
X136144000Y-168936000D03*
X138684000Y-168936000D03*
X143764000Y-166396000D03*
X148844000Y-166396000D03*
%TD*%
%TO.C,U34*%
X136144000Y-116994000D03*
X141224000Y-116994000D03*
X136144000Y-119534000D03*
X138684000Y-119534000D03*
X143764000Y-116994000D03*
X148844000Y-116994000D03*
%TD*%
D11*
%TO.C,U19*%
X222058000Y-93183000D03*
D12*
X222058000Y-95723000D03*
X222058000Y-98263000D03*
X222058000Y-100803000D03*
X222058000Y-103343000D03*
X222058000Y-105883000D03*
X222058000Y-108423000D03*
X229678000Y-108423000D03*
X229678000Y-105883000D03*
X229678000Y-103343000D03*
X229678000Y-100803000D03*
X229678000Y-98263000D03*
X229678000Y-95723000D03*
X229678000Y-93183000D03*
%TD*%
D11*
%TO.C,U30*%
X150368000Y-102616000D03*
D12*
X152908000Y-102616000D03*
X155448000Y-102616000D03*
X157988000Y-102616000D03*
X160528000Y-102616000D03*
X163068000Y-102616000D03*
X165608000Y-102616000D03*
X168148000Y-102616000D03*
X170688000Y-102616000D03*
X173228000Y-102616000D03*
X173228000Y-94996000D03*
X170688000Y-94996000D03*
X168148000Y-94996000D03*
X165608000Y-94996000D03*
X163068000Y-94996000D03*
X160528000Y-94996000D03*
X157988000Y-94996000D03*
X155448000Y-94996000D03*
X152908000Y-94996000D03*
X150368000Y-94996000D03*
%TD*%
D11*
%TO.C,U26*%
X110570000Y-147004000D03*
D12*
X110570000Y-149544000D03*
X110570000Y-152084000D03*
X110570000Y-154624000D03*
X110570000Y-157164000D03*
X110570000Y-159704000D03*
X110570000Y-162244000D03*
X110570000Y-164784000D03*
X110570000Y-167324000D03*
X110570000Y-169864000D03*
X118190000Y-169864000D03*
X118190000Y-167324000D03*
X118190000Y-164784000D03*
X118190000Y-162244000D03*
X118190000Y-159704000D03*
X118190000Y-157164000D03*
X118190000Y-154624000D03*
X118190000Y-152084000D03*
X118190000Y-149544000D03*
X118190000Y-147004000D03*
%TD*%
D11*
%TO.C,U27*%
X99319000Y-157200000D03*
D12*
X96779000Y-157200000D03*
X94239000Y-157200000D03*
X91699000Y-157200000D03*
X89159000Y-157200000D03*
X86619000Y-157200000D03*
X84079000Y-157200000D03*
X84079000Y-164820000D03*
X86619000Y-164820000D03*
X89159000Y-164820000D03*
X91699000Y-164820000D03*
X94239000Y-164820000D03*
X96779000Y-164820000D03*
X99319000Y-164820000D03*
%TD*%
D10*
%TO.C,R3*%
X59690000Y-146304000D03*
X59690000Y-136144000D03*
%TD*%
%TO.C,R5*%
X58928000Y-155702000D03*
X58928000Y-165862000D03*
%TD*%
%TO.C,R2*%
X51054000Y-158242000D03*
X51054000Y-168402000D03*
%TD*%
%TO.C,R6*%
X53340000Y-123444000D03*
X53340000Y-133604000D03*
%TD*%
%TO.C,R1*%
X45212000Y-148082000D03*
X45212000Y-158242000D03*
%TD*%
%TO.C,R4*%
X47498000Y-131318000D03*
X47498000Y-141478000D03*
%TD*%
M02*
