%TF.GenerationSoftware,KiCad,Pcbnew,8.0.2-1*%
%TF.CreationDate,2024-08-04T09:43:41-04:00*%
%TF.ProjectId,stack_controller,73746163-6b5f-4636-9f6e-74726f6c6c65,rev?*%
%TF.SameCoordinates,Original*%
%TF.FileFunction,Legend,Bot*%
%TF.FilePolarity,Positive*%
%FSLAX46Y46*%
G04 Gerber Fmt 4.6, Leading zero omitted, Abs format (unit mm)*
G04 Created by KiCad (PCBNEW 8.0.2-1) date 2024-08-04 09:43:41*
%MOMM*%
%LPD*%
G01*
G04 APERTURE LIST*
%ADD10C,0.100000*%
G04 APERTURE END LIST*
D10*
X59523333Y-141266580D02*
X59190000Y-141742771D01*
X58951905Y-141266580D02*
X58951905Y-142266580D01*
X58951905Y-142266580D02*
X59332857Y-142266580D01*
X59332857Y-142266580D02*
X59428095Y-142218961D01*
X59428095Y-142218961D02*
X59475714Y-142171342D01*
X59475714Y-142171342D02*
X59523333Y-142076104D01*
X59523333Y-142076104D02*
X59523333Y-141933247D01*
X59523333Y-141933247D02*
X59475714Y-141838009D01*
X59475714Y-141838009D02*
X59428095Y-141790390D01*
X59428095Y-141790390D02*
X59332857Y-141742771D01*
X59332857Y-141742771D02*
X58951905Y-141742771D01*
X59856667Y-142266580D02*
X60475714Y-142266580D01*
X60475714Y-142266580D02*
X60142381Y-141885628D01*
X60142381Y-141885628D02*
X60285238Y-141885628D01*
X60285238Y-141885628D02*
X60380476Y-141838009D01*
X60380476Y-141838009D02*
X60428095Y-141790390D01*
X60428095Y-141790390D02*
X60475714Y-141695152D01*
X60475714Y-141695152D02*
X60475714Y-141457057D01*
X60475714Y-141457057D02*
X60428095Y-141361819D01*
X60428095Y-141361819D02*
X60380476Y-141314200D01*
X60380476Y-141314200D02*
X60285238Y-141266580D01*
X60285238Y-141266580D02*
X59999524Y-141266580D01*
X59999524Y-141266580D02*
X59904286Y-141314200D01*
X59904286Y-141314200D02*
X59856667Y-141361819D01*
X59094666Y-160739419D02*
X59427999Y-160263228D01*
X59666094Y-160739419D02*
X59666094Y-159739419D01*
X59666094Y-159739419D02*
X59285142Y-159739419D01*
X59285142Y-159739419D02*
X59189904Y-159787038D01*
X59189904Y-159787038D02*
X59142285Y-159834657D01*
X59142285Y-159834657D02*
X59094666Y-159929895D01*
X59094666Y-159929895D02*
X59094666Y-160072752D01*
X59094666Y-160072752D02*
X59142285Y-160167990D01*
X59142285Y-160167990D02*
X59189904Y-160215609D01*
X59189904Y-160215609D02*
X59285142Y-160263228D01*
X59285142Y-160263228D02*
X59666094Y-160263228D01*
X58189904Y-159739419D02*
X58666094Y-159739419D01*
X58666094Y-159739419D02*
X58713713Y-160215609D01*
X58713713Y-160215609D02*
X58666094Y-160167990D01*
X58666094Y-160167990D02*
X58570856Y-160120371D01*
X58570856Y-160120371D02*
X58332761Y-160120371D01*
X58332761Y-160120371D02*
X58237523Y-160167990D01*
X58237523Y-160167990D02*
X58189904Y-160215609D01*
X58189904Y-160215609D02*
X58142285Y-160310847D01*
X58142285Y-160310847D02*
X58142285Y-160548942D01*
X58142285Y-160548942D02*
X58189904Y-160644180D01*
X58189904Y-160644180D02*
X58237523Y-160691800D01*
X58237523Y-160691800D02*
X58332761Y-160739419D01*
X58332761Y-160739419D02*
X58570856Y-160739419D01*
X58570856Y-160739419D02*
X58666094Y-160691800D01*
X58666094Y-160691800D02*
X58713713Y-160644180D01*
X51220666Y-163279419D02*
X51553999Y-162803228D01*
X51792094Y-163279419D02*
X51792094Y-162279419D01*
X51792094Y-162279419D02*
X51411142Y-162279419D01*
X51411142Y-162279419D02*
X51315904Y-162327038D01*
X51315904Y-162327038D02*
X51268285Y-162374657D01*
X51268285Y-162374657D02*
X51220666Y-162469895D01*
X51220666Y-162469895D02*
X51220666Y-162612752D01*
X51220666Y-162612752D02*
X51268285Y-162707990D01*
X51268285Y-162707990D02*
X51315904Y-162755609D01*
X51315904Y-162755609D02*
X51411142Y-162803228D01*
X51411142Y-162803228D02*
X51792094Y-162803228D01*
X50839713Y-162374657D02*
X50792094Y-162327038D01*
X50792094Y-162327038D02*
X50696856Y-162279419D01*
X50696856Y-162279419D02*
X50458761Y-162279419D01*
X50458761Y-162279419D02*
X50363523Y-162327038D01*
X50363523Y-162327038D02*
X50315904Y-162374657D01*
X50315904Y-162374657D02*
X50268285Y-162469895D01*
X50268285Y-162469895D02*
X50268285Y-162565133D01*
X50268285Y-162565133D02*
X50315904Y-162707990D01*
X50315904Y-162707990D02*
X50887332Y-163279419D01*
X50887332Y-163279419D02*
X50268285Y-163279419D01*
X53506666Y-128481419D02*
X53839999Y-128005228D01*
X54078094Y-128481419D02*
X54078094Y-127481419D01*
X54078094Y-127481419D02*
X53697142Y-127481419D01*
X53697142Y-127481419D02*
X53601904Y-127529038D01*
X53601904Y-127529038D02*
X53554285Y-127576657D01*
X53554285Y-127576657D02*
X53506666Y-127671895D01*
X53506666Y-127671895D02*
X53506666Y-127814752D01*
X53506666Y-127814752D02*
X53554285Y-127909990D01*
X53554285Y-127909990D02*
X53601904Y-127957609D01*
X53601904Y-127957609D02*
X53697142Y-128005228D01*
X53697142Y-128005228D02*
X54078094Y-128005228D01*
X52649523Y-127481419D02*
X52839999Y-127481419D01*
X52839999Y-127481419D02*
X52935237Y-127529038D01*
X52935237Y-127529038D02*
X52982856Y-127576657D01*
X52982856Y-127576657D02*
X53078094Y-127719514D01*
X53078094Y-127719514D02*
X53125713Y-127909990D01*
X53125713Y-127909990D02*
X53125713Y-128290942D01*
X53125713Y-128290942D02*
X53078094Y-128386180D01*
X53078094Y-128386180D02*
X53030475Y-128433800D01*
X53030475Y-128433800D02*
X52935237Y-128481419D01*
X52935237Y-128481419D02*
X52744761Y-128481419D01*
X52744761Y-128481419D02*
X52649523Y-128433800D01*
X52649523Y-128433800D02*
X52601904Y-128386180D01*
X52601904Y-128386180D02*
X52554285Y-128290942D01*
X52554285Y-128290942D02*
X52554285Y-128052847D01*
X52554285Y-128052847D02*
X52601904Y-127957609D01*
X52601904Y-127957609D02*
X52649523Y-127909990D01*
X52649523Y-127909990D02*
X52744761Y-127862371D01*
X52744761Y-127862371D02*
X52935237Y-127862371D01*
X52935237Y-127862371D02*
X53030475Y-127909990D01*
X53030475Y-127909990D02*
X53078094Y-127957609D01*
X53078094Y-127957609D02*
X53125713Y-128052847D01*
X45378666Y-153119419D02*
X45711999Y-152643228D01*
X45950094Y-153119419D02*
X45950094Y-152119419D01*
X45950094Y-152119419D02*
X45569142Y-152119419D01*
X45569142Y-152119419D02*
X45473904Y-152167038D01*
X45473904Y-152167038D02*
X45426285Y-152214657D01*
X45426285Y-152214657D02*
X45378666Y-152309895D01*
X45378666Y-152309895D02*
X45378666Y-152452752D01*
X45378666Y-152452752D02*
X45426285Y-152547990D01*
X45426285Y-152547990D02*
X45473904Y-152595609D01*
X45473904Y-152595609D02*
X45569142Y-152643228D01*
X45569142Y-152643228D02*
X45950094Y-152643228D01*
X44426285Y-153119419D02*
X44997713Y-153119419D01*
X44711999Y-153119419D02*
X44711999Y-152119419D01*
X44711999Y-152119419D02*
X44807237Y-152262276D01*
X44807237Y-152262276D02*
X44902475Y-152357514D01*
X44902475Y-152357514D02*
X44997713Y-152405133D01*
X47664666Y-136355419D02*
X47997999Y-135879228D01*
X48236094Y-136355419D02*
X48236094Y-135355419D01*
X48236094Y-135355419D02*
X47855142Y-135355419D01*
X47855142Y-135355419D02*
X47759904Y-135403038D01*
X47759904Y-135403038D02*
X47712285Y-135450657D01*
X47712285Y-135450657D02*
X47664666Y-135545895D01*
X47664666Y-135545895D02*
X47664666Y-135688752D01*
X47664666Y-135688752D02*
X47712285Y-135783990D01*
X47712285Y-135783990D02*
X47759904Y-135831609D01*
X47759904Y-135831609D02*
X47855142Y-135879228D01*
X47855142Y-135879228D02*
X48236094Y-135879228D01*
X46807523Y-135688752D02*
X46807523Y-136355419D01*
X47045618Y-135307800D02*
X47283713Y-136022085D01*
X47283713Y-136022085D02*
X46664666Y-136022085D01*
%TO.C,R3*%
X59690000Y-137414000D02*
X59690000Y-136779000D01*
X59690000Y-145669000D02*
X59690000Y-145034000D01*
X60960000Y-137414000D02*
X58420000Y-137414000D01*
X58420000Y-145034000D01*
X60960000Y-145034000D01*
X60960000Y-137414000D01*
%TO.C,R5*%
X58928000Y-156337000D02*
X58928000Y-156972000D01*
X58928000Y-164592000D02*
X58928000Y-165227000D01*
X57658000Y-164592000D02*
X60198000Y-164592000D01*
X60198000Y-156972000D01*
X57658000Y-156972000D01*
X57658000Y-164592000D01*
%TO.C,R2*%
X51054000Y-158877000D02*
X51054000Y-159512000D01*
X51054000Y-167132000D02*
X51054000Y-167767000D01*
X49784000Y-167132000D02*
X52324000Y-167132000D01*
X52324000Y-159512000D01*
X49784000Y-159512000D01*
X49784000Y-167132000D01*
%TO.C,R6*%
X53340000Y-124079000D02*
X53340000Y-124714000D01*
X53340000Y-132334000D02*
X53340000Y-132969000D01*
X52070000Y-132334000D02*
X54610000Y-132334000D01*
X54610000Y-124714000D01*
X52070000Y-124714000D01*
X52070000Y-132334000D01*
%TO.C,R1*%
X45212000Y-148717000D02*
X45212000Y-149352000D01*
X45212000Y-156972000D02*
X45212000Y-157607000D01*
X43942000Y-156972000D02*
X46482000Y-156972000D01*
X46482000Y-149352000D01*
X43942000Y-149352000D01*
X43942000Y-156972000D01*
%TO.C,R4*%
X47498000Y-131953000D02*
X47498000Y-132588000D01*
X47498000Y-140208000D02*
X47498000Y-140843000D01*
X46228000Y-140208000D02*
X48768000Y-140208000D01*
X48768000Y-132588000D01*
X46228000Y-132588000D01*
X46228000Y-140208000D01*
%TD*%
M02*
