M48
; DRILL file {KiCad 8.0.2-1} date 2024-08-04T09:43:52-0400
; FORMAT={-:-/ absolute / inch / decimal}
; #@! TF.CreationDate,2024-08-04T09:43:52-04:00
; #@! TF.GenerationSoftware,Kicad,Pcbnew,8.0.2-1
; #@! TF.FileFunction,Plated,1,2,PTH
FMAT,2
INCH
; #@! TA.AperFunction,Plated,PTH,ViaDrill
T1C0.0118
; #@! TA.AperFunction,Plated,PTH,ComponentDrill
T2C0.0300
; #@! TA.AperFunction,Plated,PTH,ComponentDrill
T3C0.0315
; #@! TA.AperFunction,Plated,PTH,ComponentDrill
T4C0.0394
%
G90
G05
T1
X1.4022Y-1.1546
X1.5604Y-3.7507
X1.5729Y-1.119
X1.6329Y-4.8027
X1.6832Y-2.9932
X1.6993Y-3.364
X1.7376Y-4.6055
X1.7391Y-1.5955
X1.8457Y-2.3534
X1.8539Y-4.6871
X1.9312Y-3.4218
X1.9519Y-6.1789
X1.966Y-3.7819
X1.9846Y-5.3038
X1.9924Y-1.0871
X1.9924Y-1.1992
X2.0015Y-3.4996
X2.01Y-5.5906
X2.1Y-5.36
X2.1037Y-1.6566
X2.2051Y-2.2563
X2.23Y-3.6294
X2.2323Y-2.5592
X2.3171Y-2.1215
X2.33Y-4.57
X2.3904Y-3.7299
X2.4351Y-1.0633
X2.4564Y-2.6752
X2.4564Y-2.797
X2.4763Y-4.7859
X2.5332Y-1.7177
X2.5549Y-2.4729
X2.5634Y-4.2624
X2.5696Y-2.6679
X2.6172Y-1.5692
X2.6304Y-5.36
X2.6385Y-2.4561
X2.7016Y-3.7299
X2.7481Y-1.9832
X2.7516Y-1.6154
X2.7847Y-2.8117
X2.7847Y-2.8563
X2.7898Y-5.6261
X2.8187Y-5.93
X2.9565Y-0.9483
X3.0295Y-5.236
X3.0295Y-5.7359
X3.0354Y-2.5481
X3.0982Y-5.6581
X3.1092Y-4.4143
X3.157Y-2.1154
X3.1575Y-5.7321
X3.1628Y-6.1991
X3.1683Y-6.3255
X3.1695Y-6.055
X3.1776Y-1.7604
X3.1975Y-1.8263
X3.208Y-5.7827
X3.2586Y-2.8563
X3.2626Y-5.5645
X3.268Y-5.5073
X3.2751Y-3.2054
X3.2859Y-5.275
X3.3Y-2.1175
X3.3064Y-3.08
X3.31Y-5.236
X3.4459Y-6.4338
X3.4797Y-2.4561
X3.4797Y-2.6167
X3.5Y-6.055
X3.5007Y-5.5929
X3.5102Y-6.3255
X3.5206Y-1.9082
X3.5207Y-4.6298
X3.5863Y-3.0655
X3.6124Y-2.079
X3.637Y-1.9423
X3.6592Y-4.8549
X3.6802Y-2.6195
X3.7264Y-1.778
X3.7379Y-5.2993
X3.7579Y-3.4427
X3.7837Y-3.2347
X3.8014Y-2.4198
X3.8102Y-6.1115
X3.8102Y-6.3417
X3.8216Y-3.1668
X3.8394Y-2.7182
X3.8448Y-5.6499
X3.8472Y-2.5648
X3.854Y-1.8653
X3.8785Y-3.2347
X3.8826Y-6.0504
X3.8959Y-2.6283
X3.9057Y-3.6265
X3.9102Y-6.3501
X3.9104Y-2.0192
X3.9971Y-2.3138
X4.0281Y-5.6348
X4.0672Y-6.2502
X4.0752Y-1.778
X4.0829Y-2.5758
X4.0942Y-5.6794
X4.0999Y-3.7302
X4.1089Y-3.1668
X4.117Y-2.6037
X4.1216Y-0.7512
X4.2008Y-2.8011
X4.2044Y-2.5288
X4.2398Y-2.5642
X4.3531Y-5.1219
X4.3531Y-5.4726
X4.3575Y-2.8563
X4.36Y-3.7294
X4.4156Y-0.82
X4.4615Y-2.2082
X4.5607Y-2.1175
X4.5908Y-2.947
X4.6061Y-4.4514
X4.6159Y-5.6844
X4.6469Y-5.3447
X4.6736Y-0.9506
X4.7398Y-5.5539
X4.7553Y-5.7187
X4.7795Y-2.8612
X4.7964Y-0.8119
X4.8187Y-0.7362
X4.8282Y-2.6096
X4.8398Y-2.0468
X4.8596Y-2.7797
X4.8873Y-1.7653
X4.8905Y-2.8533
X4.8994Y-0.8115
X4.9289Y-1.2983
X4.9354Y-0.6928
X4.9414Y-2.2061
X4.9449Y-6.0824
X4.9547Y-3.8204
X4.9863Y-0.7857
X4.9942Y-2.1875
X5.0676Y-2.9332
X5.0693Y-5.4214
X5.0758Y-1.9123
X5.0975Y-2.8531
X5.0997Y-5.5211
X5.1276Y-2.9235
X5.1333Y-2.7191
X5.1356Y-2.3379
X5.1845Y-0.8504
X5.256Y-1.5264
X5.2663Y-5.3582
X5.2842Y-3.3008
X5.2899Y-1.6977
X5.2968Y-1.7935
X5.3064Y-3.7008
X5.3277Y-2.8165
X5.3342Y-2.0019
X5.3716Y-1.9007
X5.4573Y-4.5262
X5.5418Y-2.09
X5.5543Y-2.1347
X5.5759Y-2.5642
X5.6136Y-3.1074
X5.6775Y-4.4143
X5.7013Y-4.5274
X5.7555Y-3.06
X5.8333Y-2.482
X5.909Y-1.8616
X5.9161Y-1.6703
X5.9273Y-1.7213
X5.9721Y-2.9235
X5.9792Y-2.045
X6.0106Y-2.4485
X6.0272Y-3.0163
X6.0592Y-1.7616
X6.0746Y-2.2213
X6.1042Y-1.5292
X6.1126Y-2.2604
X6.1734Y-2.5349
X6.2142Y-2.6851
X6.2203Y-2.8233
X6.2327Y-2.7522
X6.2399Y-2.5983
X6.2406Y-1.8975
X6.2806Y-1.1716
X6.2923Y-3.6577
X6.3406Y-2.3571
X6.3476Y-4.4544
X6.3786Y-4.6275
X6.3893Y-1.5024
X6.42Y-4.4181
X6.4212Y-2.8052
X6.4451Y-1.082
X6.5406Y-1.8864
X6.571Y-2.5998
X6.7217Y-5.5454
X6.8069Y-2.5269
X6.8377Y-4.2958
X6.8406Y-1.9323
X6.8806Y-1.1716
X6.9163Y-4.9185
X6.9482Y-1.8692
X6.9774Y-3.5611
X6.9774Y-3.6192
X7.0148Y-4.6724
X7.0508Y-4.104
X7.1413Y-1.4087
X7.1518Y-2.1311
X7.1589Y-1.7356
X7.2129Y-1.5319
X7.5517Y-3.6755
X7.7407Y-3.4185
X7.7838Y-1.6133
X7.8018Y-1.1654
X7.8148Y-3.5171
X7.8148Y-3.7343
X7.8361Y-1.4338
X7.8652Y-1.5319
X7.9622Y-2.8308
X7.99Y-2.3639
X8.0961Y-3.7737
X8.1168Y-2.4937
X8.1931Y-3.7343
X8.5371Y-4.1709
X8.5371Y-4.6543
X8.6196Y-5.7993
X8.6775Y-5.4927
X8.6785Y-3.0325
X8.75Y-1.9789
X8.8285Y-3.0773
X8.8546Y-2.2476
X8.9778Y-2.1471
X8.9896Y-3.1259
X9.0388Y-2.2301
X9.0451Y-2.8077
X9.0896Y-3.1553
X9.2896Y-3.6339
T2
X1.78Y-5.83
X1.78Y-6.23
X1.87Y-5.17
X1.87Y-5.57
X2.01Y-6.23
X2.01Y-6.63
X2.1Y-4.86
X2.1Y-5.26
X2.32Y-6.13
X2.32Y-6.53
X2.35Y-5.36
X2.35Y-5.76
X5.3553Y-5.2143
X5.3553Y-5.3143
X5.3584Y-5.5293
X5.3584Y-5.6293
X5.3584Y-5.8443
X5.3584Y-5.9443
X5.36Y-4.6061
X5.36Y-4.7061
X5.36Y-4.904
X5.36Y-5.004
X5.36Y-6.2361
X5.36Y-6.3361
X5.36Y-6.551
X5.36Y-6.651
X5.4553Y-5.3143
X5.4584Y-5.6293
X5.4584Y-5.9443
X5.46Y-4.7061
X5.46Y-5.004
X5.46Y-6.3361
X5.46Y-6.651
X5.5553Y-5.2143
X5.5584Y-5.5293
X5.5584Y-5.8443
X5.56Y-4.6061
X5.56Y-4.904
X5.56Y-6.2361
X5.56Y-6.551
X5.6553Y-5.2143
X5.6584Y-5.5293
X5.6584Y-5.8443
X5.66Y-4.6061
X5.66Y-4.904
X5.66Y-6.2361
X5.66Y-6.551
X5.8553Y-5.2143
X5.8584Y-5.5293
X5.8584Y-5.8443
X5.86Y-4.6061
X5.86Y-4.904
X5.86Y-6.2361
X5.86Y-6.551
X7.0589Y-6.2755
X7.0589Y-6.3755
X7.062Y-4.735
X7.062Y-4.835
X7.062Y-5.0499
X7.062Y-5.1499
X7.062Y-5.3598
X7.062Y-5.4598
X7.062Y-5.6602
X7.062Y-5.7602
X7.062Y-5.9649
X7.062Y-6.0649
X7.1589Y-6.3755
X7.162Y-4.835
X7.162Y-5.1499
X7.162Y-5.4598
X7.162Y-5.7602
X7.162Y-6.0649
X7.2589Y-6.2755
X7.262Y-4.735
X7.262Y-5.0499
X7.262Y-5.3598
X7.262Y-5.6602
X7.262Y-5.9649
X7.3589Y-6.2755
X7.362Y-4.735
X7.362Y-5.0499
X7.362Y-5.3598
X7.362Y-5.6602
X7.362Y-5.9649
X7.5589Y-6.2755
X7.562Y-4.735
X7.562Y-5.0499
X7.562Y-5.3598
X7.562Y-5.6602
X7.562Y-5.9649
T3
X1.55Y-1.0
X1.55Y-1.3
X1.5604Y-2.7706
X1.5604Y-2.8706
X1.5604Y-2.9706
X1.5604Y-3.0706
X1.5604Y-3.1706
X1.5604Y-3.2706
X1.5604Y-3.3706
X1.5604Y-3.4706
X1.6233Y-1.7177
X1.6233Y-1.8177
X1.6233Y-1.9177
X1.6233Y-2.0177
X1.6233Y-2.1177
X1.6233Y-2.2177
X1.6233Y-2.3177
X1.6233Y-2.4177
X1.65Y-1.0
X1.65Y-1.3
X1.73Y-3.85
X1.73Y-4.15
X1.75Y-1.0
X1.75Y-1.3
X1.83Y-3.85
X1.83Y-4.15
X1.85Y-1.0
X1.85Y-1.3
X1.8604Y-2.7706
X1.8604Y-2.8706
X1.8604Y-2.9706
X1.8604Y-3.0706
X1.8604Y-3.1706
X1.8604Y-3.2706
X1.8604Y-3.3706
X1.8604Y-3.4706
X1.9233Y-1.7177
X1.9233Y-1.8177
X1.9233Y-1.9177
X1.9233Y-2.0177
X1.9233Y-2.1177
X1.9233Y-2.2177
X1.9233Y-2.3177
X1.9233Y-2.4177
X1.93Y-3.85
X1.93Y-4.15
X1.95Y-1.0
X1.95Y-1.3
X2.03Y-3.85
X2.03Y-4.15
X2.05Y-1.0
X2.05Y-1.3
X2.13Y-3.85
X2.13Y-4.15
X2.15Y-1.0
X2.15Y-1.3
X2.23Y-3.85
X2.23Y-4.15
X2.25Y-1.0
X2.25Y-1.3
X2.33Y-3.85
X2.33Y-4.15
X2.35Y-1.0
X2.35Y-1.3
X2.3904Y-2.7406
X2.3904Y-2.8406
X2.3904Y-2.9406
X2.3904Y-3.0406
X2.3904Y-3.1406
X2.3904Y-3.2406
X2.3904Y-3.3406
X2.3904Y-3.4406
X2.43Y-3.85
X2.43Y-4.15
X2.45Y-1.0
X2.45Y-1.3
X2.53Y-3.85
X2.53Y-4.15
X2.6Y-2.04
X2.6Y-2.34
X2.63Y-3.85
X2.63Y-4.15
X2.6304Y-5.73
X2.6304Y-5.83
X2.6304Y-5.93
X2.6304Y-6.03
X2.6304Y-6.13
X2.6304Y-6.23
X2.6304Y-6.33
X2.6304Y-6.43
X2.6304Y-6.53
X2.6304Y-6.63
X2.6904Y-2.7406
X2.6904Y-2.8406
X2.6904Y-2.9406
X2.6904Y-3.0406
X2.6904Y-3.1406
X2.6904Y-3.2406
X2.6904Y-3.3406
X2.6904Y-3.4406
X2.7Y-2.04
X2.7Y-2.34
X2.71Y-4.6535
X2.71Y-4.9535
X2.8Y-2.04
X2.8Y-2.34
X2.81Y-4.6535
X2.81Y-4.9535
X2.9Y-2.04
X2.9Y-2.34
X2.91Y-4.6535
X2.91Y-4.9535
X2.9304Y-5.73
X2.9304Y-5.83
X2.9304Y-5.93
X2.9304Y-6.03
X2.9304Y-6.13
X2.9304Y-6.23
X2.9304Y-6.33
X2.9304Y-6.43
X2.9304Y-6.53
X2.9304Y-6.63
X2.9565Y-1.189
X2.9565Y-1.489
X3.0Y-2.04
X3.0Y-2.34
X3.01Y-4.6535
X3.01Y-4.9535
X3.0565Y-1.189
X3.0565Y-1.489
X3.1Y-2.04
X3.1Y-2.34
X3.11Y-4.6535
X3.11Y-4.9535
X3.1565Y-1.189
X3.1565Y-1.489
X3.191Y-3.0872
X3.191Y-3.1872
X3.191Y-3.2872
X3.191Y-3.3872
X3.191Y-3.4872
X3.191Y-3.5872
X3.191Y-3.6872
X3.191Y-3.7872
X3.2Y-2.04
X3.2Y-2.34
X3.21Y-4.6535
X3.21Y-4.9535
X3.2565Y-1.189
X3.2565Y-1.489
X3.3Y-2.04
X3.3Y-2.34
X3.3Y-5.45
X3.3Y-5.75
X3.31Y-4.6535
X3.31Y-4.9535
X3.3102Y-6.189
X3.3102Y-6.489
X3.3565Y-1.189
X3.3565Y-1.489
X3.4Y-2.04
X3.4Y-2.34
X3.4Y-5.45
X3.4Y-5.75
X3.4102Y-6.189
X3.4102Y-6.489
X3.4565Y-1.189
X3.4565Y-1.489
X3.491Y-3.0872
X3.491Y-3.1872
X3.491Y-3.2872
X3.491Y-3.3872
X3.491Y-3.4872
X3.491Y-3.5872
X3.491Y-3.6872
X3.491Y-3.7872
X3.5Y-2.04
X3.5Y-2.34
X3.5Y-5.45
X3.5Y-5.75
X3.5102Y-6.189
X3.5102Y-6.489
X3.5565Y-1.189
X3.5565Y-1.489
X3.6Y-5.45
X3.6Y-5.75
X3.6102Y-6.189
X3.6102Y-6.489
X3.6565Y-1.189
X3.6565Y-1.489
X3.6945Y-4.685
X3.6945Y-4.985
X3.7Y-5.45
X3.7Y-5.75
X3.7102Y-6.189
X3.7102Y-6.489
X3.7945Y-4.685
X3.7945Y-4.985
X3.8Y-5.45
X3.8Y-5.75
X3.8102Y-6.189
X3.8102Y-6.489
X3.8394Y-3.5204
X3.8394Y-3.8204
X3.8945Y-4.685
X3.8945Y-4.985
X3.9Y-5.45
X3.9Y-5.75
X3.9102Y-6.189
X3.9102Y-6.489
X3.9394Y-3.5204
X3.9394Y-3.8204
X3.9596Y-2.3693
X3.9596Y-2.6693
X3.9945Y-4.685
X3.9945Y-4.985
X4.02Y-0.82
X4.02Y-0.92
X4.02Y-1.02
X4.02Y-1.12
X4.02Y-1.22
X4.02Y-1.32
X4.02Y-1.42
X4.02Y-1.52
X4.0394Y-3.5204
X4.0394Y-3.8204
X4.0596Y-2.3693
X4.0596Y-2.6693
X4.0945Y-4.685
X4.0945Y-4.985
X4.1394Y-3.5204
X4.1394Y-3.8204
X4.1596Y-2.3693
X4.1596Y-2.6693
X4.1945Y-4.685
X4.1945Y-4.985
X4.2394Y-3.5204
X4.2394Y-3.8204
X4.2596Y-2.3693
X4.2596Y-2.6693
X4.2945Y-4.685
X4.2945Y-4.985
X4.32Y-0.82
X4.32Y-0.92
X4.32Y-1.02
X4.32Y-1.12
X4.32Y-1.22
X4.32Y-1.32
X4.32Y-1.42
X4.32Y-1.52
X4.3394Y-3.5204
X4.3394Y-3.8204
X4.3531Y-5.7876
X4.3531Y-5.8876
X4.3531Y-5.9876
X4.3531Y-6.0876
X4.3531Y-6.1876
X4.3531Y-6.2876
X4.3531Y-6.3876
X4.3531Y-6.4876
X4.3531Y-6.5876
X4.3531Y-6.6876
X4.3596Y-2.3693
X4.3596Y-2.6693
X4.4394Y-3.5204
X4.4394Y-3.8204
X4.4596Y-2.3693
X4.4596Y-2.6693
X4.5394Y-3.5204
X4.5394Y-3.8204
X4.5596Y-2.3693
X4.5596Y-2.6693
X4.6531Y-5.7876
X4.6531Y-5.8876
X4.6531Y-5.9876
X4.6531Y-6.0876
X4.6531Y-6.1876
X4.6531Y-6.2876
X4.6531Y-6.3876
X4.6531Y-6.4876
X4.6531Y-6.5876
X4.6531Y-6.6876
X4.6596Y-2.3693
X4.6596Y-2.6693
X4.6804Y-4.5817
X4.6804Y-4.6817
X4.6804Y-4.7817
X4.6804Y-4.8817
X4.6804Y-4.9817
X4.6804Y-5.0817
X4.6804Y-5.1817
X4.7596Y-2.3693
X4.7596Y-2.6693
X4.8031Y-0.878
X4.8031Y-0.978
X4.8031Y-1.078
X4.8031Y-1.178
X4.8031Y-1.278
X4.8031Y-1.378
X4.8031Y-1.478
X4.8031Y-1.578
X4.8031Y-1.678
X4.8031Y-1.778
X4.8596Y-2.3693
X4.8596Y-2.6693
X4.8776Y-5.8874
X4.8776Y-5.9874
X4.8776Y-6.0874
X4.8776Y-6.1874
X4.8776Y-6.2874
X4.8776Y-6.3874
X4.8776Y-6.4874
X4.9804Y-4.5817
X4.9804Y-4.6817
X4.9804Y-4.7817
X4.9804Y-4.8817
X4.9804Y-4.9817
X4.9804Y-5.0817
X4.9804Y-5.1817
X5.0787Y-3.2008
X5.0787Y-3.3008
X5.0787Y-3.4008
X5.0787Y-3.5008
X5.0787Y-3.6008
X5.0787Y-3.7008
X5.0787Y-3.8008
X5.0787Y-3.9008
X5.1031Y-0.878
X5.1031Y-0.978
X5.1031Y-1.078
X5.1031Y-1.178
X5.1031Y-1.278
X5.1031Y-1.378
X5.1031Y-1.478
X5.1031Y-1.578
X5.1031Y-1.678
X5.1031Y-1.778
X5.1776Y-5.8874
X5.1776Y-5.9874
X5.1776Y-6.0874
X5.1776Y-6.1874
X5.1776Y-6.2874
X5.1776Y-6.3874
X5.1776Y-6.4874
X5.3106Y-2.3496
X5.3106Y-2.6496
X5.3787Y-3.2008
X5.3787Y-3.3008
X5.3787Y-3.4008
X5.3787Y-3.5008
X5.3787Y-3.6008
X5.3787Y-3.7008
X5.3787Y-3.8008
X5.3787Y-3.9008
X5.4106Y-2.3496
X5.4106Y-2.6496
X5.5106Y-2.3496
X5.5106Y-2.6496
X5.6106Y-2.3496
X5.6106Y-2.6496
X5.7106Y-2.3496
X5.7106Y-2.6496
X5.8106Y-2.3496
X5.8106Y-2.6496
X5.9106Y-2.3496
X5.9106Y-2.6496
X5.92Y-3.74
X5.92Y-4.04
X6.0106Y-2.3496
X6.0106Y-2.6496
X6.02Y-3.74
X6.02Y-4.04
X6.12Y-3.74
X6.12Y-4.04
X6.1406Y-1.6996
X6.1406Y-1.9996
X6.1806Y-0.9796
X6.1806Y-1.2796
X6.22Y-3.74
X6.22Y-4.04
X6.2406Y-1.6996
X6.2406Y-1.9996
X6.2806Y-0.9796
X6.2806Y-1.2796
X6.32Y-3.74
X6.32Y-4.04
X6.3406Y-1.6996
X6.3406Y-1.9996
X6.3806Y-0.9796
X6.3806Y-1.2796
X6.42Y-3.74
X6.42Y-4.04
X6.4406Y-1.6996
X6.4406Y-1.9996
X6.4806Y-0.9796
X6.4806Y-1.2796
X6.5148Y-2.6898
X6.5148Y-3.2898
X6.52Y-3.74
X6.52Y-4.04
X6.5406Y-1.6996
X6.5406Y-1.9996
X6.5806Y-0.9796
X6.5806Y-1.2796
X6.6148Y-2.6898
X6.6148Y-3.2898
X6.62Y-3.74
X6.62Y-4.04
X6.6406Y-1.6996
X6.6406Y-1.9996
X6.6806Y-0.9796
X6.6806Y-1.2796
X6.7148Y-2.6898
X6.7148Y-3.2898
X6.72Y-3.74
X6.72Y-4.04
X6.7406Y-1.6996
X6.7406Y-1.9996
X6.7806Y-0.9796
X6.7806Y-1.2796
X6.8148Y-2.6898
X6.8148Y-3.2898
X6.82Y-3.74
X6.82Y-4.04
X6.8406Y-1.6996
X6.8406Y-1.9996
X6.8806Y-0.9796
X6.8806Y-1.2796
X6.9148Y-2.6898
X6.9148Y-3.2898
X7.0148Y-2.6898
X7.0148Y-3.2898
X7.1148Y-2.6898
X7.1148Y-3.2898
X7.2148Y-2.6898
X7.2148Y-3.2898
X7.237Y-4.042
X7.237Y-4.342
X7.3148Y-2.6898
X7.3148Y-3.2898
X7.337Y-4.042
X7.337Y-4.342
X7.4148Y-2.6898
X7.4148Y-3.2898
X7.437Y-4.042
X7.437Y-4.342
X7.5148Y-2.6898
X7.5148Y-3.2898
X7.537Y-4.042
X7.537Y-4.342
X7.6148Y-2.6898
X7.6148Y-3.2898
X7.637Y-4.042
X7.637Y-4.342
X7.7148Y-2.6898
X7.7148Y-3.2898
X7.72Y-1.03
X7.72Y-1.33
X7.737Y-4.042
X7.737Y-4.342
X7.8148Y-2.6898
X7.8148Y-3.2898
X7.82Y-1.03
X7.82Y-1.33
X7.837Y-4.042
X7.837Y-4.342
X7.92Y-1.03
X7.92Y-1.33
X7.937Y-4.042
X7.937Y-4.342
X7.9896Y-2.6898
X7.9896Y-3.2898
X8.02Y-1.03
X8.02Y-1.33
X8.037Y-4.042
X8.037Y-4.342
X8.0896Y-2.6898
X8.0896Y-3.2898
X8.12Y-1.03
X8.12Y-1.33
X8.137Y-4.042
X8.137Y-4.342
X8.1896Y-2.6898
X8.1896Y-3.2898
X8.22Y-1.03
X8.22Y-1.33
X8.2896Y-2.6898
X8.2896Y-3.2898
X8.32Y-1.03
X8.32Y-1.33
X8.3896Y-2.6898
X8.3896Y-3.2898
X8.42Y-1.03
X8.42Y-1.33
X8.4896Y-2.6898
X8.4896Y-3.2898
X8.5896Y-2.6898
X8.5896Y-3.2898
X8.6896Y-2.6898
X8.6896Y-3.2898
X8.7424Y-3.6686
X8.7424Y-3.7686
X8.7424Y-3.8686
X8.7424Y-3.9686
X8.7424Y-4.0686
X8.7424Y-4.1686
X8.7424Y-4.2686
X8.7624Y-4.8886
X8.7624Y-4.9886
X8.7624Y-5.0886
X8.7624Y-5.1886
X8.7624Y-5.2886
X8.7624Y-5.3886
X8.7624Y-5.4886
X8.7896Y-2.6898
X8.7896Y-3.2898
X8.8896Y-2.6898
X8.8896Y-3.2898
X8.9896Y-2.6898
X8.9896Y-3.2898
X9.0424Y-3.6686
X9.0424Y-3.7686
X9.0424Y-3.8686
X9.0424Y-3.9686
X9.0424Y-4.0686
X9.0424Y-4.1686
X9.0424Y-4.2686
X9.0624Y-4.8886
X9.0624Y-4.9886
X9.0624Y-5.0886
X9.0624Y-5.1886
X9.0624Y-5.2886
X9.0624Y-5.3886
X9.0624Y-5.4886
X9.0896Y-2.6898
X9.0896Y-3.2898
X9.1896Y-2.6898
X9.1896Y-3.2898
X9.2896Y-2.6898
X9.2896Y-3.2898
T4
X1.5276Y-4.3038
X1.5276Y-4.4038
X1.5276Y-4.5038
X1.5276Y-4.6038
X1.5276Y-4.7038
X1.5276Y-4.8038
X1.5276Y-4.9038
X1.5276Y-5.0038
X1.5276Y-5.1038
X1.5276Y-5.2038
X1.5276Y-5.3038
X1.5276Y-5.4038
X1.5276Y-5.5038
X1.5276Y-5.6038
X1.5276Y-5.7038
X1.5276Y-5.8038
X1.5276Y-5.9038
X1.5276Y-6.0038
X1.5276Y-6.1038
X1.5276Y-6.2038
X1.5276Y-6.3038
X1.5276Y-6.4038
X1.5276Y-6.5038
X7.3354Y-3.8452
X7.4354Y-3.8452
X7.4532Y-2.0816
X7.5354Y-3.8452
X7.5532Y-2.0816
X7.6354Y-3.8452
X7.6532Y-2.0816
X7.7354Y-3.8452
X7.7532Y-2.0816
X7.8354Y-3.8452
X7.8532Y-2.0816
X7.9354Y-3.8452
X7.9532Y-2.0816
X8.0354Y-3.8452
X8.0532Y-2.0816
X8.1532Y-2.0816
X8.2532Y-2.0816
X8.3532Y-2.0816
X8.4532Y-2.0816
X8.5532Y-2.0816
X8.6532Y-2.0816
X8.7532Y-2.0816
X8.8532Y-2.0816
X8.9532Y-2.0816
M30
