%TF.GenerationSoftware,KiCad,Pcbnew,8.0.2-1*%
%TF.CreationDate,2024-08-05T09:17:51-04:00*%
%TF.ProjectId,io_controller,696f5f63-6f6e-4747-926f-6c6c65722e6b,rev?*%
%TF.SameCoordinates,Original*%
%TF.FileFunction,Soldermask,Bot*%
%TF.FilePolarity,Negative*%
%FSLAX46Y46*%
G04 Gerber Fmt 4.6, Leading zero omitted, Abs format (unit mm)*
G04 Created by KiCad (PCBNEW 8.0.2-1) date 2024-08-05 09:17:51*
%MOMM*%
%LPD*%
G01*
G04 APERTURE LIST*
%ADD10R,1.600000X1.600000*%
%ADD11O,1.600000X1.600000*%
%ADD12C,1.524000*%
%ADD13R,1.700000X1.700000*%
%ADD14O,1.700000X1.700000*%
G04 APERTURE END LIST*
D10*
%TO.C,U16*%
X120040000Y-82130000D03*
D11*
X117500000Y-82130000D03*
X114960000Y-82130000D03*
X112420000Y-82130000D03*
X109880000Y-82130000D03*
X107340000Y-82130000D03*
X104800000Y-82130000D03*
X104800000Y-89750000D03*
X107340000Y-89750000D03*
X109880000Y-89750000D03*
X112420000Y-89750000D03*
X114960000Y-89750000D03*
X117500000Y-89750000D03*
X120040000Y-89750000D03*
%TD*%
D12*
%TO.C,U15*%
X94363000Y-32105000D03*
X99443000Y-32105000D03*
X94363000Y-34645000D03*
X96903000Y-34645000D03*
X101983000Y-32105000D03*
X107063000Y-32105000D03*
%TD*%
%TO.C,U14*%
X94400000Y-24380000D03*
X99480000Y-24380000D03*
X94400000Y-26920000D03*
X96940000Y-26920000D03*
X102020000Y-24380000D03*
X107100000Y-24380000D03*
%TD*%
D10*
%TO.C,U13*%
X105010000Y-54620000D03*
D11*
X107550000Y-54620000D03*
X110090000Y-54620000D03*
X112630000Y-54620000D03*
X115170000Y-54620000D03*
X117710000Y-54620000D03*
X120250000Y-54620000D03*
X120250000Y-47000000D03*
X117710000Y-47000000D03*
X115170000Y-47000000D03*
X112630000Y-47000000D03*
X110090000Y-47000000D03*
X107550000Y-47000000D03*
X105010000Y-47000000D03*
%TD*%
D10*
%TO.C,U12*%
X92290000Y-56130000D03*
D11*
X89750000Y-56130000D03*
X87210000Y-56130000D03*
X84670000Y-56130000D03*
X82130000Y-56130000D03*
X79590000Y-56130000D03*
X77050000Y-56130000D03*
X77050000Y-63750000D03*
X79590000Y-63750000D03*
X82130000Y-63750000D03*
X84670000Y-63750000D03*
X87210000Y-63750000D03*
X89750000Y-63750000D03*
X92290000Y-63750000D03*
%TD*%
D10*
%TO.C,U11*%
X92040000Y-73500000D03*
D11*
X89500000Y-73500000D03*
X86960000Y-73500000D03*
X84420000Y-73500000D03*
X81880000Y-73500000D03*
X79340000Y-73500000D03*
X76800000Y-73500000D03*
X76800000Y-81120000D03*
X79340000Y-81120000D03*
X81880000Y-81120000D03*
X84420000Y-81120000D03*
X86960000Y-81120000D03*
X89500000Y-81120000D03*
X92040000Y-81120000D03*
%TD*%
D10*
%TO.C,U10*%
X105260000Y-71500000D03*
D11*
X107800000Y-71500000D03*
X110340000Y-71500000D03*
X112880000Y-71500000D03*
X115420000Y-71500000D03*
X117960000Y-71500000D03*
X120500000Y-71500000D03*
X120500000Y-63880000D03*
X117960000Y-63880000D03*
X115420000Y-63880000D03*
X112880000Y-63880000D03*
X110340000Y-63880000D03*
X107800000Y-63880000D03*
X105260000Y-63880000D03*
%TD*%
D10*
%TO.C,U9*%
X82625000Y-110550000D03*
D11*
X85165000Y-110550000D03*
X87705000Y-110550000D03*
X90245000Y-110550000D03*
X92785000Y-110550000D03*
X95325000Y-110550000D03*
X97865000Y-110550000D03*
X97865000Y-102930000D03*
X95325000Y-102930000D03*
X92785000Y-102930000D03*
X90245000Y-102930000D03*
X87705000Y-102930000D03*
X85165000Y-102930000D03*
X82625000Y-102930000D03*
%TD*%
D13*
%TO.C,U7*%
X155180000Y-26590000D03*
D14*
X155180000Y-29130000D03*
X155180000Y-31670000D03*
X155180000Y-34210000D03*
X155180000Y-36750000D03*
X155180000Y-39290000D03*
X155180000Y-41830000D03*
X155180000Y-44370000D03*
X155180000Y-46910000D03*
X155180000Y-49450000D03*
X155180000Y-51990000D03*
X155180000Y-54530000D03*
X155180000Y-57070000D03*
X155180000Y-59610000D03*
X155180000Y-62150000D03*
X155180000Y-64690000D03*
%TD*%
D10*
%TO.C,U6*%
X141000000Y-43825000D03*
D11*
X141000000Y-46365000D03*
X141000000Y-48905000D03*
X141000000Y-51445000D03*
X141000000Y-53985000D03*
X141000000Y-56525000D03*
X141000000Y-59065000D03*
X141000000Y-61605000D03*
X141000000Y-64145000D03*
X141000000Y-66685000D03*
X133380000Y-66685000D03*
X133380000Y-64145000D03*
X133380000Y-61605000D03*
X133380000Y-59065000D03*
X133380000Y-56525000D03*
X133380000Y-53985000D03*
X133380000Y-51445000D03*
X133380000Y-48905000D03*
X133380000Y-46365000D03*
X133380000Y-43825000D03*
%TD*%
D10*
%TO.C,U5*%
X133250000Y-72670000D03*
D11*
X133250000Y-75210000D03*
X133250000Y-77750000D03*
X133250000Y-80290000D03*
X133250000Y-82830000D03*
X133250000Y-85370000D03*
X133250000Y-87910000D03*
X133250000Y-90450000D03*
X133250000Y-92990000D03*
X133250000Y-95530000D03*
X140870000Y-95530000D03*
X140870000Y-92990000D03*
X140870000Y-90450000D03*
X140870000Y-87910000D03*
X140870000Y-85370000D03*
X140870000Y-82830000D03*
X140870000Y-80290000D03*
X140870000Y-77750000D03*
X140870000Y-75210000D03*
X140870000Y-72670000D03*
%TD*%
D13*
%TO.C,U4*%
X155750000Y-75210000D03*
D14*
X155750000Y-77750000D03*
X155750000Y-80290000D03*
X155750000Y-82830000D03*
X155750000Y-85370000D03*
X155750000Y-87910000D03*
X155750000Y-90450000D03*
X155750000Y-92990000D03*
X155750000Y-95530000D03*
X155750000Y-98070000D03*
X155750000Y-100610000D03*
X155750000Y-103150000D03*
X155750000Y-105690000D03*
X155750000Y-108230000D03*
X155750000Y-110770000D03*
X155750000Y-113310000D03*
%TD*%
D10*
%TO.C,U3*%
X140370000Y-100880000D03*
D11*
X137830000Y-100880000D03*
X135290000Y-100880000D03*
X132750000Y-100880000D03*
X130210000Y-100880000D03*
X127670000Y-100880000D03*
X125130000Y-100880000D03*
X122590000Y-100880000D03*
X120050000Y-100880000D03*
X117510000Y-100880000D03*
X117510000Y-108500000D03*
X120050000Y-108500000D03*
X122590000Y-108500000D03*
X125130000Y-108500000D03*
X127670000Y-108500000D03*
X130210000Y-108500000D03*
X132750000Y-108500000D03*
X135290000Y-108500000D03*
X137830000Y-108500000D03*
X140370000Y-108500000D03*
%TD*%
D10*
%TO.C,U2*%
X117800000Y-31000000D03*
D11*
X120340000Y-31000000D03*
X122880000Y-31000000D03*
X125420000Y-31000000D03*
X127960000Y-31000000D03*
X130500000Y-31000000D03*
X133040000Y-31000000D03*
X135580000Y-31000000D03*
X138120000Y-31000000D03*
X140660000Y-31000000D03*
X140660000Y-38620000D03*
X138120000Y-38620000D03*
X135580000Y-38620000D03*
X133040000Y-38620000D03*
X130500000Y-38620000D03*
X127960000Y-38620000D03*
X125420000Y-38620000D03*
X122880000Y-38620000D03*
X120340000Y-38620000D03*
X117800000Y-38620000D03*
%TD*%
D13*
%TO.C,U1*%
X63500000Y-23780000D03*
D14*
X63500000Y-26320000D03*
X63500000Y-28860000D03*
X63500000Y-31400000D03*
X63500000Y-33940000D03*
X63500000Y-36480000D03*
X63500000Y-39020000D03*
X63500000Y-41560000D03*
X63500000Y-44100000D03*
X63500000Y-46640000D03*
X63500000Y-49180000D03*
X63500000Y-51720000D03*
X63500000Y-54260000D03*
X63500000Y-56800000D03*
X63500000Y-59340000D03*
X63500000Y-61880000D03*
X63500000Y-64420000D03*
X63500000Y-66960000D03*
X63500000Y-69500000D03*
X63500000Y-72040000D03*
X63500000Y-74580000D03*
X63500000Y-77120000D03*
X63500000Y-79660000D03*
%TD*%
D12*
%TO.C,R5*%
X68000000Y-36500000D03*
X78160000Y-36500000D03*
%TD*%
%TO.C,R4*%
X68000000Y-33750000D03*
X78160000Y-33750000D03*
%TD*%
%TO.C,R3*%
X67920000Y-26250000D03*
X78080000Y-26250000D03*
%TD*%
%TO.C,R2*%
X67840000Y-23500000D03*
X78000000Y-23500000D03*
%TD*%
%TO.C,R1*%
X64250000Y-85420000D03*
X64250000Y-95580000D03*
%TD*%
M02*
