%TF.GenerationSoftware,KiCad,Pcbnew,8.0.2-1*%
%TF.CreationDate,2024-08-05T09:17:50-04:00*%
%TF.ProjectId,io_controller,696f5f63-6f6e-4747-926f-6c6c65722e6b,rev?*%
%TF.SameCoordinates,Original*%
%TF.FileFunction,Copper,L1,Top*%
%TF.FilePolarity,Positive*%
%FSLAX46Y46*%
G04 Gerber Fmt 4.6, Leading zero omitted, Abs format (unit mm)*
G04 Created by KiCad (PCBNEW 8.0.2-1) date 2024-08-05 09:17:50*
%MOMM*%
%LPD*%
G01*
G04 APERTURE LIST*
%TA.AperFunction,ComponentPad*%
%ADD10R,1.600000X1.600000*%
%TD*%
%TA.AperFunction,ComponentPad*%
%ADD11O,1.600000X1.600000*%
%TD*%
%TA.AperFunction,ComponentPad*%
%ADD12C,1.524000*%
%TD*%
%TA.AperFunction,ComponentPad*%
%ADD13R,1.700000X1.700000*%
%TD*%
%TA.AperFunction,ComponentPad*%
%ADD14O,1.700000X1.700000*%
%TD*%
%TA.AperFunction,ViaPad*%
%ADD15C,0.600000*%
%TD*%
%TA.AperFunction,Conductor*%
%ADD16C,0.200000*%
%TD*%
G04 APERTURE END LIST*
D10*
%TO.P,U16,1,0A*%
%TO.N,Net-(U10-I0)*%
X120040000Y-82130000D03*
D11*
%TO.P,U16,2,0B*%
%TO.N,Net-(U10-I1)*%
X117500000Y-82130000D03*
%TO.P,U16,3,Q0*%
%TO.N,Net-(U14-IN)*%
X114960000Y-82130000D03*
%TO.P,U16,4,Q1*%
%TO.N,unconnected-(U16-Q1-Pad4)*%
X112420000Y-82130000D03*
%TO.P,U16,5,1A*%
%TO.N,Net-(U1-GND)*%
X109880000Y-82130000D03*
%TO.P,U16,6,1B*%
X107340000Y-82130000D03*
%TO.P,U16,7,GND*%
X104800000Y-82130000D03*
%TO.P,U16,8,2A*%
X104800000Y-89750000D03*
%TO.P,U16,9,2B*%
X107340000Y-89750000D03*
%TO.P,U16,10,Q2*%
%TO.N,unconnected-(U16-Q2-Pad10)*%
X109880000Y-89750000D03*
%TO.P,U16,11,Q3*%
%TO.N,unconnected-(U16-Q3-Pad11)*%
X112420000Y-89750000D03*
%TO.P,U16,12,3A*%
%TO.N,Net-(U1-GND)*%
X114960000Y-89750000D03*
%TO.P,U16,13,3B*%
X117500000Y-89750000D03*
%TO.P,U16,14,V+*%
%TO.N,Net-(U1-V+)*%
X120040000Y-89750000D03*
%TD*%
D12*
%TO.P,U15,1,IN*%
%TO.N,Net-(U10-I5)*%
X94363000Y-32105000D03*
X99443000Y-32105000D03*
%TO.P,U15,2,GND*%
%TO.N,Net-(U1-GND)*%
X94363000Y-34645000D03*
X96903000Y-34645000D03*
%TO.P,U15,3,OUT*%
%TO.N,Net-(U1-FAULT)*%
X101983000Y-32105000D03*
X107063000Y-32105000D03*
%TD*%
%TO.P,U14,1,IN*%
%TO.N,Net-(U14-IN)*%
X94400000Y-24380000D03*
X99480000Y-24380000D03*
%TO.P,U14,2,GND*%
%TO.N,Net-(U1-GND)*%
X94400000Y-26920000D03*
X96940000Y-26920000D03*
%TO.P,U14,3,OUT*%
%TO.N,Net-(U1-READ_READY)*%
X102020000Y-24380000D03*
X107100000Y-24380000D03*
%TD*%
D10*
%TO.P,U13,1,1A*%
%TO.N,Net-(U1-GND)*%
X105010000Y-54620000D03*
D11*
%TO.P,U13,2,1B*%
X107550000Y-54620000D03*
%TO.P,U13,3,1Q*%
%TO.N,unconnected-(U13-1Q-Pad3)*%
X110090000Y-54620000D03*
%TO.P,U13,4,2A*%
%TO.N,Net-(U1-WRITE_1)*%
X112630000Y-54620000D03*
%TO.P,U13,5,2B*%
%TO.N,Net-(U11-1Q3)*%
X115170000Y-54620000D03*
%TO.P,U13,6,2Q*%
%TO.N,Net-(U11-1D)*%
X117710000Y-54620000D03*
%TO.P,U13,7,GND*%
%TO.N,Net-(U1-GND)*%
X120250000Y-54620000D03*
%TO.P,U13,8,4Q*%
%TO.N,unconnected-(U13-4Q-Pad8)*%
X120250000Y-47000000D03*
%TO.P,U13,9,4B*%
%TO.N,Net-(U1-GND)*%
X117710000Y-47000000D03*
%TO.P,U13,10,4A*%
X115170000Y-47000000D03*
%TO.P,U13,11,3Q*%
%TO.N,unconnected-(U13-3Q-Pad11)*%
X112630000Y-47000000D03*
%TO.P,U13,12,3B*%
%TO.N,Net-(U1-GND)*%
X110090000Y-47000000D03*
%TO.P,U13,13,3A*%
X107550000Y-47000000D03*
%TO.P,U13,14,V+*%
%TO.N,Net-(U1-V+)*%
X105010000Y-47000000D03*
%TD*%
D10*
%TO.P,U12,1,1A*%
%TO.N,Net-(U10-O5)*%
X92290000Y-56130000D03*
D11*
%TO.P,U12,2,1B*%
%TO.N,Net-(U12-1B)*%
X89750000Y-56130000D03*
%TO.P,U12,3,1Q*%
%TO.N,Net-(U10-I1)*%
X87210000Y-56130000D03*
%TO.P,U12,4,2A*%
%TO.N,Net-(U10-O5)*%
X84670000Y-56130000D03*
%TO.P,U12,5,2B*%
%TO.N,Net-(U12-2B)*%
X82130000Y-56130000D03*
%TO.P,U12,6,2Q*%
%TO.N,Net-(U10-I0)*%
X79590000Y-56130000D03*
%TO.P,U12,7,GND*%
%TO.N,Net-(U1-GND)*%
X77050000Y-56130000D03*
%TO.P,U12,8,4Q*%
%TO.N,Net-(U11-0D)*%
X77050000Y-63750000D03*
%TO.P,U12,9,4B*%
%TO.N,Net-(U11-0Q#)*%
X79590000Y-63750000D03*
%TO.P,U12,10,4A*%
%TO.N,Net-(U1-WRITE_0)*%
X82130000Y-63750000D03*
%TO.P,U12,11,3Q*%
%TO.N,Net-(U10-I5)*%
X84670000Y-63750000D03*
%TO.P,U12,12,3B*%
%TO.N,Net-(U12-1B)*%
X87210000Y-63750000D03*
%TO.P,U12,13,3A*%
%TO.N,Net-(U12-2B)*%
X89750000Y-63750000D03*
%TO.P,U12,14,V+*%
%TO.N,Net-(U1-V+)*%
X92290000Y-63750000D03*
%TD*%
D10*
%TO.P,U11,1,0Q*%
%TO.N,Net-(U11-0Q)*%
X92040000Y-73500000D03*
D11*
%TO.P,U11,2,0Q#*%
%TO.N,Net-(U11-0Q#)*%
X89500000Y-73500000D03*
%TO.P,U11,3,0CLK*%
%TO.N,Net-(U1-CLK_B)*%
X86960000Y-73500000D03*
%TO.P,U11,4,0RESET*%
%TO.N,Net-(U1-GND)*%
X84420000Y-73500000D03*
%TO.P,U11,5,0D*%
%TO.N,Net-(U11-0D)*%
X81880000Y-73500000D03*
%TO.P,U11,6,0SET*%
%TO.N,Net-(U1-GND)*%
X79340000Y-73500000D03*
%TO.P,U11,7,GND*%
X76800000Y-73500000D03*
%TO.P,U11,8,1SET*%
X76800000Y-81120000D03*
%TO.P,U11,9,1D*%
%TO.N,Net-(U11-1D)*%
X79340000Y-81120000D03*
%TO.P,U11,10,1RESET*%
%TO.N,Net-(U1-GND)*%
X81880000Y-81120000D03*
%TO.P,U11,11,1CLK*%
%TO.N,Net-(U1-CLK_B)*%
X84420000Y-81120000D03*
%TO.P,U11,12,1Q3*%
%TO.N,Net-(U11-1Q3)*%
X86960000Y-81120000D03*
%TO.P,U11,13,1Q*%
%TO.N,Net-(U11-1Q)*%
X89500000Y-81120000D03*
%TO.P,U11,14,V+*%
%TO.N,Net-(U1-V+)*%
X92040000Y-81120000D03*
%TD*%
D10*
%TO.P,U10,1,I0*%
%TO.N,Net-(U10-I0)*%
X105260000Y-71500000D03*
D11*
%TO.P,U10,2,O0*%
%TO.N,Net-(U10-O0)*%
X107800000Y-71500000D03*
%TO.P,U10,3,I1*%
%TO.N,Net-(U10-I1)*%
X110340000Y-71500000D03*
%TO.P,U10,4,O1*%
%TO.N,Net-(U10-O1)*%
X112880000Y-71500000D03*
%TO.P,U10,5,I2*%
%TO.N,Net-(U1-GND)*%
X115420000Y-71500000D03*
%TO.P,U10,6,O2*%
%TO.N,unconnected-(U10-O2-Pad6)*%
X117960000Y-71500000D03*
%TO.P,U10,7,GND*%
%TO.N,Net-(U1-GND)*%
X120500000Y-71500000D03*
%TO.P,U10,8,03*%
%TO.N,unconnected-(U10-03-Pad8)*%
X120500000Y-63880000D03*
%TO.P,U10,9,I3*%
%TO.N,Net-(U1-GND)*%
X117960000Y-63880000D03*
%TO.P,U10,10,O4*%
%TO.N,unconnected-(U10-O4-Pad10)*%
X115420000Y-63880000D03*
%TO.P,U10,11,I4*%
%TO.N,Net-(U1-GND)*%
X112880000Y-63880000D03*
%TO.P,U10,12,O5*%
%TO.N,Net-(U10-O5)*%
X110340000Y-63880000D03*
%TO.P,U10,13,I5*%
%TO.N,Net-(U10-I5)*%
X107800000Y-63880000D03*
%TO.P,U10,14,V+*%
%TO.N,Net-(U1-V+)*%
X105260000Y-63880000D03*
%TD*%
D10*
%TO.P,U9,1,1A*%
%TO.N,Net-(U1-CLK_A)*%
X82625000Y-110550000D03*
D11*
%TO.P,U9,2,1B*%
%TO.N,Net-(U1-READ_1)*%
X85165000Y-110550000D03*
%TO.P,U9,3,1Q*%
%TO.N,Net-(U3-CLK)*%
X87705000Y-110550000D03*
%TO.P,U9,4,2A*%
%TO.N,Net-(U1-CLK_A)*%
X90245000Y-110550000D03*
%TO.P,U9,5,2B*%
%TO.N,Net-(U1-READ_0)*%
X92785000Y-110550000D03*
%TO.P,U9,6,2Q*%
%TO.N,Net-(U5-CLK)*%
X95325000Y-110550000D03*
%TO.P,U9,7,GND*%
%TO.N,Net-(U1-GND)*%
X97865000Y-110550000D03*
%TO.P,U9,8,4Q*%
%TO.N,Net-(U12-1B)*%
X97865000Y-102930000D03*
%TO.P,U9,9,4B*%
%TO.N,Net-(U11-1Q)*%
X95325000Y-102930000D03*
%TO.P,U9,10,4A*%
%TO.N,Net-(U1-ENABLE)*%
X92785000Y-102930000D03*
%TO.P,U9,11,3Q*%
%TO.N,Net-(U12-2B)*%
X90245000Y-102930000D03*
%TO.P,U9,12,3B*%
%TO.N,Net-(U11-0Q)*%
X87705000Y-102930000D03*
%TO.P,U9,13,3A*%
%TO.N,Net-(U1-ENABLE)*%
X85165000Y-102930000D03*
%TO.P,U9,14,V+*%
%TO.N,Net-(U1-V+)*%
X82625000Y-102930000D03*
%TD*%
D13*
%TO.P,U7,1,0*%
%TO.N,Net-(U2-D0)*%
X155180000Y-26590000D03*
D14*
%TO.P,U7,2,1*%
%TO.N,Net-(U2-D1)*%
X155180000Y-29130000D03*
%TO.P,U7,3,2*%
%TO.N,Net-(U2-D2)*%
X155180000Y-31670000D03*
%TO.P,U7,4,3*%
%TO.N,Net-(U2-D3)*%
X155180000Y-34210000D03*
%TO.P,U7,5,4*%
%TO.N,Net-(U2-D4)*%
X155180000Y-36750000D03*
%TO.P,U7,6,5*%
%TO.N,Net-(U2-D5)*%
X155180000Y-39290000D03*
%TO.P,U7,7,6*%
%TO.N,Net-(U2-D6)*%
X155180000Y-41830000D03*
%TO.P,U7,8,7*%
%TO.N,Net-(U2-D7)*%
X155180000Y-44370000D03*
%TO.P,U7,9,8*%
%TO.N,Net-(U6-D0)*%
X155180000Y-46910000D03*
%TO.P,U7,10,9*%
%TO.N,Net-(U6-D1)*%
X155180000Y-49450000D03*
%TO.P,U7,11,10*%
%TO.N,Net-(U6-D2)*%
X155180000Y-51990000D03*
%TO.P,U7,12,11*%
%TO.N,Net-(U6-D3)*%
X155180000Y-54530000D03*
%TO.P,U7,13,12*%
%TO.N,Net-(U6-D4)*%
X155180000Y-57070000D03*
%TO.P,U7,14,13*%
%TO.N,Net-(U6-D5)*%
X155180000Y-59610000D03*
%TO.P,U7,15,14*%
%TO.N,Net-(U6-D6)*%
X155180000Y-62150000D03*
%TO.P,U7,16,15*%
%TO.N,Net-(U6-D7)*%
X155180000Y-64690000D03*
%TD*%
D10*
%TO.P,U6,1,OE#*%
%TO.N,Net-(U10-O1)*%
X141000000Y-43825000D03*
D11*
%TO.P,U6,2,D0*%
%TO.N,Net-(U6-D0)*%
X141000000Y-46365000D03*
%TO.P,U6,3,D1*%
%TO.N,Net-(U6-D1)*%
X141000000Y-48905000D03*
%TO.P,U6,4,D2*%
%TO.N,Net-(U6-D2)*%
X141000000Y-51445000D03*
%TO.P,U6,5,D3*%
%TO.N,Net-(U6-D3)*%
X141000000Y-53985000D03*
%TO.P,U6,6,D4*%
%TO.N,Net-(U6-D4)*%
X141000000Y-56525000D03*
%TO.P,U6,7,D5*%
%TO.N,Net-(U6-D5)*%
X141000000Y-59065000D03*
%TO.P,U6,8,D6*%
%TO.N,Net-(U6-D6)*%
X141000000Y-61605000D03*
%TO.P,U6,9,D7*%
%TO.N,Net-(U6-D7)*%
X141000000Y-64145000D03*
%TO.P,U6,10,GND*%
%TO.N,Net-(U1-GND)*%
X141000000Y-66685000D03*
%TO.P,U6,11,CLK*%
%TO.N,Net-(U14-IN)*%
X133380000Y-66685000D03*
%TO.P,U6,12,Q7*%
%TO.N,Net-(U1-D7)*%
X133380000Y-64145000D03*
%TO.P,U6,13,Q6*%
%TO.N,Net-(U1-D6)*%
X133380000Y-61605000D03*
%TO.P,U6,14,Q5*%
%TO.N,Net-(U1-D5)*%
X133380000Y-59065000D03*
%TO.P,U6,15,Q4*%
%TO.N,Net-(U1-D4)*%
X133380000Y-56525000D03*
%TO.P,U6,16,Q3*%
%TO.N,Net-(U1-D3)*%
X133380000Y-53985000D03*
%TO.P,U6,17,Q2*%
%TO.N,Net-(U1-D2)*%
X133380000Y-51445000D03*
%TO.P,U6,18,Q1*%
%TO.N,Net-(U1-D1)*%
X133380000Y-48905000D03*
%TO.P,U6,19,Q0*%
%TO.N,Net-(U1-D0)*%
X133380000Y-46365000D03*
%TO.P,U6,20,V+*%
%TO.N,Net-(U1-V+)*%
X133380000Y-43825000D03*
%TD*%
D10*
%TO.P,U5,1,OE#*%
%TO.N,Net-(U1-GND)*%
X133250000Y-72670000D03*
D11*
%TO.P,U5,2,D0*%
%TO.N,Net-(U1-D0)*%
X133250000Y-75210000D03*
%TO.P,U5,3,D1*%
%TO.N,Net-(U1-D1)*%
X133250000Y-77750000D03*
%TO.P,U5,4,D2*%
%TO.N,Net-(U1-D2)*%
X133250000Y-80290000D03*
%TO.P,U5,5,D3*%
%TO.N,Net-(U1-D3)*%
X133250000Y-82830000D03*
%TO.P,U5,6,D4*%
%TO.N,Net-(U1-D4)*%
X133250000Y-85370000D03*
%TO.P,U5,7,D5*%
%TO.N,Net-(U1-D5)*%
X133250000Y-87910000D03*
%TO.P,U5,8,D6*%
%TO.N,Net-(U1-D6)*%
X133250000Y-90450000D03*
%TO.P,U5,9,D7*%
%TO.N,Net-(U1-D7)*%
X133250000Y-92990000D03*
%TO.P,U5,10,GND*%
%TO.N,Net-(U1-GND)*%
X133250000Y-95530000D03*
%TO.P,U5,11,CLK*%
%TO.N,Net-(U5-CLK)*%
X140870000Y-95530000D03*
%TO.P,U5,12,Q7*%
%TO.N,Net-(U4-7)*%
X140870000Y-92990000D03*
%TO.P,U5,13,Q6*%
%TO.N,Net-(U4-6)*%
X140870000Y-90450000D03*
%TO.P,U5,14,Q5*%
%TO.N,Net-(U4-5)*%
X140870000Y-87910000D03*
%TO.P,U5,15,Q4*%
%TO.N,Net-(U4-4)*%
X140870000Y-85370000D03*
%TO.P,U5,16,Q3*%
%TO.N,Net-(U4-3)*%
X140870000Y-82830000D03*
%TO.P,U5,17,Q2*%
%TO.N,Net-(U4-2)*%
X140870000Y-80290000D03*
%TO.P,U5,18,Q1*%
%TO.N,Net-(U4-1)*%
X140870000Y-77750000D03*
%TO.P,U5,19,Q0*%
%TO.N,Net-(U4-0)*%
X140870000Y-75210000D03*
%TO.P,U5,20,V+*%
%TO.N,Net-(U1-V+)*%
X140870000Y-72670000D03*
%TD*%
D13*
%TO.P,U4,1,0*%
%TO.N,Net-(U4-0)*%
X155750000Y-75210000D03*
D14*
%TO.P,U4,2,1*%
%TO.N,Net-(U4-1)*%
X155750000Y-77750000D03*
%TO.P,U4,3,2*%
%TO.N,Net-(U4-2)*%
X155750000Y-80290000D03*
%TO.P,U4,4,3*%
%TO.N,Net-(U4-3)*%
X155750000Y-82830000D03*
%TO.P,U4,5,4*%
%TO.N,Net-(U4-4)*%
X155750000Y-85370000D03*
%TO.P,U4,6,5*%
%TO.N,Net-(U4-5)*%
X155750000Y-87910000D03*
%TO.P,U4,7,6*%
%TO.N,Net-(U4-6)*%
X155750000Y-90450000D03*
%TO.P,U4,8,7*%
%TO.N,Net-(U4-7)*%
X155750000Y-92990000D03*
%TO.P,U4,9,8*%
%TO.N,Net-(U3-Q0)*%
X155750000Y-95530000D03*
%TO.P,U4,10,9*%
%TO.N,Net-(U3-Q1)*%
X155750000Y-98070000D03*
%TO.P,U4,11,10*%
%TO.N,Net-(U3-Q2)*%
X155750000Y-100610000D03*
%TO.P,U4,12,11*%
%TO.N,Net-(U3-Q3)*%
X155750000Y-103150000D03*
%TO.P,U4,13,12*%
%TO.N,Net-(U3-Q4)*%
X155750000Y-105690000D03*
%TO.P,U4,14,13*%
%TO.N,Net-(U3-Q5)*%
X155750000Y-108230000D03*
%TO.P,U4,15,14*%
%TO.N,Net-(U3-Q6)*%
X155750000Y-110770000D03*
%TO.P,U4,16,15*%
%TO.N,Net-(U3-Q7)*%
X155750000Y-113310000D03*
%TD*%
D10*
%TO.P,U3,1,OE#*%
%TO.N,Net-(U1-GND)*%
X140370000Y-100880000D03*
D11*
%TO.P,U3,2,D0*%
%TO.N,Net-(U1-D0)*%
X137830000Y-100880000D03*
%TO.P,U3,3,D1*%
%TO.N,Net-(U1-D1)*%
X135290000Y-100880000D03*
%TO.P,U3,4,D2*%
%TO.N,Net-(U1-D2)*%
X132750000Y-100880000D03*
%TO.P,U3,5,D3*%
%TO.N,Net-(U1-D3)*%
X130210000Y-100880000D03*
%TO.P,U3,6,D4*%
%TO.N,Net-(U1-D4)*%
X127670000Y-100880000D03*
%TO.P,U3,7,D5*%
%TO.N,Net-(U1-D5)*%
X125130000Y-100880000D03*
%TO.P,U3,8,D6*%
%TO.N,Net-(U1-D6)*%
X122590000Y-100880000D03*
%TO.P,U3,9,D7*%
%TO.N,Net-(U1-D7)*%
X120050000Y-100880000D03*
%TO.P,U3,10,GND*%
%TO.N,Net-(U1-GND)*%
X117510000Y-100880000D03*
%TO.P,U3,11,CLK*%
%TO.N,Net-(U3-CLK)*%
X117510000Y-108500000D03*
%TO.P,U3,12,Q7*%
%TO.N,Net-(U3-Q7)*%
X120050000Y-108500000D03*
%TO.P,U3,13,Q6*%
%TO.N,Net-(U3-Q6)*%
X122590000Y-108500000D03*
%TO.P,U3,14,Q5*%
%TO.N,Net-(U3-Q5)*%
X125130000Y-108500000D03*
%TO.P,U3,15,Q4*%
%TO.N,Net-(U3-Q4)*%
X127670000Y-108500000D03*
%TO.P,U3,16,Q3*%
%TO.N,Net-(U3-Q3)*%
X130210000Y-108500000D03*
%TO.P,U3,17,Q2*%
%TO.N,Net-(U3-Q2)*%
X132750000Y-108500000D03*
%TO.P,U3,18,Q1*%
%TO.N,Net-(U3-Q1)*%
X135290000Y-108500000D03*
%TO.P,U3,19,Q0*%
%TO.N,Net-(U3-Q0)*%
X137830000Y-108500000D03*
%TO.P,U3,20,V+*%
%TO.N,Net-(U1-V+)*%
X140370000Y-108500000D03*
%TD*%
D10*
%TO.P,U2,1,OE#*%
%TO.N,Net-(U10-O0)*%
X117800000Y-31000000D03*
D11*
%TO.P,U2,2,D0*%
%TO.N,Net-(U2-D0)*%
X120340000Y-31000000D03*
%TO.P,U2,3,D1*%
%TO.N,Net-(U2-D1)*%
X122880000Y-31000000D03*
%TO.P,U2,4,D2*%
%TO.N,Net-(U2-D2)*%
X125420000Y-31000000D03*
%TO.P,U2,5,D3*%
%TO.N,Net-(U2-D3)*%
X127960000Y-31000000D03*
%TO.P,U2,6,D4*%
%TO.N,Net-(U2-D4)*%
X130500000Y-31000000D03*
%TO.P,U2,7,D5*%
%TO.N,Net-(U2-D5)*%
X133040000Y-31000000D03*
%TO.P,U2,8,D6*%
%TO.N,Net-(U2-D6)*%
X135580000Y-31000000D03*
%TO.P,U2,9,D7*%
%TO.N,Net-(U2-D7)*%
X138120000Y-31000000D03*
%TO.P,U2,10,GND*%
%TO.N,Net-(U1-GND)*%
X140660000Y-31000000D03*
%TO.P,U2,11,CLK*%
%TO.N,Net-(U14-IN)*%
X140660000Y-38620000D03*
%TO.P,U2,12,Q7*%
%TO.N,Net-(U1-D7)*%
X138120000Y-38620000D03*
%TO.P,U2,13,Q6*%
%TO.N,Net-(U1-D6)*%
X135580000Y-38620000D03*
%TO.P,U2,14,Q5*%
%TO.N,Net-(U1-D5)*%
X133040000Y-38620000D03*
%TO.P,U2,15,Q4*%
%TO.N,Net-(U1-D4)*%
X130500000Y-38620000D03*
%TO.P,U2,16,Q3*%
%TO.N,Net-(U1-D3)*%
X127960000Y-38620000D03*
%TO.P,U2,17,Q2*%
%TO.N,Net-(U1-D2)*%
X125420000Y-38620000D03*
%TO.P,U2,18,Q1*%
%TO.N,Net-(U1-D1)*%
X122880000Y-38620000D03*
%TO.P,U2,19,Q0*%
%TO.N,Net-(U1-D0)*%
X120340000Y-38620000D03*
%TO.P,U2,20,V+*%
%TO.N,Net-(U1-V+)*%
X117800000Y-38620000D03*
%TD*%
D13*
%TO.P,U1,1,READ_0*%
%TO.N,Net-(U1-READ_0)*%
X63500000Y-23780000D03*
D14*
%TO.P,U1,2,READ_1*%
%TO.N,Net-(U1-READ_1)*%
X63500000Y-26320000D03*
%TO.P,U1,3,READ_2*%
%TO.N,unconnected-(U1-READ_2-Pad3)*%
X63500000Y-28860000D03*
%TO.P,U1,4,READ_3*%
%TO.N,unconnected-(U1-READ_3-Pad4)*%
X63500000Y-31400000D03*
%TO.P,U1,5,WRITE_0*%
%TO.N,Net-(U1-WRITE_0)*%
X63500000Y-33940000D03*
%TO.P,U1,6,WRITE_1*%
%TO.N,Net-(U1-WRITE_1)*%
X63500000Y-36480000D03*
%TO.P,U1,7,WRITE_2*%
%TO.N,unconnected-(U1-WRITE_2-Pad7)*%
X63500000Y-39020000D03*
%TO.P,U1,8,WRITE_2*%
%TO.N,unconnected-(U1-WRITE_2-Pad8)*%
X63500000Y-41560000D03*
%TO.P,U1,9,READ_READY*%
%TO.N,Net-(U1-READ_READY)*%
X63500000Y-44100000D03*
%TO.P,U1,10,CLK_A*%
%TO.N,Net-(U1-CLK_A)*%
X63500000Y-46640000D03*
%TO.P,U1,11,CLK_B*%
%TO.N,Net-(U1-CLK_B)*%
X63500000Y-49180000D03*
%TO.P,U1,12,V+*%
%TO.N,Net-(U1-V+)*%
X63500000Y-51720000D03*
%TO.P,U1,13,GND*%
%TO.N,Net-(U1-GND)*%
X63500000Y-54260000D03*
%TO.P,U1,14,D0*%
%TO.N,Net-(U1-D0)*%
X63500000Y-56800000D03*
%TO.P,U1,15,D1*%
%TO.N,Net-(U1-D1)*%
X63500000Y-59340000D03*
%TO.P,U1,16,D2*%
%TO.N,Net-(U1-D2)*%
X63500000Y-61880000D03*
%TO.P,U1,17,D3*%
%TO.N,Net-(U1-D3)*%
X63500000Y-64420000D03*
%TO.P,U1,18,D4*%
%TO.N,Net-(U1-D4)*%
X63500000Y-66960000D03*
%TO.P,U1,19,D5*%
%TO.N,Net-(U1-D5)*%
X63500000Y-69500000D03*
%TO.P,U1,20,D6*%
%TO.N,Net-(U1-D6)*%
X63500000Y-72040000D03*
%TO.P,U1,21,D7*%
%TO.N,Net-(U1-D7)*%
X63500000Y-74580000D03*
%TO.P,U1,22,FAULT*%
%TO.N,Net-(U1-FAULT)*%
X63500000Y-77120000D03*
%TO.P,U1,23,ENABLE*%
%TO.N,Net-(U1-ENABLE)*%
X63500000Y-79660000D03*
%TD*%
D12*
%TO.P,R5,1*%
%TO.N,Net-(U1-WRITE_1)*%
X68000000Y-36500000D03*
%TO.P,R5,2*%
%TO.N,Net-(U1-GND)*%
X78160000Y-36500000D03*
%TD*%
%TO.P,R4,1*%
%TO.N,Net-(U1-WRITE_0)*%
X68000000Y-33750000D03*
%TO.P,R4,2*%
%TO.N,Net-(U1-GND)*%
X78160000Y-33750000D03*
%TD*%
%TO.P,R3,1*%
%TO.N,Net-(U1-READ_1)*%
X67920000Y-26250000D03*
%TO.P,R3,2*%
%TO.N,Net-(U1-GND)*%
X78080000Y-26250000D03*
%TD*%
%TO.P,R2,1*%
%TO.N,Net-(U1-READ_0)*%
X67840000Y-23500000D03*
%TO.P,R2,2*%
%TO.N,Net-(U1-GND)*%
X78000000Y-23500000D03*
%TD*%
%TO.P,R1,1*%
%TO.N,Net-(U1-GND)*%
X64250000Y-85420000D03*
%TO.P,R1,2*%
%TO.N,Net-(U1-ENABLE)*%
X64250000Y-95580000D03*
%TD*%
D15*
%TO.N,Net-(U11-1Q3)*%
X97689300Y-58588600D03*
X96590400Y-77435000D03*
%TO.N,Net-(U11-1D)*%
X78766800Y-59486800D03*
%TO.N,Net-(U10-O5)*%
X104881000Y-56565400D03*
%TO.N,Net-(U12-1B)*%
X93501900Y-62469600D03*
%TO.N,Net-(U10-O1)*%
X131978300Y-65785300D03*
%TO.N,Net-(U1-D6)*%
X131161100Y-94023400D03*
X134971600Y-73603900D03*
%TO.N,Net-(U1-D7)*%
X122262700Y-68226100D03*
%TO.N,Net-(U1-V+)*%
X95196700Y-80466500D03*
X117473800Y-102827200D03*
%TO.N,Net-(U1-D5)*%
X126976700Y-87806800D03*
X124984100Y-66192500D03*
%TO.N,Net-(U1-D4)*%
X127493500Y-61567800D03*
%TO.N,Net-(U1-FAULT)*%
X65822200Y-49921500D03*
%TO.N,Net-(U1-D1)*%
X129820600Y-50025800D03*
%TO.N,Net-(U1-WRITE_1)*%
X74900500Y-50971200D03*
%TO.N,Net-(U1-GND)*%
X78160000Y-47984800D03*
%TD*%
D16*
%TO.N,Net-(U11-1Q3)*%
X111201400Y-58588600D02*
X97689300Y-58588600D01*
X115170000Y-54620000D02*
X111201400Y-58588600D01*
X90645000Y-77435000D02*
X86960000Y-81120000D01*
X96590400Y-77435000D02*
X90645000Y-77435000D01*
%TO.N,Net-(U11-1D)*%
X112839700Y-59490300D02*
X117710000Y-54620000D01*
X97315900Y-59490300D02*
X112839700Y-59490300D01*
X97216300Y-59390700D02*
X97315900Y-59490300D01*
X78862900Y-59390700D02*
X97216300Y-59390700D01*
X78766800Y-59486800D02*
X78862900Y-59390700D01*
%TO.N,Net-(U10-O5)*%
X94127100Y-56565400D02*
X93691700Y-56130000D01*
X104881000Y-56565400D02*
X94127100Y-56565400D01*
X92290000Y-56130000D02*
X93691700Y-56130000D01*
X90884500Y-54724500D02*
X92290000Y-56130000D01*
X86075500Y-54724500D02*
X90884500Y-54724500D01*
X84670000Y-56130000D02*
X86075500Y-54724500D01*
%TO.N,Net-(U10-I5)*%
X99443000Y-32105000D02*
X94363000Y-32105000D01*
X86203300Y-65283300D02*
X84670000Y-63750000D01*
X106396700Y-65283300D02*
X86203300Y-65283300D01*
X107800000Y-63880000D02*
X106396700Y-65283300D01*
%TO.N,Net-(U10-I0)*%
X116094800Y-78184800D02*
X120040000Y-82130000D01*
X111944800Y-78184800D02*
X116094800Y-78184800D01*
X105260000Y-71500000D02*
X111944800Y-78184800D01*
%TO.N,Net-(U12-1B)*%
X93380600Y-62348300D02*
X93501900Y-62469600D01*
X88611700Y-62348300D02*
X93380600Y-62348300D01*
X87210000Y-63750000D02*
X88611700Y-62348300D01*
%TO.N,Net-(U11-1Q)*%
X95325000Y-88346700D02*
X89500000Y-82521700D01*
X95325000Y-102930000D02*
X95325000Y-88346700D01*
X89500000Y-81120000D02*
X89500000Y-82521700D01*
%TO.N,Net-(U6-D5)*%
X153183300Y-59065000D02*
X153728300Y-59610000D01*
X141000000Y-59065000D02*
X153183300Y-59065000D01*
X155180000Y-59610000D02*
X153728300Y-59610000D01*
%TO.N,Net-(U10-O1)*%
X128499100Y-69264500D02*
X131978300Y-65785300D01*
X115115500Y-69264500D02*
X128499100Y-69264500D01*
X112880000Y-71500000D02*
X115115500Y-69264500D01*
%TO.N,Net-(U6-D1)*%
X153183300Y-48905000D02*
X153728300Y-49450000D01*
X141000000Y-48905000D02*
X153183300Y-48905000D01*
X155180000Y-49450000D02*
X153728300Y-49450000D01*
%TO.N,Net-(U6-D3)*%
X153183300Y-53985000D02*
X153728300Y-54530000D01*
X141000000Y-53985000D02*
X153183300Y-53985000D01*
X155180000Y-54530000D02*
X153728300Y-54530000D01*
%TO.N,Net-(U6-D4)*%
X153183300Y-56525000D02*
X153728300Y-57070000D01*
X141000000Y-56525000D02*
X153183300Y-56525000D01*
X155180000Y-57070000D02*
X153728300Y-57070000D01*
%TO.N,Net-(U6-D7)*%
X153183300Y-64145000D02*
X153728300Y-64690000D01*
X141000000Y-64145000D02*
X153183300Y-64145000D01*
X155180000Y-64690000D02*
X153728300Y-64690000D01*
%TO.N,Net-(U6-D2)*%
X153183300Y-51445000D02*
X153728300Y-51990000D01*
X141000000Y-51445000D02*
X153183300Y-51445000D01*
X155180000Y-51990000D02*
X153728300Y-51990000D01*
%TO.N,Net-(U6-D0)*%
X153183300Y-46365000D02*
X153728300Y-46910000D01*
X141000000Y-46365000D02*
X153183300Y-46365000D01*
X155180000Y-46910000D02*
X153728300Y-46910000D01*
%TO.N,Net-(U6-D6)*%
X153183300Y-61605000D02*
X153728300Y-62150000D01*
X141000000Y-61605000D02*
X153183300Y-61605000D01*
X155180000Y-62150000D02*
X153728300Y-62150000D01*
%TO.N,Net-(U5-CLK)*%
X102144400Y-103730600D02*
X95325000Y-110550000D01*
X139999100Y-103730600D02*
X102144400Y-103730600D01*
X141771700Y-101958000D02*
X139999100Y-103730600D01*
X141771700Y-97833400D02*
X141771700Y-101958000D01*
X140870000Y-96931700D02*
X141771700Y-97833400D01*
X140870000Y-95530000D02*
X140870000Y-96931700D01*
%TO.N,Net-(U4-1)*%
X140870000Y-77750000D02*
X155750000Y-77750000D01*
%TO.N,Net-(U4-4)*%
X140870000Y-85370000D02*
X155750000Y-85370000D01*
%TO.N,Net-(U4-0)*%
X140870000Y-75210000D02*
X155750000Y-75210000D01*
%TO.N,Net-(U4-3)*%
X140870000Y-82830000D02*
X155750000Y-82830000D01*
%TO.N,Net-(U4-2)*%
X140870000Y-80290000D02*
X155750000Y-80290000D01*
%TO.N,Net-(U4-5)*%
X140870000Y-87910000D02*
X155750000Y-87910000D01*
%TO.N,Net-(U4-6)*%
X140870000Y-90450000D02*
X155750000Y-90450000D01*
%TO.N,Net-(U4-7)*%
X140870000Y-92990000D02*
X155750000Y-92990000D01*
%TO.N,Net-(U3-Q5)*%
X155750000Y-108230000D02*
X154298300Y-108230000D01*
X151090000Y-111438300D02*
X154298300Y-108230000D01*
X128068300Y-111438300D02*
X151090000Y-111438300D01*
X125130000Y-108500000D02*
X128068300Y-111438300D01*
%TO.N,Net-(U3-Q2)*%
X155750000Y-100610000D02*
X154298300Y-100610000D01*
X134197000Y-109947000D02*
X132750000Y-108500000D01*
X144961300Y-109947000D02*
X134197000Y-109947000D01*
X154298300Y-100610000D02*
X144961300Y-109947000D01*
%TO.N,Net-(U3-Q7)*%
X124860000Y-113310000D02*
X154298300Y-113310000D01*
X120050000Y-108500000D02*
X124860000Y-113310000D01*
X155750000Y-113310000D02*
X154298300Y-113310000D01*
%TO.N,Net-(U3-Q1)*%
X147650600Y-104717700D02*
X154298300Y-98070000D01*
X139072300Y-104717700D02*
X147650600Y-104717700D01*
X135290000Y-108500000D02*
X139072300Y-104717700D01*
X155750000Y-98070000D02*
X154298300Y-98070000D01*
%TO.N,Net-(U3-CLK)*%
X89124900Y-111969900D02*
X87705000Y-110550000D01*
X112638400Y-111969900D02*
X89124900Y-111969900D01*
X116108300Y-108500000D02*
X112638400Y-111969900D01*
X117510000Y-108500000D02*
X116108300Y-108500000D01*
%TO.N,Net-(U3-Q4)*%
X149296400Y-110691900D02*
X154298300Y-105690000D01*
X129861900Y-110691900D02*
X149296400Y-110691900D01*
X127670000Y-108500000D02*
X129861900Y-110691900D01*
X155750000Y-105690000D02*
X154298300Y-105690000D01*
%TO.N,Net-(U2-D2)*%
X155180000Y-31670000D02*
X153728300Y-31670000D01*
X128239900Y-28180100D02*
X125420000Y-31000000D01*
X150238400Y-28180100D02*
X128239900Y-28180100D01*
X153728300Y-31670000D02*
X150238400Y-28180100D01*
%TO.N,Net-(U14-IN)*%
X99480000Y-24380000D02*
X94400000Y-24380000D01*
X116383600Y-83553600D02*
X114960000Y-82130000D01*
X121069200Y-83553600D02*
X116383600Y-83553600D01*
X124429500Y-80193300D02*
X121069200Y-83553600D01*
X124429500Y-76862000D02*
X124429500Y-80193300D01*
X133204800Y-68086700D02*
X124429500Y-76862000D01*
X133380000Y-68086700D02*
X133204800Y-68086700D01*
X133380000Y-66685000D02*
X133380000Y-68086700D01*
X102722500Y-27622500D02*
X99480000Y-24380000D01*
X110423700Y-27622500D02*
X102722500Y-27622500D01*
X116526000Y-33724800D02*
X110423700Y-27622500D01*
X135764800Y-33724800D02*
X116526000Y-33724800D01*
X140660000Y-38620000D02*
X135764800Y-33724800D01*
%TO.N,Net-(U2-D4)*%
X145860100Y-28881800D02*
X153728300Y-36750000D01*
X132618200Y-28881800D02*
X145860100Y-28881800D01*
X130500000Y-31000000D02*
X132618200Y-28881800D01*
X155180000Y-36750000D02*
X153728300Y-36750000D01*
%TO.N,Net-(U2-D0)*%
X124750000Y-26590000D02*
X153728300Y-26590000D01*
X120340000Y-31000000D02*
X124750000Y-26590000D01*
X155180000Y-26590000D02*
X153728300Y-26590000D01*
%TO.N,Net-(U2-D7)*%
X151490000Y-44370000D02*
X155180000Y-44370000D01*
X138120000Y-31000000D02*
X151490000Y-44370000D01*
%TO.N,Net-(U2-D6)*%
X155180000Y-41830000D02*
X153728300Y-41830000D01*
X141495900Y-29597600D02*
X153728300Y-41830000D01*
X136982400Y-29597600D02*
X141495900Y-29597600D01*
X135580000Y-31000000D02*
X136982400Y-29597600D01*
%TO.N,Net-(U1-D3)*%
X63500000Y-64420000D02*
X64951700Y-64420000D01*
X134781700Y-55386700D02*
X133380000Y-53985000D01*
X134781700Y-67788400D02*
X134781700Y-55386700D01*
X132014400Y-70555700D02*
X134781700Y-67788400D01*
X131766800Y-70555700D02*
X132014400Y-70555700D01*
X131108200Y-71214300D02*
X131766800Y-70555700D01*
X131108200Y-80688200D02*
X131108200Y-71214300D01*
X133250000Y-82830000D02*
X131108200Y-80688200D01*
X133380000Y-53985000D02*
X131978300Y-53985000D01*
X125069600Y-60893700D02*
X131978300Y-53985000D01*
X96734700Y-60893700D02*
X125069600Y-60893700D01*
X96654200Y-60813200D02*
X96734700Y-60893700D01*
X79707900Y-60813200D02*
X96654200Y-60813200D01*
X79430900Y-61090200D02*
X79707900Y-60813200D01*
X68281500Y-61090200D02*
X79430900Y-61090200D01*
X64951700Y-64420000D02*
X68281500Y-61090200D01*
%TO.N,Net-(U1-D6)*%
X129446600Y-94023400D02*
X131161100Y-94023400D01*
X122590000Y-100880000D02*
X129446600Y-94023400D01*
X134971600Y-88728400D02*
X133250000Y-90450000D01*
X134971600Y-73603900D02*
X134971600Y-88728400D01*
X126274700Y-67308600D02*
X131978300Y-61605000D01*
X69683100Y-67308600D02*
X126274700Y-67308600D01*
X64951700Y-72040000D02*
X69683100Y-67308600D01*
X63500000Y-72040000D02*
X64951700Y-72040000D01*
X133380000Y-61605000D02*
X131978300Y-61605000D01*
%TO.N,Net-(U1-D7)*%
X127940000Y-92990000D02*
X133250000Y-92990000D01*
X120050000Y-100880000D02*
X127940000Y-92990000D01*
X63500000Y-74580000D02*
X64951700Y-74580000D01*
X133380000Y-64145000D02*
X131978300Y-64145000D01*
X127897200Y-68226100D02*
X131978300Y-64145000D01*
X122262700Y-68226100D02*
X127897200Y-68226100D01*
X71305600Y-68226100D02*
X122262700Y-68226100D01*
X64951700Y-74580000D02*
X71305600Y-68226100D01*
%TO.N,Net-(U1-V+)*%
X92290000Y-63750000D02*
X93691700Y-63750000D01*
X63500000Y-51720000D02*
X64951700Y-51720000D01*
X133380000Y-43825000D02*
X131978300Y-43825000D01*
X93821700Y-63880000D02*
X103858300Y-63880000D01*
X93691700Y-63750000D02*
X93821700Y-63880000D01*
X105260000Y-63880000D02*
X103858300Y-63880000D01*
X117800000Y-38620000D02*
X117800000Y-40021700D01*
X117800000Y-40021700D02*
X117800000Y-41176900D01*
X120448100Y-43825000D02*
X131978300Y-43825000D01*
X117800000Y-41176900D02*
X120448100Y-43825000D01*
X110833100Y-41176900D02*
X117800000Y-41176900D01*
X105010000Y-47000000D02*
X110833100Y-41176900D01*
X92040000Y-81120000D02*
X93441700Y-81120000D01*
X70082800Y-47000000D02*
X105010000Y-47000000D01*
X65362800Y-51720000D02*
X70082800Y-47000000D01*
X64951700Y-51720000D02*
X65362800Y-51720000D01*
X94095200Y-80466500D02*
X95196700Y-80466500D01*
X93441700Y-81120000D02*
X94095200Y-80466500D01*
X116892100Y-86602100D02*
X120040000Y-89750000D01*
X101332300Y-86602100D02*
X116892100Y-86602100D01*
X95196700Y-80466500D02*
X101332300Y-86602100D01*
X116083700Y-95108000D02*
X120040000Y-91151700D01*
X116083700Y-101437100D02*
X116083700Y-95108000D01*
X117473800Y-102827200D02*
X116083700Y-101437100D01*
X120040000Y-89750000D02*
X120040000Y-91151700D01*
%TO.N,Net-(U1-D5)*%
X133250000Y-87910000D02*
X131848300Y-87910000D01*
X131745100Y-87806800D02*
X126976700Y-87806800D01*
X131848300Y-87910000D02*
X131745100Y-87806800D01*
X63500000Y-69500000D02*
X64951700Y-69500000D01*
X133380000Y-59065000D02*
X131978300Y-59065000D01*
X124984100Y-66059200D02*
X131978300Y-59065000D01*
X124984100Y-66192500D02*
X124984100Y-66059200D01*
X68259200Y-66192500D02*
X64951700Y-69500000D01*
X124984100Y-66192500D02*
X68259200Y-66192500D01*
%TO.N,Net-(U1-D2)*%
X133380000Y-51445000D02*
X134781700Y-51445000D01*
X126822700Y-40022700D02*
X125420000Y-38620000D01*
X132651400Y-40022700D02*
X126822700Y-40022700D01*
X135528400Y-42899700D02*
X132651400Y-40022700D01*
X135528400Y-50698300D02*
X135528400Y-42899700D01*
X134781700Y-51445000D02*
X135528400Y-50698300D01*
X135495900Y-52159200D02*
X134781700Y-51445000D01*
X135495900Y-68066500D02*
X135495900Y-52159200D01*
X132305000Y-71257400D02*
X135495900Y-68066500D01*
X132181100Y-71257400D02*
X132305000Y-71257400D01*
X131811400Y-71627100D02*
X132181100Y-71257400D01*
X131811400Y-78851400D02*
X131811400Y-71627100D01*
X133250000Y-80290000D02*
X131811400Y-78851400D01*
X63500000Y-61880000D02*
X64951700Y-61880000D01*
X133380000Y-51445000D02*
X131978300Y-51445000D01*
X123231300Y-60192000D02*
X131978300Y-51445000D01*
X97025300Y-60192000D02*
X123231300Y-60192000D01*
X96943300Y-60110000D02*
X97025300Y-60192000D01*
X79418800Y-60110000D02*
X96943300Y-60110000D01*
X79140300Y-60388500D02*
X79418800Y-60110000D01*
X66443200Y-60388500D02*
X79140300Y-60388500D01*
X64951700Y-61880000D02*
X66443200Y-60388500D01*
%TO.N,Net-(U1-READ_READY)*%
X107100000Y-24380000D02*
X102020000Y-24380000D01*
X100604500Y-22964500D02*
X102020000Y-24380000D01*
X86087200Y-22964500D02*
X100604500Y-22964500D01*
X64951700Y-44100000D02*
X86087200Y-22964500D01*
X63500000Y-44100000D02*
X64951700Y-44100000D01*
%TO.N,Net-(U1-CLK_B)*%
X83000200Y-79700200D02*
X84420000Y-81120000D01*
X73727900Y-79700200D02*
X83000200Y-79700200D01*
X72310800Y-81117300D02*
X73727900Y-79700200D01*
X62897000Y-81117300D02*
X72310800Y-81117300D01*
X62008600Y-80228900D02*
X62897000Y-81117300D01*
X62008600Y-50671400D02*
X62008600Y-80228900D01*
X63500000Y-49180000D02*
X62008600Y-50671400D01*
%TO.N,Net-(U1-D0)*%
X63500000Y-56800000D02*
X64951700Y-56800000D01*
X133380000Y-46365000D02*
X131978300Y-46365000D01*
X129122300Y-49221000D02*
X131978300Y-46365000D01*
X129122300Y-49221100D02*
X129122300Y-49221000D01*
X72530600Y-49221100D02*
X129122300Y-49221100D01*
X64951700Y-56800000D02*
X72530600Y-49221100D01*
%TO.N,Net-(U1-D4)*%
X63500000Y-66960000D02*
X64951700Y-66960000D01*
X133380000Y-56525000D02*
X131978300Y-56525000D01*
X127493500Y-61009800D02*
X131978300Y-56525000D01*
X127493500Y-61567800D02*
X127493500Y-61009800D01*
X127465900Y-61595400D02*
X127493500Y-61567800D01*
X96444100Y-61595400D02*
X127465900Y-61595400D01*
X96416500Y-61567800D02*
X96444100Y-61595400D01*
X79945600Y-61567800D02*
X96416500Y-61567800D01*
X79721500Y-61791900D02*
X79945600Y-61567800D01*
X70119800Y-61791900D02*
X79721500Y-61791900D01*
X64951700Y-66960000D02*
X70119800Y-61791900D01*
%TO.N,Net-(U1-CLK_A)*%
X88826400Y-109131400D02*
X90245000Y-110550000D01*
X84043600Y-109131400D02*
X88826400Y-109131400D01*
X82625000Y-110550000D02*
X84043600Y-109131400D01*
%TO.N,Net-(U1-FAULT)*%
X107063000Y-32105000D02*
X101983000Y-32105000D01*
X94789100Y-39298900D02*
X101983000Y-32105000D01*
X76444800Y-39298900D02*
X94789100Y-39298900D01*
X65822200Y-49921500D02*
X76444800Y-39298900D01*
%TO.N,Net-(U1-D1)*%
X134803500Y-47481500D02*
X133380000Y-48905000D01*
X134803500Y-43217600D02*
X134803500Y-47481500D01*
X132912100Y-41326200D02*
X134803500Y-43217600D01*
X125586200Y-41326200D02*
X132912100Y-41326200D01*
X122880000Y-38620000D02*
X125586200Y-41326200D01*
X63500000Y-59340000D02*
X64951700Y-59340000D01*
X133380000Y-48905000D02*
X131978300Y-48905000D01*
X74265900Y-50025800D02*
X64951700Y-59340000D01*
X129820600Y-50025800D02*
X74265900Y-50025800D01*
X130857500Y-50025800D02*
X129820600Y-50025800D01*
X131978300Y-48905000D02*
X130857500Y-50025800D01*
%TO.N,Net-(U1-WRITE_1)*%
X64971700Y-36500000D02*
X64951700Y-36480000D01*
X68000000Y-36500000D02*
X64971700Y-36500000D01*
X63500000Y-36480000D02*
X64951700Y-36480000D01*
X108981200Y-50971200D02*
X112630000Y-54620000D01*
X74900500Y-50971200D02*
X108981200Y-50971200D01*
%TO.N,Net-(U1-WRITE_0)*%
X65141700Y-33750000D02*
X64951700Y-33940000D01*
X68000000Y-33750000D02*
X65141700Y-33750000D01*
X63500000Y-33940000D02*
X64951700Y-33940000D01*
%TO.N,Net-(U1-GND)*%
X71098300Y-85420000D02*
X75398300Y-81120000D01*
X64250000Y-85420000D02*
X71098300Y-85420000D01*
X76800000Y-81120000D02*
X75398300Y-81120000D01*
X115170000Y-47000000D02*
X117710000Y-47000000D01*
X96903000Y-34645000D02*
X94363000Y-34645000D01*
X104800000Y-89750000D02*
X106201700Y-89750000D01*
X104800000Y-82130000D02*
X107340000Y-82130000D01*
X107340000Y-82130000D02*
X109880000Y-82130000D01*
X63500000Y-54260000D02*
X64951700Y-54260000D01*
X104800000Y-82130000D02*
X103398300Y-82130000D01*
X107550000Y-47000000D02*
X108951700Y-47000000D01*
X111500100Y-48410100D02*
X110090000Y-47000000D01*
X113759900Y-48410100D02*
X111500100Y-48410100D01*
X115170000Y-47000000D02*
X113759900Y-48410100D01*
X110090000Y-47000000D02*
X108951700Y-47000000D01*
X141000000Y-66685000D02*
X139598300Y-66685000D01*
X133250000Y-72670000D02*
X134651700Y-72670000D01*
X71226900Y-47984800D02*
X78160000Y-47984800D01*
X64951700Y-54260000D02*
X71226900Y-47984800D01*
X78000000Y-26170000D02*
X78000000Y-23500000D01*
X78080000Y-26250000D02*
X78000000Y-26170000D01*
X76800000Y-73500000D02*
X78201700Y-73500000D01*
X79340000Y-73500000D02*
X78201700Y-73500000D01*
X107340000Y-89750000D02*
X106201700Y-89750000D01*
X117500000Y-89750000D02*
X116098300Y-89750000D01*
X113554200Y-88344200D02*
X114960000Y-89750000D01*
X108745800Y-88344200D02*
X113554200Y-88344200D01*
X107340000Y-89750000D02*
X108745800Y-88344200D01*
X114960000Y-89750000D02*
X116098300Y-89750000D01*
X87453300Y-76533300D02*
X84420000Y-73500000D01*
X97801600Y-76533300D02*
X87453300Y-76533300D01*
X103398300Y-82130000D02*
X97801600Y-76533300D01*
X107550000Y-54620000D02*
X105010000Y-54620000D01*
X79158500Y-54021500D02*
X77050000Y-56130000D01*
X103009800Y-54021500D02*
X79158500Y-54021500D01*
X103608300Y-54620000D02*
X103009800Y-54021500D01*
X105010000Y-54620000D02*
X103608300Y-54620000D01*
X133250000Y-95530000D02*
X134651700Y-95530000D01*
X139811300Y-100880000D02*
X140370000Y-100880000D01*
X139811300Y-100881000D02*
X139811300Y-100880000D01*
X138394300Y-102298000D02*
X139811300Y-100881000D01*
X118928000Y-102298000D02*
X138394300Y-102298000D01*
X117510000Y-100880000D02*
X118928000Y-102298000D01*
X139811300Y-100689600D02*
X134651700Y-95530000D01*
X139811300Y-100880000D02*
X139811300Y-100689600D01*
X135924100Y-94257600D02*
X134651700Y-95530000D01*
X135924100Y-72670000D02*
X135924100Y-94257600D01*
X134651700Y-72670000D02*
X135924100Y-72670000D01*
X139598300Y-68995800D02*
X139598300Y-66685000D01*
X135924100Y-72670000D02*
X139598300Y-68995800D01*
%TO.N,Net-(U1-ENABLE)*%
X85165000Y-102930000D02*
X85165000Y-101528300D01*
X91383300Y-101528300D02*
X92785000Y-102930000D01*
X85165000Y-101528300D02*
X91383300Y-101528300D01*
X79216700Y-95580000D02*
X85165000Y-101528300D01*
X64250000Y-95580000D02*
X79216700Y-95580000D01*
%TD*%
%TA.AperFunction,Conductor*%
%TO.N,Net-(U1-V+)*%
G36*
X154558723Y-98761324D02*
G01*
X154614656Y-98803196D01*
X154616964Y-98806383D01*
X154711501Y-98941395D01*
X154711506Y-98941402D01*
X154878597Y-99108493D01*
X154878603Y-99108498D01*
X155064158Y-99238425D01*
X155107783Y-99293002D01*
X155114977Y-99362500D01*
X155083454Y-99424855D01*
X155064158Y-99441575D01*
X154878597Y-99571505D01*
X154711506Y-99738596D01*
X154575965Y-99932170D01*
X154575962Y-99932175D01*
X154573289Y-99937909D01*
X154527115Y-99990346D01*
X154460909Y-100009500D01*
X154384969Y-100009500D01*
X154384953Y-100009499D01*
X154377357Y-100009499D01*
X154219243Y-100009499D01*
X154111887Y-100038265D01*
X154066510Y-100050424D01*
X154066509Y-100050425D01*
X154016396Y-100079359D01*
X154016395Y-100079360D01*
X153972989Y-100104420D01*
X153929585Y-100129479D01*
X153929582Y-100129481D01*
X153817778Y-100241286D01*
X144748884Y-109310181D01*
X144687561Y-109343666D01*
X144661203Y-109346500D01*
X139063093Y-109346500D01*
X138996054Y-109326815D01*
X138950299Y-109274011D01*
X138940355Y-109204853D01*
X138958889Y-109158013D01*
X138957862Y-109157420D01*
X138960561Y-109152743D01*
X138960568Y-109152734D01*
X139056739Y-108946496D01*
X139115635Y-108726692D01*
X139135468Y-108500000D01*
X139115635Y-108273308D01*
X139056739Y-108053504D01*
X138960568Y-107847266D01*
X138862839Y-107707693D01*
X138830045Y-107660858D01*
X138669141Y-107499954D01*
X138482734Y-107369432D01*
X138482732Y-107369431D01*
X138276497Y-107273261D01*
X138276488Y-107273258D01*
X138056697Y-107214366D01*
X138056693Y-107214365D01*
X138056692Y-107214365D01*
X138056691Y-107214364D01*
X138056686Y-107214364D01*
X137830002Y-107194532D01*
X137829998Y-107194532D01*
X137747150Y-107201780D01*
X137678650Y-107188013D01*
X137628467Y-107139398D01*
X137612534Y-107071369D01*
X137635910Y-107005526D01*
X137648655Y-106990578D01*
X139284716Y-105354519D01*
X139346039Y-105321034D01*
X139372397Y-105318200D01*
X147563931Y-105318200D01*
X147563947Y-105318201D01*
X147571543Y-105318201D01*
X147729654Y-105318201D01*
X147729657Y-105318201D01*
X147882385Y-105277277D01*
X147970615Y-105226337D01*
X148019316Y-105198220D01*
X148131120Y-105086416D01*
X148131120Y-105086414D01*
X148141324Y-105076211D01*
X148141328Y-105076206D01*
X154427710Y-98789823D01*
X154489031Y-98756340D01*
X154558723Y-98761324D01*
G37*
%TD.AperFunction*%
%TA.AperFunction,Conductor*%
G36*
X96277804Y-62172524D02*
G01*
X96365042Y-62195900D01*
X96365043Y-62195900D01*
X126952783Y-62195900D01*
X127018755Y-62214906D01*
X127110284Y-62272418D01*
X127143978Y-62293589D01*
X127292223Y-62345462D01*
X127314245Y-62353168D01*
X127314250Y-62353169D01*
X127493496Y-62373365D01*
X127493498Y-62373365D01*
X127493498Y-62373364D01*
X127493500Y-62373365D01*
X127510102Y-62371494D01*
X127578923Y-62383547D01*
X127630303Y-62430895D01*
X127647929Y-62498505D01*
X127626204Y-62564911D01*
X127611668Y-62582395D01*
X124797303Y-65396760D01*
X124750578Y-65426120D01*
X124634576Y-65466711D01*
X124634575Y-65466712D01*
X124481836Y-65562685D01*
X124479003Y-65564945D01*
X124476824Y-65565834D01*
X124475942Y-65566389D01*
X124475844Y-65566234D01*
X124414317Y-65591355D01*
X124401688Y-65592000D01*
X107236597Y-65592000D01*
X107169558Y-65572315D01*
X107123803Y-65519511D01*
X107113859Y-65450353D01*
X107142884Y-65386797D01*
X107148907Y-65380326D01*
X107357295Y-65171938D01*
X107418614Y-65138456D01*
X107477066Y-65139847D01*
X107496466Y-65145045D01*
X107573308Y-65165635D01*
X107735230Y-65179801D01*
X107799998Y-65185468D01*
X107800000Y-65185468D01*
X107800002Y-65185468D01*
X107856673Y-65180509D01*
X108026692Y-65165635D01*
X108246496Y-65106739D01*
X108452734Y-65010568D01*
X108639139Y-64880047D01*
X108800047Y-64719139D01*
X108930568Y-64532734D01*
X108957618Y-64474724D01*
X109003790Y-64422285D01*
X109070983Y-64403133D01*
X109137865Y-64423348D01*
X109182381Y-64474724D01*
X109196517Y-64505038D01*
X109209429Y-64532728D01*
X109209432Y-64532734D01*
X109339954Y-64719141D01*
X109500858Y-64880045D01*
X109500861Y-64880047D01*
X109687266Y-65010568D01*
X109893504Y-65106739D01*
X110113308Y-65165635D01*
X110275230Y-65179801D01*
X110339998Y-65185468D01*
X110340000Y-65185468D01*
X110340002Y-65185468D01*
X110396673Y-65180509D01*
X110566692Y-65165635D01*
X110786496Y-65106739D01*
X110992734Y-65010568D01*
X111179139Y-64880047D01*
X111340047Y-64719139D01*
X111470568Y-64532734D01*
X111497618Y-64474724D01*
X111543790Y-64422285D01*
X111610983Y-64403133D01*
X111677865Y-64423348D01*
X111722381Y-64474724D01*
X111736517Y-64505038D01*
X111749429Y-64532728D01*
X111749432Y-64532734D01*
X111879954Y-64719141D01*
X112040858Y-64880045D01*
X112040861Y-64880047D01*
X112227266Y-65010568D01*
X112433504Y-65106739D01*
X112653308Y-65165635D01*
X112815230Y-65179801D01*
X112879998Y-65185468D01*
X112880000Y-65185468D01*
X112880002Y-65185468D01*
X112936673Y-65180509D01*
X113106692Y-65165635D01*
X113326496Y-65106739D01*
X113532734Y-65010568D01*
X113719139Y-64880047D01*
X113880047Y-64719139D01*
X114010568Y-64532734D01*
X114037618Y-64474724D01*
X114083790Y-64422285D01*
X114150983Y-64403133D01*
X114217865Y-64423348D01*
X114262381Y-64474724D01*
X114276517Y-64505038D01*
X114289429Y-64532728D01*
X114289432Y-64532734D01*
X114419954Y-64719141D01*
X114580858Y-64880045D01*
X114580861Y-64880047D01*
X114767266Y-65010568D01*
X114973504Y-65106739D01*
X115193308Y-65165635D01*
X115355230Y-65179801D01*
X115419998Y-65185468D01*
X115420000Y-65185468D01*
X115420002Y-65185468D01*
X115476673Y-65180509D01*
X115646692Y-65165635D01*
X115866496Y-65106739D01*
X116072734Y-65010568D01*
X116259139Y-64880047D01*
X116420047Y-64719139D01*
X116550568Y-64532734D01*
X116577618Y-64474724D01*
X116623790Y-64422285D01*
X116690983Y-64403133D01*
X116757865Y-64423348D01*
X116802381Y-64474724D01*
X116816517Y-64505038D01*
X116829429Y-64532728D01*
X116829432Y-64532734D01*
X116959954Y-64719141D01*
X117120858Y-64880045D01*
X117120861Y-64880047D01*
X117307266Y-65010568D01*
X117513504Y-65106739D01*
X117733308Y-65165635D01*
X117895230Y-65179801D01*
X117959998Y-65185468D01*
X117960000Y-65185468D01*
X117960002Y-65185468D01*
X118016673Y-65180509D01*
X118186692Y-65165635D01*
X118406496Y-65106739D01*
X118612734Y-65010568D01*
X118799139Y-64880047D01*
X118960047Y-64719139D01*
X119090568Y-64532734D01*
X119117618Y-64474724D01*
X119163790Y-64422285D01*
X119230983Y-64403133D01*
X119297865Y-64423348D01*
X119342381Y-64474724D01*
X119356517Y-64505038D01*
X119369429Y-64532728D01*
X119369432Y-64532734D01*
X119499954Y-64719141D01*
X119660858Y-64880045D01*
X119660861Y-64880047D01*
X119847266Y-65010568D01*
X120053504Y-65106739D01*
X120273308Y-65165635D01*
X120435230Y-65179801D01*
X120499998Y-65185468D01*
X120500000Y-65185468D01*
X120500002Y-65185468D01*
X120556673Y-65180509D01*
X120726692Y-65165635D01*
X120946496Y-65106739D01*
X121152734Y-65010568D01*
X121339139Y-64880047D01*
X121500047Y-64719139D01*
X121630568Y-64532734D01*
X121726739Y-64326496D01*
X121785635Y-64106692D01*
X121805468Y-63880000D01*
X121785635Y-63653308D01*
X121735167Y-63464957D01*
X121726741Y-63433511D01*
X121726738Y-63433502D01*
X121698526Y-63373002D01*
X121630568Y-63227266D01*
X121510737Y-63056128D01*
X121500045Y-63040858D01*
X121339141Y-62879954D01*
X121152734Y-62749432D01*
X121152732Y-62749431D01*
X120946497Y-62653261D01*
X120946488Y-62653258D01*
X120726697Y-62594366D01*
X120726693Y-62594365D01*
X120726692Y-62594365D01*
X120726691Y-62594364D01*
X120726686Y-62594364D01*
X120500002Y-62574532D01*
X120499998Y-62574532D01*
X120273313Y-62594364D01*
X120273302Y-62594366D01*
X120053511Y-62653258D01*
X120053502Y-62653261D01*
X119847267Y-62749431D01*
X119847265Y-62749432D01*
X119660858Y-62879954D01*
X119499954Y-63040858D01*
X119369432Y-63227265D01*
X119369431Y-63227267D01*
X119342382Y-63285275D01*
X119296209Y-63337714D01*
X119229016Y-63356866D01*
X119162135Y-63336650D01*
X119117618Y-63285275D01*
X119112904Y-63275165D01*
X119090568Y-63227266D01*
X118970737Y-63056128D01*
X118960045Y-63040858D01*
X118799141Y-62879954D01*
X118612734Y-62749432D01*
X118612732Y-62749431D01*
X118406497Y-62653261D01*
X118406488Y-62653258D01*
X118186697Y-62594366D01*
X118186693Y-62594365D01*
X118186692Y-62594365D01*
X118186691Y-62594364D01*
X118186686Y-62594364D01*
X117960002Y-62574532D01*
X117959998Y-62574532D01*
X117733313Y-62594364D01*
X117733302Y-62594366D01*
X117513511Y-62653258D01*
X117513502Y-62653261D01*
X117307267Y-62749431D01*
X117307265Y-62749432D01*
X117120858Y-62879954D01*
X116959954Y-63040858D01*
X116829432Y-63227265D01*
X116829431Y-63227267D01*
X116802382Y-63285275D01*
X116756209Y-63337714D01*
X116689016Y-63356866D01*
X116622135Y-63336650D01*
X116577618Y-63285275D01*
X116572904Y-63275165D01*
X116550568Y-63227266D01*
X116430737Y-63056128D01*
X116420045Y-63040858D01*
X116259141Y-62879954D01*
X116072734Y-62749432D01*
X116072732Y-62749431D01*
X115866497Y-62653261D01*
X115866488Y-62653258D01*
X115646697Y-62594366D01*
X115646693Y-62594365D01*
X115646692Y-62594365D01*
X115646691Y-62594364D01*
X115646686Y-62594364D01*
X115420002Y-62574532D01*
X115419998Y-62574532D01*
X115193313Y-62594364D01*
X115193302Y-62594366D01*
X114973511Y-62653258D01*
X114973502Y-62653261D01*
X114767267Y-62749431D01*
X114767265Y-62749432D01*
X114580858Y-62879954D01*
X114419954Y-63040858D01*
X114289432Y-63227265D01*
X114289431Y-63227267D01*
X114262382Y-63285275D01*
X114216209Y-63337714D01*
X114149016Y-63356866D01*
X114082135Y-63336650D01*
X114037618Y-63285275D01*
X114032904Y-63275165D01*
X114010568Y-63227266D01*
X113890737Y-63056128D01*
X113880045Y-63040858D01*
X113719141Y-62879954D01*
X113532734Y-62749432D01*
X113532732Y-62749431D01*
X113326497Y-62653261D01*
X113326488Y-62653258D01*
X113106697Y-62594366D01*
X113106693Y-62594365D01*
X113106692Y-62594365D01*
X113106691Y-62594364D01*
X113106686Y-62594364D01*
X112880002Y-62574532D01*
X112879998Y-62574532D01*
X112653313Y-62594364D01*
X112653302Y-62594366D01*
X112433511Y-62653258D01*
X112433502Y-62653261D01*
X112227267Y-62749431D01*
X112227265Y-62749432D01*
X112040858Y-62879954D01*
X111879954Y-63040858D01*
X111749432Y-63227265D01*
X111749431Y-63227267D01*
X111722382Y-63285275D01*
X111676209Y-63337714D01*
X111609016Y-63356866D01*
X111542135Y-63336650D01*
X111497618Y-63285275D01*
X111492904Y-63275165D01*
X111470568Y-63227266D01*
X111350737Y-63056128D01*
X111340045Y-63040858D01*
X111179141Y-62879954D01*
X110992734Y-62749432D01*
X110992732Y-62749431D01*
X110786497Y-62653261D01*
X110786488Y-62653258D01*
X110566697Y-62594366D01*
X110566693Y-62594365D01*
X110566692Y-62594365D01*
X110566691Y-62594364D01*
X110566686Y-62594364D01*
X110340002Y-62574532D01*
X110339998Y-62574532D01*
X110113313Y-62594364D01*
X110113302Y-62594366D01*
X109893511Y-62653258D01*
X109893502Y-62653261D01*
X109687267Y-62749431D01*
X109687265Y-62749432D01*
X109500858Y-62879954D01*
X109339954Y-63040858D01*
X109209432Y-63227265D01*
X109209431Y-63227267D01*
X109182382Y-63285275D01*
X109136209Y-63337714D01*
X109069016Y-63356866D01*
X109002135Y-63336650D01*
X108957618Y-63285275D01*
X108952904Y-63275165D01*
X108930568Y-63227266D01*
X108810737Y-63056128D01*
X108800045Y-63040858D01*
X108639141Y-62879954D01*
X108452734Y-62749432D01*
X108452732Y-62749431D01*
X108246497Y-62653261D01*
X108246488Y-62653258D01*
X108026697Y-62594366D01*
X108026693Y-62594365D01*
X108026692Y-62594365D01*
X108026691Y-62594364D01*
X108026686Y-62594364D01*
X107800002Y-62574532D01*
X107799998Y-62574532D01*
X107573313Y-62594364D01*
X107573302Y-62594366D01*
X107353511Y-62653258D01*
X107353502Y-62653261D01*
X107147267Y-62749431D01*
X107147265Y-62749432D01*
X106960858Y-62879954D01*
X106799954Y-63040858D01*
X106669432Y-63227265D01*
X106669431Y-63227267D01*
X106573261Y-63433502D01*
X106573258Y-63433511D01*
X106514366Y-63653302D01*
X106514364Y-63653313D01*
X106494532Y-63879998D01*
X106494532Y-63880001D01*
X106514364Y-64106686D01*
X106514366Y-64106697D01*
X106540152Y-64202931D01*
X106538489Y-64272781D01*
X106508058Y-64322705D01*
X106184282Y-64646482D01*
X106122961Y-64679966D01*
X106096603Y-64682800D01*
X90922666Y-64682800D01*
X90855627Y-64663115D01*
X90809872Y-64610311D01*
X90799928Y-64541153D01*
X90821091Y-64487677D01*
X90844261Y-64454586D01*
X90880568Y-64402734D01*
X90976739Y-64196496D01*
X91035635Y-63976692D01*
X91055468Y-63750000D01*
X91035635Y-63523308D01*
X90990916Y-63356415D01*
X90976741Y-63303511D01*
X90976738Y-63303502D01*
X90961422Y-63270657D01*
X90893595Y-63125204D01*
X90883104Y-63056128D01*
X90911624Y-62992344D01*
X90970100Y-62954104D01*
X91005978Y-62948800D01*
X92797660Y-62948800D01*
X92864699Y-62968485D01*
X92885341Y-62985119D01*
X92999638Y-63099416D01*
X93152378Y-63195389D01*
X93243480Y-63227267D01*
X93322645Y-63254968D01*
X93322650Y-63254969D01*
X93501896Y-63275165D01*
X93501900Y-63275165D01*
X93501904Y-63275165D01*
X93681149Y-63254969D01*
X93681152Y-63254968D01*
X93681155Y-63254968D01*
X93851422Y-63195389D01*
X94004162Y-63099416D01*
X94131716Y-62971862D01*
X94227689Y-62819122D01*
X94287268Y-62648855D01*
X94289211Y-62631611D01*
X94307465Y-62469603D01*
X94307465Y-62469596D01*
X94289053Y-62306183D01*
X94301108Y-62237362D01*
X94348457Y-62185982D01*
X94412273Y-62168300D01*
X96245712Y-62168300D01*
X96277804Y-62172524D01*
G37*
%TD.AperFunction*%
%TA.AperFunction,Conductor*%
G36*
X93259427Y-23584685D02*
G01*
X93305182Y-23637489D01*
X93315126Y-23706647D01*
X93303391Y-23740797D01*
X93304754Y-23741433D01*
X93209107Y-23946548D01*
X93209104Y-23946554D01*
X93151930Y-24159929D01*
X93151929Y-24159937D01*
X93132677Y-24379997D01*
X93132677Y-24380002D01*
X93151929Y-24600062D01*
X93151930Y-24600070D01*
X93209104Y-24813445D01*
X93209105Y-24813447D01*
X93209106Y-24813450D01*
X93267140Y-24937905D01*
X93302466Y-25013662D01*
X93302468Y-25013666D01*
X93429170Y-25194615D01*
X93429175Y-25194621D01*
X93585378Y-25350824D01*
X93585384Y-25350829D01*
X93766333Y-25477531D01*
X93766335Y-25477532D01*
X93766338Y-25477534D01*
X93842093Y-25512859D01*
X93895189Y-25537618D01*
X93947628Y-25583790D01*
X93966780Y-25650984D01*
X93946564Y-25717865D01*
X93895189Y-25762382D01*
X93766340Y-25822465D01*
X93766338Y-25822466D01*
X93585377Y-25949175D01*
X93429175Y-26105377D01*
X93302466Y-26286338D01*
X93302465Y-26286340D01*
X93242382Y-26415189D01*
X93216795Y-26470062D01*
X93209107Y-26486548D01*
X93209104Y-26486554D01*
X93151930Y-26699929D01*
X93151929Y-26699937D01*
X93132677Y-26919997D01*
X93132677Y-26920002D01*
X93151929Y-27140062D01*
X93151930Y-27140070D01*
X93209104Y-27353445D01*
X93209105Y-27353447D01*
X93209106Y-27353450D01*
X93242382Y-27424811D01*
X93302466Y-27553662D01*
X93302468Y-27553666D01*
X93429170Y-27734615D01*
X93429175Y-27734621D01*
X93585378Y-27890824D01*
X93585384Y-27890829D01*
X93766333Y-28017531D01*
X93766335Y-28017532D01*
X93766338Y-28017534D01*
X93966550Y-28110894D01*
X94179932Y-28168070D01*
X94337123Y-28181822D01*
X94399998Y-28187323D01*
X94400000Y-28187323D01*
X94400002Y-28187323D01*
X94460009Y-28182073D01*
X94620068Y-28168070D01*
X94833450Y-28110894D01*
X95033662Y-28017534D01*
X95214620Y-27890826D01*
X95370826Y-27734620D01*
X95497534Y-27553662D01*
X95557618Y-27424811D01*
X95603790Y-27372371D01*
X95670983Y-27353219D01*
X95737865Y-27373435D01*
X95782382Y-27424811D01*
X95842464Y-27553658D01*
X95842468Y-27553666D01*
X95969170Y-27734615D01*
X95969175Y-27734621D01*
X96125378Y-27890824D01*
X96125384Y-27890829D01*
X96306333Y-28017531D01*
X96306335Y-28017532D01*
X96306338Y-28017534D01*
X96506550Y-28110894D01*
X96719932Y-28168070D01*
X96877123Y-28181822D01*
X96939998Y-28187323D01*
X96940000Y-28187323D01*
X96940002Y-28187323D01*
X97000009Y-28182073D01*
X97160068Y-28168070D01*
X97373450Y-28110894D01*
X97573662Y-28017534D01*
X97754620Y-27890826D01*
X97910826Y-27734620D01*
X98037534Y-27553662D01*
X98130894Y-27353450D01*
X98188070Y-27140068D01*
X98207323Y-26920000D01*
X98188070Y-26699932D01*
X98130894Y-26486550D01*
X98037534Y-26286339D01*
X97910826Y-26105380D01*
X97754620Y-25949174D01*
X97754616Y-25949171D01*
X97754615Y-25949170D01*
X97573666Y-25822468D01*
X97573662Y-25822466D01*
X97560971Y-25816548D01*
X97373450Y-25729106D01*
X97373447Y-25729105D01*
X97373445Y-25729104D01*
X97160070Y-25671930D01*
X97160062Y-25671929D01*
X96940002Y-25652677D01*
X96939998Y-25652677D01*
X96719937Y-25671929D01*
X96719929Y-25671930D01*
X96506554Y-25729104D01*
X96506548Y-25729107D01*
X96306340Y-25822465D01*
X96306338Y-25822466D01*
X96125377Y-25949175D01*
X95969175Y-26105377D01*
X95842466Y-26286338D01*
X95842465Y-26286340D01*
X95782382Y-26415189D01*
X95736209Y-26467628D01*
X95669016Y-26486780D01*
X95602135Y-26466564D01*
X95557618Y-26415189D01*
X95497534Y-26286340D01*
X95497533Y-26286338D01*
X95370827Y-26105381D01*
X95295375Y-26029929D01*
X95214620Y-25949174D01*
X95214616Y-25949171D01*
X95214615Y-25949170D01*
X95033666Y-25822468D01*
X95033658Y-25822464D01*
X94904811Y-25762382D01*
X94852371Y-25716210D01*
X94833219Y-25649017D01*
X94853435Y-25582135D01*
X94904811Y-25537618D01*
X94910802Y-25534824D01*
X95033662Y-25477534D01*
X95214620Y-25350826D01*
X95370826Y-25194620D01*
X95465715Y-25059104D01*
X95483730Y-25033377D01*
X95538307Y-24989752D01*
X95585305Y-24980500D01*
X98294695Y-24980500D01*
X98361734Y-25000185D01*
X98396270Y-25033377D01*
X98424570Y-25073793D01*
X98509170Y-25194615D01*
X98509175Y-25194621D01*
X98665378Y-25350824D01*
X98665384Y-25350829D01*
X98846333Y-25477531D01*
X98846335Y-25477532D01*
X98846338Y-25477534D01*
X99046550Y-25570894D01*
X99259932Y-25628070D01*
X99406743Y-25640914D01*
X99479998Y-25647323D01*
X99480000Y-25647323D01*
X99480002Y-25647323D01*
X99510502Y-25644654D01*
X99700068Y-25628070D01*
X99771903Y-25608821D01*
X99841752Y-25610482D01*
X99891679Y-25640914D01*
X102237639Y-27986874D01*
X102237649Y-27986885D01*
X102241979Y-27991215D01*
X102241980Y-27991216D01*
X102353784Y-28103020D01*
X102353786Y-28103021D01*
X102353790Y-28103024D01*
X102466453Y-28168069D01*
X102490716Y-28182077D01*
X102602519Y-28212034D01*
X102643442Y-28223000D01*
X102643443Y-28223000D01*
X110123603Y-28223000D01*
X110190642Y-28242685D01*
X110211284Y-28259319D01*
X116041139Y-34089174D01*
X116041149Y-34089185D01*
X116045479Y-34093515D01*
X116045480Y-34093516D01*
X116157284Y-34205320D01*
X116157286Y-34205321D01*
X116157290Y-34205324D01*
X116294209Y-34284373D01*
X116294216Y-34284377D01*
X116385051Y-34308716D01*
X116446942Y-34325300D01*
X116446943Y-34325300D01*
X135464703Y-34325300D01*
X135531742Y-34344985D01*
X135552384Y-34361619D01*
X138301336Y-37110571D01*
X138334821Y-37171894D01*
X138329837Y-37241586D01*
X138287965Y-37297519D01*
X138222501Y-37321936D01*
X138202848Y-37321780D01*
X138120002Y-37314532D01*
X138119998Y-37314532D01*
X137893313Y-37334364D01*
X137893302Y-37334366D01*
X137673511Y-37393258D01*
X137673502Y-37393261D01*
X137467267Y-37489431D01*
X137467265Y-37489432D01*
X137280858Y-37619954D01*
X137119954Y-37780858D01*
X136989432Y-37967265D01*
X136989431Y-37967267D01*
X136962382Y-38025275D01*
X136916209Y-38077714D01*
X136849016Y-38096866D01*
X136782135Y-38076650D01*
X136737618Y-38025275D01*
X136717208Y-37981506D01*
X136710568Y-37967266D01*
X136591346Y-37796998D01*
X136580045Y-37780858D01*
X136419141Y-37619954D01*
X136232734Y-37489432D01*
X136232732Y-37489431D01*
X136026497Y-37393261D01*
X136026488Y-37393258D01*
X135806697Y-37334366D01*
X135806693Y-37334365D01*
X135806692Y-37334365D01*
X135806691Y-37334364D01*
X135806686Y-37334364D01*
X135580002Y-37314532D01*
X135579998Y-37314532D01*
X135353313Y-37334364D01*
X135353302Y-37334366D01*
X135133511Y-37393258D01*
X135133502Y-37393261D01*
X134927267Y-37489431D01*
X134927265Y-37489432D01*
X134740858Y-37619954D01*
X134579954Y-37780858D01*
X134449432Y-37967265D01*
X134449431Y-37967267D01*
X134422382Y-38025275D01*
X134376209Y-38077714D01*
X134309016Y-38096866D01*
X134242135Y-38076650D01*
X134197618Y-38025275D01*
X134177208Y-37981506D01*
X134170568Y-37967266D01*
X134051346Y-37796998D01*
X134040045Y-37780858D01*
X133879141Y-37619954D01*
X133692734Y-37489432D01*
X133692732Y-37489431D01*
X133486497Y-37393261D01*
X133486488Y-37393258D01*
X133266697Y-37334366D01*
X133266693Y-37334365D01*
X133266692Y-37334365D01*
X133266691Y-37334364D01*
X133266686Y-37334364D01*
X133040002Y-37314532D01*
X133039998Y-37314532D01*
X132813313Y-37334364D01*
X132813302Y-37334366D01*
X132593511Y-37393258D01*
X132593502Y-37393261D01*
X132387267Y-37489431D01*
X132387265Y-37489432D01*
X132200858Y-37619954D01*
X132039954Y-37780858D01*
X131909432Y-37967265D01*
X131909431Y-37967267D01*
X131882382Y-38025275D01*
X131836209Y-38077714D01*
X131769016Y-38096866D01*
X131702135Y-38076650D01*
X131657618Y-38025275D01*
X131637208Y-37981506D01*
X131630568Y-37967266D01*
X131511346Y-37796998D01*
X131500045Y-37780858D01*
X131339141Y-37619954D01*
X131152734Y-37489432D01*
X131152732Y-37489431D01*
X130946497Y-37393261D01*
X130946488Y-37393258D01*
X130726697Y-37334366D01*
X130726693Y-37334365D01*
X130726692Y-37334365D01*
X130726691Y-37334364D01*
X130726686Y-37334364D01*
X130500002Y-37314532D01*
X130499998Y-37314532D01*
X130273313Y-37334364D01*
X130273302Y-37334366D01*
X130053511Y-37393258D01*
X130053502Y-37393261D01*
X129847267Y-37489431D01*
X129847265Y-37489432D01*
X129660858Y-37619954D01*
X129499954Y-37780858D01*
X129369432Y-37967265D01*
X129369431Y-37967267D01*
X129342382Y-38025275D01*
X129296209Y-38077714D01*
X129229016Y-38096866D01*
X129162135Y-38076650D01*
X129117618Y-38025275D01*
X129097208Y-37981506D01*
X129090568Y-37967266D01*
X128971346Y-37796998D01*
X128960045Y-37780858D01*
X128799141Y-37619954D01*
X128612734Y-37489432D01*
X128612732Y-37489431D01*
X128406497Y-37393261D01*
X128406488Y-37393258D01*
X128186697Y-37334366D01*
X128186693Y-37334365D01*
X128186692Y-37334365D01*
X128186691Y-37334364D01*
X128186686Y-37334364D01*
X127960002Y-37314532D01*
X127959998Y-37314532D01*
X127733313Y-37334364D01*
X127733302Y-37334366D01*
X127513511Y-37393258D01*
X127513502Y-37393261D01*
X127307267Y-37489431D01*
X127307265Y-37489432D01*
X127120858Y-37619954D01*
X126959954Y-37780858D01*
X126829432Y-37967265D01*
X126829431Y-37967267D01*
X126802382Y-38025275D01*
X126756209Y-38077714D01*
X126689016Y-38096866D01*
X126622135Y-38076650D01*
X126577618Y-38025275D01*
X126557208Y-37981506D01*
X126550568Y-37967266D01*
X126431346Y-37796998D01*
X126420045Y-37780858D01*
X126259141Y-37619954D01*
X126072734Y-37489432D01*
X126072732Y-37489431D01*
X125866497Y-37393261D01*
X125866488Y-37393258D01*
X125646697Y-37334366D01*
X125646693Y-37334365D01*
X125646692Y-37334365D01*
X125646691Y-37334364D01*
X125646686Y-37334364D01*
X125420002Y-37314532D01*
X125419998Y-37314532D01*
X125193313Y-37334364D01*
X125193302Y-37334366D01*
X124973511Y-37393258D01*
X124973502Y-37393261D01*
X124767267Y-37489431D01*
X124767265Y-37489432D01*
X124580858Y-37619954D01*
X124419954Y-37780858D01*
X124289432Y-37967265D01*
X124289431Y-37967267D01*
X124262382Y-38025275D01*
X124216209Y-38077714D01*
X124149016Y-38096866D01*
X124082135Y-38076650D01*
X124037618Y-38025275D01*
X124017208Y-37981506D01*
X124010568Y-37967266D01*
X123891346Y-37796998D01*
X123880045Y-37780858D01*
X123719141Y-37619954D01*
X123532734Y-37489432D01*
X123532732Y-37489431D01*
X123326497Y-37393261D01*
X123326488Y-37393258D01*
X123106697Y-37334366D01*
X123106693Y-37334365D01*
X123106692Y-37334365D01*
X123106691Y-37334364D01*
X123106686Y-37334364D01*
X122880002Y-37314532D01*
X122879998Y-37314532D01*
X122653313Y-37334364D01*
X122653302Y-37334366D01*
X122433511Y-37393258D01*
X122433502Y-37393261D01*
X122227267Y-37489431D01*
X122227265Y-37489432D01*
X122040858Y-37619954D01*
X121879954Y-37780858D01*
X121749432Y-37967265D01*
X121749431Y-37967267D01*
X121722382Y-38025275D01*
X121676209Y-38077714D01*
X121609016Y-38096866D01*
X121542135Y-38076650D01*
X121497618Y-38025275D01*
X121477208Y-37981506D01*
X121470568Y-37967266D01*
X121351346Y-37796998D01*
X121340045Y-37780858D01*
X121179141Y-37619954D01*
X120992734Y-37489432D01*
X120992732Y-37489431D01*
X120786497Y-37393261D01*
X120786488Y-37393258D01*
X120566697Y-37334366D01*
X120566693Y-37334365D01*
X120566692Y-37334365D01*
X120566691Y-37334364D01*
X120566686Y-37334364D01*
X120340002Y-37314532D01*
X120339998Y-37314532D01*
X120113313Y-37334364D01*
X120113302Y-37334366D01*
X119893511Y-37393258D01*
X119893502Y-37393261D01*
X119687267Y-37489431D01*
X119687265Y-37489432D01*
X119500858Y-37619954D01*
X119339954Y-37780858D01*
X119209432Y-37967265D01*
X119209431Y-37967267D01*
X119113261Y-38173502D01*
X119113258Y-38173511D01*
X119054366Y-38393302D01*
X119054364Y-38393313D01*
X119034532Y-38619998D01*
X119034532Y-38620001D01*
X119054364Y-38846686D01*
X119054366Y-38846697D01*
X119113258Y-39066488D01*
X119113261Y-39066497D01*
X119209431Y-39272732D01*
X119209432Y-39272734D01*
X119339954Y-39459141D01*
X119500858Y-39620045D01*
X119500861Y-39620047D01*
X119687266Y-39750568D01*
X119893504Y-39846739D01*
X120113308Y-39905635D01*
X120255361Y-39918063D01*
X120339998Y-39925468D01*
X120340000Y-39925468D01*
X120340002Y-39925468D01*
X120396673Y-39920509D01*
X120566692Y-39905635D01*
X120786496Y-39846739D01*
X120992734Y-39750568D01*
X121179139Y-39620047D01*
X121340047Y-39459139D01*
X121470568Y-39272734D01*
X121497618Y-39214724D01*
X121543790Y-39162285D01*
X121610983Y-39143133D01*
X121677865Y-39163348D01*
X121722382Y-39214725D01*
X121749429Y-39272728D01*
X121749432Y-39272734D01*
X121879954Y-39459141D01*
X122040858Y-39620045D01*
X122040861Y-39620047D01*
X122227266Y-39750568D01*
X122433504Y-39846739D01*
X122653308Y-39905635D01*
X122795361Y-39918063D01*
X122879998Y-39925468D01*
X122880000Y-39925468D01*
X122880002Y-39925468D01*
X122936673Y-39920509D01*
X123106692Y-39905635D01*
X123202932Y-39879847D01*
X123272781Y-39881510D01*
X123322705Y-39911940D01*
X125217484Y-41806720D01*
X125217486Y-41806721D01*
X125217490Y-41806724D01*
X125354409Y-41885773D01*
X125354416Y-41885777D01*
X125507143Y-41926701D01*
X125507145Y-41926701D01*
X125672854Y-41926701D01*
X125672870Y-41926700D01*
X132612003Y-41926700D01*
X132679042Y-41946385D01*
X132699684Y-41963019D01*
X134166681Y-43430016D01*
X134200166Y-43491339D01*
X134203000Y-43517697D01*
X134203000Y-45119187D01*
X134183315Y-45186226D01*
X134130511Y-45231981D01*
X134061353Y-45241925D01*
X134026595Y-45231569D01*
X133951853Y-45196716D01*
X133826496Y-45138261D01*
X133826492Y-45138260D01*
X133826488Y-45138258D01*
X133606697Y-45079366D01*
X133606693Y-45079365D01*
X133606692Y-45079365D01*
X133606691Y-45079364D01*
X133606686Y-45079364D01*
X133380002Y-45059532D01*
X133379998Y-45059532D01*
X133153313Y-45079364D01*
X133153302Y-45079366D01*
X132933511Y-45138258D01*
X132933502Y-45138261D01*
X132727267Y-45234431D01*
X132727265Y-45234432D01*
X132540858Y-45364954D01*
X132379954Y-45525858D01*
X132326987Y-45601505D01*
X132249881Y-45711624D01*
X132195307Y-45755248D01*
X132148308Y-45764500D01*
X132064969Y-45764500D01*
X132064953Y-45764499D01*
X132057357Y-45764499D01*
X131899243Y-45764499D01*
X131791887Y-45793265D01*
X131746510Y-45805424D01*
X131746509Y-45805425D01*
X131696396Y-45834359D01*
X131696395Y-45834360D01*
X131652989Y-45859420D01*
X131609585Y-45884479D01*
X131609582Y-45884481D01*
X131497778Y-45996286D01*
X128909784Y-48584281D01*
X128848461Y-48617766D01*
X128822103Y-48620600D01*
X114697996Y-48620600D01*
X114630957Y-48600915D01*
X114585202Y-48548111D01*
X114575258Y-48478953D01*
X114604283Y-48415397D01*
X114610294Y-48408939D01*
X114727295Y-48291938D01*
X114788614Y-48258456D01*
X114847066Y-48259847D01*
X114853273Y-48261510D01*
X114943308Y-48285635D01*
X115105230Y-48299801D01*
X115169998Y-48305468D01*
X115170000Y-48305468D01*
X115170002Y-48305468D01*
X115226673Y-48300509D01*
X115396692Y-48285635D01*
X115616496Y-48226739D01*
X115822734Y-48130568D01*
X116009139Y-48000047D01*
X116170047Y-47839139D01*
X116300118Y-47653375D01*
X116354693Y-47609752D01*
X116401692Y-47600500D01*
X116478308Y-47600500D01*
X116545347Y-47620185D01*
X116579880Y-47653374D01*
X116613375Y-47701210D01*
X116709954Y-47839141D01*
X116870858Y-48000045D01*
X116870861Y-48000047D01*
X117057266Y-48130568D01*
X117263504Y-48226739D01*
X117263509Y-48226740D01*
X117263511Y-48226741D01*
X117316415Y-48240916D01*
X117483308Y-48285635D01*
X117645230Y-48299801D01*
X117709998Y-48305468D01*
X117710000Y-48305468D01*
X117710002Y-48305468D01*
X117766673Y-48300509D01*
X117936692Y-48285635D01*
X118156496Y-48226739D01*
X118362734Y-48130568D01*
X118549139Y-48000047D01*
X118710047Y-47839139D01*
X118840568Y-47652734D01*
X118867618Y-47594724D01*
X118913790Y-47542285D01*
X118980983Y-47523133D01*
X119047865Y-47543348D01*
X119092382Y-47594725D01*
X119119429Y-47652728D01*
X119119432Y-47652734D01*
X119249954Y-47839141D01*
X119410858Y-48000045D01*
X119410861Y-48000047D01*
X119597266Y-48130568D01*
X119803504Y-48226739D01*
X119803509Y-48226740D01*
X119803511Y-48226741D01*
X119856415Y-48240916D01*
X120023308Y-48285635D01*
X120185230Y-48299801D01*
X120249998Y-48305468D01*
X120250000Y-48305468D01*
X120250002Y-48305468D01*
X120306673Y-48300509D01*
X120476692Y-48285635D01*
X120696496Y-48226739D01*
X120902734Y-48130568D01*
X121089139Y-48000047D01*
X121250047Y-47839139D01*
X121380568Y-47652734D01*
X121476739Y-47446496D01*
X121535635Y-47226692D01*
X121553860Y-47018377D01*
X121555468Y-47000001D01*
X121555468Y-46999998D01*
X121544568Y-46875413D01*
X121535635Y-46773308D01*
X121476739Y-46553504D01*
X121380568Y-46347266D01*
X121250047Y-46160861D01*
X121250045Y-46160858D01*
X121089141Y-45999954D01*
X120902734Y-45869432D01*
X120902732Y-45869431D01*
X120696497Y-45773261D01*
X120696488Y-45773258D01*
X120476697Y-45714366D01*
X120476693Y-45714365D01*
X120476692Y-45714365D01*
X120476691Y-45714364D01*
X120476686Y-45714364D01*
X120250002Y-45694532D01*
X120249998Y-45694532D01*
X120023313Y-45714364D01*
X120023302Y-45714366D01*
X119803511Y-45773258D01*
X119803502Y-45773261D01*
X119597267Y-45869431D01*
X119597265Y-45869432D01*
X119410858Y-45999954D01*
X119249954Y-46160858D01*
X119119432Y-46347265D01*
X119119431Y-46347267D01*
X119111163Y-46364998D01*
X119092699Y-46404596D01*
X119092382Y-46405275D01*
X119046209Y-46457714D01*
X118979016Y-46476866D01*
X118912135Y-46456650D01*
X118867618Y-46405275D01*
X118840568Y-46347266D01*
X118710047Y-46160861D01*
X118710045Y-46160858D01*
X118549141Y-45999954D01*
X118362734Y-45869432D01*
X118362732Y-45869431D01*
X118156497Y-45773261D01*
X118156488Y-45773258D01*
X117936697Y-45714366D01*
X117936693Y-45714365D01*
X117936692Y-45714365D01*
X117936691Y-45714364D01*
X117936686Y-45714364D01*
X117710002Y-45694532D01*
X117709998Y-45694532D01*
X117483313Y-45714364D01*
X117483302Y-45714366D01*
X117263511Y-45773258D01*
X117263502Y-45773261D01*
X117057267Y-45869431D01*
X117057265Y-45869432D01*
X116870858Y-45999954D01*
X116709954Y-46160858D01*
X116633450Y-46270118D01*
X116579881Y-46346624D01*
X116525307Y-46390248D01*
X116478308Y-46399500D01*
X116401692Y-46399500D01*
X116334653Y-46379815D01*
X116300119Y-46346625D01*
X116170047Y-46160861D01*
X116170045Y-46160858D01*
X116009141Y-45999954D01*
X115822734Y-45869432D01*
X115822732Y-45869431D01*
X115616497Y-45773261D01*
X115616488Y-45773258D01*
X115396697Y-45714366D01*
X115396693Y-45714365D01*
X115396692Y-45714365D01*
X115396691Y-45714364D01*
X115396686Y-45714364D01*
X115170002Y-45694532D01*
X115169998Y-45694532D01*
X114943313Y-45714364D01*
X114943302Y-45714366D01*
X114723511Y-45773258D01*
X114723502Y-45773261D01*
X114517267Y-45869431D01*
X114517265Y-45869432D01*
X114330858Y-45999954D01*
X114169954Y-46160858D01*
X114039432Y-46347265D01*
X114039431Y-46347267D01*
X114031163Y-46364998D01*
X114012699Y-46404596D01*
X114012382Y-46405275D01*
X113966209Y-46457714D01*
X113899016Y-46476866D01*
X113832135Y-46456650D01*
X113787618Y-46405275D01*
X113760568Y-46347266D01*
X113630047Y-46160861D01*
X113630045Y-46160858D01*
X113469141Y-45999954D01*
X113282734Y-45869432D01*
X113282732Y-45869431D01*
X113076497Y-45773261D01*
X113076488Y-45773258D01*
X112856697Y-45714366D01*
X112856693Y-45714365D01*
X112856692Y-45714365D01*
X112856691Y-45714364D01*
X112856686Y-45714364D01*
X112630002Y-45694532D01*
X112629998Y-45694532D01*
X112403313Y-45714364D01*
X112403302Y-45714366D01*
X112183511Y-45773258D01*
X112183502Y-45773261D01*
X111977267Y-45869431D01*
X111977265Y-45869432D01*
X111790858Y-45999954D01*
X111629954Y-46160858D01*
X111499432Y-46347265D01*
X111499431Y-46347267D01*
X111491163Y-46364998D01*
X111472699Y-46404596D01*
X111472382Y-46405275D01*
X111426209Y-46457714D01*
X111359016Y-46476866D01*
X111292135Y-46456650D01*
X111247618Y-46405275D01*
X111220568Y-46347266D01*
X111090047Y-46160861D01*
X111090045Y-46160858D01*
X110929141Y-45999954D01*
X110742734Y-45869432D01*
X110742732Y-45869431D01*
X110536497Y-45773261D01*
X110536488Y-45773258D01*
X110316697Y-45714366D01*
X110316693Y-45714365D01*
X110316692Y-45714365D01*
X110316691Y-45714364D01*
X110316686Y-45714364D01*
X110090002Y-45694532D01*
X110089998Y-45694532D01*
X109863313Y-45714364D01*
X109863302Y-45714366D01*
X109643511Y-45773258D01*
X109643502Y-45773261D01*
X109437267Y-45869431D01*
X109437265Y-45869432D01*
X109250858Y-45999954D01*
X109089954Y-46160858D01*
X109013450Y-46270118D01*
X108959881Y-46346624D01*
X108905307Y-46390248D01*
X108858308Y-46399500D01*
X108781692Y-46399500D01*
X108714653Y-46379815D01*
X108680119Y-46346625D01*
X108550047Y-46160861D01*
X108550045Y-46160858D01*
X108389141Y-45999954D01*
X108202734Y-45869432D01*
X108202732Y-45869431D01*
X107996497Y-45773261D01*
X107996488Y-45773258D01*
X107776697Y-45714366D01*
X107776693Y-45714365D01*
X107776692Y-45714365D01*
X107776691Y-45714364D01*
X107776686Y-45714364D01*
X107550002Y-45694532D01*
X107549998Y-45694532D01*
X107323313Y-45714364D01*
X107323302Y-45714366D01*
X107103511Y-45773258D01*
X107103502Y-45773261D01*
X106897267Y-45869431D01*
X106897265Y-45869432D01*
X106710858Y-45999954D01*
X106549954Y-46160858D01*
X106419432Y-46347265D01*
X106419431Y-46347267D01*
X106323261Y-46553502D01*
X106323258Y-46553511D01*
X106264366Y-46773302D01*
X106264364Y-46773313D01*
X106244532Y-46999998D01*
X106244532Y-47000001D01*
X106264364Y-47226686D01*
X106264366Y-47226697D01*
X106323258Y-47446488D01*
X106323261Y-47446497D01*
X106419431Y-47652732D01*
X106419432Y-47652734D01*
X106549954Y-47839141D01*
X106710858Y-48000045D01*
X106710861Y-48000047D01*
X106897266Y-48130568D01*
X107103504Y-48226739D01*
X107103509Y-48226740D01*
X107103511Y-48226741D01*
X107156415Y-48240916D01*
X107323308Y-48285635D01*
X107485230Y-48299801D01*
X107549998Y-48305468D01*
X107550000Y-48305468D01*
X107550002Y-48305468D01*
X107606673Y-48300509D01*
X107776692Y-48285635D01*
X107996496Y-48226739D01*
X108202734Y-48130568D01*
X108389139Y-48000047D01*
X108550047Y-47839139D01*
X108680118Y-47653375D01*
X108734693Y-47609752D01*
X108781692Y-47600500D01*
X108858308Y-47600500D01*
X108925347Y-47620185D01*
X108959880Y-47653374D01*
X108993375Y-47701210D01*
X109089954Y-47839141D01*
X109250858Y-48000045D01*
X109250861Y-48000047D01*
X109437266Y-48130568D01*
X109643504Y-48226739D01*
X109643509Y-48226740D01*
X109643511Y-48226741D01*
X109696415Y-48240916D01*
X109863308Y-48285635D01*
X110025230Y-48299801D01*
X110089998Y-48305468D01*
X110090000Y-48305468D01*
X110090002Y-48305468D01*
X110146673Y-48300509D01*
X110316692Y-48285635D01*
X110412932Y-48259847D01*
X110482781Y-48261510D01*
X110532706Y-48291941D01*
X110649684Y-48408919D01*
X110683169Y-48470242D01*
X110678185Y-48539934D01*
X110636313Y-48595867D01*
X110570849Y-48620284D01*
X110562003Y-48620600D01*
X78930270Y-48620600D01*
X78863231Y-48600915D01*
X78817476Y-48548111D01*
X78807532Y-48478953D01*
X78825276Y-48430628D01*
X78854242Y-48384529D01*
X78885789Y-48334322D01*
X78945368Y-48164055D01*
X78947909Y-48141505D01*
X78965565Y-47984803D01*
X78965565Y-47984796D01*
X78945369Y-47805550D01*
X78945368Y-47805545D01*
X78909439Y-47702865D01*
X78885789Y-47635278D01*
X78885614Y-47635000D01*
X78828025Y-47543348D01*
X78789816Y-47482538D01*
X78662262Y-47354984D01*
X78509523Y-47259011D01*
X78339254Y-47199431D01*
X78339249Y-47199430D01*
X78160004Y-47179235D01*
X78159996Y-47179235D01*
X77980750Y-47199430D01*
X77980745Y-47199431D01*
X77810476Y-47259011D01*
X77657736Y-47354985D01*
X77654903Y-47357245D01*
X77652724Y-47358134D01*
X77651842Y-47358689D01*
X77651744Y-47358534D01*
X77590217Y-47383655D01*
X77577588Y-47384300D01*
X71313569Y-47384300D01*
X71313553Y-47384299D01*
X71305957Y-47384299D01*
X71147843Y-47384299D01*
X71040487Y-47413065D01*
X70995110Y-47425224D01*
X70995109Y-47425225D01*
X70944996Y-47454159D01*
X70944995Y-47454160D01*
X70918299Y-47469573D01*
X70858185Y-47504279D01*
X70858182Y-47504281D01*
X70746378Y-47616086D01*
X64822290Y-53540173D01*
X64760967Y-53573658D01*
X64691275Y-53568674D01*
X64635342Y-53526802D01*
X64633034Y-53523615D01*
X64538494Y-53388597D01*
X64371402Y-53221506D01*
X64371395Y-53221501D01*
X64177834Y-53085967D01*
X64177830Y-53085965D01*
X64177828Y-53085964D01*
X63963663Y-52986097D01*
X63963659Y-52986096D01*
X63963655Y-52986094D01*
X63735413Y-52924938D01*
X63735403Y-52924936D01*
X63500001Y-52904341D01*
X63499999Y-52904341D01*
X63264596Y-52924936D01*
X63264586Y-52924938D01*
X63036344Y-52986094D01*
X63036335Y-52986098D01*
X62822171Y-53085964D01*
X62822167Y-53085966D01*
X62804220Y-53098533D01*
X62738013Y-53120859D01*
X62670247Y-53103846D01*
X62622435Y-53052896D01*
X62609100Y-52996956D01*
X62609100Y-50971496D01*
X62628785Y-50904457D01*
X62645415Y-50883819D01*
X63016470Y-50512763D01*
X63077791Y-50479280D01*
X63136238Y-50480670D01*
X63264592Y-50515063D01*
X63452918Y-50531539D01*
X63499999Y-50535659D01*
X63500000Y-50535659D01*
X63500001Y-50535659D01*
X63539234Y-50532226D01*
X63735408Y-50515063D01*
X63963663Y-50453903D01*
X64177830Y-50354035D01*
X64371401Y-50218495D01*
X64538495Y-50051401D01*
X64629456Y-49921496D01*
X65016635Y-49921496D01*
X65016635Y-49921503D01*
X65036830Y-50100749D01*
X65036831Y-50100754D01*
X65096411Y-50271023D01*
X65192384Y-50423762D01*
X65319938Y-50551316D01*
X65374143Y-50585375D01*
X65470602Y-50645985D01*
X65472678Y-50647289D01*
X65546162Y-50673002D01*
X65642945Y-50706868D01*
X65642950Y-50706869D01*
X65822196Y-50727065D01*
X65822200Y-50727065D01*
X65822204Y-50727065D01*
X66001449Y-50706869D01*
X66001452Y-50706868D01*
X66001455Y-50706868D01*
X66171722Y-50647289D01*
X66324462Y-50551316D01*
X66452016Y-50423762D01*
X66547989Y-50271022D01*
X66607568Y-50100755D01*
X66617361Y-50013829D01*
X66644426Y-49949418D01*
X66652890Y-49940043D01*
X76657216Y-39935719D01*
X76718539Y-39902234D01*
X76744897Y-39899400D01*
X94702431Y-39899400D01*
X94702447Y-39899401D01*
X94710043Y-39899401D01*
X94868154Y-39899401D01*
X94868157Y-39899401D01*
X95020885Y-39858477D01*
X95071004Y-39829539D01*
X95157816Y-39779420D01*
X95269620Y-39667616D01*
X95269620Y-39667614D01*
X95279828Y-39657407D01*
X95279830Y-39657404D01*
X101571321Y-33365912D01*
X101632642Y-33332429D01*
X101691095Y-33333821D01*
X101762924Y-33353068D01*
X101762925Y-33353068D01*
X101762932Y-33353070D01*
X101950226Y-33369455D01*
X101982998Y-33372323D01*
X101983000Y-33372323D01*
X101983002Y-33372323D01*
X102038017Y-33367509D01*
X102203068Y-33353070D01*
X102416450Y-33295894D01*
X102616662Y-33202534D01*
X102797620Y-33075826D01*
X102953826Y-32919620D01*
X103052167Y-32779175D01*
X103066730Y-32758377D01*
X103121307Y-32714752D01*
X103168305Y-32705500D01*
X105877695Y-32705500D01*
X105944734Y-32725185D01*
X105979270Y-32758377D01*
X105993833Y-32779175D01*
X106092170Y-32919615D01*
X106092175Y-32919621D01*
X106248378Y-33075824D01*
X106248384Y-33075829D01*
X106429333Y-33202531D01*
X106429335Y-33202532D01*
X106429338Y-33202534D01*
X106629550Y-33295894D01*
X106842932Y-33353070D01*
X106989743Y-33365914D01*
X107062998Y-33372323D01*
X107063000Y-33372323D01*
X107063002Y-33372323D01*
X107118017Y-33367509D01*
X107283068Y-33353070D01*
X107496450Y-33295894D01*
X107696662Y-33202534D01*
X107877620Y-33075826D01*
X108033826Y-32919620D01*
X108160534Y-32738662D01*
X108253894Y-32538450D01*
X108311070Y-32325068D01*
X108330323Y-32105000D01*
X108327946Y-32077834D01*
X108313043Y-31907483D01*
X108311070Y-31884932D01*
X108253894Y-31671550D01*
X108160534Y-31471339D01*
X108033826Y-31290380D01*
X107877620Y-31134174D01*
X107877616Y-31134171D01*
X107877615Y-31134170D01*
X107696666Y-31007468D01*
X107696662Y-31007466D01*
X107680651Y-31000000D01*
X107496450Y-30914106D01*
X107496447Y-30914105D01*
X107496445Y-30914104D01*
X107283070Y-30856930D01*
X107283062Y-30856929D01*
X107063002Y-30837677D01*
X107062998Y-30837677D01*
X106842937Y-30856929D01*
X106842929Y-30856930D01*
X106629554Y-30914104D01*
X106629548Y-30914107D01*
X106429340Y-31007465D01*
X106429338Y-31007466D01*
X106248377Y-31134175D01*
X106092175Y-31290377D01*
X105979271Y-31451623D01*
X105924694Y-31495248D01*
X105877696Y-31504500D01*
X103168304Y-31504500D01*
X103101265Y-31484815D01*
X103066729Y-31451623D01*
X102953827Y-31290381D01*
X102890132Y-31226686D01*
X102797620Y-31134174D01*
X102797616Y-31134171D01*
X102797615Y-31134170D01*
X102616666Y-31007468D01*
X102616662Y-31007466D01*
X102600651Y-31000000D01*
X102416450Y-30914106D01*
X102416447Y-30914105D01*
X102416445Y-30914104D01*
X102203070Y-30856930D01*
X102203062Y-30856929D01*
X101983002Y-30837677D01*
X101982998Y-30837677D01*
X101762937Y-30856929D01*
X101762929Y-30856930D01*
X101549554Y-30914104D01*
X101549548Y-30914107D01*
X101349340Y-31007465D01*
X101349338Y-31007466D01*
X101168377Y-31134175D01*
X101012175Y-31290377D01*
X100885466Y-31471338D01*
X100885465Y-31471340D01*
X100825382Y-31600189D01*
X100779209Y-31652628D01*
X100712016Y-31671780D01*
X100645135Y-31651564D01*
X100600618Y-31600189D01*
X100546818Y-31484815D01*
X100540534Y-31471339D01*
X100413826Y-31290380D01*
X100257620Y-31134174D01*
X100257616Y-31134171D01*
X100257615Y-31134170D01*
X100076666Y-31007468D01*
X100076662Y-31007466D01*
X100060651Y-31000000D01*
X99876450Y-30914106D01*
X99876447Y-30914105D01*
X99876445Y-30914104D01*
X99663070Y-30856930D01*
X99663062Y-30856929D01*
X99443002Y-30837677D01*
X99442998Y-30837677D01*
X99222937Y-30856929D01*
X99222929Y-30856930D01*
X99009554Y-30914104D01*
X99009548Y-30914107D01*
X98809340Y-31007465D01*
X98809338Y-31007466D01*
X98628377Y-31134175D01*
X98472175Y-31290377D01*
X98359271Y-31451623D01*
X98304694Y-31495248D01*
X98257696Y-31504500D01*
X95548304Y-31504500D01*
X95481265Y-31484815D01*
X95446729Y-31451623D01*
X95333827Y-31290381D01*
X95270132Y-31226686D01*
X95177620Y-31134174D01*
X95177616Y-31134171D01*
X95177615Y-31134170D01*
X94996666Y-31007468D01*
X94996662Y-31007466D01*
X94980651Y-31000000D01*
X94796450Y-30914106D01*
X94796447Y-30914105D01*
X94796445Y-30914104D01*
X94583070Y-30856930D01*
X94583062Y-30856929D01*
X94363002Y-30837677D01*
X94362998Y-30837677D01*
X94142937Y-30856929D01*
X94142929Y-30856930D01*
X93929554Y-30914104D01*
X93929548Y-30914107D01*
X93729340Y-31007465D01*
X93729338Y-31007466D01*
X93548377Y-31134175D01*
X93392175Y-31290377D01*
X93265466Y-31471338D01*
X93265465Y-31471340D01*
X93172107Y-31671548D01*
X93172104Y-31671554D01*
X93114930Y-31884929D01*
X93114929Y-31884937D01*
X93095677Y-32104997D01*
X93095677Y-32105002D01*
X93114929Y-32325062D01*
X93114930Y-32325070D01*
X93172104Y-32538445D01*
X93172105Y-32538447D01*
X93172106Y-32538450D01*
X93250002Y-32705500D01*
X93265466Y-32738662D01*
X93265468Y-32738666D01*
X93392170Y-32919615D01*
X93392175Y-32919621D01*
X93548378Y-33075824D01*
X93548384Y-33075829D01*
X93729333Y-33202531D01*
X93729335Y-33202532D01*
X93729338Y-33202534D01*
X93818863Y-33244280D01*
X93858189Y-33262618D01*
X93910628Y-33308790D01*
X93929780Y-33375984D01*
X93909564Y-33442865D01*
X93858189Y-33487382D01*
X93729340Y-33547465D01*
X93729338Y-33547466D01*
X93548377Y-33674175D01*
X93392175Y-33830377D01*
X93265466Y-34011338D01*
X93265465Y-34011340D01*
X93172107Y-34211548D01*
X93172104Y-34211554D01*
X93114930Y-34424929D01*
X93114929Y-34424937D01*
X93095677Y-34644997D01*
X93095677Y-34645002D01*
X93114929Y-34865062D01*
X93114930Y-34865070D01*
X93172104Y-35078445D01*
X93172105Y-35078447D01*
X93172106Y-35078450D01*
X93244023Y-35232677D01*
X93265466Y-35278662D01*
X93265468Y-35278666D01*
X93392170Y-35459615D01*
X93392175Y-35459621D01*
X93548378Y-35615824D01*
X93548384Y-35615829D01*
X93729333Y-35742531D01*
X93729335Y-35742532D01*
X93729338Y-35742534D01*
X93929550Y-35835894D01*
X94142932Y-35893070D01*
X94300123Y-35906822D01*
X94362998Y-35912323D01*
X94363000Y-35912323D01*
X94363002Y-35912323D01*
X94418017Y-35907509D01*
X94583068Y-35893070D01*
X94796450Y-35835894D01*
X94996662Y-35742534D01*
X95177620Y-35615826D01*
X95333826Y-35459620D01*
X95410196Y-35350550D01*
X95446730Y-35298377D01*
X95501307Y-35254752D01*
X95548305Y-35245500D01*
X95717695Y-35245500D01*
X95784734Y-35265185D01*
X95819270Y-35298377D01*
X95875321Y-35378425D01*
X95932170Y-35459615D01*
X95932175Y-35459621D01*
X96088378Y-35615824D01*
X96088384Y-35615829D01*
X96269333Y-35742531D01*
X96269335Y-35742532D01*
X96269338Y-35742534D01*
X96469550Y-35835894D01*
X96682932Y-35893070D01*
X96840123Y-35906822D01*
X96902998Y-35912323D01*
X96903000Y-35912323D01*
X96903001Y-35912323D01*
X96913304Y-35911421D01*
X97027651Y-35901417D01*
X97096148Y-35915183D01*
X97146331Y-35963798D01*
X97162265Y-36031827D01*
X97138890Y-36097670D01*
X97126137Y-36112626D01*
X94576684Y-38662081D01*
X94515361Y-38695566D01*
X94489003Y-38698400D01*
X76531469Y-38698400D01*
X76531453Y-38698399D01*
X76523857Y-38698399D01*
X76365743Y-38698399D01*
X76258387Y-38727165D01*
X76213010Y-38739324D01*
X76213009Y-38739325D01*
X76162896Y-38768259D01*
X76162895Y-38768260D01*
X76134607Y-38784592D01*
X76076085Y-38818379D01*
X76076082Y-38818381D01*
X75964278Y-38930186D01*
X65803665Y-49090798D01*
X65742342Y-49124283D01*
X65729868Y-49126337D01*
X65642950Y-49136130D01*
X65472678Y-49195710D01*
X65319937Y-49291684D01*
X65192384Y-49419237D01*
X65096411Y-49571976D01*
X65036831Y-49742245D01*
X65036830Y-49742250D01*
X65016635Y-49921496D01*
X64629456Y-49921496D01*
X64674035Y-49857830D01*
X64773903Y-49643663D01*
X64835063Y-49415408D01*
X64855659Y-49180000D01*
X64835063Y-48944592D01*
X64773903Y-48716337D01*
X64674035Y-48502171D01*
X64651679Y-48470242D01*
X64538494Y-48308597D01*
X64371402Y-48141506D01*
X64371396Y-48141501D01*
X64185842Y-48011575D01*
X64142217Y-47956998D01*
X64135023Y-47887500D01*
X64166546Y-47825145D01*
X64185842Y-47808425D01*
X64336597Y-47702865D01*
X64371401Y-47678495D01*
X64538495Y-47511401D01*
X64674035Y-47317830D01*
X64773903Y-47103663D01*
X64835063Y-46875408D01*
X64855659Y-46640000D01*
X64835063Y-46404592D01*
X64773903Y-46176337D01*
X64674035Y-45962171D01*
X64643460Y-45918504D01*
X64538494Y-45768597D01*
X64371402Y-45601506D01*
X64371396Y-45601501D01*
X64185842Y-45471575D01*
X64142217Y-45416998D01*
X64135023Y-45347500D01*
X64166546Y-45285145D01*
X64185842Y-45268425D01*
X64249787Y-45223650D01*
X64371401Y-45138495D01*
X64538495Y-44971401D01*
X64674035Y-44777830D01*
X64676707Y-44772097D01*
X64722878Y-44719658D01*
X64789091Y-44700500D01*
X64865031Y-44700500D01*
X64865047Y-44700501D01*
X64872643Y-44700501D01*
X65030754Y-44700501D01*
X65030757Y-44700501D01*
X65183485Y-44659577D01*
X65246815Y-44623013D01*
X65320416Y-44580520D01*
X65432220Y-44468716D01*
X65432220Y-44468714D01*
X65442424Y-44458511D01*
X65442427Y-44458506D01*
X76807989Y-33092945D01*
X76869310Y-33059462D01*
X76939002Y-33064446D01*
X76994935Y-33106318D01*
X77019352Y-33171782D01*
X77008051Y-33233032D01*
X76969105Y-33316552D01*
X76969104Y-33316554D01*
X76911930Y-33529929D01*
X76911929Y-33529937D01*
X76892677Y-33749997D01*
X76892677Y-33750002D01*
X76911929Y-33970062D01*
X76911930Y-33970070D01*
X76969104Y-34183445D01*
X76969105Y-34183447D01*
X76969106Y-34183450D01*
X77044431Y-34344985D01*
X77062466Y-34383662D01*
X77062468Y-34383666D01*
X77189170Y-34564615D01*
X77189175Y-34564621D01*
X77345378Y-34720824D01*
X77345384Y-34720829D01*
X77526333Y-34847531D01*
X77526335Y-34847532D01*
X77526338Y-34847534D01*
X77726550Y-34940894D01*
X77939932Y-34998070D01*
X77978818Y-35001472D01*
X78043887Y-35026924D01*
X78084866Y-35083515D01*
X78088744Y-35153277D01*
X78054290Y-35214061D01*
X77992443Y-35246569D01*
X77978818Y-35248528D01*
X77939937Y-35251929D01*
X77939929Y-35251930D01*
X77726554Y-35309104D01*
X77726548Y-35309107D01*
X77526340Y-35402465D01*
X77526338Y-35402466D01*
X77345377Y-35529175D01*
X77189175Y-35685377D01*
X77062466Y-35866338D01*
X77062465Y-35866340D01*
X76969107Y-36066548D01*
X76969104Y-36066554D01*
X76911930Y-36279929D01*
X76911929Y-36279937D01*
X76892677Y-36499997D01*
X76892677Y-36500002D01*
X76911929Y-36720062D01*
X76911930Y-36720070D01*
X76969104Y-36933445D01*
X76969105Y-36933447D01*
X76969106Y-36933450D01*
X77046610Y-37099658D01*
X77062466Y-37133662D01*
X77062468Y-37133666D01*
X77189170Y-37314615D01*
X77189175Y-37314621D01*
X77345378Y-37470824D01*
X77345384Y-37470829D01*
X77526333Y-37597531D01*
X77526335Y-37597532D01*
X77526338Y-37597534D01*
X77726550Y-37690894D01*
X77939932Y-37748070D01*
X78097123Y-37761822D01*
X78159998Y-37767323D01*
X78160000Y-37767323D01*
X78160002Y-37767323D01*
X78215017Y-37762509D01*
X78380068Y-37748070D01*
X78593450Y-37690894D01*
X78793662Y-37597534D01*
X78974620Y-37470826D01*
X79130826Y-37314620D01*
X79257534Y-37133662D01*
X79350894Y-36933450D01*
X79408070Y-36720068D01*
X79426046Y-36514596D01*
X79427323Y-36500002D01*
X79427323Y-36499997D01*
X79408070Y-36279937D01*
X79408070Y-36279932D01*
X79350894Y-36066550D01*
X79257534Y-35866339D01*
X79194180Y-35775859D01*
X79130827Y-35685381D01*
X79054043Y-35608597D01*
X78974620Y-35529174D01*
X78974616Y-35529171D01*
X78974615Y-35529170D01*
X78793666Y-35402468D01*
X78793662Y-35402466D01*
X78754136Y-35384035D01*
X78593450Y-35309106D01*
X78593447Y-35309105D01*
X78593445Y-35309104D01*
X78380070Y-35251930D01*
X78380062Y-35251929D01*
X78347444Y-35249075D01*
X78341180Y-35248527D01*
X78276112Y-35223076D01*
X78235133Y-35166485D01*
X78231255Y-35096723D01*
X78265709Y-35035939D01*
X78327555Y-35003431D01*
X78341179Y-35001472D01*
X78380068Y-34998070D01*
X78593450Y-34940894D01*
X78793662Y-34847534D01*
X78974620Y-34720826D01*
X79130826Y-34564620D01*
X79257534Y-34383662D01*
X79350894Y-34183450D01*
X79408070Y-33970068D01*
X79427323Y-33750000D01*
X79427002Y-33746335D01*
X79411805Y-33572626D01*
X79408070Y-33529932D01*
X79350894Y-33316550D01*
X79257534Y-33116339D01*
X79130826Y-32935380D01*
X78974620Y-32779174D01*
X78974616Y-32779171D01*
X78974615Y-32779170D01*
X78793666Y-32652468D01*
X78793662Y-32652466D01*
X78676968Y-32598051D01*
X78593450Y-32559106D01*
X78593447Y-32559105D01*
X78593445Y-32559104D01*
X78380070Y-32501930D01*
X78380062Y-32501929D01*
X78160002Y-32482677D01*
X78159998Y-32482677D01*
X77939937Y-32501929D01*
X77939929Y-32501930D01*
X77726554Y-32559104D01*
X77726552Y-32559105D01*
X77643032Y-32598051D01*
X77573954Y-32608542D01*
X77510171Y-32580022D01*
X77471931Y-32521545D01*
X77471378Y-32451677D01*
X77502945Y-32397989D01*
X86299617Y-23601319D01*
X86360940Y-23567834D01*
X86387298Y-23565000D01*
X93192388Y-23565000D01*
X93259427Y-23584685D01*
G37*
%TD.AperFunction*%
%TA.AperFunction,Conductor*%
G36*
X158442539Y-20020185D02*
G01*
X158488294Y-20072989D01*
X158499500Y-20124500D01*
X158499500Y-116875500D01*
X158479815Y-116942539D01*
X158427011Y-116988294D01*
X158375500Y-116999500D01*
X60624500Y-116999500D01*
X60557461Y-116979815D01*
X60511706Y-116927011D01*
X60500500Y-116875500D01*
X60500500Y-80307954D01*
X61408098Y-80307954D01*
X61449023Y-80460685D01*
X61449024Y-80460688D01*
X61452823Y-80467267D01*
X61452826Y-80467272D01*
X61528077Y-80597612D01*
X61528081Y-80597617D01*
X61646949Y-80716485D01*
X61646955Y-80716490D01*
X62412139Y-81481674D01*
X62412149Y-81481685D01*
X62416479Y-81486015D01*
X62416480Y-81486016D01*
X62528284Y-81597820D01*
X62528286Y-81597821D01*
X62528290Y-81597824D01*
X62641783Y-81663348D01*
X62665216Y-81676877D01*
X62749393Y-81699432D01*
X62817942Y-81717800D01*
X62817943Y-81717800D01*
X72224131Y-81717800D01*
X72224147Y-81717801D01*
X72231743Y-81717801D01*
X72389854Y-81717801D01*
X72389857Y-81717801D01*
X72542585Y-81676877D01*
X72632329Y-81625063D01*
X72679516Y-81597820D01*
X72791320Y-81486016D01*
X72791320Y-81486014D01*
X72801524Y-81475811D01*
X72801527Y-81475806D01*
X73940316Y-80337019D01*
X74001639Y-80303534D01*
X74027997Y-80300700D01*
X75193942Y-80300700D01*
X75260981Y-80320385D01*
X75306736Y-80373189D01*
X75316680Y-80442347D01*
X75287655Y-80505903D01*
X75228877Y-80543677D01*
X75226080Y-80544462D01*
X75166515Y-80560423D01*
X75166513Y-80560423D01*
X75166513Y-80560424D01*
X75129429Y-80581835D01*
X75129428Y-80581835D01*
X75029587Y-80639477D01*
X75029582Y-80639481D01*
X74959644Y-80709420D01*
X74917780Y-80751284D01*
X74917778Y-80751286D01*
X72885688Y-82783377D01*
X70885884Y-84783181D01*
X70824561Y-84816666D01*
X70798203Y-84819500D01*
X65435304Y-84819500D01*
X65368265Y-84799815D01*
X65333729Y-84766623D01*
X65220827Y-84605381D01*
X65146304Y-84530858D01*
X65064620Y-84449174D01*
X65064616Y-84449171D01*
X65064615Y-84449170D01*
X64883666Y-84322468D01*
X64883662Y-84322466D01*
X64883660Y-84322465D01*
X64683450Y-84229106D01*
X64683447Y-84229105D01*
X64683445Y-84229104D01*
X64470070Y-84171930D01*
X64470062Y-84171929D01*
X64250002Y-84152677D01*
X64249998Y-84152677D01*
X64029937Y-84171929D01*
X64029929Y-84171930D01*
X63816554Y-84229104D01*
X63816548Y-84229107D01*
X63616340Y-84322465D01*
X63616338Y-84322466D01*
X63435377Y-84449175D01*
X63279175Y-84605377D01*
X63152466Y-84786338D01*
X63152465Y-84786340D01*
X63059107Y-84986548D01*
X63059104Y-84986554D01*
X63001930Y-85199929D01*
X63001929Y-85199937D01*
X62982677Y-85419997D01*
X62982677Y-85420002D01*
X63001929Y-85640062D01*
X63001930Y-85640070D01*
X63059104Y-85853445D01*
X63059105Y-85853447D01*
X63059106Y-85853450D01*
X63122866Y-85990185D01*
X63152466Y-86053662D01*
X63152468Y-86053666D01*
X63279170Y-86234615D01*
X63279175Y-86234621D01*
X63435378Y-86390824D01*
X63435384Y-86390829D01*
X63616333Y-86517531D01*
X63616335Y-86517532D01*
X63616338Y-86517534D01*
X63816550Y-86610894D01*
X64029932Y-86668070D01*
X64187123Y-86681822D01*
X64249998Y-86687323D01*
X64250000Y-86687323D01*
X64250002Y-86687323D01*
X64305017Y-86682509D01*
X64470068Y-86668070D01*
X64683450Y-86610894D01*
X64883662Y-86517534D01*
X65064620Y-86390826D01*
X65220826Y-86234620D01*
X65297196Y-86125550D01*
X65333730Y-86073377D01*
X65388307Y-86029752D01*
X65435305Y-86020500D01*
X71011631Y-86020500D01*
X71011647Y-86020501D01*
X71019243Y-86020501D01*
X71177354Y-86020501D01*
X71177357Y-86020501D01*
X71330085Y-85979577D01*
X71416687Y-85929577D01*
X71467016Y-85900520D01*
X71578820Y-85788716D01*
X71578820Y-85788714D01*
X71589024Y-85778511D01*
X71589028Y-85778506D01*
X75534203Y-81833330D01*
X75595524Y-81799847D01*
X75665216Y-81804831D01*
X75721149Y-81846703D01*
X75723457Y-81849890D01*
X75799954Y-81959141D01*
X75960858Y-82120045D01*
X75960861Y-82120047D01*
X76147266Y-82250568D01*
X76353504Y-82346739D01*
X76573308Y-82405635D01*
X76735230Y-82419801D01*
X76799998Y-82425468D01*
X76800000Y-82425468D01*
X76800002Y-82425468D01*
X76856673Y-82420509D01*
X77026692Y-82405635D01*
X77246496Y-82346739D01*
X77452734Y-82250568D01*
X77639139Y-82120047D01*
X77800047Y-81959139D01*
X77930568Y-81772734D01*
X77957618Y-81714724D01*
X78003790Y-81662285D01*
X78070983Y-81643133D01*
X78137865Y-81663348D01*
X78182382Y-81714725D01*
X78209429Y-81772728D01*
X78209432Y-81772734D01*
X78339954Y-81959141D01*
X78500858Y-82120045D01*
X78500861Y-82120047D01*
X78687266Y-82250568D01*
X78893504Y-82346739D01*
X79113308Y-82405635D01*
X79275230Y-82419801D01*
X79339998Y-82425468D01*
X79340000Y-82425468D01*
X79340002Y-82425468D01*
X79396673Y-82420509D01*
X79566692Y-82405635D01*
X79786496Y-82346739D01*
X79992734Y-82250568D01*
X80179139Y-82120047D01*
X80340047Y-81959139D01*
X80470568Y-81772734D01*
X80497618Y-81714724D01*
X80543790Y-81662285D01*
X80610983Y-81643133D01*
X80677865Y-81663348D01*
X80722382Y-81714725D01*
X80749429Y-81772728D01*
X80749432Y-81772734D01*
X80879954Y-81959141D01*
X81040858Y-82120045D01*
X81040861Y-82120047D01*
X81227266Y-82250568D01*
X81433504Y-82346739D01*
X81653308Y-82405635D01*
X81815230Y-82419801D01*
X81879998Y-82425468D01*
X81880000Y-82425468D01*
X81880002Y-82425468D01*
X81936673Y-82420509D01*
X82106692Y-82405635D01*
X82326496Y-82346739D01*
X82532734Y-82250568D01*
X82719139Y-82120047D01*
X82880047Y-81959139D01*
X83010568Y-81772734D01*
X83037618Y-81714724D01*
X83083790Y-81662285D01*
X83150983Y-81643133D01*
X83217865Y-81663348D01*
X83262382Y-81714725D01*
X83289429Y-81772728D01*
X83289432Y-81772734D01*
X83419954Y-81959141D01*
X83580858Y-82120045D01*
X83580861Y-82120047D01*
X83767266Y-82250568D01*
X83973504Y-82346739D01*
X84193308Y-82405635D01*
X84355230Y-82419801D01*
X84419998Y-82425468D01*
X84420000Y-82425468D01*
X84420002Y-82425468D01*
X84476673Y-82420509D01*
X84646692Y-82405635D01*
X84866496Y-82346739D01*
X85072734Y-82250568D01*
X85259139Y-82120047D01*
X85420047Y-81959139D01*
X85550568Y-81772734D01*
X85577618Y-81714724D01*
X85623790Y-81662285D01*
X85690983Y-81643133D01*
X85757865Y-81663348D01*
X85802382Y-81714725D01*
X85829429Y-81772728D01*
X85829432Y-81772734D01*
X85959954Y-81959141D01*
X86120858Y-82120045D01*
X86120861Y-82120047D01*
X86307266Y-82250568D01*
X86513504Y-82346739D01*
X86733308Y-82405635D01*
X86895230Y-82419801D01*
X86959998Y-82425468D01*
X86960000Y-82425468D01*
X86960002Y-82425468D01*
X87016673Y-82420509D01*
X87186692Y-82405635D01*
X87406496Y-82346739D01*
X87612734Y-82250568D01*
X87799139Y-82120047D01*
X87960047Y-81959139D01*
X88090568Y-81772734D01*
X88117618Y-81714724D01*
X88163790Y-81662285D01*
X88230983Y-81643133D01*
X88297865Y-81663348D01*
X88342382Y-81714725D01*
X88369429Y-81772728D01*
X88369432Y-81772734D01*
X88499954Y-81959141D01*
X88660858Y-82120045D01*
X88660861Y-82120047D01*
X88846624Y-82250118D01*
X88890248Y-82304693D01*
X88899500Y-82351692D01*
X88899500Y-82435030D01*
X88899499Y-82435048D01*
X88899499Y-82600754D01*
X88899498Y-82600754D01*
X88900184Y-82603313D01*
X88936743Y-82739752D01*
X88940424Y-82753487D01*
X88957309Y-82782732D01*
X88957310Y-82782734D01*
X89019477Y-82890412D01*
X89019481Y-82890417D01*
X89138349Y-83009285D01*
X89138355Y-83009290D01*
X94688181Y-88559116D01*
X94721666Y-88620439D01*
X94724500Y-88646797D01*
X94724500Y-101698306D01*
X94704815Y-101765345D01*
X94671623Y-101799881D01*
X94485859Y-101929953D01*
X94324954Y-102090858D01*
X94194432Y-102277265D01*
X94194431Y-102277267D01*
X94193811Y-102278597D01*
X94171373Y-102326717D01*
X94167382Y-102335275D01*
X94121209Y-102387714D01*
X94054016Y-102406866D01*
X93987135Y-102386650D01*
X93942618Y-102335275D01*
X93915568Y-102277266D01*
X93785047Y-102090861D01*
X93785045Y-102090858D01*
X93624141Y-101929954D01*
X93437734Y-101799432D01*
X93437732Y-101799431D01*
X93231497Y-101703261D01*
X93231488Y-101703258D01*
X93011697Y-101644366D01*
X93011693Y-101644365D01*
X93011692Y-101644365D01*
X93011691Y-101644364D01*
X93011686Y-101644364D01*
X92785002Y-101624532D01*
X92784998Y-101624532D01*
X92558313Y-101644364D01*
X92558302Y-101644366D01*
X92462067Y-101670152D01*
X92392217Y-101668489D01*
X92342293Y-101638058D01*
X91870890Y-101166655D01*
X91870888Y-101166652D01*
X91752017Y-101047781D01*
X91752012Y-101047777D01*
X91632396Y-100978718D01*
X91632393Y-100978716D01*
X91615085Y-100968723D01*
X91615082Y-100968722D01*
X91585126Y-100960695D01*
X91462357Y-100927799D01*
X91304243Y-100927799D01*
X91296647Y-100927799D01*
X91296631Y-100927800D01*
X85465098Y-100927800D01*
X85398059Y-100908115D01*
X85377417Y-100891481D01*
X79704290Y-95218355D01*
X79704288Y-95218352D01*
X79585417Y-95099481D01*
X79585416Y-95099480D01*
X79498604Y-95049360D01*
X79498604Y-95049359D01*
X79498600Y-95049358D01*
X79448485Y-95020423D01*
X79295757Y-94979499D01*
X79137643Y-94979499D01*
X79130047Y-94979499D01*
X79130031Y-94979500D01*
X65435304Y-94979500D01*
X65368265Y-94959815D01*
X65333729Y-94926623D01*
X65220827Y-94765381D01*
X65146304Y-94690858D01*
X65064620Y-94609174D01*
X65064616Y-94609171D01*
X65064615Y-94609170D01*
X64883666Y-94482468D01*
X64883662Y-94482466D01*
X64883660Y-94482465D01*
X64683450Y-94389106D01*
X64683447Y-94389105D01*
X64683445Y-94389104D01*
X64470070Y-94331930D01*
X64470062Y-94331929D01*
X64250002Y-94312677D01*
X64249998Y-94312677D01*
X64029937Y-94331929D01*
X64029929Y-94331930D01*
X63816554Y-94389104D01*
X63816548Y-94389107D01*
X63616340Y-94482465D01*
X63616338Y-94482466D01*
X63435377Y-94609175D01*
X63279175Y-94765377D01*
X63152466Y-94946338D01*
X63152465Y-94946340D01*
X63059107Y-95146548D01*
X63059104Y-95146554D01*
X63001930Y-95359929D01*
X63001929Y-95359937D01*
X62982677Y-95579997D01*
X62982677Y-95580002D01*
X63001929Y-95800062D01*
X63001930Y-95800070D01*
X63059104Y-96013445D01*
X63059105Y-96013447D01*
X63059106Y-96013450D01*
X63114310Y-96131836D01*
X63152466Y-96213662D01*
X63152468Y-96213666D01*
X63279170Y-96394615D01*
X63279175Y-96394621D01*
X63435378Y-96550824D01*
X63435384Y-96550829D01*
X63616333Y-96677531D01*
X63616335Y-96677532D01*
X63616338Y-96677534D01*
X63816550Y-96770894D01*
X64029932Y-96828070D01*
X64187123Y-96841822D01*
X64249998Y-96847323D01*
X64250000Y-96847323D01*
X64250002Y-96847323D01*
X64305017Y-96842509D01*
X64470068Y-96828070D01*
X64683450Y-96770894D01*
X64883662Y-96677534D01*
X65064620Y-96550826D01*
X65220826Y-96394620D01*
X65297196Y-96285550D01*
X65333730Y-96233377D01*
X65388307Y-96189752D01*
X65435305Y-96180500D01*
X78916603Y-96180500D01*
X78983642Y-96200185D01*
X79004284Y-96216819D01*
X84451665Y-101664201D01*
X84485150Y-101725524D01*
X84480166Y-101795216D01*
X84438294Y-101851149D01*
X84435108Y-101853457D01*
X84325856Y-101929956D01*
X84164954Y-102090858D01*
X84034432Y-102277265D01*
X84034431Y-102277267D01*
X83938261Y-102483502D01*
X83938258Y-102483511D01*
X83879366Y-102703302D01*
X83879364Y-102703313D01*
X83859532Y-102929998D01*
X83859532Y-102930001D01*
X83879364Y-103156686D01*
X83879366Y-103156697D01*
X83938258Y-103376488D01*
X83938261Y-103376497D01*
X84034431Y-103582732D01*
X84034432Y-103582734D01*
X84164954Y-103769141D01*
X84325858Y-103930045D01*
X84325861Y-103930047D01*
X84512266Y-104060568D01*
X84718504Y-104156739D01*
X84938308Y-104215635D01*
X85100230Y-104229801D01*
X85164998Y-104235468D01*
X85165000Y-104235468D01*
X85165002Y-104235468D01*
X85221673Y-104230509D01*
X85391692Y-104215635D01*
X85611496Y-104156739D01*
X85817734Y-104060568D01*
X86004139Y-103930047D01*
X86165047Y-103769139D01*
X86295568Y-103582734D01*
X86322618Y-103524724D01*
X86368790Y-103472285D01*
X86435983Y-103453133D01*
X86502865Y-103473348D01*
X86547382Y-103524725D01*
X86574429Y-103582728D01*
X86574432Y-103582734D01*
X86704954Y-103769141D01*
X86865858Y-103930045D01*
X86865861Y-103930047D01*
X87052266Y-104060568D01*
X87258504Y-104156739D01*
X87478308Y-104215635D01*
X87640230Y-104229801D01*
X87704998Y-104235468D01*
X87705000Y-104235468D01*
X87705002Y-104235468D01*
X87761673Y-104230509D01*
X87931692Y-104215635D01*
X88151496Y-104156739D01*
X88357734Y-104060568D01*
X88544139Y-103930047D01*
X88705047Y-103769139D01*
X88835568Y-103582734D01*
X88862618Y-103524724D01*
X88908790Y-103472285D01*
X88975983Y-103453133D01*
X89042865Y-103473348D01*
X89087382Y-103524725D01*
X89114429Y-103582728D01*
X89114432Y-103582734D01*
X89244954Y-103769141D01*
X89405858Y-103930045D01*
X89405861Y-103930047D01*
X89592266Y-104060568D01*
X89798504Y-104156739D01*
X90018308Y-104215635D01*
X90180230Y-104229801D01*
X90244998Y-104235468D01*
X90245000Y-104235468D01*
X90245002Y-104235468D01*
X90301673Y-104230509D01*
X90471692Y-104215635D01*
X90691496Y-104156739D01*
X90897734Y-104060568D01*
X91084139Y-103930047D01*
X91245047Y-103769139D01*
X91375568Y-103582734D01*
X91402618Y-103524724D01*
X91448790Y-103472285D01*
X91515983Y-103453133D01*
X91582865Y-103473348D01*
X91627382Y-103524725D01*
X91654429Y-103582728D01*
X91654432Y-103582734D01*
X91784954Y-103769141D01*
X91945858Y-103930045D01*
X91945861Y-103930047D01*
X92132266Y-104060568D01*
X92338504Y-104156739D01*
X92558308Y-104215635D01*
X92720230Y-104229801D01*
X92784998Y-104235468D01*
X92785000Y-104235468D01*
X92785002Y-104235468D01*
X92841673Y-104230509D01*
X93011692Y-104215635D01*
X93231496Y-104156739D01*
X93437734Y-104060568D01*
X93624139Y-103930047D01*
X93785047Y-103769139D01*
X93915568Y-103582734D01*
X93942618Y-103524724D01*
X93988790Y-103472285D01*
X94055983Y-103453133D01*
X94122865Y-103473348D01*
X94167382Y-103524725D01*
X94194429Y-103582728D01*
X94194432Y-103582734D01*
X94324954Y-103769141D01*
X94485858Y-103930045D01*
X94485861Y-103930047D01*
X94672266Y-104060568D01*
X94878504Y-104156739D01*
X95098308Y-104215635D01*
X95260230Y-104229801D01*
X95324998Y-104235468D01*
X95325000Y-104235468D01*
X95325002Y-104235468D01*
X95381673Y-104230509D01*
X95551692Y-104215635D01*
X95771496Y-104156739D01*
X95977734Y-104060568D01*
X96164139Y-103930047D01*
X96325047Y-103769139D01*
X96455568Y-103582734D01*
X96482618Y-103524724D01*
X96528790Y-103472285D01*
X96595983Y-103453133D01*
X96662865Y-103473348D01*
X96707382Y-103524725D01*
X96734429Y-103582728D01*
X96734432Y-103582734D01*
X96864954Y-103769141D01*
X97025858Y-103930045D01*
X97025861Y-103930047D01*
X97212266Y-104060568D01*
X97418504Y-104156739D01*
X97638308Y-104215635D01*
X97800230Y-104229801D01*
X97864998Y-104235468D01*
X97865000Y-104235468D01*
X97865002Y-104235468D01*
X97921673Y-104230509D01*
X98091692Y-104215635D01*
X98311496Y-104156739D01*
X98517734Y-104060568D01*
X98704139Y-103930047D01*
X98865047Y-103769139D01*
X98995568Y-103582734D01*
X99091739Y-103376496D01*
X99150635Y-103156692D01*
X99170468Y-102930000D01*
X99169828Y-102922690D01*
X99150635Y-102703313D01*
X99150635Y-102703308D01*
X99091739Y-102483504D01*
X98995568Y-102277266D01*
X98865047Y-102090861D01*
X98865045Y-102090858D01*
X98704141Y-101929954D01*
X98517734Y-101799432D01*
X98517732Y-101799431D01*
X98311497Y-101703261D01*
X98311488Y-101703258D01*
X98091697Y-101644366D01*
X98091693Y-101644365D01*
X98091692Y-101644365D01*
X98091691Y-101644364D01*
X98091686Y-101644364D01*
X97865002Y-101624532D01*
X97864998Y-101624532D01*
X97638313Y-101644364D01*
X97638302Y-101644366D01*
X97418511Y-101703258D01*
X97418502Y-101703261D01*
X97212267Y-101799431D01*
X97212265Y-101799432D01*
X97025858Y-101929954D01*
X96864954Y-102090858D01*
X96734432Y-102277265D01*
X96734431Y-102277267D01*
X96733811Y-102278597D01*
X96711373Y-102326717D01*
X96707382Y-102335275D01*
X96661209Y-102387714D01*
X96594016Y-102406866D01*
X96527135Y-102386650D01*
X96482618Y-102335275D01*
X96455568Y-102277266D01*
X96325047Y-102090861D01*
X96325045Y-102090858D01*
X96164140Y-101929953D01*
X95978377Y-101799881D01*
X95934752Y-101745304D01*
X95925500Y-101698306D01*
X95925500Y-89749998D01*
X103494532Y-89749998D01*
X103494532Y-89750001D01*
X103514364Y-89976686D01*
X103514366Y-89976697D01*
X103573258Y-90196488D01*
X103573261Y-90196497D01*
X103669431Y-90402732D01*
X103669432Y-90402734D01*
X103799954Y-90589141D01*
X103960858Y-90750045D01*
X103960861Y-90750047D01*
X104147266Y-90880568D01*
X104353504Y-90976739D01*
X104573308Y-91035635D01*
X104735230Y-91049801D01*
X104799998Y-91055468D01*
X104800000Y-91055468D01*
X104800002Y-91055468D01*
X104856784Y-91050500D01*
X105026692Y-91035635D01*
X105246496Y-90976739D01*
X105452734Y-90880568D01*
X105639139Y-90750047D01*
X105800047Y-90589139D01*
X105930118Y-90403375D01*
X105984693Y-90359752D01*
X106031692Y-90350500D01*
X106108308Y-90350500D01*
X106175347Y-90370185D01*
X106209880Y-90403374D01*
X106295480Y-90525624D01*
X106339954Y-90589141D01*
X106500858Y-90750045D01*
X106500861Y-90750047D01*
X106687266Y-90880568D01*
X106893504Y-90976739D01*
X107113308Y-91035635D01*
X107275230Y-91049801D01*
X107339998Y-91055468D01*
X107340000Y-91055468D01*
X107340002Y-91055468D01*
X107396784Y-91050500D01*
X107566692Y-91035635D01*
X107786496Y-90976739D01*
X107992734Y-90880568D01*
X108179139Y-90750047D01*
X108340047Y-90589139D01*
X108470568Y-90402734D01*
X108497618Y-90344724D01*
X108543790Y-90292285D01*
X108610983Y-90273133D01*
X108677865Y-90293348D01*
X108722382Y-90344725D01*
X108749429Y-90402728D01*
X108749432Y-90402734D01*
X108879954Y-90589141D01*
X109040858Y-90750045D01*
X109040861Y-90750047D01*
X109227266Y-90880568D01*
X109433504Y-90976739D01*
X109653308Y-91035635D01*
X109815230Y-91049801D01*
X109879998Y-91055468D01*
X109880000Y-91055468D01*
X109880002Y-91055468D01*
X109936784Y-91050500D01*
X110106692Y-91035635D01*
X110326496Y-90976739D01*
X110532734Y-90880568D01*
X110719139Y-90750047D01*
X110880047Y-90589139D01*
X111010568Y-90402734D01*
X111037618Y-90344724D01*
X111083790Y-90292285D01*
X111150983Y-90273133D01*
X111217865Y-90293348D01*
X111262382Y-90344725D01*
X111289429Y-90402728D01*
X111289432Y-90402734D01*
X111419954Y-90589141D01*
X111580858Y-90750045D01*
X111580861Y-90750047D01*
X111767266Y-90880568D01*
X111973504Y-90976739D01*
X112193308Y-91035635D01*
X112355230Y-91049801D01*
X112419998Y-91055468D01*
X112420000Y-91055468D01*
X112420002Y-91055468D01*
X112476784Y-91050500D01*
X112646692Y-91035635D01*
X112866496Y-90976739D01*
X113072734Y-90880568D01*
X113259139Y-90750047D01*
X113420047Y-90589139D01*
X113550568Y-90402734D01*
X113577618Y-90344724D01*
X113623790Y-90292285D01*
X113690983Y-90273133D01*
X113757865Y-90293348D01*
X113802382Y-90344725D01*
X113829429Y-90402728D01*
X113829432Y-90402734D01*
X113959954Y-90589141D01*
X114120858Y-90750045D01*
X114120861Y-90750047D01*
X114307266Y-90880568D01*
X114513504Y-90976739D01*
X114733308Y-91035635D01*
X114895230Y-91049801D01*
X114959998Y-91055468D01*
X114960000Y-91055468D01*
X114960002Y-91055468D01*
X115016784Y-91050500D01*
X115186692Y-91035635D01*
X115406496Y-90976739D01*
X115612734Y-90880568D01*
X115799139Y-90750047D01*
X115960047Y-90589139D01*
X116090118Y-90403375D01*
X116144693Y-90359752D01*
X116191692Y-90350500D01*
X116268308Y-90350500D01*
X116335347Y-90370185D01*
X116369880Y-90403374D01*
X116455480Y-90525624D01*
X116499954Y-90589141D01*
X116660858Y-90750045D01*
X116660861Y-90750047D01*
X116847266Y-90880568D01*
X117053504Y-90976739D01*
X117273308Y-91035635D01*
X117435230Y-91049801D01*
X117499998Y-91055468D01*
X117500000Y-91055468D01*
X117500002Y-91055468D01*
X117556784Y-91050500D01*
X117726692Y-91035635D01*
X117946496Y-90976739D01*
X118152734Y-90880568D01*
X118339139Y-90750047D01*
X118500047Y-90589139D01*
X118630568Y-90402734D01*
X118726739Y-90196496D01*
X118785635Y-89976692D01*
X118805468Y-89750000D01*
X118785635Y-89523308D01*
X118726739Y-89303504D01*
X118630568Y-89097266D01*
X118500047Y-88910861D01*
X118500045Y-88910858D01*
X118339141Y-88749954D01*
X118152734Y-88619432D01*
X118152732Y-88619431D01*
X117946497Y-88523261D01*
X117946488Y-88523258D01*
X117726697Y-88464366D01*
X117726693Y-88464365D01*
X117726692Y-88464365D01*
X117726691Y-88464364D01*
X117726686Y-88464364D01*
X117500002Y-88444532D01*
X117499998Y-88444532D01*
X117273313Y-88464364D01*
X117273302Y-88464366D01*
X117053511Y-88523258D01*
X117053502Y-88523261D01*
X116847267Y-88619431D01*
X116847265Y-88619432D01*
X116660858Y-88749954D01*
X116499954Y-88910858D01*
X116423450Y-89020118D01*
X116369881Y-89096624D01*
X116315307Y-89140248D01*
X116268308Y-89149500D01*
X116191692Y-89149500D01*
X116124653Y-89129815D01*
X116090119Y-89096625D01*
X115960047Y-88910861D01*
X115960045Y-88910858D01*
X115799141Y-88749954D01*
X115612734Y-88619432D01*
X115612732Y-88619431D01*
X115406497Y-88523261D01*
X115406488Y-88523258D01*
X115186697Y-88464366D01*
X115186693Y-88464365D01*
X115186692Y-88464365D01*
X115186691Y-88464364D01*
X115186686Y-88464364D01*
X114960002Y-88444532D01*
X114959998Y-88444532D01*
X114733313Y-88464364D01*
X114733302Y-88464366D01*
X114637067Y-88490152D01*
X114567217Y-88488489D01*
X114517293Y-88458058D01*
X114041790Y-87982555D01*
X114041788Y-87982552D01*
X113922917Y-87863681D01*
X113922916Y-87863680D01*
X113824396Y-87806800D01*
X113824395Y-87806799D01*
X113785983Y-87784622D01*
X113730081Y-87769643D01*
X113633257Y-87743699D01*
X113475143Y-87743699D01*
X113467547Y-87743699D01*
X113467531Y-87743700D01*
X108666740Y-87743700D01*
X108625819Y-87754664D01*
X108625819Y-87754665D01*
X108588551Y-87764651D01*
X108514014Y-87784623D01*
X108514009Y-87784626D01*
X108377090Y-87863675D01*
X108377082Y-87863681D01*
X108265278Y-87975486D01*
X107782705Y-88458058D01*
X107721382Y-88491543D01*
X107662931Y-88490152D01*
X107566697Y-88464366D01*
X107566693Y-88464365D01*
X107566692Y-88464365D01*
X107566691Y-88464364D01*
X107566686Y-88464364D01*
X107340002Y-88444532D01*
X107339998Y-88444532D01*
X107113313Y-88464364D01*
X107113302Y-88464366D01*
X106893511Y-88523258D01*
X106893502Y-88523261D01*
X106687267Y-88619431D01*
X106687265Y-88619432D01*
X106500858Y-88749954D01*
X106339954Y-88910858D01*
X106263450Y-89020118D01*
X106209881Y-89096624D01*
X106155307Y-89140248D01*
X106108308Y-89149500D01*
X106031692Y-89149500D01*
X105964653Y-89129815D01*
X105930119Y-89096625D01*
X105800047Y-88910861D01*
X105800045Y-88910858D01*
X105639141Y-88749954D01*
X105452734Y-88619432D01*
X105452732Y-88619431D01*
X105246497Y-88523261D01*
X105246488Y-88523258D01*
X105026697Y-88464366D01*
X105026693Y-88464365D01*
X105026692Y-88464365D01*
X105026691Y-88464364D01*
X105026686Y-88464364D01*
X104800002Y-88444532D01*
X104799998Y-88444532D01*
X104573313Y-88464364D01*
X104573302Y-88464366D01*
X104353511Y-88523258D01*
X104353502Y-88523261D01*
X104147267Y-88619431D01*
X104147265Y-88619432D01*
X103960858Y-88749954D01*
X103799954Y-88910858D01*
X103669432Y-89097265D01*
X103669431Y-89097267D01*
X103573261Y-89303502D01*
X103573258Y-89303511D01*
X103514366Y-89523302D01*
X103514364Y-89523313D01*
X103494532Y-89749998D01*
X95925500Y-89749998D01*
X95925500Y-88435759D01*
X95925501Y-88435746D01*
X95925501Y-88267645D01*
X95925501Y-88267643D01*
X95884577Y-88114915D01*
X95855639Y-88064795D01*
X95805520Y-87977984D01*
X95693716Y-87866180D01*
X95693715Y-87866179D01*
X95689385Y-87861849D01*
X95689374Y-87861839D01*
X90213333Y-82385798D01*
X90179848Y-82324475D01*
X90184832Y-82254783D01*
X90226704Y-82198850D01*
X90229855Y-82196567D01*
X90339139Y-82120047D01*
X90500047Y-81959139D01*
X90630568Y-81772734D01*
X90726739Y-81566496D01*
X90785635Y-81346692D01*
X90804668Y-81129141D01*
X90805468Y-81120001D01*
X90805468Y-81119998D01*
X90794920Y-80999432D01*
X90785635Y-80893308D01*
X90726739Y-80673504D01*
X90630568Y-80467266D01*
X90506446Y-80290000D01*
X90500045Y-80280858D01*
X90339141Y-80119954D01*
X90152734Y-79989432D01*
X90152732Y-79989431D01*
X89946497Y-79893261D01*
X89946488Y-79893258D01*
X89726697Y-79834366D01*
X89726693Y-79834365D01*
X89726692Y-79834365D01*
X89726691Y-79834364D01*
X89726686Y-79834364D01*
X89500002Y-79814532D01*
X89499998Y-79814532D01*
X89417150Y-79821780D01*
X89348650Y-79808013D01*
X89298467Y-79759398D01*
X89282534Y-79691369D01*
X89305910Y-79625526D01*
X89318655Y-79610578D01*
X90857416Y-78071819D01*
X90918739Y-78038334D01*
X90945097Y-78035500D01*
X96007988Y-78035500D01*
X96075027Y-78055185D01*
X96085303Y-78062555D01*
X96088136Y-78064814D01*
X96088138Y-78064816D01*
X96240878Y-78160789D01*
X96342900Y-78196488D01*
X96411145Y-78220368D01*
X96411150Y-78220369D01*
X96590396Y-78240565D01*
X96590400Y-78240565D01*
X96590404Y-78240565D01*
X96769649Y-78220369D01*
X96769652Y-78220368D01*
X96769655Y-78220368D01*
X96939922Y-78160789D01*
X97092662Y-78064816D01*
X97220216Y-77937262D01*
X97316189Y-77784522D01*
X97375768Y-77614255D01*
X97379143Y-77584300D01*
X97395965Y-77435003D01*
X97395965Y-77434997D01*
X97377564Y-77271684D01*
X97389618Y-77202862D01*
X97436967Y-77151482D01*
X97500784Y-77133800D01*
X97501503Y-77133800D01*
X97568542Y-77153485D01*
X97589184Y-77170119D01*
X102913439Y-82494374D01*
X102913449Y-82494385D01*
X102917779Y-82498715D01*
X102917780Y-82498716D01*
X103029584Y-82610520D01*
X103103394Y-82653133D01*
X103116395Y-82660639D01*
X103116397Y-82660641D01*
X103154451Y-82682611D01*
X103166515Y-82689577D01*
X103319243Y-82730501D01*
X103319246Y-82730501D01*
X103484953Y-82730501D01*
X103484969Y-82730500D01*
X103568308Y-82730500D01*
X103635347Y-82750185D01*
X103669880Y-82783374D01*
X103744828Y-82890412D01*
X103799954Y-82969141D01*
X103960858Y-83130045D01*
X103960861Y-83130047D01*
X104147266Y-83260568D01*
X104353504Y-83356739D01*
X104573308Y-83415635D01*
X104735230Y-83429801D01*
X104799998Y-83435468D01*
X104800000Y-83435468D01*
X104800002Y-83435468D01*
X104856784Y-83430500D01*
X105026692Y-83415635D01*
X105246496Y-83356739D01*
X105452734Y-83260568D01*
X105639139Y-83130047D01*
X105800047Y-82969139D01*
X105930118Y-82783375D01*
X105984693Y-82739752D01*
X106031692Y-82730500D01*
X106108308Y-82730500D01*
X106175347Y-82750185D01*
X106209880Y-82783374D01*
X106284828Y-82890412D01*
X106339954Y-82969141D01*
X106500858Y-83130045D01*
X106500861Y-83130047D01*
X106687266Y-83260568D01*
X106893504Y-83356739D01*
X107113308Y-83415635D01*
X107275230Y-83429801D01*
X107339998Y-83435468D01*
X107340000Y-83435468D01*
X107340002Y-83435468D01*
X107396784Y-83430500D01*
X107566692Y-83415635D01*
X107786496Y-83356739D01*
X107992734Y-83260568D01*
X108179139Y-83130047D01*
X108340047Y-82969139D01*
X108470118Y-82783375D01*
X108524693Y-82739752D01*
X108571692Y-82730500D01*
X108648308Y-82730500D01*
X108715347Y-82750185D01*
X108749880Y-82783374D01*
X108824828Y-82890412D01*
X108879954Y-82969141D01*
X109040858Y-83130045D01*
X109040861Y-83130047D01*
X109227266Y-83260568D01*
X109433504Y-83356739D01*
X109653308Y-83415635D01*
X109815230Y-83429801D01*
X109879998Y-83435468D01*
X109880000Y-83435468D01*
X109880002Y-83435468D01*
X109936784Y-83430500D01*
X110106692Y-83415635D01*
X110326496Y-83356739D01*
X110532734Y-83260568D01*
X110719139Y-83130047D01*
X110880047Y-82969139D01*
X111010568Y-82782734D01*
X111037618Y-82724724D01*
X111083790Y-82672285D01*
X111150983Y-82653133D01*
X111217865Y-82673348D01*
X111262381Y-82724724D01*
X111289432Y-82782734D01*
X111354692Y-82875936D01*
X111419954Y-82969141D01*
X111580858Y-83130045D01*
X111580861Y-83130047D01*
X111767266Y-83260568D01*
X111973504Y-83356739D01*
X112193308Y-83415635D01*
X112355230Y-83429801D01*
X112419998Y-83435468D01*
X112420000Y-83435468D01*
X112420002Y-83435468D01*
X112476784Y-83430500D01*
X112646692Y-83415635D01*
X112866496Y-83356739D01*
X113072734Y-83260568D01*
X113259139Y-83130047D01*
X113420047Y-82969139D01*
X113550568Y-82782734D01*
X113577618Y-82724724D01*
X113623790Y-82672285D01*
X113690983Y-82653133D01*
X113757865Y-82673348D01*
X113802381Y-82724724D01*
X113829432Y-82782734D01*
X113894692Y-82875936D01*
X113959954Y-82969141D01*
X114120858Y-83130045D01*
X114120861Y-83130047D01*
X114307266Y-83260568D01*
X114513504Y-83356739D01*
X114733308Y-83415635D01*
X114895230Y-83429801D01*
X114959998Y-83435468D01*
X114960000Y-83435468D01*
X114960002Y-83435468D01*
X115016784Y-83430500D01*
X115186692Y-83415635D01*
X115282932Y-83389847D01*
X115352781Y-83391510D01*
X115402706Y-83421941D01*
X115898739Y-83917974D01*
X115898749Y-83917985D01*
X115903079Y-83922315D01*
X115903080Y-83922316D01*
X116014884Y-84034120D01*
X116014886Y-84034121D01*
X116014890Y-84034124D01*
X116130697Y-84100984D01*
X116151816Y-84113177D01*
X116263619Y-84143134D01*
X116304542Y-84154100D01*
X116304543Y-84154100D01*
X120982531Y-84154100D01*
X120982547Y-84154101D01*
X120990143Y-84154101D01*
X121148254Y-84154101D01*
X121148257Y-84154101D01*
X121300985Y-84113177D01*
X121385240Y-84064532D01*
X121437916Y-84034120D01*
X121549720Y-83922316D01*
X121549720Y-83922314D01*
X121559924Y-83912111D01*
X121559928Y-83912106D01*
X124798213Y-80673821D01*
X124798216Y-80673820D01*
X124910020Y-80562016D01*
X124960139Y-80475204D01*
X124989077Y-80425085D01*
X125030001Y-80272357D01*
X125030001Y-80114243D01*
X125030001Y-80106648D01*
X125030000Y-80106630D01*
X125030000Y-77162097D01*
X125049685Y-77095058D01*
X125066319Y-77074416D01*
X130296019Y-71844716D01*
X130357342Y-71811231D01*
X130427034Y-71816215D01*
X130482967Y-71858087D01*
X130507384Y-71923551D01*
X130507700Y-71932397D01*
X130507700Y-80601530D01*
X130507699Y-80601548D01*
X130507699Y-80767254D01*
X130507698Y-80767254D01*
X130528361Y-80844366D01*
X130548623Y-80919985D01*
X130576247Y-80967830D01*
X130627679Y-81056914D01*
X130627681Y-81056917D01*
X130746549Y-81175785D01*
X130746555Y-81175790D01*
X131958058Y-82387293D01*
X131991543Y-82448616D01*
X131990152Y-82507067D01*
X131964366Y-82603302D01*
X131964364Y-82603313D01*
X131944532Y-82829998D01*
X131944532Y-82830001D01*
X131964364Y-83056686D01*
X131964366Y-83056697D01*
X132023258Y-83276488D01*
X132023261Y-83276497D01*
X132119431Y-83482732D01*
X132119432Y-83482734D01*
X132249954Y-83669141D01*
X132410858Y-83830045D01*
X132410861Y-83830047D01*
X132597266Y-83960568D01*
X132655275Y-83987618D01*
X132707714Y-84033791D01*
X132726866Y-84100984D01*
X132706650Y-84167865D01*
X132655275Y-84212382D01*
X132597267Y-84239431D01*
X132597265Y-84239432D01*
X132410858Y-84369954D01*
X132249954Y-84530858D01*
X132119432Y-84717265D01*
X132119431Y-84717267D01*
X132023261Y-84923502D01*
X132023258Y-84923511D01*
X131964366Y-85143302D01*
X131964364Y-85143313D01*
X131944532Y-85369998D01*
X131944532Y-85370001D01*
X131964364Y-85596686D01*
X131964366Y-85596697D01*
X132023258Y-85816488D01*
X132023261Y-85816497D01*
X132119431Y-86022732D01*
X132119432Y-86022734D01*
X132249954Y-86209141D01*
X132410858Y-86370045D01*
X132410861Y-86370047D01*
X132597266Y-86500568D01*
X132655275Y-86527618D01*
X132707714Y-86573791D01*
X132726866Y-86640984D01*
X132706650Y-86707865D01*
X132655275Y-86752382D01*
X132597267Y-86779431D01*
X132597265Y-86779432D01*
X132410858Y-86909954D01*
X132249953Y-87070859D01*
X132148575Y-87215644D01*
X132093998Y-87259269D01*
X132024500Y-87266463D01*
X131984998Y-87251907D01*
X131976887Y-87247224D01*
X131976886Y-87247223D01*
X131976885Y-87247223D01*
X131824157Y-87206299D01*
X131666043Y-87206299D01*
X131658447Y-87206299D01*
X131658431Y-87206300D01*
X127559112Y-87206300D01*
X127492073Y-87186615D01*
X127481797Y-87179245D01*
X127478963Y-87176985D01*
X127478962Y-87176984D01*
X127422196Y-87141315D01*
X127326223Y-87081011D01*
X127155954Y-87021431D01*
X127155949Y-87021430D01*
X126976704Y-87001235D01*
X126976696Y-87001235D01*
X126797450Y-87021430D01*
X126797445Y-87021431D01*
X126627176Y-87081011D01*
X126474437Y-87176984D01*
X126346884Y-87304537D01*
X126250911Y-87457276D01*
X126191331Y-87627545D01*
X126191330Y-87627550D01*
X126171135Y-87806796D01*
X126171135Y-87806801D01*
X126191330Y-87986049D01*
X126191331Y-87986054D01*
X126250911Y-88156323D01*
X126320859Y-88267643D01*
X126346884Y-88309062D01*
X126474438Y-88436616D01*
X126526892Y-88469575D01*
X126612332Y-88523261D01*
X126627178Y-88532589D01*
X126785048Y-88587830D01*
X126797445Y-88592168D01*
X126797450Y-88592169D01*
X126976696Y-88612365D01*
X126976700Y-88612365D01*
X126976704Y-88612365D01*
X127155949Y-88592169D01*
X127155952Y-88592168D01*
X127155955Y-88592168D01*
X127326222Y-88532589D01*
X127478962Y-88436616D01*
X127478967Y-88436610D01*
X127481797Y-88434355D01*
X127483975Y-88433465D01*
X127484858Y-88432911D01*
X127484955Y-88433065D01*
X127546483Y-88407945D01*
X127559112Y-88407300D01*
X131475422Y-88407300D01*
X131490245Y-88411271D01*
X131496265Y-88410406D01*
X131527957Y-88421375D01*
X131537417Y-88423910D01*
X131540613Y-88425755D01*
X131540612Y-88425755D01*
X131540619Y-88425758D01*
X131616509Y-88469574D01*
X131616510Y-88469575D01*
X131616512Y-88469575D01*
X131616515Y-88469577D01*
X131769243Y-88510501D01*
X131769246Y-88510501D01*
X131934953Y-88510501D01*
X131934969Y-88510500D01*
X132018308Y-88510500D01*
X132085347Y-88530185D01*
X132119880Y-88563374D01*
X132178293Y-88646797D01*
X132249954Y-88749141D01*
X132410858Y-88910045D01*
X132457693Y-88942839D01*
X132597266Y-89040568D01*
X132655275Y-89067618D01*
X132707714Y-89113791D01*
X132726866Y-89180984D01*
X132706650Y-89247865D01*
X132655275Y-89292382D01*
X132597267Y-89319431D01*
X132597265Y-89319432D01*
X132410858Y-89449954D01*
X132249954Y-89610858D01*
X132119432Y-89797265D01*
X132119431Y-89797267D01*
X132023261Y-90003502D01*
X132023258Y-90003511D01*
X131964366Y-90223302D01*
X131964364Y-90223313D01*
X131944532Y-90449998D01*
X131944532Y-90450001D01*
X131964364Y-90676686D01*
X131964366Y-90676697D01*
X132023258Y-90896488D01*
X132023261Y-90896497D01*
X132119431Y-91102732D01*
X132119432Y-91102734D01*
X132249954Y-91289141D01*
X132410858Y-91450045D01*
X132410861Y-91450047D01*
X132597266Y-91580568D01*
X132655275Y-91607618D01*
X132707714Y-91653791D01*
X132726866Y-91720984D01*
X132706650Y-91787865D01*
X132655275Y-91832382D01*
X132597267Y-91859431D01*
X132597265Y-91859432D01*
X132410858Y-91989954D01*
X132249954Y-92150858D01*
X132173450Y-92260118D01*
X132119881Y-92336624D01*
X132065307Y-92380248D01*
X132018308Y-92389500D01*
X128026669Y-92389500D01*
X128026653Y-92389499D01*
X128019057Y-92389499D01*
X127860943Y-92389499D01*
X127753587Y-92418265D01*
X127708210Y-92430424D01*
X127708209Y-92430425D01*
X127658096Y-92459359D01*
X127658095Y-92459360D01*
X127614689Y-92484420D01*
X127571285Y-92509479D01*
X127571282Y-92509481D01*
X127459478Y-92621286D01*
X120492705Y-99588058D01*
X120431382Y-99621543D01*
X120372931Y-99620152D01*
X120276697Y-99594366D01*
X120276693Y-99594365D01*
X120276692Y-99594365D01*
X120276691Y-99594364D01*
X120276686Y-99594364D01*
X120050002Y-99574532D01*
X120049998Y-99574532D01*
X119823313Y-99594364D01*
X119823302Y-99594366D01*
X119603511Y-99653258D01*
X119603502Y-99653261D01*
X119397267Y-99749431D01*
X119397265Y-99749432D01*
X119210858Y-99879954D01*
X119049954Y-100040858D01*
X118919432Y-100227265D01*
X118919431Y-100227267D01*
X118892382Y-100285275D01*
X118846209Y-100337714D01*
X118779016Y-100356866D01*
X118712135Y-100336650D01*
X118667618Y-100285275D01*
X118640568Y-100227266D01*
X118510047Y-100040861D01*
X118510045Y-100040858D01*
X118349141Y-99879954D01*
X118162734Y-99749432D01*
X118162732Y-99749431D01*
X117956497Y-99653261D01*
X117956488Y-99653258D01*
X117736697Y-99594366D01*
X117736693Y-99594365D01*
X117736692Y-99594365D01*
X117736691Y-99594364D01*
X117736686Y-99594364D01*
X117510002Y-99574532D01*
X117509998Y-99574532D01*
X117283313Y-99594364D01*
X117283302Y-99594366D01*
X117063511Y-99653258D01*
X117063502Y-99653261D01*
X116857267Y-99749431D01*
X116857265Y-99749432D01*
X116670858Y-99879954D01*
X116509954Y-100040858D01*
X116379432Y-100227265D01*
X116379431Y-100227267D01*
X116283261Y-100433502D01*
X116283258Y-100433511D01*
X116224366Y-100653302D01*
X116224364Y-100653313D01*
X116204532Y-100879998D01*
X116204532Y-100880001D01*
X116224364Y-101106686D01*
X116224366Y-101106697D01*
X116283258Y-101326488D01*
X116283261Y-101326497D01*
X116379431Y-101532732D01*
X116379432Y-101532734D01*
X116509954Y-101719141D01*
X116670858Y-101880045D01*
X116670861Y-101880047D01*
X116857266Y-102010568D01*
X117063504Y-102106739D01*
X117063509Y-102106740D01*
X117063511Y-102106741D01*
X117116415Y-102120916D01*
X117283308Y-102165635D01*
X117445230Y-102179801D01*
X117509998Y-102185468D01*
X117510000Y-102185468D01*
X117510002Y-102185468D01*
X117566807Y-102180498D01*
X117736692Y-102165635D01*
X117832932Y-102139847D01*
X117902781Y-102141510D01*
X117952706Y-102171941D01*
X118443139Y-102662374D01*
X118443149Y-102662385D01*
X118447479Y-102666715D01*
X118447480Y-102666716D01*
X118559284Y-102778520D01*
X118646095Y-102828639D01*
X118646097Y-102828641D01*
X118696212Y-102857576D01*
X118696214Y-102857576D01*
X118696215Y-102857577D01*
X118803505Y-102886325D01*
X118863164Y-102922690D01*
X118893693Y-102985537D01*
X118885398Y-103054913D01*
X118840913Y-103108791D01*
X118774361Y-103130065D01*
X118771410Y-103130100D01*
X102231069Y-103130100D01*
X102231053Y-103130099D01*
X102223457Y-103130099D01*
X102065343Y-103130099D01*
X101991073Y-103150000D01*
X101912616Y-103171022D01*
X101875127Y-103192667D01*
X101875126Y-103192666D01*
X101775687Y-103250077D01*
X101775682Y-103250081D01*
X101663878Y-103361886D01*
X95767705Y-109258058D01*
X95706382Y-109291543D01*
X95647931Y-109290152D01*
X95551697Y-109264366D01*
X95551693Y-109264365D01*
X95551692Y-109264365D01*
X95551691Y-109264364D01*
X95551686Y-109264364D01*
X95325002Y-109244532D01*
X95324998Y-109244532D01*
X95098313Y-109264364D01*
X95098302Y-109264366D01*
X94878511Y-109323258D01*
X94878502Y-109323261D01*
X94672267Y-109419431D01*
X94672265Y-109419432D01*
X94485858Y-109549954D01*
X94324954Y-109710858D01*
X94194432Y-109897265D01*
X94194431Y-109897267D01*
X94167382Y-109955275D01*
X94121209Y-110007714D01*
X94054016Y-110026866D01*
X93987135Y-110006650D01*
X93942618Y-109955275D01*
X93935981Y-109941042D01*
X93915568Y-109897266D01*
X93785047Y-109710861D01*
X93785045Y-109710858D01*
X93624141Y-109549954D01*
X93437734Y-109419432D01*
X93437732Y-109419431D01*
X93231497Y-109323261D01*
X93231488Y-109323258D01*
X93011697Y-109264366D01*
X93011693Y-109264365D01*
X93011692Y-109264365D01*
X93011691Y-109264364D01*
X93011686Y-109264364D01*
X92785002Y-109244532D01*
X92784998Y-109244532D01*
X92558313Y-109264364D01*
X92558302Y-109264366D01*
X92338511Y-109323258D01*
X92338502Y-109323261D01*
X92132267Y-109419431D01*
X92132265Y-109419432D01*
X91945858Y-109549954D01*
X91784954Y-109710858D01*
X91654432Y-109897265D01*
X91654431Y-109897267D01*
X91627382Y-109955275D01*
X91581209Y-110007714D01*
X91514016Y-110026866D01*
X91447135Y-110006650D01*
X91402618Y-109955275D01*
X91395981Y-109941042D01*
X91375568Y-109897266D01*
X91245047Y-109710861D01*
X91245045Y-109710858D01*
X91084141Y-109549954D01*
X90897734Y-109419432D01*
X90897732Y-109419431D01*
X90691497Y-109323261D01*
X90691488Y-109323258D01*
X90471697Y-109264366D01*
X90471693Y-109264365D01*
X90471692Y-109264365D01*
X90471691Y-109264364D01*
X90471686Y-109264364D01*
X90245002Y-109244532D01*
X90244998Y-109244532D01*
X90018313Y-109264364D01*
X90018302Y-109264366D01*
X89922067Y-109290152D01*
X89852217Y-109288489D01*
X89802293Y-109258058D01*
X89313990Y-108769755D01*
X89313988Y-108769752D01*
X89195117Y-108650881D01*
X89195116Y-108650880D01*
X89108304Y-108600760D01*
X89108304Y-108600759D01*
X89108300Y-108600758D01*
X89058185Y-108571823D01*
X88905457Y-108530899D01*
X88747343Y-108530899D01*
X88739747Y-108530899D01*
X88739731Y-108530900D01*
X83964540Y-108530900D01*
X83923619Y-108541864D01*
X83923619Y-108541865D01*
X83886351Y-108551851D01*
X83811814Y-108571823D01*
X83811809Y-108571826D01*
X83674890Y-108650875D01*
X83674882Y-108650881D01*
X83563078Y-108762686D01*
X83112582Y-109213181D01*
X83051259Y-109246666D01*
X83024901Y-109249500D01*
X81777129Y-109249500D01*
X81777123Y-109249501D01*
X81717516Y-109255908D01*
X81582671Y-109306202D01*
X81582664Y-109306206D01*
X81467455Y-109392452D01*
X81467452Y-109392455D01*
X81381206Y-109507664D01*
X81381202Y-109507671D01*
X81330908Y-109642517D01*
X81324501Y-109702116D01*
X81324500Y-109702135D01*
X81324500Y-111397870D01*
X81324501Y-111397876D01*
X81330908Y-111457483D01*
X81381202Y-111592328D01*
X81381206Y-111592335D01*
X81467452Y-111707544D01*
X81467455Y-111707547D01*
X81582664Y-111793793D01*
X81582671Y-111793797D01*
X81717517Y-111844091D01*
X81717516Y-111844091D01*
X81724444Y-111844835D01*
X81777127Y-111850500D01*
X83472872Y-111850499D01*
X83532483Y-111844091D01*
X83667331Y-111793796D01*
X83782546Y-111707546D01*
X83868796Y-111592331D01*
X83919091Y-111457483D01*
X83922862Y-111422401D01*
X83949599Y-111357855D01*
X84006990Y-111318006D01*
X84076816Y-111315511D01*
X84136905Y-111351163D01*
X84147726Y-111364536D01*
X84164956Y-111389143D01*
X84325858Y-111550045D01*
X84325861Y-111550047D01*
X84512266Y-111680568D01*
X84718504Y-111776739D01*
X84938308Y-111835635D01*
X85100230Y-111849801D01*
X85164998Y-111855468D01*
X85165000Y-111855468D01*
X85165002Y-111855468D01*
X85221807Y-111850498D01*
X85391692Y-111835635D01*
X85611496Y-111776739D01*
X85817734Y-111680568D01*
X86004139Y-111550047D01*
X86165047Y-111389139D01*
X86295568Y-111202734D01*
X86322618Y-111144724D01*
X86368790Y-111092285D01*
X86435983Y-111073133D01*
X86502865Y-111093348D01*
X86547382Y-111144725D01*
X86574429Y-111202728D01*
X86574432Y-111202734D01*
X86704954Y-111389141D01*
X86865858Y-111550045D01*
X86865861Y-111550047D01*
X87052266Y-111680568D01*
X87258504Y-111776739D01*
X87478308Y-111835635D01*
X87640230Y-111849801D01*
X87704998Y-111855468D01*
X87705000Y-111855468D01*
X87705002Y-111855468D01*
X87761807Y-111850498D01*
X87931692Y-111835635D01*
X88027932Y-111809847D01*
X88097781Y-111811510D01*
X88147706Y-111841941D01*
X88640039Y-112334274D01*
X88640049Y-112334285D01*
X88644379Y-112338615D01*
X88644380Y-112338616D01*
X88756184Y-112450420D01*
X88842995Y-112500539D01*
X88842997Y-112500541D01*
X88881051Y-112522511D01*
X88893115Y-112529477D01*
X89045843Y-112570401D01*
X89045846Y-112570401D01*
X89211553Y-112570401D01*
X89211569Y-112570400D01*
X112551731Y-112570400D01*
X112551747Y-112570401D01*
X112559343Y-112570401D01*
X112717454Y-112570401D01*
X112717457Y-112570401D01*
X112870185Y-112529477D01*
X112920304Y-112500539D01*
X113007116Y-112450420D01*
X113118920Y-112338616D01*
X113118920Y-112338614D01*
X113129128Y-112328407D01*
X113129129Y-112328404D01*
X116244203Y-109213331D01*
X116305524Y-109179848D01*
X116375216Y-109184832D01*
X116431149Y-109226704D01*
X116433457Y-109229891D01*
X116509954Y-109339141D01*
X116670858Y-109500045D01*
X116670861Y-109500047D01*
X116857266Y-109630568D01*
X117063504Y-109726739D01*
X117063509Y-109726740D01*
X117063511Y-109726741D01*
X117082765Y-109731900D01*
X117283308Y-109785635D01*
X117425361Y-109798063D01*
X117509998Y-109805468D01*
X117510000Y-109805468D01*
X117510002Y-109805468D01*
X117566673Y-109800509D01*
X117736692Y-109785635D01*
X117956496Y-109726739D01*
X118162734Y-109630568D01*
X118349139Y-109500047D01*
X118510047Y-109339139D01*
X118640568Y-109152734D01*
X118667618Y-109094724D01*
X118713790Y-109042285D01*
X118780983Y-109023133D01*
X118847865Y-109043348D01*
X118892381Y-109094724D01*
X118895698Y-109101837D01*
X118919429Y-109152728D01*
X118919432Y-109152734D01*
X119049954Y-109339141D01*
X119210858Y-109500045D01*
X119210861Y-109500047D01*
X119397266Y-109630568D01*
X119603504Y-109726739D01*
X119603509Y-109726740D01*
X119603511Y-109726741D01*
X119622765Y-109731900D01*
X119823308Y-109785635D01*
X119965361Y-109798063D01*
X120049998Y-109805468D01*
X120050000Y-109805468D01*
X120050002Y-109805468D01*
X120106673Y-109800509D01*
X120276692Y-109785635D01*
X120372932Y-109759847D01*
X120442781Y-109761510D01*
X120492706Y-109791941D01*
X124375139Y-113674374D01*
X124375149Y-113674385D01*
X124379479Y-113678715D01*
X124379480Y-113678716D01*
X124491284Y-113790520D01*
X124578095Y-113840639D01*
X124578097Y-113840641D01*
X124628213Y-113869576D01*
X124628215Y-113869577D01*
X124780942Y-113910500D01*
X124780943Y-113910500D01*
X154219243Y-113910500D01*
X154460909Y-113910500D01*
X154527948Y-113930185D01*
X154573292Y-113982097D01*
X154575965Y-113987830D01*
X154711505Y-114181401D01*
X154878599Y-114348495D01*
X154975384Y-114416265D01*
X155072165Y-114484032D01*
X155072167Y-114484033D01*
X155072170Y-114484035D01*
X155286337Y-114583903D01*
X155514592Y-114645063D01*
X155702918Y-114661539D01*
X155749999Y-114665659D01*
X155750000Y-114665659D01*
X155750001Y-114665659D01*
X155789234Y-114662226D01*
X155985408Y-114645063D01*
X156213663Y-114583903D01*
X156427830Y-114484035D01*
X156621401Y-114348495D01*
X156788495Y-114181401D01*
X156924035Y-113987830D01*
X157023903Y-113773663D01*
X157085063Y-113545408D01*
X157105659Y-113310000D01*
X157085063Y-113074592D01*
X157023903Y-112846337D01*
X156924035Y-112632171D01*
X156924034Y-112632169D01*
X156788494Y-112438597D01*
X156621402Y-112271506D01*
X156621396Y-112271501D01*
X156435842Y-112141575D01*
X156392217Y-112086998D01*
X156385023Y-112017500D01*
X156416546Y-111955145D01*
X156435842Y-111938425D01*
X156463844Y-111918818D01*
X156621401Y-111808495D01*
X156788495Y-111641401D01*
X156924035Y-111447830D01*
X157023903Y-111233663D01*
X157085063Y-111005408D01*
X157105659Y-110770000D01*
X157085063Y-110534592D01*
X157023903Y-110306337D01*
X156924035Y-110092171D01*
X156923496Y-110091400D01*
X156788494Y-109898597D01*
X156621402Y-109731506D01*
X156621396Y-109731501D01*
X156435842Y-109601575D01*
X156392217Y-109546998D01*
X156385023Y-109477500D01*
X156416546Y-109415145D01*
X156435842Y-109398425D01*
X156520511Y-109339139D01*
X156621401Y-109268495D01*
X156788495Y-109101401D01*
X156924035Y-108907830D01*
X157023903Y-108693663D01*
X157085063Y-108465408D01*
X157105659Y-108230000D01*
X157085063Y-107994592D01*
X157023903Y-107766337D01*
X156924035Y-107552171D01*
X156924034Y-107552169D01*
X156788494Y-107358597D01*
X156621402Y-107191506D01*
X156621396Y-107191501D01*
X156435842Y-107061575D01*
X156392217Y-107006998D01*
X156385023Y-106937500D01*
X156416546Y-106875145D01*
X156435842Y-106858425D01*
X156458026Y-106842891D01*
X156621401Y-106728495D01*
X156788495Y-106561401D01*
X156924035Y-106367830D01*
X157023903Y-106153663D01*
X157085063Y-105925408D01*
X157105659Y-105690000D01*
X157085063Y-105454592D01*
X157023903Y-105226337D01*
X156924035Y-105012171D01*
X156924034Y-105012169D01*
X156788494Y-104818597D01*
X156621402Y-104651506D01*
X156621396Y-104651501D01*
X156435842Y-104521575D01*
X156392217Y-104466998D01*
X156385023Y-104397500D01*
X156416546Y-104335145D01*
X156435842Y-104318425D01*
X156458026Y-104302891D01*
X156621401Y-104188495D01*
X156788495Y-104021401D01*
X156924035Y-103827830D01*
X157023903Y-103613663D01*
X157085063Y-103385408D01*
X157105659Y-103150000D01*
X157085063Y-102914592D01*
X157023903Y-102686337D01*
X156924035Y-102472171D01*
X156907618Y-102448724D01*
X156788494Y-102278597D01*
X156621402Y-102111506D01*
X156621396Y-102111501D01*
X156435842Y-101981575D01*
X156392217Y-101926998D01*
X156385023Y-101857500D01*
X156416546Y-101795145D01*
X156435842Y-101778425D01*
X156458026Y-101762891D01*
X156621401Y-101648495D01*
X156788495Y-101481401D01*
X156924035Y-101287830D01*
X157023903Y-101073663D01*
X157085063Y-100845408D01*
X157105659Y-100610000D01*
X157085063Y-100374592D01*
X157023903Y-100146337D01*
X156924035Y-99932171D01*
X156924034Y-99932169D01*
X156788494Y-99738597D01*
X156621402Y-99571506D01*
X156621396Y-99571501D01*
X156435842Y-99441575D01*
X156392217Y-99386998D01*
X156385023Y-99317500D01*
X156416546Y-99255145D01*
X156435842Y-99238425D01*
X156458026Y-99222891D01*
X156621401Y-99108495D01*
X156788495Y-98941401D01*
X156924035Y-98747830D01*
X157023903Y-98533663D01*
X157085063Y-98305408D01*
X157105659Y-98070000D01*
X157085063Y-97834592D01*
X157023903Y-97606337D01*
X156924035Y-97392171D01*
X156924034Y-97392169D01*
X156788494Y-97198597D01*
X156621402Y-97031506D01*
X156621396Y-97031501D01*
X156435842Y-96901575D01*
X156392217Y-96846998D01*
X156385023Y-96777500D01*
X156416546Y-96715145D01*
X156435842Y-96698425D01*
X156465682Y-96677531D01*
X156621401Y-96568495D01*
X156788495Y-96401401D01*
X156924035Y-96207830D01*
X157023903Y-95993663D01*
X157085063Y-95765408D01*
X157105659Y-95530000D01*
X157085063Y-95294592D01*
X157023903Y-95066337D01*
X156924035Y-94852171D01*
X156889812Y-94803294D01*
X156788494Y-94658597D01*
X156621402Y-94491506D01*
X156621396Y-94491501D01*
X156435842Y-94361575D01*
X156392217Y-94306998D01*
X156385023Y-94237500D01*
X156416546Y-94175145D01*
X156435842Y-94158425D01*
X156489909Y-94120567D01*
X156621401Y-94028495D01*
X156788495Y-93861401D01*
X156924035Y-93667830D01*
X157023903Y-93453663D01*
X157085063Y-93225408D01*
X157105659Y-92990000D01*
X157085063Y-92754592D01*
X157023903Y-92526337D01*
X156924035Y-92312171D01*
X156924034Y-92312169D01*
X156788494Y-92118597D01*
X156621402Y-91951506D01*
X156621396Y-91951501D01*
X156435842Y-91821575D01*
X156392217Y-91766998D01*
X156385023Y-91697500D01*
X156416546Y-91635145D01*
X156435842Y-91618425D01*
X156489909Y-91580567D01*
X156621401Y-91488495D01*
X156788495Y-91321401D01*
X156924035Y-91127830D01*
X157023903Y-90913663D01*
X157085063Y-90685408D01*
X157105659Y-90450000D01*
X157085063Y-90214592D01*
X157023903Y-89986337D01*
X156924035Y-89772171D01*
X156924034Y-89772169D01*
X156788494Y-89578597D01*
X156621402Y-89411506D01*
X156621396Y-89411501D01*
X156435842Y-89281575D01*
X156392217Y-89226998D01*
X156385023Y-89157500D01*
X156416546Y-89095145D01*
X156435842Y-89078425D01*
X156489909Y-89040567D01*
X156621401Y-88948495D01*
X156788495Y-88781401D01*
X156924035Y-88587830D01*
X157023903Y-88373663D01*
X157085063Y-88145408D01*
X157105659Y-87910000D01*
X157085063Y-87674592D01*
X157023903Y-87446337D01*
X156924035Y-87232171D01*
X156924034Y-87232169D01*
X156788494Y-87038597D01*
X156621402Y-86871506D01*
X156621396Y-86871501D01*
X156435842Y-86741575D01*
X156392217Y-86686998D01*
X156385023Y-86617500D01*
X156416546Y-86555145D01*
X156435842Y-86538425D01*
X156489909Y-86500567D01*
X156621401Y-86408495D01*
X156788495Y-86241401D01*
X156924035Y-86047830D01*
X157023903Y-85833663D01*
X157085063Y-85605408D01*
X157105659Y-85370000D01*
X157085063Y-85134592D01*
X157023903Y-84906337D01*
X156924035Y-84692171D01*
X156924034Y-84692169D01*
X156788494Y-84498597D01*
X156621402Y-84331506D01*
X156621396Y-84331501D01*
X156435842Y-84201575D01*
X156392217Y-84146998D01*
X156385023Y-84077500D01*
X156416546Y-84015145D01*
X156435842Y-83998425D01*
X156489909Y-83960567D01*
X156621401Y-83868495D01*
X156788495Y-83701401D01*
X156924035Y-83507830D01*
X157023903Y-83293663D01*
X157085063Y-83065408D01*
X157105659Y-82830000D01*
X157085063Y-82594592D01*
X157029518Y-82387293D01*
X157023905Y-82366344D01*
X157023904Y-82366343D01*
X157023903Y-82366337D01*
X156924035Y-82152171D01*
X156924034Y-82152169D01*
X156788494Y-81958597D01*
X156621402Y-81791506D01*
X156621396Y-81791501D01*
X156435842Y-81661575D01*
X156392217Y-81606998D01*
X156385023Y-81537500D01*
X156416546Y-81475145D01*
X156435842Y-81458425D01*
X156489909Y-81420567D01*
X156621401Y-81328495D01*
X156788495Y-81161401D01*
X156924035Y-80967830D01*
X157023903Y-80753663D01*
X157085063Y-80525408D01*
X157105659Y-80290000D01*
X157085063Y-80054592D01*
X157023903Y-79826337D01*
X156924035Y-79612171D01*
X156924034Y-79612169D01*
X156788494Y-79418597D01*
X156621402Y-79251506D01*
X156621396Y-79251501D01*
X156435842Y-79121575D01*
X156392217Y-79066998D01*
X156385023Y-78997500D01*
X156416546Y-78935145D01*
X156435842Y-78918425D01*
X156574095Y-78821619D01*
X156621401Y-78788495D01*
X156788495Y-78621401D01*
X156924035Y-78427830D01*
X157023903Y-78213663D01*
X157085063Y-77985408D01*
X157105659Y-77750000D01*
X157085063Y-77514592D01*
X157023903Y-77286337D01*
X156924035Y-77072171D01*
X156924034Y-77072169D01*
X156788496Y-76878600D01*
X156730128Y-76820232D01*
X156666567Y-76756671D01*
X156633084Y-76695351D01*
X156638068Y-76625659D01*
X156679939Y-76569725D01*
X156710915Y-76552810D01*
X156842331Y-76503796D01*
X156957546Y-76417546D01*
X157043796Y-76302331D01*
X157094091Y-76167483D01*
X157100500Y-76107873D01*
X157100499Y-74312128D01*
X157094091Y-74252517D01*
X157056874Y-74152734D01*
X157043797Y-74117671D01*
X157043793Y-74117664D01*
X156957547Y-74002455D01*
X156957544Y-74002452D01*
X156842335Y-73916206D01*
X156842328Y-73916202D01*
X156707482Y-73865908D01*
X156707483Y-73865908D01*
X156647883Y-73859501D01*
X156647881Y-73859500D01*
X156647873Y-73859500D01*
X156647864Y-73859500D01*
X154852129Y-73859500D01*
X154852123Y-73859501D01*
X154792516Y-73865908D01*
X154657671Y-73916202D01*
X154657664Y-73916206D01*
X154542455Y-74002452D01*
X154542452Y-74002455D01*
X154456206Y-74117664D01*
X154456202Y-74117671D01*
X154405908Y-74252517D01*
X154399501Y-74312116D01*
X154399501Y-74312123D01*
X154399500Y-74312135D01*
X154399500Y-74485500D01*
X154379815Y-74552539D01*
X154327011Y-74598294D01*
X154275500Y-74609500D01*
X142101692Y-74609500D01*
X142034653Y-74589815D01*
X142000119Y-74556625D01*
X141870047Y-74370861D01*
X141870045Y-74370858D01*
X141709141Y-74209954D01*
X141522734Y-74079432D01*
X141522732Y-74079431D01*
X141316497Y-73983261D01*
X141316488Y-73983258D01*
X141096697Y-73924366D01*
X141096693Y-73924365D01*
X141096692Y-73924365D01*
X141096691Y-73924364D01*
X141096686Y-73924364D01*
X140870002Y-73904532D01*
X140869998Y-73904532D01*
X140643313Y-73924364D01*
X140643302Y-73924366D01*
X140423511Y-73983258D01*
X140423502Y-73983261D01*
X140217267Y-74079431D01*
X140217265Y-74079432D01*
X140030858Y-74209954D01*
X139869954Y-74370858D01*
X139739432Y-74557265D01*
X139739431Y-74557267D01*
X139643261Y-74763502D01*
X139643258Y-74763511D01*
X139584366Y-74983302D01*
X139584364Y-74983313D01*
X139564532Y-75209998D01*
X139564532Y-75210001D01*
X139584364Y-75436686D01*
X139584366Y-75436697D01*
X139643258Y-75656488D01*
X139643261Y-75656497D01*
X139739431Y-75862732D01*
X139739432Y-75862734D01*
X139869954Y-76049141D01*
X140030858Y-76210045D01*
X140030861Y-76210047D01*
X140217266Y-76340568D01*
X140275275Y-76367618D01*
X140327714Y-76413791D01*
X140346866Y-76480984D01*
X140326650Y-76547865D01*
X140275275Y-76592381D01*
X140258272Y-76600310D01*
X140217267Y-76619431D01*
X140217265Y-76619432D01*
X140030858Y-76749954D01*
X139869954Y-76910858D01*
X139739432Y-77097265D01*
X139739431Y-77097267D01*
X139643261Y-77303502D01*
X139643258Y-77303511D01*
X139584366Y-77523302D01*
X139584364Y-77523313D01*
X139564532Y-77749998D01*
X139564532Y-77750001D01*
X139584364Y-77976686D01*
X139584366Y-77976697D01*
X139643258Y-78196488D01*
X139643261Y-78196497D01*
X139739431Y-78402732D01*
X139739432Y-78402734D01*
X139869954Y-78589141D01*
X140030858Y-78750045D01*
X140030861Y-78750047D01*
X140217266Y-78880568D01*
X140275275Y-78907618D01*
X140327714Y-78953791D01*
X140346866Y-79020984D01*
X140326650Y-79087865D01*
X140275275Y-79132382D01*
X140217267Y-79159431D01*
X140217265Y-79159432D01*
X140030858Y-79289954D01*
X139869954Y-79450858D01*
X139739432Y-79637265D01*
X139739431Y-79637267D01*
X139643261Y-79843502D01*
X139643258Y-79843511D01*
X139584366Y-80063302D01*
X139584364Y-80063313D01*
X139564532Y-80289998D01*
X139564532Y-80290001D01*
X139584364Y-80516686D01*
X139584366Y-80516697D01*
X139643258Y-80736488D01*
X139643261Y-80736497D01*
X139739431Y-80942732D01*
X139739432Y-80942734D01*
X139869954Y-81129141D01*
X140030858Y-81290045D01*
X140043080Y-81298603D01*
X140217266Y-81420568D01*
X140275275Y-81447618D01*
X140327714Y-81493791D01*
X140346866Y-81560984D01*
X140326650Y-81627865D01*
X140275275Y-81672381D01*
X140217272Y-81699429D01*
X140217266Y-81699432D01*
X140030858Y-81829954D01*
X139869954Y-81990858D01*
X139739432Y-82177265D01*
X139739431Y-82177267D01*
X139643261Y-82383502D01*
X139643258Y-82383511D01*
X139584366Y-82603302D01*
X139584364Y-82603313D01*
X139564532Y-82829998D01*
X139564532Y-82830001D01*
X139584364Y-83056686D01*
X139584366Y-83056697D01*
X139643258Y-83276488D01*
X139643261Y-83276497D01*
X139739431Y-83482732D01*
X139739432Y-83482734D01*
X139869954Y-83669141D01*
X140030858Y-83830045D01*
X140030861Y-83830047D01*
X140217266Y-83960568D01*
X140275275Y-83987618D01*
X140327714Y-84033791D01*
X140346866Y-84100984D01*
X140326650Y-84167865D01*
X140275275Y-84212382D01*
X140217267Y-84239431D01*
X140217265Y-84239432D01*
X140030858Y-84369954D01*
X139869954Y-84530858D01*
X139739432Y-84717265D01*
X139739431Y-84717267D01*
X139643261Y-84923502D01*
X139643258Y-84923511D01*
X139584366Y-85143302D01*
X139584364Y-85143313D01*
X139564532Y-85369998D01*
X139564532Y-85370001D01*
X139584364Y-85596686D01*
X139584366Y-85596697D01*
X139643258Y-85816488D01*
X139643261Y-85816497D01*
X139739431Y-86022732D01*
X139739432Y-86022734D01*
X139869954Y-86209141D01*
X140030858Y-86370045D01*
X140030861Y-86370047D01*
X140217266Y-86500568D01*
X140275275Y-86527618D01*
X140327714Y-86573791D01*
X140346866Y-86640984D01*
X140326650Y-86707865D01*
X140275275Y-86752382D01*
X140217267Y-86779431D01*
X140217265Y-86779432D01*
X140030858Y-86909954D01*
X139869954Y-87070858D01*
X139739432Y-87257265D01*
X139739431Y-87257267D01*
X139643261Y-87463502D01*
X139643258Y-87463511D01*
X139584366Y-87683302D01*
X139584364Y-87683313D01*
X139564532Y-87909998D01*
X139564532Y-87910001D01*
X139584364Y-88136686D01*
X139584366Y-88136697D01*
X139643258Y-88356488D01*
X139643261Y-88356497D01*
X139739431Y-88562732D01*
X139739432Y-88562734D01*
X139869954Y-88749141D01*
X140030858Y-88910045D01*
X140077693Y-88942839D01*
X140217266Y-89040568D01*
X140275275Y-89067618D01*
X140327714Y-89113791D01*
X140346866Y-89180984D01*
X140326650Y-89247865D01*
X140275275Y-89292382D01*
X140217267Y-89319431D01*
X140217265Y-89319432D01*
X140030858Y-89449954D01*
X139869954Y-89610858D01*
X139739432Y-89797265D01*
X139739431Y-89797267D01*
X139643261Y-90003502D01*
X139643258Y-90003511D01*
X139584366Y-90223302D01*
X139584364Y-90223313D01*
X139564532Y-90449998D01*
X139564532Y-90450001D01*
X139584364Y-90676686D01*
X139584366Y-90676697D01*
X139643258Y-90896488D01*
X139643261Y-90896497D01*
X139739431Y-91102732D01*
X139739432Y-91102734D01*
X139869954Y-91289141D01*
X140030858Y-91450045D01*
X140030861Y-91450047D01*
X140217266Y-91580568D01*
X140275275Y-91607618D01*
X140327714Y-91653791D01*
X140346866Y-91720984D01*
X140326650Y-91787865D01*
X140275275Y-91832382D01*
X140217267Y-91859431D01*
X140217265Y-91859432D01*
X140030858Y-91989954D01*
X139869954Y-92150858D01*
X139739432Y-92337265D01*
X139739431Y-92337267D01*
X139643261Y-92543502D01*
X139643258Y-92543511D01*
X139584366Y-92763302D01*
X139584364Y-92763313D01*
X139564532Y-92989998D01*
X139564532Y-92990001D01*
X139584364Y-93216686D01*
X139584366Y-93216697D01*
X139643258Y-93436488D01*
X139643261Y-93436497D01*
X139739431Y-93642732D01*
X139739432Y-93642734D01*
X139869954Y-93829141D01*
X140030858Y-93990045D01*
X140030861Y-93990047D01*
X140217266Y-94120568D01*
X140275275Y-94147618D01*
X140327714Y-94193791D01*
X140346866Y-94260984D01*
X140326650Y-94327865D01*
X140275275Y-94372381D01*
X140258272Y-94380310D01*
X140217267Y-94399431D01*
X140217265Y-94399432D01*
X140030858Y-94529954D01*
X139869954Y-94690858D01*
X139739432Y-94877265D01*
X139739431Y-94877267D01*
X139643261Y-95083502D01*
X139643258Y-95083511D01*
X139584366Y-95303302D01*
X139584364Y-95303313D01*
X139564532Y-95529998D01*
X139564532Y-95530001D01*
X139584364Y-95756686D01*
X139584366Y-95756697D01*
X139643258Y-95976488D01*
X139643261Y-95976497D01*
X139739431Y-96182732D01*
X139739432Y-96182734D01*
X139869954Y-96369141D01*
X140030858Y-96530045D01*
X140030861Y-96530047D01*
X140216624Y-96660118D01*
X140260248Y-96714693D01*
X140269500Y-96761692D01*
X140269500Y-96845030D01*
X140269499Y-96845048D01*
X140269499Y-97010754D01*
X140269498Y-97010754D01*
X140310423Y-97163485D01*
X140321903Y-97183368D01*
X140321904Y-97183371D01*
X140389475Y-97300409D01*
X140389481Y-97300417D01*
X140508349Y-97419285D01*
X140508355Y-97419290D01*
X141134881Y-98045816D01*
X141168366Y-98107139D01*
X141171200Y-98133497D01*
X141171200Y-99455500D01*
X141151515Y-99522539D01*
X141098711Y-99568294D01*
X141047200Y-99579500D01*
X139601797Y-99579500D01*
X139534758Y-99559815D01*
X139514116Y-99543181D01*
X135588615Y-95617680D01*
X135555130Y-95556357D01*
X135560114Y-95486665D01*
X135588611Y-95442323D01*
X136282606Y-94748327D01*
X136282611Y-94748324D01*
X136292814Y-94738120D01*
X136292816Y-94738120D01*
X136404620Y-94626316D01*
X136483677Y-94489384D01*
X136514883Y-94372922D01*
X136524600Y-94336658D01*
X136524600Y-94178543D01*
X136524600Y-72970096D01*
X136544285Y-72903057D01*
X136560914Y-72882420D01*
X139956806Y-69486527D01*
X139956811Y-69486524D01*
X139967014Y-69476320D01*
X139967016Y-69476320D01*
X140078820Y-69364516D01*
X140157877Y-69227584D01*
X140198800Y-69074857D01*
X140198800Y-67940978D01*
X140218485Y-67873939D01*
X140271289Y-67828184D01*
X140340447Y-67818240D01*
X140375203Y-67828595D01*
X140553504Y-67911739D01*
X140553509Y-67911740D01*
X140553511Y-67911741D01*
X140606415Y-67925916D01*
X140773308Y-67970635D01*
X140935230Y-67984801D01*
X140999998Y-67990468D01*
X141000000Y-67990468D01*
X141000002Y-67990468D01*
X141056673Y-67985509D01*
X141226692Y-67970635D01*
X141446496Y-67911739D01*
X141652734Y-67815568D01*
X141839139Y-67685047D01*
X142000047Y-67524139D01*
X142130568Y-67337734D01*
X142226739Y-67131496D01*
X142285635Y-66911692D01*
X142305468Y-66685000D01*
X142304311Y-66671781D01*
X142285635Y-66458313D01*
X142285635Y-66458308D01*
X142226739Y-66238504D01*
X142130568Y-66032266D01*
X142032839Y-65892693D01*
X142000045Y-65845858D01*
X141839141Y-65684954D01*
X141652734Y-65554432D01*
X141652728Y-65554429D01*
X141594725Y-65527382D01*
X141542285Y-65481210D01*
X141523133Y-65414017D01*
X141543348Y-65347135D01*
X141594725Y-65302618D01*
X141652734Y-65275568D01*
X141839139Y-65145047D01*
X142000047Y-64984139D01*
X142130118Y-64798375D01*
X142184693Y-64754752D01*
X142231692Y-64745500D01*
X152883203Y-64745500D01*
X152950242Y-64765185D01*
X152970884Y-64781819D01*
X153243439Y-65054374D01*
X153243449Y-65054385D01*
X153247779Y-65058715D01*
X153247780Y-65058716D01*
X153359584Y-65170520D01*
X153359586Y-65170521D01*
X153359590Y-65170524D01*
X153496509Y-65249573D01*
X153496516Y-65249577D01*
X153593516Y-65275568D01*
X153649242Y-65290500D01*
X153649243Y-65290500D01*
X153890909Y-65290500D01*
X153957948Y-65310185D01*
X154003292Y-65362097D01*
X154005965Y-65367830D01*
X154141505Y-65561401D01*
X154308599Y-65728495D01*
X154405384Y-65796265D01*
X154502165Y-65864032D01*
X154502167Y-65864033D01*
X154502170Y-65864035D01*
X154716337Y-65963903D01*
X154944592Y-66025063D01*
X155132918Y-66041539D01*
X155179999Y-66045659D01*
X155180000Y-66045659D01*
X155180001Y-66045659D01*
X155219234Y-66042226D01*
X155415408Y-66025063D01*
X155643663Y-65963903D01*
X155857830Y-65864035D01*
X156051401Y-65728495D01*
X156218495Y-65561401D01*
X156354035Y-65367830D01*
X156453903Y-65153663D01*
X156515063Y-64925408D01*
X156535659Y-64690000D01*
X156531851Y-64646481D01*
X156522636Y-64541153D01*
X156515063Y-64454592D01*
X156466442Y-64273133D01*
X156453905Y-64226344D01*
X156453904Y-64226343D01*
X156453903Y-64226337D01*
X156354035Y-64012171D01*
X156348619Y-64004435D01*
X156218494Y-63818597D01*
X156051402Y-63651506D01*
X156051396Y-63651501D01*
X155865842Y-63521575D01*
X155822217Y-63466998D01*
X155815023Y-63397500D01*
X155846546Y-63335145D01*
X155865842Y-63318425D01*
X155913185Y-63285275D01*
X156051401Y-63188495D01*
X156218495Y-63021401D01*
X156354035Y-62827830D01*
X156453903Y-62613663D01*
X156515063Y-62385408D01*
X156535659Y-62150000D01*
X156515063Y-61914592D01*
X156460347Y-61710385D01*
X156453905Y-61686344D01*
X156453904Y-61686343D01*
X156453903Y-61686337D01*
X156354035Y-61472171D01*
X156348619Y-61464435D01*
X156218494Y-61278597D01*
X156051402Y-61111506D01*
X156051396Y-61111501D01*
X155865842Y-60981575D01*
X155822217Y-60926998D01*
X155815023Y-60857500D01*
X155846546Y-60795145D01*
X155865842Y-60778425D01*
X155938006Y-60727895D01*
X156051401Y-60648495D01*
X156218495Y-60481401D01*
X156354035Y-60287830D01*
X156453903Y-60073663D01*
X156515063Y-59845408D01*
X156535659Y-59610000D01*
X156533792Y-59588666D01*
X156524880Y-59486796D01*
X156515063Y-59374592D01*
X156453903Y-59146337D01*
X156354035Y-58932171D01*
X156348619Y-58924435D01*
X156218494Y-58738597D01*
X156051402Y-58571506D01*
X156051396Y-58571501D01*
X155865842Y-58441575D01*
X155822217Y-58386998D01*
X155815023Y-58317500D01*
X155846546Y-58255145D01*
X155865842Y-58238425D01*
X155888026Y-58222891D01*
X156051401Y-58108495D01*
X156218495Y-57941401D01*
X156354035Y-57747830D01*
X156453903Y-57533663D01*
X156515063Y-57305408D01*
X156535659Y-57070000D01*
X156535454Y-57067662D01*
X156515063Y-56834596D01*
X156515063Y-56834592D01*
X156453903Y-56606337D01*
X156354035Y-56392171D01*
X156348619Y-56384435D01*
X156218494Y-56198597D01*
X156051402Y-56031506D01*
X156051396Y-56031501D01*
X155865842Y-55901575D01*
X155822217Y-55846998D01*
X155815023Y-55777500D01*
X155846546Y-55715145D01*
X155865842Y-55698425D01*
X155917394Y-55662328D01*
X156051401Y-55568495D01*
X156218495Y-55401401D01*
X156354035Y-55207830D01*
X156453903Y-54993663D01*
X156515063Y-54765408D01*
X156535659Y-54530000D01*
X156515063Y-54294592D01*
X156462083Y-54096866D01*
X156453905Y-54066344D01*
X156453904Y-54066343D01*
X156453903Y-54066337D01*
X156354035Y-53852171D01*
X156351877Y-53849088D01*
X156218494Y-53658597D01*
X156051402Y-53491506D01*
X156051396Y-53491501D01*
X155865842Y-53361575D01*
X155822217Y-53306998D01*
X155815023Y-53237500D01*
X155846546Y-53175145D01*
X155865842Y-53158425D01*
X155934184Y-53110571D01*
X156051401Y-53028495D01*
X156218495Y-52861401D01*
X156354035Y-52667830D01*
X156453903Y-52453663D01*
X156515063Y-52225408D01*
X156535659Y-51990000D01*
X156515063Y-51754592D01*
X156453903Y-51526337D01*
X156354035Y-51312171D01*
X156348619Y-51304435D01*
X156218494Y-51118597D01*
X156051401Y-50951505D01*
X156051396Y-50951501D01*
X155865842Y-50821575D01*
X155822217Y-50766998D01*
X155815023Y-50697500D01*
X155846546Y-50635145D01*
X155865842Y-50618425D01*
X155961685Y-50551315D01*
X156051401Y-50488495D01*
X156218495Y-50321401D01*
X156354035Y-50127830D01*
X156453903Y-49913663D01*
X156515063Y-49685408D01*
X156535659Y-49450000D01*
X156515063Y-49214592D01*
X156453903Y-48986337D01*
X156354035Y-48772171D01*
X156348619Y-48764435D01*
X156218494Y-48578597D01*
X156051402Y-48411506D01*
X156051396Y-48411501D01*
X155865842Y-48281575D01*
X155822217Y-48226998D01*
X155815023Y-48157500D01*
X155846546Y-48095145D01*
X155865842Y-48078425D01*
X155888026Y-48062891D01*
X156051401Y-47948495D01*
X156218495Y-47781401D01*
X156354035Y-47587830D01*
X156453903Y-47373663D01*
X156515063Y-47145408D01*
X156535659Y-46910000D01*
X156515063Y-46674592D01*
X156462083Y-46476866D01*
X156453905Y-46446344D01*
X156453904Y-46446343D01*
X156453903Y-46446337D01*
X156354035Y-46232171D01*
X156348619Y-46224435D01*
X156218494Y-46038597D01*
X156051402Y-45871506D01*
X156051396Y-45871501D01*
X155865842Y-45741575D01*
X155822217Y-45686998D01*
X155815023Y-45617500D01*
X155846546Y-45555145D01*
X155865842Y-45538425D01*
X155888026Y-45522891D01*
X156051401Y-45408495D01*
X156218495Y-45241401D01*
X156354035Y-45047830D01*
X156453903Y-44833663D01*
X156515063Y-44605408D01*
X156535659Y-44370000D01*
X156515063Y-44134592D01*
X156453903Y-43906337D01*
X156354035Y-43692171D01*
X156354034Y-43692169D01*
X156218494Y-43498597D01*
X156051402Y-43331506D01*
X156051396Y-43331501D01*
X155865842Y-43201575D01*
X155822217Y-43146998D01*
X155815023Y-43077500D01*
X155846546Y-43015145D01*
X155865842Y-42998425D01*
X155896274Y-42977116D01*
X156051401Y-42868495D01*
X156218495Y-42701401D01*
X156354035Y-42507830D01*
X156453903Y-42293663D01*
X156515063Y-42065408D01*
X156535659Y-41830000D01*
X156515063Y-41594592D01*
X156453903Y-41366337D01*
X156354035Y-41152171D01*
X156348619Y-41144435D01*
X156218494Y-40958597D01*
X156051402Y-40791506D01*
X156051396Y-40791501D01*
X155865842Y-40661575D01*
X155822217Y-40606998D01*
X155815023Y-40537500D01*
X155846546Y-40475145D01*
X155865842Y-40458425D01*
X155888026Y-40442891D01*
X156051401Y-40328495D01*
X156218495Y-40161401D01*
X156354035Y-39967830D01*
X156453903Y-39753663D01*
X156515063Y-39525408D01*
X156535659Y-39290000D01*
X156515063Y-39054592D01*
X156459357Y-38846692D01*
X156453905Y-38826344D01*
X156453904Y-38826343D01*
X156453903Y-38826337D01*
X156354035Y-38612171D01*
X156314939Y-38556335D01*
X156218494Y-38418597D01*
X156051402Y-38251506D01*
X156051396Y-38251501D01*
X155865842Y-38121575D01*
X155822217Y-38066998D01*
X155815023Y-37997500D01*
X155846546Y-37935145D01*
X155865842Y-37918425D01*
X155888026Y-37902891D01*
X156051401Y-37788495D01*
X156218495Y-37621401D01*
X156354035Y-37427830D01*
X156453903Y-37213663D01*
X156515063Y-36985408D01*
X156535659Y-36750000D01*
X156515063Y-36514592D01*
X156453903Y-36286337D01*
X156354035Y-36072171D01*
X156350100Y-36066550D01*
X156218494Y-35878597D01*
X156051402Y-35711506D01*
X156051396Y-35711501D01*
X155865842Y-35581575D01*
X155822217Y-35526998D01*
X155815023Y-35457500D01*
X155846546Y-35395145D01*
X155865842Y-35378425D01*
X155888026Y-35362891D01*
X156051401Y-35248495D01*
X156218495Y-35081401D01*
X156354035Y-34887830D01*
X156453903Y-34673663D01*
X156515063Y-34445408D01*
X156535659Y-34210000D01*
X156515063Y-33974592D01*
X156454885Y-33750002D01*
X156453905Y-33746344D01*
X156453904Y-33746343D01*
X156453903Y-33746337D01*
X156354035Y-33532171D01*
X156352468Y-33529932D01*
X156218494Y-33338597D01*
X156051402Y-33171506D01*
X156051396Y-33171501D01*
X155865842Y-33041575D01*
X155822217Y-32986998D01*
X155815023Y-32917500D01*
X155846546Y-32855145D01*
X155865842Y-32838425D01*
X155888026Y-32822891D01*
X156051401Y-32708495D01*
X156218495Y-32541401D01*
X156354035Y-32347830D01*
X156453903Y-32133663D01*
X156515063Y-31905408D01*
X156535659Y-31670000D01*
X156515063Y-31434592D01*
X156459357Y-31226692D01*
X156453905Y-31206344D01*
X156453904Y-31206343D01*
X156453903Y-31206337D01*
X156354035Y-30992171D01*
X156348619Y-30984435D01*
X156218494Y-30798597D01*
X156051402Y-30631506D01*
X156051396Y-30631501D01*
X155865842Y-30501575D01*
X155822217Y-30446998D01*
X155815023Y-30377500D01*
X155846546Y-30315145D01*
X155865842Y-30298425D01*
X155954594Y-30236280D01*
X156051401Y-30168495D01*
X156218495Y-30001401D01*
X156354035Y-29807830D01*
X156453903Y-29593663D01*
X156515063Y-29365408D01*
X156535659Y-29130000D01*
X156515063Y-28894592D01*
X156453903Y-28666337D01*
X156354035Y-28452171D01*
X156314938Y-28396335D01*
X156218496Y-28258600D01*
X156171925Y-28212029D01*
X156096567Y-28136671D01*
X156063084Y-28075351D01*
X156068068Y-28005659D01*
X156109939Y-27949725D01*
X156140915Y-27932810D01*
X156272331Y-27883796D01*
X156387546Y-27797546D01*
X156473796Y-27682331D01*
X156524091Y-27547483D01*
X156530500Y-27487873D01*
X156530499Y-25692128D01*
X156524510Y-25636417D01*
X156524091Y-25632516D01*
X156473797Y-25497671D01*
X156473793Y-25497664D01*
X156387547Y-25382455D01*
X156387544Y-25382452D01*
X156272335Y-25296206D01*
X156272328Y-25296202D01*
X156137482Y-25245908D01*
X156137483Y-25245908D01*
X156077883Y-25239501D01*
X156077881Y-25239500D01*
X156077873Y-25239500D01*
X156077864Y-25239500D01*
X154282129Y-25239500D01*
X154282123Y-25239501D01*
X154222516Y-25245908D01*
X154087671Y-25296202D01*
X154087664Y-25296206D01*
X153972455Y-25382452D01*
X153972452Y-25382455D01*
X153886206Y-25497664D01*
X153886202Y-25497671D01*
X153835908Y-25632517D01*
X153831671Y-25671930D01*
X153829501Y-25692123D01*
X153829500Y-25692135D01*
X153829500Y-25865500D01*
X153809815Y-25932539D01*
X153757011Y-25978294D01*
X153705500Y-25989500D01*
X124836670Y-25989500D01*
X124836654Y-25989499D01*
X124829058Y-25989499D01*
X124670943Y-25989499D01*
X124563587Y-26018265D01*
X124518210Y-26030424D01*
X124518209Y-26030425D01*
X124468096Y-26059359D01*
X124468095Y-26059360D01*
X124424689Y-26084420D01*
X124381285Y-26109479D01*
X124381282Y-26109481D01*
X124269478Y-26221286D01*
X120782705Y-29708058D01*
X120721382Y-29741543D01*
X120662931Y-29740152D01*
X120566697Y-29714366D01*
X120566693Y-29714365D01*
X120566692Y-29714365D01*
X120566691Y-29714364D01*
X120566686Y-29714364D01*
X120340002Y-29694532D01*
X120339998Y-29694532D01*
X120113313Y-29714364D01*
X120113302Y-29714366D01*
X119893511Y-29773258D01*
X119893502Y-29773261D01*
X119687267Y-29869431D01*
X119687265Y-29869432D01*
X119500858Y-29999954D01*
X119339954Y-30160858D01*
X119322725Y-30185464D01*
X119268147Y-30229088D01*
X119198648Y-30236280D01*
X119136294Y-30204757D01*
X119100882Y-30144526D01*
X119097861Y-30127591D01*
X119094091Y-30092516D01*
X119043797Y-29957671D01*
X119043793Y-29957664D01*
X118957547Y-29842455D01*
X118957544Y-29842452D01*
X118842335Y-29756206D01*
X118842328Y-29756202D01*
X118707482Y-29705908D01*
X118707483Y-29705908D01*
X118647883Y-29699501D01*
X118647881Y-29699500D01*
X118647873Y-29699500D01*
X118647864Y-29699500D01*
X116952129Y-29699500D01*
X116952123Y-29699501D01*
X116892516Y-29705908D01*
X116757671Y-29756202D01*
X116757664Y-29756206D01*
X116642455Y-29842452D01*
X116642452Y-29842455D01*
X116556206Y-29957664D01*
X116556202Y-29957671D01*
X116505908Y-30092517D01*
X116499501Y-30152116D01*
X116499500Y-30152135D01*
X116499500Y-31847870D01*
X116499501Y-31847876D01*
X116505908Y-31907483D01*
X116556202Y-32042328D01*
X116556206Y-32042335D01*
X116642452Y-32157544D01*
X116642455Y-32157547D01*
X116757664Y-32243793D01*
X116757671Y-32243797D01*
X116892517Y-32294091D01*
X116892516Y-32294091D01*
X116899444Y-32294835D01*
X116952127Y-32300500D01*
X118647872Y-32300499D01*
X118707483Y-32294091D01*
X118842331Y-32243796D01*
X118957546Y-32157546D01*
X119043796Y-32042331D01*
X119094091Y-31907483D01*
X119097862Y-31872401D01*
X119124599Y-31807855D01*
X119181990Y-31768006D01*
X119251816Y-31765511D01*
X119311905Y-31801163D01*
X119322726Y-31814536D01*
X119339956Y-31839143D01*
X119500858Y-32000045D01*
X119500861Y-32000047D01*
X119687266Y-32130568D01*
X119893504Y-32226739D01*
X119893509Y-32226740D01*
X119893511Y-32226741D01*
X119946415Y-32240916D01*
X120113308Y-32285635D01*
X120255361Y-32298063D01*
X120339998Y-32305468D01*
X120340000Y-32305468D01*
X120340002Y-32305468D01*
X120396807Y-32300498D01*
X120566692Y-32285635D01*
X120786496Y-32226739D01*
X120992734Y-32130568D01*
X121179139Y-32000047D01*
X121340047Y-31839139D01*
X121470568Y-31652734D01*
X121497618Y-31594724D01*
X121543790Y-31542285D01*
X121610983Y-31523133D01*
X121677865Y-31543348D01*
X121722382Y-31594725D01*
X121749429Y-31652728D01*
X121749432Y-31652734D01*
X121879954Y-31839141D01*
X122040858Y-32000045D01*
X122040861Y-32000047D01*
X122227266Y-32130568D01*
X122433504Y-32226739D01*
X122433509Y-32226740D01*
X122433511Y-32226741D01*
X122486415Y-32240916D01*
X122653308Y-32285635D01*
X122795361Y-32298063D01*
X122879998Y-32305468D01*
X122880000Y-32305468D01*
X122880002Y-32305468D01*
X122936807Y-32300498D01*
X123106692Y-32285635D01*
X123326496Y-32226739D01*
X123532734Y-32130568D01*
X123719139Y-32000047D01*
X123880047Y-31839139D01*
X124010568Y-31652734D01*
X124037618Y-31594724D01*
X124083790Y-31542285D01*
X124150983Y-31523133D01*
X124217865Y-31543348D01*
X124262382Y-31594725D01*
X124289429Y-31652728D01*
X124289432Y-31652734D01*
X124419954Y-31839141D01*
X124580858Y-32000045D01*
X124580861Y-32000047D01*
X124767266Y-32130568D01*
X124973504Y-32226739D01*
X124973509Y-32226740D01*
X124973511Y-32226741D01*
X125026415Y-32240916D01*
X125193308Y-32285635D01*
X125335361Y-32298063D01*
X125419998Y-32305468D01*
X125420000Y-32305468D01*
X125420002Y-32305468D01*
X125476807Y-32300498D01*
X125646692Y-32285635D01*
X125866496Y-32226739D01*
X126072734Y-32130568D01*
X126259139Y-32000047D01*
X126420047Y-31839139D01*
X126550568Y-31652734D01*
X126577618Y-31594724D01*
X126623790Y-31542285D01*
X126690983Y-31523133D01*
X126757865Y-31543348D01*
X126802382Y-31594725D01*
X126829429Y-31652728D01*
X126829432Y-31652734D01*
X126959954Y-31839141D01*
X127120858Y-32000045D01*
X127120861Y-32000047D01*
X127307266Y-32130568D01*
X127513504Y-32226739D01*
X127513509Y-32226740D01*
X127513511Y-32226741D01*
X127566415Y-32240916D01*
X127733308Y-32285635D01*
X127875361Y-32298063D01*
X127959998Y-32305468D01*
X127960000Y-32305468D01*
X127960002Y-32305468D01*
X128016807Y-32300498D01*
X128186692Y-32285635D01*
X128406496Y-32226739D01*
X128612734Y-32130568D01*
X128799139Y-32000047D01*
X128960047Y-31839139D01*
X129090568Y-31652734D01*
X129117618Y-31594724D01*
X129163790Y-31542285D01*
X129230983Y-31523133D01*
X129297865Y-31543348D01*
X129342382Y-31594725D01*
X129369429Y-31652728D01*
X129369432Y-31652734D01*
X129499954Y-31839141D01*
X129660858Y-32000045D01*
X129660861Y-32000047D01*
X129847266Y-32130568D01*
X130053504Y-32226739D01*
X130053509Y-32226740D01*
X130053511Y-32226741D01*
X130106415Y-32240916D01*
X130273308Y-32285635D01*
X130415361Y-32298063D01*
X130499998Y-32305468D01*
X130500000Y-32305468D01*
X130500002Y-32305468D01*
X130556807Y-32300498D01*
X130726692Y-32285635D01*
X130946496Y-32226739D01*
X131152734Y-32130568D01*
X131339139Y-32000047D01*
X131500047Y-31839139D01*
X131630568Y-31652734D01*
X131657618Y-31594724D01*
X131703790Y-31542285D01*
X131770983Y-31523133D01*
X131837865Y-31543348D01*
X131882382Y-31594725D01*
X131909429Y-31652728D01*
X131909432Y-31652734D01*
X132039954Y-31839141D01*
X132200858Y-32000045D01*
X132200861Y-32000047D01*
X132387266Y-32130568D01*
X132593504Y-32226739D01*
X132593509Y-32226740D01*
X132593511Y-32226741D01*
X132646415Y-32240916D01*
X132813308Y-32285635D01*
X132955361Y-32298063D01*
X133039998Y-32305468D01*
X133040000Y-32305468D01*
X133040002Y-32305468D01*
X133096807Y-32300498D01*
X133266692Y-32285635D01*
X133486496Y-32226739D01*
X133692734Y-32130568D01*
X133879139Y-32000047D01*
X134040047Y-31839139D01*
X134170568Y-31652734D01*
X134197618Y-31594724D01*
X134243790Y-31542285D01*
X134310983Y-31523133D01*
X134377865Y-31543348D01*
X134422382Y-31594725D01*
X134449429Y-31652728D01*
X134449432Y-31652734D01*
X134579954Y-31839141D01*
X134740858Y-32000045D01*
X134740861Y-32000047D01*
X134927266Y-32130568D01*
X135133504Y-32226739D01*
X135133509Y-32226740D01*
X135133511Y-32226741D01*
X135186415Y-32240916D01*
X135353308Y-32285635D01*
X135495361Y-32298063D01*
X135579998Y-32305468D01*
X135580000Y-32305468D01*
X135580002Y-32305468D01*
X135636807Y-32300498D01*
X135806692Y-32285635D01*
X136026496Y-32226739D01*
X136232734Y-32130568D01*
X136419139Y-32000047D01*
X136580047Y-31839139D01*
X136710568Y-31652734D01*
X136737618Y-31594724D01*
X136783790Y-31542285D01*
X136850983Y-31523133D01*
X136917865Y-31543348D01*
X136962382Y-31594725D01*
X136989429Y-31652728D01*
X136989432Y-31652734D01*
X137119954Y-31839141D01*
X137280858Y-32000045D01*
X137280861Y-32000047D01*
X137467266Y-32130568D01*
X137673504Y-32226739D01*
X137673509Y-32226740D01*
X137673511Y-32226741D01*
X137726415Y-32240916D01*
X137893308Y-32285635D01*
X138035361Y-32298063D01*
X138119998Y-32305468D01*
X138120000Y-32305468D01*
X138120002Y-32305468D01*
X138176807Y-32300498D01*
X138346692Y-32285635D01*
X138442932Y-32259847D01*
X138512781Y-32261510D01*
X138562706Y-32291941D01*
X151005139Y-44734374D01*
X151005149Y-44734385D01*
X151009479Y-44738715D01*
X151009480Y-44738716D01*
X151121284Y-44850520D01*
X151121286Y-44850521D01*
X151121290Y-44850524D01*
X151258209Y-44929573D01*
X151258216Y-44929577D01*
X151370019Y-44959534D01*
X151410942Y-44970500D01*
X151410943Y-44970500D01*
X153890909Y-44970500D01*
X153957948Y-44990185D01*
X154003292Y-45042097D01*
X154005965Y-45047830D01*
X154085415Y-45161296D01*
X154141501Y-45241395D01*
X154141506Y-45241402D01*
X154308597Y-45408493D01*
X154308603Y-45408498D01*
X154494158Y-45538425D01*
X154537783Y-45593002D01*
X154544977Y-45662500D01*
X154513454Y-45724855D01*
X154494158Y-45741575D01*
X154308597Y-45871505D01*
X154141505Y-46038597D01*
X154046965Y-46173616D01*
X153992388Y-46217241D01*
X153922890Y-46224435D01*
X153860535Y-46192912D01*
X153857709Y-46190174D01*
X153670890Y-46003355D01*
X153670888Y-46003352D01*
X153552017Y-45884481D01*
X153552016Y-45884480D01*
X153465204Y-45834360D01*
X153465204Y-45834359D01*
X153465200Y-45834358D01*
X153415085Y-45805423D01*
X153262357Y-45764499D01*
X153104243Y-45764499D01*
X153096647Y-45764499D01*
X153096631Y-45764500D01*
X142231692Y-45764500D01*
X142164653Y-45744815D01*
X142130119Y-45711625D01*
X142000047Y-45525861D01*
X142000045Y-45525858D01*
X141839143Y-45364956D01*
X141814536Y-45347726D01*
X141770912Y-45293149D01*
X141763719Y-45223650D01*
X141795241Y-45161296D01*
X141855471Y-45125882D01*
X141872404Y-45122861D01*
X141907483Y-45119091D01*
X142042331Y-45068796D01*
X142157546Y-44982546D01*
X142243796Y-44867331D01*
X142294091Y-44732483D01*
X142300500Y-44672873D01*
X142300499Y-42977128D01*
X142294091Y-42917517D01*
X142293098Y-42914855D01*
X142243797Y-42782671D01*
X142243793Y-42782664D01*
X142157547Y-42667455D01*
X142157544Y-42667452D01*
X142042335Y-42581206D01*
X142042328Y-42581202D01*
X141907482Y-42530908D01*
X141907483Y-42530908D01*
X141847883Y-42524501D01*
X141847881Y-42524500D01*
X141847873Y-42524500D01*
X141847864Y-42524500D01*
X140152129Y-42524500D01*
X140152123Y-42524501D01*
X140092516Y-42530908D01*
X139957671Y-42581202D01*
X139957664Y-42581206D01*
X139842455Y-42667452D01*
X139842452Y-42667455D01*
X139756206Y-42782664D01*
X139756202Y-42782671D01*
X139705908Y-42917517D01*
X139699501Y-42977116D01*
X139699501Y-42977123D01*
X139699500Y-42977135D01*
X139699500Y-44672870D01*
X139699501Y-44672876D01*
X139705908Y-44732483D01*
X139756202Y-44867328D01*
X139756206Y-44867335D01*
X139842452Y-44982544D01*
X139842455Y-44982547D01*
X139957664Y-45068793D01*
X139957671Y-45068797D01*
X140002618Y-45085561D01*
X140092517Y-45119091D01*
X140127596Y-45122862D01*
X140192144Y-45149599D01*
X140231993Y-45206991D01*
X140234488Y-45276816D01*
X140198836Y-45336905D01*
X140185464Y-45347725D01*
X140160858Y-45364954D01*
X139999954Y-45525858D01*
X139869432Y-45712265D01*
X139869431Y-45712267D01*
X139773261Y-45918502D01*
X139773258Y-45918511D01*
X139714366Y-46138302D01*
X139714364Y-46138313D01*
X139694532Y-46364998D01*
X139694532Y-46365001D01*
X139714364Y-46591686D01*
X139714366Y-46591697D01*
X139773258Y-46811488D01*
X139773261Y-46811497D01*
X139869431Y-47017732D01*
X139869432Y-47017734D01*
X139999954Y-47204141D01*
X140160858Y-47365045D01*
X140160861Y-47365047D01*
X140347266Y-47495568D01*
X140405275Y-47522618D01*
X140457714Y-47568791D01*
X140476866Y-47635984D01*
X140456650Y-47702865D01*
X140405275Y-47747382D01*
X140347267Y-47774431D01*
X140347265Y-47774432D01*
X140160858Y-47904954D01*
X139999954Y-48065858D01*
X139869432Y-48252265D01*
X139869431Y-48252267D01*
X139773261Y-48458502D01*
X139773258Y-48458511D01*
X139714366Y-48678302D01*
X139714364Y-48678313D01*
X139694532Y-48904998D01*
X139694532Y-48905001D01*
X139714364Y-49131686D01*
X139714366Y-49131697D01*
X139773258Y-49351488D01*
X139773261Y-49351497D01*
X139869431Y-49557732D01*
X139869432Y-49557734D01*
X139999954Y-49744141D01*
X140160858Y-49905045D01*
X140184363Y-49921503D01*
X140347266Y-50035568D01*
X140405275Y-50062618D01*
X140457714Y-50108791D01*
X140476866Y-50175984D01*
X140456650Y-50242865D01*
X140405275Y-50287382D01*
X140347267Y-50314431D01*
X140347265Y-50314432D01*
X140160858Y-50444954D01*
X139999954Y-50605858D01*
X139869432Y-50792265D01*
X139869431Y-50792267D01*
X139773261Y-50998502D01*
X139773258Y-50998511D01*
X139714366Y-51218302D01*
X139714364Y-51218313D01*
X139694532Y-51444998D01*
X139694532Y-51445001D01*
X139714364Y-51671686D01*
X139714366Y-51671697D01*
X139773258Y-51891488D01*
X139773261Y-51891497D01*
X139869431Y-52097732D01*
X139869432Y-52097734D01*
X139999954Y-52284141D01*
X140160858Y-52445045D01*
X140160861Y-52445047D01*
X140347266Y-52575568D01*
X140379288Y-52590500D01*
X140405275Y-52602618D01*
X140457714Y-52648791D01*
X140476866Y-52715984D01*
X140456650Y-52782865D01*
X140405275Y-52827382D01*
X140347267Y-52854431D01*
X140347265Y-52854432D01*
X140160858Y-52984954D01*
X139999954Y-53145858D01*
X139869432Y-53332265D01*
X139869431Y-53332267D01*
X139773261Y-53538502D01*
X139773258Y-53538511D01*
X139714366Y-53758302D01*
X139714364Y-53758313D01*
X139694532Y-53984998D01*
X139694532Y-53985001D01*
X139714364Y-54211686D01*
X139714366Y-54211697D01*
X139773258Y-54431488D01*
X139773261Y-54431497D01*
X139869431Y-54637732D01*
X139869432Y-54637734D01*
X139999954Y-54824141D01*
X140160858Y-54985045D01*
X140160861Y-54985047D01*
X140347266Y-55115568D01*
X140405275Y-55142618D01*
X140457714Y-55188791D01*
X140476866Y-55255984D01*
X140456650Y-55322865D01*
X140405275Y-55367382D01*
X140347267Y-55394431D01*
X140347265Y-55394432D01*
X140160858Y-55524954D01*
X139999954Y-55685858D01*
X139869432Y-55872265D01*
X139869431Y-55872267D01*
X139773261Y-56078502D01*
X139773258Y-56078511D01*
X139714366Y-56298302D01*
X139714364Y-56298313D01*
X139694532Y-56524998D01*
X139694532Y-56525001D01*
X139714364Y-56751686D01*
X139714366Y-56751697D01*
X139773258Y-56971488D01*
X139773261Y-56971497D01*
X139869431Y-57177732D01*
X139869432Y-57177734D01*
X139999954Y-57364141D01*
X140160858Y-57525045D01*
X140160861Y-57525047D01*
X140347266Y-57655568D01*
X140405275Y-57682618D01*
X140457714Y-57728791D01*
X140476866Y-57795984D01*
X140456650Y-57862865D01*
X140405275Y-57907382D01*
X140347267Y-57934431D01*
X140347265Y-57934432D01*
X140160858Y-58064954D01*
X139999954Y-58225858D01*
X139869432Y-58412265D01*
X139869431Y-58412267D01*
X139773261Y-58618502D01*
X139773258Y-58618511D01*
X139714366Y-58838302D01*
X139714364Y-58838313D01*
X139694532Y-59064998D01*
X139694532Y-59065001D01*
X139714364Y-59291686D01*
X139714366Y-59291697D01*
X139773258Y-59511488D01*
X139773261Y-59511497D01*
X139869431Y-59717732D01*
X139869432Y-59717734D01*
X139999954Y-59904141D01*
X140160858Y-60065045D01*
X140160861Y-60065047D01*
X140347266Y-60195568D01*
X140401185Y-60220711D01*
X140405275Y-60222618D01*
X140457714Y-60268791D01*
X140476866Y-60335984D01*
X140456650Y-60402865D01*
X140405275Y-60447382D01*
X140347267Y-60474431D01*
X140347265Y-60474432D01*
X140160858Y-60604954D01*
X139999954Y-60765858D01*
X139869432Y-60952265D01*
X139869431Y-60952267D01*
X139773261Y-61158502D01*
X139773258Y-61158511D01*
X139714366Y-61378302D01*
X139714364Y-61378313D01*
X139694532Y-61604998D01*
X139694532Y-61605001D01*
X139714364Y-61831686D01*
X139714366Y-61831697D01*
X139773258Y-62051488D01*
X139773261Y-62051497D01*
X139869431Y-62257732D01*
X139869432Y-62257734D01*
X139999954Y-62444141D01*
X140160858Y-62605045D01*
X140160861Y-62605047D01*
X140347266Y-62735568D01*
X140405275Y-62762618D01*
X140457714Y-62808791D01*
X140476866Y-62875984D01*
X140456650Y-62942865D01*
X140405275Y-62987382D01*
X140347267Y-63014431D01*
X140347265Y-63014432D01*
X140160858Y-63144954D01*
X139999954Y-63305858D01*
X139869432Y-63492265D01*
X139869431Y-63492267D01*
X139773261Y-63698502D01*
X139773258Y-63698511D01*
X139714366Y-63918302D01*
X139714364Y-63918313D01*
X139694532Y-64144998D01*
X139694532Y-64145001D01*
X139714364Y-64371686D01*
X139714366Y-64371697D01*
X139773258Y-64591488D01*
X139773261Y-64591497D01*
X139869431Y-64797732D01*
X139869432Y-64797734D01*
X139999954Y-64984141D01*
X140160858Y-65145045D01*
X140160861Y-65145047D01*
X140347266Y-65275568D01*
X140405275Y-65302618D01*
X140457714Y-65348791D01*
X140476866Y-65415984D01*
X140456650Y-65482865D01*
X140405275Y-65527382D01*
X140347267Y-65554431D01*
X140347265Y-65554432D01*
X140160858Y-65684954D01*
X139999954Y-65845858D01*
X139946987Y-65921505D01*
X139869881Y-66031624D01*
X139815307Y-66075248D01*
X139768308Y-66084500D01*
X139519243Y-66084500D01*
X139366516Y-66125423D01*
X139366509Y-66125426D01*
X139229590Y-66204475D01*
X139229582Y-66204481D01*
X139117781Y-66316282D01*
X139117775Y-66316290D01*
X139038726Y-66453209D01*
X139038723Y-66453216D01*
X138997800Y-66605943D01*
X138997800Y-68695703D01*
X138978115Y-68762742D01*
X138961481Y-68783384D01*
X135711684Y-72033181D01*
X135650361Y-72066666D01*
X135624003Y-72069500D01*
X134674499Y-72069500D01*
X134607460Y-72049815D01*
X134561705Y-71997011D01*
X134550499Y-71945500D01*
X134550499Y-71822129D01*
X134550498Y-71822123D01*
X134549327Y-71811231D01*
X134544091Y-71762517D01*
X134495797Y-71633035D01*
X134493797Y-71627671D01*
X134493793Y-71627664D01*
X134407547Y-71512455D01*
X134407544Y-71512452D01*
X134292335Y-71426206D01*
X134292328Y-71426202D01*
X134157482Y-71375908D01*
X134157483Y-71375908D01*
X134097883Y-71369501D01*
X134097881Y-71369500D01*
X134097873Y-71369500D01*
X134097865Y-71369500D01*
X133341496Y-71369500D01*
X133274457Y-71349815D01*
X133228702Y-71297011D01*
X133218758Y-71227853D01*
X133247783Y-71164297D01*
X133253815Y-71157819D01*
X134553133Y-69858501D01*
X135854406Y-68557228D01*
X135854411Y-68557224D01*
X135864614Y-68547020D01*
X135864616Y-68547020D01*
X135976420Y-68435216D01*
X136039496Y-68325965D01*
X136051509Y-68305158D01*
X136051511Y-68305152D01*
X136055477Y-68298285D01*
X136096400Y-68145557D01*
X136096400Y-67987443D01*
X136096400Y-52080143D01*
X136055477Y-51927416D01*
X136055473Y-51927409D01*
X135976424Y-51790490D01*
X135976421Y-51790486D01*
X135976420Y-51790484D01*
X135864616Y-51678680D01*
X135864615Y-51678679D01*
X135860285Y-51674349D01*
X135860274Y-51674339D01*
X135718615Y-51532680D01*
X135685130Y-51471357D01*
X135690114Y-51401665D01*
X135718611Y-51357322D01*
X135886906Y-51189027D01*
X135886911Y-51189024D01*
X135897114Y-51178820D01*
X135897116Y-51178820D01*
X136008920Y-51067016D01*
X136075610Y-50951505D01*
X136087977Y-50930085D01*
X136128900Y-50777358D01*
X136128900Y-50619243D01*
X136128900Y-42820643D01*
X136087977Y-42667916D01*
X136047896Y-42598493D01*
X136008924Y-42530990D01*
X136008921Y-42530986D01*
X136008920Y-42530984D01*
X135897116Y-42419180D01*
X135897115Y-42419179D01*
X135892785Y-42414849D01*
X135892774Y-42414839D01*
X133501357Y-40023422D01*
X133467872Y-39962099D01*
X133472856Y-39892407D01*
X133514728Y-39836474D01*
X133536628Y-39823361D01*
X133692734Y-39750568D01*
X133879139Y-39620047D01*
X134040047Y-39459139D01*
X134170568Y-39272734D01*
X134197618Y-39214724D01*
X134243790Y-39162285D01*
X134310983Y-39143133D01*
X134377865Y-39163348D01*
X134422382Y-39214725D01*
X134449429Y-39272728D01*
X134449432Y-39272734D01*
X134579954Y-39459141D01*
X134740858Y-39620045D01*
X134740861Y-39620047D01*
X134927266Y-39750568D01*
X135133504Y-39846739D01*
X135353308Y-39905635D01*
X135495361Y-39918063D01*
X135579998Y-39925468D01*
X135580000Y-39925468D01*
X135580002Y-39925468D01*
X135636673Y-39920509D01*
X135806692Y-39905635D01*
X136026496Y-39846739D01*
X136232734Y-39750568D01*
X136419139Y-39620047D01*
X136580047Y-39459139D01*
X136710568Y-39272734D01*
X136737618Y-39214724D01*
X136783790Y-39162285D01*
X136850983Y-39143133D01*
X136917865Y-39163348D01*
X136962382Y-39214725D01*
X136989429Y-39272728D01*
X136989432Y-39272734D01*
X137119954Y-39459141D01*
X137280858Y-39620045D01*
X137280861Y-39620047D01*
X137467266Y-39750568D01*
X137673504Y-39846739D01*
X137893308Y-39905635D01*
X138035361Y-39918063D01*
X138119998Y-39925468D01*
X138120000Y-39925468D01*
X138120002Y-39925468D01*
X138176673Y-39920509D01*
X138346692Y-39905635D01*
X138566496Y-39846739D01*
X138772734Y-39750568D01*
X138959139Y-39620047D01*
X139120047Y-39459139D01*
X139250568Y-39272734D01*
X139277618Y-39214724D01*
X139323790Y-39162285D01*
X139390983Y-39143133D01*
X139457865Y-39163348D01*
X139502382Y-39214725D01*
X139529429Y-39272728D01*
X139529432Y-39272734D01*
X139659954Y-39459141D01*
X139820858Y-39620045D01*
X139820861Y-39620047D01*
X140007266Y-39750568D01*
X140213504Y-39846739D01*
X140433308Y-39905635D01*
X140575361Y-39918063D01*
X140659998Y-39925468D01*
X140660000Y-39925468D01*
X140660002Y-39925468D01*
X140716673Y-39920509D01*
X140886692Y-39905635D01*
X141106496Y-39846739D01*
X141312734Y-39750568D01*
X141499139Y-39620047D01*
X141660047Y-39459139D01*
X141790568Y-39272734D01*
X141886739Y-39066496D01*
X141945635Y-38846692D01*
X141965468Y-38620000D01*
X141945635Y-38393308D01*
X141886739Y-38173504D01*
X141790568Y-37967266D01*
X141671346Y-37796998D01*
X141660045Y-37780858D01*
X141499141Y-37619954D01*
X141312734Y-37489432D01*
X141312732Y-37489431D01*
X141106497Y-37393261D01*
X141106488Y-37393258D01*
X140886697Y-37334366D01*
X140886693Y-37334365D01*
X140886692Y-37334365D01*
X140886691Y-37334364D01*
X140886686Y-37334364D01*
X140660002Y-37314532D01*
X140659998Y-37314532D01*
X140433313Y-37334364D01*
X140433302Y-37334366D01*
X140337067Y-37360152D01*
X140267217Y-37358489D01*
X140217293Y-37328058D01*
X136252390Y-33363155D01*
X136252388Y-33363152D01*
X136133517Y-33244281D01*
X136133509Y-33244275D01*
X136036170Y-33188077D01*
X136036168Y-33188076D01*
X135996590Y-33165225D01*
X135996589Y-33165224D01*
X135984063Y-33161867D01*
X135843857Y-33124299D01*
X135685743Y-33124299D01*
X135678147Y-33124299D01*
X135678131Y-33124300D01*
X116826097Y-33124300D01*
X116759058Y-33104615D01*
X116738416Y-33087981D01*
X110911290Y-27260855D01*
X110911288Y-27260852D01*
X110792417Y-27141981D01*
X110792412Y-27141977D01*
X110668643Y-27070520D01*
X110668643Y-27070519D01*
X110668640Y-27070518D01*
X110655485Y-27062923D01*
X110502757Y-27021999D01*
X110344643Y-27021999D01*
X110337047Y-27021999D01*
X110337031Y-27022000D01*
X103022597Y-27022000D01*
X102955558Y-27002315D01*
X102934916Y-26985681D01*
X101796861Y-25847626D01*
X101763376Y-25786303D01*
X101768360Y-25716611D01*
X101810232Y-25660678D01*
X101875696Y-25636261D01*
X101895339Y-25636416D01*
X102007654Y-25646242D01*
X102019999Y-25647323D01*
X102020000Y-25647323D01*
X102020002Y-25647323D01*
X102078912Y-25642169D01*
X102240068Y-25628070D01*
X102453450Y-25570894D01*
X102653662Y-25477534D01*
X102834620Y-25350826D01*
X102990826Y-25194620D01*
X103085715Y-25059104D01*
X103103730Y-25033377D01*
X103158307Y-24989752D01*
X103205305Y-24980500D01*
X105914695Y-24980500D01*
X105981734Y-25000185D01*
X106016270Y-25033377D01*
X106044570Y-25073793D01*
X106129170Y-25194615D01*
X106129175Y-25194621D01*
X106285378Y-25350824D01*
X106285384Y-25350829D01*
X106466333Y-25477531D01*
X106466335Y-25477532D01*
X106466338Y-25477534D01*
X106666550Y-25570894D01*
X106879932Y-25628070D01*
X107026743Y-25640914D01*
X107099998Y-25647323D01*
X107100000Y-25647323D01*
X107100002Y-25647323D01*
X107158912Y-25642169D01*
X107320068Y-25628070D01*
X107533450Y-25570894D01*
X107733662Y-25477534D01*
X107914620Y-25350826D01*
X108070826Y-25194620D01*
X108197534Y-25013662D01*
X108290894Y-24813450D01*
X108348070Y-24600068D01*
X108367323Y-24380000D01*
X108348070Y-24159932D01*
X108290894Y-23946550D01*
X108197534Y-23746339D01*
X108095991Y-23601319D01*
X108070827Y-23565381D01*
X108005443Y-23499997D01*
X107914620Y-23409174D01*
X107914616Y-23409171D01*
X107914615Y-23409170D01*
X107733666Y-23282468D01*
X107733662Y-23282466D01*
X107733660Y-23282465D01*
X107533450Y-23189106D01*
X107533447Y-23189105D01*
X107533445Y-23189104D01*
X107320070Y-23131930D01*
X107320062Y-23131929D01*
X107100002Y-23112677D01*
X107099998Y-23112677D01*
X106879937Y-23131929D01*
X106879929Y-23131930D01*
X106666554Y-23189104D01*
X106666548Y-23189107D01*
X106466340Y-23282465D01*
X106466338Y-23282466D01*
X106285377Y-23409175D01*
X106129175Y-23565377D01*
X106016271Y-23726623D01*
X105961694Y-23770248D01*
X105914696Y-23779500D01*
X103205304Y-23779500D01*
X103138265Y-23759815D01*
X103103729Y-23726623D01*
X102990827Y-23565381D01*
X102925443Y-23499997D01*
X102834620Y-23409174D01*
X102834616Y-23409171D01*
X102834615Y-23409170D01*
X102653666Y-23282468D01*
X102653662Y-23282466D01*
X102653660Y-23282465D01*
X102453450Y-23189106D01*
X102453447Y-23189105D01*
X102453445Y-23189104D01*
X102240070Y-23131930D01*
X102240062Y-23131929D01*
X102020002Y-23112677D01*
X102019998Y-23112677D01*
X101799937Y-23131929D01*
X101799923Y-23131932D01*
X101728092Y-23151178D01*
X101658242Y-23149514D01*
X101608319Y-23119084D01*
X101092090Y-22602855D01*
X101092088Y-22602852D01*
X100973217Y-22483981D01*
X100973216Y-22483980D01*
X100878853Y-22429500D01*
X100836285Y-22404923D01*
X100683557Y-22363999D01*
X100525443Y-22363999D01*
X100517847Y-22363999D01*
X100517831Y-22364000D01*
X86173870Y-22364000D01*
X86173854Y-22363999D01*
X86166258Y-22363999D01*
X86008143Y-22363999D01*
X85931779Y-22384461D01*
X85855414Y-22404923D01*
X85855409Y-22404926D01*
X85718490Y-22483975D01*
X85718482Y-22483981D01*
X64822290Y-43380173D01*
X64760967Y-43413658D01*
X64691275Y-43408674D01*
X64635342Y-43366802D01*
X64633034Y-43363615D01*
X64538494Y-43228597D01*
X64371402Y-43061506D01*
X64371396Y-43061501D01*
X64185842Y-42931575D01*
X64142217Y-42876998D01*
X64135023Y-42807500D01*
X64166546Y-42745145D01*
X64185842Y-42728425D01*
X64224445Y-42701395D01*
X64371401Y-42598495D01*
X64538495Y-42431401D01*
X64674035Y-42237830D01*
X64773903Y-42023663D01*
X64835063Y-41795408D01*
X64855659Y-41560000D01*
X64835063Y-41324592D01*
X64773903Y-41096337D01*
X64674035Y-40882171D01*
X64610551Y-40791505D01*
X64538494Y-40688597D01*
X64371402Y-40521506D01*
X64371396Y-40521501D01*
X64185842Y-40391575D01*
X64142217Y-40336998D01*
X64135023Y-40267500D01*
X64166546Y-40205145D01*
X64185842Y-40188425D01*
X64270098Y-40129428D01*
X64371401Y-40058495D01*
X64538495Y-39891401D01*
X64674035Y-39697830D01*
X64773903Y-39483663D01*
X64835063Y-39255408D01*
X64855659Y-39020000D01*
X64835063Y-38784592D01*
X64773903Y-38556337D01*
X64674035Y-38342171D01*
X64610551Y-38251505D01*
X64538494Y-38148597D01*
X64371402Y-37981506D01*
X64371396Y-37981501D01*
X64185842Y-37851575D01*
X64142217Y-37796998D01*
X64135023Y-37727500D01*
X64166546Y-37665145D01*
X64185842Y-37648425D01*
X64226504Y-37619953D01*
X64371401Y-37518495D01*
X64538495Y-37351401D01*
X64674035Y-37157830D01*
X64676707Y-37152097D01*
X64722878Y-37099658D01*
X64789091Y-37080500D01*
X64801675Y-37080500D01*
X64833767Y-37084725D01*
X64864651Y-37092999D01*
X64892642Y-37100500D01*
X64892643Y-37100500D01*
X66814695Y-37100500D01*
X66881734Y-37120185D01*
X66916270Y-37153377D01*
X66978035Y-37241586D01*
X67029170Y-37314615D01*
X67029175Y-37314621D01*
X67185378Y-37470824D01*
X67185384Y-37470829D01*
X67366333Y-37597531D01*
X67366335Y-37597532D01*
X67366338Y-37597534D01*
X67566550Y-37690894D01*
X67779932Y-37748070D01*
X67937123Y-37761822D01*
X67999998Y-37767323D01*
X68000000Y-37767323D01*
X68000002Y-37767323D01*
X68055017Y-37762509D01*
X68220068Y-37748070D01*
X68433450Y-37690894D01*
X68633662Y-37597534D01*
X68814620Y-37470826D01*
X68970826Y-37314620D01*
X69097534Y-37133662D01*
X69190894Y-36933450D01*
X69248070Y-36720068D01*
X69266046Y-36514596D01*
X69267323Y-36500002D01*
X69267323Y-36499997D01*
X69248070Y-36279937D01*
X69248070Y-36279932D01*
X69190894Y-36066550D01*
X69097534Y-35866339D01*
X69034180Y-35775859D01*
X68970827Y-35685381D01*
X68894043Y-35608597D01*
X68814620Y-35529174D01*
X68814616Y-35529171D01*
X68814615Y-35529170D01*
X68633666Y-35402468D01*
X68633662Y-35402466D01*
X68594136Y-35384035D01*
X68433450Y-35309106D01*
X68433447Y-35309105D01*
X68433445Y-35309104D01*
X68220070Y-35251930D01*
X68220062Y-35251929D01*
X68187444Y-35249075D01*
X68181180Y-35248527D01*
X68116112Y-35223076D01*
X68075133Y-35166485D01*
X68071255Y-35096723D01*
X68105709Y-35035939D01*
X68167555Y-35003431D01*
X68181179Y-35001472D01*
X68220068Y-34998070D01*
X68433450Y-34940894D01*
X68633662Y-34847534D01*
X68814620Y-34720826D01*
X68970826Y-34564620D01*
X69097534Y-34383662D01*
X69190894Y-34183450D01*
X69248070Y-33970068D01*
X69267323Y-33750000D01*
X69267002Y-33746335D01*
X69251805Y-33572626D01*
X69248070Y-33529932D01*
X69190894Y-33316550D01*
X69097534Y-33116339D01*
X68970826Y-32935380D01*
X68814620Y-32779174D01*
X68814616Y-32779171D01*
X68814615Y-32779170D01*
X68633666Y-32652468D01*
X68633662Y-32652466D01*
X68516968Y-32598051D01*
X68433450Y-32559106D01*
X68433447Y-32559105D01*
X68433445Y-32559104D01*
X68220070Y-32501930D01*
X68220062Y-32501929D01*
X68000002Y-32482677D01*
X67999998Y-32482677D01*
X67779937Y-32501929D01*
X67779929Y-32501930D01*
X67566554Y-32559104D01*
X67566548Y-32559107D01*
X67366340Y-32652465D01*
X67366338Y-32652466D01*
X67185377Y-32779175D01*
X67029175Y-32935377D01*
X66916271Y-33096623D01*
X66861694Y-33140248D01*
X66814696Y-33149500D01*
X65228370Y-33149500D01*
X65228354Y-33149499D01*
X65220758Y-33149499D01*
X65062643Y-33149499D01*
X64980514Y-33171506D01*
X64909915Y-33190423D01*
X64804566Y-33251246D01*
X64736666Y-33267718D01*
X64670639Y-33244865D01*
X64640992Y-33214981D01*
X64632277Y-33202535D01*
X64577497Y-33124300D01*
X64538494Y-33068597D01*
X64371402Y-32901506D01*
X64371396Y-32901501D01*
X64185842Y-32771575D01*
X64142217Y-32716998D01*
X64135023Y-32647500D01*
X64166546Y-32585145D01*
X64185842Y-32568425D01*
X64270098Y-32509428D01*
X64371401Y-32438495D01*
X64538495Y-32271401D01*
X64674035Y-32077830D01*
X64773903Y-31863663D01*
X64835063Y-31635408D01*
X64855659Y-31400000D01*
X64835063Y-31164592D01*
X64773903Y-30936337D01*
X64674035Y-30722171D01*
X64610551Y-30631505D01*
X64538494Y-30528597D01*
X64371402Y-30361506D01*
X64371396Y-30361501D01*
X64185842Y-30231575D01*
X64142217Y-30176998D01*
X64135023Y-30107500D01*
X64166546Y-30045145D01*
X64185842Y-30028425D01*
X64286899Y-29957664D01*
X64371401Y-29898495D01*
X64538495Y-29731401D01*
X64674035Y-29537830D01*
X64773903Y-29323663D01*
X64835063Y-29095408D01*
X64855659Y-28860000D01*
X64835063Y-28624592D01*
X64773903Y-28396337D01*
X64674035Y-28182171D01*
X64673970Y-28182077D01*
X64538494Y-27988597D01*
X64371402Y-27821506D01*
X64371396Y-27821501D01*
X64185842Y-27691575D01*
X64142217Y-27636998D01*
X64135023Y-27567500D01*
X64166546Y-27505145D01*
X64185842Y-27488425D01*
X64350064Y-27373435D01*
X64371401Y-27358495D01*
X64538495Y-27191401D01*
X64674035Y-26997830D01*
X64773903Y-26783663D01*
X64835063Y-26555408D01*
X64855659Y-26320000D01*
X64835063Y-26084592D01*
X64773903Y-25856337D01*
X64674035Y-25642171D01*
X64667275Y-25632517D01*
X64538496Y-25448600D01*
X64525273Y-25435377D01*
X64416567Y-25326671D01*
X64383084Y-25265351D01*
X64388068Y-25195659D01*
X64429939Y-25139725D01*
X64460915Y-25122810D01*
X64592331Y-25073796D01*
X64707546Y-24987546D01*
X64793796Y-24872331D01*
X64844091Y-24737483D01*
X64850500Y-24677873D01*
X64850499Y-23499997D01*
X66572677Y-23499997D01*
X66572677Y-23500002D01*
X66591929Y-23720062D01*
X66591930Y-23720070D01*
X66649104Y-23933445D01*
X66649105Y-23933447D01*
X66649106Y-23933450D01*
X66688972Y-24018943D01*
X66742466Y-24133662D01*
X66742468Y-24133666D01*
X66869170Y-24314615D01*
X66869175Y-24314621D01*
X67025378Y-24470824D01*
X67025384Y-24470829D01*
X67206333Y-24597531D01*
X67206335Y-24597532D01*
X67206338Y-24597534D01*
X67406550Y-24690894D01*
X67619932Y-24748070D01*
X67698819Y-24754971D01*
X67763886Y-24780423D01*
X67804865Y-24837013D01*
X67808744Y-24906775D01*
X67774291Y-24967560D01*
X67712444Y-25000068D01*
X67701858Y-25001590D01*
X67699929Y-25001930D01*
X67486554Y-25059104D01*
X67486548Y-25059107D01*
X67286340Y-25152465D01*
X67286338Y-25152466D01*
X67105377Y-25279175D01*
X66949175Y-25435377D01*
X66822466Y-25616338D01*
X66822465Y-25616340D01*
X66729107Y-25816548D01*
X66729104Y-25816554D01*
X66671930Y-26029929D01*
X66671929Y-26029937D01*
X66652677Y-26249997D01*
X66652677Y-26250002D01*
X66671929Y-26470062D01*
X66671930Y-26470070D01*
X66729104Y-26683445D01*
X66729105Y-26683447D01*
X66729106Y-26683450D01*
X66822466Y-26883662D01*
X66822468Y-26883666D01*
X66949170Y-27064615D01*
X66949175Y-27064621D01*
X67105378Y-27220824D01*
X67105384Y-27220829D01*
X67286333Y-27347531D01*
X67286335Y-27347532D01*
X67286338Y-27347534D01*
X67486550Y-27440894D01*
X67699932Y-27498070D01*
X67857123Y-27511822D01*
X67919998Y-27517323D01*
X67920000Y-27517323D01*
X67920002Y-27517323D01*
X67975017Y-27512509D01*
X68140068Y-27498070D01*
X68353450Y-27440894D01*
X68553662Y-27347534D01*
X68734620Y-27220826D01*
X68890826Y-27064620D01*
X69017534Y-26883662D01*
X69110894Y-26683450D01*
X69168070Y-26470068D01*
X69187323Y-26250000D01*
X69168070Y-26029932D01*
X69110894Y-25816550D01*
X69017534Y-25616339D01*
X68934441Y-25497669D01*
X68890827Y-25435381D01*
X68837898Y-25382452D01*
X68734620Y-25279174D01*
X68734616Y-25279171D01*
X68734615Y-25279170D01*
X68553666Y-25152468D01*
X68553662Y-25152466D01*
X68553653Y-25152462D01*
X68353450Y-25059106D01*
X68353447Y-25059105D01*
X68353445Y-25059104D01*
X68140070Y-25001930D01*
X68140063Y-25001929D01*
X68061180Y-24995028D01*
X67996112Y-24969575D01*
X67955133Y-24912984D01*
X67951255Y-24843222D01*
X67985709Y-24782438D01*
X68047556Y-24749931D01*
X68058116Y-24748413D01*
X68060060Y-24748070D01*
X68060068Y-24748070D01*
X68273450Y-24690894D01*
X68473662Y-24597534D01*
X68654620Y-24470826D01*
X68810826Y-24314620D01*
X68937534Y-24133662D01*
X69030894Y-23933450D01*
X69088070Y-23720068D01*
X69107323Y-23500000D01*
X69107323Y-23499997D01*
X76732677Y-23499997D01*
X76732677Y-23500002D01*
X76751929Y-23720062D01*
X76751930Y-23720070D01*
X76809104Y-23933445D01*
X76809105Y-23933447D01*
X76809106Y-23933450D01*
X76848972Y-24018943D01*
X76902466Y-24133662D01*
X76902468Y-24133666D01*
X77029170Y-24314615D01*
X77029174Y-24314620D01*
X77185380Y-24470826D01*
X77346623Y-24583729D01*
X77390248Y-24638306D01*
X77399500Y-24685304D01*
X77399500Y-25120711D01*
X77379815Y-25187750D01*
X77346625Y-25222285D01*
X77265380Y-25279174D01*
X77109172Y-25435381D01*
X76982466Y-25616338D01*
X76982465Y-25616340D01*
X76889107Y-25816548D01*
X76889104Y-25816554D01*
X76831930Y-26029929D01*
X76831929Y-26029937D01*
X76812677Y-26249997D01*
X76812677Y-26250002D01*
X76831929Y-26470062D01*
X76831930Y-26470070D01*
X76889104Y-26683445D01*
X76889105Y-26683447D01*
X76889106Y-26683450D01*
X76982466Y-26883662D01*
X76982468Y-26883666D01*
X77109170Y-27064615D01*
X77109175Y-27064621D01*
X77265378Y-27220824D01*
X77265384Y-27220829D01*
X77446333Y-27347531D01*
X77446335Y-27347532D01*
X77446338Y-27347534D01*
X77646550Y-27440894D01*
X77859932Y-27498070D01*
X78017123Y-27511822D01*
X78079998Y-27517323D01*
X78080000Y-27517323D01*
X78080002Y-27517323D01*
X78135017Y-27512509D01*
X78300068Y-27498070D01*
X78513450Y-27440894D01*
X78713662Y-27347534D01*
X78894620Y-27220826D01*
X79050826Y-27064620D01*
X79177534Y-26883662D01*
X79270894Y-26683450D01*
X79328070Y-26470068D01*
X79347323Y-26250000D01*
X79328070Y-26029932D01*
X79270894Y-25816550D01*
X79177534Y-25616339D01*
X79094441Y-25497669D01*
X79050827Y-25435381D01*
X78997898Y-25382452D01*
X78894620Y-25279174D01*
X78894616Y-25279171D01*
X78894615Y-25279170D01*
X78713663Y-25152466D01*
X78713656Y-25152462D01*
X78672094Y-25133081D01*
X78619655Y-25086908D01*
X78600500Y-25020700D01*
X78600500Y-24685304D01*
X78620185Y-24618265D01*
X78653375Y-24583730D01*
X78814620Y-24470826D01*
X78970826Y-24314620D01*
X79097534Y-24133662D01*
X79190894Y-23933450D01*
X79248070Y-23720068D01*
X79267323Y-23500000D01*
X79248070Y-23279932D01*
X79190894Y-23066550D01*
X79097534Y-22866339D01*
X78972429Y-22687669D01*
X78970827Y-22685381D01*
X78970823Y-22685377D01*
X78814620Y-22529174D01*
X78814616Y-22529171D01*
X78814615Y-22529170D01*
X78633666Y-22402468D01*
X78633662Y-22402466D01*
X78551171Y-22364000D01*
X78433450Y-22309106D01*
X78433447Y-22309105D01*
X78433445Y-22309104D01*
X78220070Y-22251930D01*
X78220062Y-22251929D01*
X78000002Y-22232677D01*
X77999998Y-22232677D01*
X77779937Y-22251929D01*
X77779929Y-22251930D01*
X77566554Y-22309104D01*
X77566548Y-22309107D01*
X77366340Y-22402465D01*
X77366338Y-22402466D01*
X77185377Y-22529175D01*
X77029175Y-22685377D01*
X76902466Y-22866338D01*
X76902465Y-22866340D01*
X76809107Y-23066548D01*
X76809104Y-23066554D01*
X76751930Y-23279929D01*
X76751929Y-23279937D01*
X76732677Y-23499997D01*
X69107323Y-23499997D01*
X69088070Y-23279932D01*
X69030894Y-23066550D01*
X68937534Y-22866339D01*
X68812429Y-22687669D01*
X68810827Y-22685381D01*
X68810823Y-22685377D01*
X68654620Y-22529174D01*
X68654616Y-22529171D01*
X68654615Y-22529170D01*
X68473666Y-22402468D01*
X68473662Y-22402466D01*
X68391171Y-22364000D01*
X68273450Y-22309106D01*
X68273447Y-22309105D01*
X68273445Y-22309104D01*
X68060070Y-22251930D01*
X68060062Y-22251929D01*
X67840002Y-22232677D01*
X67839998Y-22232677D01*
X67619937Y-22251929D01*
X67619929Y-22251930D01*
X67406554Y-22309104D01*
X67406548Y-22309107D01*
X67206340Y-22402465D01*
X67206338Y-22402466D01*
X67025377Y-22529175D01*
X66869175Y-22685377D01*
X66742466Y-22866338D01*
X66742465Y-22866340D01*
X66649107Y-23066548D01*
X66649104Y-23066554D01*
X66591930Y-23279929D01*
X66591929Y-23279937D01*
X66572677Y-23499997D01*
X64850499Y-23499997D01*
X64850499Y-22882128D01*
X64844091Y-22822517D01*
X64793796Y-22687669D01*
X64793795Y-22687668D01*
X64793793Y-22687664D01*
X64707547Y-22572455D01*
X64707544Y-22572452D01*
X64592335Y-22486206D01*
X64592328Y-22486202D01*
X64457482Y-22435908D01*
X64457483Y-22435908D01*
X64397883Y-22429501D01*
X64397881Y-22429500D01*
X64397873Y-22429500D01*
X64397864Y-22429500D01*
X62602129Y-22429500D01*
X62602123Y-22429501D01*
X62542516Y-22435908D01*
X62407671Y-22486202D01*
X62407664Y-22486206D01*
X62292455Y-22572452D01*
X62292452Y-22572455D01*
X62206206Y-22687664D01*
X62206202Y-22687671D01*
X62155908Y-22822517D01*
X62151197Y-22866339D01*
X62149501Y-22882123D01*
X62149500Y-22882135D01*
X62149500Y-24677870D01*
X62149501Y-24677876D01*
X62155908Y-24737483D01*
X62206202Y-24872328D01*
X62206206Y-24872335D01*
X62292452Y-24987544D01*
X62292455Y-24987547D01*
X62407664Y-25073793D01*
X62407671Y-25073797D01*
X62539081Y-25122810D01*
X62595015Y-25164681D01*
X62619432Y-25230145D01*
X62604580Y-25298418D01*
X62583430Y-25326673D01*
X62461503Y-25448600D01*
X62325965Y-25642169D01*
X62325964Y-25642171D01*
X62226098Y-25856335D01*
X62226094Y-25856344D01*
X62164938Y-26084586D01*
X62164936Y-26084596D01*
X62144341Y-26319999D01*
X62144341Y-26320000D01*
X62164936Y-26555403D01*
X62164938Y-26555413D01*
X62226094Y-26783655D01*
X62226096Y-26783659D01*
X62226097Y-26783663D01*
X62289671Y-26919997D01*
X62325965Y-26997830D01*
X62325967Y-26997834D01*
X62461501Y-27191395D01*
X62461506Y-27191402D01*
X62628597Y-27358493D01*
X62628603Y-27358498D01*
X62814158Y-27488425D01*
X62857783Y-27543002D01*
X62864977Y-27612500D01*
X62833454Y-27674855D01*
X62814158Y-27691575D01*
X62628597Y-27821505D01*
X62461505Y-27988597D01*
X62325965Y-28182169D01*
X62325964Y-28182171D01*
X62226098Y-28396335D01*
X62226094Y-28396344D01*
X62164938Y-28624586D01*
X62164936Y-28624596D01*
X62144341Y-28859999D01*
X62144341Y-28860000D01*
X62164936Y-29095403D01*
X62164938Y-29095413D01*
X62226094Y-29323655D01*
X62226096Y-29323659D01*
X62226097Y-29323663D01*
X62300071Y-29482300D01*
X62325965Y-29537830D01*
X62325967Y-29537834D01*
X62461501Y-29731395D01*
X62461506Y-29731402D01*
X62628597Y-29898493D01*
X62628603Y-29898498D01*
X62814158Y-30028425D01*
X62857783Y-30083002D01*
X62864977Y-30152500D01*
X62833454Y-30214855D01*
X62814158Y-30231575D01*
X62628597Y-30361505D01*
X62461505Y-30528597D01*
X62325965Y-30722169D01*
X62325964Y-30722171D01*
X62226098Y-30936335D01*
X62226094Y-30936344D01*
X62164938Y-31164586D01*
X62164936Y-31164596D01*
X62144341Y-31399999D01*
X62144341Y-31400000D01*
X62164936Y-31635403D01*
X62164938Y-31635413D01*
X62226094Y-31863655D01*
X62226096Y-31863659D01*
X62226097Y-31863663D01*
X62309413Y-32042335D01*
X62325965Y-32077830D01*
X62325967Y-32077834D01*
X62381783Y-32157547D01*
X62442176Y-32243797D01*
X62461501Y-32271395D01*
X62461506Y-32271402D01*
X62628597Y-32438493D01*
X62628603Y-32438498D01*
X62814158Y-32568425D01*
X62857783Y-32623002D01*
X62864977Y-32692500D01*
X62833454Y-32754855D01*
X62814158Y-32771575D01*
X62628597Y-32901505D01*
X62461505Y-33068597D01*
X62325965Y-33262169D01*
X62325964Y-33262171D01*
X62226098Y-33476335D01*
X62226094Y-33476344D01*
X62164938Y-33704586D01*
X62164936Y-33704596D01*
X62144341Y-33939999D01*
X62144341Y-33940000D01*
X62164936Y-34175403D01*
X62164938Y-34175413D01*
X62226094Y-34403655D01*
X62226096Y-34403659D01*
X62226097Y-34403663D01*
X62289906Y-34540501D01*
X62325965Y-34617830D01*
X62325967Y-34617834D01*
X62461501Y-34811395D01*
X62461506Y-34811402D01*
X62628597Y-34978493D01*
X62628603Y-34978498D01*
X62814158Y-35108425D01*
X62857783Y-35163002D01*
X62864977Y-35232500D01*
X62833454Y-35294855D01*
X62814158Y-35311575D01*
X62628597Y-35441505D01*
X62461505Y-35608597D01*
X62325965Y-35802169D01*
X62325964Y-35802171D01*
X62226098Y-36016335D01*
X62226094Y-36016344D01*
X62164938Y-36244586D01*
X62164936Y-36244596D01*
X62144341Y-36479999D01*
X62144341Y-36480000D01*
X62164936Y-36715403D01*
X62164938Y-36715413D01*
X62226094Y-36943655D01*
X62226096Y-36943659D01*
X62226097Y-36943663D01*
X62298839Y-37099658D01*
X62325965Y-37157830D01*
X62325967Y-37157834D01*
X62411957Y-37280639D01*
X62460873Y-37350499D01*
X62461501Y-37351395D01*
X62461506Y-37351402D01*
X62628597Y-37518493D01*
X62628603Y-37518498D01*
X62814158Y-37648425D01*
X62857783Y-37703002D01*
X62864977Y-37772500D01*
X62833454Y-37834855D01*
X62814158Y-37851575D01*
X62628597Y-37981505D01*
X62461505Y-38148597D01*
X62325965Y-38342169D01*
X62325964Y-38342171D01*
X62226098Y-38556335D01*
X62226094Y-38556344D01*
X62164938Y-38784586D01*
X62164936Y-38784596D01*
X62144341Y-39019999D01*
X62144341Y-39020000D01*
X62164936Y-39255403D01*
X62164938Y-39255413D01*
X62226094Y-39483655D01*
X62226096Y-39483659D01*
X62226097Y-39483663D01*
X62289693Y-39620045D01*
X62325965Y-39697830D01*
X62325967Y-39697834D01*
X62461501Y-39891395D01*
X62461506Y-39891402D01*
X62628597Y-40058493D01*
X62628603Y-40058498D01*
X62814158Y-40188425D01*
X62857783Y-40243002D01*
X62864977Y-40312500D01*
X62833454Y-40374855D01*
X62814158Y-40391575D01*
X62628597Y-40521505D01*
X62461505Y-40688597D01*
X62325965Y-40882169D01*
X62325964Y-40882171D01*
X62226098Y-41096335D01*
X62226094Y-41096344D01*
X62164938Y-41324586D01*
X62164936Y-41324596D01*
X62144341Y-41559999D01*
X62144341Y-41560000D01*
X62164936Y-41795403D01*
X62164938Y-41795413D01*
X62226094Y-42023655D01*
X62226096Y-42023659D01*
X62226097Y-42023663D01*
X62305701Y-42194374D01*
X62325965Y-42237830D01*
X62325967Y-42237834D01*
X62461501Y-42431395D01*
X62461506Y-42431402D01*
X62628597Y-42598493D01*
X62628603Y-42598498D01*
X62814158Y-42728425D01*
X62857783Y-42783002D01*
X62864977Y-42852500D01*
X62833454Y-42914855D01*
X62814158Y-42931575D01*
X62628597Y-43061505D01*
X62461505Y-43228597D01*
X62325965Y-43422169D01*
X62325964Y-43422171D01*
X62226098Y-43636335D01*
X62226094Y-43636344D01*
X62164938Y-43864586D01*
X62164936Y-43864596D01*
X62144341Y-44099999D01*
X62144341Y-44100000D01*
X62164936Y-44335403D01*
X62164938Y-44335413D01*
X62226094Y-44563655D01*
X62226096Y-44563659D01*
X62226097Y-44563663D01*
X62289906Y-44700501D01*
X62325965Y-44777830D01*
X62325967Y-44777834D01*
X62461501Y-44971395D01*
X62461506Y-44971402D01*
X62628597Y-45138493D01*
X62628603Y-45138498D01*
X62814158Y-45268425D01*
X62857783Y-45323002D01*
X62864977Y-45392500D01*
X62833454Y-45454855D01*
X62814158Y-45471575D01*
X62628597Y-45601505D01*
X62461505Y-45768597D01*
X62325965Y-45962169D01*
X62325964Y-45962171D01*
X62226098Y-46176335D01*
X62226094Y-46176344D01*
X62164938Y-46404586D01*
X62164936Y-46404596D01*
X62144341Y-46639999D01*
X62144341Y-46640000D01*
X62164936Y-46875403D01*
X62164938Y-46875413D01*
X62226094Y-47103655D01*
X62226096Y-47103659D01*
X62226097Y-47103663D01*
X62270755Y-47199432D01*
X62325965Y-47317830D01*
X62325967Y-47317834D01*
X62401162Y-47425223D01*
X62460873Y-47510499D01*
X62461501Y-47511395D01*
X62461506Y-47511402D01*
X62628597Y-47678493D01*
X62628603Y-47678498D01*
X62814158Y-47808425D01*
X62857783Y-47863002D01*
X62864977Y-47932500D01*
X62833454Y-47994855D01*
X62814158Y-48011575D01*
X62628597Y-48141505D01*
X62461505Y-48308597D01*
X62325965Y-48502169D01*
X62325964Y-48502171D01*
X62226098Y-48716335D01*
X62226094Y-48716344D01*
X62164938Y-48944586D01*
X62164936Y-48944596D01*
X62144341Y-49179999D01*
X62144341Y-49180000D01*
X62164936Y-49415403D01*
X62164938Y-49415413D01*
X62199327Y-49543756D01*
X62197664Y-49613606D01*
X62167233Y-49663530D01*
X61639886Y-50190878D01*
X61528081Y-50302682D01*
X61528077Y-50302687D01*
X61486143Y-50375321D01*
X61486143Y-50375322D01*
X61449023Y-50439614D01*
X61442156Y-50465241D01*
X61408099Y-50592343D01*
X61408099Y-50592345D01*
X61408099Y-50760446D01*
X61408100Y-50760459D01*
X61408100Y-80142230D01*
X61408099Y-80142248D01*
X61408099Y-80307954D01*
X61408098Y-80307954D01*
X60500500Y-80307954D01*
X60500500Y-20124500D01*
X60520185Y-20057461D01*
X60572989Y-20011706D01*
X60624500Y-20000500D01*
X158375500Y-20000500D01*
X158442539Y-20020185D01*
G37*
%TD.AperFunction*%
%TD*%
M02*
