M48
; DRILL file {KiCad 8.0.2-1} date 2024-08-05T09:17:54-0400
; FORMAT={-:-/ absolute / inch / decimal}
; #@! TF.CreationDate,2024-08-05T09:17:54-04:00
; #@! TF.GenerationSoftware,Kicad,Pcbnew,8.0.2-1
; #@! TF.FileFunction,Plated,1,2,PTH
FMAT,2
INCH
; #@! TA.AperFunction,Plated,PTH,ViaDrill
T1C0.0118
; #@! TA.AperFunction,Plated,PTH,ComponentDrill
T2C0.0300
; #@! TA.AperFunction,Plated,PTH,ComponentDrill
T3C0.0315
; #@! TA.AperFunction,Plated,PTH,ComponentDrill
T4C0.0394
%
G90
G05
T1
X2.5914Y-1.9654
X2.9488Y-2.0067
X3.0772Y-1.8892
X3.1011Y-2.342
X3.6812Y-2.4594
X3.7479Y-3.168
X3.8028Y-3.0486
X3.846Y-2.3066
X4.1292Y-2.227
X4.625Y-4.0483
X4.8135Y-2.6861
X4.9206Y-2.606
X4.9991Y-3.457
X5.0194Y-2.4239
X5.111Y-1.9695
X5.1638Y-3.7017
X5.196Y-2.59
X5.3138Y-2.8978
T2
X2.5295Y-3.363
X2.5295Y-3.763
X2.6709Y-0.9252
X2.674Y-1.0335
X2.6772Y-1.3287
X2.6772Y-1.437
X3.0709Y-0.9252
X3.074Y-1.0335
X3.0772Y-1.3287
X3.0772Y-1.437
X3.7151Y-1.264
X3.7151Y-1.364
X3.7165Y-0.9598
X3.7165Y-1.0598
X3.8151Y-1.364
X3.8165Y-1.0598
X3.9151Y-1.264
X3.9165Y-0.9598
X4.0151Y-1.264
X4.0165Y-0.9598
X4.2151Y-1.264
X4.2165Y-0.9598
T3
X3.0236Y-2.8937
X3.0236Y-3.1937
X3.0335Y-2.2098
X3.0335Y-2.5098
X3.1236Y-2.8937
X3.1236Y-3.1937
X3.1335Y-2.2098
X3.1335Y-2.5098
X3.2236Y-2.8937
X3.2236Y-3.1937
X3.2335Y-2.2098
X3.2335Y-2.5098
X3.253Y-4.0524
X3.253Y-4.3524
X3.3236Y-2.8937
X3.3236Y-3.1937
X3.3335Y-2.2098
X3.3335Y-2.5098
X3.353Y-4.0524
X3.353Y-4.3524
X3.4236Y-2.8937
X3.4236Y-3.1937
X3.4335Y-2.2098
X3.4335Y-2.5098
X3.453Y-4.0524
X3.453Y-4.3524
X3.5236Y-2.8937
X3.5236Y-3.1937
X3.5335Y-2.2098
X3.5335Y-2.5098
X3.553Y-4.0524
X3.553Y-4.3524
X3.6236Y-2.8937
X3.6236Y-3.1937
X3.6335Y-2.2098
X3.6335Y-2.5098
X3.653Y-4.0524
X3.653Y-4.3524
X3.753Y-4.0524
X3.753Y-4.3524
X3.853Y-4.0524
X3.853Y-4.3524
X4.126Y-3.2335
X4.126Y-3.5335
X4.1343Y-1.8504
X4.1343Y-2.1504
X4.1441Y-2.515
X4.1441Y-2.815
X4.226Y-3.2335
X4.226Y-3.5335
X4.2343Y-1.8504
X4.2343Y-2.1504
X4.2441Y-2.515
X4.2441Y-2.815
X4.326Y-3.2335
X4.326Y-3.5335
X4.3343Y-1.8504
X4.3343Y-2.1504
X4.3441Y-2.515
X4.3441Y-2.815
X4.426Y-3.2335
X4.426Y-3.5335
X4.4343Y-1.8504
X4.4343Y-2.1504
X4.4441Y-2.515
X4.4441Y-2.815
X4.526Y-3.2335
X4.526Y-3.5335
X4.5343Y-1.8504
X4.5343Y-2.1504
X4.5441Y-2.515
X4.5441Y-2.815
X4.626Y-3.2335
X4.626Y-3.5335
X4.6264Y-3.9717
X4.6264Y-4.2717
X4.6343Y-1.8504
X4.6343Y-2.1504
X4.6378Y-1.2205
X4.6378Y-1.5205
X4.6441Y-2.515
X4.6441Y-2.815
X4.726Y-3.2335
X4.726Y-3.5335
X4.7264Y-3.9717
X4.7264Y-4.2717
X4.7343Y-1.8504
X4.7343Y-2.1504
X4.7378Y-1.2205
X4.7378Y-1.5205
X4.7441Y-2.515
X4.7441Y-2.815
X4.8264Y-3.9717
X4.8264Y-4.2717
X4.8378Y-1.2205
X4.8378Y-1.5205
X4.9264Y-3.9717
X4.9264Y-4.2717
X4.9378Y-1.2205
X4.9378Y-1.5205
X5.0264Y-3.9717
X5.0264Y-4.2717
X5.0378Y-1.2205
X5.0378Y-1.5205
X5.1264Y-3.9717
X5.1264Y-4.2717
X5.1378Y-1.2205
X5.1378Y-1.5205
X5.2264Y-3.9717
X5.2264Y-4.2717
X5.2378Y-1.2205
X5.2378Y-1.5205
X5.2461Y-2.861
X5.2461Y-2.961
X5.2461Y-3.061
X5.2461Y-3.161
X5.2461Y-3.261
X5.2461Y-3.361
X5.2461Y-3.461
X5.2461Y-3.561
X5.2461Y-3.661
X5.2461Y-3.761
X5.2512Y-1.7254
X5.2512Y-1.8254
X5.2512Y-1.9254
X5.2512Y-2.0254
X5.2512Y-2.1254
X5.2512Y-2.2254
X5.2512Y-2.3254
X5.2512Y-2.4254
X5.2512Y-2.5254
X5.2512Y-2.6254
X5.3264Y-3.9717
X5.3264Y-4.2717
X5.3378Y-1.2205
X5.3378Y-1.5205
X5.4264Y-3.9717
X5.4264Y-4.2717
X5.4378Y-1.2205
X5.4378Y-1.5205
X5.5264Y-3.9717
X5.5264Y-4.2717
X5.5378Y-1.2205
X5.5378Y-1.5205
X5.5461Y-2.861
X5.5461Y-2.961
X5.5461Y-3.061
X5.5461Y-3.161
X5.5461Y-3.261
X5.5461Y-3.361
X5.5461Y-3.461
X5.5461Y-3.561
X5.5461Y-3.661
X5.5461Y-3.761
X5.5512Y-1.7254
X5.5512Y-1.8254
X5.5512Y-1.9254
X5.5512Y-2.0254
X5.5512Y-2.1254
X5.5512Y-2.2254
X5.5512Y-2.3254
X5.5512Y-2.4254
X5.5512Y-2.5254
X5.5512Y-2.6254
T4
X2.5Y-0.9362
X2.5Y-1.0362
X2.5Y-1.1362
X2.5Y-1.2362
X2.5Y-1.3362
X2.5Y-1.4362
X2.5Y-1.5362
X2.5Y-1.6362
X2.5Y-1.7362
X2.5Y-1.8362
X2.5Y-1.9362
X2.5Y-2.0362
X2.5Y-2.1362
X2.5Y-2.2362
X2.5Y-2.3362
X2.5Y-2.4362
X2.5Y-2.5362
X2.5Y-2.6362
X2.5Y-2.7362
X2.5Y-2.8362
X2.5Y-2.9362
X2.5Y-3.0362
X2.5Y-3.1362
X6.1094Y-1.0469
X6.1094Y-1.1469
X6.1094Y-1.2469
X6.1094Y-1.3469
X6.1094Y-1.4469
X6.1094Y-1.5469
X6.1094Y-1.6469
X6.1094Y-1.7469
X6.1094Y-1.8469
X6.1094Y-1.9469
X6.1094Y-2.0469
X6.1094Y-2.1469
X6.1094Y-2.2469
X6.1094Y-2.3469
X6.1094Y-2.4469
X6.1094Y-2.5469
X6.1319Y-2.961
X6.1319Y-3.061
X6.1319Y-3.161
X6.1319Y-3.261
X6.1319Y-3.361
X6.1319Y-3.461
X6.1319Y-3.561
X6.1319Y-3.661
X6.1319Y-3.761
X6.1319Y-3.861
X6.1319Y-3.961
X6.1319Y-4.061
X6.1319Y-4.161
X6.1319Y-4.261
X6.1319Y-4.361
X6.1319Y-4.461
M30
