%TF.GenerationSoftware,KiCad,Pcbnew,8.0.2-1*%
%TF.CreationDate,2024-08-05T09:17:51-04:00*%
%TF.ProjectId,io_controller,696f5f63-6f6e-4747-926f-6c6c65722e6b,rev?*%
%TF.SameCoordinates,Original*%
%TF.FileFunction,Legend,Top*%
%TF.FilePolarity,Positive*%
%FSLAX46Y46*%
G04 Gerber Fmt 4.6, Leading zero omitted, Abs format (unit mm)*
G04 Created by KiCad (PCBNEW 8.0.2-1) date 2024-08-05 09:17:51*
%MOMM*%
%LPD*%
G01*
G04 APERTURE LIST*
%ADD10C,0.160000*%
%ADD11C,0.170000*%
%ADD12C,0.150000*%
%ADD13C,0.100000*%
%ADD14C,0.120000*%
G04 APERTURE END LIST*
D10*
X150106641Y-74127870D02*
X150259022Y-74127870D01*
X150259022Y-74127870D02*
X150411403Y-74204060D01*
X150411403Y-74204060D02*
X150487593Y-74280251D01*
X150487593Y-74280251D02*
X150563784Y-74432632D01*
X150563784Y-74432632D02*
X150639974Y-74737394D01*
X150639974Y-74737394D02*
X150639974Y-75118346D01*
X150639974Y-75118346D02*
X150563784Y-75423108D01*
X150563784Y-75423108D02*
X150487593Y-75575489D01*
X150487593Y-75575489D02*
X150411403Y-75651680D01*
X150411403Y-75651680D02*
X150259022Y-75727870D01*
X150259022Y-75727870D02*
X150106641Y-75727870D01*
X150106641Y-75727870D02*
X149954260Y-75651680D01*
X149954260Y-75651680D02*
X149878069Y-75575489D01*
X149878069Y-75575489D02*
X149801879Y-75423108D01*
X149801879Y-75423108D02*
X149725688Y-75118346D01*
X149725688Y-75118346D02*
X149725688Y-74737394D01*
X149725688Y-74737394D02*
X149801879Y-74432632D01*
X149801879Y-74432632D02*
X149878069Y-74280251D01*
X149878069Y-74280251D02*
X149954260Y-74204060D01*
X149954260Y-74204060D02*
X150106641Y-74127870D01*
X150639974Y-78303780D02*
X149725688Y-78303780D01*
X150182831Y-78303780D02*
X150182831Y-76703780D01*
X150182831Y-76703780D02*
X150030450Y-76932351D01*
X150030450Y-76932351D02*
X149878069Y-77084732D01*
X149878069Y-77084732D02*
X149725688Y-77160923D01*
X149725688Y-79432071D02*
X149801879Y-79355880D01*
X149801879Y-79355880D02*
X149954260Y-79279690D01*
X149954260Y-79279690D02*
X150335212Y-79279690D01*
X150335212Y-79279690D02*
X150487593Y-79355880D01*
X150487593Y-79355880D02*
X150563784Y-79432071D01*
X150563784Y-79432071D02*
X150639974Y-79584452D01*
X150639974Y-79584452D02*
X150639974Y-79736833D01*
X150639974Y-79736833D02*
X150563784Y-79965404D01*
X150563784Y-79965404D02*
X149649498Y-80879690D01*
X149649498Y-80879690D02*
X150639974Y-80879690D01*
X149649498Y-81855600D02*
X150639974Y-81855600D01*
X150639974Y-81855600D02*
X150106641Y-82465124D01*
X150106641Y-82465124D02*
X150335212Y-82465124D01*
X150335212Y-82465124D02*
X150487593Y-82541314D01*
X150487593Y-82541314D02*
X150563784Y-82617505D01*
X150563784Y-82617505D02*
X150639974Y-82769886D01*
X150639974Y-82769886D02*
X150639974Y-83150838D01*
X150639974Y-83150838D02*
X150563784Y-83303219D01*
X150563784Y-83303219D02*
X150487593Y-83379410D01*
X150487593Y-83379410D02*
X150335212Y-83455600D01*
X150335212Y-83455600D02*
X149878069Y-83455600D01*
X149878069Y-83455600D02*
X149725688Y-83379410D01*
X149725688Y-83379410D02*
X149649498Y-83303219D01*
X150487593Y-84964843D02*
X150487593Y-86031510D01*
X150106641Y-84355320D02*
X149725688Y-85498177D01*
X149725688Y-85498177D02*
X150716165Y-85498177D01*
X150563784Y-87007420D02*
X149801879Y-87007420D01*
X149801879Y-87007420D02*
X149725688Y-87769325D01*
X149725688Y-87769325D02*
X149801879Y-87693134D01*
X149801879Y-87693134D02*
X149954260Y-87616944D01*
X149954260Y-87616944D02*
X150335212Y-87616944D01*
X150335212Y-87616944D02*
X150487593Y-87693134D01*
X150487593Y-87693134D02*
X150563784Y-87769325D01*
X150563784Y-87769325D02*
X150639974Y-87921706D01*
X150639974Y-87921706D02*
X150639974Y-88302658D01*
X150639974Y-88302658D02*
X150563784Y-88455039D01*
X150563784Y-88455039D02*
X150487593Y-88531230D01*
X150487593Y-88531230D02*
X150335212Y-88607420D01*
X150335212Y-88607420D02*
X149954260Y-88607420D01*
X149954260Y-88607420D02*
X149801879Y-88531230D01*
X149801879Y-88531230D02*
X149725688Y-88455039D01*
X150487593Y-89583330D02*
X150182831Y-89583330D01*
X150182831Y-89583330D02*
X150030450Y-89659520D01*
X150030450Y-89659520D02*
X149954260Y-89735711D01*
X149954260Y-89735711D02*
X149801879Y-89964282D01*
X149801879Y-89964282D02*
X149725688Y-90269044D01*
X149725688Y-90269044D02*
X149725688Y-90878568D01*
X149725688Y-90878568D02*
X149801879Y-91030949D01*
X149801879Y-91030949D02*
X149878069Y-91107140D01*
X149878069Y-91107140D02*
X150030450Y-91183330D01*
X150030450Y-91183330D02*
X150335212Y-91183330D01*
X150335212Y-91183330D02*
X150487593Y-91107140D01*
X150487593Y-91107140D02*
X150563784Y-91030949D01*
X150563784Y-91030949D02*
X150639974Y-90878568D01*
X150639974Y-90878568D02*
X150639974Y-90497616D01*
X150639974Y-90497616D02*
X150563784Y-90345235D01*
X150563784Y-90345235D02*
X150487593Y-90269044D01*
X150487593Y-90269044D02*
X150335212Y-90192854D01*
X150335212Y-90192854D02*
X150030450Y-90192854D01*
X150030450Y-90192854D02*
X149878069Y-90269044D01*
X149878069Y-90269044D02*
X149801879Y-90345235D01*
X149801879Y-90345235D02*
X149725688Y-90497616D01*
X149649498Y-92159240D02*
X150716165Y-92159240D01*
X150716165Y-92159240D02*
X150030450Y-93759240D01*
X150030450Y-95420864D02*
X149878069Y-95344674D01*
X149878069Y-95344674D02*
X149801879Y-95268483D01*
X149801879Y-95268483D02*
X149725688Y-95116102D01*
X149725688Y-95116102D02*
X149725688Y-95039912D01*
X149725688Y-95039912D02*
X149801879Y-94887531D01*
X149801879Y-94887531D02*
X149878069Y-94811340D01*
X149878069Y-94811340D02*
X150030450Y-94735150D01*
X150030450Y-94735150D02*
X150335212Y-94735150D01*
X150335212Y-94735150D02*
X150487593Y-94811340D01*
X150487593Y-94811340D02*
X150563784Y-94887531D01*
X150563784Y-94887531D02*
X150639974Y-95039912D01*
X150639974Y-95039912D02*
X150639974Y-95116102D01*
X150639974Y-95116102D02*
X150563784Y-95268483D01*
X150563784Y-95268483D02*
X150487593Y-95344674D01*
X150487593Y-95344674D02*
X150335212Y-95420864D01*
X150335212Y-95420864D02*
X150030450Y-95420864D01*
X150030450Y-95420864D02*
X149878069Y-95497055D01*
X149878069Y-95497055D02*
X149801879Y-95573245D01*
X149801879Y-95573245D02*
X149725688Y-95725626D01*
X149725688Y-95725626D02*
X149725688Y-96030388D01*
X149725688Y-96030388D02*
X149801879Y-96182769D01*
X149801879Y-96182769D02*
X149878069Y-96258960D01*
X149878069Y-96258960D02*
X150030450Y-96335150D01*
X150030450Y-96335150D02*
X150335212Y-96335150D01*
X150335212Y-96335150D02*
X150487593Y-96258960D01*
X150487593Y-96258960D02*
X150563784Y-96182769D01*
X150563784Y-96182769D02*
X150639974Y-96030388D01*
X150639974Y-96030388D02*
X150639974Y-95725626D01*
X150639974Y-95725626D02*
X150563784Y-95573245D01*
X150563784Y-95573245D02*
X150487593Y-95497055D01*
X150487593Y-95497055D02*
X150335212Y-95420864D01*
X149878069Y-98911060D02*
X150182831Y-98911060D01*
X150182831Y-98911060D02*
X150335212Y-98834870D01*
X150335212Y-98834870D02*
X150411403Y-98758679D01*
X150411403Y-98758679D02*
X150563784Y-98530108D01*
X150563784Y-98530108D02*
X150639974Y-98225346D01*
X150639974Y-98225346D02*
X150639974Y-97615822D01*
X150639974Y-97615822D02*
X150563784Y-97463441D01*
X150563784Y-97463441D02*
X150487593Y-97387250D01*
X150487593Y-97387250D02*
X150335212Y-97311060D01*
X150335212Y-97311060D02*
X150030450Y-97311060D01*
X150030450Y-97311060D02*
X149878069Y-97387250D01*
X149878069Y-97387250D02*
X149801879Y-97463441D01*
X149801879Y-97463441D02*
X149725688Y-97615822D01*
X149725688Y-97615822D02*
X149725688Y-97996774D01*
X149725688Y-97996774D02*
X149801879Y-98149155D01*
X149801879Y-98149155D02*
X149878069Y-98225346D01*
X149878069Y-98225346D02*
X150030450Y-98301536D01*
X150030450Y-98301536D02*
X150335212Y-98301536D01*
X150335212Y-98301536D02*
X150487593Y-98225346D01*
X150487593Y-98225346D02*
X150563784Y-98149155D01*
X150563784Y-98149155D02*
X150639974Y-97996774D01*
X149116164Y-101486970D02*
X148201878Y-101486970D01*
X148659021Y-101486970D02*
X148659021Y-99886970D01*
X148659021Y-99886970D02*
X148506640Y-100115541D01*
X148506640Y-100115541D02*
X148354259Y-100267922D01*
X148354259Y-100267922D02*
X148201878Y-100344113D01*
X150106641Y-99886970D02*
X150259022Y-99886970D01*
X150259022Y-99886970D02*
X150411403Y-99963160D01*
X150411403Y-99963160D02*
X150487593Y-100039351D01*
X150487593Y-100039351D02*
X150563784Y-100191732D01*
X150563784Y-100191732D02*
X150639974Y-100496494D01*
X150639974Y-100496494D02*
X150639974Y-100877446D01*
X150639974Y-100877446D02*
X150563784Y-101182208D01*
X150563784Y-101182208D02*
X150487593Y-101334589D01*
X150487593Y-101334589D02*
X150411403Y-101410780D01*
X150411403Y-101410780D02*
X150259022Y-101486970D01*
X150259022Y-101486970D02*
X150106641Y-101486970D01*
X150106641Y-101486970D02*
X149954260Y-101410780D01*
X149954260Y-101410780D02*
X149878069Y-101334589D01*
X149878069Y-101334589D02*
X149801879Y-101182208D01*
X149801879Y-101182208D02*
X149725688Y-100877446D01*
X149725688Y-100877446D02*
X149725688Y-100496494D01*
X149725688Y-100496494D02*
X149801879Y-100191732D01*
X149801879Y-100191732D02*
X149878069Y-100039351D01*
X149878069Y-100039351D02*
X149954260Y-99963160D01*
X149954260Y-99963160D02*
X150106641Y-99886970D01*
X149116164Y-104062880D02*
X148201878Y-104062880D01*
X148659021Y-104062880D02*
X148659021Y-102462880D01*
X148659021Y-102462880D02*
X148506640Y-102691451D01*
X148506640Y-102691451D02*
X148354259Y-102843832D01*
X148354259Y-102843832D02*
X148201878Y-102920023D01*
X150639974Y-104062880D02*
X149725688Y-104062880D01*
X150182831Y-104062880D02*
X150182831Y-102462880D01*
X150182831Y-102462880D02*
X150030450Y-102691451D01*
X150030450Y-102691451D02*
X149878069Y-102843832D01*
X149878069Y-102843832D02*
X149725688Y-102920023D01*
X149116164Y-106638790D02*
X148201878Y-106638790D01*
X148659021Y-106638790D02*
X148659021Y-105038790D01*
X148659021Y-105038790D02*
X148506640Y-105267361D01*
X148506640Y-105267361D02*
X148354259Y-105419742D01*
X148354259Y-105419742D02*
X148201878Y-105495933D01*
X149725688Y-105191171D02*
X149801879Y-105114980D01*
X149801879Y-105114980D02*
X149954260Y-105038790D01*
X149954260Y-105038790D02*
X150335212Y-105038790D01*
X150335212Y-105038790D02*
X150487593Y-105114980D01*
X150487593Y-105114980D02*
X150563784Y-105191171D01*
X150563784Y-105191171D02*
X150639974Y-105343552D01*
X150639974Y-105343552D02*
X150639974Y-105495933D01*
X150639974Y-105495933D02*
X150563784Y-105724504D01*
X150563784Y-105724504D02*
X149649498Y-106638790D01*
X149649498Y-106638790D02*
X150639974Y-106638790D01*
X149116164Y-109214700D02*
X148201878Y-109214700D01*
X148659021Y-109214700D02*
X148659021Y-107614700D01*
X148659021Y-107614700D02*
X148506640Y-107843271D01*
X148506640Y-107843271D02*
X148354259Y-107995652D01*
X148354259Y-107995652D02*
X148201878Y-108071843D01*
X149649498Y-107614700D02*
X150639974Y-107614700D01*
X150639974Y-107614700D02*
X150106641Y-108224224D01*
X150106641Y-108224224D02*
X150335212Y-108224224D01*
X150335212Y-108224224D02*
X150487593Y-108300414D01*
X150487593Y-108300414D02*
X150563784Y-108376605D01*
X150563784Y-108376605D02*
X150639974Y-108528986D01*
X150639974Y-108528986D02*
X150639974Y-108909938D01*
X150639974Y-108909938D02*
X150563784Y-109062319D01*
X150563784Y-109062319D02*
X150487593Y-109138510D01*
X150487593Y-109138510D02*
X150335212Y-109214700D01*
X150335212Y-109214700D02*
X149878069Y-109214700D01*
X149878069Y-109214700D02*
X149725688Y-109138510D01*
X149725688Y-109138510D02*
X149649498Y-109062319D01*
X149116164Y-111790610D02*
X148201878Y-111790610D01*
X148659021Y-111790610D02*
X148659021Y-110190610D01*
X148659021Y-110190610D02*
X148506640Y-110419181D01*
X148506640Y-110419181D02*
X148354259Y-110571562D01*
X148354259Y-110571562D02*
X148201878Y-110647753D01*
X150487593Y-110723943D02*
X150487593Y-111790610D01*
X150106641Y-110114420D02*
X149725688Y-111257277D01*
X149725688Y-111257277D02*
X150716165Y-111257277D01*
X149116164Y-114366520D02*
X148201878Y-114366520D01*
X148659021Y-114366520D02*
X148659021Y-112766520D01*
X148659021Y-112766520D02*
X148506640Y-112995091D01*
X148506640Y-112995091D02*
X148354259Y-113147472D01*
X148354259Y-113147472D02*
X148201878Y-113223663D01*
X150563784Y-112766520D02*
X149801879Y-112766520D01*
X149801879Y-112766520D02*
X149725688Y-113528425D01*
X149725688Y-113528425D02*
X149801879Y-113452234D01*
X149801879Y-113452234D02*
X149954260Y-113376044D01*
X149954260Y-113376044D02*
X150335212Y-113376044D01*
X150335212Y-113376044D02*
X150487593Y-113452234D01*
X150487593Y-113452234D02*
X150563784Y-113528425D01*
X150563784Y-113528425D02*
X150639974Y-113680806D01*
X150639974Y-113680806D02*
X150639974Y-114061758D01*
X150639974Y-114061758D02*
X150563784Y-114214139D01*
X150563784Y-114214139D02*
X150487593Y-114290330D01*
X150487593Y-114290330D02*
X150335212Y-114366520D01*
X150335212Y-114366520D02*
X149954260Y-114366520D01*
X149954260Y-114366520D02*
X149801879Y-114290330D01*
X149801879Y-114290330D02*
X149725688Y-114214139D01*
D11*
X144966886Y-40376603D02*
X146666886Y-40376603D01*
X144966886Y-41186127D02*
X146666886Y-41186127D01*
X146666886Y-41186127D02*
X144966886Y-42157556D01*
X144966886Y-42157556D02*
X146666886Y-42157556D01*
X144966886Y-42967079D02*
X146666886Y-42967079D01*
X146666886Y-42967079D02*
X146666886Y-43614698D01*
X146666886Y-43614698D02*
X146585934Y-43776603D01*
X146585934Y-43776603D02*
X146504981Y-43857556D01*
X146504981Y-43857556D02*
X146343077Y-43938508D01*
X146343077Y-43938508D02*
X146100219Y-43938508D01*
X146100219Y-43938508D02*
X145938315Y-43857556D01*
X145938315Y-43857556D02*
X145857362Y-43776603D01*
X145857362Y-43776603D02*
X145776410Y-43614698D01*
X145776410Y-43614698D02*
X145776410Y-42967079D01*
X146666886Y-44667079D02*
X145290696Y-44667079D01*
X145290696Y-44667079D02*
X145128791Y-44748032D01*
X145128791Y-44748032D02*
X145047839Y-44828984D01*
X145047839Y-44828984D02*
X144966886Y-44990889D01*
X144966886Y-44990889D02*
X144966886Y-45314698D01*
X144966886Y-45314698D02*
X145047839Y-45476603D01*
X145047839Y-45476603D02*
X145128791Y-45557556D01*
X145128791Y-45557556D02*
X145290696Y-45638508D01*
X145290696Y-45638508D02*
X146666886Y-45638508D01*
X146666886Y-46205174D02*
X146666886Y-47176603D01*
X144966886Y-46690889D02*
X146666886Y-46690889D01*
X145047839Y-47662317D02*
X144966886Y-47905174D01*
X144966886Y-47905174D02*
X144966886Y-48309936D01*
X144966886Y-48309936D02*
X145047839Y-48471841D01*
X145047839Y-48471841D02*
X145128791Y-48552793D01*
X145128791Y-48552793D02*
X145290696Y-48633746D01*
X145290696Y-48633746D02*
X145452600Y-48633746D01*
X145452600Y-48633746D02*
X145614505Y-48552793D01*
X145614505Y-48552793D02*
X145695458Y-48471841D01*
X145695458Y-48471841D02*
X145776410Y-48309936D01*
X145776410Y-48309936D02*
X145857362Y-47986127D01*
X145857362Y-47986127D02*
X145938315Y-47824222D01*
X145938315Y-47824222D02*
X146019267Y-47743269D01*
X146019267Y-47743269D02*
X146181172Y-47662317D01*
X146181172Y-47662317D02*
X146343077Y-47662317D01*
X146343077Y-47662317D02*
X146504981Y-47743269D01*
X146504981Y-47743269D02*
X146585934Y-47824222D01*
X146585934Y-47824222D02*
X146666886Y-47986127D01*
X146666886Y-47986127D02*
X146666886Y-48390888D01*
X146666886Y-48390888D02*
X146585934Y-48633746D01*
D10*
X150356641Y-25377870D02*
X150509022Y-25377870D01*
X150509022Y-25377870D02*
X150661403Y-25454060D01*
X150661403Y-25454060D02*
X150737593Y-25530251D01*
X150737593Y-25530251D02*
X150813784Y-25682632D01*
X150813784Y-25682632D02*
X150889974Y-25987394D01*
X150889974Y-25987394D02*
X150889974Y-26368346D01*
X150889974Y-26368346D02*
X150813784Y-26673108D01*
X150813784Y-26673108D02*
X150737593Y-26825489D01*
X150737593Y-26825489D02*
X150661403Y-26901680D01*
X150661403Y-26901680D02*
X150509022Y-26977870D01*
X150509022Y-26977870D02*
X150356641Y-26977870D01*
X150356641Y-26977870D02*
X150204260Y-26901680D01*
X150204260Y-26901680D02*
X150128069Y-26825489D01*
X150128069Y-26825489D02*
X150051879Y-26673108D01*
X150051879Y-26673108D02*
X149975688Y-26368346D01*
X149975688Y-26368346D02*
X149975688Y-25987394D01*
X149975688Y-25987394D02*
X150051879Y-25682632D01*
X150051879Y-25682632D02*
X150128069Y-25530251D01*
X150128069Y-25530251D02*
X150204260Y-25454060D01*
X150204260Y-25454060D02*
X150356641Y-25377870D01*
X150889974Y-29553780D02*
X149975688Y-29553780D01*
X150432831Y-29553780D02*
X150432831Y-27953780D01*
X150432831Y-27953780D02*
X150280450Y-28182351D01*
X150280450Y-28182351D02*
X150128069Y-28334732D01*
X150128069Y-28334732D02*
X149975688Y-28410923D01*
X149975688Y-30682071D02*
X150051879Y-30605880D01*
X150051879Y-30605880D02*
X150204260Y-30529690D01*
X150204260Y-30529690D02*
X150585212Y-30529690D01*
X150585212Y-30529690D02*
X150737593Y-30605880D01*
X150737593Y-30605880D02*
X150813784Y-30682071D01*
X150813784Y-30682071D02*
X150889974Y-30834452D01*
X150889974Y-30834452D02*
X150889974Y-30986833D01*
X150889974Y-30986833D02*
X150813784Y-31215404D01*
X150813784Y-31215404D02*
X149899498Y-32129690D01*
X149899498Y-32129690D02*
X150889974Y-32129690D01*
X149899498Y-33105600D02*
X150889974Y-33105600D01*
X150889974Y-33105600D02*
X150356641Y-33715124D01*
X150356641Y-33715124D02*
X150585212Y-33715124D01*
X150585212Y-33715124D02*
X150737593Y-33791314D01*
X150737593Y-33791314D02*
X150813784Y-33867505D01*
X150813784Y-33867505D02*
X150889974Y-34019886D01*
X150889974Y-34019886D02*
X150889974Y-34400838D01*
X150889974Y-34400838D02*
X150813784Y-34553219D01*
X150813784Y-34553219D02*
X150737593Y-34629410D01*
X150737593Y-34629410D02*
X150585212Y-34705600D01*
X150585212Y-34705600D02*
X150128069Y-34705600D01*
X150128069Y-34705600D02*
X149975688Y-34629410D01*
X149975688Y-34629410D02*
X149899498Y-34553219D01*
X150737593Y-36214843D02*
X150737593Y-37281510D01*
X150356641Y-35605320D02*
X149975688Y-36748177D01*
X149975688Y-36748177D02*
X150966165Y-36748177D01*
X150813784Y-38257420D02*
X150051879Y-38257420D01*
X150051879Y-38257420D02*
X149975688Y-39019325D01*
X149975688Y-39019325D02*
X150051879Y-38943134D01*
X150051879Y-38943134D02*
X150204260Y-38866944D01*
X150204260Y-38866944D02*
X150585212Y-38866944D01*
X150585212Y-38866944D02*
X150737593Y-38943134D01*
X150737593Y-38943134D02*
X150813784Y-39019325D01*
X150813784Y-39019325D02*
X150889974Y-39171706D01*
X150889974Y-39171706D02*
X150889974Y-39552658D01*
X150889974Y-39552658D02*
X150813784Y-39705039D01*
X150813784Y-39705039D02*
X150737593Y-39781230D01*
X150737593Y-39781230D02*
X150585212Y-39857420D01*
X150585212Y-39857420D02*
X150204260Y-39857420D01*
X150204260Y-39857420D02*
X150051879Y-39781230D01*
X150051879Y-39781230D02*
X149975688Y-39705039D01*
X150737593Y-40833330D02*
X150432831Y-40833330D01*
X150432831Y-40833330D02*
X150280450Y-40909520D01*
X150280450Y-40909520D02*
X150204260Y-40985711D01*
X150204260Y-40985711D02*
X150051879Y-41214282D01*
X150051879Y-41214282D02*
X149975688Y-41519044D01*
X149975688Y-41519044D02*
X149975688Y-42128568D01*
X149975688Y-42128568D02*
X150051879Y-42280949D01*
X150051879Y-42280949D02*
X150128069Y-42357140D01*
X150128069Y-42357140D02*
X150280450Y-42433330D01*
X150280450Y-42433330D02*
X150585212Y-42433330D01*
X150585212Y-42433330D02*
X150737593Y-42357140D01*
X150737593Y-42357140D02*
X150813784Y-42280949D01*
X150813784Y-42280949D02*
X150889974Y-42128568D01*
X150889974Y-42128568D02*
X150889974Y-41747616D01*
X150889974Y-41747616D02*
X150813784Y-41595235D01*
X150813784Y-41595235D02*
X150737593Y-41519044D01*
X150737593Y-41519044D02*
X150585212Y-41442854D01*
X150585212Y-41442854D02*
X150280450Y-41442854D01*
X150280450Y-41442854D02*
X150128069Y-41519044D01*
X150128069Y-41519044D02*
X150051879Y-41595235D01*
X150051879Y-41595235D02*
X149975688Y-41747616D01*
X149899498Y-43409240D02*
X150966165Y-43409240D01*
X150966165Y-43409240D02*
X150280450Y-45009240D01*
X150280450Y-46670864D02*
X150128069Y-46594674D01*
X150128069Y-46594674D02*
X150051879Y-46518483D01*
X150051879Y-46518483D02*
X149975688Y-46366102D01*
X149975688Y-46366102D02*
X149975688Y-46289912D01*
X149975688Y-46289912D02*
X150051879Y-46137531D01*
X150051879Y-46137531D02*
X150128069Y-46061340D01*
X150128069Y-46061340D02*
X150280450Y-45985150D01*
X150280450Y-45985150D02*
X150585212Y-45985150D01*
X150585212Y-45985150D02*
X150737593Y-46061340D01*
X150737593Y-46061340D02*
X150813784Y-46137531D01*
X150813784Y-46137531D02*
X150889974Y-46289912D01*
X150889974Y-46289912D02*
X150889974Y-46366102D01*
X150889974Y-46366102D02*
X150813784Y-46518483D01*
X150813784Y-46518483D02*
X150737593Y-46594674D01*
X150737593Y-46594674D02*
X150585212Y-46670864D01*
X150585212Y-46670864D02*
X150280450Y-46670864D01*
X150280450Y-46670864D02*
X150128069Y-46747055D01*
X150128069Y-46747055D02*
X150051879Y-46823245D01*
X150051879Y-46823245D02*
X149975688Y-46975626D01*
X149975688Y-46975626D02*
X149975688Y-47280388D01*
X149975688Y-47280388D02*
X150051879Y-47432769D01*
X150051879Y-47432769D02*
X150128069Y-47508960D01*
X150128069Y-47508960D02*
X150280450Y-47585150D01*
X150280450Y-47585150D02*
X150585212Y-47585150D01*
X150585212Y-47585150D02*
X150737593Y-47508960D01*
X150737593Y-47508960D02*
X150813784Y-47432769D01*
X150813784Y-47432769D02*
X150889974Y-47280388D01*
X150889974Y-47280388D02*
X150889974Y-46975626D01*
X150889974Y-46975626D02*
X150813784Y-46823245D01*
X150813784Y-46823245D02*
X150737593Y-46747055D01*
X150737593Y-46747055D02*
X150585212Y-46670864D01*
X150128069Y-50161060D02*
X150432831Y-50161060D01*
X150432831Y-50161060D02*
X150585212Y-50084870D01*
X150585212Y-50084870D02*
X150661403Y-50008679D01*
X150661403Y-50008679D02*
X150813784Y-49780108D01*
X150813784Y-49780108D02*
X150889974Y-49475346D01*
X150889974Y-49475346D02*
X150889974Y-48865822D01*
X150889974Y-48865822D02*
X150813784Y-48713441D01*
X150813784Y-48713441D02*
X150737593Y-48637250D01*
X150737593Y-48637250D02*
X150585212Y-48561060D01*
X150585212Y-48561060D02*
X150280450Y-48561060D01*
X150280450Y-48561060D02*
X150128069Y-48637250D01*
X150128069Y-48637250D02*
X150051879Y-48713441D01*
X150051879Y-48713441D02*
X149975688Y-48865822D01*
X149975688Y-48865822D02*
X149975688Y-49246774D01*
X149975688Y-49246774D02*
X150051879Y-49399155D01*
X150051879Y-49399155D02*
X150128069Y-49475346D01*
X150128069Y-49475346D02*
X150280450Y-49551536D01*
X150280450Y-49551536D02*
X150585212Y-49551536D01*
X150585212Y-49551536D02*
X150737593Y-49475346D01*
X150737593Y-49475346D02*
X150813784Y-49399155D01*
X150813784Y-49399155D02*
X150889974Y-49246774D01*
X149366164Y-52736970D02*
X148451878Y-52736970D01*
X148909021Y-52736970D02*
X148909021Y-51136970D01*
X148909021Y-51136970D02*
X148756640Y-51365541D01*
X148756640Y-51365541D02*
X148604259Y-51517922D01*
X148604259Y-51517922D02*
X148451878Y-51594113D01*
X150356641Y-51136970D02*
X150509022Y-51136970D01*
X150509022Y-51136970D02*
X150661403Y-51213160D01*
X150661403Y-51213160D02*
X150737593Y-51289351D01*
X150737593Y-51289351D02*
X150813784Y-51441732D01*
X150813784Y-51441732D02*
X150889974Y-51746494D01*
X150889974Y-51746494D02*
X150889974Y-52127446D01*
X150889974Y-52127446D02*
X150813784Y-52432208D01*
X150813784Y-52432208D02*
X150737593Y-52584589D01*
X150737593Y-52584589D02*
X150661403Y-52660780D01*
X150661403Y-52660780D02*
X150509022Y-52736970D01*
X150509022Y-52736970D02*
X150356641Y-52736970D01*
X150356641Y-52736970D02*
X150204260Y-52660780D01*
X150204260Y-52660780D02*
X150128069Y-52584589D01*
X150128069Y-52584589D02*
X150051879Y-52432208D01*
X150051879Y-52432208D02*
X149975688Y-52127446D01*
X149975688Y-52127446D02*
X149975688Y-51746494D01*
X149975688Y-51746494D02*
X150051879Y-51441732D01*
X150051879Y-51441732D02*
X150128069Y-51289351D01*
X150128069Y-51289351D02*
X150204260Y-51213160D01*
X150204260Y-51213160D02*
X150356641Y-51136970D01*
X149366164Y-55312880D02*
X148451878Y-55312880D01*
X148909021Y-55312880D02*
X148909021Y-53712880D01*
X148909021Y-53712880D02*
X148756640Y-53941451D01*
X148756640Y-53941451D02*
X148604259Y-54093832D01*
X148604259Y-54093832D02*
X148451878Y-54170023D01*
X150889974Y-55312880D02*
X149975688Y-55312880D01*
X150432831Y-55312880D02*
X150432831Y-53712880D01*
X150432831Y-53712880D02*
X150280450Y-53941451D01*
X150280450Y-53941451D02*
X150128069Y-54093832D01*
X150128069Y-54093832D02*
X149975688Y-54170023D01*
X149366164Y-57888790D02*
X148451878Y-57888790D01*
X148909021Y-57888790D02*
X148909021Y-56288790D01*
X148909021Y-56288790D02*
X148756640Y-56517361D01*
X148756640Y-56517361D02*
X148604259Y-56669742D01*
X148604259Y-56669742D02*
X148451878Y-56745933D01*
X149975688Y-56441171D02*
X150051879Y-56364980D01*
X150051879Y-56364980D02*
X150204260Y-56288790D01*
X150204260Y-56288790D02*
X150585212Y-56288790D01*
X150585212Y-56288790D02*
X150737593Y-56364980D01*
X150737593Y-56364980D02*
X150813784Y-56441171D01*
X150813784Y-56441171D02*
X150889974Y-56593552D01*
X150889974Y-56593552D02*
X150889974Y-56745933D01*
X150889974Y-56745933D02*
X150813784Y-56974504D01*
X150813784Y-56974504D02*
X149899498Y-57888790D01*
X149899498Y-57888790D02*
X150889974Y-57888790D01*
X149366164Y-60464700D02*
X148451878Y-60464700D01*
X148909021Y-60464700D02*
X148909021Y-58864700D01*
X148909021Y-58864700D02*
X148756640Y-59093271D01*
X148756640Y-59093271D02*
X148604259Y-59245652D01*
X148604259Y-59245652D02*
X148451878Y-59321843D01*
X149899498Y-58864700D02*
X150889974Y-58864700D01*
X150889974Y-58864700D02*
X150356641Y-59474224D01*
X150356641Y-59474224D02*
X150585212Y-59474224D01*
X150585212Y-59474224D02*
X150737593Y-59550414D01*
X150737593Y-59550414D02*
X150813784Y-59626605D01*
X150813784Y-59626605D02*
X150889974Y-59778986D01*
X150889974Y-59778986D02*
X150889974Y-60159938D01*
X150889974Y-60159938D02*
X150813784Y-60312319D01*
X150813784Y-60312319D02*
X150737593Y-60388510D01*
X150737593Y-60388510D02*
X150585212Y-60464700D01*
X150585212Y-60464700D02*
X150128069Y-60464700D01*
X150128069Y-60464700D02*
X149975688Y-60388510D01*
X149975688Y-60388510D02*
X149899498Y-60312319D01*
X149366164Y-63040610D02*
X148451878Y-63040610D01*
X148909021Y-63040610D02*
X148909021Y-61440610D01*
X148909021Y-61440610D02*
X148756640Y-61669181D01*
X148756640Y-61669181D02*
X148604259Y-61821562D01*
X148604259Y-61821562D02*
X148451878Y-61897753D01*
X150737593Y-61973943D02*
X150737593Y-63040610D01*
X150356641Y-61364420D02*
X149975688Y-62507277D01*
X149975688Y-62507277D02*
X150966165Y-62507277D01*
X149366164Y-65616520D02*
X148451878Y-65616520D01*
X148909021Y-65616520D02*
X148909021Y-64016520D01*
X148909021Y-64016520D02*
X148756640Y-64245091D01*
X148756640Y-64245091D02*
X148604259Y-64397472D01*
X148604259Y-64397472D02*
X148451878Y-64473663D01*
X150813784Y-64016520D02*
X150051879Y-64016520D01*
X150051879Y-64016520D02*
X149975688Y-64778425D01*
X149975688Y-64778425D02*
X150051879Y-64702234D01*
X150051879Y-64702234D02*
X150204260Y-64626044D01*
X150204260Y-64626044D02*
X150585212Y-64626044D01*
X150585212Y-64626044D02*
X150737593Y-64702234D01*
X150737593Y-64702234D02*
X150813784Y-64778425D01*
X150813784Y-64778425D02*
X150889974Y-64930806D01*
X150889974Y-64930806D02*
X150889974Y-65311758D01*
X150889974Y-65311758D02*
X150813784Y-65464139D01*
X150813784Y-65464139D02*
X150737593Y-65540330D01*
X150737593Y-65540330D02*
X150585212Y-65616520D01*
X150585212Y-65616520D02*
X150204260Y-65616520D01*
X150204260Y-65616520D02*
X150051879Y-65540330D01*
X150051879Y-65540330D02*
X149975688Y-65464139D01*
D11*
X146916886Y-89450413D02*
X146916886Y-89774222D01*
X146916886Y-89774222D02*
X146835934Y-89936127D01*
X146835934Y-89936127D02*
X146674029Y-90098032D01*
X146674029Y-90098032D02*
X146350219Y-90178984D01*
X146350219Y-90178984D02*
X145783553Y-90178984D01*
X145783553Y-90178984D02*
X145459743Y-90098032D01*
X145459743Y-90098032D02*
X145297839Y-89936127D01*
X145297839Y-89936127D02*
X145216886Y-89774222D01*
X145216886Y-89774222D02*
X145216886Y-89450413D01*
X145216886Y-89450413D02*
X145297839Y-89288508D01*
X145297839Y-89288508D02*
X145459743Y-89126603D01*
X145459743Y-89126603D02*
X145783553Y-89045651D01*
X145783553Y-89045651D02*
X146350219Y-89045651D01*
X146350219Y-89045651D02*
X146674029Y-89126603D01*
X146674029Y-89126603D02*
X146835934Y-89288508D01*
X146835934Y-89288508D02*
X146916886Y-89450413D01*
X146916886Y-90907555D02*
X145540696Y-90907555D01*
X145540696Y-90907555D02*
X145378791Y-90988508D01*
X145378791Y-90988508D02*
X145297839Y-91069460D01*
X145297839Y-91069460D02*
X145216886Y-91231365D01*
X145216886Y-91231365D02*
X145216886Y-91555174D01*
X145216886Y-91555174D02*
X145297839Y-91717079D01*
X145297839Y-91717079D02*
X145378791Y-91798032D01*
X145378791Y-91798032D02*
X145540696Y-91878984D01*
X145540696Y-91878984D02*
X146916886Y-91878984D01*
X146916886Y-92445650D02*
X146916886Y-93417079D01*
X145216886Y-92931365D02*
X146916886Y-92931365D01*
X145216886Y-93983745D02*
X146916886Y-93983745D01*
X146916886Y-93983745D02*
X146916886Y-94631364D01*
X146916886Y-94631364D02*
X146835934Y-94793269D01*
X146835934Y-94793269D02*
X146754981Y-94874222D01*
X146754981Y-94874222D02*
X146593077Y-94955174D01*
X146593077Y-94955174D02*
X146350219Y-94955174D01*
X146350219Y-94955174D02*
X146188315Y-94874222D01*
X146188315Y-94874222D02*
X146107362Y-94793269D01*
X146107362Y-94793269D02*
X146026410Y-94631364D01*
X146026410Y-94631364D02*
X146026410Y-93983745D01*
X146916886Y-95683745D02*
X145540696Y-95683745D01*
X145540696Y-95683745D02*
X145378791Y-95764698D01*
X145378791Y-95764698D02*
X145297839Y-95845650D01*
X145297839Y-95845650D02*
X145216886Y-96007555D01*
X145216886Y-96007555D02*
X145216886Y-96331364D01*
X145216886Y-96331364D02*
X145297839Y-96493269D01*
X145297839Y-96493269D02*
X145378791Y-96574222D01*
X145378791Y-96574222D02*
X145540696Y-96655174D01*
X145540696Y-96655174D02*
X146916886Y-96655174D01*
X146916886Y-97221840D02*
X146916886Y-98193269D01*
X145216886Y-97707555D02*
X146916886Y-97707555D01*
X145297839Y-98678983D02*
X145216886Y-98921840D01*
X145216886Y-98921840D02*
X145216886Y-99326602D01*
X145216886Y-99326602D02*
X145297839Y-99488507D01*
X145297839Y-99488507D02*
X145378791Y-99569459D01*
X145378791Y-99569459D02*
X145540696Y-99650412D01*
X145540696Y-99650412D02*
X145702600Y-99650412D01*
X145702600Y-99650412D02*
X145864505Y-99569459D01*
X145864505Y-99569459D02*
X145945458Y-99488507D01*
X145945458Y-99488507D02*
X146026410Y-99326602D01*
X146026410Y-99326602D02*
X146107362Y-99002793D01*
X146107362Y-99002793D02*
X146188315Y-98840888D01*
X146188315Y-98840888D02*
X146269267Y-98759935D01*
X146269267Y-98759935D02*
X146431172Y-98678983D01*
X146431172Y-98678983D02*
X146593077Y-98678983D01*
X146593077Y-98678983D02*
X146754981Y-98759935D01*
X146754981Y-98759935D02*
X146835934Y-98840888D01*
X146835934Y-98840888D02*
X146916886Y-99002793D01*
X146916886Y-99002793D02*
X146916886Y-99407554D01*
X146916886Y-99407554D02*
X146835934Y-99650412D01*
X84996032Y-24902112D02*
X84429365Y-24092588D01*
X84024603Y-24902112D02*
X84024603Y-23202112D01*
X84024603Y-23202112D02*
X84672222Y-23202112D01*
X84672222Y-23202112D02*
X84834127Y-23283064D01*
X84834127Y-23283064D02*
X84915080Y-23364017D01*
X84915080Y-23364017D02*
X84996032Y-23525921D01*
X84996032Y-23525921D02*
X84996032Y-23768779D01*
X84996032Y-23768779D02*
X84915080Y-23930683D01*
X84915080Y-23930683D02*
X84834127Y-24011636D01*
X84834127Y-24011636D02*
X84672222Y-24092588D01*
X84672222Y-24092588D02*
X84024603Y-24092588D01*
X85724603Y-24011636D02*
X86291270Y-24011636D01*
X86534127Y-24902112D02*
X85724603Y-24902112D01*
X85724603Y-24902112D02*
X85724603Y-23202112D01*
X85724603Y-23202112D02*
X86534127Y-23202112D01*
X87181746Y-24416398D02*
X87991270Y-24416398D01*
X87019841Y-24902112D02*
X87586508Y-23202112D01*
X87586508Y-23202112D02*
X88153175Y-24902112D01*
X88719841Y-24902112D02*
X88719841Y-23202112D01*
X88719841Y-23202112D02*
X89124603Y-23202112D01*
X89124603Y-23202112D02*
X89367460Y-23283064D01*
X89367460Y-23283064D02*
X89529365Y-23444969D01*
X89529365Y-23444969D02*
X89610318Y-23606874D01*
X89610318Y-23606874D02*
X89691270Y-23930683D01*
X89691270Y-23930683D02*
X89691270Y-24173540D01*
X89691270Y-24173540D02*
X89610318Y-24497350D01*
X89610318Y-24497350D02*
X89529365Y-24659255D01*
X89529365Y-24659255D02*
X89367460Y-24821160D01*
X89367460Y-24821160D02*
X89124603Y-24902112D01*
X89124603Y-24902112D02*
X88719841Y-24902112D01*
X84996032Y-27639017D02*
X84429365Y-26829493D01*
X84024603Y-27639017D02*
X84024603Y-25939017D01*
X84024603Y-25939017D02*
X84672222Y-25939017D01*
X84672222Y-25939017D02*
X84834127Y-26019969D01*
X84834127Y-26019969D02*
X84915080Y-26100922D01*
X84915080Y-26100922D02*
X84996032Y-26262826D01*
X84996032Y-26262826D02*
X84996032Y-26505684D01*
X84996032Y-26505684D02*
X84915080Y-26667588D01*
X84915080Y-26667588D02*
X84834127Y-26748541D01*
X84834127Y-26748541D02*
X84672222Y-26829493D01*
X84672222Y-26829493D02*
X84024603Y-26829493D01*
X85724603Y-26748541D02*
X86291270Y-26748541D01*
X86534127Y-27639017D02*
X85724603Y-27639017D01*
X85724603Y-27639017D02*
X85724603Y-25939017D01*
X85724603Y-25939017D02*
X86534127Y-25939017D01*
X87181746Y-27153303D02*
X87991270Y-27153303D01*
X87019841Y-27639017D02*
X87586508Y-25939017D01*
X87586508Y-25939017D02*
X88153175Y-27639017D01*
X88719841Y-27639017D02*
X88719841Y-25939017D01*
X88719841Y-25939017D02*
X89124603Y-25939017D01*
X89124603Y-25939017D02*
X89367460Y-26019969D01*
X89367460Y-26019969D02*
X89529365Y-26181874D01*
X89529365Y-26181874D02*
X89610318Y-26343779D01*
X89610318Y-26343779D02*
X89691270Y-26667588D01*
X89691270Y-26667588D02*
X89691270Y-26910445D01*
X89691270Y-26910445D02*
X89610318Y-27234255D01*
X89610318Y-27234255D02*
X89529365Y-27396160D01*
X89529365Y-27396160D02*
X89367460Y-27558065D01*
X89367460Y-27558065D02*
X89124603Y-27639017D01*
X89124603Y-27639017D02*
X88719841Y-27639017D01*
X90743651Y-26829493D02*
X90743651Y-27639017D01*
X90176984Y-25939017D02*
X90743651Y-26829493D01*
X90743651Y-26829493D02*
X91310318Y-25939017D01*
X84591270Y-32222351D02*
X84024603Y-32222351D01*
X84024603Y-33112827D02*
X84024603Y-31412827D01*
X84024603Y-31412827D02*
X84834127Y-31412827D01*
X85400794Y-32627113D02*
X86210318Y-32627113D01*
X85238889Y-33112827D02*
X85805556Y-31412827D01*
X85805556Y-31412827D02*
X86372223Y-33112827D01*
X86938889Y-31412827D02*
X86938889Y-32789017D01*
X86938889Y-32789017D02*
X87019842Y-32950922D01*
X87019842Y-32950922D02*
X87100794Y-33031875D01*
X87100794Y-33031875D02*
X87262699Y-33112827D01*
X87262699Y-33112827D02*
X87586508Y-33112827D01*
X87586508Y-33112827D02*
X87748413Y-33031875D01*
X87748413Y-33031875D02*
X87829366Y-32950922D01*
X87829366Y-32950922D02*
X87910318Y-32789017D01*
X87910318Y-32789017D02*
X87910318Y-31412827D01*
X89529365Y-33112827D02*
X88719841Y-33112827D01*
X88719841Y-33112827D02*
X88719841Y-31412827D01*
X89853174Y-31412827D02*
X90824603Y-31412827D01*
X90338889Y-33112827D02*
X90338889Y-31412827D01*
D12*
X121824819Y-87178094D02*
X122634342Y-87178094D01*
X122634342Y-87178094D02*
X122729580Y-87130475D01*
X122729580Y-87130475D02*
X122777200Y-87082856D01*
X122777200Y-87082856D02*
X122824819Y-86987618D01*
X122824819Y-86987618D02*
X122824819Y-86797142D01*
X122824819Y-86797142D02*
X122777200Y-86701904D01*
X122777200Y-86701904D02*
X122729580Y-86654285D01*
X122729580Y-86654285D02*
X122634342Y-86606666D01*
X122634342Y-86606666D02*
X121824819Y-86606666D01*
X122824819Y-85606666D02*
X122824819Y-86178094D01*
X122824819Y-85892380D02*
X121824819Y-85892380D01*
X121824819Y-85892380D02*
X121967676Y-85987618D01*
X121967676Y-85987618D02*
X122062914Y-86082856D01*
X122062914Y-86082856D02*
X122110533Y-86178094D01*
X121824819Y-84749523D02*
X121824819Y-84939999D01*
X121824819Y-84939999D02*
X121872438Y-85035237D01*
X121872438Y-85035237D02*
X121920057Y-85082856D01*
X121920057Y-85082856D02*
X122062914Y-85178094D01*
X122062914Y-85178094D02*
X122253390Y-85225713D01*
X122253390Y-85225713D02*
X122634342Y-85225713D01*
X122634342Y-85225713D02*
X122729580Y-85178094D01*
X122729580Y-85178094D02*
X122777200Y-85130475D01*
X122777200Y-85130475D02*
X122824819Y-85035237D01*
X122824819Y-85035237D02*
X122824819Y-84844761D01*
X122824819Y-84844761D02*
X122777200Y-84749523D01*
X122777200Y-84749523D02*
X122729580Y-84701904D01*
X122729580Y-84701904D02*
X122634342Y-84654285D01*
X122634342Y-84654285D02*
X122396247Y-84654285D01*
X122396247Y-84654285D02*
X122301009Y-84701904D01*
X122301009Y-84701904D02*
X122253390Y-84749523D01*
X122253390Y-84749523D02*
X122205771Y-84844761D01*
X122205771Y-84844761D02*
X122205771Y-85035237D01*
X122205771Y-85035237D02*
X122253390Y-85130475D01*
X122253390Y-85130475D02*
X122301009Y-85178094D01*
X122301009Y-85178094D02*
X122396247Y-85225713D01*
D13*
X98204905Y-36142419D02*
X98204905Y-36951942D01*
X98204905Y-36951942D02*
X98252524Y-37047180D01*
X98252524Y-37047180D02*
X98300143Y-37094800D01*
X98300143Y-37094800D02*
X98395381Y-37142419D01*
X98395381Y-37142419D02*
X98585857Y-37142419D01*
X98585857Y-37142419D02*
X98681095Y-37094800D01*
X98681095Y-37094800D02*
X98728714Y-37047180D01*
X98728714Y-37047180D02*
X98776333Y-36951942D01*
X98776333Y-36951942D02*
X98776333Y-36142419D01*
X99776333Y-37142419D02*
X99204905Y-37142419D01*
X99490619Y-37142419D02*
X99490619Y-36142419D01*
X99490619Y-36142419D02*
X99395381Y-36285276D01*
X99395381Y-36285276D02*
X99300143Y-36380514D01*
X99300143Y-36380514D02*
X99204905Y-36428133D01*
X100681095Y-36142419D02*
X100204905Y-36142419D01*
X100204905Y-36142419D02*
X100157286Y-36618609D01*
X100157286Y-36618609D02*
X100204905Y-36570990D01*
X100204905Y-36570990D02*
X100300143Y-36523371D01*
X100300143Y-36523371D02*
X100538238Y-36523371D01*
X100538238Y-36523371D02*
X100633476Y-36570990D01*
X100633476Y-36570990D02*
X100681095Y-36618609D01*
X100681095Y-36618609D02*
X100728714Y-36713847D01*
X100728714Y-36713847D02*
X100728714Y-36951942D01*
X100728714Y-36951942D02*
X100681095Y-37047180D01*
X100681095Y-37047180D02*
X100633476Y-37094800D01*
X100633476Y-37094800D02*
X100538238Y-37142419D01*
X100538238Y-37142419D02*
X100300143Y-37142419D01*
X100300143Y-37142419D02*
X100204905Y-37094800D01*
X100204905Y-37094800D02*
X100157286Y-37047180D01*
X98241905Y-28417419D02*
X98241905Y-29226942D01*
X98241905Y-29226942D02*
X98289524Y-29322180D01*
X98289524Y-29322180D02*
X98337143Y-29369800D01*
X98337143Y-29369800D02*
X98432381Y-29417419D01*
X98432381Y-29417419D02*
X98622857Y-29417419D01*
X98622857Y-29417419D02*
X98718095Y-29369800D01*
X98718095Y-29369800D02*
X98765714Y-29322180D01*
X98765714Y-29322180D02*
X98813333Y-29226942D01*
X98813333Y-29226942D02*
X98813333Y-28417419D01*
X99813333Y-29417419D02*
X99241905Y-29417419D01*
X99527619Y-29417419D02*
X99527619Y-28417419D01*
X99527619Y-28417419D02*
X99432381Y-28560276D01*
X99432381Y-28560276D02*
X99337143Y-28655514D01*
X99337143Y-28655514D02*
X99241905Y-28703133D01*
X100670476Y-28750752D02*
X100670476Y-29417419D01*
X100432381Y-28369800D02*
X100194286Y-29084085D01*
X100194286Y-29084085D02*
X100813333Y-29084085D01*
D12*
X102134819Y-52048094D02*
X102944342Y-52048094D01*
X102944342Y-52048094D02*
X103039580Y-52000475D01*
X103039580Y-52000475D02*
X103087200Y-51952856D01*
X103087200Y-51952856D02*
X103134819Y-51857618D01*
X103134819Y-51857618D02*
X103134819Y-51667142D01*
X103134819Y-51667142D02*
X103087200Y-51571904D01*
X103087200Y-51571904D02*
X103039580Y-51524285D01*
X103039580Y-51524285D02*
X102944342Y-51476666D01*
X102944342Y-51476666D02*
X102134819Y-51476666D01*
X103134819Y-50476666D02*
X103134819Y-51048094D01*
X103134819Y-50762380D02*
X102134819Y-50762380D01*
X102134819Y-50762380D02*
X102277676Y-50857618D01*
X102277676Y-50857618D02*
X102372914Y-50952856D01*
X102372914Y-50952856D02*
X102420533Y-51048094D01*
X102134819Y-50143332D02*
X102134819Y-49524285D01*
X102134819Y-49524285D02*
X102515771Y-49857618D01*
X102515771Y-49857618D02*
X102515771Y-49714761D01*
X102515771Y-49714761D02*
X102563390Y-49619523D01*
X102563390Y-49619523D02*
X102611009Y-49571904D01*
X102611009Y-49571904D02*
X102706247Y-49524285D01*
X102706247Y-49524285D02*
X102944342Y-49524285D01*
X102944342Y-49524285D02*
X103039580Y-49571904D01*
X103039580Y-49571904D02*
X103087200Y-49619523D01*
X103087200Y-49619523D02*
X103134819Y-49714761D01*
X103134819Y-49714761D02*
X103134819Y-50000475D01*
X103134819Y-50000475D02*
X103087200Y-50095713D01*
X103087200Y-50095713D02*
X103039580Y-50143332D01*
X94074819Y-61178094D02*
X94884342Y-61178094D01*
X94884342Y-61178094D02*
X94979580Y-61130475D01*
X94979580Y-61130475D02*
X95027200Y-61082856D01*
X95027200Y-61082856D02*
X95074819Y-60987618D01*
X95074819Y-60987618D02*
X95074819Y-60797142D01*
X95074819Y-60797142D02*
X95027200Y-60701904D01*
X95027200Y-60701904D02*
X94979580Y-60654285D01*
X94979580Y-60654285D02*
X94884342Y-60606666D01*
X94884342Y-60606666D02*
X94074819Y-60606666D01*
X95074819Y-59606666D02*
X95074819Y-60178094D01*
X95074819Y-59892380D02*
X94074819Y-59892380D01*
X94074819Y-59892380D02*
X94217676Y-59987618D01*
X94217676Y-59987618D02*
X94312914Y-60082856D01*
X94312914Y-60082856D02*
X94360533Y-60178094D01*
X94170057Y-59225713D02*
X94122438Y-59178094D01*
X94122438Y-59178094D02*
X94074819Y-59082856D01*
X94074819Y-59082856D02*
X94074819Y-58844761D01*
X94074819Y-58844761D02*
X94122438Y-58749523D01*
X94122438Y-58749523D02*
X94170057Y-58701904D01*
X94170057Y-58701904D02*
X94265295Y-58654285D01*
X94265295Y-58654285D02*
X94360533Y-58654285D01*
X94360533Y-58654285D02*
X94503390Y-58701904D01*
X94503390Y-58701904D02*
X95074819Y-59273332D01*
X95074819Y-59273332D02*
X95074819Y-58654285D01*
X93824819Y-78548094D02*
X94634342Y-78548094D01*
X94634342Y-78548094D02*
X94729580Y-78500475D01*
X94729580Y-78500475D02*
X94777200Y-78452856D01*
X94777200Y-78452856D02*
X94824819Y-78357618D01*
X94824819Y-78357618D02*
X94824819Y-78167142D01*
X94824819Y-78167142D02*
X94777200Y-78071904D01*
X94777200Y-78071904D02*
X94729580Y-78024285D01*
X94729580Y-78024285D02*
X94634342Y-77976666D01*
X94634342Y-77976666D02*
X93824819Y-77976666D01*
X94824819Y-76976666D02*
X94824819Y-77548094D01*
X94824819Y-77262380D02*
X93824819Y-77262380D01*
X93824819Y-77262380D02*
X93967676Y-77357618D01*
X93967676Y-77357618D02*
X94062914Y-77452856D01*
X94062914Y-77452856D02*
X94110533Y-77548094D01*
X94824819Y-76024285D02*
X94824819Y-76595713D01*
X94824819Y-76309999D02*
X93824819Y-76309999D01*
X93824819Y-76309999D02*
X93967676Y-76405237D01*
X93967676Y-76405237D02*
X94062914Y-76500475D01*
X94062914Y-76500475D02*
X94110533Y-76595713D01*
X102384819Y-68928094D02*
X103194342Y-68928094D01*
X103194342Y-68928094D02*
X103289580Y-68880475D01*
X103289580Y-68880475D02*
X103337200Y-68832856D01*
X103337200Y-68832856D02*
X103384819Y-68737618D01*
X103384819Y-68737618D02*
X103384819Y-68547142D01*
X103384819Y-68547142D02*
X103337200Y-68451904D01*
X103337200Y-68451904D02*
X103289580Y-68404285D01*
X103289580Y-68404285D02*
X103194342Y-68356666D01*
X103194342Y-68356666D02*
X102384819Y-68356666D01*
X103384819Y-67356666D02*
X103384819Y-67928094D01*
X103384819Y-67642380D02*
X102384819Y-67642380D01*
X102384819Y-67642380D02*
X102527676Y-67737618D01*
X102527676Y-67737618D02*
X102622914Y-67832856D01*
X102622914Y-67832856D02*
X102670533Y-67928094D01*
X102384819Y-66737618D02*
X102384819Y-66642380D01*
X102384819Y-66642380D02*
X102432438Y-66547142D01*
X102432438Y-66547142D02*
X102480057Y-66499523D01*
X102480057Y-66499523D02*
X102575295Y-66451904D01*
X102575295Y-66451904D02*
X102765771Y-66404285D01*
X102765771Y-66404285D02*
X103003866Y-66404285D01*
X103003866Y-66404285D02*
X103194342Y-66451904D01*
X103194342Y-66451904D02*
X103289580Y-66499523D01*
X103289580Y-66499523D02*
X103337200Y-66547142D01*
X103337200Y-66547142D02*
X103384819Y-66642380D01*
X103384819Y-66642380D02*
X103384819Y-66737618D01*
X103384819Y-66737618D02*
X103337200Y-66832856D01*
X103337200Y-66832856D02*
X103289580Y-66880475D01*
X103289580Y-66880475D02*
X103194342Y-66928094D01*
X103194342Y-66928094D02*
X103003866Y-66975713D01*
X103003866Y-66975713D02*
X102765771Y-66975713D01*
X102765771Y-66975713D02*
X102575295Y-66928094D01*
X102575295Y-66928094D02*
X102480057Y-66880475D01*
X102480057Y-66880475D02*
X102432438Y-66832856D01*
X102432438Y-66832856D02*
X102384819Y-66737618D01*
X79749819Y-107501904D02*
X80559342Y-107501904D01*
X80559342Y-107501904D02*
X80654580Y-107454285D01*
X80654580Y-107454285D02*
X80702200Y-107406666D01*
X80702200Y-107406666D02*
X80749819Y-107311428D01*
X80749819Y-107311428D02*
X80749819Y-107120952D01*
X80749819Y-107120952D02*
X80702200Y-107025714D01*
X80702200Y-107025714D02*
X80654580Y-106978095D01*
X80654580Y-106978095D02*
X80559342Y-106930476D01*
X80559342Y-106930476D02*
X79749819Y-106930476D01*
X80749819Y-106406666D02*
X80749819Y-106216190D01*
X80749819Y-106216190D02*
X80702200Y-106120952D01*
X80702200Y-106120952D02*
X80654580Y-106073333D01*
X80654580Y-106073333D02*
X80511723Y-105978095D01*
X80511723Y-105978095D02*
X80321247Y-105930476D01*
X80321247Y-105930476D02*
X79940295Y-105930476D01*
X79940295Y-105930476D02*
X79845057Y-105978095D01*
X79845057Y-105978095D02*
X79797438Y-106025714D01*
X79797438Y-106025714D02*
X79749819Y-106120952D01*
X79749819Y-106120952D02*
X79749819Y-106311428D01*
X79749819Y-106311428D02*
X79797438Y-106406666D01*
X79797438Y-106406666D02*
X79845057Y-106454285D01*
X79845057Y-106454285D02*
X79940295Y-106501904D01*
X79940295Y-106501904D02*
X80178390Y-106501904D01*
X80178390Y-106501904D02*
X80273628Y-106454285D01*
X80273628Y-106454285D02*
X80321247Y-106406666D01*
X80321247Y-106406666D02*
X80368866Y-106311428D01*
X80368866Y-106311428D02*
X80368866Y-106120952D01*
X80368866Y-106120952D02*
X80321247Y-106025714D01*
X80321247Y-106025714D02*
X80273628Y-105978095D01*
X80273628Y-105978095D02*
X80178390Y-105930476D01*
X154418095Y-23714819D02*
X154418095Y-24524342D01*
X154418095Y-24524342D02*
X154465714Y-24619580D01*
X154465714Y-24619580D02*
X154513333Y-24667200D01*
X154513333Y-24667200D02*
X154608571Y-24714819D01*
X154608571Y-24714819D02*
X154799047Y-24714819D01*
X154799047Y-24714819D02*
X154894285Y-24667200D01*
X154894285Y-24667200D02*
X154941904Y-24619580D01*
X154941904Y-24619580D02*
X154989523Y-24524342D01*
X154989523Y-24524342D02*
X154989523Y-23714819D01*
X155370476Y-23714819D02*
X156037142Y-23714819D01*
X156037142Y-23714819D02*
X155608571Y-24714819D01*
X136298095Y-69794819D02*
X136298095Y-70604342D01*
X136298095Y-70604342D02*
X136345714Y-70699580D01*
X136345714Y-70699580D02*
X136393333Y-70747200D01*
X136393333Y-70747200D02*
X136488571Y-70794819D01*
X136488571Y-70794819D02*
X136679047Y-70794819D01*
X136679047Y-70794819D02*
X136774285Y-70747200D01*
X136774285Y-70747200D02*
X136821904Y-70699580D01*
X136821904Y-70699580D02*
X136869523Y-70604342D01*
X136869523Y-70604342D02*
X136869523Y-69794819D01*
X137821904Y-69794819D02*
X137345714Y-69794819D01*
X137345714Y-69794819D02*
X137298095Y-70271009D01*
X137298095Y-70271009D02*
X137345714Y-70223390D01*
X137345714Y-70223390D02*
X137440952Y-70175771D01*
X137440952Y-70175771D02*
X137679047Y-70175771D01*
X137679047Y-70175771D02*
X137774285Y-70223390D01*
X137774285Y-70223390D02*
X137821904Y-70271009D01*
X137821904Y-70271009D02*
X137869523Y-70366247D01*
X137869523Y-70366247D02*
X137869523Y-70604342D01*
X137869523Y-70604342D02*
X137821904Y-70699580D01*
X137821904Y-70699580D02*
X137774285Y-70747200D01*
X137774285Y-70747200D02*
X137679047Y-70794819D01*
X137679047Y-70794819D02*
X137440952Y-70794819D01*
X137440952Y-70794819D02*
X137345714Y-70747200D01*
X137345714Y-70747200D02*
X137298095Y-70699580D01*
X154988095Y-72334819D02*
X154988095Y-73144342D01*
X154988095Y-73144342D02*
X155035714Y-73239580D01*
X155035714Y-73239580D02*
X155083333Y-73287200D01*
X155083333Y-73287200D02*
X155178571Y-73334819D01*
X155178571Y-73334819D02*
X155369047Y-73334819D01*
X155369047Y-73334819D02*
X155464285Y-73287200D01*
X155464285Y-73287200D02*
X155511904Y-73239580D01*
X155511904Y-73239580D02*
X155559523Y-73144342D01*
X155559523Y-73144342D02*
X155559523Y-72334819D01*
X156464285Y-72668152D02*
X156464285Y-73334819D01*
X156226190Y-72287200D02*
X155988095Y-73001485D01*
X155988095Y-73001485D02*
X156607142Y-73001485D01*
X142154819Y-105451904D02*
X142964342Y-105451904D01*
X142964342Y-105451904D02*
X143059580Y-105404285D01*
X143059580Y-105404285D02*
X143107200Y-105356666D01*
X143107200Y-105356666D02*
X143154819Y-105261428D01*
X143154819Y-105261428D02*
X143154819Y-105070952D01*
X143154819Y-105070952D02*
X143107200Y-104975714D01*
X143107200Y-104975714D02*
X143059580Y-104928095D01*
X143059580Y-104928095D02*
X142964342Y-104880476D01*
X142964342Y-104880476D02*
X142154819Y-104880476D01*
X142154819Y-104499523D02*
X142154819Y-103880476D01*
X142154819Y-103880476D02*
X142535771Y-104213809D01*
X142535771Y-104213809D02*
X142535771Y-104070952D01*
X142535771Y-104070952D02*
X142583390Y-103975714D01*
X142583390Y-103975714D02*
X142631009Y-103928095D01*
X142631009Y-103928095D02*
X142726247Y-103880476D01*
X142726247Y-103880476D02*
X142964342Y-103880476D01*
X142964342Y-103880476D02*
X143059580Y-103928095D01*
X143059580Y-103928095D02*
X143107200Y-103975714D01*
X143107200Y-103975714D02*
X143154819Y-104070952D01*
X143154819Y-104070952D02*
X143154819Y-104356666D01*
X143154819Y-104356666D02*
X143107200Y-104451904D01*
X143107200Y-104451904D02*
X143059580Y-104499523D01*
X62738095Y-20904819D02*
X62738095Y-21714342D01*
X62738095Y-21714342D02*
X62785714Y-21809580D01*
X62785714Y-21809580D02*
X62833333Y-21857200D01*
X62833333Y-21857200D02*
X62928571Y-21904819D01*
X62928571Y-21904819D02*
X63119047Y-21904819D01*
X63119047Y-21904819D02*
X63214285Y-21857200D01*
X63214285Y-21857200D02*
X63261904Y-21809580D01*
X63261904Y-21809580D02*
X63309523Y-21714342D01*
X63309523Y-21714342D02*
X63309523Y-20904819D01*
X64309523Y-21904819D02*
X63738095Y-21904819D01*
X64023809Y-21904819D02*
X64023809Y-20904819D01*
X64023809Y-20904819D02*
X63928571Y-21047676D01*
X63928571Y-21047676D02*
X63833333Y-21142914D01*
X63833333Y-21142914D02*
X63738095Y-21190533D01*
D13*
X73037419Y-36666666D02*
X72561228Y-36999999D01*
X73037419Y-37238094D02*
X72037419Y-37238094D01*
X72037419Y-37238094D02*
X72037419Y-36857142D01*
X72037419Y-36857142D02*
X72085038Y-36761904D01*
X72085038Y-36761904D02*
X72132657Y-36714285D01*
X72132657Y-36714285D02*
X72227895Y-36666666D01*
X72227895Y-36666666D02*
X72370752Y-36666666D01*
X72370752Y-36666666D02*
X72465990Y-36714285D01*
X72465990Y-36714285D02*
X72513609Y-36761904D01*
X72513609Y-36761904D02*
X72561228Y-36857142D01*
X72561228Y-36857142D02*
X72561228Y-37238094D01*
X72037419Y-35761904D02*
X72037419Y-36238094D01*
X72037419Y-36238094D02*
X72513609Y-36285713D01*
X72513609Y-36285713D02*
X72465990Y-36238094D01*
X72465990Y-36238094D02*
X72418371Y-36142856D01*
X72418371Y-36142856D02*
X72418371Y-35904761D01*
X72418371Y-35904761D02*
X72465990Y-35809523D01*
X72465990Y-35809523D02*
X72513609Y-35761904D01*
X72513609Y-35761904D02*
X72608847Y-35714285D01*
X72608847Y-35714285D02*
X72846942Y-35714285D01*
X72846942Y-35714285D02*
X72942180Y-35761904D01*
X72942180Y-35761904D02*
X72989800Y-35809523D01*
X72989800Y-35809523D02*
X73037419Y-35904761D01*
X73037419Y-35904761D02*
X73037419Y-36142856D01*
X73037419Y-36142856D02*
X72989800Y-36238094D01*
X72989800Y-36238094D02*
X72942180Y-36285713D01*
X73037419Y-33916666D02*
X72561228Y-34249999D01*
X73037419Y-34488094D02*
X72037419Y-34488094D01*
X72037419Y-34488094D02*
X72037419Y-34107142D01*
X72037419Y-34107142D02*
X72085038Y-34011904D01*
X72085038Y-34011904D02*
X72132657Y-33964285D01*
X72132657Y-33964285D02*
X72227895Y-33916666D01*
X72227895Y-33916666D02*
X72370752Y-33916666D01*
X72370752Y-33916666D02*
X72465990Y-33964285D01*
X72465990Y-33964285D02*
X72513609Y-34011904D01*
X72513609Y-34011904D02*
X72561228Y-34107142D01*
X72561228Y-34107142D02*
X72561228Y-34488094D01*
X72370752Y-33059523D02*
X73037419Y-33059523D01*
X71989800Y-33297618D02*
X72704085Y-33535713D01*
X72704085Y-33535713D02*
X72704085Y-32916666D01*
X72957419Y-26416666D02*
X72481228Y-26749999D01*
X72957419Y-26988094D02*
X71957419Y-26988094D01*
X71957419Y-26988094D02*
X71957419Y-26607142D01*
X71957419Y-26607142D02*
X72005038Y-26511904D01*
X72005038Y-26511904D02*
X72052657Y-26464285D01*
X72052657Y-26464285D02*
X72147895Y-26416666D01*
X72147895Y-26416666D02*
X72290752Y-26416666D01*
X72290752Y-26416666D02*
X72385990Y-26464285D01*
X72385990Y-26464285D02*
X72433609Y-26511904D01*
X72433609Y-26511904D02*
X72481228Y-26607142D01*
X72481228Y-26607142D02*
X72481228Y-26988094D01*
X71957419Y-26083332D02*
X71957419Y-25464285D01*
X71957419Y-25464285D02*
X72338371Y-25797618D01*
X72338371Y-25797618D02*
X72338371Y-25654761D01*
X72338371Y-25654761D02*
X72385990Y-25559523D01*
X72385990Y-25559523D02*
X72433609Y-25511904D01*
X72433609Y-25511904D02*
X72528847Y-25464285D01*
X72528847Y-25464285D02*
X72766942Y-25464285D01*
X72766942Y-25464285D02*
X72862180Y-25511904D01*
X72862180Y-25511904D02*
X72909800Y-25559523D01*
X72909800Y-25559523D02*
X72957419Y-25654761D01*
X72957419Y-25654761D02*
X72957419Y-25940475D01*
X72957419Y-25940475D02*
X72909800Y-26035713D01*
X72909800Y-26035713D02*
X72862180Y-26083332D01*
X72877419Y-23666666D02*
X72401228Y-23999999D01*
X72877419Y-24238094D02*
X71877419Y-24238094D01*
X71877419Y-24238094D02*
X71877419Y-23857142D01*
X71877419Y-23857142D02*
X71925038Y-23761904D01*
X71925038Y-23761904D02*
X71972657Y-23714285D01*
X71972657Y-23714285D02*
X72067895Y-23666666D01*
X72067895Y-23666666D02*
X72210752Y-23666666D01*
X72210752Y-23666666D02*
X72305990Y-23714285D01*
X72305990Y-23714285D02*
X72353609Y-23761904D01*
X72353609Y-23761904D02*
X72401228Y-23857142D01*
X72401228Y-23857142D02*
X72401228Y-24238094D01*
X71972657Y-23285713D02*
X71925038Y-23238094D01*
X71925038Y-23238094D02*
X71877419Y-23142856D01*
X71877419Y-23142856D02*
X71877419Y-22904761D01*
X71877419Y-22904761D02*
X71925038Y-22809523D01*
X71925038Y-22809523D02*
X71972657Y-22761904D01*
X71972657Y-22761904D02*
X72067895Y-22714285D01*
X72067895Y-22714285D02*
X72163133Y-22714285D01*
X72163133Y-22714285D02*
X72305990Y-22761904D01*
X72305990Y-22761904D02*
X72877419Y-23333332D01*
X72877419Y-23333332D02*
X72877419Y-22714285D01*
X64083333Y-90457419D02*
X63750000Y-89981228D01*
X63511905Y-90457419D02*
X63511905Y-89457419D01*
X63511905Y-89457419D02*
X63892857Y-89457419D01*
X63892857Y-89457419D02*
X63988095Y-89505038D01*
X63988095Y-89505038D02*
X64035714Y-89552657D01*
X64035714Y-89552657D02*
X64083333Y-89647895D01*
X64083333Y-89647895D02*
X64083333Y-89790752D01*
X64083333Y-89790752D02*
X64035714Y-89885990D01*
X64035714Y-89885990D02*
X63988095Y-89933609D01*
X63988095Y-89933609D02*
X63892857Y-89981228D01*
X63892857Y-89981228D02*
X63511905Y-89981228D01*
X65035714Y-90457419D02*
X64464286Y-90457419D01*
X64750000Y-90457419D02*
X64750000Y-89457419D01*
X64750000Y-89457419D02*
X64654762Y-89600276D01*
X64654762Y-89600276D02*
X64559524Y-89695514D01*
X64559524Y-89695514D02*
X64464286Y-89743133D01*
D14*
%TO.C,U16*%
X121370000Y-83290000D02*
X103470000Y-83290000D01*
X103470000Y-83290000D02*
X103470000Y-88590000D01*
X121370000Y-84940000D02*
X121370000Y-83290000D01*
X121370000Y-88590000D02*
X121370000Y-86940000D01*
X103470000Y-88590000D02*
X121370000Y-88590000D01*
X121370000Y-86940000D02*
G75*
G02*
X121370000Y-84940000I0J1000000D01*
G01*
%TO.C,U15*%
D13*
X94363000Y-29565000D02*
X107063000Y-29565000D01*
X107063000Y-37185000D01*
X94363000Y-37185000D01*
X94363000Y-29565000D01*
%TO.C,U14*%
X94400000Y-21840000D02*
X107100000Y-21840000D01*
X107100000Y-29460000D01*
X94400000Y-29460000D01*
X94400000Y-21840000D01*
D14*
%TO.C,U13*%
X103680000Y-53460000D02*
X121580000Y-53460000D01*
X121580000Y-53460000D02*
X121580000Y-48160000D01*
X103680000Y-51810000D02*
X103680000Y-53460000D01*
X103680000Y-48160000D02*
X103680000Y-49810000D01*
X121580000Y-48160000D02*
X103680000Y-48160000D01*
X103680000Y-49810000D02*
G75*
G02*
X103680000Y-51810000I0J-1000000D01*
G01*
%TO.C,U12*%
X93620000Y-57290000D02*
X75720000Y-57290000D01*
X75720000Y-57290000D02*
X75720000Y-62590000D01*
X93620000Y-58940000D02*
X93620000Y-57290000D01*
X93620000Y-62590000D02*
X93620000Y-60940000D01*
X75720000Y-62590000D02*
X93620000Y-62590000D01*
X93620000Y-60940000D02*
G75*
G02*
X93620000Y-58940000I0J1000000D01*
G01*
%TO.C,U11*%
X93370000Y-74660000D02*
X75470000Y-74660000D01*
X75470000Y-74660000D02*
X75470000Y-79960000D01*
X93370000Y-76310000D02*
X93370000Y-74660000D01*
X93370000Y-79960000D02*
X93370000Y-78310000D01*
X75470000Y-79960000D02*
X93370000Y-79960000D01*
X93370000Y-78310000D02*
G75*
G02*
X93370000Y-76310000I0J1000000D01*
G01*
%TO.C,U10*%
X103930000Y-70340000D02*
X121830000Y-70340000D01*
X121830000Y-70340000D02*
X121830000Y-65040000D01*
X103930000Y-68690000D02*
X103930000Y-70340000D01*
X103930000Y-65040000D02*
X103930000Y-66690000D01*
X121830000Y-65040000D02*
X103930000Y-65040000D01*
X103930000Y-66690000D02*
G75*
G02*
X103930000Y-68690000I0J-1000000D01*
G01*
%TO.C,U9*%
X81295000Y-109390000D02*
X99195000Y-109390000D01*
X99195000Y-109390000D02*
X99195000Y-104090000D01*
X81295000Y-107740000D02*
X81295000Y-109390000D01*
X81295000Y-104090000D02*
X81295000Y-105740000D01*
X99195000Y-104090000D02*
X81295000Y-104090000D01*
X81295000Y-105740000D02*
G75*
G02*
X81295000Y-107740000I0J-1000000D01*
G01*
%TO.C,U7*%
X153850000Y-25260000D02*
X155180000Y-25260000D01*
X153850000Y-26590000D02*
X153850000Y-25260000D01*
X153850000Y-27860000D02*
X153850000Y-66020000D01*
X153850000Y-27860000D02*
X156510000Y-27860000D01*
X153850000Y-66020000D02*
X156510000Y-66020000D01*
X156510000Y-27860000D02*
X156510000Y-66020000D01*
%TO.C,U5*%
X134410000Y-71340000D02*
X134410000Y-96860000D01*
X134410000Y-96860000D02*
X139710000Y-96860000D01*
X136060000Y-71340000D02*
X134410000Y-71340000D01*
X139710000Y-71340000D02*
X138060000Y-71340000D01*
X139710000Y-96860000D02*
X139710000Y-71340000D01*
X138060000Y-71340000D02*
G75*
G02*
X136060000Y-71340000I-1000000J0D01*
G01*
%TO.C,U4*%
X154420000Y-73880000D02*
X155750000Y-73880000D01*
X154420000Y-75210000D02*
X154420000Y-73880000D01*
X154420000Y-76480000D02*
X154420000Y-114640000D01*
X154420000Y-76480000D02*
X157080000Y-76480000D01*
X154420000Y-114640000D02*
X157080000Y-114640000D01*
X157080000Y-76480000D02*
X157080000Y-114640000D01*
%TO.C,U3*%
X141700000Y-102040000D02*
X116180000Y-102040000D01*
X116180000Y-102040000D02*
X116180000Y-107340000D01*
X141700000Y-103690000D02*
X141700000Y-102040000D01*
X141700000Y-107340000D02*
X141700000Y-105690000D01*
X116180000Y-107340000D02*
X141700000Y-107340000D01*
X141700000Y-105690000D02*
G75*
G02*
X141700000Y-103690000I0J1000000D01*
G01*
%TO.C,U1*%
X62170000Y-22450000D02*
X63500000Y-22450000D01*
X62170000Y-23780000D02*
X62170000Y-22450000D01*
X62170000Y-25050000D02*
X62170000Y-80990000D01*
X62170000Y-25050000D02*
X64830000Y-25050000D01*
X62170000Y-80990000D02*
X64830000Y-80990000D01*
X64830000Y-25050000D02*
X64830000Y-80990000D01*
D13*
%TO.C,R5*%
X69270000Y-36500000D02*
X68635000Y-36500000D01*
X77525000Y-36500000D02*
X76890000Y-36500000D01*
X69270000Y-37770000D02*
X76890000Y-37770000D01*
X76890000Y-35230000D01*
X69270000Y-35230000D01*
X69270000Y-37770000D01*
%TO.C,R4*%
X69270000Y-33750000D02*
X68635000Y-33750000D01*
X77525000Y-33750000D02*
X76890000Y-33750000D01*
X69270000Y-35020000D02*
X76890000Y-35020000D01*
X76890000Y-32480000D01*
X69270000Y-32480000D01*
X69270000Y-35020000D01*
%TO.C,R3*%
X69190000Y-26250000D02*
X68555000Y-26250000D01*
X77445000Y-26250000D02*
X76810000Y-26250000D01*
X69190000Y-27520000D02*
X76810000Y-27520000D01*
X76810000Y-24980000D01*
X69190000Y-24980000D01*
X69190000Y-27520000D01*
%TO.C,R2*%
X69110000Y-23500000D02*
X68475000Y-23500000D01*
X77365000Y-23500000D02*
X76730000Y-23500000D01*
X69110000Y-24770000D02*
X76730000Y-24770000D01*
X76730000Y-22230000D01*
X69110000Y-22230000D01*
X69110000Y-24770000D01*
%TO.C,R1*%
X64250000Y-86690000D02*
X64250000Y-86055000D01*
X64250000Y-94945000D02*
X64250000Y-94310000D01*
X62980000Y-86690000D02*
X65520000Y-86690000D01*
X65520000Y-94310000D01*
X62980000Y-94310000D01*
X62980000Y-86690000D01*
%TD*%
M02*
