M48
; DRILL file {KiCad 8.0.2-1} date 2024-08-04T08:53:16-0400
; FORMAT={-:-/ absolute / inch / decimal}
; #@! TF.CreationDate,2024-08-04T08:53:16-04:00
; #@! TF.GenerationSoftware,Kicad,Pcbnew,8.0.2-1
; #@! TF.FileFunction,Plated,1,2,PTH
FMAT,2
INCH
; #@! TA.AperFunction,Plated,PTH,ViaDrill
T1C0.0118
; #@! TA.AperFunction,Plated,PTH,ComponentDrill
T2C0.0300
; #@! TA.AperFunction,Plated,PTH,ComponentDrill
T3C0.0315
; #@! TA.AperFunction,Plated,PTH,ComponentDrill
T4C0.0394
%
G90
G05
T1
X3.6284Y-3.3295
X3.7365Y-3.9094
X3.7458Y-2.2603
X3.7597Y-4.5425
X3.772Y-4.1727
X3.8598Y-3.3852
X3.8635Y-3.0809
X4.0541Y-3.777
X4.0925Y-4.2727
X4.0925Y-4.5745
X4.1057Y-3.6506
X4.1689Y-3.7904
X4.1872Y-3.5057
X4.2286Y-3.1309
X4.2568Y-3.436
X4.3242Y-2.8395
X4.3421Y-2.9646
X4.4048Y-3.6519
X4.4048Y-4.7363
X4.4291Y-3.0309
X4.5257Y-3.1309
X4.5539Y-3.2281
X4.5566Y-3.8727
X4.6338Y-4.2587
X4.6516Y-3.1615
X4.8928Y-5.1429
X4.8947Y-3.1835
X4.9047Y-2.0197
X4.9047Y-2.1495
X4.9052Y-2.8404
X4.9212Y-4.1249
X4.9549Y-3.2405
X5.0079Y-2.9704
X5.0525Y-2.8799
X5.1095Y-2.8845
X5.1528Y-4.5745
X5.2166Y-4.9031
X5.2608Y-2.9944
X5.261Y-4.5608
X5.261Y-4.9502
X5.2761Y-4.2289
X5.3309Y-4.4236
X5.4636Y-3.9974
X5.6444Y-4.1031
X5.7535Y-3.1608
X5.7804Y-3.8469
X5.846Y-3.6465
X5.9141Y-2.6277
X5.9721Y-3.3842
X6.0589Y-4.1044
X6.1672Y-3.3842
X6.181Y-3.0613
X6.181Y-5.1083
X6.2042Y-5.0502
X6.2835Y-3.5478
X6.293Y-3.2311
X6.3139Y-2.5034
X6.3139Y-2.7185
X6.3141Y-3.1608
X6.5276Y-2.1385
X6.6371Y-3.7545
X6.6822Y-4.0134
X6.8814Y-4.258
X6.991Y-3.2614
T2
X3.5028Y-5.2825
X3.5028Y-5.3825
X3.6028Y-5.2825
X3.6028Y-5.4825
X3.6028Y-5.5825
X3.6028Y-5.7825
X3.6339Y-3.6197
X3.6339Y-4.0197
X3.6339Y-4.1425
X3.6339Y-4.5425
X3.6669Y-2.1929
X3.6701Y-2.4094
X3.8028Y-5.2825
X3.8028Y-5.3825
X3.9028Y-5.2825
X3.9028Y-5.4825
X3.9028Y-5.5825
X3.9028Y-5.7825
X4.0669Y-2.1929
X4.0701Y-2.4094
X4.1028Y-5.2825
X4.1028Y-5.3825
X4.2028Y-5.2825
X4.2028Y-5.4825
X4.2028Y-5.5825
X4.2028Y-5.7825
X4.4028Y-5.2825
X4.4028Y-5.3825
X4.5028Y-5.2825
X4.5028Y-5.4825
X4.5028Y-5.5825
X4.5028Y-5.7825
X4.7028Y-5.2825
X4.7028Y-5.3825
X4.8028Y-5.2825
X4.8028Y-5.4825
X4.8028Y-5.5825
X4.8028Y-5.7825
X5.0075Y-5.2825
X5.0075Y-5.3825
X5.1075Y-5.2825
X5.1075Y-5.4825
X5.1075Y-5.5825
X5.1075Y-5.7825
X5.814Y-5.2144
X5.814Y-5.6144
X6.114Y-4.6627
X6.114Y-5.0627
X6.124Y-5.3927
X6.124Y-5.7927
X6.1942Y-4.1427
X6.2042Y-4.3527
X6.2331Y-3.3408
X6.2431Y-3.1608
X6.334Y-4.8827
X6.334Y-5.2827
X6.5942Y-4.1427
X6.6042Y-4.3527
X6.6331Y-3.3408
X6.6431Y-3.1608
T3
X3.811Y-2.6309
X3.811Y-2.7309
X3.811Y-2.8309
X3.811Y-2.9309
X3.811Y-3.0309
X3.811Y-3.1309
X3.811Y-3.2309
X3.811Y-3.3309
X3.9606Y-3.8727
X3.9606Y-3.9727
X3.9606Y-4.0727
X3.9606Y-4.1727
X3.9606Y-4.2727
X3.9606Y-4.3727
X3.9606Y-4.4727
X3.9606Y-4.5727
X4.111Y-2.6309
X4.111Y-2.7309
X4.111Y-2.8309
X4.111Y-2.9309
X4.111Y-3.0309
X4.111Y-3.1309
X4.111Y-3.2309
X4.111Y-3.3309
X4.2606Y-3.8727
X4.2606Y-3.9727
X4.2606Y-4.0727
X4.2606Y-4.1727
X4.2606Y-4.2727
X4.2606Y-4.3727
X4.2606Y-4.4727
X4.2606Y-4.5727
X4.4291Y-2.1624
X4.4291Y-2.2624
X4.4291Y-2.3624
X4.4291Y-2.4624
X4.4291Y-2.5624
X4.4291Y-2.6624
X4.4291Y-2.7624
X4.4291Y-2.8624
X4.5528Y-4.4047
X4.5528Y-4.7047
X4.6528Y-4.4047
X4.6528Y-4.7047
X4.6969Y-3.4675
X4.6969Y-3.5675
X4.6969Y-3.6675
X4.6969Y-3.7675
X4.6969Y-3.8675
X4.6969Y-3.9675
X4.6969Y-4.0675
X4.7291Y-2.1624
X4.7291Y-2.2624
X4.7291Y-2.3624
X4.7291Y-2.4624
X4.7291Y-2.5624
X4.7291Y-2.6624
X4.7291Y-2.7624
X4.7291Y-2.8624
X4.7528Y-4.4047
X4.7528Y-4.7047
X4.8528Y-4.4047
X4.8528Y-4.7047
X4.9528Y-4.4047
X4.9528Y-4.7047
X4.9969Y-3.4675
X4.9969Y-3.5675
X4.9969Y-3.6675
X4.9969Y-3.7675
X4.9969Y-3.8675
X4.9969Y-3.9675
X4.9969Y-4.0675
X5.0079Y-2.1801
X5.0079Y-2.2801
X5.0079Y-2.3801
X5.0079Y-2.4801
X5.0079Y-2.5801
X5.0079Y-2.6801
X5.0079Y-2.7801
X5.0528Y-4.4047
X5.0528Y-4.7047
X5.1528Y-4.4047
X5.1528Y-4.7047
X5.3079Y-2.1801
X5.3079Y-2.2801
X5.3079Y-2.3801
X5.3079Y-2.4801
X5.3079Y-2.5801
X5.3079Y-2.6801
X5.3079Y-2.7801
X5.3622Y-3.1457
X5.3622Y-3.2457
X5.3622Y-3.3457
X5.3622Y-3.4457
X5.3622Y-3.5457
X5.3622Y-3.6457
X5.3622Y-3.7457
X5.4764Y-4.251
X5.4764Y-4.351
X5.4764Y-4.451
X5.4764Y-4.551
X5.4764Y-4.651
X5.4764Y-4.751
X5.4764Y-4.851
X5.6622Y-3.1457
X5.6622Y-3.2457
X5.6622Y-3.3457
X5.6622Y-3.4457
X5.6622Y-3.5457
X5.6622Y-3.6457
X5.6622Y-3.7457
X5.6772Y-2.1801
X5.6772Y-2.2801
X5.6772Y-2.3801
X5.6772Y-2.4801
X5.6772Y-2.5801
X5.6772Y-2.6801
X5.6772Y-2.7801
X5.7764Y-4.251
X5.7764Y-4.351
X5.7764Y-4.451
X5.7764Y-4.551
X5.7764Y-4.651
X5.7764Y-4.751
X5.7764Y-4.851
X5.9772Y-2.1801
X5.9772Y-2.2801
X5.9772Y-2.3801
X5.9772Y-2.4801
X5.9772Y-2.5801
X5.9772Y-2.6801
X5.9772Y-2.7801
X6.1142Y-3.6427
X6.1142Y-3.9427
X6.2142Y-3.6427
X6.2142Y-3.9427
X6.3142Y-3.6427
X6.3142Y-3.9427
X6.4056Y-5.7027
X6.4142Y-3.6427
X6.4142Y-3.9427
X6.448Y-2.1362
X6.448Y-2.2362
X6.448Y-2.3362
X6.448Y-2.4362
X6.448Y-2.5362
X6.448Y-2.6362
X6.448Y-2.7362
X6.5142Y-3.6427
X6.5142Y-3.9427
X6.5144Y-4.7425
X6.5144Y-4.8425
X6.5144Y-4.9425
X6.5144Y-5.0425
X6.5144Y-5.1425
X6.5144Y-5.2425
X6.5144Y-5.3425
X6.6024Y-5.7027
X6.6142Y-3.6427
X6.6142Y-3.9427
X6.7142Y-3.6427
X6.7142Y-3.9427
X6.748Y-2.1362
X6.748Y-2.2362
X6.748Y-2.3362
X6.748Y-2.4362
X6.748Y-2.5362
X6.748Y-2.6362
X6.748Y-2.7362
X6.8144Y-4.7425
X6.8144Y-4.8425
X6.8144Y-4.9425
X6.8144Y-5.0425
X6.8144Y-5.1425
X6.8144Y-5.2425
X6.8144Y-5.3425
T4
X3.3427Y-2.3295
X3.3427Y-2.4295
X3.3427Y-2.5295
X3.3427Y-2.6295
X3.3427Y-2.7295
X3.3427Y-2.8295
X3.3427Y-2.9295
X3.3427Y-3.0295
X3.3427Y-3.1295
X3.3427Y-3.2295
X3.3427Y-3.3295
X3.3427Y-3.4295
X3.3427Y-3.5295
X3.3427Y-3.6295
X3.3427Y-3.7295
X3.3427Y-3.8295
X3.3427Y-3.9295
X3.3427Y-4.0295
X3.3427Y-4.1295
X3.3427Y-4.2295
X3.3427Y-4.3295
X3.3427Y-4.4295
X3.3427Y-4.5295
X6.7942Y-4.1527
X6.7942Y-4.2527
X6.7942Y-4.3527
X6.8031Y-3.1614
X6.8031Y-3.2614
X6.8031Y-3.3614
M30
