%TF.GenerationSoftware,KiCad,Pcbnew,8.0.2-1*%
%TF.CreationDate,2024-08-04T08:33:09-04:00*%
%TF.ProjectId,clock,636c6f63-6b2e-46b6-9963-61645f706362,rev?*%
%TF.SameCoordinates,Original*%
%TF.FileFunction,Legend,Top*%
%TF.FilePolarity,Positive*%
%FSLAX46Y46*%
G04 Gerber Fmt 4.6, Leading zero omitted, Abs format (unit mm)*
G04 Created by KiCad (PCBNEW 8.0.2-1) date 2024-08-04 08:33:09*
%MOMM*%
%LPD*%
G01*
G04 APERTURE LIST*
%ADD10C,0.117000*%
%ADD11C,0.150000*%
%ADD12C,0.100000*%
%ADD13C,0.120000*%
G04 APERTURE END LIST*
D10*
X129745155Y-128081670D02*
X129745155Y-128638813D01*
X129410869Y-127970241D02*
X130580869Y-128360241D01*
X130580869Y-128360241D02*
X129410869Y-128750241D01*
X130580869Y-129140241D02*
X129633726Y-129140241D01*
X129633726Y-129140241D02*
X129522298Y-129195955D01*
X129522298Y-129195955D02*
X129466584Y-129251670D01*
X129466584Y-129251670D02*
X129410869Y-129363098D01*
X129410869Y-129363098D02*
X129410869Y-129585955D01*
X129410869Y-129585955D02*
X129466584Y-129697384D01*
X129466584Y-129697384D02*
X129522298Y-129753098D01*
X129522298Y-129753098D02*
X129633726Y-129808812D01*
X129633726Y-129808812D02*
X130580869Y-129808812D01*
X130580869Y-130198812D02*
X130580869Y-130867384D01*
X129410869Y-130533098D02*
X130580869Y-130533098D01*
X130580869Y-131480241D02*
X130580869Y-131703098D01*
X130580869Y-131703098D02*
X130525155Y-131814527D01*
X130525155Y-131814527D02*
X130413726Y-131925955D01*
X130413726Y-131925955D02*
X130190869Y-131981670D01*
X130190869Y-131981670D02*
X129800869Y-131981670D01*
X129800869Y-131981670D02*
X129578012Y-131925955D01*
X129578012Y-131925955D02*
X129466584Y-131814527D01*
X129466584Y-131814527D02*
X129410869Y-131703098D01*
X129410869Y-131703098D02*
X129410869Y-131480241D01*
X129410869Y-131480241D02*
X129466584Y-131368813D01*
X129466584Y-131368813D02*
X129578012Y-131257384D01*
X129578012Y-131257384D02*
X129800869Y-131201670D01*
X129800869Y-131201670D02*
X130190869Y-131201670D01*
X130190869Y-131201670D02*
X130413726Y-131257384D01*
X130413726Y-131257384D02*
X130525155Y-131368813D01*
X130525155Y-131368813D02*
X130580869Y-131480241D01*
X127638664Y-127468812D02*
X127582950Y-127413098D01*
X127582950Y-127413098D02*
X127527235Y-127245955D01*
X127527235Y-127245955D02*
X127527235Y-127134527D01*
X127527235Y-127134527D02*
X127582950Y-126967384D01*
X127582950Y-126967384D02*
X127694378Y-126855955D01*
X127694378Y-126855955D02*
X127805807Y-126800241D01*
X127805807Y-126800241D02*
X128028664Y-126744527D01*
X128028664Y-126744527D02*
X128195807Y-126744527D01*
X128195807Y-126744527D02*
X128418664Y-126800241D01*
X128418664Y-126800241D02*
X128530092Y-126855955D01*
X128530092Y-126855955D02*
X128641521Y-126967384D01*
X128641521Y-126967384D02*
X128697235Y-127134527D01*
X128697235Y-127134527D02*
X128697235Y-127245955D01*
X128697235Y-127245955D02*
X128641521Y-127413098D01*
X128641521Y-127413098D02*
X128585807Y-127468812D01*
X127527235Y-128527384D02*
X127527235Y-127970241D01*
X127527235Y-127970241D02*
X128697235Y-127970241D01*
X128697235Y-129140241D02*
X128697235Y-129363098D01*
X128697235Y-129363098D02*
X128641521Y-129474527D01*
X128641521Y-129474527D02*
X128530092Y-129585955D01*
X128530092Y-129585955D02*
X128307235Y-129641670D01*
X128307235Y-129641670D02*
X127917235Y-129641670D01*
X127917235Y-129641670D02*
X127694378Y-129585955D01*
X127694378Y-129585955D02*
X127582950Y-129474527D01*
X127582950Y-129474527D02*
X127527235Y-129363098D01*
X127527235Y-129363098D02*
X127527235Y-129140241D01*
X127527235Y-129140241D02*
X127582950Y-129028813D01*
X127582950Y-129028813D02*
X127694378Y-128917384D01*
X127694378Y-128917384D02*
X127917235Y-128861670D01*
X127917235Y-128861670D02*
X128307235Y-128861670D01*
X128307235Y-128861670D02*
X128530092Y-128917384D01*
X128530092Y-128917384D02*
X128641521Y-129028813D01*
X128641521Y-129028813D02*
X128697235Y-129140241D01*
X127638664Y-130811669D02*
X127582950Y-130755955D01*
X127582950Y-130755955D02*
X127527235Y-130588812D01*
X127527235Y-130588812D02*
X127527235Y-130477384D01*
X127527235Y-130477384D02*
X127582950Y-130310241D01*
X127582950Y-130310241D02*
X127694378Y-130198812D01*
X127694378Y-130198812D02*
X127805807Y-130143098D01*
X127805807Y-130143098D02*
X128028664Y-130087384D01*
X128028664Y-130087384D02*
X128195807Y-130087384D01*
X128195807Y-130087384D02*
X128418664Y-130143098D01*
X128418664Y-130143098D02*
X128530092Y-130198812D01*
X128530092Y-130198812D02*
X128641521Y-130310241D01*
X128641521Y-130310241D02*
X128697235Y-130477384D01*
X128697235Y-130477384D02*
X128697235Y-130588812D01*
X128697235Y-130588812D02*
X128641521Y-130755955D01*
X128641521Y-130755955D02*
X128585807Y-130811669D01*
X127527235Y-131313098D02*
X128697235Y-131313098D01*
X127527235Y-131981669D02*
X128195807Y-131480241D01*
X128697235Y-131981669D02*
X128028664Y-131313098D01*
X122489190Y-127803098D02*
X122489190Y-127413098D01*
X121876333Y-127413098D02*
X123046333Y-127413098D01*
X123046333Y-127413098D02*
X123046333Y-127970241D01*
X122210619Y-128360241D02*
X122210619Y-128917384D01*
X121876333Y-128248812D02*
X123046333Y-128638812D01*
X123046333Y-128638812D02*
X121876333Y-129028812D01*
X123046333Y-129418812D02*
X122099190Y-129418812D01*
X122099190Y-129418812D02*
X121987762Y-129474526D01*
X121987762Y-129474526D02*
X121932048Y-129530241D01*
X121932048Y-129530241D02*
X121876333Y-129641669D01*
X121876333Y-129641669D02*
X121876333Y-129864526D01*
X121876333Y-129864526D02*
X121932048Y-129975955D01*
X121932048Y-129975955D02*
X121987762Y-130031669D01*
X121987762Y-130031669D02*
X122099190Y-130087383D01*
X122099190Y-130087383D02*
X123046333Y-130087383D01*
X121876333Y-131201669D02*
X121876333Y-130644526D01*
X121876333Y-130644526D02*
X123046333Y-130644526D01*
X123046333Y-131424526D02*
X123046333Y-132093098D01*
X121876333Y-131758812D02*
X123046333Y-131758812D01*
X120605556Y-126020242D02*
X120605556Y-126410242D01*
X119992699Y-126577385D02*
X119992699Y-126020242D01*
X119992699Y-126020242D02*
X121162699Y-126020242D01*
X121162699Y-126020242D02*
X121162699Y-126577385D01*
X119992699Y-127078813D02*
X121162699Y-127078813D01*
X121162699Y-127078813D02*
X119992699Y-127747384D01*
X119992699Y-127747384D02*
X121162699Y-127747384D01*
X120326985Y-128248813D02*
X120326985Y-128805956D01*
X119992699Y-128137384D02*
X121162699Y-128527384D01*
X121162699Y-128527384D02*
X119992699Y-128917384D01*
X120605556Y-129697384D02*
X120549842Y-129864527D01*
X120549842Y-129864527D02*
X120494128Y-129920241D01*
X120494128Y-129920241D02*
X120382699Y-129975955D01*
X120382699Y-129975955D02*
X120215556Y-129975955D01*
X120215556Y-129975955D02*
X120104128Y-129920241D01*
X120104128Y-129920241D02*
X120048414Y-129864527D01*
X120048414Y-129864527D02*
X119992699Y-129753098D01*
X119992699Y-129753098D02*
X119992699Y-129307384D01*
X119992699Y-129307384D02*
X121162699Y-129307384D01*
X121162699Y-129307384D02*
X121162699Y-129697384D01*
X121162699Y-129697384D02*
X121106985Y-129808813D01*
X121106985Y-129808813D02*
X121051271Y-129864527D01*
X121051271Y-129864527D02*
X120939842Y-129920241D01*
X120939842Y-129920241D02*
X120828414Y-129920241D01*
X120828414Y-129920241D02*
X120716985Y-129864527D01*
X120716985Y-129864527D02*
X120661271Y-129808813D01*
X120661271Y-129808813D02*
X120605556Y-129697384D01*
X120605556Y-129697384D02*
X120605556Y-129307384D01*
X119992699Y-131034527D02*
X119992699Y-130477384D01*
X119992699Y-130477384D02*
X121162699Y-130477384D01*
X120605556Y-131424527D02*
X120605556Y-131814527D01*
X119992699Y-131981670D02*
X119992699Y-131424527D01*
X119992699Y-131424527D02*
X121162699Y-131424527D01*
X121162699Y-131424527D02*
X121162699Y-131981670D01*
X114341797Y-125741670D02*
X115511797Y-125741670D01*
X115511797Y-125741670D02*
X114676083Y-126131670D01*
X114676083Y-126131670D02*
X115511797Y-126521670D01*
X115511797Y-126521670D02*
X114341797Y-126521670D01*
X114676083Y-127023099D02*
X114676083Y-127580242D01*
X114341797Y-126911670D02*
X115511797Y-127301670D01*
X115511797Y-127301670D02*
X114341797Y-127691670D01*
X114341797Y-128081670D02*
X115511797Y-128081670D01*
X115511797Y-128081670D02*
X114341797Y-128750241D01*
X114341797Y-128750241D02*
X115511797Y-128750241D01*
X115511797Y-129307384D02*
X114564654Y-129307384D01*
X114564654Y-129307384D02*
X114453226Y-129363098D01*
X114453226Y-129363098D02*
X114397512Y-129418813D01*
X114397512Y-129418813D02*
X114341797Y-129530241D01*
X114341797Y-129530241D02*
X114341797Y-129753098D01*
X114341797Y-129753098D02*
X114397512Y-129864527D01*
X114397512Y-129864527D02*
X114453226Y-129920241D01*
X114453226Y-129920241D02*
X114564654Y-129975955D01*
X114564654Y-129975955D02*
X115511797Y-129975955D01*
X114676083Y-130477384D02*
X114676083Y-131034527D01*
X114341797Y-130365955D02*
X115511797Y-130755955D01*
X115511797Y-130755955D02*
X114341797Y-131145955D01*
X114341797Y-132093098D02*
X114341797Y-131535955D01*
X114341797Y-131535955D02*
X115511797Y-131535955D01*
X112569592Y-127468812D02*
X112513878Y-127413098D01*
X112513878Y-127413098D02*
X112458163Y-127245955D01*
X112458163Y-127245955D02*
X112458163Y-127134527D01*
X112458163Y-127134527D02*
X112513878Y-126967384D01*
X112513878Y-126967384D02*
X112625306Y-126855955D01*
X112625306Y-126855955D02*
X112736735Y-126800241D01*
X112736735Y-126800241D02*
X112959592Y-126744527D01*
X112959592Y-126744527D02*
X113126735Y-126744527D01*
X113126735Y-126744527D02*
X113349592Y-126800241D01*
X113349592Y-126800241D02*
X113461020Y-126855955D01*
X113461020Y-126855955D02*
X113572449Y-126967384D01*
X113572449Y-126967384D02*
X113628163Y-127134527D01*
X113628163Y-127134527D02*
X113628163Y-127245955D01*
X113628163Y-127245955D02*
X113572449Y-127413098D01*
X113572449Y-127413098D02*
X113516735Y-127468812D01*
X112458163Y-128527384D02*
X112458163Y-127970241D01*
X112458163Y-127970241D02*
X113628163Y-127970241D01*
X113628163Y-129140241D02*
X113628163Y-129363098D01*
X113628163Y-129363098D02*
X113572449Y-129474527D01*
X113572449Y-129474527D02*
X113461020Y-129585955D01*
X113461020Y-129585955D02*
X113238163Y-129641670D01*
X113238163Y-129641670D02*
X112848163Y-129641670D01*
X112848163Y-129641670D02*
X112625306Y-129585955D01*
X112625306Y-129585955D02*
X112513878Y-129474527D01*
X112513878Y-129474527D02*
X112458163Y-129363098D01*
X112458163Y-129363098D02*
X112458163Y-129140241D01*
X112458163Y-129140241D02*
X112513878Y-129028813D01*
X112513878Y-129028813D02*
X112625306Y-128917384D01*
X112625306Y-128917384D02*
X112848163Y-128861670D01*
X112848163Y-128861670D02*
X113238163Y-128861670D01*
X113238163Y-128861670D02*
X113461020Y-128917384D01*
X113461020Y-128917384D02*
X113572449Y-129028813D01*
X113572449Y-129028813D02*
X113628163Y-129140241D01*
X112569592Y-130811669D02*
X112513878Y-130755955D01*
X112513878Y-130755955D02*
X112458163Y-130588812D01*
X112458163Y-130588812D02*
X112458163Y-130477384D01*
X112458163Y-130477384D02*
X112513878Y-130310241D01*
X112513878Y-130310241D02*
X112625306Y-130198812D01*
X112625306Y-130198812D02*
X112736735Y-130143098D01*
X112736735Y-130143098D02*
X112959592Y-130087384D01*
X112959592Y-130087384D02*
X113126735Y-130087384D01*
X113126735Y-130087384D02*
X113349592Y-130143098D01*
X113349592Y-130143098D02*
X113461020Y-130198812D01*
X113461020Y-130198812D02*
X113572449Y-130310241D01*
X113572449Y-130310241D02*
X113628163Y-130477384D01*
X113628163Y-130477384D02*
X113628163Y-130588812D01*
X113628163Y-130588812D02*
X113572449Y-130755955D01*
X113572449Y-130755955D02*
X113516735Y-130811669D01*
X112458163Y-131313098D02*
X113628163Y-131313098D01*
X112458163Y-131981669D02*
X113126735Y-131480241D01*
X113628163Y-131981669D02*
X112959592Y-131313098D01*
X106918690Y-127468812D02*
X106862976Y-127413098D01*
X106862976Y-127413098D02*
X106807261Y-127245955D01*
X106807261Y-127245955D02*
X106807261Y-127134527D01*
X106807261Y-127134527D02*
X106862976Y-126967384D01*
X106862976Y-126967384D02*
X106974404Y-126855955D01*
X106974404Y-126855955D02*
X107085833Y-126800241D01*
X107085833Y-126800241D02*
X107308690Y-126744527D01*
X107308690Y-126744527D02*
X107475833Y-126744527D01*
X107475833Y-126744527D02*
X107698690Y-126800241D01*
X107698690Y-126800241D02*
X107810118Y-126855955D01*
X107810118Y-126855955D02*
X107921547Y-126967384D01*
X107921547Y-126967384D02*
X107977261Y-127134527D01*
X107977261Y-127134527D02*
X107977261Y-127245955D01*
X107977261Y-127245955D02*
X107921547Y-127413098D01*
X107921547Y-127413098D02*
X107865833Y-127468812D01*
X106807261Y-128527384D02*
X106807261Y-127970241D01*
X106807261Y-127970241D02*
X107977261Y-127970241D01*
X107977261Y-129140241D02*
X107977261Y-129363098D01*
X107977261Y-129363098D02*
X107921547Y-129474527D01*
X107921547Y-129474527D02*
X107810118Y-129585955D01*
X107810118Y-129585955D02*
X107587261Y-129641670D01*
X107587261Y-129641670D02*
X107197261Y-129641670D01*
X107197261Y-129641670D02*
X106974404Y-129585955D01*
X106974404Y-129585955D02*
X106862976Y-129474527D01*
X106862976Y-129474527D02*
X106807261Y-129363098D01*
X106807261Y-129363098D02*
X106807261Y-129140241D01*
X106807261Y-129140241D02*
X106862976Y-129028813D01*
X106862976Y-129028813D02*
X106974404Y-128917384D01*
X106974404Y-128917384D02*
X107197261Y-128861670D01*
X107197261Y-128861670D02*
X107587261Y-128861670D01*
X107587261Y-128861670D02*
X107810118Y-128917384D01*
X107810118Y-128917384D02*
X107921547Y-129028813D01*
X107921547Y-129028813D02*
X107977261Y-129140241D01*
X106918690Y-130811669D02*
X106862976Y-130755955D01*
X106862976Y-130755955D02*
X106807261Y-130588812D01*
X106807261Y-130588812D02*
X106807261Y-130477384D01*
X106807261Y-130477384D02*
X106862976Y-130310241D01*
X106862976Y-130310241D02*
X106974404Y-130198812D01*
X106974404Y-130198812D02*
X107085833Y-130143098D01*
X107085833Y-130143098D02*
X107308690Y-130087384D01*
X107308690Y-130087384D02*
X107475833Y-130087384D01*
X107475833Y-130087384D02*
X107698690Y-130143098D01*
X107698690Y-130143098D02*
X107810118Y-130198812D01*
X107810118Y-130198812D02*
X107921547Y-130310241D01*
X107921547Y-130310241D02*
X107977261Y-130477384D01*
X107977261Y-130477384D02*
X107977261Y-130588812D01*
X107977261Y-130588812D02*
X107921547Y-130755955D01*
X107921547Y-130755955D02*
X107865833Y-130811669D01*
X106807261Y-131313098D02*
X107977261Y-131313098D01*
X106807261Y-131981669D02*
X107475833Y-131480241D01*
X107977261Y-131981669D02*
X107308690Y-131313098D01*
X99885582Y-125128812D02*
X99829868Y-125295955D01*
X99829868Y-125295955D02*
X99774154Y-125351669D01*
X99774154Y-125351669D02*
X99662725Y-125407383D01*
X99662725Y-125407383D02*
X99495582Y-125407383D01*
X99495582Y-125407383D02*
X99384154Y-125351669D01*
X99384154Y-125351669D02*
X99328440Y-125295955D01*
X99328440Y-125295955D02*
X99272725Y-125184526D01*
X99272725Y-125184526D02*
X99272725Y-124738812D01*
X99272725Y-124738812D02*
X100442725Y-124738812D01*
X100442725Y-124738812D02*
X100442725Y-125128812D01*
X100442725Y-125128812D02*
X100387011Y-125240241D01*
X100387011Y-125240241D02*
X100331297Y-125295955D01*
X100331297Y-125295955D02*
X100219868Y-125351669D01*
X100219868Y-125351669D02*
X100108440Y-125351669D01*
X100108440Y-125351669D02*
X99997011Y-125295955D01*
X99997011Y-125295955D02*
X99941297Y-125240241D01*
X99941297Y-125240241D02*
X99885582Y-125128812D01*
X99885582Y-125128812D02*
X99885582Y-124738812D01*
X99384154Y-127468812D02*
X99328440Y-127413098D01*
X99328440Y-127413098D02*
X99272725Y-127245955D01*
X99272725Y-127245955D02*
X99272725Y-127134527D01*
X99272725Y-127134527D02*
X99328440Y-126967384D01*
X99328440Y-126967384D02*
X99439868Y-126855955D01*
X99439868Y-126855955D02*
X99551297Y-126800241D01*
X99551297Y-126800241D02*
X99774154Y-126744527D01*
X99774154Y-126744527D02*
X99941297Y-126744527D01*
X99941297Y-126744527D02*
X100164154Y-126800241D01*
X100164154Y-126800241D02*
X100275582Y-126855955D01*
X100275582Y-126855955D02*
X100387011Y-126967384D01*
X100387011Y-126967384D02*
X100442725Y-127134527D01*
X100442725Y-127134527D02*
X100442725Y-127245955D01*
X100442725Y-127245955D02*
X100387011Y-127413098D01*
X100387011Y-127413098D02*
X100331297Y-127468812D01*
X99272725Y-128527384D02*
X99272725Y-127970241D01*
X99272725Y-127970241D02*
X100442725Y-127970241D01*
X100442725Y-129140241D02*
X100442725Y-129363098D01*
X100442725Y-129363098D02*
X100387011Y-129474527D01*
X100387011Y-129474527D02*
X100275582Y-129585955D01*
X100275582Y-129585955D02*
X100052725Y-129641670D01*
X100052725Y-129641670D02*
X99662725Y-129641670D01*
X99662725Y-129641670D02*
X99439868Y-129585955D01*
X99439868Y-129585955D02*
X99328440Y-129474527D01*
X99328440Y-129474527D02*
X99272725Y-129363098D01*
X99272725Y-129363098D02*
X99272725Y-129140241D01*
X99272725Y-129140241D02*
X99328440Y-129028813D01*
X99328440Y-129028813D02*
X99439868Y-128917384D01*
X99439868Y-128917384D02*
X99662725Y-128861670D01*
X99662725Y-128861670D02*
X100052725Y-128861670D01*
X100052725Y-128861670D02*
X100275582Y-128917384D01*
X100275582Y-128917384D02*
X100387011Y-129028813D01*
X100387011Y-129028813D02*
X100442725Y-129140241D01*
X99384154Y-130811669D02*
X99328440Y-130755955D01*
X99328440Y-130755955D02*
X99272725Y-130588812D01*
X99272725Y-130588812D02*
X99272725Y-130477384D01*
X99272725Y-130477384D02*
X99328440Y-130310241D01*
X99328440Y-130310241D02*
X99439868Y-130198812D01*
X99439868Y-130198812D02*
X99551297Y-130143098D01*
X99551297Y-130143098D02*
X99774154Y-130087384D01*
X99774154Y-130087384D02*
X99941297Y-130087384D01*
X99941297Y-130087384D02*
X100164154Y-130143098D01*
X100164154Y-130143098D02*
X100275582Y-130198812D01*
X100275582Y-130198812D02*
X100387011Y-130310241D01*
X100387011Y-130310241D02*
X100442725Y-130477384D01*
X100442725Y-130477384D02*
X100442725Y-130588812D01*
X100442725Y-130588812D02*
X100387011Y-130755955D01*
X100387011Y-130755955D02*
X100331297Y-130811669D01*
X99272725Y-131313098D02*
X100442725Y-131313098D01*
X99272725Y-131981669D02*
X99941297Y-131480241D01*
X100442725Y-131981669D02*
X99774154Y-131313098D01*
X92072475Y-124850241D02*
X92072475Y-125407384D01*
X91738189Y-124738812D02*
X92908189Y-125128812D01*
X92908189Y-125128812D02*
X91738189Y-125518812D01*
X91849618Y-127468812D02*
X91793904Y-127413098D01*
X91793904Y-127413098D02*
X91738189Y-127245955D01*
X91738189Y-127245955D02*
X91738189Y-127134527D01*
X91738189Y-127134527D02*
X91793904Y-126967384D01*
X91793904Y-126967384D02*
X91905332Y-126855955D01*
X91905332Y-126855955D02*
X92016761Y-126800241D01*
X92016761Y-126800241D02*
X92239618Y-126744527D01*
X92239618Y-126744527D02*
X92406761Y-126744527D01*
X92406761Y-126744527D02*
X92629618Y-126800241D01*
X92629618Y-126800241D02*
X92741046Y-126855955D01*
X92741046Y-126855955D02*
X92852475Y-126967384D01*
X92852475Y-126967384D02*
X92908189Y-127134527D01*
X92908189Y-127134527D02*
X92908189Y-127245955D01*
X92908189Y-127245955D02*
X92852475Y-127413098D01*
X92852475Y-127413098D02*
X92796761Y-127468812D01*
X91738189Y-128527384D02*
X91738189Y-127970241D01*
X91738189Y-127970241D02*
X92908189Y-127970241D01*
X92908189Y-129140241D02*
X92908189Y-129363098D01*
X92908189Y-129363098D02*
X92852475Y-129474527D01*
X92852475Y-129474527D02*
X92741046Y-129585955D01*
X92741046Y-129585955D02*
X92518189Y-129641670D01*
X92518189Y-129641670D02*
X92128189Y-129641670D01*
X92128189Y-129641670D02*
X91905332Y-129585955D01*
X91905332Y-129585955D02*
X91793904Y-129474527D01*
X91793904Y-129474527D02*
X91738189Y-129363098D01*
X91738189Y-129363098D02*
X91738189Y-129140241D01*
X91738189Y-129140241D02*
X91793904Y-129028813D01*
X91793904Y-129028813D02*
X91905332Y-128917384D01*
X91905332Y-128917384D02*
X92128189Y-128861670D01*
X92128189Y-128861670D02*
X92518189Y-128861670D01*
X92518189Y-128861670D02*
X92741046Y-128917384D01*
X92741046Y-128917384D02*
X92852475Y-129028813D01*
X92852475Y-129028813D02*
X92908189Y-129140241D01*
X91849618Y-130811669D02*
X91793904Y-130755955D01*
X91793904Y-130755955D02*
X91738189Y-130588812D01*
X91738189Y-130588812D02*
X91738189Y-130477384D01*
X91738189Y-130477384D02*
X91793904Y-130310241D01*
X91793904Y-130310241D02*
X91905332Y-130198812D01*
X91905332Y-130198812D02*
X92016761Y-130143098D01*
X92016761Y-130143098D02*
X92239618Y-130087384D01*
X92239618Y-130087384D02*
X92406761Y-130087384D01*
X92406761Y-130087384D02*
X92629618Y-130143098D01*
X92629618Y-130143098D02*
X92741046Y-130198812D01*
X92741046Y-130198812D02*
X92852475Y-130310241D01*
X92852475Y-130310241D02*
X92908189Y-130477384D01*
X92908189Y-130477384D02*
X92908189Y-130588812D01*
X92908189Y-130588812D02*
X92852475Y-130755955D01*
X92852475Y-130755955D02*
X92796761Y-130811669D01*
X91738189Y-131313098D02*
X92908189Y-131313098D01*
X91738189Y-131981669D02*
X92406761Y-131480241D01*
X92908189Y-131981669D02*
X92239618Y-131313098D01*
D11*
X165034333Y-141458580D02*
X164986714Y-141506200D01*
X164986714Y-141506200D02*
X164843857Y-141553819D01*
X164843857Y-141553819D02*
X164748619Y-141553819D01*
X164748619Y-141553819D02*
X164605762Y-141506200D01*
X164605762Y-141506200D02*
X164510524Y-141410961D01*
X164510524Y-141410961D02*
X164462905Y-141315723D01*
X164462905Y-141315723D02*
X164415286Y-141125247D01*
X164415286Y-141125247D02*
X164415286Y-140982390D01*
X164415286Y-140982390D02*
X164462905Y-140791914D01*
X164462905Y-140791914D02*
X164510524Y-140696676D01*
X164510524Y-140696676D02*
X164605762Y-140601438D01*
X164605762Y-140601438D02*
X164748619Y-140553819D01*
X164748619Y-140553819D02*
X164843857Y-140553819D01*
X164843857Y-140553819D02*
X164986714Y-140601438D01*
X164986714Y-140601438D02*
X165034333Y-140649057D01*
X165986714Y-141553819D02*
X165415286Y-141553819D01*
X165701000Y-141553819D02*
X165701000Y-140553819D01*
X165701000Y-140553819D02*
X165605762Y-140696676D01*
X165605762Y-140696676D02*
X165510524Y-140791914D01*
X165510524Y-140791914D02*
X165415286Y-140839533D01*
D12*
X98342580Y-60557142D02*
X98818771Y-60223809D01*
X98342580Y-59985714D02*
X99342580Y-59985714D01*
X99342580Y-59985714D02*
X99342580Y-60366666D01*
X99342580Y-60366666D02*
X99294961Y-60461904D01*
X99294961Y-60461904D02*
X99247342Y-60509523D01*
X99247342Y-60509523D02*
X99152104Y-60557142D01*
X99152104Y-60557142D02*
X99009247Y-60557142D01*
X99009247Y-60557142D02*
X98914009Y-60509523D01*
X98914009Y-60509523D02*
X98866390Y-60461904D01*
X98866390Y-60461904D02*
X98818771Y-60366666D01*
X98818771Y-60366666D02*
X98818771Y-59985714D01*
X98342580Y-61509523D02*
X98342580Y-60938095D01*
X98342580Y-61223809D02*
X99342580Y-61223809D01*
X99342580Y-61223809D02*
X99199723Y-61128571D01*
X99199723Y-61128571D02*
X99104485Y-61033333D01*
X99104485Y-61033333D02*
X99056866Y-60938095D01*
X98342580Y-62461904D02*
X98342580Y-61890476D01*
X98342580Y-62176190D02*
X99342580Y-62176190D01*
X99342580Y-62176190D02*
X99199723Y-62080952D01*
X99199723Y-62080952D02*
X99104485Y-61985714D01*
X99104485Y-61985714D02*
X99056866Y-61890476D01*
D11*
X122348095Y-85199819D02*
X122348095Y-86009342D01*
X122348095Y-86009342D02*
X122395714Y-86104580D01*
X122395714Y-86104580D02*
X122443333Y-86152200D01*
X122443333Y-86152200D02*
X122538571Y-86199819D01*
X122538571Y-86199819D02*
X122729047Y-86199819D01*
X122729047Y-86199819D02*
X122824285Y-86152200D01*
X122824285Y-86152200D02*
X122871904Y-86104580D01*
X122871904Y-86104580D02*
X122919523Y-86009342D01*
X122919523Y-86009342D02*
X122919523Y-85199819D01*
X123443333Y-86199819D02*
X123633809Y-86199819D01*
X123633809Y-86199819D02*
X123729047Y-86152200D01*
X123729047Y-86152200D02*
X123776666Y-86104580D01*
X123776666Y-86104580D02*
X123871904Y-85961723D01*
X123871904Y-85961723D02*
X123919523Y-85771247D01*
X123919523Y-85771247D02*
X123919523Y-85390295D01*
X123919523Y-85390295D02*
X123871904Y-85295057D01*
X123871904Y-85295057D02*
X123824285Y-85247438D01*
X123824285Y-85247438D02*
X123729047Y-85199819D01*
X123729047Y-85199819D02*
X123538571Y-85199819D01*
X123538571Y-85199819D02*
X123443333Y-85247438D01*
X123443333Y-85247438D02*
X123395714Y-85295057D01*
X123395714Y-85295057D02*
X123348095Y-85390295D01*
X123348095Y-85390295D02*
X123348095Y-85628390D01*
X123348095Y-85628390D02*
X123395714Y-85723628D01*
X123395714Y-85723628D02*
X123443333Y-85771247D01*
X123443333Y-85771247D02*
X123538571Y-85818866D01*
X123538571Y-85818866D02*
X123729047Y-85818866D01*
X123729047Y-85818866D02*
X123824285Y-85771247D01*
X123824285Y-85771247D02*
X123871904Y-85723628D01*
X123871904Y-85723628D02*
X123919523Y-85628390D01*
X138771905Y-77024819D02*
X138771905Y-77834342D01*
X138771905Y-77834342D02*
X138819524Y-77929580D01*
X138819524Y-77929580D02*
X138867143Y-77977200D01*
X138867143Y-77977200D02*
X138962381Y-78024819D01*
X138962381Y-78024819D02*
X139152857Y-78024819D01*
X139152857Y-78024819D02*
X139248095Y-77977200D01*
X139248095Y-77977200D02*
X139295714Y-77929580D01*
X139295714Y-77929580D02*
X139343333Y-77834342D01*
X139343333Y-77834342D02*
X139343333Y-77024819D01*
X140343333Y-78024819D02*
X139771905Y-78024819D01*
X140057619Y-78024819D02*
X140057619Y-77024819D01*
X140057619Y-77024819D02*
X139962381Y-77167676D01*
X139962381Y-77167676D02*
X139867143Y-77262914D01*
X139867143Y-77262914D02*
X139771905Y-77310533D01*
X141200476Y-77358152D02*
X141200476Y-78024819D01*
X140962381Y-76977200D02*
X140724286Y-77691485D01*
X140724286Y-77691485D02*
X141343333Y-77691485D01*
X115071905Y-52049819D02*
X115071905Y-52859342D01*
X115071905Y-52859342D02*
X115119524Y-52954580D01*
X115119524Y-52954580D02*
X115167143Y-53002200D01*
X115167143Y-53002200D02*
X115262381Y-53049819D01*
X115262381Y-53049819D02*
X115452857Y-53049819D01*
X115452857Y-53049819D02*
X115548095Y-53002200D01*
X115548095Y-53002200D02*
X115595714Y-52954580D01*
X115595714Y-52954580D02*
X115643333Y-52859342D01*
X115643333Y-52859342D02*
X115643333Y-52049819D01*
X116643333Y-53049819D02*
X116071905Y-53049819D01*
X116357619Y-53049819D02*
X116357619Y-52049819D01*
X116357619Y-52049819D02*
X116262381Y-52192676D01*
X116262381Y-52192676D02*
X116167143Y-52287914D01*
X116167143Y-52287914D02*
X116071905Y-52335533D01*
X117119524Y-53049819D02*
X117310000Y-53049819D01*
X117310000Y-53049819D02*
X117405238Y-53002200D01*
X117405238Y-53002200D02*
X117452857Y-52954580D01*
X117452857Y-52954580D02*
X117548095Y-52811723D01*
X117548095Y-52811723D02*
X117595714Y-52621247D01*
X117595714Y-52621247D02*
X117595714Y-52240295D01*
X117595714Y-52240295D02*
X117548095Y-52145057D01*
X117548095Y-52145057D02*
X117500476Y-52097438D01*
X117500476Y-52097438D02*
X117405238Y-52049819D01*
X117405238Y-52049819D02*
X117214762Y-52049819D01*
X117214762Y-52049819D02*
X117119524Y-52097438D01*
X117119524Y-52097438D02*
X117071905Y-52145057D01*
X117071905Y-52145057D02*
X117024286Y-52240295D01*
X117024286Y-52240295D02*
X117024286Y-52478390D01*
X117024286Y-52478390D02*
X117071905Y-52573628D01*
X117071905Y-52573628D02*
X117119524Y-52621247D01*
X117119524Y-52621247D02*
X117214762Y-52668866D01*
X117214762Y-52668866D02*
X117405238Y-52668866D01*
X117405238Y-52668866D02*
X117500476Y-52621247D01*
X117500476Y-52621247D02*
X117548095Y-52573628D01*
X117548095Y-52573628D02*
X117595714Y-52478390D01*
D12*
X162369419Y-105391666D02*
X161893228Y-105724999D01*
X162369419Y-105963094D02*
X161369419Y-105963094D01*
X161369419Y-105963094D02*
X161369419Y-105582142D01*
X161369419Y-105582142D02*
X161417038Y-105486904D01*
X161417038Y-105486904D02*
X161464657Y-105439285D01*
X161464657Y-105439285D02*
X161559895Y-105391666D01*
X161559895Y-105391666D02*
X161702752Y-105391666D01*
X161702752Y-105391666D02*
X161797990Y-105439285D01*
X161797990Y-105439285D02*
X161845609Y-105486904D01*
X161845609Y-105486904D02*
X161893228Y-105582142D01*
X161893228Y-105582142D02*
X161893228Y-105963094D01*
X161369419Y-105058332D02*
X161369419Y-104391666D01*
X161369419Y-104391666D02*
X162369419Y-104820237D01*
X102712580Y-138016905D02*
X101903057Y-138016905D01*
X101903057Y-138016905D02*
X101807819Y-138064524D01*
X101807819Y-138064524D02*
X101760200Y-138112143D01*
X101760200Y-138112143D02*
X101712580Y-138207381D01*
X101712580Y-138207381D02*
X101712580Y-138397857D01*
X101712580Y-138397857D02*
X101760200Y-138493095D01*
X101760200Y-138493095D02*
X101807819Y-138540714D01*
X101807819Y-138540714D02*
X101903057Y-138588333D01*
X101903057Y-138588333D02*
X102712580Y-138588333D01*
X101712580Y-139588333D02*
X101712580Y-139016905D01*
X101712580Y-139302619D02*
X102712580Y-139302619D01*
X102712580Y-139302619D02*
X102569723Y-139207381D01*
X102569723Y-139207381D02*
X102474485Y-139112143D01*
X102474485Y-139112143D02*
X102426866Y-139016905D01*
X102284009Y-140159762D02*
X102331628Y-140064524D01*
X102331628Y-140064524D02*
X102379247Y-140016905D01*
X102379247Y-140016905D02*
X102474485Y-139969286D01*
X102474485Y-139969286D02*
X102522104Y-139969286D01*
X102522104Y-139969286D02*
X102617342Y-140016905D01*
X102617342Y-140016905D02*
X102664961Y-140064524D01*
X102664961Y-140064524D02*
X102712580Y-140159762D01*
X102712580Y-140159762D02*
X102712580Y-140350238D01*
X102712580Y-140350238D02*
X102664961Y-140445476D01*
X102664961Y-140445476D02*
X102617342Y-140493095D01*
X102617342Y-140493095D02*
X102522104Y-140540714D01*
X102522104Y-140540714D02*
X102474485Y-140540714D01*
X102474485Y-140540714D02*
X102379247Y-140493095D01*
X102379247Y-140493095D02*
X102331628Y-140445476D01*
X102331628Y-140445476D02*
X102284009Y-140350238D01*
X102284009Y-140350238D02*
X102284009Y-140159762D01*
X102284009Y-140159762D02*
X102236390Y-140064524D01*
X102236390Y-140064524D02*
X102188771Y-140016905D01*
X102188771Y-140016905D02*
X102093533Y-139969286D01*
X102093533Y-139969286D02*
X101903057Y-139969286D01*
X101903057Y-139969286D02*
X101807819Y-140016905D01*
X101807819Y-140016905D02*
X101760200Y-140064524D01*
X101760200Y-140064524D02*
X101712580Y-140159762D01*
X101712580Y-140159762D02*
X101712580Y-140350238D01*
X101712580Y-140350238D02*
X101760200Y-140445476D01*
X101760200Y-140445476D02*
X101807819Y-140493095D01*
X101807819Y-140493095D02*
X101903057Y-140540714D01*
X101903057Y-140540714D02*
X102093533Y-140540714D01*
X102093533Y-140540714D02*
X102188771Y-140493095D01*
X102188771Y-140493095D02*
X102236390Y-140445476D01*
X102236390Y-140445476D02*
X102284009Y-140350238D01*
X160716333Y-129058419D02*
X160383000Y-128582228D01*
X160144905Y-129058419D02*
X160144905Y-128058419D01*
X160144905Y-128058419D02*
X160525857Y-128058419D01*
X160525857Y-128058419D02*
X160621095Y-128106038D01*
X160621095Y-128106038D02*
X160668714Y-128153657D01*
X160668714Y-128153657D02*
X160716333Y-128248895D01*
X160716333Y-128248895D02*
X160716333Y-128391752D01*
X160716333Y-128391752D02*
X160668714Y-128486990D01*
X160668714Y-128486990D02*
X160621095Y-128534609D01*
X160621095Y-128534609D02*
X160525857Y-128582228D01*
X160525857Y-128582228D02*
X160144905Y-128582228D01*
X161049667Y-128058419D02*
X161668714Y-128058419D01*
X161668714Y-128058419D02*
X161335381Y-128439371D01*
X161335381Y-128439371D02*
X161478238Y-128439371D01*
X161478238Y-128439371D02*
X161573476Y-128486990D01*
X161573476Y-128486990D02*
X161621095Y-128534609D01*
X161621095Y-128534609D02*
X161668714Y-128629847D01*
X161668714Y-128629847D02*
X161668714Y-128867942D01*
X161668714Y-128867942D02*
X161621095Y-128963180D01*
X161621095Y-128963180D02*
X161573476Y-129010800D01*
X161573476Y-129010800D02*
X161478238Y-129058419D01*
X161478238Y-129058419D02*
X161192524Y-129058419D01*
X161192524Y-129058419D02*
X161097286Y-129010800D01*
X161097286Y-129010800D02*
X161049667Y-128963180D01*
D11*
X84142995Y-116833219D02*
X84142995Y-117642742D01*
X84142995Y-117642742D02*
X84190614Y-117737980D01*
X84190614Y-117737980D02*
X84238233Y-117785600D01*
X84238233Y-117785600D02*
X84333471Y-117833219D01*
X84333471Y-117833219D02*
X84523947Y-117833219D01*
X84523947Y-117833219D02*
X84619185Y-117785600D01*
X84619185Y-117785600D02*
X84666804Y-117737980D01*
X84666804Y-117737980D02*
X84714423Y-117642742D01*
X84714423Y-117642742D02*
X84714423Y-116833219D01*
X85714423Y-117833219D02*
X85142995Y-117833219D01*
X85428709Y-117833219D02*
X85428709Y-116833219D01*
X85428709Y-116833219D02*
X85333471Y-116976076D01*
X85333471Y-116976076D02*
X85238233Y-117071314D01*
X85238233Y-117071314D02*
X85142995Y-117118933D01*
X168513095Y-117584819D02*
X168513095Y-118394342D01*
X168513095Y-118394342D02*
X168560714Y-118489580D01*
X168560714Y-118489580D02*
X168608333Y-118537200D01*
X168608333Y-118537200D02*
X168703571Y-118584819D01*
X168703571Y-118584819D02*
X168894047Y-118584819D01*
X168894047Y-118584819D02*
X168989285Y-118537200D01*
X168989285Y-118537200D02*
X169036904Y-118489580D01*
X169036904Y-118489580D02*
X169084523Y-118394342D01*
X169084523Y-118394342D02*
X169084523Y-117584819D01*
X169989285Y-117918152D02*
X169989285Y-118584819D01*
X169751190Y-117537200D02*
X169513095Y-118251485D01*
X169513095Y-118251485D02*
X170132142Y-118251485D01*
D12*
X155382333Y-142012419D02*
X155049000Y-141536228D01*
X154810905Y-142012419D02*
X154810905Y-141012419D01*
X154810905Y-141012419D02*
X155191857Y-141012419D01*
X155191857Y-141012419D02*
X155287095Y-141060038D01*
X155287095Y-141060038D02*
X155334714Y-141107657D01*
X155334714Y-141107657D02*
X155382333Y-141202895D01*
X155382333Y-141202895D02*
X155382333Y-141345752D01*
X155382333Y-141345752D02*
X155334714Y-141440990D01*
X155334714Y-141440990D02*
X155287095Y-141488609D01*
X155287095Y-141488609D02*
X155191857Y-141536228D01*
X155191857Y-141536228D02*
X154810905Y-141536228D01*
X155763286Y-141107657D02*
X155810905Y-141060038D01*
X155810905Y-141060038D02*
X155906143Y-141012419D01*
X155906143Y-141012419D02*
X156144238Y-141012419D01*
X156144238Y-141012419D02*
X156239476Y-141060038D01*
X156239476Y-141060038D02*
X156287095Y-141107657D01*
X156287095Y-141107657D02*
X156334714Y-141202895D01*
X156334714Y-141202895D02*
X156334714Y-141298133D01*
X156334714Y-141298133D02*
X156287095Y-141440990D01*
X156287095Y-141440990D02*
X155715667Y-142012419D01*
X155715667Y-142012419D02*
X156334714Y-142012419D01*
X162623419Y-110725666D02*
X162147228Y-111058999D01*
X162623419Y-111297094D02*
X161623419Y-111297094D01*
X161623419Y-111297094D02*
X161623419Y-110916142D01*
X161623419Y-110916142D02*
X161671038Y-110820904D01*
X161671038Y-110820904D02*
X161718657Y-110773285D01*
X161718657Y-110773285D02*
X161813895Y-110725666D01*
X161813895Y-110725666D02*
X161956752Y-110725666D01*
X161956752Y-110725666D02*
X162051990Y-110773285D01*
X162051990Y-110773285D02*
X162099609Y-110820904D01*
X162099609Y-110820904D02*
X162147228Y-110916142D01*
X162147228Y-110916142D02*
X162147228Y-111297094D01*
X162051990Y-110154237D02*
X162004371Y-110249475D01*
X162004371Y-110249475D02*
X161956752Y-110297094D01*
X161956752Y-110297094D02*
X161861514Y-110344713D01*
X161861514Y-110344713D02*
X161813895Y-110344713D01*
X161813895Y-110344713D02*
X161718657Y-110297094D01*
X161718657Y-110297094D02*
X161671038Y-110249475D01*
X161671038Y-110249475D02*
X161623419Y-110154237D01*
X161623419Y-110154237D02*
X161623419Y-109963761D01*
X161623419Y-109963761D02*
X161671038Y-109868523D01*
X161671038Y-109868523D02*
X161718657Y-109820904D01*
X161718657Y-109820904D02*
X161813895Y-109773285D01*
X161813895Y-109773285D02*
X161861514Y-109773285D01*
X161861514Y-109773285D02*
X161956752Y-109820904D01*
X161956752Y-109820904D02*
X162004371Y-109868523D01*
X162004371Y-109868523D02*
X162051990Y-109963761D01*
X162051990Y-109963761D02*
X162051990Y-110154237D01*
X162051990Y-110154237D02*
X162099609Y-110249475D01*
X162099609Y-110249475D02*
X162147228Y-110297094D01*
X162147228Y-110297094D02*
X162242466Y-110344713D01*
X162242466Y-110344713D02*
X162432942Y-110344713D01*
X162432942Y-110344713D02*
X162528180Y-110297094D01*
X162528180Y-110297094D02*
X162575800Y-110249475D01*
X162575800Y-110249475D02*
X162623419Y-110154237D01*
X162623419Y-110154237D02*
X162623419Y-109963761D01*
X162623419Y-109963761D02*
X162575800Y-109868523D01*
X162575800Y-109868523D02*
X162528180Y-109820904D01*
X162528180Y-109820904D02*
X162432942Y-109773285D01*
X162432942Y-109773285D02*
X162242466Y-109773285D01*
X162242466Y-109773285D02*
X162147228Y-109820904D01*
X162147228Y-109820904D02*
X162099609Y-109868523D01*
X162099609Y-109868523D02*
X162051990Y-109963761D01*
D11*
X172324819Y-97096904D02*
X173134342Y-97096904D01*
X173134342Y-97096904D02*
X173229580Y-97049285D01*
X173229580Y-97049285D02*
X173277200Y-97001666D01*
X173277200Y-97001666D02*
X173324819Y-96906428D01*
X173324819Y-96906428D02*
X173324819Y-96715952D01*
X173324819Y-96715952D02*
X173277200Y-96620714D01*
X173277200Y-96620714D02*
X173229580Y-96573095D01*
X173229580Y-96573095D02*
X173134342Y-96525476D01*
X173134342Y-96525476D02*
X172324819Y-96525476D01*
X172324819Y-95573095D02*
X172324819Y-96049285D01*
X172324819Y-96049285D02*
X172801009Y-96096904D01*
X172801009Y-96096904D02*
X172753390Y-96049285D01*
X172753390Y-96049285D02*
X172705771Y-95954047D01*
X172705771Y-95954047D02*
X172705771Y-95715952D01*
X172705771Y-95715952D02*
X172753390Y-95620714D01*
X172753390Y-95620714D02*
X172801009Y-95573095D01*
X172801009Y-95573095D02*
X172896247Y-95525476D01*
X172896247Y-95525476D02*
X173134342Y-95525476D01*
X173134342Y-95525476D02*
X173229580Y-95573095D01*
X173229580Y-95573095D02*
X173277200Y-95620714D01*
X173277200Y-95620714D02*
X173324819Y-95715952D01*
X173324819Y-95715952D02*
X173324819Y-95954047D01*
X173324819Y-95954047D02*
X173277200Y-96049285D01*
X173277200Y-96049285D02*
X173229580Y-96096904D01*
D12*
X147508333Y-137482419D02*
X147175000Y-137006228D01*
X146936905Y-137482419D02*
X146936905Y-136482419D01*
X146936905Y-136482419D02*
X147317857Y-136482419D01*
X147317857Y-136482419D02*
X147413095Y-136530038D01*
X147413095Y-136530038D02*
X147460714Y-136577657D01*
X147460714Y-136577657D02*
X147508333Y-136672895D01*
X147508333Y-136672895D02*
X147508333Y-136815752D01*
X147508333Y-136815752D02*
X147460714Y-136910990D01*
X147460714Y-136910990D02*
X147413095Y-136958609D01*
X147413095Y-136958609D02*
X147317857Y-137006228D01*
X147317857Y-137006228D02*
X146936905Y-137006228D01*
X148365476Y-136815752D02*
X148365476Y-137482419D01*
X148127381Y-136434800D02*
X147889286Y-137149085D01*
X147889286Y-137149085D02*
X148508333Y-137149085D01*
X95092580Y-138016905D02*
X94283057Y-138016905D01*
X94283057Y-138016905D02*
X94187819Y-138064524D01*
X94187819Y-138064524D02*
X94140200Y-138112143D01*
X94140200Y-138112143D02*
X94092580Y-138207381D01*
X94092580Y-138207381D02*
X94092580Y-138397857D01*
X94092580Y-138397857D02*
X94140200Y-138493095D01*
X94140200Y-138493095D02*
X94187819Y-138540714D01*
X94187819Y-138540714D02*
X94283057Y-138588333D01*
X94283057Y-138588333D02*
X95092580Y-138588333D01*
X94997342Y-139016905D02*
X95044961Y-139064524D01*
X95044961Y-139064524D02*
X95092580Y-139159762D01*
X95092580Y-139159762D02*
X95092580Y-139397857D01*
X95092580Y-139397857D02*
X95044961Y-139493095D01*
X95044961Y-139493095D02*
X94997342Y-139540714D01*
X94997342Y-139540714D02*
X94902104Y-139588333D01*
X94902104Y-139588333D02*
X94806866Y-139588333D01*
X94806866Y-139588333D02*
X94664009Y-139540714D01*
X94664009Y-139540714D02*
X94092580Y-138969286D01*
X94092580Y-138969286D02*
X94092580Y-139588333D01*
X95092580Y-140207381D02*
X95092580Y-140302619D01*
X95092580Y-140302619D02*
X95044961Y-140397857D01*
X95044961Y-140397857D02*
X94997342Y-140445476D01*
X94997342Y-140445476D02*
X94902104Y-140493095D01*
X94902104Y-140493095D02*
X94711628Y-140540714D01*
X94711628Y-140540714D02*
X94473533Y-140540714D01*
X94473533Y-140540714D02*
X94283057Y-140493095D01*
X94283057Y-140493095D02*
X94187819Y-140445476D01*
X94187819Y-140445476D02*
X94140200Y-140397857D01*
X94140200Y-140397857D02*
X94092580Y-140302619D01*
X94092580Y-140302619D02*
X94092580Y-140207381D01*
X94092580Y-140207381D02*
X94140200Y-140112143D01*
X94140200Y-140112143D02*
X94187819Y-140064524D01*
X94187819Y-140064524D02*
X94283057Y-140016905D01*
X94283057Y-140016905D02*
X94473533Y-139969286D01*
X94473533Y-139969286D02*
X94711628Y-139969286D01*
X94711628Y-139969286D02*
X94902104Y-140016905D01*
X94902104Y-140016905D02*
X94997342Y-140064524D01*
X94997342Y-140064524D02*
X95044961Y-140112143D01*
X95044961Y-140112143D02*
X95092580Y-140207381D01*
D11*
X103648095Y-95490819D02*
X103648095Y-96300342D01*
X103648095Y-96300342D02*
X103695714Y-96395580D01*
X103695714Y-96395580D02*
X103743333Y-96443200D01*
X103743333Y-96443200D02*
X103838571Y-96490819D01*
X103838571Y-96490819D02*
X104029047Y-96490819D01*
X104029047Y-96490819D02*
X104124285Y-96443200D01*
X104124285Y-96443200D02*
X104171904Y-96395580D01*
X104171904Y-96395580D02*
X104219523Y-96300342D01*
X104219523Y-96300342D02*
X104219523Y-95490819D01*
X104600476Y-95490819D02*
X105219523Y-95490819D01*
X105219523Y-95490819D02*
X104886190Y-95871771D01*
X104886190Y-95871771D02*
X105029047Y-95871771D01*
X105029047Y-95871771D02*
X105124285Y-95919390D01*
X105124285Y-95919390D02*
X105171904Y-95967009D01*
X105171904Y-95967009D02*
X105219523Y-96062247D01*
X105219523Y-96062247D02*
X105219523Y-96300342D01*
X105219523Y-96300342D02*
X105171904Y-96395580D01*
X105171904Y-96395580D02*
X105124285Y-96443200D01*
X105124285Y-96443200D02*
X105029047Y-96490819D01*
X105029047Y-96490819D02*
X104743333Y-96490819D01*
X104743333Y-96490819D02*
X104648095Y-96443200D01*
X104648095Y-96443200D02*
X104600476Y-96395580D01*
X141671905Y-105099819D02*
X141671905Y-105909342D01*
X141671905Y-105909342D02*
X141719524Y-106004580D01*
X141719524Y-106004580D02*
X141767143Y-106052200D01*
X141767143Y-106052200D02*
X141862381Y-106099819D01*
X141862381Y-106099819D02*
X142052857Y-106099819D01*
X142052857Y-106099819D02*
X142148095Y-106052200D01*
X142148095Y-106052200D02*
X142195714Y-106004580D01*
X142195714Y-106004580D02*
X142243333Y-105909342D01*
X142243333Y-105909342D02*
X142243333Y-105099819D01*
X143243333Y-106099819D02*
X142671905Y-106099819D01*
X142957619Y-106099819D02*
X142957619Y-105099819D01*
X142957619Y-105099819D02*
X142862381Y-105242676D01*
X142862381Y-105242676D02*
X142767143Y-105337914D01*
X142767143Y-105337914D02*
X142671905Y-105385533D01*
X143576667Y-105099819D02*
X144195714Y-105099819D01*
X144195714Y-105099819D02*
X143862381Y-105480771D01*
X143862381Y-105480771D02*
X144005238Y-105480771D01*
X144005238Y-105480771D02*
X144100476Y-105528390D01*
X144100476Y-105528390D02*
X144148095Y-105576009D01*
X144148095Y-105576009D02*
X144195714Y-105671247D01*
X144195714Y-105671247D02*
X144195714Y-105909342D01*
X144195714Y-105909342D02*
X144148095Y-106004580D01*
X144148095Y-106004580D02*
X144100476Y-106052200D01*
X144100476Y-106052200D02*
X144005238Y-106099819D01*
X144005238Y-106099819D02*
X143719524Y-106099819D01*
X143719524Y-106099819D02*
X143624286Y-106052200D01*
X143624286Y-106052200D02*
X143576667Y-106004580D01*
D12*
X125692580Y-138016905D02*
X124883057Y-138016905D01*
X124883057Y-138016905D02*
X124787819Y-138064524D01*
X124787819Y-138064524D02*
X124740200Y-138112143D01*
X124740200Y-138112143D02*
X124692580Y-138207381D01*
X124692580Y-138207381D02*
X124692580Y-138397857D01*
X124692580Y-138397857D02*
X124740200Y-138493095D01*
X124740200Y-138493095D02*
X124787819Y-138540714D01*
X124787819Y-138540714D02*
X124883057Y-138588333D01*
X124883057Y-138588333D02*
X125692580Y-138588333D01*
X124692580Y-139588333D02*
X124692580Y-139016905D01*
X124692580Y-139302619D02*
X125692580Y-139302619D01*
X125692580Y-139302619D02*
X125549723Y-139207381D01*
X125549723Y-139207381D02*
X125454485Y-139112143D01*
X125454485Y-139112143D02*
X125406866Y-139016905D01*
X125597342Y-139969286D02*
X125644961Y-140016905D01*
X125644961Y-140016905D02*
X125692580Y-140112143D01*
X125692580Y-140112143D02*
X125692580Y-140350238D01*
X125692580Y-140350238D02*
X125644961Y-140445476D01*
X125644961Y-140445476D02*
X125597342Y-140493095D01*
X125597342Y-140493095D02*
X125502104Y-140540714D01*
X125502104Y-140540714D02*
X125406866Y-140540714D01*
X125406866Y-140540714D02*
X125264009Y-140493095D01*
X125264009Y-140493095D02*
X124692580Y-139921667D01*
X124692580Y-139921667D02*
X124692580Y-140540714D01*
X98262580Y-55057142D02*
X98738771Y-54723809D01*
X98262580Y-54485714D02*
X99262580Y-54485714D01*
X99262580Y-54485714D02*
X99262580Y-54866666D01*
X99262580Y-54866666D02*
X99214961Y-54961904D01*
X99214961Y-54961904D02*
X99167342Y-55009523D01*
X99167342Y-55009523D02*
X99072104Y-55057142D01*
X99072104Y-55057142D02*
X98929247Y-55057142D01*
X98929247Y-55057142D02*
X98834009Y-55009523D01*
X98834009Y-55009523D02*
X98786390Y-54961904D01*
X98786390Y-54961904D02*
X98738771Y-54866666D01*
X98738771Y-54866666D02*
X98738771Y-54485714D01*
X98262580Y-56009523D02*
X98262580Y-55438095D01*
X98262580Y-55723809D02*
X99262580Y-55723809D01*
X99262580Y-55723809D02*
X99119723Y-55628571D01*
X99119723Y-55628571D02*
X99024485Y-55533333D01*
X99024485Y-55533333D02*
X98976866Y-55438095D01*
X99262580Y-56628571D02*
X99262580Y-56723809D01*
X99262580Y-56723809D02*
X99214961Y-56819047D01*
X99214961Y-56819047D02*
X99167342Y-56866666D01*
X99167342Y-56866666D02*
X99072104Y-56914285D01*
X99072104Y-56914285D02*
X98881628Y-56961904D01*
X98881628Y-56961904D02*
X98643533Y-56961904D01*
X98643533Y-56961904D02*
X98453057Y-56914285D01*
X98453057Y-56914285D02*
X98357819Y-56866666D01*
X98357819Y-56866666D02*
X98310200Y-56819047D01*
X98310200Y-56819047D02*
X98262580Y-56723809D01*
X98262580Y-56723809D02*
X98262580Y-56628571D01*
X98262580Y-56628571D02*
X98310200Y-56533333D01*
X98310200Y-56533333D02*
X98357819Y-56485714D01*
X98357819Y-56485714D02*
X98453057Y-56438095D01*
X98453057Y-56438095D02*
X98643533Y-56390476D01*
X98643533Y-56390476D02*
X98881628Y-56390476D01*
X98881628Y-56390476D02*
X99072104Y-56438095D01*
X99072104Y-56438095D02*
X99167342Y-56485714D01*
X99167342Y-56485714D02*
X99214961Y-56533333D01*
X99214961Y-56533333D02*
X99262580Y-56628571D01*
X163359419Y-85023666D02*
X162883228Y-85356999D01*
X163359419Y-85595094D02*
X162359419Y-85595094D01*
X162359419Y-85595094D02*
X162359419Y-85214142D01*
X162359419Y-85214142D02*
X162407038Y-85118904D01*
X162407038Y-85118904D02*
X162454657Y-85071285D01*
X162454657Y-85071285D02*
X162549895Y-85023666D01*
X162549895Y-85023666D02*
X162692752Y-85023666D01*
X162692752Y-85023666D02*
X162787990Y-85071285D01*
X162787990Y-85071285D02*
X162835609Y-85118904D01*
X162835609Y-85118904D02*
X162883228Y-85214142D01*
X162883228Y-85214142D02*
X162883228Y-85595094D01*
X162359419Y-84166523D02*
X162359419Y-84356999D01*
X162359419Y-84356999D02*
X162407038Y-84452237D01*
X162407038Y-84452237D02*
X162454657Y-84499856D01*
X162454657Y-84499856D02*
X162597514Y-84595094D01*
X162597514Y-84595094D02*
X162787990Y-84642713D01*
X162787990Y-84642713D02*
X163168942Y-84642713D01*
X163168942Y-84642713D02*
X163264180Y-84595094D01*
X163264180Y-84595094D02*
X163311800Y-84547475D01*
X163311800Y-84547475D02*
X163359419Y-84452237D01*
X163359419Y-84452237D02*
X163359419Y-84261761D01*
X163359419Y-84261761D02*
X163311800Y-84166523D01*
X163311800Y-84166523D02*
X163264180Y-84118904D01*
X163264180Y-84118904D02*
X163168942Y-84071285D01*
X163168942Y-84071285D02*
X162930847Y-84071285D01*
X162930847Y-84071285D02*
X162835609Y-84118904D01*
X162835609Y-84118904D02*
X162787990Y-84166523D01*
X162787990Y-84166523D02*
X162740371Y-84261761D01*
X162740371Y-84261761D02*
X162740371Y-84452237D01*
X162740371Y-84452237D02*
X162787990Y-84547475D01*
X162787990Y-84547475D02*
X162835609Y-84595094D01*
X162835609Y-84595094D02*
X162930847Y-84642713D01*
X110332580Y-138016905D02*
X109523057Y-138016905D01*
X109523057Y-138016905D02*
X109427819Y-138064524D01*
X109427819Y-138064524D02*
X109380200Y-138112143D01*
X109380200Y-138112143D02*
X109332580Y-138207381D01*
X109332580Y-138207381D02*
X109332580Y-138397857D01*
X109332580Y-138397857D02*
X109380200Y-138493095D01*
X109380200Y-138493095D02*
X109427819Y-138540714D01*
X109427819Y-138540714D02*
X109523057Y-138588333D01*
X109523057Y-138588333D02*
X110332580Y-138588333D01*
X109332580Y-139588333D02*
X109332580Y-139016905D01*
X109332580Y-139302619D02*
X110332580Y-139302619D01*
X110332580Y-139302619D02*
X110189723Y-139207381D01*
X110189723Y-139207381D02*
X110094485Y-139112143D01*
X110094485Y-139112143D02*
X110046866Y-139016905D01*
X110332580Y-140445476D02*
X110332580Y-140255000D01*
X110332580Y-140255000D02*
X110284961Y-140159762D01*
X110284961Y-140159762D02*
X110237342Y-140112143D01*
X110237342Y-140112143D02*
X110094485Y-140016905D01*
X110094485Y-140016905D02*
X109904009Y-139969286D01*
X109904009Y-139969286D02*
X109523057Y-139969286D01*
X109523057Y-139969286D02*
X109427819Y-140016905D01*
X109427819Y-140016905D02*
X109380200Y-140064524D01*
X109380200Y-140064524D02*
X109332580Y-140159762D01*
X109332580Y-140159762D02*
X109332580Y-140350238D01*
X109332580Y-140350238D02*
X109380200Y-140445476D01*
X109380200Y-140445476D02*
X109427819Y-140493095D01*
X109427819Y-140493095D02*
X109523057Y-140540714D01*
X109523057Y-140540714D02*
X109761152Y-140540714D01*
X109761152Y-140540714D02*
X109856390Y-140493095D01*
X109856390Y-140493095D02*
X109904009Y-140445476D01*
X109904009Y-140445476D02*
X109951628Y-140350238D01*
X109951628Y-140350238D02*
X109951628Y-140159762D01*
X109951628Y-140159762D02*
X109904009Y-140064524D01*
X109904009Y-140064524D02*
X109856390Y-140016905D01*
X109856390Y-140016905D02*
X109761152Y-139969286D01*
D11*
X171810095Y-102603819D02*
X171810095Y-103413342D01*
X171810095Y-103413342D02*
X171857714Y-103508580D01*
X171857714Y-103508580D02*
X171905333Y-103556200D01*
X171905333Y-103556200D02*
X172000571Y-103603819D01*
X172000571Y-103603819D02*
X172191047Y-103603819D01*
X172191047Y-103603819D02*
X172286285Y-103556200D01*
X172286285Y-103556200D02*
X172333904Y-103508580D01*
X172333904Y-103508580D02*
X172381523Y-103413342D01*
X172381523Y-103413342D02*
X172381523Y-102603819D01*
X173000571Y-103032390D02*
X172905333Y-102984771D01*
X172905333Y-102984771D02*
X172857714Y-102937152D01*
X172857714Y-102937152D02*
X172810095Y-102841914D01*
X172810095Y-102841914D02*
X172810095Y-102794295D01*
X172810095Y-102794295D02*
X172857714Y-102699057D01*
X172857714Y-102699057D02*
X172905333Y-102651438D01*
X172905333Y-102651438D02*
X173000571Y-102603819D01*
X173000571Y-102603819D02*
X173191047Y-102603819D01*
X173191047Y-102603819D02*
X173286285Y-102651438D01*
X173286285Y-102651438D02*
X173333904Y-102699057D01*
X173333904Y-102699057D02*
X173381523Y-102794295D01*
X173381523Y-102794295D02*
X173381523Y-102841914D01*
X173381523Y-102841914D02*
X173333904Y-102937152D01*
X173333904Y-102937152D02*
X173286285Y-102984771D01*
X173286285Y-102984771D02*
X173191047Y-103032390D01*
X173191047Y-103032390D02*
X173000571Y-103032390D01*
X173000571Y-103032390D02*
X172905333Y-103080009D01*
X172905333Y-103080009D02*
X172857714Y-103127628D01*
X172857714Y-103127628D02*
X172810095Y-103222866D01*
X172810095Y-103222866D02*
X172810095Y-103413342D01*
X172810095Y-103413342D02*
X172857714Y-103508580D01*
X172857714Y-103508580D02*
X172905333Y-103556200D01*
X172905333Y-103556200D02*
X173000571Y-103603819D01*
X173000571Y-103603819D02*
X173191047Y-103603819D01*
X173191047Y-103603819D02*
X173286285Y-103556200D01*
X173286285Y-103556200D02*
X173333904Y-103508580D01*
X173333904Y-103508580D02*
X173381523Y-103413342D01*
X173381523Y-103413342D02*
X173381523Y-103222866D01*
X173381523Y-103222866D02*
X173333904Y-103127628D01*
X173333904Y-103127628D02*
X173286285Y-103080009D01*
X173286285Y-103080009D02*
X173191047Y-103032390D01*
D12*
X91657142Y-110257419D02*
X91323809Y-109781228D01*
X91085714Y-110257419D02*
X91085714Y-109257419D01*
X91085714Y-109257419D02*
X91466666Y-109257419D01*
X91466666Y-109257419D02*
X91561904Y-109305038D01*
X91561904Y-109305038D02*
X91609523Y-109352657D01*
X91609523Y-109352657D02*
X91657142Y-109447895D01*
X91657142Y-109447895D02*
X91657142Y-109590752D01*
X91657142Y-109590752D02*
X91609523Y-109685990D01*
X91609523Y-109685990D02*
X91561904Y-109733609D01*
X91561904Y-109733609D02*
X91466666Y-109781228D01*
X91466666Y-109781228D02*
X91085714Y-109781228D01*
X92609523Y-110257419D02*
X92038095Y-110257419D01*
X92323809Y-110257419D02*
X92323809Y-109257419D01*
X92323809Y-109257419D02*
X92228571Y-109400276D01*
X92228571Y-109400276D02*
X92133333Y-109495514D01*
X92133333Y-109495514D02*
X92038095Y-109543133D01*
X92990476Y-109352657D02*
X93038095Y-109305038D01*
X93038095Y-109305038D02*
X93133333Y-109257419D01*
X93133333Y-109257419D02*
X93371428Y-109257419D01*
X93371428Y-109257419D02*
X93466666Y-109305038D01*
X93466666Y-109305038D02*
X93514285Y-109352657D01*
X93514285Y-109352657D02*
X93561904Y-109447895D01*
X93561904Y-109447895D02*
X93561904Y-109543133D01*
X93561904Y-109543133D02*
X93514285Y-109685990D01*
X93514285Y-109685990D02*
X92942857Y-110257419D01*
X92942857Y-110257419D02*
X93561904Y-110257419D01*
D11*
X172038095Y-77424819D02*
X172038095Y-78234342D01*
X172038095Y-78234342D02*
X172085714Y-78329580D01*
X172085714Y-78329580D02*
X172133333Y-78377200D01*
X172133333Y-78377200D02*
X172228571Y-78424819D01*
X172228571Y-78424819D02*
X172419047Y-78424819D01*
X172419047Y-78424819D02*
X172514285Y-78377200D01*
X172514285Y-78377200D02*
X172561904Y-78329580D01*
X172561904Y-78329580D02*
X172609523Y-78234342D01*
X172609523Y-78234342D02*
X172609523Y-77424819D01*
X172990476Y-77424819D02*
X173657142Y-77424819D01*
X173657142Y-77424819D02*
X173228571Y-78424819D01*
D12*
X87472580Y-138016905D02*
X86663057Y-138016905D01*
X86663057Y-138016905D02*
X86567819Y-138064524D01*
X86567819Y-138064524D02*
X86520200Y-138112143D01*
X86520200Y-138112143D02*
X86472580Y-138207381D01*
X86472580Y-138207381D02*
X86472580Y-138397857D01*
X86472580Y-138397857D02*
X86520200Y-138493095D01*
X86520200Y-138493095D02*
X86567819Y-138540714D01*
X86567819Y-138540714D02*
X86663057Y-138588333D01*
X86663057Y-138588333D02*
X87472580Y-138588333D01*
X87377342Y-139016905D02*
X87424961Y-139064524D01*
X87424961Y-139064524D02*
X87472580Y-139159762D01*
X87472580Y-139159762D02*
X87472580Y-139397857D01*
X87472580Y-139397857D02*
X87424961Y-139493095D01*
X87424961Y-139493095D02*
X87377342Y-139540714D01*
X87377342Y-139540714D02*
X87282104Y-139588333D01*
X87282104Y-139588333D02*
X87186866Y-139588333D01*
X87186866Y-139588333D02*
X87044009Y-139540714D01*
X87044009Y-139540714D02*
X86472580Y-138969286D01*
X86472580Y-138969286D02*
X86472580Y-139588333D01*
X86472580Y-140540714D02*
X86472580Y-139969286D01*
X86472580Y-140255000D02*
X87472580Y-140255000D01*
X87472580Y-140255000D02*
X87329723Y-140159762D01*
X87329723Y-140159762D02*
X87234485Y-140064524D01*
X87234485Y-140064524D02*
X87186866Y-139969286D01*
D11*
X129771905Y-52499819D02*
X129771905Y-53309342D01*
X129771905Y-53309342D02*
X129819524Y-53404580D01*
X129819524Y-53404580D02*
X129867143Y-53452200D01*
X129867143Y-53452200D02*
X129962381Y-53499819D01*
X129962381Y-53499819D02*
X130152857Y-53499819D01*
X130152857Y-53499819D02*
X130248095Y-53452200D01*
X130248095Y-53452200D02*
X130295714Y-53404580D01*
X130295714Y-53404580D02*
X130343333Y-53309342D01*
X130343333Y-53309342D02*
X130343333Y-52499819D01*
X131343333Y-53499819D02*
X130771905Y-53499819D01*
X131057619Y-53499819D02*
X131057619Y-52499819D01*
X131057619Y-52499819D02*
X130962381Y-52642676D01*
X130962381Y-52642676D02*
X130867143Y-52737914D01*
X130867143Y-52737914D02*
X130771905Y-52785533D01*
X131962381Y-52499819D02*
X132057619Y-52499819D01*
X132057619Y-52499819D02*
X132152857Y-52547438D01*
X132152857Y-52547438D02*
X132200476Y-52595057D01*
X132200476Y-52595057D02*
X132248095Y-52690295D01*
X132248095Y-52690295D02*
X132295714Y-52880771D01*
X132295714Y-52880771D02*
X132295714Y-53118866D01*
X132295714Y-53118866D02*
X132248095Y-53309342D01*
X132248095Y-53309342D02*
X132200476Y-53404580D01*
X132200476Y-53404580D02*
X132152857Y-53452200D01*
X132152857Y-53452200D02*
X132057619Y-53499819D01*
X132057619Y-53499819D02*
X131962381Y-53499819D01*
X131962381Y-53499819D02*
X131867143Y-53452200D01*
X131867143Y-53452200D02*
X131819524Y-53404580D01*
X131819524Y-53404580D02*
X131771905Y-53309342D01*
X131771905Y-53309342D02*
X131724286Y-53118866D01*
X131724286Y-53118866D02*
X131724286Y-52880771D01*
X131724286Y-52880771D02*
X131771905Y-52690295D01*
X131771905Y-52690295D02*
X131819524Y-52595057D01*
X131819524Y-52595057D02*
X131867143Y-52547438D01*
X131867143Y-52547438D02*
X131962381Y-52499819D01*
D12*
X163613419Y-80451666D02*
X163137228Y-80784999D01*
X163613419Y-81023094D02*
X162613419Y-81023094D01*
X162613419Y-81023094D02*
X162613419Y-80642142D01*
X162613419Y-80642142D02*
X162661038Y-80546904D01*
X162661038Y-80546904D02*
X162708657Y-80499285D01*
X162708657Y-80499285D02*
X162803895Y-80451666D01*
X162803895Y-80451666D02*
X162946752Y-80451666D01*
X162946752Y-80451666D02*
X163041990Y-80499285D01*
X163041990Y-80499285D02*
X163089609Y-80546904D01*
X163089609Y-80546904D02*
X163137228Y-80642142D01*
X163137228Y-80642142D02*
X163137228Y-81023094D01*
X163613419Y-79499285D02*
X163613419Y-80070713D01*
X163613419Y-79784999D02*
X162613419Y-79784999D01*
X162613419Y-79784999D02*
X162756276Y-79880237D01*
X162756276Y-79880237D02*
X162851514Y-79975475D01*
X162851514Y-79975475D02*
X162899133Y-80070713D01*
X155128333Y-123470419D02*
X154795000Y-122994228D01*
X154556905Y-123470419D02*
X154556905Y-122470419D01*
X154556905Y-122470419D02*
X154937857Y-122470419D01*
X154937857Y-122470419D02*
X155033095Y-122518038D01*
X155033095Y-122518038D02*
X155080714Y-122565657D01*
X155080714Y-122565657D02*
X155128333Y-122660895D01*
X155128333Y-122660895D02*
X155128333Y-122803752D01*
X155128333Y-122803752D02*
X155080714Y-122898990D01*
X155080714Y-122898990D02*
X155033095Y-122946609D01*
X155033095Y-122946609D02*
X154937857Y-122994228D01*
X154937857Y-122994228D02*
X154556905Y-122994228D01*
X156033095Y-122470419D02*
X155556905Y-122470419D01*
X155556905Y-122470419D02*
X155509286Y-122946609D01*
X155509286Y-122946609D02*
X155556905Y-122898990D01*
X155556905Y-122898990D02*
X155652143Y-122851371D01*
X155652143Y-122851371D02*
X155890238Y-122851371D01*
X155890238Y-122851371D02*
X155985476Y-122898990D01*
X155985476Y-122898990D02*
X156033095Y-122946609D01*
X156033095Y-122946609D02*
X156080714Y-123041847D01*
X156080714Y-123041847D02*
X156080714Y-123279942D01*
X156080714Y-123279942D02*
X156033095Y-123375180D01*
X156033095Y-123375180D02*
X155985476Y-123422800D01*
X155985476Y-123422800D02*
X155890238Y-123470419D01*
X155890238Y-123470419D02*
X155652143Y-123470419D01*
X155652143Y-123470419D02*
X155556905Y-123422800D01*
X155556905Y-123422800D02*
X155509286Y-123375180D01*
D11*
X112764819Y-116928094D02*
X113574342Y-116928094D01*
X113574342Y-116928094D02*
X113669580Y-116880475D01*
X113669580Y-116880475D02*
X113717200Y-116832856D01*
X113717200Y-116832856D02*
X113764819Y-116737618D01*
X113764819Y-116737618D02*
X113764819Y-116547142D01*
X113764819Y-116547142D02*
X113717200Y-116451904D01*
X113717200Y-116451904D02*
X113669580Y-116404285D01*
X113669580Y-116404285D02*
X113574342Y-116356666D01*
X113574342Y-116356666D02*
X112764819Y-116356666D01*
X113764819Y-115356666D02*
X113764819Y-115928094D01*
X113764819Y-115642380D02*
X112764819Y-115642380D01*
X112764819Y-115642380D02*
X112907676Y-115737618D01*
X112907676Y-115737618D02*
X113002914Y-115832856D01*
X113002914Y-115832856D02*
X113050533Y-115928094D01*
X112764819Y-115023332D02*
X112764819Y-114356666D01*
X112764819Y-114356666D02*
X113764819Y-114785237D01*
D12*
X92466666Y-97062580D02*
X92799999Y-97538771D01*
X93038094Y-97062580D02*
X93038094Y-98062580D01*
X93038094Y-98062580D02*
X92657142Y-98062580D01*
X92657142Y-98062580D02*
X92561904Y-98014961D01*
X92561904Y-98014961D02*
X92514285Y-97967342D01*
X92514285Y-97967342D02*
X92466666Y-97872104D01*
X92466666Y-97872104D02*
X92466666Y-97729247D01*
X92466666Y-97729247D02*
X92514285Y-97634009D01*
X92514285Y-97634009D02*
X92561904Y-97586390D01*
X92561904Y-97586390D02*
X92657142Y-97538771D01*
X92657142Y-97538771D02*
X93038094Y-97538771D01*
X91990475Y-97062580D02*
X91799999Y-97062580D01*
X91799999Y-97062580D02*
X91704761Y-97110200D01*
X91704761Y-97110200D02*
X91657142Y-97157819D01*
X91657142Y-97157819D02*
X91561904Y-97300676D01*
X91561904Y-97300676D02*
X91514285Y-97491152D01*
X91514285Y-97491152D02*
X91514285Y-97872104D01*
X91514285Y-97872104D02*
X91561904Y-97967342D01*
X91561904Y-97967342D02*
X91609523Y-98014961D01*
X91609523Y-98014961D02*
X91704761Y-98062580D01*
X91704761Y-98062580D02*
X91895237Y-98062580D01*
X91895237Y-98062580D02*
X91990475Y-98014961D01*
X91990475Y-98014961D02*
X92038094Y-97967342D01*
X92038094Y-97967342D02*
X92085713Y-97872104D01*
X92085713Y-97872104D02*
X92085713Y-97634009D01*
X92085713Y-97634009D02*
X92038094Y-97538771D01*
X92038094Y-97538771D02*
X91990475Y-97491152D01*
X91990475Y-97491152D02*
X91895237Y-97443533D01*
X91895237Y-97443533D02*
X91704761Y-97443533D01*
X91704761Y-97443533D02*
X91609523Y-97491152D01*
X91609523Y-97491152D02*
X91561904Y-97538771D01*
X91561904Y-97538771D02*
X91514285Y-97634009D01*
D11*
X166828095Y-71284819D02*
X166828095Y-72094342D01*
X166828095Y-72094342D02*
X166875714Y-72189580D01*
X166875714Y-72189580D02*
X166923333Y-72237200D01*
X166923333Y-72237200D02*
X167018571Y-72284819D01*
X167018571Y-72284819D02*
X167209047Y-72284819D01*
X167209047Y-72284819D02*
X167304285Y-72237200D01*
X167304285Y-72237200D02*
X167351904Y-72189580D01*
X167351904Y-72189580D02*
X167399523Y-72094342D01*
X167399523Y-72094342D02*
X167399523Y-71284819D01*
X168304285Y-71284819D02*
X168113809Y-71284819D01*
X168113809Y-71284819D02*
X168018571Y-71332438D01*
X168018571Y-71332438D02*
X167970952Y-71380057D01*
X167970952Y-71380057D02*
X167875714Y-71522914D01*
X167875714Y-71522914D02*
X167828095Y-71713390D01*
X167828095Y-71713390D02*
X167828095Y-72094342D01*
X167828095Y-72094342D02*
X167875714Y-72189580D01*
X167875714Y-72189580D02*
X167923333Y-72237200D01*
X167923333Y-72237200D02*
X168018571Y-72284819D01*
X168018571Y-72284819D02*
X168209047Y-72284819D01*
X168209047Y-72284819D02*
X168304285Y-72237200D01*
X168304285Y-72237200D02*
X168351904Y-72189580D01*
X168351904Y-72189580D02*
X168399523Y-72094342D01*
X168399523Y-72094342D02*
X168399523Y-71856247D01*
X168399523Y-71856247D02*
X168351904Y-71761009D01*
X168351904Y-71761009D02*
X168304285Y-71713390D01*
X168304285Y-71713390D02*
X168209047Y-71665771D01*
X168209047Y-71665771D02*
X168018571Y-71665771D01*
X168018571Y-71665771D02*
X167923333Y-71713390D01*
X167923333Y-71713390D02*
X167875714Y-71761009D01*
X167875714Y-71761009D02*
X167828095Y-71856247D01*
X99848095Y-63949819D02*
X99848095Y-64759342D01*
X99848095Y-64759342D02*
X99895714Y-64854580D01*
X99895714Y-64854580D02*
X99943333Y-64902200D01*
X99943333Y-64902200D02*
X100038571Y-64949819D01*
X100038571Y-64949819D02*
X100229047Y-64949819D01*
X100229047Y-64949819D02*
X100324285Y-64902200D01*
X100324285Y-64902200D02*
X100371904Y-64854580D01*
X100371904Y-64854580D02*
X100419523Y-64759342D01*
X100419523Y-64759342D02*
X100419523Y-63949819D01*
X100848095Y-64045057D02*
X100895714Y-63997438D01*
X100895714Y-63997438D02*
X100990952Y-63949819D01*
X100990952Y-63949819D02*
X101229047Y-63949819D01*
X101229047Y-63949819D02*
X101324285Y-63997438D01*
X101324285Y-63997438D02*
X101371904Y-64045057D01*
X101371904Y-64045057D02*
X101419523Y-64140295D01*
X101419523Y-64140295D02*
X101419523Y-64235533D01*
X101419523Y-64235533D02*
X101371904Y-64378390D01*
X101371904Y-64378390D02*
X100800476Y-64949819D01*
X100800476Y-64949819D02*
X101419523Y-64949819D01*
X146771905Y-52499819D02*
X146771905Y-53309342D01*
X146771905Y-53309342D02*
X146819524Y-53404580D01*
X146819524Y-53404580D02*
X146867143Y-53452200D01*
X146867143Y-53452200D02*
X146962381Y-53499819D01*
X146962381Y-53499819D02*
X147152857Y-53499819D01*
X147152857Y-53499819D02*
X147248095Y-53452200D01*
X147248095Y-53452200D02*
X147295714Y-53404580D01*
X147295714Y-53404580D02*
X147343333Y-53309342D01*
X147343333Y-53309342D02*
X147343333Y-52499819D01*
X148343333Y-53499819D02*
X147771905Y-53499819D01*
X148057619Y-53499819D02*
X148057619Y-52499819D01*
X148057619Y-52499819D02*
X147962381Y-52642676D01*
X147962381Y-52642676D02*
X147867143Y-52737914D01*
X147867143Y-52737914D02*
X147771905Y-52785533D01*
X149295714Y-53499819D02*
X148724286Y-53499819D01*
X149010000Y-53499819D02*
X149010000Y-52499819D01*
X149010000Y-52499819D02*
X148914762Y-52642676D01*
X148914762Y-52642676D02*
X148819524Y-52737914D01*
X148819524Y-52737914D02*
X148724286Y-52785533D01*
D12*
X117952580Y-138016905D02*
X117143057Y-138016905D01*
X117143057Y-138016905D02*
X117047819Y-138064524D01*
X117047819Y-138064524D02*
X117000200Y-138112143D01*
X117000200Y-138112143D02*
X116952580Y-138207381D01*
X116952580Y-138207381D02*
X116952580Y-138397857D01*
X116952580Y-138397857D02*
X117000200Y-138493095D01*
X117000200Y-138493095D02*
X117047819Y-138540714D01*
X117047819Y-138540714D02*
X117143057Y-138588333D01*
X117143057Y-138588333D02*
X117952580Y-138588333D01*
X116952580Y-139588333D02*
X116952580Y-139016905D01*
X116952580Y-139302619D02*
X117952580Y-139302619D01*
X117952580Y-139302619D02*
X117809723Y-139207381D01*
X117809723Y-139207381D02*
X117714485Y-139112143D01*
X117714485Y-139112143D02*
X117666866Y-139016905D01*
X117952580Y-140493095D02*
X117952580Y-140016905D01*
X117952580Y-140016905D02*
X117476390Y-139969286D01*
X117476390Y-139969286D02*
X117524009Y-140016905D01*
X117524009Y-140016905D02*
X117571628Y-140112143D01*
X117571628Y-140112143D02*
X117571628Y-140350238D01*
X117571628Y-140350238D02*
X117524009Y-140445476D01*
X117524009Y-140445476D02*
X117476390Y-140493095D01*
X117476390Y-140493095D02*
X117381152Y-140540714D01*
X117381152Y-140540714D02*
X117143057Y-140540714D01*
X117143057Y-140540714D02*
X117047819Y-140493095D01*
X117047819Y-140493095D02*
X117000200Y-140445476D01*
X117000200Y-140445476D02*
X116952580Y-140350238D01*
X116952580Y-140350238D02*
X116952580Y-140112143D01*
X116952580Y-140112143D02*
X117000200Y-140016905D01*
X117000200Y-140016905D02*
X117047819Y-139969286D01*
D13*
%TO.C,C1*%
X162396225Y-143374000D02*
X162896225Y-143374000D01*
X162646225Y-143124000D02*
X162646225Y-143624000D01*
X162805003Y-143789000D02*
G75*
G02*
X167596997Y-143789000I2395997J-1060001D01*
G01*
X167596997Y-145909000D02*
G75*
G02*
X162805003Y-145909000I-2395997J1060001D01*
G01*
D12*
%TO.C,R11*%
X93855000Y-61200000D02*
X94490000Y-61200000D01*
X102110000Y-61200000D02*
X102745000Y-61200000D01*
X102110000Y-59930000D02*
X94490000Y-59930000D01*
X94490000Y-62470000D01*
X102110000Y-62470000D01*
X102110000Y-59930000D01*
D13*
%TO.C,U9*%
X120460000Y-86745000D02*
X120460000Y-104645000D01*
X120460000Y-104645000D02*
X125760000Y-104645000D01*
X122110000Y-86745000D02*
X120460000Y-86745000D01*
X125760000Y-86745000D02*
X124110000Y-86745000D01*
X125760000Y-104645000D02*
X125760000Y-86745000D01*
X124110000Y-86745000D02*
G75*
G02*
X122110000Y-86745000I-1000000J0D01*
G01*
%TO.C,U14*%
X137360000Y-78570000D02*
X137360000Y-96470000D01*
X137360000Y-96470000D02*
X142660000Y-96470000D01*
X139010000Y-78570000D02*
X137360000Y-78570000D01*
X142660000Y-78570000D02*
X141010000Y-78570000D01*
X142660000Y-96470000D02*
X142660000Y-78570000D01*
X141010000Y-78570000D02*
G75*
G02*
X139010000Y-78570000I-1000000J0D01*
G01*
%TO.C,U19*%
X113660000Y-53595000D02*
X113660000Y-74035000D01*
X113660000Y-74035000D02*
X118960000Y-74035000D01*
X115310000Y-53595000D02*
X113660000Y-53595000D01*
X118960000Y-53595000D02*
X117310000Y-53595000D01*
X118960000Y-74035000D02*
X118960000Y-53595000D01*
X117310000Y-53595000D02*
G75*
G02*
X115310000Y-53595000I-1000000J0D01*
G01*
D12*
%TO.C,R7*%
X158602000Y-105225000D02*
X157967000Y-105225000D01*
X166857000Y-105225000D02*
X166222000Y-105225000D01*
X158602000Y-106495000D02*
X166222000Y-106495000D01*
X166222000Y-103955000D01*
X158602000Y-103955000D01*
X158602000Y-106495000D01*
%TO.C,U18*%
X109290000Y-134175000D02*
X101670000Y-134175000D01*
X101670000Y-146875000D01*
X109290000Y-146875000D01*
X109290000Y-134175000D01*
%TO.C,R3*%
X160883000Y-125291000D02*
X160883000Y-124656000D01*
X160883000Y-133546000D02*
X160883000Y-132911000D01*
X159613000Y-125291000D02*
X162153000Y-125291000D01*
X162153000Y-132911000D01*
X159613000Y-132911000D01*
X159613000Y-125291000D01*
D13*
%TO.C,U1*%
X83574900Y-113778400D02*
X83574900Y-57838400D01*
X86234900Y-57838400D02*
X83574900Y-57838400D01*
X86234900Y-113778400D02*
X83574900Y-113778400D01*
X86234900Y-113778400D02*
X86234900Y-57838400D01*
X86234900Y-115048400D02*
X86234900Y-116378400D01*
X86234900Y-116378400D02*
X84904900Y-116378400D01*
%TO.C,U4*%
X166625000Y-119130000D02*
X166625000Y-137030000D01*
X166625000Y-137030000D02*
X171925000Y-137030000D01*
X168275000Y-119130000D02*
X166625000Y-119130000D01*
X171925000Y-119130000D02*
X170275000Y-119130000D01*
X171925000Y-137030000D02*
X171925000Y-119130000D01*
X170275000Y-119130000D02*
G75*
G02*
X168275000Y-119130000I-1000000J0D01*
G01*
D12*
%TO.C,R2*%
X155549000Y-138245000D02*
X155549000Y-137610000D01*
X155549000Y-146500000D02*
X155549000Y-145865000D01*
X154279000Y-138245000D02*
X156819000Y-138245000D01*
X156819000Y-145865000D01*
X154279000Y-145865000D01*
X154279000Y-138245000D01*
%TO.C,R8*%
X158856000Y-110559000D02*
X158221000Y-110559000D01*
X167111000Y-110559000D02*
X166476000Y-110559000D01*
X158856000Y-111829000D02*
X166476000Y-111829000D01*
X166476000Y-109289000D01*
X158856000Y-109289000D01*
X158856000Y-111829000D01*
D13*
%TO.C,U5*%
X153970000Y-93685000D02*
X153970000Y-98985000D01*
X153970000Y-98985000D02*
X171870000Y-98985000D01*
X171870000Y-93685000D02*
X153970000Y-93685000D01*
X171870000Y-95335000D02*
X171870000Y-93685000D01*
X171870000Y-98985000D02*
X171870000Y-97335000D01*
X171870000Y-97335000D02*
G75*
G02*
X171870000Y-95335000I0J1000000D01*
G01*
D12*
%TO.C,R4*%
X147675000Y-133715000D02*
X147675000Y-133080000D01*
X147675000Y-141970000D02*
X147675000Y-141335000D01*
X146405000Y-133715000D02*
X148945000Y-133715000D01*
X148945000Y-141335000D01*
X146405000Y-141335000D01*
X146405000Y-133715000D01*
%TO.C,U20*%
X101670000Y-134175000D02*
X94050000Y-134175000D01*
X94050000Y-146875000D01*
X101670000Y-146875000D01*
X101670000Y-134175000D01*
D13*
%TO.C,U3*%
X101760000Y-97036000D02*
X101760000Y-117476000D01*
X101760000Y-117476000D02*
X107060000Y-117476000D01*
X103410000Y-97036000D02*
X101760000Y-97036000D01*
X107060000Y-97036000D02*
X105410000Y-97036000D01*
X107060000Y-117476000D02*
X107060000Y-97036000D01*
X105410000Y-97036000D02*
G75*
G02*
X103410000Y-97036000I-1000000J0D01*
G01*
%TO.C,U13*%
X140260000Y-106645000D02*
X140260000Y-124545000D01*
X140260000Y-124545000D02*
X145560000Y-124545000D01*
X141910000Y-106645000D02*
X140260000Y-106645000D01*
X145560000Y-106645000D02*
X143910000Y-106645000D01*
X145560000Y-124545000D02*
X145560000Y-106645000D01*
X143910000Y-106645000D02*
G75*
G02*
X141910000Y-106645000I-1000000J0D01*
G01*
%TO.C,U12*%
D12*
X132270000Y-134175000D02*
X124650000Y-134175000D01*
X124650000Y-146875000D01*
X132270000Y-146875000D01*
X132270000Y-134175000D01*
%TO.C,R10*%
X93775000Y-55700000D02*
X94410000Y-55700000D01*
X102030000Y-55700000D02*
X102665000Y-55700000D01*
X102030000Y-54430000D02*
X94410000Y-54430000D01*
X94410000Y-56970000D01*
X102030000Y-56970000D01*
X102030000Y-54430000D01*
%TO.C,R6*%
X159592000Y-84857000D02*
X158957000Y-84857000D01*
X167847000Y-84857000D02*
X167212000Y-84857000D01*
X159592000Y-86127000D02*
X167212000Y-86127000D01*
X167212000Y-83587000D01*
X159592000Y-83587000D01*
X159592000Y-86127000D01*
%TO.C,U16*%
X116910000Y-134175000D02*
X109290000Y-134175000D01*
X109290000Y-146875000D01*
X116910000Y-146875000D01*
X116910000Y-134175000D01*
D13*
%TO.C,U8*%
X171242000Y-104149000D02*
X172572000Y-104149000D01*
X171242000Y-105479000D02*
X171242000Y-104149000D01*
X171242000Y-106749000D02*
X171242000Y-111889000D01*
X171242000Y-106749000D02*
X173902000Y-106749000D01*
X171242000Y-111889000D02*
X173902000Y-111889000D01*
X173902000Y-106749000D02*
X173902000Y-111889000D01*
D12*
%TO.C,R12*%
X92300000Y-106490000D02*
X92300000Y-105855000D01*
X92300000Y-114745000D02*
X92300000Y-114110000D01*
X91030000Y-106490000D02*
X93570000Y-106490000D01*
X93570000Y-114110000D01*
X91030000Y-114110000D01*
X91030000Y-106490000D01*
D13*
%TO.C,U7*%
X171470000Y-78970000D02*
X172800000Y-78970000D01*
X171470000Y-80300000D02*
X171470000Y-78970000D01*
X171470000Y-81570000D02*
X171470000Y-86710000D01*
X171470000Y-81570000D02*
X174130000Y-81570000D01*
X171470000Y-86710000D02*
X174130000Y-86710000D01*
X174130000Y-81570000D02*
X174130000Y-86710000D01*
%TO.C,U21*%
D12*
X94050000Y-134175000D02*
X86430000Y-134175000D01*
X86430000Y-146875000D01*
X94050000Y-146875000D01*
X94050000Y-134175000D01*
D13*
%TO.C,U10*%
X128360000Y-54045000D02*
X128360000Y-71945000D01*
X128360000Y-71945000D02*
X133660000Y-71945000D01*
X130010000Y-54045000D02*
X128360000Y-54045000D01*
X133660000Y-54045000D02*
X132010000Y-54045000D01*
X133660000Y-71945000D02*
X133660000Y-54045000D01*
X132010000Y-54045000D02*
G75*
G02*
X130010000Y-54045000I-1000000J0D01*
G01*
D12*
%TO.C,R1*%
X159846000Y-80285000D02*
X159211000Y-80285000D01*
X168101000Y-80285000D02*
X167466000Y-80285000D01*
X159846000Y-81555000D02*
X167466000Y-81555000D01*
X167466000Y-79015000D01*
X159846000Y-79015000D01*
X159846000Y-81555000D01*
%TO.C,R5*%
X155295000Y-119703000D02*
X155295000Y-119068000D01*
X155295000Y-127958000D02*
X155295000Y-127323000D01*
X154025000Y-119703000D02*
X156565000Y-119703000D01*
X156565000Y-127323000D01*
X154025000Y-127323000D01*
X154025000Y-119703000D01*
D13*
%TO.C,U17*%
X114310000Y-113040000D02*
X114310000Y-114690000D01*
X114310000Y-116690000D02*
X114310000Y-118340000D01*
X114310000Y-118340000D02*
X132210000Y-118340000D01*
X132210000Y-113040000D02*
X114310000Y-113040000D01*
X132210000Y-118340000D02*
X132210000Y-113040000D01*
X114310000Y-114690000D02*
G75*
G02*
X114310000Y-116690000I0J-1000000D01*
G01*
D12*
%TO.C,R9*%
X92300000Y-92575000D02*
X92300000Y-93210000D01*
X92300000Y-100830000D02*
X92300000Y-101465000D01*
X93570000Y-100830000D02*
X91030000Y-100830000D01*
X91030000Y-93210000D01*
X93570000Y-93210000D01*
X93570000Y-100830000D01*
D13*
%TO.C,U6*%
X164940000Y-52930000D02*
X164940000Y-70830000D01*
X164940000Y-70830000D02*
X166590000Y-70830000D01*
X168590000Y-70830000D02*
X170240000Y-70830000D01*
X170240000Y-52930000D02*
X164940000Y-52930000D01*
X170240000Y-70830000D02*
X170240000Y-52930000D01*
X166590000Y-70830000D02*
G75*
G02*
X168590000Y-70830000I1000000J0D01*
G01*
%TO.C,U2*%
X97960000Y-65495000D02*
X97960000Y-85935000D01*
X97960000Y-85935000D02*
X103260000Y-85935000D01*
X99610000Y-65495000D02*
X97960000Y-65495000D01*
X103260000Y-65495000D02*
X101610000Y-65495000D01*
X103260000Y-85935000D02*
X103260000Y-65495000D01*
X101610000Y-65495000D02*
G75*
G02*
X99610000Y-65495000I-1000000J0D01*
G01*
%TO.C,U11*%
X145360000Y-54045000D02*
X145360000Y-71945000D01*
X145360000Y-71945000D02*
X150660000Y-71945000D01*
X147010000Y-54045000D02*
X145360000Y-54045000D01*
X150660000Y-54045000D02*
X149010000Y-54045000D01*
X150660000Y-71945000D02*
X150660000Y-54045000D01*
X149010000Y-54045000D02*
G75*
G02*
X147010000Y-54045000I-1000000J0D01*
G01*
%TO.C,U15*%
D12*
X124530000Y-134175000D02*
X116910000Y-134175000D01*
X116910000Y-146875000D01*
X124530000Y-146875000D01*
X124530000Y-134175000D01*
%TD*%
M02*
