%TF.GenerationSoftware,KiCad,Pcbnew,8.0.2-1*%
%TF.CreationDate,2024-08-04T08:33:09-04:00*%
%TF.ProjectId,clock,636c6f63-6b2e-46b6-9963-61645f706362,rev?*%
%TF.SameCoordinates,Original*%
%TF.FileFunction,Soldermask,Bot*%
%TF.FilePolarity,Negative*%
%FSLAX46Y46*%
G04 Gerber Fmt 4.6, Leading zero omitted, Abs format (unit mm)*
G04 Created by KiCad (PCBNEW 8.0.2-1) date 2024-08-04 08:33:09*
%MOMM*%
%LPD*%
G01*
G04 APERTURE LIST*
%ADD10R,1.600000X1.600000*%
%ADD11C,1.600000*%
%ADD12C,1.524000*%
%ADD13O,1.600000X1.600000*%
%ADD14R,1.700000X1.700000*%
%ADD15O,1.700000X1.700000*%
G04 APERTURE END LIST*
D10*
%TO.C,C1*%
X162701000Y-144849000D03*
D11*
X167701000Y-144849000D03*
%TD*%
D12*
%TO.C,R11*%
X103380000Y-61200000D03*
X93220000Y-61200000D03*
%TD*%
D10*
%TO.C,U9*%
X119300000Y-88075000D03*
D13*
X119300000Y-90615000D03*
X119300000Y-93155000D03*
X119300000Y-95695000D03*
X119300000Y-98235000D03*
X119300000Y-100775000D03*
X119300000Y-103315000D03*
X126920000Y-103315000D03*
X126920000Y-100775000D03*
X126920000Y-98235000D03*
X126920000Y-95695000D03*
X126920000Y-93155000D03*
X126920000Y-90615000D03*
X126920000Y-88075000D03*
%TD*%
D10*
%TO.C,U14*%
X136200000Y-79900000D03*
D13*
X136200000Y-82440000D03*
X136200000Y-84980000D03*
X136200000Y-87520000D03*
X136200000Y-90060000D03*
X136200000Y-92600000D03*
X136200000Y-95140000D03*
X143820000Y-95140000D03*
X143820000Y-92600000D03*
X143820000Y-90060000D03*
X143820000Y-87520000D03*
X143820000Y-84980000D03*
X143820000Y-82440000D03*
X143820000Y-79900000D03*
%TD*%
D10*
%TO.C,U19*%
X112500000Y-54925000D03*
D13*
X112500000Y-57465000D03*
X112500000Y-60005000D03*
X112500000Y-62545000D03*
X112500000Y-65085000D03*
X112500000Y-67625000D03*
X112500000Y-70165000D03*
X112500000Y-72705000D03*
X120120000Y-72705000D03*
X120120000Y-70165000D03*
X120120000Y-67625000D03*
X120120000Y-65085000D03*
X120120000Y-62545000D03*
X120120000Y-60005000D03*
X120120000Y-57465000D03*
X120120000Y-54925000D03*
%TD*%
D12*
%TO.C,R7*%
X157332000Y-105225000D03*
X167492000Y-105225000D03*
%TD*%
%TO.C,U18*%
X106750000Y-134175000D03*
X106750000Y-139255000D03*
X104210000Y-134175000D03*
X104210000Y-136715000D03*
X106750000Y-141795000D03*
X106750000Y-146875000D03*
%TD*%
%TO.C,R3*%
X160883000Y-124021000D03*
X160883000Y-134181000D03*
%TD*%
D14*
%TO.C,U1*%
X84904900Y-115048400D03*
D15*
X84904900Y-112508400D03*
X84904900Y-109968400D03*
X84904900Y-107428400D03*
X84904900Y-104888400D03*
X84904900Y-102348400D03*
X84904900Y-99808400D03*
X84904900Y-97268400D03*
X84904900Y-94728400D03*
X84904900Y-92188400D03*
X84904900Y-89648400D03*
X84904900Y-87108400D03*
X84904900Y-84568400D03*
X84904900Y-82028400D03*
X84904900Y-79488400D03*
X84904900Y-76948400D03*
X84904900Y-74408400D03*
X84904900Y-71868400D03*
X84904900Y-69328400D03*
X84904900Y-66788400D03*
X84904900Y-64248400D03*
X84904900Y-61708400D03*
X84904900Y-59168400D03*
%TD*%
D10*
%TO.C,U4*%
X165465000Y-120460000D03*
D13*
X165465000Y-123000000D03*
X165465000Y-125540000D03*
X165465000Y-128080000D03*
X165465000Y-130620000D03*
X165465000Y-133160000D03*
X165465000Y-135700000D03*
X173085000Y-135700000D03*
X173085000Y-133160000D03*
X173085000Y-130620000D03*
X173085000Y-128080000D03*
X173085000Y-125540000D03*
X173085000Y-123000000D03*
X173085000Y-120460000D03*
%TD*%
D12*
%TO.C,R2*%
X155549000Y-136975000D03*
X155549000Y-147135000D03*
%TD*%
%TO.C,R8*%
X157586000Y-110559000D03*
X167746000Y-110559000D03*
%TD*%
D10*
%TO.C,U5*%
X170540000Y-92525000D03*
D13*
X168000000Y-92525000D03*
X165460000Y-92525000D03*
X162920000Y-92525000D03*
X160380000Y-92525000D03*
X157840000Y-92525000D03*
X155300000Y-92525000D03*
X155300000Y-100145000D03*
X157840000Y-100145000D03*
X160380000Y-100145000D03*
X162920000Y-100145000D03*
X165460000Y-100145000D03*
X168000000Y-100145000D03*
X170540000Y-100145000D03*
%TD*%
D12*
%TO.C,R4*%
X147675000Y-132445000D03*
X147675000Y-142605000D03*
%TD*%
%TO.C,U20*%
X99130000Y-134175000D03*
X99130000Y-139255000D03*
X96590000Y-134175000D03*
X96590000Y-136715000D03*
X99130000Y-141795000D03*
X99130000Y-146875000D03*
%TD*%
D10*
%TO.C,U3*%
X100600000Y-98366000D03*
D13*
X100600000Y-100906000D03*
X100600000Y-103446000D03*
X100600000Y-105986000D03*
X100600000Y-108526000D03*
X100600000Y-111066000D03*
X100600000Y-113606000D03*
X100600000Y-116146000D03*
X108220000Y-116146000D03*
X108220000Y-113606000D03*
X108220000Y-111066000D03*
X108220000Y-108526000D03*
X108220000Y-105986000D03*
X108220000Y-103446000D03*
X108220000Y-100906000D03*
X108220000Y-98366000D03*
%TD*%
D10*
%TO.C,U13*%
X139100000Y-107975000D03*
D13*
X139100000Y-110515000D03*
X139100000Y-113055000D03*
X139100000Y-115595000D03*
X139100000Y-118135000D03*
X139100000Y-120675000D03*
X139100000Y-123215000D03*
X146720000Y-123215000D03*
X146720000Y-120675000D03*
X146720000Y-118135000D03*
X146720000Y-115595000D03*
X146720000Y-113055000D03*
X146720000Y-110515000D03*
X146720000Y-107975000D03*
%TD*%
D12*
%TO.C,U12*%
X129730000Y-134175000D03*
X129730000Y-139255000D03*
X127190000Y-134175000D03*
X127190000Y-136715000D03*
X129730000Y-141795000D03*
X129730000Y-146875000D03*
%TD*%
%TO.C,R10*%
X103300000Y-55700000D03*
X93140000Y-55700000D03*
%TD*%
%TO.C,R6*%
X158322000Y-84857000D03*
X168482000Y-84857000D03*
%TD*%
%TO.C,U16*%
X114370000Y-134175000D03*
X114370000Y-139255000D03*
X111830000Y-134175000D03*
X111830000Y-136715000D03*
X114370000Y-141795000D03*
X114370000Y-146875000D03*
%TD*%
D14*
%TO.C,U8*%
X172572000Y-105479000D03*
D15*
X172572000Y-108019000D03*
X172572000Y-110559000D03*
%TD*%
D12*
%TO.C,R12*%
X92300000Y-105220000D03*
X92300000Y-115380000D03*
%TD*%
D14*
%TO.C,U7*%
X172800000Y-80300000D03*
D15*
X172800000Y-82840000D03*
X172800000Y-85380000D03*
%TD*%
D12*
%TO.C,U21*%
X91510000Y-134175000D03*
X91510000Y-139255000D03*
X88970000Y-134175000D03*
X88970000Y-136715000D03*
X91510000Y-141795000D03*
X91510000Y-146875000D03*
%TD*%
D10*
%TO.C,U10*%
X127200000Y-55375000D03*
D13*
X127200000Y-57915000D03*
X127200000Y-60455000D03*
X127200000Y-62995000D03*
X127200000Y-65535000D03*
X127200000Y-68075000D03*
X127200000Y-70615000D03*
X134820000Y-70615000D03*
X134820000Y-68075000D03*
X134820000Y-65535000D03*
X134820000Y-62995000D03*
X134820000Y-60455000D03*
X134820000Y-57915000D03*
X134820000Y-55375000D03*
%TD*%
D12*
%TO.C,R1*%
X158576000Y-80285000D03*
X168736000Y-80285000D03*
%TD*%
%TO.C,R5*%
X155295000Y-118433000D03*
X155295000Y-128593000D03*
%TD*%
D10*
%TO.C,U17*%
X115640000Y-119500000D03*
D13*
X118180000Y-119500000D03*
X120720000Y-119500000D03*
X123260000Y-119500000D03*
X125800000Y-119500000D03*
X128340000Y-119500000D03*
X130880000Y-119500000D03*
X130880000Y-111880000D03*
X128340000Y-111880000D03*
X125800000Y-111880000D03*
X123260000Y-111880000D03*
X120720000Y-111880000D03*
X118180000Y-111880000D03*
X115640000Y-111880000D03*
%TD*%
D12*
%TO.C,R9*%
X92300000Y-102100000D03*
X92300000Y-91940000D03*
%TD*%
D10*
%TO.C,U6*%
X171400000Y-69500000D03*
D13*
X171400000Y-66960000D03*
X171400000Y-64420000D03*
X171400000Y-61880000D03*
X171400000Y-59340000D03*
X171400000Y-56800000D03*
X171400000Y-54260000D03*
X163780000Y-54260000D03*
X163780000Y-56800000D03*
X163780000Y-59340000D03*
X163780000Y-61880000D03*
X163780000Y-64420000D03*
X163780000Y-66960000D03*
X163780000Y-69500000D03*
%TD*%
D10*
%TO.C,U2*%
X96800000Y-66825000D03*
D13*
X96800000Y-69365000D03*
X96800000Y-71905000D03*
X96800000Y-74445000D03*
X96800000Y-76985000D03*
X96800000Y-79525000D03*
X96800000Y-82065000D03*
X96800000Y-84605000D03*
X104420000Y-84605000D03*
X104420000Y-82065000D03*
X104420000Y-79525000D03*
X104420000Y-76985000D03*
X104420000Y-74445000D03*
X104420000Y-71905000D03*
X104420000Y-69365000D03*
X104420000Y-66825000D03*
%TD*%
D10*
%TO.C,U11*%
X144200000Y-55375000D03*
D13*
X144200000Y-57915000D03*
X144200000Y-60455000D03*
X144200000Y-62995000D03*
X144200000Y-65535000D03*
X144200000Y-68075000D03*
X144200000Y-70615000D03*
X151820000Y-70615000D03*
X151820000Y-68075000D03*
X151820000Y-65535000D03*
X151820000Y-62995000D03*
X151820000Y-60455000D03*
X151820000Y-57915000D03*
X151820000Y-55375000D03*
%TD*%
D12*
%TO.C,U15*%
X121990000Y-134175000D03*
X121990000Y-139255000D03*
X119450000Y-134175000D03*
X119450000Y-136715000D03*
X121990000Y-141795000D03*
X121990000Y-146875000D03*
%TD*%
M02*
