%TF.GenerationSoftware,KiCad,Pcbnew,8.0.2-1*%
%TF.CreationDate,2024-06-24T15:07:34-04:00*%
%TF.ProjectId,stack_controller,73746163-6b5f-4636-9f6e-74726f6c6c65,rev?*%
%TF.SameCoordinates,Original*%
%TF.FileFunction,Copper,L1,Top*%
%TF.FilePolarity,Positive*%
%FSLAX46Y46*%
G04 Gerber Fmt 4.6, Leading zero omitted, Abs format (unit mm)*
G04 Created by KiCad (PCBNEW 8.0.2-1) date 2024-06-24 15:07:34*
%MOMM*%
%LPD*%
G01*
G04 APERTURE LIST*
%TA.AperFunction,ComponentPad*%
%ADD10C,1.524000*%
%TD*%
%TA.AperFunction,ComponentPad*%
%ADD11R,1.600000X1.600000*%
%TD*%
%TA.AperFunction,ComponentPad*%
%ADD12O,1.600000X1.600000*%
%TD*%
%TA.AperFunction,ComponentPad*%
%ADD13R,1.700000X1.700000*%
%TD*%
%TA.AperFunction,ComponentPad*%
%ADD14O,1.700000X1.700000*%
%TD*%
%TA.AperFunction,ViaPad*%
%ADD15C,0.600000*%
%TD*%
%TA.AperFunction,Conductor*%
%ADD16C,0.200000*%
%TD*%
G04 APERTURE END LIST*
D10*
%TO.P,U40,1,IN*%
%TO.N,Net-(U24-2Q)*%
X171450000Y-121977000D03*
X176530000Y-121977000D03*
%TO.P,U40,2,GND*%
%TO.N,Net-(U1-C_IN)*%
X171450000Y-124517000D03*
X173990000Y-124517000D03*
%TO.P,U40,3,OUT*%
%TO.N,Net-(U13-I2)*%
X179070000Y-121977000D03*
X184150000Y-121977000D03*
%TD*%
%TO.P,U44,1,IN*%
%TO.N,Net-(U44-IN)*%
X171370000Y-153107000D03*
X176450000Y-153107000D03*
%TO.P,U44,2,GND*%
%TO.N,Net-(U1-C_IN)*%
X171370000Y-155647000D03*
X173910000Y-155647000D03*
%TO.P,U44,3,OUT*%
%TO.N,Net-(U13-I5)*%
X178990000Y-153107000D03*
X184070000Y-153107000D03*
%TD*%
D11*
%TO.P,U15,1,\u03A31*%
%TO.N,Net-(U15-\u03A31)*%
X84500000Y-78342000D03*
D12*
%TO.P,U15,2,B1*%
%TO.N,Net-(U15-B1)*%
X84500000Y-80882000D03*
%TO.P,U15,3,A1*%
%TO.N,Net-(U15-A1)*%
X84500000Y-83422000D03*
%TO.P,U15,4,\u03A30*%
%TO.N,Net-(U15-\u03A30)*%
X84500000Y-85962000D03*
%TO.P,U15,5,A0*%
%TO.N,Net-(U15-A0)*%
X84500000Y-88502000D03*
%TO.P,U15,6,B0*%
%TO.N,Net-(U15-B0)*%
X84500000Y-91042000D03*
%TO.P,U15,7,C_IN*%
%TO.N,Net-(U14-C_OUT)*%
X84500000Y-93582000D03*
%TO.P,U15,8,GND*%
%TO.N,Net-(U1-C_IN)*%
X84500000Y-96122000D03*
%TO.P,U15,9,C_OUT*%
%TO.N,Net-(U15-C_OUT)*%
X92120000Y-96122000D03*
%TO.P,U15,10,\u03A33*%
%TO.N,Net-(U15-\u03A33)*%
X92120000Y-93582000D03*
%TO.P,U15,11,B3*%
%TO.N,Net-(U15-B3)*%
X92120000Y-91042000D03*
%TO.P,U15,12,A3*%
%TO.N,Net-(U15-A3)*%
X92120000Y-88502000D03*
%TO.P,U15,13,\u03A32*%
%TO.N,Net-(U15-\u03A32)*%
X92120000Y-85962000D03*
%TO.P,U15,14,A2*%
%TO.N,Net-(U15-A2)*%
X92120000Y-83422000D03*
%TO.P,U15,15,B2*%
%TO.N,Net-(U15-B2)*%
X92120000Y-80882000D03*
%TO.P,U15,16,V+*%
%TO.N,Net-(U1-B0)*%
X92120000Y-78342000D03*
%TD*%
D11*
%TO.P,U8,1,OE#*%
%TO.N,Net-(U1-C_IN)*%
X65420000Y-27597000D03*
D12*
%TO.P,U8,2,D0*%
%TO.N,Net-(U14-A0)*%
X62880000Y-27597000D03*
%TO.P,U8,3,D1*%
%TO.N,Net-(U14-A1)*%
X60340000Y-27597000D03*
%TO.P,U8,4,D2*%
%TO.N,Net-(U14-A2)*%
X57800000Y-27597000D03*
%TO.P,U8,5,D3*%
%TO.N,Net-(U14-A3)*%
X55260000Y-27597000D03*
%TO.P,U8,6,D4*%
%TO.N,Net-(U15-A0)*%
X52720000Y-27597000D03*
%TO.P,U8,7,D5*%
%TO.N,Net-(U15-A1)*%
X50180000Y-27597000D03*
%TO.P,U8,8,D6*%
%TO.N,Net-(U15-A2)*%
X47640000Y-27597000D03*
%TO.P,U8,9,D7*%
%TO.N,Net-(U15-A3)*%
X45100000Y-27597000D03*
%TO.P,U8,10,GND*%
%TO.N,Net-(U1-C_IN)*%
X42560000Y-27597000D03*
%TO.P,U8,11,CLK*%
%TO.N,Net-(U12-CLK)*%
X42560000Y-35217000D03*
%TO.P,U8,12,Q7*%
%TO.N,Net-(U2-A3)*%
X45100000Y-35217000D03*
%TO.P,U8,13,Q6*%
%TO.N,Net-(U2-A2)*%
X47640000Y-35217000D03*
%TO.P,U8,14,Q5*%
%TO.N,Net-(U2-A1)*%
X50180000Y-35217000D03*
%TO.P,U8,15,Q4*%
%TO.N,Net-(U2-A0)*%
X52720000Y-35217000D03*
%TO.P,U8,16,Q3*%
%TO.N,Net-(U1-A3)*%
X55260000Y-35217000D03*
%TO.P,U8,17,Q2*%
%TO.N,Net-(U1-A2)*%
X57800000Y-35217000D03*
%TO.P,U8,18,Q1*%
%TO.N,Net-(U1-A1)*%
X60340000Y-35217000D03*
%TO.P,U8,19,Q0*%
%TO.N,Net-(U1-A0)*%
X62880000Y-35217000D03*
%TO.P,U8,20,V+*%
%TO.N,Net-(U1-B0)*%
X65420000Y-35217000D03*
%TD*%
D11*
%TO.P,U11,1,A14*%
%TO.N,Net-(U10-A14)*%
X199460000Y-60477000D03*
D12*
%TO.P,U11,2,A12*%
%TO.N,Net-(U10-A12)*%
X196920000Y-60477000D03*
%TO.P,U11,3,A7*%
%TO.N,Net-(U10-A7)*%
X194380000Y-60477000D03*
%TO.P,U11,4,A6*%
%TO.N,Net-(U10-A6)*%
X191840000Y-60477000D03*
%TO.P,U11,5,A5*%
%TO.N,Net-(U10-A5)*%
X189300000Y-60477000D03*
%TO.P,U11,6,A4*%
%TO.N,Net-(U10-A4)*%
X186760000Y-60477000D03*
%TO.P,U11,7,A3*%
%TO.N,Net-(U10-A3)*%
X184220000Y-60477000D03*
%TO.P,U11,8,A2*%
%TO.N,Net-(U10-A2)*%
X181680000Y-60477000D03*
%TO.P,U11,9,A1*%
%TO.N,Net-(U10-A1)*%
X179140000Y-60477000D03*
%TO.P,U11,10,A0*%
%TO.N,Net-(U10-A0)*%
X176600000Y-60477000D03*
%TO.P,U11,11,D0*%
%TO.N,Net-(U10-D0)*%
X174060000Y-60477000D03*
%TO.P,U11,12,D1*%
%TO.N,Net-(U10-D1)*%
X171520000Y-60477000D03*
%TO.P,U11,13,D2*%
%TO.N,Net-(U10-D2)*%
X168980000Y-60477000D03*
%TO.P,U11,14,GND*%
%TO.N,Net-(U1-C_IN)*%
X166440000Y-60477000D03*
%TO.P,U11,15,D3*%
%TO.N,Net-(U10-D3)*%
X166440000Y-75717000D03*
%TO.P,U11,16,D4*%
%TO.N,Net-(U10-D4)*%
X168980000Y-75717000D03*
%TO.P,U11,17,D5*%
%TO.N,Net-(U10-D5)*%
X171520000Y-75717000D03*
%TO.P,U11,18,D6*%
%TO.N,Net-(U10-D6)*%
X174060000Y-75717000D03*
%TO.P,U11,19,D7*%
%TO.N,Net-(U10-D7)*%
X176600000Y-75717000D03*
%TO.P,U11,20,CE#*%
%TO.N,Net-(U11-CE#)*%
X179140000Y-75717000D03*
%TO.P,U11,21,A10*%
%TO.N,Net-(U10-A10)*%
X181680000Y-75717000D03*
%TO.P,U11,22,OE#*%
%TO.N,Net-(U10-OE#)*%
X184220000Y-75717000D03*
%TO.P,U11,23,A11*%
%TO.N,Net-(U10-A11)*%
X186760000Y-75717000D03*
%TO.P,U11,24,A9*%
%TO.N,Net-(U10-A9)*%
X189300000Y-75717000D03*
%TO.P,U11,25,A8*%
%TO.N,Net-(U10-A8)*%
X191840000Y-75717000D03*
%TO.P,U11,26,A13*%
%TO.N,Net-(U10-A13)*%
X194380000Y-75717000D03*
%TO.P,U11,27,WE#*%
%TO.N,Net-(U10-WE#)*%
X196920000Y-75717000D03*
%TO.P,U11,28,V+*%
%TO.N,Net-(U1-B0)*%
X199460000Y-75717000D03*
%TD*%
D11*
%TO.P,U24,1,1A*%
%TO.N,Net-(U24-1A)*%
X55180000Y-120177000D03*
D12*
%TO.P,U24,2,1B*%
%TO.N,Net-(U24-1B)*%
X55180000Y-122717000D03*
%TO.P,U24,3,1Q*%
%TO.N,Net-(U24-1Q)*%
X55180000Y-125257000D03*
%TO.P,U24,4,2A*%
%TO.N,Net-(U24-2A)*%
X55180000Y-127797000D03*
%TO.P,U24,5,2B*%
%TO.N,Net-(U24-2B)*%
X55180000Y-130337000D03*
%TO.P,U24,6,2Q*%
%TO.N,Net-(U24-2Q)*%
X55180000Y-132877000D03*
%TO.P,U24,7,GND*%
%TO.N,Net-(U1-C_IN)*%
X55180000Y-135417000D03*
%TO.P,U24,8,4Q*%
%TO.N,Net-(U24-4Q)*%
X62800000Y-135417000D03*
%TO.P,U24,9,4B*%
%TO.N,Net-(U24-2A)*%
X62800000Y-132877000D03*
%TO.P,U24,10,4A*%
%TO.N,Net-(U24-4A)*%
X62800000Y-130337000D03*
%TO.P,U24,11,3Q*%
%TO.N,Net-(U24-3Q)*%
X62800000Y-127797000D03*
%TO.P,U24,12,3B*%
%TO.N,Net-(U24-2A)*%
X62800000Y-125257000D03*
%TO.P,U24,13,3A*%
%TO.N,Net-(U24-3A)*%
X62800000Y-122717000D03*
%TO.P,U24,14,V+*%
%TO.N,Net-(U1-B0)*%
X62800000Y-120177000D03*
%TD*%
D11*
%TO.P,U23,1,S*%
%TO.N,Net-(U20-S)*%
X187925000Y-32017000D03*
D12*
%TO.P,U23,2,A0*%
%TO.N,Net-(U12-D4)*%
X190465000Y-32017000D03*
%TO.P,U23,3,B0*%
%TO.N,Net-(U17-\u03A30)*%
X193005000Y-32017000D03*
%TO.P,U23,4,Q0*%
%TO.N,Net-(U10-A12)*%
X195545000Y-32017000D03*
%TO.P,U23,5,A1*%
%TO.N,Net-(U12-D5)*%
X198085000Y-32017000D03*
%TO.P,U23,6,B1*%
%TO.N,Net-(U17-\u03A31)*%
X200625000Y-32017000D03*
%TO.P,U23,7,Q1*%
%TO.N,Net-(U10-A13)*%
X203165000Y-32017000D03*
%TO.P,U23,8,GND*%
%TO.N,Net-(U1-C_IN)*%
X205705000Y-32017000D03*
%TO.P,U23,9,Q2*%
%TO.N,Net-(U10-A14)*%
X205705000Y-24397000D03*
%TO.P,U23,10,B2*%
%TO.N,Net-(U17-\u03A32)*%
X203165000Y-24397000D03*
%TO.P,U23,11,A2*%
%TO.N,Net-(U12-D6)*%
X200625000Y-24397000D03*
%TO.P,U23,12,Q3*%
%TO.N,Net-(U11-CE#)*%
X198085000Y-24397000D03*
%TO.P,U23,13,B3*%
%TO.N,Net-(U17-\u03A33)*%
X195545000Y-24397000D03*
%TO.P,U23,14,A3*%
%TO.N,Net-(U12-D7)*%
X193005000Y-24397000D03*
%TO.P,U23,15,OE#*%
%TO.N,Net-(U1-C_IN)*%
X190465000Y-24397000D03*
%TO.P,U23,16,V+*%
%TO.N,Net-(U1-B0)*%
X187925000Y-24397000D03*
%TD*%
D11*
%TO.P,U4,1,\u03A31*%
%TO.N,Net-(U4-\u03A31)*%
X63500000Y-72842000D03*
D12*
%TO.P,U4,2,B1*%
%TO.N,Net-(U1-B1)*%
X63500000Y-75382000D03*
%TO.P,U4,3,A1*%
%TO.N,Net-(U12-Q5)*%
X63500000Y-77922000D03*
%TO.P,U4,4,\u03A30*%
%TO.N,Net-(U4-\u03A30)*%
X63500000Y-80462000D03*
%TO.P,U4,5,A0*%
%TO.N,Net-(U12-Q4)*%
X63500000Y-83002000D03*
%TO.P,U4,6,B0*%
%TO.N,Net-(U1-B1)*%
X63500000Y-85542000D03*
%TO.P,U4,7,C_IN*%
%TO.N,Net-(U3-C_OUT)*%
X63500000Y-88082000D03*
%TO.P,U4,8,GND*%
%TO.N,Net-(U1-C_IN)*%
X63500000Y-90622000D03*
%TO.P,U4,9,C_OUT*%
%TO.N,unconnected-(U4-C_OUT-Pad9)*%
X71120000Y-90622000D03*
%TO.P,U4,10,\u03A33*%
%TO.N,Net-(U4-\u03A33)*%
X71120000Y-88082000D03*
%TO.P,U4,11,B3*%
%TO.N,Net-(U1-B1)*%
X71120000Y-85542000D03*
%TO.P,U4,12,A3*%
%TO.N,Net-(U12-Q7)*%
X71120000Y-83002000D03*
%TO.P,U4,13,\u03A32*%
%TO.N,Net-(U4-\u03A32)*%
X71120000Y-80462000D03*
%TO.P,U4,14,A2*%
%TO.N,Net-(U12-Q6)*%
X71120000Y-77922000D03*
%TO.P,U4,15,B2*%
%TO.N,Net-(U1-B1)*%
X71120000Y-75382000D03*
%TO.P,U4,16,V+*%
%TO.N,Net-(U1-B0)*%
X71120000Y-72842000D03*
%TD*%
D11*
%TO.P,U10,1,A14*%
%TO.N,Net-(U10-A14)*%
X236920000Y-60477000D03*
D12*
%TO.P,U10,2,A12*%
%TO.N,Net-(U10-A12)*%
X234380000Y-60477000D03*
%TO.P,U10,3,A7*%
%TO.N,Net-(U10-A7)*%
X231840000Y-60477000D03*
%TO.P,U10,4,A6*%
%TO.N,Net-(U10-A6)*%
X229300000Y-60477000D03*
%TO.P,U10,5,A5*%
%TO.N,Net-(U10-A5)*%
X226760000Y-60477000D03*
%TO.P,U10,6,A4*%
%TO.N,Net-(U10-A4)*%
X224220000Y-60477000D03*
%TO.P,U10,7,A3*%
%TO.N,Net-(U10-A3)*%
X221680000Y-60477000D03*
%TO.P,U10,8,A2*%
%TO.N,Net-(U10-A2)*%
X219140000Y-60477000D03*
%TO.P,U10,9,A1*%
%TO.N,Net-(U10-A1)*%
X216600000Y-60477000D03*
%TO.P,U10,10,A0*%
%TO.N,Net-(U10-A0)*%
X214060000Y-60477000D03*
%TO.P,U10,11,D0*%
%TO.N,Net-(U10-D0)*%
X211520000Y-60477000D03*
%TO.P,U10,12,D1*%
%TO.N,Net-(U10-D1)*%
X208980000Y-60477000D03*
%TO.P,U10,13,D2*%
%TO.N,Net-(U10-D2)*%
X206440000Y-60477000D03*
%TO.P,U10,14,GND*%
%TO.N,Net-(U1-C_IN)*%
X203900000Y-60477000D03*
%TO.P,U10,15,D3*%
%TO.N,Net-(U10-D3)*%
X203900000Y-75717000D03*
%TO.P,U10,16,D4*%
%TO.N,Net-(U10-D4)*%
X206440000Y-75717000D03*
%TO.P,U10,17,D5*%
%TO.N,Net-(U10-D5)*%
X208980000Y-75717000D03*
%TO.P,U10,18,D6*%
%TO.N,Net-(U10-D6)*%
X211520000Y-75717000D03*
%TO.P,U10,19,D7*%
%TO.N,Net-(U10-D7)*%
X214060000Y-75717000D03*
%TO.P,U10,20,CE#*%
%TO.N,Net-(U10-CE#)*%
X216600000Y-75717000D03*
%TO.P,U10,21,A10*%
%TO.N,Net-(U10-A10)*%
X219140000Y-75717000D03*
%TO.P,U10,22,OE#*%
%TO.N,Net-(U10-OE#)*%
X221680000Y-75717000D03*
%TO.P,U10,23,A11*%
%TO.N,Net-(U10-A11)*%
X224220000Y-75717000D03*
%TO.P,U10,24,A9*%
%TO.N,Net-(U10-A9)*%
X226760000Y-75717000D03*
%TO.P,U10,25,A8*%
%TO.N,Net-(U10-A8)*%
X229300000Y-75717000D03*
%TO.P,U10,26,A13*%
%TO.N,Net-(U10-A13)*%
X231840000Y-75717000D03*
%TO.P,U10,27,WE#*%
%TO.N,Net-(U10-WE#)*%
X234380000Y-75717000D03*
%TO.P,U10,28,V+*%
%TO.N,Net-(U1-B0)*%
X236920000Y-75717000D03*
%TD*%
D10*
%TO.P,U39,1,IN*%
%TO.N,Net-(U25-Q0)*%
X171450000Y-113977000D03*
X176530000Y-113977000D03*
%TO.P,U39,2,GND*%
%TO.N,Net-(U1-C_IN)*%
X171450000Y-116517000D03*
X173990000Y-116517000D03*
%TO.P,U39,3,OUT*%
%TO.N,Net-(U19-1B)*%
X179070000Y-113977000D03*
X184150000Y-113977000D03*
%TD*%
%TO.P,U37,1,IN*%
%TO.N,Net-(U27-Q1)*%
X127220000Y-136977000D03*
X132300000Y-136977000D03*
%TO.P,U37,2,GND*%
%TO.N,Net-(U1-C_IN)*%
X127220000Y-139517000D03*
X129760000Y-139517000D03*
%TO.P,U37,3,OUT*%
%TO.N,Net-(U20-S)*%
X134840000Y-136977000D03*
X139920000Y-136977000D03*
%TD*%
D11*
%TO.P,U2,1,\u03A31*%
%TO.N,Net-(U2-\u03A31)*%
X85500000Y-25342000D03*
D12*
%TO.P,U2,2,B1*%
%TO.N,Net-(U1-B1)*%
X85500000Y-27882000D03*
%TO.P,U2,3,A1*%
%TO.N,Net-(U2-A1)*%
X85500000Y-30422000D03*
%TO.P,U2,4,\u03A30*%
%TO.N,Net-(U2-\u03A30)*%
X85500000Y-32962000D03*
%TO.P,U2,5,A0*%
%TO.N,Net-(U2-A0)*%
X85500000Y-35502000D03*
%TO.P,U2,6,B0*%
%TO.N,Net-(U1-B1)*%
X85500000Y-38042000D03*
%TO.P,U2,7,C_IN*%
%TO.N,Net-(U1-C_OUT)*%
X85500000Y-40582000D03*
%TO.P,U2,8,GND*%
%TO.N,Net-(U1-C_IN)*%
X85500000Y-43122000D03*
%TO.P,U2,9,C_OUT*%
%TO.N,Net-(U2-C_OUT)*%
X93120000Y-43122000D03*
%TO.P,U2,10,\u03A33*%
%TO.N,Net-(U2-\u03A33)*%
X93120000Y-40582000D03*
%TO.P,U2,11,B3*%
%TO.N,Net-(U1-B1)*%
X93120000Y-38042000D03*
%TO.P,U2,12,A3*%
%TO.N,Net-(U2-A3)*%
X93120000Y-35502000D03*
%TO.P,U2,13,\u03A32*%
%TO.N,Net-(U2-\u03A32)*%
X93120000Y-32962000D03*
%TO.P,U2,14,A2*%
%TO.N,Net-(U2-A2)*%
X93120000Y-30422000D03*
%TO.P,U2,15,B2*%
%TO.N,Net-(U1-B1)*%
X93120000Y-27882000D03*
%TO.P,U2,16,V+*%
%TO.N,Net-(U1-B0)*%
X93120000Y-25342000D03*
%TD*%
D11*
%TO.P,U25,1,0A*%
%TO.N,Net-(U25-0A)*%
X73180000Y-116057000D03*
D12*
%TO.P,U25,2,0B*%
%TO.N,Net-(U24-1B)*%
X73180000Y-118597000D03*
%TO.P,U25,3,Q0*%
%TO.N,Net-(U25-Q0)*%
X73180000Y-121137000D03*
%TO.P,U25,4,Q1*%
%TO.N,unconnected-(U25-Q1-Pad4)*%
X73180000Y-123677000D03*
%TO.P,U25,5,1A*%
%TO.N,Net-(U1-C_IN)*%
X73180000Y-126217000D03*
%TO.P,U25,6,1B*%
X73180000Y-128757000D03*
%TO.P,U25,7,GND*%
X73180000Y-131297000D03*
%TO.P,U25,8,2A*%
%TO.N,Net-(U25-2A)*%
X80800000Y-131297000D03*
%TO.P,U25,9,2B*%
%TO.N,Net-(U25-2B)*%
X80800000Y-128757000D03*
%TO.P,U25,10,Q2*%
%TO.N,Net-(U24-3A)*%
X80800000Y-126217000D03*
%TO.P,U25,11,Q3*%
%TO.N,Net-(U25-Q3)*%
X80800000Y-123677000D03*
%TO.P,U25,12,3A*%
%TO.N,Net-(U25-3A)*%
X80800000Y-121137000D03*
%TO.P,U25,13,3B*%
%TO.N,Net-(U25-3B)*%
X80800000Y-118597000D03*
%TO.P,U25,14,V+*%
%TO.N,Net-(U1-B0)*%
X80800000Y-116057000D03*
%TD*%
D11*
%TO.P,U13,1,I0*%
%TO.N,Net-(U11-CE#)*%
X217800000Y-116057000D03*
D12*
%TO.P,U13,2,O0*%
%TO.N,Net-(U10-CE#)*%
X217800000Y-118597000D03*
%TO.P,U13,3,I1*%
%TO.N,Net-(U13-I1)*%
X217800000Y-121137000D03*
%TO.P,U13,4,O1*%
%TO.N,Net-(U10-OE#)*%
X217800000Y-123677000D03*
%TO.P,U13,5,I2*%
%TO.N,Net-(U13-I2)*%
X217800000Y-126217000D03*
%TO.P,U13,6,O2*%
%TO.N,Net-(U10-WE#)*%
X217800000Y-128757000D03*
%TO.P,U13,7,GND*%
%TO.N,Net-(U1-C_IN)*%
X217800000Y-131297000D03*
%TO.P,U13,8,03*%
%TO.N,Net-(U13-03)*%
X225420000Y-131297000D03*
%TO.P,U13,9,I3*%
%TO.N,Net-(U13-I3)*%
X225420000Y-128757000D03*
%TO.P,U13,10,O4*%
%TO.N,Net-(U13-O4)*%
X225420000Y-126217000D03*
%TO.P,U13,11,I4*%
%TO.N,Net-(U13-I4)*%
X225420000Y-123677000D03*
%TO.P,U13,12,O5*%
%TO.N,Net-(U13-O5)*%
X225420000Y-121137000D03*
%TO.P,U13,13,I5*%
%TO.N,Net-(U13-I5)*%
X225420000Y-118597000D03*
%TO.P,U13,14,V+*%
%TO.N,Net-(U1-B0)*%
X225420000Y-116057000D03*
%TD*%
D11*
%TO.P,U14,1,\u03A31*%
%TO.N,Net-(U14-\u03A31)*%
X42800000Y-72017000D03*
D12*
%TO.P,U14,2,B1*%
%TO.N,Net-(U14-B1)*%
X42800000Y-74557000D03*
%TO.P,U14,3,A1*%
%TO.N,Net-(U14-A1)*%
X42800000Y-77097000D03*
%TO.P,U14,4,\u03A30*%
%TO.N,Net-(U14-\u03A30)*%
X42800000Y-79637000D03*
%TO.P,U14,5,A0*%
%TO.N,Net-(U14-A0)*%
X42800000Y-82177000D03*
%TO.P,U14,6,B0*%
%TO.N,Net-(U14-B0)*%
X42800000Y-84717000D03*
%TO.P,U14,7,C_IN*%
%TO.N,Net-(U1-C_IN)*%
X42800000Y-87257000D03*
%TO.P,U14,8,GND*%
X42800000Y-89797000D03*
%TO.P,U14,9,C_OUT*%
%TO.N,Net-(U14-C_OUT)*%
X50420000Y-89797000D03*
%TO.P,U14,10,\u03A33*%
%TO.N,Net-(U14-\u03A33)*%
X50420000Y-87257000D03*
%TO.P,U14,11,B3*%
%TO.N,Net-(U14-B3)*%
X50420000Y-84717000D03*
%TO.P,U14,12,A3*%
%TO.N,Net-(U14-A3)*%
X50420000Y-82177000D03*
%TO.P,U14,13,\u03A32*%
%TO.N,Net-(U14-\u03A32)*%
X50420000Y-79637000D03*
%TO.P,U14,14,A2*%
%TO.N,Net-(U14-A2)*%
X50420000Y-77097000D03*
%TO.P,U14,15,B2*%
%TO.N,Net-(U14-B2)*%
X50420000Y-74557000D03*
%TO.P,U14,16,V+*%
%TO.N,Net-(U1-B0)*%
X50420000Y-72017000D03*
%TD*%
D11*
%TO.P,U3,1,\u03A31*%
%TO.N,Net-(U3-\u03A31)*%
X52300000Y-61337000D03*
D12*
%TO.P,U3,2,B1*%
%TO.N,Net-(U1-B1)*%
X52300000Y-58797000D03*
%TO.P,U3,3,A1*%
%TO.N,Net-(U12-Q1)*%
X52300000Y-56257000D03*
%TO.P,U3,4,\u03A30*%
%TO.N,Net-(U3-\u03A30)*%
X52300000Y-53717000D03*
%TO.P,U3,5,A0*%
%TO.N,Net-(U12-Q0)*%
X52300000Y-51177000D03*
%TO.P,U3,6,B0*%
%TO.N,Net-(U1-B1)*%
X52300000Y-48637000D03*
%TO.P,U3,7,C_IN*%
%TO.N,Net-(U2-C_OUT)*%
X52300000Y-46097000D03*
%TO.P,U3,8,GND*%
%TO.N,Net-(U1-C_IN)*%
X52300000Y-43557000D03*
%TO.P,U3,9,C_OUT*%
%TO.N,Net-(U3-C_OUT)*%
X44680000Y-43557000D03*
%TO.P,U3,10,\u03A33*%
%TO.N,Net-(U3-\u03A33)*%
X44680000Y-46097000D03*
%TO.P,U3,11,B3*%
%TO.N,Net-(U1-B1)*%
X44680000Y-48637000D03*
%TO.P,U3,12,A3*%
%TO.N,Net-(U12-Q3)*%
X44680000Y-51177000D03*
%TO.P,U3,13,\u03A32*%
%TO.N,Net-(U3-\u03A32)*%
X44680000Y-53717000D03*
%TO.P,U3,14,A2*%
%TO.N,Net-(U12-Q2)*%
X44680000Y-56257000D03*
%TO.P,U3,15,B2*%
%TO.N,Net-(U1-B1)*%
X44680000Y-58797000D03*
%TO.P,U3,16,V+*%
%TO.N,Net-(U1-B0)*%
X44680000Y-61337000D03*
%TD*%
D13*
%TO.P,U5,1,READ_0*%
%TO.N,Net-(U25-2B)*%
X38800000Y-165197000D03*
D14*
%TO.P,U5,2,READ_1*%
%TO.N,Net-(U25-2A)*%
X38800000Y-162657000D03*
%TO.P,U5,3,READ_2*%
%TO.N,Net-(U28-2A)*%
X38800000Y-160117000D03*
%TO.P,U5,4,READ_3*%
%TO.N,unconnected-(U5-READ_3-Pad4)*%
X38800000Y-157577000D03*
%TO.P,U5,5,WRITE_0*%
%TO.N,Net-(U24-1B)*%
X38800000Y-155037000D03*
%TO.P,U5,6,WRITE_1*%
%TO.N,Net-(U25-0A)*%
X38800000Y-152497000D03*
%TO.P,U5,7,WRITE_2*%
%TO.N,unconnected-(U5-WRITE_2-Pad7)*%
X38800000Y-149957000D03*
%TO.P,U5,8,WRITE_2*%
%TO.N,unconnected-(U5-WRITE_2-Pad8)*%
X38800000Y-147417000D03*
%TO.P,U5,9,READ_READY*%
%TO.N,Net-(U26-Q0)*%
X38800000Y-144877000D03*
%TO.P,U5,10,CLK_A*%
%TO.N,Net-(U24-2A)*%
X38800000Y-142337000D03*
%TO.P,U5,11,CLK_B*%
%TO.N,Net-(U26-CLK)*%
X38800000Y-139797000D03*
%TO.P,U5,12,V+*%
%TO.N,Net-(U1-B0)*%
X38800000Y-137257000D03*
%TO.P,U5,13,GND*%
%TO.N,Net-(U1-C_IN)*%
X38800000Y-134717000D03*
%TO.P,U5,14,D0*%
%TO.N,Net-(U18-D0)*%
X38800000Y-132177000D03*
%TO.P,U5,15,D1*%
%TO.N,Net-(U18-D1)*%
X38800000Y-129637000D03*
%TO.P,U5,16,D2*%
%TO.N,Net-(U18-D2)*%
X38800000Y-127097000D03*
%TO.P,U5,17,D3*%
%TO.N,Net-(U18-D3)*%
X38800000Y-124557000D03*
%TO.P,U5,18,D4*%
%TO.N,Net-(U18-D4)*%
X38800000Y-122017000D03*
%TO.P,U5,19,D5*%
%TO.N,Net-(U18-D5)*%
X38800000Y-119477000D03*
%TO.P,U5,20,D6*%
%TO.N,Net-(U18-D6)*%
X38800000Y-116937000D03*
%TO.P,U5,21,D7*%
%TO.N,Net-(U18-D7)*%
X38800000Y-114397000D03*
%TO.P,U5,22,FAULT*%
%TO.N,Net-(U25-Q3)*%
X38800000Y-111857000D03*
%TO.P,U5,23,ENABLE*%
%TO.N,Net-(U47-1B)*%
X38800000Y-109317000D03*
%TD*%
D11*
%TO.P,U28,1,1A*%
%TO.N,Net-(U25-Q0)*%
X92000000Y-116592000D03*
D12*
%TO.P,U28,2,1B*%
%TO.N,Net-(U28-1B)*%
X92000000Y-119132000D03*
%TO.P,U28,3,1Q*%
%TO.N,Net-(U26-D0)*%
X92000000Y-121672000D03*
%TO.P,U28,4,2A*%
%TO.N,Net-(U28-2A)*%
X92000000Y-124212000D03*
%TO.P,U28,5,2B*%
%TO.N,Net-(U24-2A)*%
X92000000Y-126752000D03*
%TO.P,U28,6,2Q*%
%TO.N,Net-(U28-2Q)*%
X92000000Y-129292000D03*
%TO.P,U28,7,GND*%
%TO.N,Net-(U1-C_IN)*%
X92000000Y-131832000D03*
%TO.P,U28,8,4Q*%
%TO.N,Net-(U27-3B)*%
X99620000Y-131832000D03*
%TO.P,U28,9,4B*%
%TO.N,Net-(U26-CLK)*%
X99620000Y-129292000D03*
%TO.P,U28,10,4A*%
%TO.N,Net-(U26-Q0)*%
X99620000Y-126752000D03*
%TO.P,U28,11,3Q*%
%TO.N,Net-(U24-1A)*%
X99620000Y-124212000D03*
%TO.P,U28,12,3B*%
%TO.N,Net-(U26-Q1)*%
X99620000Y-121672000D03*
%TO.P,U28,13,3A*%
%TO.N,Net-(U26-CLK)*%
X99620000Y-119132000D03*
%TO.P,U28,14,V+*%
%TO.N,Net-(U1-B0)*%
X99620000Y-116592000D03*
%TD*%
D11*
%TO.P,U1,1,\u03A31*%
%TO.N,Net-(U1-\u03A31)*%
X105500000Y-24842000D03*
D12*
%TO.P,U1,2,B1*%
%TO.N,Net-(U1-B1)*%
X105500000Y-27382000D03*
%TO.P,U1,3,A1*%
%TO.N,Net-(U1-A1)*%
X105500000Y-29922000D03*
%TO.P,U1,4,\u03A30*%
%TO.N,Net-(U1-\u03A30)*%
X105500000Y-32462000D03*
%TO.P,U1,5,A0*%
%TO.N,Net-(U1-A0)*%
X105500000Y-35002000D03*
%TO.P,U1,6,B0*%
%TO.N,Net-(U1-B0)*%
X105500000Y-37542000D03*
%TO.P,U1,7,C_IN*%
%TO.N,Net-(U1-C_IN)*%
X105500000Y-40082000D03*
%TO.P,U1,8,GND*%
X105500000Y-42622000D03*
%TO.P,U1,9,C_OUT*%
%TO.N,Net-(U1-C_OUT)*%
X113120000Y-42622000D03*
%TO.P,U1,10,\u03A33*%
%TO.N,Net-(U1-\u03A33)*%
X113120000Y-40082000D03*
%TO.P,U1,11,B3*%
%TO.N,Net-(U1-B1)*%
X113120000Y-37542000D03*
%TO.P,U1,12,A3*%
%TO.N,Net-(U1-A3)*%
X113120000Y-35002000D03*
%TO.P,U1,13,\u03A32*%
%TO.N,Net-(U1-\u03A32)*%
X113120000Y-32462000D03*
%TO.P,U1,14,A2*%
%TO.N,Net-(U1-A2)*%
X113120000Y-29922000D03*
%TO.P,U1,15,B2*%
%TO.N,Net-(U1-B1)*%
X113120000Y-27382000D03*
%TO.P,U1,16,V+*%
%TO.N,Net-(U1-B0)*%
X113120000Y-24842000D03*
%TD*%
D11*
%TO.P,U20,1,S*%
%TO.N,Net-(U20-S)*%
X136925000Y-67517000D03*
D12*
%TO.P,U20,2,A0*%
%TO.N,Net-(U14-A0)*%
X139465000Y-67517000D03*
%TO.P,U20,3,B0*%
%TO.N,Net-(U14-\u03A30)*%
X142005000Y-67517000D03*
%TO.P,U20,4,Q0*%
%TO.N,Net-(U10-A0)*%
X144545000Y-67517000D03*
%TO.P,U20,5,A1*%
%TO.N,Net-(U14-A1)*%
X147085000Y-67517000D03*
%TO.P,U20,6,B1*%
%TO.N,Net-(U14-\u03A31)*%
X149625000Y-67517000D03*
%TO.P,U20,7,Q1*%
%TO.N,Net-(U10-A1)*%
X152165000Y-67517000D03*
%TO.P,U20,8,GND*%
%TO.N,Net-(U1-C_IN)*%
X154705000Y-67517000D03*
%TO.P,U20,9,Q2*%
%TO.N,Net-(U10-A2)*%
X154705000Y-59897000D03*
%TO.P,U20,10,B2*%
%TO.N,Net-(U14-\u03A32)*%
X152165000Y-59897000D03*
%TO.P,U20,11,A2*%
%TO.N,Net-(U14-A2)*%
X149625000Y-59897000D03*
%TO.P,U20,12,Q3*%
%TO.N,Net-(U10-A3)*%
X147085000Y-59897000D03*
%TO.P,U20,13,B3*%
%TO.N,Net-(U14-\u03A33)*%
X144545000Y-59897000D03*
%TO.P,U20,14,A3*%
%TO.N,Net-(U14-A3)*%
X142005000Y-59897000D03*
%TO.P,U20,15,OE#*%
%TO.N,Net-(U1-C_IN)*%
X139465000Y-59897000D03*
%TO.P,U20,16,V+*%
%TO.N,Net-(U1-B0)*%
X136925000Y-59897000D03*
%TD*%
D11*
%TO.P,U47,1,1A*%
%TO.N,Net-(U26-Q0)*%
X115000000Y-151092000D03*
D12*
%TO.P,U47,2,1B*%
%TO.N,Net-(U47-1B)*%
X115000000Y-153632000D03*
%TO.P,U47,3,1Q*%
%TO.N,Net-(U44-IN)*%
X115000000Y-156172000D03*
%TO.P,U47,4,2A*%
%TO.N,Net-(U1-C_IN)*%
X115000000Y-158712000D03*
%TO.P,U47,5,2B*%
X115000000Y-161252000D03*
%TO.P,U47,6,2Q*%
%TO.N,unconnected-(U47-2Q-Pad6)*%
X115000000Y-163792000D03*
%TO.P,U47,7,GND*%
%TO.N,Net-(U1-C_IN)*%
X115000000Y-166332000D03*
%TO.P,U47,8,4Q*%
%TO.N,unconnected-(U47-4Q-Pad8)*%
X122620000Y-166332000D03*
%TO.P,U47,9,4B*%
%TO.N,Net-(U1-C_IN)*%
X122620000Y-163792000D03*
%TO.P,U47,10,4A*%
X122620000Y-161252000D03*
%TO.P,U47,11,3Q*%
%TO.N,unconnected-(U47-3Q-Pad11)*%
X122620000Y-158712000D03*
%TO.P,U47,12,3B*%
%TO.N,Net-(U1-C_IN)*%
X122620000Y-156172000D03*
%TO.P,U47,13,3A*%
X122620000Y-153632000D03*
%TO.P,U47,14,V+*%
%TO.N,Net-(U1-B0)*%
X122620000Y-151092000D03*
%TD*%
D10*
%TO.P,U36,1,IN*%
%TO.N,Net-(U27-Q2)*%
X127140000Y-128977000D03*
X132220000Y-128977000D03*
%TO.P,U36,2,GND*%
%TO.N,Net-(U1-C_IN)*%
X127140000Y-131517000D03*
X129680000Y-131517000D03*
%TO.P,U36,3,OUT*%
%TO.N,Net-(U19-4A)*%
X134760000Y-128977000D03*
X139840000Y-128977000D03*
%TD*%
D11*
%TO.P,U6,1,OE#*%
%TO.N,Net-(U1-C_IN)*%
X122500000Y-24792000D03*
D12*
%TO.P,U6,2,D0*%
%TO.N,Net-(U1-\u03A30)*%
X122500000Y-27332000D03*
%TO.P,U6,3,D1*%
%TO.N,Net-(U1-\u03A31)*%
X122500000Y-29872000D03*
%TO.P,U6,4,D2*%
%TO.N,Net-(U1-\u03A32)*%
X122500000Y-32412000D03*
%TO.P,U6,5,D3*%
%TO.N,Net-(U1-\u03A33)*%
X122500000Y-34952000D03*
%TO.P,U6,6,D4*%
%TO.N,Net-(U2-\u03A30)*%
X122500000Y-37492000D03*
%TO.P,U6,7,D5*%
%TO.N,Net-(U2-\u03A31)*%
X122500000Y-40032000D03*
%TO.P,U6,8,D6*%
%TO.N,Net-(U2-\u03A32)*%
X122500000Y-42572000D03*
%TO.P,U6,9,D7*%
%TO.N,Net-(U2-\u03A33)*%
X122500000Y-45112000D03*
%TO.P,U6,10,GND*%
%TO.N,Net-(U1-C_IN)*%
X122500000Y-47652000D03*
%TO.P,U6,11,CLK*%
%TO.N,Net-(U19-4A)*%
X130120000Y-47652000D03*
%TO.P,U6,12,Q7*%
%TO.N,Net-(U15-A3)*%
X130120000Y-45112000D03*
%TO.P,U6,13,Q6*%
%TO.N,Net-(U15-A2)*%
X130120000Y-42572000D03*
%TO.P,U6,14,Q5*%
%TO.N,Net-(U15-A1)*%
X130120000Y-40032000D03*
%TO.P,U6,15,Q4*%
%TO.N,Net-(U15-A0)*%
X130120000Y-37492000D03*
%TO.P,U6,16,Q3*%
%TO.N,Net-(U14-A3)*%
X130120000Y-34952000D03*
%TO.P,U6,17,Q2*%
%TO.N,Net-(U14-A2)*%
X130120000Y-32412000D03*
%TO.P,U6,18,Q1*%
%TO.N,Net-(U14-A1)*%
X130120000Y-29872000D03*
%TO.P,U6,19,Q0*%
%TO.N,Net-(U14-A0)*%
X130120000Y-27332000D03*
%TO.P,U6,20,V+*%
%TO.N,Net-(U1-B0)*%
X130120000Y-24792000D03*
%TD*%
D10*
%TO.P,U43,1,IN*%
%TO.N,Net-(U27-3B)*%
X171450000Y-145217000D03*
X176530000Y-145217000D03*
%TO.P,U43,2,GND*%
%TO.N,Net-(U1-C_IN)*%
X171450000Y-147757000D03*
X173990000Y-147757000D03*
%TO.P,U43,3,OUT*%
%TO.N,Net-(U29-CLK)*%
X179070000Y-145217000D03*
X184150000Y-145217000D03*
%TD*%
D11*
%TO.P,U21,1,S*%
%TO.N,Net-(U20-S)*%
X148425000Y-50517000D03*
D12*
%TO.P,U21,2,A0*%
%TO.N,Net-(U15-A0)*%
X150965000Y-50517000D03*
%TO.P,U21,3,B0*%
%TO.N,Net-(U15-\u03A30)*%
X153505000Y-50517000D03*
%TO.P,U21,4,Q0*%
%TO.N,Net-(U10-A4)*%
X156045000Y-50517000D03*
%TO.P,U21,5,A1*%
%TO.N,Net-(U15-A1)*%
X158585000Y-50517000D03*
%TO.P,U21,6,B1*%
%TO.N,Net-(U15-\u03A31)*%
X161125000Y-50517000D03*
%TO.P,U21,7,Q1*%
%TO.N,Net-(U10-A5)*%
X163665000Y-50517000D03*
%TO.P,U21,8,GND*%
%TO.N,Net-(U1-C_IN)*%
X166205000Y-50517000D03*
%TO.P,U21,9,Q2*%
%TO.N,Net-(U10-A6)*%
X166205000Y-42897000D03*
%TO.P,U21,10,B2*%
%TO.N,Net-(U15-\u03A32)*%
X163665000Y-42897000D03*
%TO.P,U21,11,A2*%
%TO.N,Net-(U15-A2)*%
X161125000Y-42897000D03*
%TO.P,U21,12,Q3*%
%TO.N,Net-(U10-A7)*%
X158585000Y-42897000D03*
%TO.P,U21,13,B3*%
%TO.N,Net-(U15-\u03A33)*%
X156045000Y-42897000D03*
%TO.P,U21,14,A3*%
%TO.N,Net-(U15-A3)*%
X153505000Y-42897000D03*
%TO.P,U21,15,OE#*%
%TO.N,Net-(U1-C_IN)*%
X150965000Y-42897000D03*
%TO.P,U21,16,V+*%
%TO.N,Net-(U1-B0)*%
X148425000Y-42897000D03*
%TD*%
D11*
%TO.P,U18,1,OE#*%
%TO.N,Net-(U1-C_IN)*%
X43640000Y-106357000D03*
D12*
%TO.P,U18,2,D0*%
%TO.N,Net-(U18-D0)*%
X46180000Y-106357000D03*
%TO.P,U18,3,D1*%
%TO.N,Net-(U18-D1)*%
X48720000Y-106357000D03*
%TO.P,U18,4,D2*%
%TO.N,Net-(U18-D2)*%
X51260000Y-106357000D03*
%TO.P,U18,5,D3*%
%TO.N,Net-(U18-D3)*%
X53800000Y-106357000D03*
%TO.P,U18,6,D4*%
%TO.N,Net-(U18-D4)*%
X56340000Y-106357000D03*
%TO.P,U18,7,D5*%
%TO.N,Net-(U18-D5)*%
X58880000Y-106357000D03*
%TO.P,U18,8,D6*%
%TO.N,Net-(U18-D6)*%
X61420000Y-106357000D03*
%TO.P,U18,9,D7*%
%TO.N,Net-(U18-D7)*%
X63960000Y-106357000D03*
%TO.P,U18,10,GND*%
%TO.N,Net-(U1-C_IN)*%
X66500000Y-106357000D03*
%TO.P,U18,11,CLK*%
%TO.N,Net-(U18-CLK)*%
X66500000Y-98737000D03*
%TO.P,U18,12,Q7*%
%TO.N,Net-(U15-B3)*%
X63960000Y-98737000D03*
%TO.P,U18,13,Q6*%
%TO.N,Net-(U15-B2)*%
X61420000Y-98737000D03*
%TO.P,U18,14,Q5*%
%TO.N,Net-(U15-B1)*%
X58880000Y-98737000D03*
%TO.P,U18,15,Q4*%
%TO.N,Net-(U15-B0)*%
X56340000Y-98737000D03*
%TO.P,U18,16,Q3*%
%TO.N,Net-(U14-B3)*%
X53800000Y-98737000D03*
%TO.P,U18,17,Q2*%
%TO.N,Net-(U14-B2)*%
X51260000Y-98737000D03*
%TO.P,U18,18,Q1*%
%TO.N,Net-(U14-B1)*%
X48720000Y-98737000D03*
%TO.P,U18,19,Q0*%
%TO.N,Net-(U14-B0)*%
X46180000Y-98737000D03*
%TO.P,U18,20,V+*%
%TO.N,Net-(U1-B0)*%
X43640000Y-98737000D03*
%TD*%
D10*
%TO.P,U45,1,IN*%
%TO.N,Net-(U13-I3)*%
X127490000Y-157897000D03*
X132570000Y-157897000D03*
%TO.P,U45,2,GND*%
%TO.N,Net-(U1-C_IN)*%
X127490000Y-160437000D03*
X130030000Y-160437000D03*
%TO.P,U45,3,OUT*%
%TO.N,Net-(U25-3A)*%
X135110000Y-157897000D03*
X140190000Y-157897000D03*
%TD*%
D11*
%TO.P,U7,1,OE#*%
%TO.N,Net-(U1-C_IN)*%
X108000000Y-52292000D03*
D12*
%TO.P,U7,2,D0*%
%TO.N,Net-(U3-\u03A30)*%
X108000000Y-54832000D03*
%TO.P,U7,3,D1*%
%TO.N,Net-(U3-\u03A31)*%
X108000000Y-57372000D03*
%TO.P,U7,4,D2*%
%TO.N,Net-(U3-\u03A32)*%
X108000000Y-59912000D03*
%TO.P,U7,5,D3*%
%TO.N,Net-(U3-\u03A33)*%
X108000000Y-62452000D03*
%TO.P,U7,6,D4*%
%TO.N,Net-(U4-\u03A30)*%
X108000000Y-64992000D03*
%TO.P,U7,7,D5*%
%TO.N,Net-(U4-\u03A31)*%
X108000000Y-67532000D03*
%TO.P,U7,8,D6*%
%TO.N,Net-(U4-\u03A32)*%
X108000000Y-70072000D03*
%TO.P,U7,9,D7*%
%TO.N,Net-(U4-\u03A33)*%
X108000000Y-72612000D03*
%TO.P,U7,10,GND*%
%TO.N,Net-(U1-C_IN)*%
X108000000Y-75152000D03*
%TO.P,U7,11,CLK*%
%TO.N,Net-(U19-4A)*%
X115620000Y-75152000D03*
%TO.P,U7,12,Q7*%
%TO.N,Net-(U12-D7)*%
X115620000Y-72612000D03*
%TO.P,U7,13,Q6*%
%TO.N,Net-(U12-D6)*%
X115620000Y-70072000D03*
%TO.P,U7,14,Q5*%
%TO.N,Net-(U12-D5)*%
X115620000Y-67532000D03*
%TO.P,U7,15,Q4*%
%TO.N,Net-(U12-D4)*%
X115620000Y-64992000D03*
%TO.P,U7,16,Q3*%
%TO.N,Net-(U12-D3)*%
X115620000Y-62452000D03*
%TO.P,U7,17,Q2*%
%TO.N,Net-(U12-D2)*%
X115620000Y-59912000D03*
%TO.P,U7,18,Q1*%
%TO.N,Net-(U12-D1)*%
X115620000Y-57372000D03*
%TO.P,U7,19,Q0*%
%TO.N,Net-(U12-D0)*%
X115620000Y-54832000D03*
%TO.P,U7,20,V+*%
%TO.N,Net-(U1-B0)*%
X115620000Y-52292000D03*
%TD*%
D13*
%TO.P,U32,1,0*%
%TO.N,Net-(U10-D0)*%
X205120000Y-91602000D03*
D14*
%TO.P,U32,2,1*%
%TO.N,Net-(U10-D1)*%
X202580000Y-91602000D03*
%TO.P,U32,3,2*%
%TO.N,Net-(U10-D2)*%
X200040000Y-91602000D03*
%TO.P,U32,4,3*%
%TO.N,Net-(U10-D3)*%
X197500000Y-91602000D03*
%TO.P,U32,5,4*%
%TO.N,Net-(U10-D4)*%
X194960000Y-91602000D03*
%TO.P,U32,6,5*%
%TO.N,Net-(U10-D5)*%
X192420000Y-91602000D03*
%TO.P,U32,7,6*%
%TO.N,Net-(U10-D6)*%
X189880000Y-91602000D03*
%TO.P,U32,8,7*%
%TO.N,Net-(U10-D7)*%
X187340000Y-91602000D03*
%TD*%
D11*
%TO.P,U16,1,\u03A31*%
%TO.N,Net-(U16-\u03A31)*%
X118880000Y-87217000D03*
D12*
%TO.P,U16,2,B1*%
%TO.N,Net-(U1-B0)*%
X116340000Y-87217000D03*
%TO.P,U16,3,A1*%
%TO.N,Net-(U12-D1)*%
X113800000Y-87217000D03*
%TO.P,U16,4,\u03A30*%
%TO.N,Net-(U16-\u03A30)*%
X111260000Y-87217000D03*
%TO.P,U16,5,A0*%
%TO.N,Net-(U12-D0)*%
X108720000Y-87217000D03*
%TO.P,U16,6,B0*%
%TO.N,Net-(U1-B0)*%
X106180000Y-87217000D03*
%TO.P,U16,7,C_IN*%
%TO.N,Net-(U15-C_OUT)*%
X103640000Y-87217000D03*
%TO.P,U16,8,GND*%
%TO.N,Net-(U1-C_IN)*%
X101100000Y-87217000D03*
%TO.P,U16,9,C_OUT*%
%TO.N,Net-(U16-C_OUT)*%
X101100000Y-94837000D03*
%TO.P,U16,10,\u03A33*%
%TO.N,Net-(U16-\u03A33)*%
X103640000Y-94837000D03*
%TO.P,U16,11,B3*%
%TO.N,Net-(U1-B0)*%
X106180000Y-94837000D03*
%TO.P,U16,12,A3*%
%TO.N,Net-(U12-D3)*%
X108720000Y-94837000D03*
%TO.P,U16,13,\u03A32*%
%TO.N,Net-(U16-\u03A32)*%
X111260000Y-94837000D03*
%TO.P,U16,14,A2*%
%TO.N,Net-(U12-D2)*%
X113800000Y-94837000D03*
%TO.P,U16,15,B2*%
%TO.N,Net-(U1-B0)*%
X116340000Y-94837000D03*
%TO.P,U16,16,V+*%
X118880000Y-94837000D03*
%TD*%
D11*
%TO.P,U31,1,I0*%
%TO.N,Net-(U26-Q0)*%
X108500000Y-120092000D03*
D12*
%TO.P,U31,2,O0*%
%TO.N,Net-(U28-1B)*%
X108500000Y-122632000D03*
%TO.P,U31,3,I1*%
%TO.N,Net-(U1-C_IN)*%
X108500000Y-125172000D03*
%TO.P,U31,4,O1*%
%TO.N,unconnected-(U31-O1-Pad4)*%
X108500000Y-127712000D03*
%TO.P,U31,5,I2*%
%TO.N,Net-(U1-C_IN)*%
X108500000Y-130252000D03*
%TO.P,U31,6,O2*%
%TO.N,unconnected-(U31-O2-Pad6)*%
X108500000Y-132792000D03*
%TO.P,U31,7,GND*%
%TO.N,Net-(U1-C_IN)*%
X108500000Y-135332000D03*
%TO.P,U31,8,03*%
%TO.N,unconnected-(U31-03-Pad8)*%
X116120000Y-135332000D03*
%TO.P,U31,9,I3*%
%TO.N,Net-(U1-C_IN)*%
X116120000Y-132792000D03*
%TO.P,U31,10,O4*%
%TO.N,unconnected-(U31-O4-Pad10)*%
X116120000Y-130252000D03*
%TO.P,U31,11,I4*%
%TO.N,Net-(U1-C_IN)*%
X116120000Y-127712000D03*
%TO.P,U31,12,O5*%
%TO.N,unconnected-(U31-O5-Pad12)*%
X116120000Y-125172000D03*
%TO.P,U31,13,I5*%
%TO.N,Net-(U1-C_IN)*%
X116120000Y-122632000D03*
%TO.P,U31,14,V+*%
%TO.N,Net-(U1-B0)*%
X116120000Y-120092000D03*
%TD*%
D13*
%TO.P,U33,1,0*%
%TO.N,Net-(U10-A0)*%
X181332500Y-49409500D03*
D14*
%TO.P,U33,2,1*%
%TO.N,Net-(U10-A1)*%
X183872500Y-49409500D03*
%TO.P,U33,3,2*%
%TO.N,Net-(U10-A2)*%
X186412500Y-49409500D03*
%TO.P,U33,4,3*%
%TO.N,Net-(U10-A3)*%
X188952500Y-49409500D03*
%TO.P,U33,5,4*%
%TO.N,Net-(U10-A4)*%
X191492500Y-49409500D03*
%TO.P,U33,6,5*%
%TO.N,Net-(U10-A5)*%
X194032500Y-49409500D03*
%TO.P,U33,7,6*%
%TO.N,Net-(U10-A6)*%
X196572500Y-49409500D03*
%TO.P,U33,8,7*%
%TO.N,Net-(U10-A7)*%
X199112500Y-49409500D03*
%TO.P,U33,9,8*%
%TO.N,Net-(U10-A8)*%
X201652500Y-49409500D03*
%TO.P,U33,10,9*%
%TO.N,Net-(U10-A9)*%
X204192500Y-49409500D03*
%TO.P,U33,11,10*%
%TO.N,Net-(U10-A10)*%
X206732500Y-49409500D03*
%TO.P,U33,12,11*%
%TO.N,Net-(U10-A11)*%
X209272500Y-49409500D03*
%TO.P,U33,13,12*%
%TO.N,Net-(U10-A12)*%
X211812500Y-49409500D03*
%TO.P,U33,14,13*%
%TO.N,Net-(U10-A13)*%
X214352500Y-49409500D03*
%TO.P,U33,15,14*%
%TO.N,Net-(U10-A14)*%
X216892500Y-49409500D03*
%TO.P,U33,16,15*%
%TO.N,Net-(U11-CE#)*%
X219432500Y-49409500D03*
%TD*%
D10*
%TO.P,U42,1,IN*%
%TO.N,Net-(U26-Q3)*%
X171450000Y-137477000D03*
X176530000Y-137477000D03*
%TO.P,U42,2,GND*%
%TO.N,Net-(U1-C_IN)*%
X171450000Y-140017000D03*
X173990000Y-140017000D03*
%TO.P,U42,3,OUT*%
%TO.N,Net-(U19-2B)*%
X179070000Y-137477000D03*
X184150000Y-137477000D03*
%TD*%
%TO.P,U35,1,IN*%
%TO.N,Net-(U24-1B)*%
X127260000Y-121094500D03*
X132340000Y-121094500D03*
%TO.P,U35,2,GND*%
%TO.N,Net-(U1-C_IN)*%
X127260000Y-123634500D03*
X129800000Y-123634500D03*
%TO.P,U35,3,OUT*%
%TO.N,Net-(U1-B1)*%
X134880000Y-121094500D03*
X139960000Y-121094500D03*
%TD*%
D11*
%TO.P,U9,1,OE#*%
%TO.N,Net-(U1-C_IN)*%
X60800000Y-145477000D03*
D12*
%TO.P,U9,2,D0*%
%TO.N,Net-(U26-Q0)*%
X60800000Y-148017000D03*
%TO.P,U9,3,D1*%
%TO.N,Net-(U24-3A)*%
X60800000Y-150557000D03*
%TO.P,U9,4,D2*%
%TO.N,Net-(U26-Q2)*%
X60800000Y-153097000D03*
%TO.P,U9,5,D3*%
%TO.N,Net-(U26-Q3)*%
X60800000Y-155637000D03*
%TO.P,U9,6,D4*%
%TO.N,Net-(U25-2B)*%
X60800000Y-158177000D03*
%TO.P,U9,7,D5*%
%TO.N,Net-(U26-Q4)*%
X60800000Y-160717000D03*
%TO.P,U9,8,D6*%
%TO.N,Net-(U25-2A)*%
X60800000Y-163257000D03*
%TO.P,U9,9,D7*%
%TO.N,Net-(U26-Q5)*%
X60800000Y-165797000D03*
%TO.P,U9,10,GND*%
%TO.N,Net-(U1-C_IN)*%
X60800000Y-168337000D03*
%TO.P,U9,11,CLK*%
%TO.N,Net-(U24-2A)*%
X68420000Y-168337000D03*
%TO.P,U9,12,Q7*%
%TO.N,Net-(U26-D6)*%
X68420000Y-165797000D03*
%TO.P,U9,13,Q6*%
%TO.N,Net-(U26-D5)*%
X68420000Y-163257000D03*
%TO.P,U9,14,Q5*%
%TO.N,Net-(U24-4A)*%
X68420000Y-160717000D03*
%TO.P,U9,15,Q4*%
%TO.N,Net-(U26-D4)*%
X68420000Y-158177000D03*
%TO.P,U9,16,Q3*%
%TO.N,Net-(U24-2B)*%
X68420000Y-155637000D03*
%TO.P,U9,17,Q2*%
%TO.N,Net-(U26-D3)*%
X68420000Y-153097000D03*
%TO.P,U9,18,Q1*%
%TO.N,Net-(U26-D2)*%
X68420000Y-150557000D03*
%TO.P,U9,19,Q0*%
%TO.N,Net-(U26-D1)*%
X68420000Y-148017000D03*
%TO.P,U9,20,V+*%
%TO.N,Net-(U1-B0)*%
X68420000Y-145477000D03*
%TD*%
D11*
%TO.P,U22,1,S*%
%TO.N,Net-(U20-S)*%
X151925000Y-32637000D03*
D12*
%TO.P,U22,2,A0*%
%TO.N,Net-(U12-D0)*%
X154465000Y-32637000D03*
%TO.P,U22,3,B0*%
%TO.N,Net-(U16-\u03A30)*%
X157005000Y-32637000D03*
%TO.P,U22,4,Q0*%
%TO.N,Net-(U10-A8)*%
X159545000Y-32637000D03*
%TO.P,U22,5,A1*%
%TO.N,Net-(U12-D1)*%
X162085000Y-32637000D03*
%TO.P,U22,6,B1*%
%TO.N,Net-(U16-\u03A31)*%
X164625000Y-32637000D03*
%TO.P,U22,7,Q1*%
%TO.N,Net-(U10-A9)*%
X167165000Y-32637000D03*
%TO.P,U22,8,GND*%
%TO.N,Net-(U1-C_IN)*%
X169705000Y-32637000D03*
%TO.P,U22,9,Q2*%
%TO.N,Net-(U10-A10)*%
X169705000Y-25017000D03*
%TO.P,U22,10,B2*%
%TO.N,Net-(U16-\u03A32)*%
X167165000Y-25017000D03*
%TO.P,U22,11,A2*%
%TO.N,Net-(U12-D2)*%
X164625000Y-25017000D03*
%TO.P,U22,12,Q3*%
%TO.N,Net-(U10-A11)*%
X162085000Y-25017000D03*
%TO.P,U22,13,B3*%
%TO.N,Net-(U16-\u03A33)*%
X159545000Y-25017000D03*
%TO.P,U22,14,A3*%
%TO.N,Net-(U12-D3)*%
X157005000Y-25017000D03*
%TO.P,U22,15,OE#*%
%TO.N,Net-(U1-C_IN)*%
X154465000Y-25017000D03*
%TO.P,U22,16,V+*%
%TO.N,Net-(U1-B0)*%
X151925000Y-25017000D03*
%TD*%
D11*
%TO.P,U12,1,OE#*%
%TO.N,Net-(U1-C_IN)*%
X69140000Y-62217000D03*
D12*
%TO.P,U12,2,D0*%
%TO.N,Net-(U12-D0)*%
X71680000Y-62217000D03*
%TO.P,U12,3,D1*%
%TO.N,Net-(U12-D1)*%
X74220000Y-62217000D03*
%TO.P,U12,4,D2*%
%TO.N,Net-(U12-D2)*%
X76760000Y-62217000D03*
%TO.P,U12,5,D3*%
%TO.N,Net-(U12-D3)*%
X79300000Y-62217000D03*
%TO.P,U12,6,D4*%
%TO.N,Net-(U12-D4)*%
X81840000Y-62217000D03*
%TO.P,U12,7,D5*%
%TO.N,Net-(U12-D5)*%
X84380000Y-62217000D03*
%TO.P,U12,8,D6*%
%TO.N,Net-(U12-D6)*%
X86920000Y-62217000D03*
%TO.P,U12,9,D7*%
%TO.N,Net-(U12-D7)*%
X89460000Y-62217000D03*
%TO.P,U12,10,GND*%
%TO.N,Net-(U1-C_IN)*%
X92000000Y-62217000D03*
%TO.P,U12,11,CLK*%
%TO.N,Net-(U12-CLK)*%
X92000000Y-54597000D03*
%TO.P,U12,12,Q7*%
%TO.N,Net-(U12-Q7)*%
X89460000Y-54597000D03*
%TO.P,U12,13,Q6*%
%TO.N,Net-(U12-Q6)*%
X86920000Y-54597000D03*
%TO.P,U12,14,Q5*%
%TO.N,Net-(U12-Q5)*%
X84380000Y-54597000D03*
%TO.P,U12,15,Q4*%
%TO.N,Net-(U12-Q4)*%
X81840000Y-54597000D03*
%TO.P,U12,16,Q3*%
%TO.N,Net-(U12-Q3)*%
X79300000Y-54597000D03*
%TO.P,U12,17,Q2*%
%TO.N,Net-(U12-Q2)*%
X76760000Y-54597000D03*
%TO.P,U12,18,Q1*%
%TO.N,Net-(U12-Q1)*%
X74220000Y-54597000D03*
%TO.P,U12,19,Q0*%
%TO.N,Net-(U12-Q0)*%
X71680000Y-54597000D03*
%TO.P,U12,20,V+*%
%TO.N,Net-(U1-B0)*%
X69140000Y-54597000D03*
%TD*%
D10*
%TO.P,U38,1,IN*%
%TO.N,Net-(U28-2Q)*%
X127220000Y-144977000D03*
X132300000Y-144977000D03*
%TO.P,U38,2,GND*%
%TO.N,Net-(U1-C_IN)*%
X127220000Y-147517000D03*
X129760000Y-147517000D03*
%TO.P,U38,3,OUT*%
%TO.N,Net-(U18-CLK)*%
X134840000Y-144977000D03*
X139920000Y-144977000D03*
%TD*%
D11*
%TO.P,U17,1,\u03A31*%
%TO.N,Net-(U17-\u03A31)*%
X128500000Y-80842000D03*
D12*
%TO.P,U17,2,B1*%
%TO.N,Net-(U1-B0)*%
X128500000Y-83382000D03*
%TO.P,U17,3,A1*%
%TO.N,Net-(U12-D5)*%
X128500000Y-85922000D03*
%TO.P,U17,4,\u03A30*%
%TO.N,Net-(U17-\u03A30)*%
X128500000Y-88462000D03*
%TO.P,U17,5,A0*%
%TO.N,Net-(U12-D4)*%
X128500000Y-91002000D03*
%TO.P,U17,6,B0*%
%TO.N,Net-(U1-B0)*%
X128500000Y-93542000D03*
%TO.P,U17,7,C_IN*%
%TO.N,Net-(U16-C_OUT)*%
X128500000Y-96082000D03*
%TO.P,U17,8,GND*%
%TO.N,Net-(U1-C_IN)*%
X128500000Y-98622000D03*
%TO.P,U17,9,C_OUT*%
%TO.N,unconnected-(U17-C_OUT-Pad9)*%
X136120000Y-98622000D03*
%TO.P,U17,10,\u03A33*%
%TO.N,Net-(U17-\u03A33)*%
X136120000Y-96082000D03*
%TO.P,U17,11,B3*%
%TO.N,Net-(U1-B0)*%
X136120000Y-93542000D03*
%TO.P,U17,12,A3*%
%TO.N,Net-(U12-D7)*%
X136120000Y-91002000D03*
%TO.P,U17,13,\u03A32*%
%TO.N,Net-(U17-\u03A32)*%
X136120000Y-88462000D03*
%TO.P,U17,14,A2*%
%TO.N,Net-(U12-D6)*%
X136120000Y-85922000D03*
%TO.P,U17,15,B2*%
%TO.N,Net-(U1-B0)*%
X136120000Y-83382000D03*
%TO.P,U17,16,V+*%
X136120000Y-80842000D03*
%TD*%
D10*
%TO.P,U41,1,IN*%
%TO.N,Net-(U24-3Q)*%
X171450000Y-129847000D03*
X176530000Y-129847000D03*
%TO.P,U41,2,GND*%
%TO.N,Net-(U1-C_IN)*%
X171450000Y-132387000D03*
X173990000Y-132387000D03*
%TO.P,U41,3,OUT*%
%TO.N,Net-(U30-CLK)*%
X179070000Y-129847000D03*
X184150000Y-129847000D03*
%TD*%
D11*
%TO.P,U29,1,OE#*%
%TO.N,Net-(U13-O5)*%
X207700000Y-96602000D03*
D12*
%TO.P,U29,2,D0*%
%TO.N,Net-(U10-D0)*%
X205160000Y-96602000D03*
%TO.P,U29,3,D1*%
%TO.N,Net-(U10-D1)*%
X202620000Y-96602000D03*
%TO.P,U29,4,D2*%
%TO.N,Net-(U10-D2)*%
X200080000Y-96602000D03*
%TO.P,U29,5,D3*%
%TO.N,Net-(U10-D3)*%
X197540000Y-96602000D03*
%TO.P,U29,6,D4*%
%TO.N,Net-(U10-D4)*%
X195000000Y-96602000D03*
%TO.P,U29,7,D5*%
%TO.N,Net-(U10-D5)*%
X192460000Y-96602000D03*
%TO.P,U29,8,D6*%
%TO.N,Net-(U10-D6)*%
X189920000Y-96602000D03*
%TO.P,U29,9,D7*%
%TO.N,Net-(U10-D7)*%
X187380000Y-96602000D03*
%TO.P,U29,10,GND*%
%TO.N,Net-(U1-C_IN)*%
X184840000Y-96602000D03*
%TO.P,U29,11,CLK*%
%TO.N,Net-(U29-CLK)*%
X184840000Y-104222000D03*
%TO.P,U29,12,Q7*%
%TO.N,Net-(U18-D7)*%
X187380000Y-104222000D03*
%TO.P,U29,13,Q6*%
%TO.N,Net-(U18-D6)*%
X189920000Y-104222000D03*
%TO.P,U29,14,Q5*%
%TO.N,Net-(U18-D5)*%
X192460000Y-104222000D03*
%TO.P,U29,15,Q4*%
%TO.N,Net-(U18-D4)*%
X195000000Y-104222000D03*
%TO.P,U29,16,Q3*%
%TO.N,Net-(U18-D3)*%
X197540000Y-104222000D03*
%TO.P,U29,17,Q2*%
%TO.N,Net-(U18-D2)*%
X200080000Y-104222000D03*
%TO.P,U29,18,Q1*%
%TO.N,Net-(U18-D1)*%
X202620000Y-104222000D03*
%TO.P,U29,19,Q0*%
%TO.N,Net-(U18-D0)*%
X205160000Y-104222000D03*
%TO.P,U29,20,V+*%
%TO.N,Net-(U1-B0)*%
X207700000Y-104222000D03*
%TD*%
D10*
%TO.P,U46,1,IN*%
%TO.N,Net-(U19-4Q)*%
X127490000Y-165897000D03*
X132570000Y-165897000D03*
%TO.P,U46,2,GND*%
%TO.N,Net-(U1-C_IN)*%
X127490000Y-168437000D03*
X130030000Y-168437000D03*
%TO.P,U46,3,OUT*%
%TO.N,Net-(U25-3B)*%
X135110000Y-165897000D03*
X140190000Y-165897000D03*
%TD*%
%TO.P,U34,1,IN*%
%TO.N,Net-(U27-Q3)*%
X127260000Y-113527000D03*
X132340000Y-113527000D03*
%TO.P,U34,2,GND*%
%TO.N,Net-(U1-C_IN)*%
X127260000Y-116067000D03*
X129800000Y-116067000D03*
%TO.P,U34,3,OUT*%
%TO.N,Net-(U12-CLK)*%
X134880000Y-113527000D03*
X139960000Y-113527000D03*
%TD*%
D11*
%TO.P,U19,1,1A*%
%TO.N,Net-(U13-03)*%
X218180000Y-85597000D03*
D12*
%TO.P,U19,2,1B*%
%TO.N,Net-(U19-1B)*%
X218180000Y-88137000D03*
%TO.P,U19,3,1Q*%
%TO.N,Net-(U13-I1)*%
X218180000Y-90677000D03*
%TO.P,U19,4,2A*%
%TO.N,Net-(U19-1B)*%
X218180000Y-93217000D03*
%TO.P,U19,5,2B*%
%TO.N,Net-(U19-2B)*%
X218180000Y-95757000D03*
%TO.P,U19,6,2Q*%
%TO.N,Net-(U13-I3)*%
X218180000Y-98297000D03*
%TO.P,U19,7,GND*%
%TO.N,Net-(U1-C_IN)*%
X218180000Y-100837000D03*
%TO.P,U19,8,4Q*%
%TO.N,Net-(U19-4Q)*%
X225800000Y-100837000D03*
%TO.P,U19,9,4B*%
%TO.N,Net-(U12-CLK)*%
X225800000Y-98297000D03*
%TO.P,U19,10,4A*%
%TO.N,Net-(U19-4A)*%
X225800000Y-95757000D03*
%TO.P,U19,11,3Q*%
%TO.N,Net-(U13-I4)*%
X225800000Y-93217000D03*
%TO.P,U19,12,3B*%
%TO.N,Net-(U19-2B)*%
X225800000Y-90677000D03*
%TO.P,U19,13,3A*%
%TO.N,Net-(U13-03)*%
X225800000Y-88137000D03*
%TO.P,U19,14,V+*%
%TO.N,Net-(U1-B0)*%
X225800000Y-85597000D03*
%TD*%
D11*
%TO.P,U30,1,OE#*%
%TO.N,Net-(U13-O4)*%
X152140000Y-99837000D03*
D12*
%TO.P,U30,2,D0*%
%TO.N,Net-(U18-D0)*%
X154680000Y-99837000D03*
%TO.P,U30,3,D1*%
%TO.N,Net-(U18-D1)*%
X157220000Y-99837000D03*
%TO.P,U30,4,D2*%
%TO.N,Net-(U18-D2)*%
X159760000Y-99837000D03*
%TO.P,U30,5,D3*%
%TO.N,Net-(U18-D3)*%
X162300000Y-99837000D03*
%TO.P,U30,6,D4*%
%TO.N,Net-(U18-D4)*%
X164840000Y-99837000D03*
%TO.P,U30,7,D5*%
%TO.N,Net-(U18-D5)*%
X167380000Y-99837000D03*
%TO.P,U30,8,D6*%
%TO.N,Net-(U18-D6)*%
X169920000Y-99837000D03*
%TO.P,U30,9,D7*%
%TO.N,Net-(U18-D7)*%
X172460000Y-99837000D03*
%TO.P,U30,10,GND*%
%TO.N,Net-(U1-C_IN)*%
X175000000Y-99837000D03*
%TO.P,U30,11,CLK*%
%TO.N,Net-(U30-CLK)*%
X175000000Y-92217000D03*
%TO.P,U30,12,Q7*%
%TO.N,Net-(U10-D7)*%
X172460000Y-92217000D03*
%TO.P,U30,13,Q6*%
%TO.N,Net-(U10-D6)*%
X169920000Y-92217000D03*
%TO.P,U30,14,Q5*%
%TO.N,Net-(U10-D5)*%
X167380000Y-92217000D03*
%TO.P,U30,15,Q4*%
%TO.N,Net-(U10-D4)*%
X164840000Y-92217000D03*
%TO.P,U30,16,Q3*%
%TO.N,Net-(U10-D3)*%
X162300000Y-92217000D03*
%TO.P,U30,17,Q2*%
%TO.N,Net-(U10-D2)*%
X159760000Y-92217000D03*
%TO.P,U30,18,Q1*%
%TO.N,Net-(U10-D1)*%
X157220000Y-92217000D03*
%TO.P,U30,19,Q0*%
%TO.N,Net-(U10-D0)*%
X154680000Y-92217000D03*
%TO.P,U30,20,V+*%
%TO.N,Net-(U1-B0)*%
X152140000Y-92217000D03*
%TD*%
D11*
%TO.P,U26,1,OE#*%
%TO.N,Net-(U1-C_IN)*%
X101680000Y-148557000D03*
D12*
%TO.P,U26,2,D0*%
%TO.N,Net-(U26-D0)*%
X101680000Y-151097000D03*
%TO.P,U26,3,D1*%
%TO.N,Net-(U26-D1)*%
X101680000Y-153637000D03*
%TO.P,U26,4,D2*%
%TO.N,Net-(U26-D2)*%
X101680000Y-156177000D03*
%TO.P,U26,5,D3*%
%TO.N,Net-(U26-D3)*%
X101680000Y-158717000D03*
%TO.P,U26,6,D4*%
%TO.N,Net-(U26-D4)*%
X101680000Y-161257000D03*
%TO.P,U26,7,D5*%
%TO.N,Net-(U26-D5)*%
X101680000Y-163797000D03*
%TO.P,U26,8,D6*%
%TO.N,Net-(U26-D6)*%
X101680000Y-166337000D03*
%TO.P,U26,9,D7*%
%TO.N,Net-(U1-C_IN)*%
X101680000Y-168877000D03*
%TO.P,U26,10,GND*%
X101680000Y-171417000D03*
%TO.P,U26,11,CLK*%
%TO.N,Net-(U26-CLK)*%
X109300000Y-171417000D03*
%TO.P,U26,12,Q7*%
%TO.N,unconnected-(U26-Q7-Pad12)*%
X109300000Y-168877000D03*
%TO.P,U26,13,Q6*%
%TO.N,Net-(U26-Q6)*%
X109300000Y-166337000D03*
%TO.P,U26,14,Q5*%
%TO.N,Net-(U26-Q5)*%
X109300000Y-163797000D03*
%TO.P,U26,15,Q4*%
%TO.N,Net-(U26-Q4)*%
X109300000Y-161257000D03*
%TO.P,U26,16,Q3*%
%TO.N,Net-(U26-Q3)*%
X109300000Y-158717000D03*
%TO.P,U26,17,Q2*%
%TO.N,Net-(U26-Q2)*%
X109300000Y-156177000D03*
%TO.P,U26,18,Q1*%
%TO.N,Net-(U26-Q1)*%
X109300000Y-153637000D03*
%TO.P,U26,19,Q0*%
%TO.N,Net-(U26-Q0)*%
X109300000Y-151097000D03*
%TO.P,U26,20,V+*%
%TO.N,Net-(U1-B0)*%
X109300000Y-148557000D03*
%TD*%
D11*
%TO.P,U27,1,0A*%
%TO.N,Net-(U1-B0)*%
X91840000Y-153217000D03*
D12*
%TO.P,U27,2,0B*%
X89300000Y-153217000D03*
%TO.P,U27,3,Q0*%
%TO.N,unconnected-(U27-Q0-Pad3)*%
X86760000Y-153217000D03*
%TO.P,U27,4,Q1*%
%TO.N,Net-(U27-Q1)*%
X84220000Y-153217000D03*
%TO.P,U27,5,1A*%
%TO.N,Net-(U25-0A)*%
X81680000Y-153217000D03*
%TO.P,U27,6,1B*%
%TO.N,Net-(U26-Q6)*%
X79140000Y-153217000D03*
%TO.P,U27,7,GND*%
%TO.N,Net-(U1-C_IN)*%
X76600000Y-153217000D03*
%TO.P,U27,8,2A*%
%TO.N,Net-(U24-4Q)*%
X76600000Y-160837000D03*
%TO.P,U27,9,2B*%
%TO.N,Net-(U24-1Q)*%
X79140000Y-160837000D03*
%TO.P,U27,10,Q2*%
%TO.N,Net-(U27-Q2)*%
X81680000Y-160837000D03*
%TO.P,U27,11,Q3*%
%TO.N,Net-(U27-Q3)*%
X84220000Y-160837000D03*
%TO.P,U27,12,3A*%
%TO.N,Net-(U24-3Q)*%
X86760000Y-160837000D03*
%TO.P,U27,13,3B*%
%TO.N,Net-(U27-3B)*%
X89300000Y-160837000D03*
%TO.P,U27,14,V+*%
%TO.N,Net-(U1-B0)*%
X91840000Y-160837000D03*
%TD*%
D15*
%TO.N,Net-(U1-B1)*%
X104702000Y-113038000D03*
X56616000Y-39299000D03*
X74851000Y-91198000D03*
X129800000Y-112217000D03*
%TO.N,Net-(U1-B0)*%
X61954000Y-70491000D03*
X209092000Y-108634000D03*
X87751000Y-114097000D03*
X58998000Y-120976000D03*
X119362000Y-148433000D03*
X98591000Y-145633000D03*
X48269000Y-94081000D03*
X69472000Y-70491000D03*
X185003000Y-81902000D03*
%TO.N,Net-(U1-C_OUT)*%
X100488000Y-44556000D03*
%TO.N,Net-(U1-A1)*%
X90313000Y-43143000D03*
X65366000Y-42212000D03*
%TO.N,Net-(U1-A3)*%
X113174000Y-46578000D03*
X63584000Y-47604000D03*
%TO.N,Net-(U1-A2)*%
X104186000Y-43852000D03*
X76114000Y-36420000D03*
%TO.N,Net-(U2-\u03A31)*%
X109180000Y-32575000D03*
X107342000Y-30737000D03*
%TO.N,Net-(U2-A0)*%
X54115000Y-38242000D03*
%TO.N,Net-(U2-\u03A30)*%
X88455000Y-38118000D03*
X99050000Y-44141000D03*
%TO.N,Net-(U3-\u03A33)*%
X81069000Y-43089000D03*
%TO.N,Net-(U4-\u03A31)*%
X66087000Y-63072000D03*
%TO.N,Net-(U4-\u03A32)*%
X82499000Y-75595000D03*
%TO.N,Net-(U4-\u03A30)*%
X64826000Y-63686000D03*
%TO.N,Net-(U1-C_IN)*%
X168800000Y-117440000D03*
X73105000Y-142041000D03*
X69494000Y-42661000D03*
X158860000Y-60403000D03*
X158612000Y-64004000D03*
%TO.N,Net-(U14-A0)*%
X38780000Y-68518000D03*
X121066000Y-76381000D03*
%TO.N,Net-(U15-A2)*%
X117478000Y-49046000D03*
X99589000Y-74001000D03*
X67588000Y-29158000D03*
X95476000Y-53680000D03*
X96936000Y-71348000D03*
%TO.N,Net-(U15-A3)*%
X111505000Y-49977000D03*
X98253000Y-55168000D03*
X81474000Y-76592000D03*
X68680000Y-30249000D03*
%TO.N,Net-(U14-A2)*%
X59688000Y-32136000D03*
X47649000Y-74098000D03*
X145960000Y-41699000D03*
%TO.N,Net-(U14-A3)*%
X47374000Y-78372000D03*
X74228000Y-48574000D03*
X60883000Y-29218000D03*
X118093000Y-47960000D03*
%TO.N,Net-(U14-A1)*%
X53727000Y-25251000D03*
X143577000Y-40719000D03*
X72394000Y-25251000D03*
%TO.N,Net-(U15-A1)*%
X46985000Y-30205000D03*
X115948000Y-79232000D03*
X86951000Y-83891000D03*
X94071000Y-74011000D03*
%TO.N,Net-(U15-A0)*%
X68713000Y-67616000D03*
X129493000Y-72927000D03*
X43184000Y-31263000D03*
X143107000Y-49915000D03*
X86468000Y-66323000D03*
%TO.N,Net-(U10-A6)*%
X193464000Y-46547000D03*
%TO.N,Net-(U10-OE#)*%
X220911000Y-121705000D03*
X221495000Y-84469000D03*
%TO.N,Net-(U10-CE#)*%
X220823000Y-119979000D03*
%TO.N,Net-(U10-A12)*%
X203599000Y-58073000D03*
%TO.N,Net-(U10-A10)*%
X230991000Y-59037000D03*
X215602000Y-69873000D03*
X181200000Y-33334000D03*
%TO.N,Net-(U10-D0)*%
X161400000Y-86800000D03*
%TO.N,Net-(U10-A14)*%
X198320000Y-62833000D03*
%TO.N,Net-(U10-A11)*%
X199720000Y-70775000D03*
X220982000Y-70938000D03*
X173100000Y-32285000D03*
%TO.N,Net-(U10-A13)*%
X225750000Y-73512000D03*
%TO.N,Net-(U10-A9)*%
X223770000Y-71581000D03*
X196757000Y-71757000D03*
%TO.N,Net-(U12-Q1)*%
X60571000Y-51360000D03*
%TO.N,Net-(U11-CE#)*%
X217690000Y-110788000D03*
%TO.N,Net-(U12-Q3)*%
X75416000Y-57763000D03*
%TO.N,Net-(U12-Q2)*%
X63436000Y-64107000D03*
%TO.N,Net-(U12-Q4)*%
X65189000Y-50300000D03*
%TO.N,Net-(U19-4A)*%
X127673000Y-110003000D03*
%TO.N,Net-(U14-\u03A33)*%
X122268000Y-99442000D03*
X128221000Y-63237000D03*
X53084000Y-91788000D03*
%TO.N,Net-(U14-\u03A30)*%
X136384000Y-101043000D03*
%TO.N,Net-(U14-C_OUT)*%
X53136000Y-93820000D03*
%TO.N,Net-(U14-\u03A32)*%
X144595000Y-75277000D03*
%TO.N,Net-(U15-\u03A33)*%
X126306000Y-97651000D03*
X141486000Y-48144000D03*
%TO.N,Net-(U15-\u03A32)*%
X112933000Y-88619000D03*
X148908000Y-78995000D03*
X119156000Y-88904000D03*
%TO.N,Net-(U15-\u03A30)*%
X142815000Y-93151000D03*
X88932000Y-102647000D03*
%TO.N,Net-(U15-\u03A31)*%
X88296000Y-103570000D03*
X143232000Y-96166000D03*
X82031000Y-84073000D03*
%TO.N,Net-(U15-B2)*%
X88510000Y-98282000D03*
%TO.N,Net-(U16-\u03A30)*%
X142477000Y-37383000D03*
X123624000Y-79440000D03*
%TO.N,Net-(U16-\u03A33)*%
X122811000Y-94363000D03*
X149504000Y-26454000D03*
%TO.N,Net-(U16-\u03A31)*%
X159863000Y-66978000D03*
%TO.N,Net-(U16-\u03A32)*%
X117245000Y-90125000D03*
X123358000Y-86232000D03*
%TO.N,Net-(U17-\u03A32)*%
X235488000Y-56154000D03*
%TO.N,Net-(U17-\u03A31)*%
X189922000Y-34769000D03*
X149804000Y-80724000D03*
%TO.N,Net-(U17-\u03A30)*%
X147245000Y-30462000D03*
%TO.N,Net-(U17-\u03A33)*%
X160773000Y-66317000D03*
X139330000Y-87886000D03*
%TO.N,Net-(U18-CLK)*%
X116370000Y-100095000D03*
%TO.N,Net-(U12-D3)*%
X110313000Y-62452000D03*
X100506000Y-76086000D03*
X124720000Y-62452000D03*
X98291000Y-87867000D03*
%TO.N,Net-(U12-D5)*%
X163240000Y-61305000D03*
X114216000Y-76552000D03*
X127995000Y-65577000D03*
%TO.N,Net-(U12-D4)*%
X120780000Y-91002000D03*
X170859000Y-58703000D03*
X113756000Y-79176000D03*
%TO.N,Net-(U12-D6)*%
X146965000Y-82630000D03*
X130428000Y-70072000D03*
%TO.N,Net-(U12-D0)*%
X128798000Y-54832000D03*
X78103000Y-73537000D03*
X138652000Y-35851000D03*
%TO.N,Net-(U12-D7)*%
X131072000Y-72026000D03*
X149096000Y-22811000D03*
X121770000Y-72052000D03*
X91800000Y-64783000D03*
%TO.N,Net-(U20-S)*%
X148261000Y-34248000D03*
%TO.N,Net-(U12-D2)*%
X142018000Y-32497000D03*
X124704000Y-59912000D03*
X113585000Y-80411000D03*
%TO.N,Net-(U12-D1)*%
X110624000Y-81670000D03*
X156268000Y-39705000D03*
X130628000Y-57536000D03*
X140331000Y-39705000D03*
%TO.N,Net-(U12-CLK)*%
X140470000Y-110539000D03*
X130732000Y-73829000D03*
X95620000Y-69383000D03*
%TO.N,Net-(U24-1A)*%
X89359000Y-114427000D03*
X68298000Y-114313000D03*
%TO.N,Net-(U24-2A)*%
X42653000Y-137869000D03*
%TO.N,Net-(U26-Q0)*%
X101245000Y-143710000D03*
%TO.N,Net-(U25-2A)*%
X71235000Y-144690000D03*
X71348000Y-136765000D03*
X65362000Y-154329000D03*
X78735000Y-136765000D03*
%TO.N,Net-(U25-2B)*%
X65087000Y-134635000D03*
X75637000Y-134165000D03*
%TO.N,Net-(U26-Q2)*%
X97443000Y-146005000D03*
%TO.N,Net-(U13-O4)*%
X173068000Y-111769000D03*
%TO.N,Net-(U13-I1)*%
X216553000Y-97201000D03*
%TO.N,Net-(U18-D7)*%
X57642000Y-114076000D03*
X173560000Y-102372000D03*
%TO.N,Net-(U18-D6)*%
X172250000Y-103225000D03*
%TO.N,Net-(U18-D4)*%
X45549000Y-122017000D03*
%TO.N,Net-(U18-D2)*%
X53734000Y-109001000D03*
%TO.N,Net-(U18-D5)*%
X46461000Y-119477000D03*
%TO.N,Net-(U19-4Q)*%
X190762000Y-161799000D03*
X212850000Y-110385000D03*
%TO.N,Net-(U24-4Q)*%
X68659000Y-135536000D03*
%TO.N,Net-(U24-3Q)*%
X72276000Y-140237000D03*
%TO.N,Net-(U25-0A)*%
X47888000Y-143540000D03*
X74131000Y-141508000D03*
%TO.N,Net-(U25-Q3)*%
X71062000Y-114844000D03*
%TO.N,Net-(U26-CLK)*%
X104426000Y-139507000D03*
%TO.N,Net-(U26-Q6)*%
X111627000Y-146255000D03*
%TO.N,Net-(U27-3B)*%
X98681000Y-142511000D03*
X165071000Y-142511000D03*
X93657000Y-142511000D03*
%TO.N,Net-(U28-2A)*%
X83516000Y-138841000D03*
%TO.N,Net-(U24-1B)*%
X117527000Y-111219000D03*
%TO.N,Net-(U26-Q3)*%
X119717000Y-152286000D03*
X96303000Y-170062000D03*
%TO.N,Net-(U13-O5)*%
X218785000Y-113337000D03*
X215132000Y-99519000D03*
%TO.N,Net-(U24-2Q)*%
X56721000Y-137230000D03*
%TO.N,Net-(U25-3A)*%
X117800000Y-146217000D03*
X117800000Y-163217000D03*
X114800000Y-145717000D03*
%TO.N,Net-(U27-Q2)*%
X95620000Y-137602000D03*
%TO.N,Net-(U27-Q3)*%
X94535000Y-152078000D03*
X121452000Y-121071000D03*
X113684000Y-143474000D03*
%TO.N,Net-(U27-Q1)*%
X94299000Y-140535000D03*
%TO.N,Net-(U28-2Q)*%
X119603000Y-136899000D03*
%TO.N,Net-(U47-1B)*%
X116300000Y-144717000D03*
X51376000Y-141545000D03*
X76300000Y-139717000D03*
X42653000Y-114978000D03*
X99300000Y-144717000D03*
X76300000Y-144717000D03*
X52083000Y-126390000D03*
X103300000Y-144717000D03*
%TO.N,Net-(U44-IN)*%
X156971000Y-150611000D03*
%TD*%
D16*
%TO.N,Net-(U1-B1)*%
X128490000Y-112217000D02*
X128426000Y-112153000D01*
X65338000Y-85542000D02*
X71120000Y-85542000D01*
X71120000Y-75382000D02*
X65338000Y-75382000D01*
X44680000Y-48637000D02*
X52300000Y-48637000D01*
X63500000Y-85542000D02*
X65338000Y-85542000D01*
X93120000Y-27882000D02*
X85500000Y-27882000D01*
X83281000Y-38860000D02*
X57055000Y-38860000D01*
X128426000Y-112153000D02*
X126216000Y-112153000D01*
X65338000Y-75382000D02*
X63500000Y-75382000D01*
X126216000Y-112153000D02*
X125331000Y-113038000D01*
X134880000Y-121094500D02*
X139960000Y-121094500D01*
X105500000Y-27382000D02*
X113120000Y-27382000D01*
X125331000Y-113038000D02*
X104702000Y-113038000D01*
X129800000Y-112217000D02*
X128490000Y-112217000D01*
X84098000Y-38042000D02*
X83281000Y-38860000D01*
X57055000Y-38860000D02*
X56616000Y-39299000D01*
X85500000Y-38042000D02*
X84098000Y-38042000D01*
X65338000Y-85542000D02*
X65338000Y-75382000D01*
X74851000Y-89273000D02*
X74851000Y-91198000D01*
X71120000Y-85542000D02*
X74851000Y-89273000D01*
%TO.N,Net-(U1-\u03A31)*%
X106902000Y-24842000D02*
X105500000Y-24842000D01*
X121098000Y-29872000D02*
X114667000Y-23440000D01*
X108303000Y-23440000D02*
X106902000Y-24842000D01*
X114667000Y-23440000D02*
X108303000Y-23440000D01*
X122500000Y-29872000D02*
X121098000Y-29872000D01*
%TO.N,Net-(U1-B0)*%
X109300000Y-148557000D02*
X110702000Y-148557000D01*
X45015000Y-97335000D02*
X48269000Y-94081000D01*
X133990000Y-84110000D02*
X133262000Y-83382000D01*
X111218000Y-116592000D02*
X99620000Y-116592000D01*
X88330000Y-113518000D02*
X95144000Y-113518000D01*
X117023000Y-52293000D02*
X117022000Y-52292000D01*
X69822000Y-145477000D02*
X71107000Y-146762000D01*
X151925000Y-24792000D02*
X153153000Y-23564000D01*
X91840000Y-151815000D02*
X92925000Y-151815000D01*
X61398000Y-120177000D02*
X62800000Y-120177000D01*
X219651000Y-111689000D02*
X212147000Y-111689000D01*
X92120000Y-78342000D02*
X93522000Y-78342000D01*
X133990000Y-93542000D02*
X133990000Y-84110000D01*
X114718000Y-120092000D02*
X111218000Y-116592000D01*
X200862000Y-75805000D02*
X202935000Y-77878000D01*
X92925000Y-151815000D02*
X98591000Y-146150000D01*
X104706000Y-85743000D02*
X106180000Y-87217000D01*
X110826000Y-148433000D02*
X119362000Y-148433000D01*
X117022000Y-52292000D02*
X115620000Y-52292000D01*
X216679000Y-77878000D02*
X224398000Y-85597000D01*
X224018000Y-116057000D02*
X219651000Y-111689000D01*
X87751000Y-114097000D02*
X88330000Y-113518000D01*
X58998000Y-120976000D02*
X60599000Y-120976000D01*
X91840000Y-153217000D02*
X89300000Y-153217000D01*
X90718000Y-78342000D02*
X92120000Y-78342000D01*
X65420000Y-35217000D02*
X66973000Y-35217000D01*
X127017000Y-93461000D02*
X121658000Y-93461000D01*
X74124000Y-74445000D02*
X86821000Y-74445000D01*
X133990000Y-93542000D02*
X128500000Y-93542000D01*
X91718000Y-25342000D02*
X93120000Y-25342000D01*
X151925000Y-25017000D02*
X151925000Y-24792000D01*
X72522000Y-72842000D02*
X74124000Y-74445000D01*
X110702000Y-148557000D02*
X110826000Y-148433000D01*
X71107000Y-146762000D02*
X82845000Y-146762000D01*
X71120000Y-72842000D02*
X72522000Y-72842000D01*
X162455000Y-81902000D02*
X185003000Y-81902000D01*
X185691000Y-23564000D02*
X186523000Y-24397000D01*
X100923000Y-85743000D02*
X104706000Y-85743000D01*
X98591000Y-146150000D02*
X98591000Y-145633000D01*
X116340000Y-94837000D02*
X118880000Y-94837000D01*
X116340000Y-94837000D02*
X116340000Y-87217000D01*
X136120000Y-83382000D02*
X134718000Y-83382000D01*
X116120000Y-120092000D02*
X114718000Y-120092000D01*
X153153000Y-23564000D02*
X185691000Y-23564000D01*
X137522000Y-93542000D02*
X136120000Y-93542000D01*
X60599000Y-120976000D02*
X61398000Y-120177000D01*
X121658000Y-93461000D02*
X120282000Y-94837000D01*
X199460000Y-75717000D02*
X200862000Y-75717000D01*
X134718000Y-83382000D02*
X133990000Y-84110000D01*
X68420000Y-145477000D02*
X69822000Y-145477000D01*
X120282000Y-94837000D02*
X118880000Y-94837000D01*
X135523000Y-59897000D02*
X127920000Y-52293000D01*
X43640000Y-97335000D02*
X45015000Y-97335000D01*
X186523000Y-24397000D02*
X187925000Y-24397000D01*
X78251000Y-23939000D02*
X90316000Y-23939000D01*
X202935000Y-77878000D02*
X216679000Y-77878000D01*
X95144000Y-113518000D02*
X98218000Y-116592000D01*
X152140000Y-92217000D02*
X162455000Y-81902000D01*
X105500000Y-37542000D02*
X104098000Y-37542000D01*
X151925000Y-24792000D02*
X130120000Y-24792000D01*
X224398000Y-85597000D02*
X225800000Y-85597000D01*
X128500000Y-93542000D02*
X127098000Y-93542000D01*
X104098000Y-37542000D02*
X104098000Y-36320000D01*
X90316000Y-23939000D02*
X91718000Y-25342000D01*
X133262000Y-83382000D02*
X128500000Y-83382000D01*
X82845000Y-146762000D02*
X89300000Y-153217000D01*
X212147000Y-111689000D02*
X209092000Y-108634000D01*
X98218000Y-116592000D02*
X99620000Y-116592000D01*
X200862000Y-75717000D02*
X200862000Y-75805000D01*
X61954000Y-70491000D02*
X53348000Y-70491000D01*
X91840000Y-153217000D02*
X91840000Y-151815000D01*
X104098000Y-36320000D02*
X93120000Y-25342000D01*
X93522000Y-78342000D02*
X100923000Y-85743000D01*
X53348000Y-70491000D02*
X51822000Y-72017000D01*
X69472000Y-70491000D02*
X61954000Y-70491000D01*
X43640000Y-98737000D02*
X43640000Y-97335000D01*
X225420000Y-116057000D02*
X224018000Y-116057000D01*
X127920000Y-52293000D02*
X117023000Y-52293000D01*
X51822000Y-72017000D02*
X50420000Y-72017000D01*
X66973000Y-35217000D02*
X78251000Y-23939000D01*
X133990000Y-93542000D02*
X136120000Y-93542000D01*
X127098000Y-93542000D02*
X127017000Y-93461000D01*
X136925000Y-59897000D02*
X135523000Y-59897000D01*
X138847000Y-92217000D02*
X137522000Y-93542000D01*
X152140000Y-92217000D02*
X138847000Y-92217000D01*
X86821000Y-74445000D02*
X90718000Y-78342000D01*
%TO.N,Net-(U1-A0)*%
X104098000Y-34301000D02*
X104098000Y-35002000D01*
X104098000Y-35002000D02*
X105500000Y-35002000D01*
X69166000Y-32032000D02*
X77991000Y-23207000D01*
X66065000Y-32032000D02*
X69166000Y-32032000D01*
X77991000Y-23207000D02*
X93005000Y-23207000D01*
X62880000Y-35217000D02*
X66065000Y-32032000D01*
X93005000Y-23207000D02*
X104098000Y-34301000D01*
%TO.N,Net-(U1-\u03A32)*%
X114522000Y-32462000D02*
X113120000Y-32462000D01*
X122500000Y-32412000D02*
X114572000Y-32412000D01*
X114572000Y-32412000D02*
X114522000Y-32462000D01*
%TO.N,Net-(U1-C_OUT)*%
X109361000Y-42622000D02*
X107226000Y-44757000D01*
X107226000Y-44757000D02*
X100689000Y-44757000D01*
X113120000Y-42622000D02*
X109361000Y-42622000D01*
X100689000Y-44757000D02*
X100488000Y-44556000D01*
%TO.N,Net-(U1-A1)*%
X69867000Y-41759000D02*
X65819000Y-41759000D01*
X65819000Y-41759000D02*
X65366000Y-42212000D01*
X90313000Y-43143000D02*
X87501000Y-45955000D01*
X74063000Y-45955000D02*
X69867000Y-41759000D01*
X87501000Y-45955000D02*
X74063000Y-45955000D01*
%TO.N,Net-(U1-A3)*%
X111390000Y-46578000D02*
X113174000Y-46578000D01*
X63584000Y-47604000D02*
X110364000Y-47604000D01*
X110364000Y-47604000D02*
X111390000Y-46578000D01*
%TO.N,Net-(U1-\u03A33)*%
X122500000Y-34952000D02*
X119652000Y-34952000D01*
X114522000Y-40082000D02*
X113120000Y-40082000D01*
X119652000Y-34952000D02*
X114522000Y-40082000D01*
%TO.N,Net-(U1-A2)*%
X110578000Y-32464000D02*
X113120000Y-29922000D01*
X75909000Y-36625000D02*
X59208000Y-36625000D01*
X110578000Y-39567000D02*
X110578000Y-32464000D01*
X104381000Y-44047000D02*
X106098000Y-44047000D01*
X106098000Y-44047000D02*
X110578000Y-39567000D01*
X59208000Y-36625000D02*
X57800000Y-35217000D01*
X104186000Y-43852000D02*
X104381000Y-44047000D01*
X76114000Y-36420000D02*
X75909000Y-36625000D01*
%TO.N,Net-(U2-\u03A33)*%
X94522000Y-41984000D02*
X94522000Y-40582000D01*
X121098000Y-45112000D02*
X120576000Y-45634000D01*
X122500000Y-45112000D02*
X121098000Y-45112000D01*
X99414000Y-46876000D02*
X94522000Y-41984000D01*
X108084000Y-46876000D02*
X99414000Y-46876000D01*
X94522000Y-40582000D02*
X93120000Y-40582000D01*
X120576000Y-45634000D02*
X109326000Y-45634000D01*
X109326000Y-45634000D02*
X108084000Y-46876000D01*
%TO.N,Net-(U2-\u03A31)*%
X107342000Y-30737000D02*
X109180000Y-32575000D01*
%TO.N,Net-(U2-A3)*%
X86438000Y-45229000D02*
X84554000Y-45229000D01*
X60765000Y-40981000D02*
X50864000Y-40981000D01*
X93120000Y-35502000D02*
X90698000Y-37924000D01*
X90698000Y-40969000D02*
X86438000Y-45229000D01*
X61391000Y-40355000D02*
X60765000Y-40981000D01*
X79681000Y-40355000D02*
X61391000Y-40355000D01*
X90698000Y-37924000D02*
X90698000Y-40969000D01*
X50864000Y-40981000D02*
X45100000Y-35217000D01*
X84554000Y-45229000D02*
X79681000Y-40355000D01*
%TO.N,Net-(U2-\u03A32)*%
X109035000Y-44933000D02*
X107793000Y-46174000D01*
X97714000Y-44099000D02*
X97714000Y-37556000D01*
X118738000Y-44933000D02*
X109035000Y-44933000D01*
X122500000Y-42572000D02*
X121098000Y-42572000D01*
X99790000Y-46174000D02*
X97714000Y-44099000D01*
X107793000Y-46174000D02*
X99790000Y-46174000D01*
X97714000Y-37556000D02*
X93120000Y-32962000D01*
X121098000Y-42572000D02*
X118738000Y-44933000D01*
%TO.N,Net-(U2-A0)*%
X81564000Y-38036000D02*
X84098000Y-35502000D01*
X54320000Y-38036000D02*
X81564000Y-38036000D01*
X84098000Y-35502000D02*
X85500000Y-35502000D01*
X54115000Y-38242000D02*
X54320000Y-38036000D01*
%TO.N,Net-(U2-\u03A30)*%
X100100000Y-45473000D02*
X99050000Y-44423000D01*
X88455000Y-38118000D02*
X88455000Y-35917000D01*
X88455000Y-35917000D02*
X85500000Y-32962000D01*
X122500000Y-37492000D02*
X121098000Y-37492000D01*
X114359000Y-44231000D02*
X108745000Y-44231000D01*
X107503000Y-45473000D02*
X100100000Y-45473000D01*
X121098000Y-37492000D02*
X114359000Y-44231000D01*
X99050000Y-44423000D02*
X99050000Y-44141000D01*
X108745000Y-44231000D02*
X107503000Y-45473000D01*
%TO.N,Net-(U2-A1)*%
X52290000Y-37327000D02*
X77194000Y-37327000D01*
X50180000Y-35217000D02*
X52290000Y-37327000D01*
X77194000Y-37327000D02*
X84098000Y-30422000D01*
X84098000Y-30422000D02*
X85500000Y-30422000D01*
%TO.N,Net-(U2-C_OUT)*%
X54261000Y-46656000D02*
X88184000Y-46656000D01*
X53702000Y-46097000D02*
X54261000Y-46656000D01*
X91718000Y-43122000D02*
X93120000Y-43122000D01*
X88184000Y-46656000D02*
X91718000Y-43122000D01*
X52300000Y-46097000D02*
X53702000Y-46097000D01*
%TO.N,Net-(U2-A2)*%
X89470000Y-41163000D02*
X86106000Y-44527000D01*
X93120000Y-30422000D02*
X89470000Y-34072000D01*
X89470000Y-34072000D02*
X89470000Y-41163000D01*
X60519000Y-40235000D02*
X52658000Y-40235000D01*
X86106000Y-44527000D02*
X84923000Y-44527000D01*
X61100000Y-39654000D02*
X60519000Y-40235000D01*
X80049000Y-39654000D02*
X61100000Y-39654000D01*
X52658000Y-40235000D02*
X47640000Y-35217000D01*
X84923000Y-44527000D02*
X80049000Y-39654000D01*
%TO.N,Net-(U3-\u03A33)*%
X50023000Y-42155000D02*
X46082000Y-46097000D01*
X81069000Y-43089000D02*
X79038000Y-41057000D01*
X79038000Y-41057000D02*
X61787000Y-41057000D01*
X61787000Y-41057000D02*
X60689000Y-42155000D01*
X46082000Y-46097000D02*
X44680000Y-46097000D01*
X60689000Y-42155000D02*
X50023000Y-42155000D01*
%TO.N,Net-(U3-\u03A31)*%
X52300000Y-61337000D02*
X53702000Y-61337000D01*
X106086000Y-56859000D02*
X106598000Y-57372000D01*
X58179000Y-56859000D02*
X106086000Y-56859000D01*
X106598000Y-57372000D02*
X108000000Y-57372000D01*
X53702000Y-61337000D02*
X58179000Y-56859000D01*
%TO.N,Net-(U3-\u03A32)*%
X108000000Y-59912000D02*
X106598000Y-59912000D01*
X66489000Y-58664000D02*
X61691000Y-63463000D01*
X105351000Y-58664000D02*
X66489000Y-58664000D01*
X106598000Y-59912000D02*
X105351000Y-58664000D01*
X61691000Y-63463000D02*
X50981000Y-63463000D01*
X48448000Y-57485000D02*
X44680000Y-53717000D01*
X48448000Y-60930000D02*
X48448000Y-57485000D01*
X50981000Y-63463000D02*
X48448000Y-60930000D01*
%TO.N,Net-(U3-\u03A30)*%
X105356000Y-56074000D02*
X106598000Y-54832000D01*
X106598000Y-54832000D02*
X108000000Y-54832000D01*
X52300000Y-53717000D02*
X53702000Y-53717000D01*
X53702000Y-53717000D02*
X56059000Y-56074000D01*
X56059000Y-56074000D02*
X105356000Y-56074000D01*
%TO.N,Net-(U4-\u03A31)*%
X106598000Y-67532000D02*
X99160000Y-60094000D01*
X66087000Y-62759000D02*
X66087000Y-63072000D01*
X108000000Y-67532000D02*
X106598000Y-67532000D01*
X68752000Y-60094000D02*
X66087000Y-62759000D01*
X99160000Y-60094000D02*
X68752000Y-60094000D01*
%TO.N,Net-(U4-\u03A32)*%
X77389000Y-75595000D02*
X82499000Y-75595000D01*
X71120000Y-80462000D02*
X72522000Y-80462000D01*
X72522000Y-80462000D02*
X77389000Y-75595000D01*
%TO.N,Net-(U4-\u03A30)*%
X106598000Y-64992000D02*
X100998000Y-59392000D01*
X64827000Y-63686000D02*
X64826000Y-63686000D01*
X68458000Y-59392000D02*
X64827000Y-63024000D01*
X100998000Y-59392000D02*
X68458000Y-59392000D01*
X108000000Y-64992000D02*
X106598000Y-64992000D01*
X64827000Y-63024000D02*
X64827000Y-63686000D01*
%TO.N,Net-(U1-C_IN)*%
X127140000Y-131517000D02*
X125752000Y-130129000D01*
X44202000Y-89797000D02*
X42800000Y-89797000D01*
X93402000Y-131832000D02*
X92000000Y-131832000D01*
X186422000Y-100837000D02*
X218180000Y-100837000D01*
X127078000Y-123452500D02*
X127260000Y-123635000D01*
X78710000Y-155327000D02*
X93554000Y-155327000D01*
X108500000Y-135332000D02*
X107098000Y-135332000D01*
X126530000Y-122905000D02*
X125800000Y-122175000D01*
X171450000Y-147757000D02*
X173990000Y-147757000D01*
X176984000Y-99255000D02*
X184840000Y-99255000D01*
X175000000Y-99837000D02*
X176402000Y-99837000D01*
X63500000Y-90622000D02*
X52231000Y-90622000D01*
X125752000Y-125143000D02*
X125752000Y-127712000D01*
X176402000Y-99837000D02*
X176984000Y-99255000D01*
X109902000Y-133930000D02*
X109902000Y-132792000D01*
X108000000Y-52292000D02*
X109402000Y-52292000D01*
X131173000Y-117440000D02*
X131300000Y-117440000D01*
X204533000Y-58443000D02*
X203900000Y-59075000D01*
X165038000Y-60477000D02*
X164964000Y-60403000D01*
X127260000Y-123635000D02*
X125752000Y-125143000D01*
X164964000Y-60403000D02*
X158860000Y-60403000D01*
X38800000Y-134717000D02*
X40252000Y-134717000D01*
X100278000Y-148602000D02*
X100278000Y-148557000D01*
X184840000Y-96602000D02*
X184840000Y-99255000D01*
X158612000Y-65011000D02*
X158612000Y-64004000D01*
X131160000Y-51592000D02*
X127842000Y-51592000D01*
X127260000Y-116067000D02*
X129800000Y-116067000D01*
X156107000Y-67517000D02*
X158612000Y-65011000D01*
X124837000Y-160437000D02*
X127490000Y-160437000D01*
X109900000Y-130252000D02*
X109902000Y-130252000D01*
X125800000Y-122175000D02*
X125800000Y-117527000D01*
X117860000Y-50890000D02*
X121098000Y-47652000D01*
X186731000Y-57172000D02*
X203977000Y-57172000D01*
X127078000Y-123452500D02*
X127260000Y-123634500D01*
X63981000Y-26158000D02*
X43999000Y-26158000D01*
X127842000Y-51592000D02*
X123902000Y-47652000D01*
X202683000Y-29902000D02*
X202683000Y-29987000D01*
X73105000Y-142041000D02*
X73016000Y-141952000D01*
X130030000Y-160437000D02*
X127490000Y-160437000D01*
X204533000Y-57728000D02*
X204533000Y-58443000D01*
X52231000Y-90622000D02*
X51590000Y-91263000D01*
X109902000Y-126574000D02*
X108500000Y-125172000D01*
X125752000Y-130129000D02*
X125752000Y-127712000D01*
X203299000Y-30603000D02*
X203880000Y-30603000D01*
X108500000Y-130252000D02*
X109900000Y-130252000D01*
X45668000Y-91263000D02*
X44202000Y-89797000D01*
X122620000Y-161252000D02*
X124022000Y-161252000D01*
X123902000Y-47652000D02*
X122500000Y-47652000D01*
X126895000Y-123270000D02*
X126896000Y-123270000D01*
X109902000Y-132792000D02*
X109902000Y-130253000D01*
X171370000Y-155647000D02*
X173910000Y-155647000D01*
X76600000Y-153217000D02*
X78710000Y-155327000D01*
X166440000Y-60477000D02*
X165038000Y-60477000D01*
X125800000Y-117527000D02*
X127260000Y-116067000D01*
X115000000Y-161252000D02*
X122620000Y-161252000D01*
X173990000Y-140017000D02*
X171450000Y-140017000D01*
X126530000Y-122905000D02*
X126895000Y-123270000D01*
X40252000Y-134717000D02*
X40952000Y-135417000D01*
X103082000Y-148557000D02*
X101680000Y-148557000D01*
X203880000Y-30603000D02*
X204086000Y-30398000D01*
X70543000Y-60814000D02*
X90597000Y-60814000D01*
X43999000Y-26158000D02*
X42560000Y-27597000D01*
X129760000Y-147517000D02*
X127220000Y-147517000D01*
X107098000Y-135332000D02*
X105697000Y-133930000D01*
X51590000Y-91263000D02*
X45668000Y-91263000D01*
X173990000Y-124517000D02*
X171450000Y-124517000D01*
X40952000Y-135417000D02*
X55180000Y-135417000D01*
X111250000Y-147154000D02*
X111613000Y-147517000D01*
X139465000Y-59897000D02*
X131160000Y-51592000D01*
X121098000Y-47652000D02*
X122500000Y-47652000D01*
X185047000Y-55488000D02*
X186731000Y-57172000D01*
X171450000Y-116517000D02*
X173990000Y-116517000D01*
X108000000Y-75152000D02*
X95065000Y-62217000D01*
X170527000Y-117440000D02*
X168800000Y-117440000D01*
X104485000Y-147154000D02*
X111250000Y-147154000D01*
X203977000Y-57172000D02*
X204533000Y-57728000D01*
X124022000Y-161252000D02*
X124837000Y-160437000D01*
X108500000Y-135332000D02*
X109902000Y-133930000D01*
X129680000Y-131517000D02*
X127140000Y-131517000D01*
X202683000Y-29987000D02*
X203299000Y-30603000D01*
X116120000Y-127712000D02*
X125752000Y-127712000D01*
X73016000Y-141952000D02*
X66898000Y-141952000D01*
X171450000Y-132387000D02*
X173990000Y-132387000D01*
X68598000Y-43557000D02*
X69494000Y-42661000D01*
X69140000Y-62217000D02*
X70543000Y-60814000D01*
X103082000Y-148557000D02*
X104485000Y-147154000D01*
X171450000Y-116517000D02*
X170527000Y-117440000D01*
X90597000Y-60814000D02*
X92000000Y-62217000D01*
X129800000Y-116067000D02*
X131173000Y-117440000D01*
X171311000Y-50517000D02*
X176282000Y-55488000D01*
X110803000Y-50890000D02*
X117860000Y-50890000D01*
X154705000Y-67517000D02*
X156107000Y-67517000D01*
X204086000Y-30398000D02*
X205705000Y-32017000D01*
X130030000Y-168437000D02*
X127490000Y-168437000D01*
X100278000Y-148557000D02*
X101680000Y-148557000D01*
X105697000Y-133930000D02*
X95500000Y-133930000D01*
X116120000Y-132792000D02*
X109902000Y-132792000D01*
X109402000Y-52292000D02*
X110803000Y-50890000D01*
X190465000Y-24397000D02*
X195970000Y-29902000D01*
X175138000Y-130995000D02*
X172842000Y-130995000D01*
X109902000Y-127712000D02*
X109902000Y-126574000D01*
X172842000Y-130995000D02*
X171450000Y-132387000D01*
X203900000Y-59075000D02*
X203900000Y-60477000D01*
X166205000Y-50517000D02*
X171311000Y-50517000D01*
X111613000Y-147517000D02*
X127220000Y-147517000D01*
X103082000Y-167475000D02*
X101680000Y-168877000D01*
X65420000Y-27597000D02*
X63981000Y-26158000D01*
X168800000Y-117440000D02*
X131300000Y-117440000D01*
X109902000Y-130252000D02*
X109902000Y-127712000D01*
X52300000Y-43557000D02*
X68598000Y-43557000D01*
X103082000Y-148557000D02*
X103082000Y-167475000D01*
X93554000Y-155327000D02*
X100278000Y-148602000D01*
X109902000Y-130253000D02*
X109900000Y-130252000D01*
X95500000Y-133930000D02*
X93402000Y-131832000D01*
X184840000Y-99255000D02*
X186422000Y-100837000D01*
X116120000Y-127712000D02*
X109902000Y-127712000D01*
X63373000Y-145477000D02*
X60800000Y-145477000D01*
X175440000Y-131297000D02*
X175138000Y-130995000D01*
X129800000Y-123634500D02*
X127260000Y-123634500D01*
X126896000Y-123270000D02*
X127078000Y-123452500D01*
X195970000Y-29902000D02*
X202683000Y-29902000D01*
X127220000Y-139517000D02*
X129760000Y-139517000D01*
X217800000Y-131297000D02*
X175440000Y-131297000D01*
X95065000Y-62217000D02*
X92000000Y-62217000D01*
X66898000Y-141952000D02*
X63373000Y-145477000D01*
X176282000Y-55488000D02*
X185047000Y-55488000D01*
%TO.N,Net-(U14-A0)*%
X74629000Y-68518000D02*
X75330000Y-69219000D01*
X102225000Y-82873000D02*
X109560000Y-82873000D01*
X139465000Y-68919000D02*
X139465000Y-67517000D01*
X81802000Y-69219000D02*
X83983000Y-71401000D01*
X114869000Y-82578000D02*
X121066000Y-76381000D01*
X38780000Y-68518000D02*
X74629000Y-68518000D01*
X83983000Y-71401000D02*
X90186000Y-71401000D01*
X75330000Y-69219000D02*
X81802000Y-69219000D01*
X121066000Y-76381000D02*
X122384000Y-75063000D01*
X133320000Y-75063000D02*
X139465000Y-68919000D01*
X94264000Y-74912000D02*
X95179000Y-75828000D01*
X95179000Y-75828000D02*
X102225000Y-82873000D01*
X111983000Y-82578000D02*
X114869000Y-82578000D01*
X109560000Y-82873000D02*
X109960000Y-83273000D01*
X111288000Y-83273000D02*
X111983000Y-82578000D01*
X122384000Y-75063000D02*
X133320000Y-75063000D01*
X90186000Y-71401000D02*
X93698000Y-74912000D01*
X109960000Y-83273000D02*
X111288000Y-83273000D01*
X93698000Y-74912000D02*
X94264000Y-74912000D01*
%TO.N,Net-(U15-A2)*%
X159714000Y-41486000D02*
X161125000Y-42897000D01*
X47640000Y-27597000D02*
X50183000Y-30140000D01*
X131522000Y-42572000D02*
X131551000Y-42601000D01*
X131551000Y-42601000D02*
X146336000Y-42601000D01*
X96936000Y-71348000D02*
X99589000Y-74001000D01*
X62288000Y-29158000D02*
X67588000Y-29158000D01*
X130120000Y-42572000D02*
X131522000Y-42572000D01*
X117478000Y-49046000D02*
X111161000Y-49046000D01*
X146336000Y-42601000D02*
X147450000Y-41486000D01*
X50183000Y-30140000D02*
X61306000Y-30140000D01*
X111161000Y-49046000D02*
X110931000Y-49276000D01*
X99881000Y-49276000D02*
X95476000Y-53680000D01*
X61306000Y-30140000D02*
X62288000Y-29158000D01*
X110931000Y-49276000D02*
X99881000Y-49276000D01*
X147450000Y-41486000D02*
X159714000Y-41486000D01*
%TO.N,Net-(U15-A3)*%
X153505000Y-42897000D02*
X151290000Y-45112000D01*
X98253000Y-55168000D02*
X103444000Y-49977000D01*
X64060000Y-30249000D02*
X68680000Y-30249000D01*
X151290000Y-45112000D02*
X130120000Y-45112000D01*
X92120000Y-88502000D02*
X87982000Y-84365000D01*
X87982000Y-79335000D02*
X85240000Y-76592000D01*
X45100000Y-27597000D02*
X45652000Y-27597000D01*
X85240000Y-76592000D02*
X81474000Y-76592000D01*
X63431000Y-30878000D02*
X64060000Y-30249000D01*
X45652000Y-27597000D02*
X48933000Y-30878000D01*
X48933000Y-30878000D02*
X63431000Y-30878000D01*
X87982000Y-84365000D02*
X87982000Y-79335000D01*
X103444000Y-49977000D02*
X111505000Y-49977000D01*
%TO.N,Net-(U14-A2)*%
X47649000Y-74326000D02*
X47649000Y-74098000D01*
X59688000Y-32136000D02*
X64417000Y-32136000D01*
X128200000Y-27996000D02*
X128200000Y-30492000D01*
X128200000Y-30492000D02*
X130120000Y-32412000D01*
X130120000Y-32412000D02*
X131522000Y-32412000D01*
X131522000Y-32412000D02*
X131522000Y-33307000D01*
X131522000Y-33307000D02*
X139914000Y-41699000D01*
X65223000Y-31330000D02*
X68876000Y-31330000D01*
X122710000Y-22506000D02*
X128200000Y-27996000D01*
X64417000Y-32136000D02*
X65223000Y-31330000D01*
X139914000Y-41699000D02*
X145960000Y-41699000D01*
X68876000Y-31330000D02*
X77700000Y-22506000D01*
X77700000Y-22506000D02*
X122710000Y-22506000D01*
X50420000Y-77097000D02*
X47649000Y-74326000D01*
%TO.N,Net-(U14-A3)*%
X130120000Y-34952000D02*
X127278000Y-37794000D01*
X47374000Y-79131000D02*
X47374000Y-78372000D01*
X56881000Y-29218000D02*
X60883000Y-29218000D01*
X127278000Y-48829000D02*
X129339000Y-50890000D01*
X132998000Y-50890000D02*
X142005000Y-59897000D01*
X129339000Y-50890000D02*
X132998000Y-50890000D01*
X127278000Y-37794000D02*
X127278000Y-48829000D01*
X110640000Y-48574000D02*
X74228000Y-48574000D01*
X55260000Y-27597000D02*
X56881000Y-29218000D01*
X111254000Y-47960000D02*
X110640000Y-48574000D01*
X50420000Y-82177000D02*
X47374000Y-79131000D01*
X118093000Y-47960000D02*
X111254000Y-47960000D01*
%TO.N,Net-(U14-A1)*%
X72394000Y-25251000D02*
X53727000Y-25251000D01*
X130120000Y-29872000D02*
X139430000Y-39182000D01*
X140018000Y-40719000D02*
X143577000Y-40719000D01*
X139430000Y-39182000D02*
X139430000Y-40131000D01*
X139430000Y-40131000D02*
X140018000Y-40719000D01*
%TO.N,Net-(U15-A1)*%
X102515000Y-82171000D02*
X109851000Y-82171000D01*
X94354000Y-74011000D02*
X95881000Y-75537000D01*
X85902000Y-83422000D02*
X86370000Y-83891000D01*
X158585000Y-50517000D02*
X157081000Y-49013000D01*
X128704000Y-48242000D02*
X128704000Y-41448000D01*
X84500000Y-83422000D02*
X85902000Y-83422000D01*
X41157000Y-59852000D02*
X46319000Y-65014000D01*
X142690000Y-49057000D02*
X129518000Y-49057000D01*
X94071000Y-74011000D02*
X94354000Y-74011000D01*
X84274000Y-70699000D02*
X90760000Y-70699000D01*
X157081000Y-49013000D02*
X142733000Y-49013000D01*
X90760000Y-70699000D02*
X94071000Y-74011000D01*
X45587000Y-30205000D02*
X41157000Y-34635000D01*
X81898000Y-68323000D02*
X84274000Y-70699000D01*
X41157000Y-34635000D02*
X41157000Y-59852000D01*
X110998000Y-82572000D02*
X111694000Y-81875000D01*
X111694000Y-81875000D02*
X113396000Y-81875000D01*
X142733000Y-49013000D02*
X142690000Y-49057000D01*
X46319000Y-65014000D02*
X76022000Y-65014000D01*
X95881000Y-75537000D02*
X102515000Y-82171000D01*
X129518000Y-49057000D02*
X128704000Y-48242000D01*
X79332000Y-68323000D02*
X81898000Y-68323000D01*
X110251000Y-82572000D02*
X110998000Y-82572000D01*
X109851000Y-82171000D02*
X110251000Y-82572000D01*
X113396000Y-81875000D02*
X115948000Y-79323000D01*
X46985000Y-30205000D02*
X45587000Y-30205000D01*
X76022000Y-65014000D02*
X79332000Y-68323000D01*
X115948000Y-79323000D02*
X115948000Y-79232000D01*
X128704000Y-41448000D02*
X130120000Y-40032000D01*
X86370000Y-83891000D02*
X86951000Y-83891000D01*
%TO.N,Net-(U15-A0)*%
X87231000Y-67087000D02*
X95066000Y-67087000D01*
X97942000Y-70086000D02*
X106519000Y-78663000D01*
X111830000Y-77467000D02*
X116142000Y-77467000D01*
X86468000Y-66323000D02*
X87231000Y-67087000D01*
X95066000Y-67087000D02*
X97942000Y-69961000D01*
X143107000Y-49915000D02*
X145137000Y-51945000D01*
X47895000Y-67616000D02*
X68713000Y-67616000D01*
X97942000Y-69961000D02*
X97942000Y-70086000D01*
X40455000Y-60176000D02*
X47895000Y-67616000D01*
X130120000Y-37492000D02*
X127986000Y-39626000D01*
X43184000Y-31263000D02*
X40455000Y-33992000D01*
X145137000Y-51945000D02*
X149537000Y-51945000D01*
X129318000Y-73102000D02*
X129493000Y-72927000D01*
X110634000Y-78663000D02*
X111830000Y-77467000D01*
X106519000Y-78663000D02*
X110634000Y-78663000D01*
X120506000Y-73102000D02*
X129318000Y-73102000D01*
X149537000Y-51945000D02*
X150965000Y-50517000D01*
X116142000Y-77467000D02*
X120506000Y-73102000D01*
X40455000Y-33992000D02*
X40455000Y-60176000D01*
X127986000Y-39626000D02*
X127986000Y-48543000D01*
X129358000Y-49915000D02*
X143107000Y-49915000D01*
X127986000Y-48543000D02*
X129358000Y-49915000D01*
%TO.N,Net-(U10-A1)*%
X183872000Y-49409000D02*
X183872500Y-49409500D01*
X157559000Y-63102000D02*
X176515000Y-63102000D01*
X183872500Y-49409500D02*
X190231000Y-55768000D01*
X155644000Y-64038000D02*
X156623000Y-64038000D01*
X156623000Y-64038000D02*
X157559000Y-63102000D01*
X207009000Y-56541000D02*
X211788000Y-56541000D01*
X152165000Y-67517000D02*
X155644000Y-64038000D01*
X215079000Y-58956000D02*
X216600000Y-60477000D01*
X190231000Y-55768000D02*
X206236000Y-55768000D01*
X214204000Y-58956000D02*
X215079000Y-58956000D01*
X211788000Y-56541000D02*
X214204000Y-58956000D01*
X206236000Y-55768000D02*
X207009000Y-56541000D01*
X176515000Y-63102000D02*
X179140000Y-60477000D01*
%TO.N,Net-(U10-A6)*%
X212948000Y-52331000D02*
X215137000Y-54520000D01*
X208257000Y-52331000D02*
X212948000Y-52331000D01*
X198718000Y-51555000D02*
X207481000Y-51555000D01*
X207481000Y-51555000D02*
X208257000Y-52331000D01*
X196572500Y-49409500D02*
X198718000Y-51555000D01*
X215137000Y-54520000D02*
X223343000Y-54520000D01*
X167607000Y-42897000D02*
X171256000Y-46547000D01*
X223343000Y-54520000D02*
X229300000Y-60477000D01*
X171256000Y-46547000D02*
X193464000Y-46547000D01*
X196572000Y-49409000D02*
X196572500Y-49409500D01*
X166205000Y-42897000D02*
X167607000Y-42897000D01*
%TO.N,Net-(U10-OE#)*%
X219202000Y-123415000D02*
X220911000Y-121705000D01*
X215942000Y-78916000D02*
X221495000Y-84469000D01*
X187419000Y-78916000D02*
X215942000Y-78916000D01*
X184220000Y-75717000D02*
X187419000Y-78916000D01*
X217800000Y-123677000D02*
X219202000Y-123677000D01*
X219202000Y-123677000D02*
X219202000Y-123415000D01*
%TO.N,Net-(U10-CE#)*%
X219441000Y-118597000D02*
X220823000Y-119979000D01*
X217800000Y-118597000D02*
X219441000Y-118597000D01*
%TO.N,Net-(U10-A12)*%
X234380000Y-60477000D02*
X226912000Y-53009000D01*
X215610000Y-53009000D02*
X212011000Y-49409000D01*
X226912000Y-53009000D02*
X215610000Y-53009000D01*
X196920000Y-60477000D02*
X199324000Y-58073000D01*
X212011000Y-49409000D02*
X211813000Y-49409000D01*
X211813000Y-49409000D02*
X211812000Y-49409000D01*
X199324000Y-58073000D02*
X203599000Y-58073000D01*
X211813000Y-49409000D02*
X211812500Y-49409500D01*
%TO.N,Net-(U10-A10)*%
X206732500Y-49409500D02*
X194684000Y-37361000D01*
X208602000Y-51279000D02*
X206732500Y-49409500D01*
X225718000Y-53764000D02*
X215374000Y-53764000D01*
X185228000Y-37361000D02*
X181200000Y-33334000D01*
X212888000Y-51279000D02*
X208602000Y-51279000D01*
X181680000Y-75717000D02*
X187524000Y-69873000D01*
X215374000Y-53764000D02*
X212888000Y-51279000D01*
X230991000Y-59037000D02*
X225718000Y-53764000D01*
X194684000Y-37361000D02*
X185228000Y-37361000D01*
X187524000Y-69873000D02*
X215602000Y-69873000D01*
%TO.N,Net-(U10-A8)*%
X159545000Y-32637000D02*
X172056000Y-45148000D01*
X197391000Y-45148000D02*
X201652000Y-49409000D01*
X211602000Y-72610000D02*
X211526000Y-72687000D01*
X226193000Y-72610000D02*
X211602000Y-72610000D01*
X201652500Y-49409500D02*
X201652000Y-49409000D01*
X194870000Y-72687000D02*
X191840000Y-75717000D01*
X172056000Y-45148000D02*
X197391000Y-45148000D01*
X211526000Y-72687000D02*
X194870000Y-72687000D01*
X229300000Y-75717000D02*
X226193000Y-72610000D01*
%TO.N,Net-(U10-A0)*%
X156332000Y-63337000D02*
X157420000Y-62249000D01*
X206709000Y-57561000D02*
X211144000Y-57561000D01*
X144545000Y-67517000D02*
X148725000Y-63337000D01*
X188393000Y-56470000D02*
X205618000Y-56470000D01*
X211144000Y-57561000D02*
X214060000Y-60477000D01*
X181332000Y-49409000D02*
X181332500Y-49409500D01*
X205618000Y-56470000D02*
X206709000Y-57561000D01*
X148725000Y-63337000D02*
X156332000Y-63337000D01*
X181332500Y-49409500D02*
X188393000Y-56470000D01*
X157420000Y-62249000D02*
X174828000Y-62249000D01*
X174828000Y-62249000D02*
X176600000Y-60477000D01*
%TO.N,Net-(U10-D4)*%
X164840000Y-92217000D02*
X167644000Y-89413000D01*
X192771000Y-89413000D02*
X194960000Y-91602000D01*
X167644000Y-89413000D02*
X192771000Y-89413000D01*
%TO.N,Net-(U10-WE#)*%
X203258000Y-77123000D02*
X232974000Y-77123000D01*
X200512000Y-74300000D02*
X201680000Y-75468000D01*
X201680000Y-75545000D02*
X203258000Y-77123000D01*
X198337000Y-74300000D02*
X200512000Y-74300000D01*
X201680000Y-75468000D02*
X201680000Y-75545000D01*
X232974000Y-77123000D02*
X234380000Y-75717000D01*
X196920000Y-75717000D02*
X198337000Y-74300000D01*
%TO.N,Net-(U10-D0)*%
X154680000Y-92217000D02*
X160097000Y-86800000D01*
X205120000Y-93054000D02*
X205160000Y-93094000D01*
X200318000Y-86800000D02*
X205120000Y-91602000D01*
X205120000Y-91602000D02*
X205120000Y-93054000D01*
X205160000Y-93094000D02*
X205160000Y-96602000D01*
X160097000Y-86800000D02*
X161400000Y-86800000D01*
X161400000Y-86800000D02*
X200318000Y-86800000D01*
%TO.N,Net-(U10-D6)*%
X188406000Y-90128000D02*
X189880000Y-91602000D01*
X172009000Y-90128000D02*
X188406000Y-90128000D01*
X169920000Y-92217000D02*
X172009000Y-90128000D01*
%TO.N,Net-(U10-A7)*%
X199112500Y-49409500D02*
X199112000Y-49409000D01*
X158585000Y-42897000D02*
X163483000Y-47795000D01*
X195785000Y-61882000D02*
X230435000Y-61882000D01*
X230435000Y-61882000D02*
X231840000Y-60477000D01*
X197498000Y-47795000D02*
X199112000Y-49409000D01*
X163483000Y-47795000D02*
X197498000Y-47795000D01*
X194380000Y-60477000D02*
X195785000Y-61882000D01*
%TO.N,Net-(U10-A5)*%
X207967000Y-53033000D02*
X207191000Y-52257000D01*
X175164000Y-56216000D02*
X171218000Y-52269000D01*
X194032500Y-49409500D02*
X194032000Y-49409000D01*
X221505000Y-55222000D02*
X214846000Y-55222000D01*
X165417000Y-52269000D02*
X163665000Y-50517000D01*
X189300000Y-60477000D02*
X188984000Y-60477000D01*
X188984000Y-60477000D02*
X184723000Y-56216000D01*
X212657000Y-53033000D02*
X207967000Y-53033000D01*
X184723000Y-56216000D02*
X175164000Y-56216000D01*
X214846000Y-55222000D02*
X212657000Y-53033000D01*
X226760000Y-60477000D02*
X221505000Y-55222000D01*
X171218000Y-52269000D02*
X165417000Y-52269000D01*
X207191000Y-52257000D02*
X196880000Y-52257000D01*
X196880000Y-52257000D02*
X194032500Y-49409500D01*
%TO.N,Net-(U10-A14)*%
X216892000Y-49409000D02*
X216892500Y-49409500D01*
X218344000Y-50861000D02*
X227304000Y-50861000D01*
X227304000Y-50861000D02*
X236920000Y-60477000D01*
X234564000Y-62833000D02*
X198320000Y-62833000D01*
X236920000Y-60477000D02*
X234564000Y-62833000D01*
X216892500Y-49409500D02*
X218344000Y-50861000D01*
%TO.N,Net-(U10-A11)*%
X209272000Y-49409000D02*
X196311000Y-36448000D01*
X196311000Y-36448000D02*
X185590000Y-36448000D01*
X191702000Y-70775000D02*
X199720000Y-70775000D01*
X199720000Y-70775000D02*
X220820000Y-70775000D01*
X181426000Y-32285000D02*
X173100000Y-32285000D01*
X185590000Y-36448000D02*
X181426000Y-32285000D01*
X220820000Y-70775000D02*
X220982000Y-70938000D01*
X209272500Y-49409500D02*
X209272000Y-49409000D01*
X186760000Y-75717000D02*
X191702000Y-70775000D01*
%TO.N,Net-(U10-D5)*%
X190389000Y-93633000D02*
X168796000Y-93633000D01*
X168796000Y-93633000D02*
X167380000Y-92217000D01*
X192420000Y-91602000D02*
X190389000Y-93633000D01*
%TO.N,Net-(U10-A13)*%
X194380000Y-75717000D02*
X196585000Y-73512000D01*
X196585000Y-73512000D02*
X225750000Y-73512000D01*
%TO.N,Net-(U10-A4)*%
X191492500Y-49409500D02*
X191492000Y-49409000D01*
X214556000Y-55924000D02*
X212366000Y-53734000D01*
X212366000Y-53734000D02*
X207676000Y-53734000D01*
X183200000Y-56917000D02*
X186760000Y-60477000D01*
X195041000Y-52958000D02*
X191492500Y-49409500D01*
X173822000Y-56216000D02*
X174523000Y-56917000D01*
X224220000Y-60477000D02*
X219667000Y-55924000D01*
X174523000Y-56917000D02*
X183200000Y-56917000D01*
X207676000Y-53734000D02*
X206900000Y-52958000D01*
X206900000Y-52958000D02*
X195041000Y-52958000D01*
X161744000Y-56216000D02*
X173822000Y-56216000D01*
X156045000Y-50517000D02*
X161744000Y-56216000D01*
X219667000Y-55924000D02*
X214556000Y-55924000D01*
%TO.N,Net-(U10-D1)*%
X202580000Y-91602000D02*
X202580000Y-93054000D01*
X202620000Y-93094000D02*
X202620000Y-96602000D01*
X160739000Y-88698000D02*
X199676000Y-88698000D01*
X199676000Y-88698000D02*
X202580000Y-91602000D01*
X157220000Y-92217000D02*
X160739000Y-88698000D01*
X202580000Y-93054000D02*
X202620000Y-93094000D01*
%TO.N,Net-(U10-D3)*%
X168028000Y-94350000D02*
X194752000Y-94350000D01*
X167555000Y-93877000D02*
X168028000Y-94350000D01*
X163960000Y-93877000D02*
X167555000Y-93877000D01*
X194752000Y-94350000D02*
X197500000Y-91602000D01*
X162300000Y-92217000D02*
X163960000Y-93877000D01*
%TO.N,Net-(U10-A9)*%
X189300000Y-75717000D02*
X193260000Y-71757000D01*
X193260000Y-71757000D02*
X196757000Y-71757000D01*
X223770000Y-71581000D02*
X223511000Y-71839000D01*
X204192500Y-49409500D02*
X204192000Y-49409000D01*
X196840000Y-71839000D02*
X196757000Y-71757000D01*
X167165000Y-32637000D02*
X178974000Y-44446000D01*
X223511000Y-71839000D02*
X196840000Y-71839000D01*
X178974000Y-44446000D02*
X199229000Y-44446000D01*
X199229000Y-44446000D02*
X204192000Y-49409000D01*
%TO.N,Net-(U10-A2)*%
X207299000Y-55489000D02*
X212137000Y-55489000D01*
X186412000Y-49409000D02*
X186412500Y-49409500D01*
X214654000Y-58007000D02*
X216670000Y-58007000D01*
X172678000Y-58903000D02*
X171573000Y-57798000D01*
X181680000Y-60477000D02*
X180106000Y-58903000D01*
X191365000Y-54362000D02*
X206172000Y-54362000D01*
X158206000Y-57798000D02*
X156107000Y-59897000D01*
X180106000Y-58903000D02*
X172678000Y-58903000D01*
X216670000Y-58007000D02*
X219140000Y-60477000D01*
X171573000Y-57798000D02*
X158206000Y-57798000D01*
X186412500Y-49409500D02*
X191365000Y-54362000D01*
X212137000Y-55489000D02*
X214654000Y-58007000D01*
X156107000Y-59897000D02*
X154705000Y-59897000D01*
X206172000Y-54362000D02*
X207299000Y-55489000D01*
%TO.N,Net-(U10-D2)*%
X200080000Y-95200000D02*
X200080000Y-96602000D01*
X159760000Y-92217000D02*
X162208000Y-94665000D01*
X166938000Y-94665000D02*
X167325000Y-95052000D01*
X200040000Y-94380000D02*
X199219000Y-95200000D01*
X199071000Y-95052000D02*
X199219000Y-95200000D01*
X199219000Y-95200000D02*
X200080000Y-95200000D01*
X162208000Y-94665000D02*
X166938000Y-94665000D01*
X167325000Y-95052000D02*
X199071000Y-95052000D01*
X200040000Y-91602000D02*
X200040000Y-94380000D01*
%TO.N,Net-(U10-A3)*%
X206610000Y-53660000D02*
X193203000Y-53660000D01*
X212428000Y-54787000D02*
X207737000Y-54787000D01*
X193203000Y-53660000D02*
X188952500Y-49409500D01*
X173705000Y-57091000D02*
X174468000Y-57854000D01*
X174468000Y-57854000D02*
X181597000Y-57854000D01*
X207737000Y-54787000D02*
X206610000Y-53660000D01*
X181597000Y-57854000D02*
X184220000Y-60477000D01*
X221680000Y-60477000D02*
X217935000Y-56732000D01*
X188952500Y-49409500D02*
X188952000Y-49409000D01*
X217935000Y-56732000D02*
X214372000Y-56732000D01*
X149891000Y-57091000D02*
X173705000Y-57091000D01*
X214372000Y-56732000D02*
X212428000Y-54787000D01*
X147085000Y-59897000D02*
X149891000Y-57091000D01*
%TO.N,Net-(U12-Q1)*%
X70983000Y-51360000D02*
X74220000Y-54597000D01*
X60571000Y-51360000D02*
X70983000Y-51360000D01*
%TO.N,Net-(U11-CE#)*%
X239050000Y-68224000D02*
X239050000Y-58441000D01*
X219432500Y-49409000D02*
X219432000Y-49409000D01*
X219432500Y-49409000D02*
X219432500Y-49409500D01*
X219432000Y-49409000D02*
X219432000Y-43753000D01*
X219432500Y-49409000D02*
X219432000Y-49409000D01*
X201732000Y-26052000D02*
X199740000Y-26052000D01*
X238320000Y-68954000D02*
X238372000Y-69006000D01*
X238320000Y-68954000D02*
X239050000Y-68224000D01*
X185903000Y-68954000D02*
X238320000Y-68954000D01*
X239050000Y-58441000D02*
X230019000Y-49409000D01*
X199740000Y-26052000D02*
X198085000Y-24397000D01*
X230019000Y-49409000D02*
X219433000Y-49409000D01*
X238372000Y-90328000D02*
X217913000Y-110788000D01*
X179140000Y-75717000D02*
X185903000Y-68954000D01*
X217913000Y-110788000D02*
X217690000Y-110788000D01*
X219433000Y-49409000D02*
X219432500Y-49409000D01*
X219432000Y-43753000D02*
X201732000Y-26052000D01*
X238372000Y-69006000D02*
X238372000Y-90328000D01*
X219433000Y-49409000D02*
X219432500Y-49409000D01*
%TO.N,Net-(U12-Q3)*%
X50519000Y-62008000D02*
X50519000Y-57016000D01*
X51272000Y-62761000D02*
X50519000Y-62008000D01*
X50519000Y-57016000D02*
X44680000Y-51177000D01*
X75416000Y-57763000D02*
X58749000Y-57763000D01*
X53751000Y-62761000D02*
X51272000Y-62761000D01*
X58749000Y-57763000D02*
X53751000Y-62761000D01*
%TO.N,Net-(U12-Q2)*%
X50647000Y-64196000D02*
X63347000Y-64196000D01*
X46082000Y-57659000D02*
X46082000Y-59631000D01*
X63347000Y-64196000D02*
X63436000Y-64107000D01*
X44680000Y-56257000D02*
X46082000Y-57659000D01*
X46082000Y-59631000D02*
X50647000Y-64196000D01*
%TO.N,Net-(U12-Q0)*%
X54797000Y-52272000D02*
X69355000Y-52272000D01*
X69355000Y-52272000D02*
X71680000Y-54597000D01*
X53702000Y-51177000D02*
X54797000Y-52272000D01*
X52300000Y-51177000D02*
X53702000Y-51177000D01*
%TO.N,Net-(U12-Q4)*%
X77543000Y-50300000D02*
X65189000Y-50300000D01*
X81840000Y-54597000D02*
X77543000Y-50300000D01*
%TO.N,Net-(U19-4A)*%
X141093000Y-109606000D02*
X141366000Y-109880000D01*
X212536000Y-102239000D02*
X218793000Y-102239000D01*
X141366000Y-109880000D02*
X204894000Y-109880000D01*
X139840000Y-128977000D02*
X134760000Y-128977000D01*
X128070000Y-109606000D02*
X141093000Y-109606000D01*
X127673000Y-110003000D02*
X128070000Y-109606000D01*
X204894000Y-109880000D02*
X212536000Y-102239000D01*
X224398000Y-96633000D02*
X224398000Y-95757000D01*
X224398000Y-95757000D02*
X225800000Y-95757000D01*
X218793000Y-102239000D02*
X224398000Y-96633000D01*
%TO.N,Net-(U14-\u03A33)*%
X47731000Y-92173000D02*
X42216000Y-97688000D01*
X144545000Y-59897000D02*
X141205000Y-63237000D01*
X53084000Y-91788000D02*
X52408000Y-91788000D01*
X141205000Y-63237000D02*
X128221000Y-63237000D01*
X42216000Y-99324000D02*
X43934000Y-101043000D01*
X52408000Y-91788000D02*
X52023000Y-92173000D01*
X43934000Y-101043000D02*
X120666000Y-101043000D01*
X42216000Y-97688000D02*
X42216000Y-99324000D01*
X52023000Y-92173000D02*
X47731000Y-92173000D01*
X120666000Y-101043000D02*
X122268000Y-99442000D01*
%TO.N,Net-(U14-\u03A30)*%
X41394000Y-99504000D02*
X43635000Y-101745000D01*
X42800000Y-79637000D02*
X41394000Y-81043000D01*
X121770000Y-101745000D02*
X122472000Y-101043000D01*
X122472000Y-101043000D02*
X136384000Y-101043000D01*
X41394000Y-81043000D02*
X41394000Y-99504000D01*
X43635000Y-101745000D02*
X121770000Y-101745000D01*
%TO.N,Net-(U14-C_OUT)*%
X82860000Y-93820000D02*
X53136000Y-93820000D01*
X84500000Y-93582000D02*
X83098000Y-93582000D01*
X83098000Y-93582000D02*
X82860000Y-93820000D01*
%TO.N,Net-(U14-\u03A31)*%
X93407000Y-75614000D02*
X93973000Y-75614000D01*
X141377000Y-75765000D02*
X149625000Y-67517000D01*
X46677000Y-69542000D02*
X74310000Y-69542000D01*
X89984000Y-72190000D02*
X93407000Y-75614000D01*
X112258000Y-83296000D02*
X116727000Y-83296000D01*
X109269000Y-83575000D02*
X109670000Y-83975000D01*
X124258000Y-75765000D02*
X141377000Y-75765000D01*
X74310000Y-69542000D02*
X75509000Y-70740000D01*
X81777000Y-70740000D02*
X83227000Y-72190000D01*
X111579000Y-83975000D02*
X112258000Y-83296000D01*
X83227000Y-72190000D02*
X89984000Y-72190000D01*
X116727000Y-83296000D02*
X124258000Y-75765000D01*
X75509000Y-70740000D02*
X81777000Y-70740000D01*
X42800000Y-72017000D02*
X44202000Y-72017000D01*
X94478000Y-76118000D02*
X101934000Y-83575000D01*
X101934000Y-83575000D02*
X109269000Y-83575000D01*
X93973000Y-75614000D02*
X94478000Y-76118000D01*
X44202000Y-72017000D02*
X46677000Y-69542000D01*
X109670000Y-83975000D02*
X111579000Y-83975000D01*
%TO.N,Net-(U14-\u03A32)*%
X51822000Y-79637000D02*
X60018000Y-71440000D01*
X101643000Y-84277000D02*
X108979000Y-84277000D01*
X109379000Y-84677000D02*
X111869000Y-84677000D01*
X75217000Y-71440000D02*
X75218000Y-71442000D01*
X75218000Y-71442000D02*
X79140000Y-71442000D01*
X112532000Y-84014000D02*
X117776000Y-84014000D01*
X60018000Y-71440000D02*
X75217000Y-71440000D01*
X50420000Y-79637000D02*
X51822000Y-79637000D01*
X143218000Y-76654000D02*
X144595000Y-75277000D01*
X93117000Y-76316000D02*
X93682000Y-76316000D01*
X93682000Y-76316000D02*
X101643000Y-84277000D01*
X117776000Y-84014000D02*
X125136000Y-76654000D01*
X108979000Y-84277000D02*
X109379000Y-84677000D01*
X125136000Y-76654000D02*
X143218000Y-76654000D01*
X111869000Y-84677000D02*
X112532000Y-84014000D01*
X89782000Y-72981000D02*
X93117000Y-76316000D01*
X79140000Y-71442000D02*
X80680000Y-72981000D01*
X80680000Y-72981000D02*
X89782000Y-72981000D01*
%TO.N,Net-(U15-\u03A33)*%
X150798000Y-48144000D02*
X141486000Y-48144000D01*
X156045000Y-42897000D02*
X150798000Y-48144000D01*
X97591000Y-97651000D02*
X126306000Y-97651000D01*
X92120000Y-93582000D02*
X93522000Y-93582000D01*
X93522000Y-93582000D02*
X97591000Y-97651000D01*
%TO.N,Net-(U15-\u03A32)*%
X122456000Y-84427000D02*
X128146000Y-78737000D01*
X119694000Y-88904000D02*
X122456000Y-86142000D01*
X119156000Y-88904000D02*
X119694000Y-88904000D01*
X128146000Y-78737000D02*
X148650000Y-78737000D01*
X100482000Y-88619000D02*
X112933000Y-88619000D01*
X148650000Y-78737000D02*
X148908000Y-78995000D01*
X122456000Y-86142000D02*
X122456000Y-84427000D01*
X92120000Y-85962000D02*
X97824000Y-85962000D01*
X97824000Y-85962000D02*
X100482000Y-88619000D01*
%TO.N,Net-(U15-\u03A30)*%
X121860000Y-102647000D02*
X122107000Y-102400000D01*
X140424000Y-95542000D02*
X142815000Y-93151000D01*
X122107000Y-102400000D02*
X136308000Y-102400000D01*
X88932000Y-102647000D02*
X121860000Y-102647000D01*
X140424000Y-98285000D02*
X140424000Y-95542000D01*
X136308000Y-102400000D02*
X140424000Y-98285000D01*
%TO.N,Net-(U15-B3)*%
X68016000Y-97571000D02*
X67777000Y-97332000D01*
X67777000Y-97332000D02*
X65365000Y-97332000D01*
X85065000Y-97571000D02*
X68016000Y-97571000D01*
X92120000Y-91042000D02*
X90718000Y-91042000D01*
X90718000Y-91918000D02*
X85065000Y-97571000D01*
X90718000Y-91042000D02*
X90718000Y-91918000D01*
X65365000Y-97332000D02*
X63960000Y-98737000D01*
%TO.N,Net-(U15-B0)*%
X52929000Y-92690000D02*
X81451000Y-92690000D01*
X52206000Y-93412000D02*
X52929000Y-92690000D01*
X83098000Y-91042000D02*
X84500000Y-91042000D01*
X55376000Y-97335000D02*
X52206000Y-94165000D01*
X56340000Y-97335000D02*
X55376000Y-97335000D01*
X52206000Y-94165000D02*
X52206000Y-93412000D01*
X81451000Y-92690000D02*
X83098000Y-91042000D01*
X56340000Y-98737000D02*
X56340000Y-97335000D01*
%TO.N,Net-(U15-\u03A31)*%
X121930000Y-103570000D02*
X122397000Y-103102000D01*
X84500000Y-78342000D02*
X82031000Y-80811000D01*
X122397000Y-103102000D02*
X136599000Y-103102000D01*
X136599000Y-103102000D02*
X143232000Y-96469000D01*
X143232000Y-96469000D02*
X143232000Y-96166000D01*
X88296000Y-103570000D02*
X121930000Y-103570000D01*
X82031000Y-80811000D02*
X82031000Y-84073000D01*
%TO.N,Net-(U15-B2)*%
X61420000Y-98737000D02*
X62862000Y-100179000D01*
X86613000Y-100179000D02*
X88510000Y-98282000D01*
X62862000Y-100179000D02*
X86613000Y-100179000D01*
%TO.N,Net-(U16-\u03A30)*%
X152259000Y-37383000D02*
X157005000Y-32637000D01*
X111260000Y-87217000D02*
X113362000Y-85115000D01*
X113362000Y-85115000D02*
X117950000Y-85115000D01*
X142477000Y-37383000D02*
X152259000Y-37383000D01*
X117950000Y-85115000D02*
X123624000Y-79440000D01*
%TO.N,Net-(U16-C_OUT)*%
X120612000Y-96949000D02*
X103212000Y-96949000D01*
X103212000Y-96949000D02*
X101100000Y-94837000D01*
X121478000Y-96082000D02*
X120612000Y-96949000D01*
X128500000Y-96082000D02*
X121478000Y-96082000D01*
%TO.N,Net-(U16-\u03A33)*%
X105046000Y-96243000D02*
X119975000Y-96243000D01*
X159545000Y-25017000D02*
X158108000Y-26454000D01*
X119975000Y-96243000D02*
X121855000Y-94363000D01*
X158108000Y-26454000D02*
X149504000Y-26454000D01*
X103640000Y-94837000D02*
X105046000Y-96243000D01*
X121855000Y-94363000D02*
X122811000Y-94363000D01*
%TO.N,Net-(U16-\u03A31)*%
X148897000Y-77944000D02*
X159863000Y-66978000D01*
X126751000Y-77944000D02*
X148897000Y-77944000D01*
X118880000Y-85815000D02*
X126751000Y-77944000D01*
X118880000Y-87217000D02*
X118880000Y-85815000D01*
%TO.N,Net-(U16-\u03A32)*%
X119466000Y-90125000D02*
X117245000Y-90125000D01*
X123358000Y-86232000D02*
X119466000Y-90125000D01*
%TO.N,Net-(U17-\u03A32)*%
X137878000Y-88818000D02*
X137522000Y-88462000D01*
X150778000Y-88818000D02*
X137878000Y-88818000D01*
X137522000Y-88462000D02*
X136120000Y-88462000D01*
X238322000Y-61541000D02*
X232046000Y-67817000D01*
X232046000Y-67817000D02*
X171780000Y-67817000D01*
X235488000Y-56154000D02*
X238322000Y-58988000D01*
X238322000Y-58988000D02*
X238322000Y-61541000D01*
X171780000Y-67817000D02*
X150778000Y-88818000D01*
%TO.N,Net-(U17-\u03A31)*%
X141120000Y-80724000D02*
X139836000Y-79440000D01*
X139836000Y-79440000D02*
X131303000Y-79440000D01*
X200625000Y-32017000D02*
X197872000Y-34769000D01*
X129902000Y-80842000D02*
X128500000Y-80842000D01*
X197872000Y-34769000D02*
X189922000Y-34769000D01*
X149804000Y-80724000D02*
X141120000Y-80724000D01*
X131303000Y-79440000D02*
X129902000Y-80842000D01*
%TO.N,Net-(U17-\u03A30)*%
X193005000Y-32017000D02*
X191450000Y-30462000D01*
X191450000Y-30462000D02*
X147245000Y-30462000D01*
%TO.N,Net-(U17-\u03A33)*%
X143939000Y-87886000D02*
X160773000Y-71052000D01*
X160773000Y-71052000D02*
X160773000Y-66317000D01*
X139330000Y-87886000D02*
X143939000Y-87886000D01*
%TO.N,Net-(U18-CLK)*%
X139920000Y-144977000D02*
X134840000Y-144977000D01*
X88169000Y-97349000D02*
X86780000Y-98737000D01*
X91841000Y-100095000D02*
X89094000Y-97349000D01*
X86780000Y-98737000D02*
X66500000Y-98737000D01*
X116370000Y-100095000D02*
X91841000Y-100095000D01*
X89094000Y-97349000D02*
X88169000Y-97349000D01*
%TO.N,Net-(U12-D3)*%
X96383000Y-72951000D02*
X97986000Y-74554000D01*
X85675000Y-68592000D02*
X91913000Y-68592000D01*
X99406000Y-76086000D02*
X100506000Y-76086000D01*
X115620000Y-62452000D02*
X110313000Y-62452000D01*
X91913000Y-68592000D02*
X96272000Y-72951000D01*
X107318000Y-93435000D02*
X103860000Y-93435000D01*
X103860000Y-93435000D02*
X98291000Y-87867000D01*
X115620000Y-62452000D02*
X124720000Y-62452000D01*
X97986000Y-74665000D02*
X99406000Y-76086000D01*
X97986000Y-74554000D02*
X97986000Y-74665000D01*
X79300000Y-62217000D02*
X85675000Y-68592000D01*
X96272000Y-72951000D02*
X96383000Y-72951000D01*
X108720000Y-94837000D02*
X107318000Y-93435000D01*
%TO.N,Net-(U12-D5)*%
X117022000Y-67532000D02*
X118976000Y-65577000D01*
X145762000Y-62635000D02*
X155647000Y-62635000D01*
X118976000Y-65577000D02*
X127995000Y-65577000D01*
X106807000Y-77959000D02*
X98643000Y-69795000D01*
X88536000Y-66373000D02*
X84380000Y-62217000D01*
X127995000Y-65577000D02*
X142820000Y-65577000D01*
X142820000Y-65577000D02*
X145762000Y-62635000D01*
X114216000Y-76552000D02*
X111695000Y-76552000D01*
X155647000Y-62635000D02*
X156978000Y-61305000D01*
X156978000Y-61305000D02*
X163240000Y-61305000D01*
X115620000Y-67532000D02*
X117022000Y-67532000D01*
X98643000Y-69671000D02*
X95346000Y-66373000D01*
X111695000Y-76552000D02*
X110288000Y-77959000D01*
X98643000Y-69795000D02*
X98643000Y-69671000D01*
X95346000Y-66373000D02*
X88536000Y-66373000D01*
X110288000Y-77959000D02*
X106807000Y-77959000D01*
%TO.N,Net-(U12-D4)*%
X112111000Y-79176000D02*
X113756000Y-79176000D01*
X98688000Y-74375000D02*
X99216000Y-74903000D01*
X92204000Y-67891000D02*
X96563000Y-72250000D01*
X144191000Y-61878000D02*
X141486000Y-64583000D01*
X158293000Y-58703000D02*
X155118000Y-61878000D01*
X170859000Y-58703000D02*
X158293000Y-58703000D01*
X128500000Y-91002000D02*
X120780000Y-91002000D01*
X117430000Y-64583000D02*
X117022000Y-64992000D01*
X81840000Y-62217000D02*
X81840000Y-63619000D01*
X99216000Y-74903000D02*
X100774000Y-74903000D01*
X105938000Y-80066000D02*
X111221000Y-80066000D01*
X117022000Y-64992000D02*
X115620000Y-64992000D01*
X81840000Y-63619000D02*
X86112000Y-67891000D01*
X98688000Y-74264000D02*
X98688000Y-74375000D01*
X141486000Y-64583000D02*
X117430000Y-64583000D01*
X155118000Y-61878000D02*
X144191000Y-61878000D01*
X96674000Y-72250000D02*
X98688000Y-74264000D01*
X100774000Y-74903000D02*
X105938000Y-80066000D01*
X86112000Y-67891000D02*
X92204000Y-67891000D01*
X96563000Y-72250000D02*
X96674000Y-72250000D01*
X111221000Y-80066000D02*
X112111000Y-79176000D01*
%TO.N,Net-(U12-D6)*%
X115620000Y-70072000D02*
X130428000Y-70072000D01*
X114218000Y-70943000D02*
X108607000Y-76555000D01*
X88399000Y-63696000D02*
X86920000Y-62217000D01*
X137522000Y-85922000D02*
X140813000Y-82630000D01*
X107417000Y-76555000D02*
X104564000Y-73702000D01*
X94673000Y-63696000D02*
X88399000Y-63696000D01*
X115620000Y-70072000D02*
X114218000Y-70072000D01*
X104564000Y-73587000D02*
X94673000Y-63696000D01*
X104564000Y-73702000D02*
X104564000Y-73587000D01*
X108607000Y-76555000D02*
X107417000Y-76555000D01*
X140813000Y-82630000D02*
X146965000Y-82630000D01*
X114218000Y-70072000D02*
X114218000Y-70943000D01*
X136120000Y-85922000D02*
X137522000Y-85922000D01*
%TO.N,Net-(U12-D0)*%
X101152000Y-84978000D02*
X106481000Y-84978000D01*
X93191000Y-77017000D02*
X101152000Y-84978000D01*
X78308000Y-73741000D02*
X89550000Y-73741000D01*
X151251000Y-35851000D02*
X138652000Y-35851000D01*
X89550000Y-73741000D02*
X92826000Y-77017000D01*
X115620000Y-54832000D02*
X128798000Y-54832000D01*
X78103000Y-73537000D02*
X78308000Y-73741000D01*
X92826000Y-77017000D02*
X93191000Y-77017000D01*
X106481000Y-84978000D02*
X108720000Y-87217000D01*
X154465000Y-32637000D02*
X151251000Y-35851000D01*
%TO.N,Net-(U12-D7)*%
X131072000Y-72026000D02*
X121796000Y-72026000D01*
X193005000Y-24397000D02*
X191419000Y-22811000D01*
X109573000Y-77257000D02*
X107126000Y-77257000D01*
X117581000Y-72052000D02*
X117022000Y-72612000D01*
X115620000Y-72612000D02*
X114218000Y-72612000D01*
X99345000Y-69477000D02*
X99345000Y-69366000D01*
X191419000Y-22811000D02*
X149096000Y-22811000D01*
X107126000Y-77257000D02*
X99345000Y-69477000D01*
X114218000Y-72612000D02*
X109573000Y-77257000D01*
X99345000Y-69366000D02*
X94762000Y-64783000D01*
X121770000Y-72052000D02*
X117581000Y-72052000D01*
X121796000Y-72026000D02*
X121770000Y-72052000D01*
X94762000Y-64783000D02*
X91800000Y-64783000D01*
X117022000Y-72612000D02*
X115620000Y-72612000D01*
%TO.N,Net-(U20-S)*%
X187925000Y-32017000D02*
X186523000Y-32017000D01*
X149871000Y-32637000D02*
X148261000Y-34248000D01*
X134840000Y-136977000D02*
X139920000Y-136977000D01*
X186523000Y-32017000D02*
X185742000Y-31235000D01*
X151925000Y-32637000D02*
X149871000Y-32637000D01*
X153327000Y-31235000D02*
X151925000Y-32637000D01*
X185742000Y-31235000D02*
X153327000Y-31235000D01*
%TO.N,Net-(U12-D2)*%
X76760000Y-62217000D02*
X81463000Y-66920000D01*
X146734000Y-27781000D02*
X142018000Y-32497000D01*
X95982000Y-73653000D02*
X96092000Y-73653000D01*
X115620000Y-59912000D02*
X124704000Y-59912000D01*
X113228000Y-80768000D02*
X113585000Y-80411000D01*
X84853000Y-69294000D02*
X91622000Y-69294000D01*
X96092000Y-73653000D02*
X97284000Y-74845000D01*
X81463000Y-66920000D02*
X82479000Y-66920000D01*
X97284000Y-74845000D02*
X97284000Y-74956000D01*
X103096000Y-80768000D02*
X113228000Y-80768000D01*
X97284000Y-74956000D02*
X103096000Y-80768000D01*
X91622000Y-69294000D02*
X95982000Y-73653000D01*
X161861000Y-27781000D02*
X146734000Y-27781000D01*
X82479000Y-66920000D02*
X84853000Y-69294000D01*
X164625000Y-25017000D02*
X161861000Y-27781000D01*
%TO.N,Net-(U12-D1)*%
X95802000Y-74355000D02*
X96583000Y-75136000D01*
X84564000Y-69997000D02*
X91333000Y-69997000D01*
X130464000Y-57372000D02*
X130628000Y-57536000D01*
X110424000Y-81470000D02*
X110624000Y-81670000D01*
X96583000Y-75136000D02*
X96583000Y-75247000D01*
X102806000Y-81470000D02*
X110424000Y-81470000D01*
X115620000Y-57372000D02*
X130464000Y-57372000D01*
X91333000Y-69997000D02*
X95691000Y-74355000D01*
X156268000Y-39705000D02*
X140331000Y-39705000D01*
X74220000Y-62217000D02*
X79625000Y-67622000D01*
X96583000Y-75247000D02*
X102806000Y-81470000D01*
X95691000Y-74355000D02*
X95802000Y-74355000D01*
X82189000Y-67622000D02*
X84564000Y-69997000D01*
X79625000Y-67622000D02*
X82189000Y-67622000D01*
%TO.N,Net-(U12-CLK)*%
X224398000Y-98297000D02*
X218419000Y-104277000D01*
X110930000Y-79365000D02*
X112126000Y-78169000D01*
X95620000Y-69383000D02*
X96246000Y-69383000D01*
X218419000Y-104277000D02*
X211659000Y-104277000D01*
X121231000Y-73829000D02*
X130732000Y-73829000D01*
X96246000Y-69383000D02*
X106228000Y-79365000D01*
X134880000Y-113527000D02*
X139960000Y-113527000D01*
X112126000Y-78169000D02*
X116891000Y-78169000D01*
X211659000Y-104277000D02*
X205330000Y-110606000D01*
X106228000Y-79365000D02*
X110930000Y-79365000D01*
X116891000Y-78169000D02*
X121231000Y-73829000D01*
X140537000Y-110606000D02*
X140470000Y-110539000D01*
X205330000Y-110606000D02*
X140537000Y-110606000D01*
X225800000Y-98297000D02*
X224398000Y-98297000D01*
%TO.N,Net-(U26-D4)*%
X98448000Y-159427000D02*
X100278000Y-161257000D01*
X69822000Y-158177000D02*
X71072000Y-159427000D01*
X100278000Y-161257000D02*
X101680000Y-161257000D01*
X68420000Y-158177000D02*
X69822000Y-158177000D01*
X71072000Y-159427000D02*
X98448000Y-159427000D01*
%TO.N,Net-(U24-1A)*%
X99620000Y-124212000D02*
X93909000Y-118501000D01*
X92351000Y-114427000D02*
X89359000Y-114427000D01*
X56582000Y-120177000D02*
X55180000Y-120177000D01*
X93909000Y-115985000D02*
X92351000Y-114427000D01*
X93909000Y-118501000D02*
X93909000Y-115985000D01*
X68298000Y-114313000D02*
X62445000Y-114313000D01*
X62445000Y-114313000D02*
X56582000Y-120177000D01*
%TO.N,Net-(U24-2A)*%
X60254000Y-132352000D02*
X57721000Y-129819000D01*
X52874000Y-137869000D02*
X53806000Y-138801000D01*
X56582000Y-127797000D02*
X57720000Y-128935000D01*
X57721000Y-129819000D02*
X57721000Y-128936000D01*
X61398000Y-125257000D02*
X57720000Y-128935000D01*
X60778000Y-132877000D02*
X60254000Y-132352000D01*
X53806000Y-138801000D02*
X60254000Y-132352000D01*
X62800000Y-132877000D02*
X60778000Y-132877000D01*
X90598000Y-126752000D02*
X84265000Y-133085000D01*
X64202000Y-132877000D02*
X62800000Y-132877000D01*
X64739000Y-133414000D02*
X64202000Y-132877000D01*
X75348000Y-133085000D02*
X75019000Y-133414000D01*
X57721000Y-128936000D02*
X57720000Y-128935000D01*
X92000000Y-126752000D02*
X90598000Y-126752000D01*
X42653000Y-137869000D02*
X52874000Y-137869000D01*
X62800000Y-125257000D02*
X61398000Y-125257000D01*
X75019000Y-133414000D02*
X64739000Y-133414000D01*
X55180000Y-127797000D02*
X56582000Y-127797000D01*
X84265000Y-133085000D02*
X75348000Y-133085000D01*
%TO.N,Net-(U19-2B)*%
X225800000Y-90677000D02*
X224398000Y-90677000D01*
X224398000Y-90677000D02*
X219582000Y-95494000D01*
X219582000Y-95757000D02*
X218180000Y-95757000D01*
X179070000Y-137477000D02*
X184150000Y-137477000D01*
X219582000Y-95494000D02*
X219582000Y-95757000D01*
%TO.N,Net-(U26-Q0)*%
X107098000Y-120092000D02*
X108500000Y-120092000D01*
X101022000Y-126169000D02*
X107098000Y-120092000D01*
X59398000Y-148017000D02*
X60800000Y-148017000D01*
X115000000Y-151092000D02*
X113598000Y-151092000D01*
X62202000Y-148017000D02*
X60800000Y-148017000D01*
X113598000Y-151092000D02*
X113593000Y-151097000D01*
X113593000Y-151097000D02*
X109300000Y-151097000D01*
X101245000Y-143710000D02*
X73325000Y-143710000D01*
X67236000Y-142654000D02*
X62202000Y-147688000D01*
X101022000Y-126752000D02*
X101022000Y-126169000D01*
X38800000Y-144877000D02*
X56258000Y-144877000D01*
X99620000Y-126752000D02*
X101022000Y-126752000D01*
X56258000Y-144877000D02*
X59398000Y-148017000D01*
X72270000Y-142654000D02*
X67236000Y-142654000D01*
X73325000Y-143710000D02*
X72270000Y-142654000D01*
X62202000Y-147688000D02*
X62202000Y-148017000D01*
%TO.N,Net-(U26-D2)*%
X69822000Y-150557000D02*
X68420000Y-150557000D01*
X99638000Y-156817000D02*
X76082000Y-156817000D01*
X100278000Y-156177000D02*
X99638000Y-156817000D01*
X76082000Y-156817000D02*
X69822000Y-150557000D01*
X101680000Y-156177000D02*
X100278000Y-156177000D01*
%TO.N,Net-(U25-2A)*%
X38800000Y-162657000D02*
X37650000Y-163807000D01*
X78735000Y-136765000D02*
X71348000Y-136765000D01*
X65362000Y-154329000D02*
X66308000Y-153383000D01*
X37800000Y-166717000D02*
X57340000Y-166717000D01*
X37650000Y-166567000D02*
X37800000Y-166717000D01*
X66308000Y-145566000D02*
X67817000Y-144057000D01*
X67817000Y-144057000D02*
X70603000Y-144057000D01*
X57340000Y-166717000D02*
X60800000Y-163257000D01*
X70603000Y-144057000D02*
X71235000Y-144690000D01*
X66308000Y-153383000D02*
X66308000Y-145566000D01*
X37650000Y-163807000D02*
X37650000Y-166567000D01*
%TO.N,Net-(U26-D1)*%
X69822000Y-148017000D02*
X68420000Y-148017000D01*
X77438000Y-156069000D02*
X69822000Y-148453000D01*
X69822000Y-148453000D02*
X69822000Y-148017000D01*
X97846000Y-156069000D02*
X77438000Y-156069000D01*
X101680000Y-153637000D02*
X100278000Y-153637000D01*
X100278000Y-153637000D02*
X97846000Y-156069000D01*
%TO.N,Net-(U25-2B)*%
X52378000Y-165197000D02*
X38800000Y-165197000D01*
X65557000Y-134165000D02*
X65087000Y-134635000D01*
X59398000Y-158177000D02*
X52378000Y-165197000D01*
X75637000Y-134165000D02*
X65557000Y-134165000D01*
X60800000Y-158177000D02*
X59398000Y-158177000D01*
%TO.N,Net-(U24-3A)*%
X73802000Y-132702000D02*
X79398000Y-127106000D01*
X62800000Y-122717000D02*
X62800000Y-122983000D01*
X79398000Y-127106000D02*
X79398000Y-126217000D01*
X72519000Y-132702000D02*
X73802000Y-132702000D01*
X62800000Y-122983000D02*
X72519000Y-132702000D01*
X79398000Y-126217000D02*
X80800000Y-126217000D01*
%TO.N,Net-(U26-Q5)*%
X110400000Y-164897000D02*
X110400000Y-172617000D01*
X109798000Y-173219000D02*
X68222000Y-173219000D01*
X109300000Y-163797000D02*
X110400000Y-164897000D01*
X110400000Y-172617000D02*
X109798000Y-173219000D01*
X68222000Y-173219000D02*
X60800000Y-165797000D01*
%TO.N,Net-(U26-Q2)*%
X73826000Y-146005000D02*
X71176000Y-143356000D01*
X71176000Y-143356000D02*
X67526000Y-143356000D01*
X97443000Y-146005000D02*
X73826000Y-146005000D01*
X65256000Y-145625000D02*
X65256000Y-148641000D01*
X67526000Y-143356000D02*
X65256000Y-145625000D01*
X65256000Y-148641000D02*
X60800000Y-153097000D01*
%TO.N,Net-(U26-D6)*%
X70362000Y-166337000D02*
X101680000Y-166337000D01*
X69822000Y-165797000D02*
X70362000Y-166337000D01*
X68420000Y-165797000D02*
X69822000Y-165797000D01*
%TO.N,Net-(U26-D5)*%
X70362000Y-163797000D02*
X101680000Y-163797000D01*
X69822000Y-163257000D02*
X70362000Y-163797000D01*
X68420000Y-163257000D02*
X69822000Y-163257000D01*
%TO.N,Net-(U26-Q4)*%
X104641000Y-165916000D02*
X104641000Y-170475000D01*
X63747000Y-163664000D02*
X60800000Y-160717000D01*
X104641000Y-170475000D02*
X102297000Y-172819000D01*
X102297000Y-172819000D02*
X69904000Y-172819000D01*
X63747000Y-166662000D02*
X63747000Y-163664000D01*
X109300000Y-161257000D02*
X104641000Y-165916000D01*
X69904000Y-172819000D02*
X63747000Y-166662000D01*
%TO.N,Net-(U26-D3)*%
X101680000Y-158717000D02*
X75442000Y-158717000D01*
X69822000Y-153097000D02*
X68420000Y-153097000D01*
X75442000Y-158717000D02*
X69822000Y-153097000D01*
%TO.N,Net-(U13-I3)*%
X210066000Y-142709000D02*
X171694000Y-142709000D01*
X171694000Y-142709000D02*
X161626000Y-152776000D01*
X225420000Y-128757000D02*
X224018000Y-128757000D01*
X224018000Y-128757000D02*
X210066000Y-142709000D01*
X132570000Y-157897000D02*
X127490000Y-157897000D01*
X132570000Y-157897000D02*
X137691000Y-152776000D01*
X161626000Y-152776000D02*
X137800000Y-152776000D01*
X137691000Y-152776000D02*
X137800000Y-152776000D01*
%TO.N,Net-(U13-03)*%
X225800000Y-88137000D02*
X224398000Y-88137000D01*
X221858000Y-85597000D02*
X218180000Y-85597000D01*
X224398000Y-88137000D02*
X221858000Y-85597000D01*
%TO.N,Net-(U13-O4)*%
X205478000Y-111769000D02*
X208223000Y-114514000D01*
X221858000Y-117645000D02*
X221858000Y-122655000D01*
X221858000Y-122655000D02*
X225420000Y-126217000D01*
X218728000Y-114514000D02*
X221858000Y-117645000D01*
X173068000Y-111769000D02*
X205478000Y-111769000D01*
X208223000Y-114514000D02*
X218728000Y-114514000D01*
%TO.N,Net-(U13-I2)*%
X217800000Y-126217000D02*
X188390000Y-126217000D01*
X188390000Y-126217000D02*
X184150000Y-121977000D01*
X179070000Y-121977000D02*
X184150000Y-121977000D01*
%TO.N,Net-(U13-I1)*%
X218180000Y-90677000D02*
X216553000Y-92304000D01*
X216553000Y-92304000D02*
X216553000Y-97201000D01*
%TO.N,Net-(U18-D7)*%
X121988000Y-104504000D02*
X122688000Y-103804000D01*
X185530000Y-102372000D02*
X173560000Y-102372000D01*
X65813000Y-104504000D02*
X121988000Y-104504000D01*
X187380000Y-104222000D02*
X185530000Y-102372000D01*
X146519000Y-94175000D02*
X160640000Y-94175000D01*
X63960000Y-106357000D02*
X65813000Y-104504000D01*
X122688000Y-103804000D02*
X136890000Y-103804000D01*
X160640000Y-94175000D02*
X161831000Y-95367000D01*
X136890000Y-103804000D02*
X146519000Y-94175000D01*
X161831000Y-95367000D02*
X166619000Y-95367000D01*
X40573000Y-114076000D02*
X57642000Y-114076000D01*
X167073000Y-95821000D02*
X168444000Y-95821000D01*
X168444000Y-95821000D02*
X172460000Y-99837000D01*
X38800000Y-114397000D02*
X40252000Y-114397000D01*
X40252000Y-114397000D02*
X40573000Y-114076000D01*
X166619000Y-95367000D02*
X167073000Y-95821000D01*
%TO.N,Net-(U18-D6)*%
X137182000Y-104505000D02*
X146806000Y-94882000D01*
X68512000Y-107766000D02*
X71072000Y-105206000D01*
X37301000Y-108742000D02*
X41161000Y-104882000D01*
X146806000Y-94882000D02*
X159849000Y-94882000D01*
X37301000Y-115438000D02*
X37301000Y-108742000D01*
X59945000Y-104882000D02*
X61420000Y-106357000D01*
X161036000Y-96068000D02*
X166151000Y-96068000D01*
X174668000Y-105644000D02*
X172250000Y-103225000D01*
X61420000Y-106357000D02*
X62829000Y-107766000D01*
X122278000Y-105206000D02*
X122978000Y-104505000D01*
X62829000Y-107766000D02*
X68512000Y-107766000D01*
X122978000Y-104505000D02*
X137182000Y-104505000D01*
X159849000Y-94882000D02*
X161036000Y-96068000D01*
X188498000Y-105644000D02*
X174668000Y-105644000D01*
X38800000Y-116937000D02*
X37301000Y-115438000D01*
X71072000Y-105206000D02*
X122278000Y-105206000D01*
X166151000Y-96068000D02*
X169920000Y-99837000D01*
X189920000Y-104222000D02*
X188498000Y-105644000D01*
X41161000Y-104882000D02*
X59945000Y-104882000D01*
%TO.N,Net-(U18-D4)*%
X159967000Y-97479000D02*
X162482000Y-97479000D01*
X38800000Y-122017000D02*
X45549000Y-122017000D01*
X69072000Y-109191000D02*
X71653000Y-106609000D01*
X195000000Y-104222000D02*
X192865000Y-106357000D01*
X148376000Y-96285000D02*
X158773000Y-96285000D01*
X59174000Y-109191000D02*
X56340000Y-106357000D01*
X123560000Y-105909000D02*
X138752000Y-105909000D01*
X158773000Y-96285000D02*
X159967000Y-97479000D01*
X171360000Y-106357000D02*
X164840000Y-99837000D01*
X162482000Y-97479000D02*
X164840000Y-99837000D01*
X192865000Y-106357000D02*
X171360000Y-106357000D01*
X71653000Y-106609000D02*
X122860000Y-106609000D01*
X138752000Y-105909000D02*
X148376000Y-96285000D01*
X59174000Y-109191000D02*
X69072000Y-109191000D01*
X122860000Y-106609000D02*
X123560000Y-105909000D01*
%TO.N,Net-(U18-D2)*%
X157615000Y-97692000D02*
X159760000Y-99837000D01*
X167693000Y-107770000D02*
X159760000Y-99837000D01*
X200080000Y-104222000D02*
X196532000Y-107770000D01*
X53904000Y-109001000D02*
X53734000Y-109001000D01*
X148954000Y-97692000D02*
X157615000Y-97692000D01*
X123441000Y-108013000D02*
X124141000Y-107312000D01*
X51260000Y-106357000D02*
X53904000Y-109001000D01*
X53904000Y-109001000D02*
X55497000Y-110594000D01*
X124141000Y-107312000D02*
X139333000Y-107312000D01*
X73227000Y-108013000D02*
X123441000Y-108013000D01*
X196532000Y-107770000D02*
X167693000Y-107770000D01*
X139333000Y-107312000D02*
X148954000Y-97692000D01*
X70645000Y-110594000D02*
X73227000Y-108013000D01*
X55497000Y-110594000D02*
X70645000Y-110594000D01*
%TO.N,Net-(U18-D0)*%
X124687000Y-108751000D02*
X154680000Y-108751000D01*
X46180000Y-106357000D02*
X46180000Y-111296000D01*
X124022000Y-109416000D02*
X124687000Y-108751000D01*
X46180000Y-111296000D02*
X46885000Y-112001000D01*
X205160000Y-104222000D02*
X200205000Y-109177000D01*
X155106000Y-109177000D02*
X154680000Y-108751000D01*
X46885000Y-112001000D02*
X80188000Y-112001000D01*
X82772000Y-109416000D02*
X124022000Y-109416000D01*
X200205000Y-109177000D02*
X155106000Y-109177000D01*
X80188000Y-112001000D02*
X82772000Y-109416000D01*
X154680000Y-99837000D02*
X154680000Y-108751000D01*
%TO.N,Net-(U18-D5)*%
X137473000Y-105207000D02*
X147097000Y-95583000D01*
X173933000Y-101470000D02*
X169013000Y-101470000D01*
X174004000Y-101541000D02*
X173933000Y-101470000D01*
X189779000Y-101541000D02*
X174004000Y-101541000D01*
X169013000Y-101470000D02*
X167380000Y-99837000D01*
X68795000Y-108475000D02*
X71363000Y-105907000D01*
X160251000Y-96771000D02*
X164314000Y-96771000D01*
X60998000Y-108475000D02*
X68795000Y-108475000D01*
X122569000Y-105907000D02*
X123269000Y-105207000D01*
X58880000Y-106357000D02*
X60998000Y-108475000D01*
X123269000Y-105207000D02*
X137473000Y-105207000D01*
X71363000Y-105907000D02*
X122569000Y-105907000D01*
X159063000Y-95583000D02*
X160251000Y-96771000D01*
X147097000Y-95583000D02*
X159063000Y-95583000D01*
X192460000Y-104222000D02*
X189779000Y-101541000D01*
X38800000Y-119477000D02*
X46461000Y-119477000D01*
X164314000Y-96771000D02*
X167380000Y-99837000D01*
%TO.N,Net-(U18-D1)*%
X149205000Y-98433000D02*
X155816000Y-98433000D01*
X48720000Y-106357000D02*
X53659000Y-111296000D01*
X124431000Y-108014000D02*
X139624000Y-108014000D01*
X155816000Y-98433000D02*
X157220000Y-99837000D01*
X202620000Y-104222000D02*
X198369000Y-108473000D01*
X73518000Y-108714000D02*
X123731000Y-108714000D01*
X139624000Y-108014000D02*
X149205000Y-98433000D01*
X123731000Y-108714000D02*
X124431000Y-108014000D01*
X53659000Y-111296000D02*
X70936000Y-111296000D01*
X198369000Y-108473000D02*
X165856000Y-108473000D01*
X165856000Y-108473000D02*
X157220000Y-99837000D01*
X70936000Y-111296000D02*
X73518000Y-108714000D01*
%TO.N,Net-(U18-D3)*%
X197540000Y-104222000D02*
X194697000Y-107065000D01*
X57335000Y-109892000D02*
X69362000Y-109892000D01*
X53800000Y-106357000D02*
X57335000Y-109892000D01*
X159676000Y-98181000D02*
X160644000Y-98181000D01*
X148663000Y-96990000D02*
X158485000Y-96990000D01*
X123150000Y-107311000D02*
X123850000Y-106611000D01*
X158485000Y-96990000D02*
X159676000Y-98181000D01*
X71944000Y-107311000D02*
X123150000Y-107311000D01*
X169528000Y-107065000D02*
X162300000Y-99837000D01*
X160644000Y-98181000D02*
X162300000Y-99837000D01*
X123850000Y-106611000D02*
X139042000Y-106611000D01*
X194697000Y-107065000D02*
X169528000Y-107065000D01*
X139042000Y-106611000D02*
X148663000Y-96990000D01*
X69362000Y-109892000D02*
X71944000Y-107311000D01*
%TO.N,Net-(U19-1B)*%
X184150000Y-113977000D02*
X179070000Y-113977000D01*
%TO.N,Net-(U19-4Q)*%
X132570000Y-165897000D02*
X127490000Y-165897000D01*
X132580000Y-161801000D02*
X190760000Y-161801000D01*
X190760000Y-161801000D02*
X190762000Y-161799000D01*
X132570000Y-165897000D02*
X132570000Y-161811000D01*
X132570000Y-161811000D02*
X132580000Y-161801000D01*
X225800000Y-100837000D02*
X224398000Y-100837000D01*
X214850000Y-110385000D02*
X212850000Y-110385000D01*
X224398000Y-100837000D02*
X214850000Y-110385000D01*
%TO.N,Net-(U24-4Q)*%
X62800000Y-135417000D02*
X64202000Y-135417000D01*
X64202000Y-135417000D02*
X64321000Y-135536000D01*
X64321000Y-135536000D02*
X68659000Y-135536000D01*
%TO.N,Net-(U24-3Q)*%
X159856000Y-141441000D02*
X75338000Y-141441000D01*
X171450000Y-129847000D02*
X159856000Y-141441000D01*
X75338000Y-141441000D02*
X74135000Y-140237000D01*
X74135000Y-140237000D02*
X72276000Y-140237000D01*
X176530000Y-129847000D02*
X171450000Y-129847000D01*
%TO.N,Net-(U25-0A)*%
X66719000Y-141139000D02*
X73762000Y-141139000D01*
X73762000Y-141139000D02*
X74131000Y-141508000D01*
X64317000Y-143540000D02*
X65887000Y-141970000D01*
X47888000Y-143540000D02*
X64317000Y-143540000D01*
X65887000Y-141970000D02*
X66719000Y-141139000D01*
%TO.N,Net-(U25-Q3)*%
X45699000Y-113166000D02*
X69384000Y-113166000D01*
X45480000Y-112947000D02*
X45699000Y-113166000D01*
X40252000Y-111857000D02*
X41342000Y-112947000D01*
X38800000Y-111857000D02*
X40252000Y-111857000D01*
X69384000Y-113166000D02*
X71062000Y-114844000D01*
X41342000Y-112947000D02*
X45480000Y-112947000D01*
%TO.N,Net-(U26-CLK)*%
X58536000Y-139797000D02*
X38800000Y-139797000D01*
X88132000Y-139507000D02*
X86557000Y-137932000D01*
X86557000Y-137932000D02*
X60401000Y-137932000D01*
X60401000Y-137932000D02*
X58536000Y-139797000D01*
X104426000Y-139507000D02*
X88132000Y-139507000D01*
%TO.N,Net-(U26-Q6)*%
X80548000Y-154625000D02*
X93263000Y-154625000D01*
X79140000Y-153217000D02*
X80548000Y-154625000D01*
X101452000Y-146255000D02*
X111627000Y-146255000D01*
X93263000Y-154625000D02*
X95437000Y-152452000D01*
X95437000Y-152271000D02*
X101452000Y-146255000D01*
X95437000Y-152452000D02*
X95437000Y-152271000D01*
%TO.N,Net-(U27-3B)*%
X93657000Y-142511000D02*
X98681000Y-142511000D01*
X98681000Y-142511000D02*
X165071000Y-142511000D01*
X176530000Y-145217000D02*
X171450000Y-145217000D01*
%TO.N,Net-(U28-2A)*%
X64793000Y-138841000D02*
X83516000Y-138841000D01*
X37400000Y-144217000D02*
X37890000Y-143727000D01*
X37400000Y-158717000D02*
X37400000Y-144217000D01*
X62838000Y-140795000D02*
X64793000Y-138841000D01*
X38800000Y-160117000D02*
X37400000Y-158717000D01*
X43222000Y-140795000D02*
X62838000Y-140795000D01*
X40290000Y-143727000D02*
X43222000Y-140795000D01*
X37890000Y-143727000D02*
X40290000Y-143727000D01*
%TO.N,Net-(U24-1B)*%
X56582000Y-122717000D02*
X56582000Y-122117000D01*
X73180000Y-118597000D02*
X74584000Y-118597000D01*
X60102000Y-118597000D02*
X73180000Y-118597000D01*
X81961000Y-111219000D02*
X117527000Y-111219000D01*
X55180000Y-122717000D02*
X56582000Y-122717000D01*
X56582000Y-122117000D02*
X60102000Y-118597000D01*
X127260000Y-121094500D02*
X132340000Y-121094500D01*
X74584000Y-118597000D02*
X81961000Y-111219000D01*
%TO.N,Net-(U26-Q3)*%
X123320000Y-149679000D02*
X125158000Y-151517000D01*
X66609000Y-168530000D02*
X66609000Y-161446000D01*
X125158000Y-151517000D02*
X157410000Y-151517000D01*
X68142000Y-170062000D02*
X66609000Y-168530000D01*
X96303000Y-170062000D02*
X68142000Y-170062000D01*
X66609000Y-161446000D02*
X60800000Y-155637000D01*
X157410000Y-151517000D02*
X171450000Y-137477000D01*
X171450000Y-137477000D02*
X176530000Y-137477000D01*
X119717000Y-152286000D02*
X119717000Y-151981000D01*
X122018000Y-149679000D02*
X123320000Y-149679000D01*
X119717000Y-151981000D02*
X122018000Y-149679000D01*
%TO.N,Net-(U13-O5)*%
X223620000Y-119337000D02*
X223620000Y-118173000D01*
X209102000Y-96602000D02*
X212019000Y-99519000D01*
X207700000Y-96602000D02*
X209102000Y-96602000D01*
X223620000Y-118173000D02*
X218785000Y-113337000D01*
X212019000Y-99519000D02*
X215132000Y-99519000D01*
X225420000Y-121137000D02*
X223620000Y-119337000D01*
%TO.N,Net-(U13-I5)*%
X226823000Y-120000000D02*
X226823000Y-131936000D01*
X205652000Y-153107000D02*
X184070000Y-153107000D01*
X226823000Y-131936000D02*
X205652000Y-153107000D01*
X178990000Y-153107000D02*
X184070000Y-153107000D01*
X225420000Y-118597000D02*
X226823000Y-120000000D01*
%TO.N,Net-(U24-2Q)*%
X171450000Y-121977000D02*
X158532000Y-134895000D01*
X121660000Y-138514000D02*
X89122000Y-138514000D01*
X89122000Y-138514000D02*
X86436000Y-135828000D01*
X69082000Y-137230000D02*
X56721000Y-137230000D01*
X171450000Y-121977000D02*
X176530000Y-121977000D01*
X70484000Y-135828000D02*
X69082000Y-137230000D01*
X125280000Y-134895000D02*
X121660000Y-138514000D01*
X158532000Y-134895000D02*
X125280000Y-134895000D01*
X86436000Y-135828000D02*
X70484000Y-135828000D01*
%TO.N,Net-(U25-3B)*%
X135110000Y-165897000D02*
X140190000Y-165897000D01*
%TO.N,Net-(U25-3A)*%
X131558000Y-161830000D02*
X132289000Y-161099000D01*
X132289000Y-161099000D02*
X132300000Y-161099000D01*
X117300000Y-145717000D02*
X117800000Y-146217000D01*
X135110000Y-157897000D02*
X140190000Y-157897000D01*
X132300000Y-160707000D02*
X135110000Y-157897000D01*
X132300000Y-161099000D02*
X132300000Y-160707000D01*
X123085000Y-167432000D02*
X126955000Y-163562000D01*
X126955000Y-161830000D02*
X131558000Y-161830000D01*
X114800000Y-145717000D02*
X117300000Y-145717000D01*
X122015000Y-167432000D02*
X123085000Y-167432000D01*
X126955000Y-163562000D02*
X126955000Y-161830000D01*
X117800000Y-163217000D02*
X122015000Y-167432000D01*
%TO.N,Net-(U25-Q0)*%
X97650000Y-112136000D02*
X125241000Y-112136000D01*
X92000000Y-116592000D02*
X88920000Y-116592000D01*
X125925000Y-111451000D02*
X157251000Y-111451000D01*
X97563000Y-112223000D02*
X97650000Y-112136000D01*
X74582000Y-120285000D02*
X80262000Y-114605000D01*
X125241000Y-112136000D02*
X125925000Y-111451000D01*
X89434000Y-112223000D02*
X97563000Y-112223000D01*
X157251000Y-111451000D02*
X159776000Y-113977000D01*
X73180000Y-121137000D02*
X74582000Y-121137000D01*
X80262000Y-114605000D02*
X85907000Y-114605000D01*
X87889000Y-112623000D02*
X89034000Y-112623000D01*
X86420000Y-114092000D02*
X87889000Y-112623000D01*
X176530000Y-113977000D02*
X171450000Y-113977000D01*
X85907000Y-114605000D02*
X86420000Y-114092000D01*
X89034000Y-112623000D02*
X89434000Y-112223000D01*
X88920000Y-116592000D02*
X86420000Y-114092000D01*
X159776000Y-113977000D02*
X171450000Y-113977000D01*
X74582000Y-121137000D02*
X74582000Y-120285000D01*
%TO.N,Net-(U27-Q2)*%
X131088000Y-130109000D02*
X131088000Y-130984000D01*
X124694000Y-133610000D02*
X120503000Y-137801000D01*
X129082000Y-128977000D02*
X131088000Y-130984000D01*
X95819000Y-137801000D02*
X95620000Y-137602000D01*
X127140000Y-128977000D02*
X129082000Y-128977000D01*
X131088000Y-132069000D02*
X129547000Y-133610000D01*
X132220000Y-128977000D02*
X131088000Y-130109000D01*
X129547000Y-133610000D02*
X124694000Y-133610000D01*
X131088000Y-130984000D02*
X131088000Y-132069000D01*
X120503000Y-137801000D02*
X95819000Y-137801000D01*
%TO.N,Net-(U27-Q3)*%
X121452000Y-119335000D02*
X127260000Y-113527000D01*
X94535000Y-152078000D02*
X103139000Y-143474000D01*
X132340000Y-113527000D02*
X127260000Y-113527000D01*
X103139000Y-143474000D02*
X113684000Y-143474000D01*
X121452000Y-121071000D02*
X121452000Y-119335000D01*
%TO.N,Net-(U27-Q1)*%
X127220000Y-136977000D02*
X123662000Y-140535000D01*
X123662000Y-140535000D02*
X94299000Y-140535000D01*
X132300000Y-136977000D02*
X127220000Y-136977000D01*
%TO.N,Net-(U28-2Q)*%
X90582000Y-132421000D02*
X94035000Y-135873000D01*
X127220000Y-144977000D02*
X132300000Y-144977000D01*
X94035000Y-135873000D02*
X105065000Y-135873000D01*
X106091000Y-136899000D02*
X119603000Y-136899000D01*
X105065000Y-135873000D02*
X106091000Y-136899000D01*
X90582000Y-130710000D02*
X90582000Y-132421000D01*
X92000000Y-129292000D02*
X90582000Y-130710000D01*
%TO.N,Net-(U29-CLK)*%
X184150000Y-145217000D02*
X179070000Y-145217000D01*
%TO.N,Net-(U30-CLK)*%
X184150000Y-129847000D02*
X179070000Y-129847000D01*
%TO.N,Net-(U47-1B)*%
X76070000Y-139487000D02*
X64712000Y-139487000D01*
X42653000Y-114978000D02*
X43268000Y-114978000D01*
X99300000Y-144717000D02*
X76300000Y-144717000D01*
X116300000Y-144717000D02*
X103300000Y-144717000D01*
X52083000Y-123793000D02*
X52083000Y-126390000D01*
X43268000Y-114978000D02*
X52083000Y-123793000D01*
X64712000Y-139487000D02*
X62654000Y-141545000D01*
X76300000Y-139717000D02*
X76070000Y-139487000D01*
X62654000Y-141545000D02*
X51376000Y-141545000D01*
%TO.N,Net-(U44-IN)*%
X116402000Y-154304000D02*
X116402000Y-156172000D01*
X156971000Y-150611000D02*
X155338000Y-148978000D01*
X121728000Y-148978000D02*
X116402000Y-154304000D01*
X155338000Y-148978000D02*
X121728000Y-148978000D01*
X176450000Y-153107000D02*
X171370000Y-153107000D01*
X116402000Y-156172000D02*
X115000000Y-156172000D01*
%TD*%
M02*
