<?xml version="1.0" standalone="no"?>
 <!DOCTYPE svg PUBLIC "-//W3C//DTD SVG 1.1//EN" 
 "http://www.w3.org/Graphics/SVG/1.1/DTD/svg11.dtd"> 
<svg
  xmlns:svg="http://www.w3.org/2000/svg"
  xmlns="http://www.w3.org/2000/svg"
  xmlns:xlink="http://www.w3.org/1999/xlink"
  version="1.1"
  width="190.1444mm" height="125.0442mm" viewBox="0.0000 0.0000 190.1444 125.0442">
<title>SVG Image created as bus-F_Mask.svg date 2024/09/21 09:19:45 </title>
  <desc>Image generated by PCBNEW </desc>
<g style="fill:#000000; fill-opacity:1.0000;stroke:#000000; stroke-opacity:1.0000;
stroke-linecap:round; stroke-linejoin:round;"
 transform="translate(0 0) scale(1 1)">
</g>
<g style="fill:#D864FF; fill-opacity:0.4000; stroke:none;">
<circle cx="138.0700" cy="62.8250" r="0.7620" /> 
</g>
<g style="fill:#D864FF; fill-opacity:0.4000; stroke:none;">
<circle cx="138.0700" cy="72.9850" r="0.7620" /> 
<path style="fill:#D864FF; fill-opacity:0.4000; stroke:none;fill-rule:evenodd;"
d="M 124.8950,15.9900
123.2950,15.9900
123.2950,14.3900
124.8950,14.3900
Z" /> 
</g>
<g style="fill:#D864FF; fill-opacity:0.4000; stroke:none;">
<circle cx="126.6350" cy="15.1900" r="0.8000" /> 
<circle cx="129.1750" cy="15.1900" r="0.8000" /> 
<circle cx="131.7150" cy="15.1900" r="0.8000" /> 
<circle cx="134.2550" cy="15.1900" r="0.8000" /> 
<circle cx="136.7950" cy="15.1900" r="0.8000" /> 
<circle cx="139.3350" cy="15.1900" r="0.8000" /> 
<circle cx="139.3350" cy="7.5700" r="0.8000" /> 
<circle cx="136.7950" cy="7.5700" r="0.8000" /> 
<circle cx="134.2550" cy="7.5700" r="0.8000" /> 
<circle cx="131.7150" cy="7.5700" r="0.8000" /> 
<circle cx="129.1750" cy="7.5700" r="0.8000" /> 
<circle cx="126.6350" cy="7.5700" r="0.8000" /> 
<circle cx="124.0950" cy="7.5700" r="0.8000" /> 
<circle cx="158.0700" cy="62.8250" r="0.7620" /> 
</g>
<g style="fill:#D864FF; fill-opacity:0.4000; stroke:none;">
<circle cx="158.0700" cy="72.9850" r="0.7620" /> 
<path style="fill:#D864FF; fill-opacity:0.4000; stroke:none;fill-rule:evenodd;"
d="M 84.0000,92.4550
84.0000,94.1550
82.3000,94.1550
82.3000,92.4550
Z" /> 
</g>
<g style="fill:#D864FF; fill-opacity:0.4000; stroke:none;">
<circle cx="83.1500" cy="90.7650" r="0.8500" /> 
<circle cx="83.1500" cy="88.2250" r="0.8500" /> 
<circle cx="83.1500" cy="85.6850" r="0.8500" /> 
<circle cx="83.1500" cy="83.1450" r="0.8500" /> 
<circle cx="83.1500" cy="80.6050" r="0.8500" /> 
<circle cx="83.1500" cy="78.0650" r="0.8500" /> 
<circle cx="83.1500" cy="75.5250" r="0.8500" /> 
<circle cx="83.1500" cy="72.9850" r="0.8500" /> 
<circle cx="83.1500" cy="70.4450" r="0.8500" /> 
<circle cx="83.1500" cy="67.9050" r="0.8500" /> 
<circle cx="83.1500" cy="65.3650" r="0.8500" /> 
<circle cx="83.1500" cy="62.8250" r="0.8500" /> 
<circle cx="83.1500" cy="60.2850" r="0.8500" /> 
<circle cx="83.1500" cy="57.7450" r="0.8500" /> 
<circle cx="83.1500" cy="55.2050" r="0.8500" /> 
<circle cx="83.1500" cy="52.6650" r="0.8500" /> 
<circle cx="83.1500" cy="50.1250" r="0.8500" /> 
<circle cx="83.1500" cy="47.5850" r="0.8500" /> 
<circle cx="83.1500" cy="45.0450" r="0.8500" /> 
<circle cx="83.1500" cy="42.5050" r="0.8500" /> 
<circle cx="83.1500" cy="39.9650" r="0.8500" /> 
<circle cx="83.1500" cy="37.4250" r="0.8500" /> 
<circle cx="26.3100" cy="69.7100" r="0.7620" /> 
</g>
<g style="fill:#D864FF; fill-opacity:0.4000; stroke:none;">
<circle cx="31.3900" cy="69.7100" r="0.7620" /> 
</g>
<g style="fill:#D864FF; fill-opacity:0.4000; stroke:none;">
<circle cx="26.3100" cy="72.2500" r="0.7620" /> 
</g>
<g style="fill:#D864FF; fill-opacity:0.4000; stroke:none;">
<circle cx="28.8500" cy="72.2500" r="0.7620" /> 
</g>
<g style="fill:#D864FF; fill-opacity:0.4000; stroke:none;">
<circle cx="33.9300" cy="69.7100" r="0.7620" /> 
</g>
<g style="fill:#D864FF; fill-opacity:0.4000; stroke:none;">
<circle cx="39.0100" cy="69.7100" r="0.7620" /> 
</g>
<g style="fill:#D864FF; fill-opacity:0.4000; stroke:none;">
<circle cx="26.3100" cy="23.9900" r="0.7620" /> 
</g>
<g style="fill:#D864FF; fill-opacity:0.4000; stroke:none;">
<circle cx="31.3900" cy="23.9900" r="0.7620" /> 
</g>
<g style="fill:#D864FF; fill-opacity:0.4000; stroke:none;">
<circle cx="26.3100" cy="26.5300" r="0.7620" /> 
</g>
<g style="fill:#D864FF; fill-opacity:0.4000; stroke:none;">
<circle cx="28.8500" cy="26.5300" r="0.7620" /> 
</g>
<g style="fill:#D864FF; fill-opacity:0.4000; stroke:none;">
<circle cx="33.9300" cy="23.9900" r="0.7620" /> 
</g>
<g style="fill:#D864FF; fill-opacity:0.4000; stroke:none;">
<circle cx="39.0100" cy="23.9900" r="0.7620" /> 
</g>
<g style="fill:#D864FF; fill-opacity:0.4000; stroke:none;">
<circle cx="26.3100" cy="79.6700" r="0.7620" /> 
</g>
<g style="fill:#D864FF; fill-opacity:0.4000; stroke:none;">
<circle cx="31.3900" cy="79.6700" r="0.7620" /> 
</g>
<g style="fill:#D864FF; fill-opacity:0.4000; stroke:none;">
<circle cx="26.3100" cy="82.2100" r="0.7620" /> 
</g>
<g style="fill:#D864FF; fill-opacity:0.4000; stroke:none;">
<circle cx="28.8500" cy="82.2100" r="0.7620" /> 
</g>
<g style="fill:#D864FF; fill-opacity:0.4000; stroke:none;">
<circle cx="33.9300" cy="79.6700" r="0.7620" /> 
</g>
<g style="fill:#D864FF; fill-opacity:0.4000; stroke:none;">
<circle cx="39.0100" cy="79.6700" r="0.7620" /> 
<path style="fill:#D864FF; fill-opacity:0.4000; stroke:none;fill-rule:evenodd;"
d="M 144.0000,92.4550
144.0000,94.1550
142.3000,94.1550
142.3000,92.4550
Z" /> 
</g>
<g style="fill:#D864FF; fill-opacity:0.4000; stroke:none;">
<circle cx="143.1500" cy="90.7650" r="0.8500" /> 
<circle cx="143.1500" cy="88.2250" r="0.8500" /> 
<circle cx="143.1500" cy="85.6850" r="0.8500" /> 
<circle cx="143.1500" cy="83.1450" r="0.8500" /> 
<circle cx="143.1500" cy="80.6050" r="0.8500" /> 
<circle cx="143.1500" cy="78.0650" r="0.8500" /> 
<circle cx="143.1500" cy="75.5250" r="0.8500" /> 
<circle cx="143.1500" cy="72.9850" r="0.8500" /> 
<circle cx="143.1500" cy="70.4450" r="0.8500" /> 
<circle cx="143.1500" cy="67.9050" r="0.8500" /> 
<circle cx="143.1500" cy="65.3650" r="0.8500" /> 
<circle cx="143.1500" cy="62.8250" r="0.8500" /> 
<circle cx="143.1500" cy="60.2850" r="0.8500" /> 
<circle cx="143.1500" cy="57.7450" r="0.8500" /> 
<circle cx="143.1500" cy="55.2050" r="0.8500" /> 
<circle cx="143.1500" cy="52.6650" r="0.8500" /> 
<circle cx="143.1500" cy="50.1250" r="0.8500" /> 
<circle cx="143.1500" cy="47.5850" r="0.8500" /> 
<circle cx="143.1500" cy="45.0450" r="0.8500" /> 
<circle cx="143.1500" cy="42.5050" r="0.8500" /> 
<circle cx="143.1500" cy="39.9650" r="0.8500" /> 
<circle cx="143.1500" cy="37.4250" r="0.8500" /> 
<path style="fill:#D864FF; fill-opacity:0.4000; stroke:none;fill-rule:evenodd;"
d="M 81.7050,17.9000
80.1050,17.9000
80.1050,16.3000
81.7050,16.3000
Z" /> 
<circle cx="83.4450" cy="17.1000" r="0.8000" /> 
<circle cx="85.9850" cy="17.1000" r="0.8000" /> 
<circle cx="88.5250" cy="17.1000" r="0.8000" /> 
<circle cx="91.0650" cy="17.1000" r="0.8000" /> 
<circle cx="93.6050" cy="17.1000" r="0.8000" /> 
<circle cx="96.1450" cy="17.1000" r="0.8000" /> 
<circle cx="96.1450" cy="9.4800" r="0.8000" /> 
<circle cx="93.6050" cy="9.4800" r="0.8000" /> 
<circle cx="91.0650" cy="9.4800" r="0.8000" /> 
<circle cx="88.5250" cy="9.4800" r="0.8000" /> 
<circle cx="85.9850" cy="9.4800" r="0.8000" /> 
<circle cx="83.4450" cy="9.4800" r="0.8000" /> 
<circle cx="80.9050" cy="9.4800" r="0.8000" /> 
<path style="fill:#D864FF; fill-opacity:0.4000; stroke:none;fill-rule:evenodd;"
d="M 12.5050,49.2750
12.5050,50.8750
10.9050,50.8750
10.9050,49.2750
Z" /> 
<circle cx="11.7050" cy="47.5350" r="0.8000" /> 
<circle cx="11.7050" cy="44.9950" r="0.8000" /> 
<circle cx="11.7050" cy="42.4550" r="0.8000" /> 
<circle cx="11.7050" cy="39.9150" r="0.8000" /> 
<circle cx="11.7050" cy="37.3750" r="0.8000" /> 
<circle cx="11.7050" cy="34.8350" r="0.8000" /> 
<circle cx="4.0850" cy="34.8350" r="0.8000" /> 
<circle cx="4.0850" cy="37.3750" r="0.8000" /> 
<circle cx="4.0850" cy="39.9150" r="0.8000" /> 
<circle cx="4.0850" cy="42.4550" r="0.8000" /> 
<circle cx="4.0850" cy="44.9950" r="0.8000" /> 
<circle cx="4.0850" cy="47.5350" r="0.8000" /> 
<circle cx="4.0850" cy="50.0750" r="0.8000" /> 
<path style="fill:#D864FF; fill-opacity:0.4000; stroke:none;fill-rule:evenodd;"
d="M 32.5500,9.6950
30.8500,9.6950
30.8500,7.9950
32.5500,7.9950
Z" /> 
<circle cx="34.2400" cy="8.8450" r="0.8500" /> 
<circle cx="36.7800" cy="8.8450" r="0.8500" /> 
<circle cx="39.3200" cy="8.8450" r="0.8500" /> 
<circle cx="41.8600" cy="8.8450" r="0.8500" /> 
<circle cx="44.4000" cy="8.8450" r="0.8500" /> 
<circle cx="46.9400" cy="8.8450" r="0.8500" /> 
<circle cx="118.0700" cy="62.8250" r="0.7620" /> 
</g>
<g style="fill:#D864FF; fill-opacity:0.4000; stroke:none;">
<circle cx="118.0700" cy="72.9850" r="0.7620" /> 
</g>
<g style="fill:#D864FF; fill-opacity:0.4000; stroke:none;">
<circle cx="58.0700" cy="62.8250" r="0.7620" /> 
</g>
<g style="fill:#D864FF; fill-opacity:0.4000; stroke:none;">
<circle cx="58.0700" cy="72.9850" r="0.7620" /> 
<path style="fill:#D864FF; fill-opacity:0.4000; stroke:none;fill-rule:evenodd;"
d="M 12.5050,77.2150
12.5050,78.8150
10.9050,78.8150
10.9050,77.2150
Z" /> 
</g>
<g style="fill:#D864FF; fill-opacity:0.4000; stroke:none;">
<circle cx="11.7050" cy="75.4750" r="0.8000" /> 
<circle cx="11.7050" cy="72.9350" r="0.8000" /> 
<circle cx="11.7050" cy="70.3950" r="0.8000" /> 
<circle cx="11.7050" cy="67.8550" r="0.8000" /> 
<circle cx="11.7050" cy="65.3150" r="0.8000" /> 
<circle cx="11.7050" cy="62.7750" r="0.8000" /> 
<circle cx="4.0850" cy="62.7750" r="0.8000" /> 
<circle cx="4.0850" cy="65.3150" r="0.8000" /> 
<circle cx="4.0850" cy="67.8550" r="0.8000" /> 
<circle cx="4.0850" cy="70.3950" r="0.8000" /> 
<circle cx="4.0850" cy="72.9350" r="0.8000" /> 
<circle cx="4.0850" cy="75.4750" r="0.8000" /> 
<circle cx="4.0850" cy="78.0150" r="0.8000" /> 
<path style="fill:#D864FF; fill-opacity:0.4000; stroke:none;fill-rule:evenodd;"
d="M 64.0000,92.4400
64.0000,94.1400
62.3000,94.1400
62.3000,92.4400
Z" /> 
<circle cx="63.1500" cy="90.7500" r="0.8500" /> 
<circle cx="63.1500" cy="88.2100" r="0.8500" /> 
<circle cx="63.1500" cy="85.6700" r="0.8500" /> 
<circle cx="63.1500" cy="83.1300" r="0.8500" /> 
<circle cx="63.1500" cy="80.5900" r="0.8500" /> 
<circle cx="63.1500" cy="78.0500" r="0.8500" /> 
<circle cx="63.1500" cy="75.5100" r="0.8500" /> 
<circle cx="63.1500" cy="72.9700" r="0.8500" /> 
<circle cx="63.1500" cy="70.4300" r="0.8500" /> 
<circle cx="63.1500" cy="67.8900" r="0.8500" /> 
<circle cx="63.1500" cy="65.3500" r="0.8500" /> 
<circle cx="63.1500" cy="62.8100" r="0.8500" /> 
<circle cx="63.1500" cy="60.2700" r="0.8500" /> 
<circle cx="63.1500" cy="57.7300" r="0.8500" /> 
<circle cx="63.1500" cy="55.1900" r="0.8500" /> 
<circle cx="63.1500" cy="52.6500" r="0.8500" /> 
<circle cx="63.1500" cy="50.1100" r="0.8500" /> 
<circle cx="63.1500" cy="47.5700" r="0.8500" /> 
<circle cx="63.1500" cy="45.0300" r="0.8500" /> 
<circle cx="63.1500" cy="42.4900" r="0.8500" /> 
<circle cx="63.1500" cy="39.9500" r="0.8500" /> 
<circle cx="63.1500" cy="37.4100" r="0.8500" /> 
<circle cx="26.3100" cy="46.8500" r="0.7620" /> 
</g>
<g style="fill:#D864FF; fill-opacity:0.4000; stroke:none;">
<circle cx="31.3900" cy="46.8500" r="0.7620" /> 
</g>
<g style="fill:#D864FF; fill-opacity:0.4000; stroke:none;">
<circle cx="26.3100" cy="49.3900" r="0.7620" /> 
</g>
<g style="fill:#D864FF; fill-opacity:0.4000; stroke:none;">
<circle cx="28.8500" cy="49.3900" r="0.7620" /> 
</g>
<g style="fill:#D864FF; fill-opacity:0.4000; stroke:none;">
<circle cx="33.9300" cy="46.8500" r="0.7620" /> 
</g>
<g style="fill:#D864FF; fill-opacity:0.4000; stroke:none;">
<circle cx="39.0100" cy="46.8500" r="0.7620" /> 
<path style="fill:#D864FF; fill-opacity:0.4000; stroke:none;fill-rule:evenodd;"
d="M 51.8750,62.0200
51.8750,63.6200
50.2750,63.6200
50.2750,62.0200
Z" /> 
</g>
<g style="fill:#D864FF; fill-opacity:0.4000; stroke:none;">
<circle cx="51.0750" cy="60.2800" r="0.8000" /> 
<circle cx="51.0750" cy="57.7400" r="0.8000" /> 
<circle cx="51.0750" cy="55.2000" r="0.8000" /> 
<circle cx="51.0750" cy="52.6600" r="0.8000" /> 
<circle cx="51.0750" cy="50.1200" r="0.8000" /> 
<circle cx="51.0750" cy="47.5800" r="0.8000" /> 
<circle cx="51.0750" cy="45.0400" r="0.8000" /> 
<circle cx="51.0750" cy="42.5000" r="0.8000" /> 
<circle cx="51.0750" cy="39.9600" r="0.8000" /> 
<circle cx="43.4550" cy="39.9600" r="0.8000" /> 
<circle cx="43.4550" cy="42.5000" r="0.8000" /> 
<circle cx="43.4550" cy="45.0400" r="0.8000" /> 
<circle cx="43.4550" cy="47.5800" r="0.8000" /> 
<circle cx="43.4550" cy="50.1200" r="0.8000" /> 
<circle cx="43.4550" cy="52.6600" r="0.8000" /> 
<circle cx="43.4550" cy="55.2000" r="0.8000" /> 
<circle cx="43.4550" cy="57.7400" r="0.8000" /> 
<circle cx="43.4550" cy="60.2800" r="0.8000" /> 
<circle cx="43.4550" cy="62.8200" r="0.8000" /> 
<circle cx="26.3100" cy="54.4700" r="0.7620" /> 
</g>
<g style="fill:#D864FF; fill-opacity:0.4000; stroke:none;">
<circle cx="31.3900" cy="54.4700" r="0.7620" /> 
</g>
<g style="fill:#D864FF; fill-opacity:0.4000; stroke:none;">
<circle cx="26.3100" cy="57.0100" r="0.7620" /> 
</g>
<g style="fill:#D864FF; fill-opacity:0.4000; stroke:none;">
<circle cx="28.8500" cy="57.0100" r="0.7620" /> 
</g>
<g style="fill:#D864FF; fill-opacity:0.4000; stroke:none;">
<circle cx="33.9300" cy="54.4700" r="0.7620" /> 
</g>
<g style="fill:#D864FF; fill-opacity:0.4000; stroke:none;">
<circle cx="39.0100" cy="54.4700" r="0.7620" /> 
<path style="fill:#D864FF; fill-opacity:0.4000; stroke:none;fill-rule:evenodd;"
d="M 145.2200,111.8850
143.6200,111.8850
143.6200,110.2850
145.2200,110.2850
Z" /> 
</g>
<g style="fill:#D864FF; fill-opacity:0.4000; stroke:none;">
<circle cx="146.9600" cy="111.0850" r="0.8000" /> 
<circle cx="149.5000" cy="111.0850" r="0.8000" /> 
<circle cx="152.0400" cy="111.0850" r="0.8000" /> 
<circle cx="154.5800" cy="111.0850" r="0.8000" /> 
<circle cx="157.1200" cy="111.0850" r="0.8000" /> 
<circle cx="159.6600" cy="111.0850" r="0.8000" /> 
<circle cx="162.2000" cy="111.0850" r="0.8000" /> 
<circle cx="162.2000" cy="103.4650" r="0.8000" /> 
<circle cx="159.6600" cy="103.4650" r="0.8000" /> 
<circle cx="157.1200" cy="103.4650" r="0.8000" /> 
<circle cx="154.5800" cy="103.4650" r="0.8000" /> 
<circle cx="152.0400" cy="103.4650" r="0.8000" /> 
<circle cx="149.5000" cy="103.4650" r="0.8000" /> 
<circle cx="146.9600" cy="103.4650" r="0.8000" /> 
<circle cx="144.4200" cy="103.4650" r="0.8000" /> 
<path style="fill:#D864FF; fill-opacity:0.4000; stroke:none;fill-rule:evenodd;"
d="M 96.9600,111.8750
95.3600,111.8750
95.3600,110.2750
96.9600,110.2750
Z" /> 
<circle cx="98.7000" cy="111.0750" r="0.8000" /> 
<circle cx="101.2400" cy="111.0750" r="0.8000" /> 
<circle cx="103.7800" cy="111.0750" r="0.8000" /> 
<circle cx="106.3200" cy="111.0750" r="0.8000" /> 
<circle cx="108.8600" cy="111.0750" r="0.8000" /> 
<circle cx="111.4000" cy="111.0750" r="0.8000" /> 
<circle cx="113.9400" cy="111.0750" r="0.8000" /> 
<circle cx="113.9400" cy="103.4550" r="0.8000" /> 
<circle cx="111.4000" cy="103.4550" r="0.8000" /> 
<circle cx="108.8600" cy="103.4550" r="0.8000" /> 
<circle cx="106.3200" cy="103.4550" r="0.8000" /> 
<circle cx="103.7800" cy="103.4550" r="0.8000" /> 
<circle cx="101.2400" cy="103.4550" r="0.8000" /> 
<circle cx="98.7000" cy="103.4550" r="0.8000" /> 
<circle cx="96.1600" cy="103.4550" r="0.8000" /> 
<circle cx="158.0700" cy="39.9650" r="0.7620" /> 
</g>
<g style="fill:#D864FF; fill-opacity:0.4000; stroke:none;">
<circle cx="158.0700" cy="29.8050" r="0.7620" /> 
<path style="fill:#D864FF; fill-opacity:0.4000; stroke:none;fill-rule:evenodd;"
d="M 44.6845,110.6400
41.1845,110.6400
41.1845,107.1400
44.6845,107.1400
Z" /> 
<path style="fill:#D864FF; fill-opacity:0.4000; stroke:none;fill-rule:evenodd;"
d="M 41.9345,116.3900
41.7828,116.3745
41.6175,116.3197
41.4693,116.2283
41.3462,116.1052
41.2548,115.9570
41.2000,115.7917
41.1845,115.6400
41.1845,114.1400
41.2000,113.9883
41.2548,113.8230
41.3462,113.6748
41.4693,113.5517
41.6175,113.4603
41.7828,113.4055
41.9345,113.3900
43.9345,113.3900
44.0862,113.4055
44.2515,113.4603
44.3997,113.5517
44.5228,113.6748
44.6142,113.8230
44.6690,113.9883
44.6845,114.1400
44.6845,115.6400
44.6690,115.7917
44.6142,115.9570
44.5228,116.1052
44.3997,116.2283
44.2515,116.3197
44.0862,116.3745
43.9345,116.3900
Z" /> 
<path style="fill:#D864FF; fill-opacity:0.4000; stroke:none;fill-rule:evenodd;"
d="M 46.7595,113.6400
46.6414,113.6320
46.4578,113.5863
46.2883,113.5023
46.1408,113.3837
46.0222,113.2362
45.9382,113.0667
45.8925,112.8831
45.8845,112.7650
45.8845,111.0150
45.8925,110.8969
45.9382,110.7133
46.0222,110.5438
46.1408,110.3963
46.2883,110.2777
46.4578,110.1937
46.6414,110.1480
46.7595,110.1400
48.5095,110.1400
48.6276,110.1480
48.8112,110.1937
48.9807,110.2777
49.1282,110.3963
49.2468,110.5438
49.3308,110.7133
49.3765,110.8969
49.3845,111.0150
49.3845,112.7650
49.3765,112.8831
49.3308,113.0667
49.2468,113.2362
49.1282,113.3837
48.9807,113.5023
48.8112,113.5863
48.6276,113.6320
48.5095,113.6400
Z" /> 
</g>
<g style="fill:#D864FF; fill-opacity:0.4000; stroke:none;">
<circle cx="26.3100" cy="87.3900" r="0.7620" /> 
</g>
<g style="fill:#D864FF; fill-opacity:0.4000; stroke:none;">
<circle cx="31.3900" cy="87.3900" r="0.7620" /> 
</g>
<g style="fill:#D864FF; fill-opacity:0.4000; stroke:none;">
<circle cx="26.3100" cy="89.9300" r="0.7620" /> 
</g>
<g style="fill:#D864FF; fill-opacity:0.4000; stroke:none;">
<circle cx="28.8500" cy="89.9300" r="0.7620" /> 
</g>
<g style="fill:#D864FF; fill-opacity:0.4000; stroke:none;">
<circle cx="33.9300" cy="87.3900" r="0.7620" /> 
</g>
<g style="fill:#D864FF; fill-opacity:0.4000; stroke:none;">
<circle cx="39.0100" cy="87.3900" r="0.7620" /> 
</g>
<g style="fill:#D864FF; fill-opacity:0.4000; stroke:none;">
<circle cx="138.0700" cy="39.9650" r="0.7620" /> 
</g>
<g style="fill:#D864FF; fill-opacity:0.4000; stroke:none;">
<circle cx="138.0700" cy="29.8050" r="0.7620" /> 
<path style="fill:#D864FF; fill-opacity:0.4000; stroke:none;fill-rule:evenodd;"
d="M 103.8750,92.3000
103.8750,94.0000
102.1750,94.0000
102.1750,92.3000
Z" /> 
</g>
<g style="fill:#D864FF; fill-opacity:0.4000; stroke:none;">
<circle cx="103.0250" cy="90.6100" r="0.8500" /> 
<circle cx="103.0250" cy="88.0700" r="0.8500" /> 
<circle cx="103.0250" cy="85.5300" r="0.8500" /> 
<circle cx="103.0250" cy="82.9900" r="0.8500" /> 
<circle cx="103.0250" cy="80.4500" r="0.8500" /> 
<circle cx="103.0250" cy="77.9100" r="0.8500" /> 
<circle cx="103.0250" cy="75.3700" r="0.8500" /> 
<circle cx="103.0250" cy="72.8300" r="0.8500" /> 
<circle cx="103.0250" cy="70.2900" r="0.8500" /> 
<circle cx="103.0250" cy="67.7500" r="0.8500" /> 
<circle cx="103.0250" cy="65.2100" r="0.8500" /> 
<circle cx="103.0250" cy="62.6700" r="0.8500" /> 
<circle cx="103.0250" cy="60.1300" r="0.8500" /> 
<circle cx="103.0250" cy="57.5900" r="0.8500" /> 
<circle cx="103.0250" cy="55.0500" r="0.8500" /> 
<circle cx="103.0250" cy="52.5100" r="0.8500" /> 
<circle cx="103.0250" cy="49.9700" r="0.8500" /> 
<circle cx="103.0250" cy="47.4300" r="0.8500" /> 
<circle cx="103.0250" cy="44.8900" r="0.8500" /> 
<circle cx="103.0250" cy="42.3500" r="0.8500" /> 
<circle cx="103.0250" cy="39.8100" r="0.8500" /> 
<circle cx="103.0250" cy="37.2700" r="0.8500" /> 
<circle cx="118.0700" cy="39.9650" r="0.7620" /> 
</g>
<g style="fill:#D864FF; fill-opacity:0.4000; stroke:none;">
<circle cx="118.0700" cy="29.8050" r="0.7620" /> 
</g>
<g style="fill:#D864FF; fill-opacity:0.4000; stroke:none;">
<circle cx="178.1500" cy="39.9650" r="0.7620" /> 
</g>
<g style="fill:#D864FF; fill-opacity:0.4000; stroke:none;">
<circle cx="178.1500" cy="29.8050" r="0.7620" /> 
<path style="fill:#D864FF; fill-opacity:0.4000; stroke:none;fill-rule:evenodd;"
d="M 121.1050,111.8750
119.5050,111.8750
119.5050,110.2750
121.1050,110.2750
Z" /> 
</g>
<g style="fill:#D864FF; fill-opacity:0.4000; stroke:none;">
<circle cx="122.8450" cy="111.0750" r="0.8000" /> 
<circle cx="125.3850" cy="111.0750" r="0.8000" /> 
<circle cx="127.9250" cy="111.0750" r="0.8000" /> 
<circle cx="130.4650" cy="111.0750" r="0.8000" /> 
<circle cx="133.0050" cy="111.0750" r="0.8000" /> 
<circle cx="135.5450" cy="111.0750" r="0.8000" /> 
<circle cx="138.0850" cy="111.0750" r="0.8000" /> 
<circle cx="138.0850" cy="103.4550" r="0.8000" /> 
<circle cx="135.5450" cy="103.4550" r="0.8000" /> 
<circle cx="133.0050" cy="103.4550" r="0.8000" /> 
<circle cx="130.4650" cy="103.4550" r="0.8000" /> 
<circle cx="127.9250" cy="103.4550" r="0.8000" /> 
<circle cx="125.3850" cy="103.4550" r="0.8000" /> 
<circle cx="122.8450" cy="103.4550" r="0.8000" /> 
<circle cx="120.3050" cy="103.4550" r="0.8000" /> 
<path style="fill:#D864FF; fill-opacity:0.4000; stroke:none;fill-rule:evenodd;"
d="M 150.6050,5.2050
150.6050,3.6050
152.2050,3.6050
152.2050,5.2050
Z" /> 
<circle cx="151.4050" cy="6.9450" r="0.8000" /> 
<circle cx="151.4050" cy="9.4850" r="0.8000" /> 
<circle cx="151.4050" cy="12.0250" r="0.8000" /> 
<circle cx="151.4050" cy="14.5650" r="0.8000" /> 
<circle cx="151.4050" cy="17.1050" r="0.8000" /> 
<circle cx="151.4050" cy="19.6450" r="0.8000" /> 
<circle cx="159.0250" cy="19.6450" r="0.8000" /> 
<circle cx="159.0250" cy="17.1050" r="0.8000" /> 
<circle cx="159.0250" cy="14.5650" r="0.8000" /> 
<circle cx="159.0250" cy="12.0250" r="0.8000" /> 
<circle cx="159.0250" cy="9.4850" r="0.8000" /> 
<circle cx="159.0250" cy="6.9450" r="0.8000" /> 
<circle cx="159.0250" cy="4.4050" r="0.8000" /> 
<path style="fill:#D864FF; fill-opacity:0.4000; stroke:none;fill-rule:evenodd;"
d="M 58.2150,17.8950
56.6150,17.8950
56.6150,16.2950
58.2150,16.2950
Z" /> 
<circle cx="59.9550" cy="17.0950" r="0.8000" /> 
<circle cx="62.4950" cy="17.0950" r="0.8000" /> 
<circle cx="65.0350" cy="17.0950" r="0.8000" /> 
<circle cx="67.5750" cy="17.0950" r="0.8000" /> 
<circle cx="70.1150" cy="17.0950" r="0.8000" /> 
<circle cx="72.6550" cy="17.0950" r="0.8000" /> 
<circle cx="72.6550" cy="9.4750" r="0.8000" /> 
<circle cx="70.1150" cy="9.4750" r="0.8000" /> 
<circle cx="67.5750" cy="9.4750" r="0.8000" /> 
<circle cx="65.0350" cy="9.4750" r="0.8000" /> 
<circle cx="62.4950" cy="9.4750" r="0.8000" /> 
<circle cx="59.9550" cy="9.4750" r="0.8000" /> 
<circle cx="57.4150" cy="9.4750" r="0.8000" /> 
<circle cx="58.0700" cy="39.9500" r="0.7620" /> 
</g>
<g style="fill:#D864FF; fill-opacity:0.4000; stroke:none;">
<circle cx="58.0700" cy="29.7900" r="0.7620" /> 
<path style="fill:#D864FF; fill-opacity:0.4000; stroke:none;fill-rule:evenodd;"
d="M 164.0000,92.4550
164.0000,94.1550
162.3000,94.1550
162.3000,92.4550
Z" /> 
</g>
<g style="fill:#D864FF; fill-opacity:0.4000; stroke:none;">
<circle cx="163.1500" cy="90.7650" r="0.8500" /> 
<circle cx="163.1500" cy="88.2250" r="0.8500" /> 
<circle cx="163.1500" cy="85.6850" r="0.8500" /> 
<circle cx="163.1500" cy="83.1450" r="0.8500" /> 
<circle cx="163.1500" cy="80.6050" r="0.8500" /> 
<circle cx="163.1500" cy="78.0650" r="0.8500" /> 
<circle cx="163.1500" cy="75.5250" r="0.8500" /> 
<circle cx="163.1500" cy="72.9850" r="0.8500" /> 
<circle cx="163.1500" cy="70.4450" r="0.8500" /> 
<circle cx="163.1500" cy="67.9050" r="0.8500" /> 
<circle cx="163.1500" cy="65.3650" r="0.8500" /> 
<circle cx="163.1500" cy="62.8250" r="0.8500" /> 
<circle cx="163.1500" cy="60.2850" r="0.8500" /> 
<circle cx="163.1500" cy="57.7450" r="0.8500" /> 
<circle cx="163.1500" cy="55.2050" r="0.8500" /> 
<circle cx="163.1500" cy="52.6650" r="0.8500" /> 
<circle cx="163.1500" cy="50.1250" r="0.8500" /> 
<circle cx="163.1500" cy="47.5850" r="0.8500" /> 
<circle cx="163.1500" cy="45.0450" r="0.8500" /> 
<circle cx="163.1500" cy="42.5050" r="0.8500" /> 
<circle cx="163.1500" cy="39.9650" r="0.8500" /> 
<circle cx="163.1500" cy="37.4250" r="0.8500" /> 
<circle cx="78.0700" cy="39.9650" r="0.7620" /> 
</g>
<g style="fill:#D864FF; fill-opacity:0.4000; stroke:none;">
<circle cx="78.0700" cy="29.8050" r="0.7620" /> 
<path style="fill:#D864FF; fill-opacity:0.4000; stroke:none;fill-rule:evenodd;"
d="M 124.0000,92.4550
124.0000,94.1550
122.3000,94.1550
122.3000,92.4550
Z" /> 
</g>
<g style="fill:#D864FF; fill-opacity:0.4000; stroke:none;">
<circle cx="123.1500" cy="90.7650" r="0.8500" /> 
<circle cx="123.1500" cy="88.2250" r="0.8500" /> 
<circle cx="123.1500" cy="85.6850" r="0.8500" /> 
<circle cx="123.1500" cy="83.1450" r="0.8500" /> 
<circle cx="123.1500" cy="80.6050" r="0.8500" /> 
<circle cx="123.1500" cy="78.0650" r="0.8500" /> 
<circle cx="123.1500" cy="75.5250" r="0.8500" /> 
<circle cx="123.1500" cy="72.9850" r="0.8500" /> 
<circle cx="123.1500" cy="70.4450" r="0.8500" /> 
<circle cx="123.1500" cy="67.9050" r="0.8500" /> 
<circle cx="123.1500" cy="65.3650" r="0.8500" /> 
<circle cx="123.1500" cy="62.8250" r="0.8500" /> 
<circle cx="123.1500" cy="60.2850" r="0.8500" /> 
<circle cx="123.1500" cy="57.7450" r="0.8500" /> 
<circle cx="123.1500" cy="55.2050" r="0.8500" /> 
<circle cx="123.1500" cy="52.6650" r="0.8500" /> 
<circle cx="123.1500" cy="50.1250" r="0.8500" /> 
<circle cx="123.1500" cy="47.5850" r="0.8500" /> 
<circle cx="123.1500" cy="45.0450" r="0.8500" /> 
<circle cx="123.1500" cy="42.5050" r="0.8500" /> 
<circle cx="123.1500" cy="39.9650" r="0.8500" /> 
<circle cx="123.1500" cy="37.4250" r="0.8500" /> 
<circle cx="97.9450" cy="62.6700" r="0.7620" /> 
</g>
<g style="fill:#D864FF; fill-opacity:0.4000; stroke:none;">
<circle cx="97.9450" cy="72.8300" r="0.7620" /> 
</g>
<g style="fill:#D864FF; fill-opacity:0.4000; stroke:none;">
<circle cx="78.0700" cy="62.8100" r="0.7620" /> 
</g>
<g style="fill:#D864FF; fill-opacity:0.4000; stroke:none;">
<circle cx="78.0700" cy="72.9700" r="0.7620" /> 
</g>
<g style="fill:#D864FF; fill-opacity:0.4000; stroke:none;">
<circle cx="178.1500" cy="62.8250" r="0.7620" /> 
</g>
<g style="fill:#D864FF; fill-opacity:0.4000; stroke:none;">
<circle cx="178.1500" cy="72.9850" r="0.7620" /> 
<path style="fill:#D864FF; fill-opacity:0.4000; stroke:none;fill-rule:evenodd;"
d="M 3.2950,8.3250
3.2950,6.7250
4.8950,6.7250
4.8950,8.3250
Z" /> 
</g>
<g style="fill:#D864FF; fill-opacity:0.4000; stroke:none;">
<circle cx="4.0950" cy="10.0650" r="0.8000" /> 
<circle cx="4.0950" cy="12.6050" r="0.8000" /> 
<circle cx="4.0950" cy="15.1450" r="0.8000" /> 
<circle cx="4.0950" cy="17.6850" r="0.8000" /> 
<circle cx="4.0950" cy="20.2250" r="0.8000" /> 
<circle cx="4.0950" cy="22.7650" r="0.8000" /> 
<circle cx="11.7150" cy="22.7650" r="0.8000" /> 
<circle cx="11.7150" cy="20.2250" r="0.8000" /> 
<circle cx="11.7150" cy="17.6850" r="0.8000" /> 
<circle cx="11.7150" cy="15.1450" r="0.8000" /> 
<circle cx="11.7150" cy="12.6050" r="0.8000" /> 
<circle cx="11.7150" cy="10.0650" r="0.8000" /> 
<circle cx="11.7150" cy="7.5250" r="0.8000" /> 
<path style="fill:#D864FF; fill-opacity:0.4000; stroke:none;fill-rule:evenodd;"
d="M 12.5150,105.1500
12.5150,106.7500
10.9150,106.7500
10.9150,105.1500
Z" /> 
<circle cx="11.7150" cy="103.4100" r="0.8000" /> 
<circle cx="11.7150" cy="100.8700" r="0.8000" /> 
<circle cx="11.7150" cy="98.3300" r="0.8000" /> 
<circle cx="11.7150" cy="95.7900" r="0.8000" /> 
<circle cx="11.7150" cy="93.2500" r="0.8000" /> 
<circle cx="11.7150" cy="90.7100" r="0.8000" /> 
<circle cx="4.0950" cy="90.7100" r="0.8000" /> 
<circle cx="4.0950" cy="93.2500" r="0.8000" /> 
<circle cx="4.0950" cy="95.7900" r="0.8000" /> 
<circle cx="4.0950" cy="98.3300" r="0.8000" /> 
<circle cx="4.0950" cy="100.8700" r="0.8000" /> 
<circle cx="4.0950" cy="103.4100" r="0.8000" /> 
<circle cx="4.0950" cy="105.9500" r="0.8000" /> 
<path style="fill:#D864FF; fill-opacity:0.4000; stroke:none;fill-rule:evenodd;"
d="M 104.8750,5.2000
104.8750,3.6000
106.4750,3.6000
106.4750,5.2000
Z" /> 
<circle cx="105.6750" cy="6.9400" r="0.8000" /> 
<circle cx="105.6750" cy="9.4800" r="0.8000" /> 
<circle cx="105.6750" cy="12.0200" r="0.8000" /> 
<circle cx="105.6750" cy="14.5600" r="0.8000" /> 
<circle cx="105.6750" cy="17.1000" r="0.8000" /> 
<circle cx="105.6750" cy="19.6400" r="0.8000" /> 
<circle cx="113.2950" cy="19.6400" r="0.8000" /> 
<circle cx="113.2950" cy="17.1000" r="0.8000" /> 
<circle cx="113.2950" cy="14.5600" r="0.8000" /> 
<circle cx="113.2950" cy="12.0200" r="0.8000" /> 
<circle cx="113.2950" cy="9.4800" r="0.8000" /> 
<circle cx="113.2950" cy="6.9400" r="0.8000" /> 
<circle cx="113.2950" cy="4.4000" r="0.8000" /> 
<circle cx="26.3100" cy="39.2300" r="0.7620" /> 
</g>
<g style="fill:#D864FF; fill-opacity:0.4000; stroke:none;">
<circle cx="31.3900" cy="39.2300" r="0.7620" /> 
</g>
<g style="fill:#D864FF; fill-opacity:0.4000; stroke:none;">
<circle cx="26.3100" cy="41.7700" r="0.7620" /> 
</g>
<g style="fill:#D864FF; fill-opacity:0.4000; stroke:none;">
<circle cx="28.8500" cy="41.7700" r="0.7620" /> 
</g>
<g style="fill:#D864FF; fill-opacity:0.4000; stroke:none;">
<circle cx="33.9300" cy="39.2300" r="0.7620" /> 
</g>
<g style="fill:#D864FF; fill-opacity:0.4000; stroke:none;">
<circle cx="39.0100" cy="39.2300" r="0.7620" /> 
<path style="fill:#D864FF; fill-opacity:0.4000; stroke:none;fill-rule:evenodd;"
d="M 50.7340,92.4745
48.7340,92.4745
48.7340,90.5695
50.7340,90.5695
Z" /> 
</g>
<g style="fill:none; 
stroke:#D864FF; stroke-width:1.9050; stroke-opacity:1; 
stroke-linecap:round; stroke-linejoin:round;">
<path d="M49.6865 88.9820
L49.7815 88.9820
" />
<path d="M49.6865 86.4420
L49.7815 86.4420
" />
</g>
<g style="fill:#D864FF; fill-opacity:0.4000; stroke:none;">
<circle cx="26.3100" cy="62.0900" r="0.7620" /> 
</g>
<g style="fill:#D864FF; fill-opacity:0.4000; stroke:none;">
<circle cx="31.3900" cy="62.0900" r="0.7620" /> 
</g>
<g style="fill:#D864FF; fill-opacity:0.4000; stroke:none;">
<circle cx="26.3100" cy="64.6300" r="0.7620" /> 
</g>
<g style="fill:#D864FF; fill-opacity:0.4000; stroke:none;">
<circle cx="28.8500" cy="64.6300" r="0.7620" /> 
</g>
<g style="fill:#D864FF; fill-opacity:0.4000; stroke:none;">
<circle cx="33.9300" cy="62.0900" r="0.7620" /> 
</g>
<g style="fill:#D864FF; fill-opacity:0.4000; stroke:none;">
<circle cx="39.0100" cy="62.0900" r="0.7620" /> 
</g>
<g style="fill:#D864FF; fill-opacity:0.4000; stroke:none;">
<circle cx="26.3100" cy="16.2700" r="0.7620" /> 
</g>
<g style="fill:#D864FF; fill-opacity:0.4000; stroke:none;">
<circle cx="31.3900" cy="16.2700" r="0.7620" /> 
</g>
<g style="fill:#D864FF; fill-opacity:0.4000; stroke:none;">
<circle cx="26.3100" cy="18.8100" r="0.7620" /> 
</g>
<g style="fill:#D864FF; fill-opacity:0.4000; stroke:none;">
<circle cx="28.8500" cy="18.8100" r="0.7620" /> 
</g>
<g style="fill:#D864FF; fill-opacity:0.4000; stroke:none;">
<circle cx="33.9300" cy="16.2700" r="0.7620" /> 
</g>
<g style="fill:#D864FF; fill-opacity:0.4000; stroke:none;">
<circle cx="39.0100" cy="16.2700" r="0.7620" /> 
<path style="fill:#D864FF; fill-opacity:0.4000; stroke:none;fill-rule:evenodd;"
d="M 184.0800,92.4550
184.0800,94.1550
182.3800,94.1550
182.3800,92.4550
Z" /> 
</g>
<g style="fill:#D864FF; fill-opacity:0.4000; stroke:none;">
<circle cx="183.2300" cy="90.7650" r="0.8500" /> 
<circle cx="183.2300" cy="88.2250" r="0.8500" /> 
<circle cx="183.2300" cy="85.6850" r="0.8500" /> 
<circle cx="183.2300" cy="83.1450" r="0.8500" /> 
<circle cx="183.2300" cy="80.6050" r="0.8500" /> 
<circle cx="183.2300" cy="78.0650" r="0.8500" /> 
<circle cx="183.2300" cy="75.5250" r="0.8500" /> 
<circle cx="183.2300" cy="72.9850" r="0.8500" /> 
<circle cx="183.2300" cy="70.4450" r="0.8500" /> 
<circle cx="183.2300" cy="67.9050" r="0.8500" /> 
<circle cx="183.2300" cy="65.3650" r="0.8500" /> 
<circle cx="183.2300" cy="62.8250" r="0.8500" /> 
<circle cx="183.2300" cy="60.2850" r="0.8500" /> 
<circle cx="183.2300" cy="57.7450" r="0.8500" /> 
<circle cx="183.2300" cy="55.2050" r="0.8500" /> 
<circle cx="183.2300" cy="52.6650" r="0.8500" /> 
<circle cx="183.2300" cy="50.1250" r="0.8500" /> 
<circle cx="183.2300" cy="47.5850" r="0.8500" /> 
<circle cx="183.2300" cy="45.0450" r="0.8500" /> 
<circle cx="183.2300" cy="42.5050" r="0.8500" /> 
<circle cx="183.2300" cy="39.9650" r="0.8500" /> 
<circle cx="183.2300" cy="37.4250" r="0.8500" /> 
<circle cx="26.3100" cy="31.6100" r="0.7620" /> 
</g>
<g style="fill:#D864FF; fill-opacity:0.4000; stroke:none;">
<circle cx="31.3900" cy="31.6100" r="0.7620" /> 
</g>
<g style="fill:#D864FF; fill-opacity:0.4000; stroke:none;">
<circle cx="26.3100" cy="34.1500" r="0.7620" /> 
</g>
<g style="fill:#D864FF; fill-opacity:0.4000; stroke:none;">
<circle cx="28.8500" cy="34.1500" r="0.7620" /> 
</g>
<g style="fill:#D864FF; fill-opacity:0.4000; stroke:none;">
<circle cx="33.9300" cy="31.6100" r="0.7620" /> 
</g>
<g style="fill:#D864FF; fill-opacity:0.4000; stroke:none;">
<circle cx="39.0100" cy="31.6100" r="0.7620" /> 
<path style="fill:#D864FF; fill-opacity:0.4000; stroke:none;fill-rule:evenodd;"
d="M 72.8450,111.8750
71.2450,111.8750
71.2450,110.2750
72.8450,110.2750
Z" /> 
</g>
<g style="fill:#D864FF; fill-opacity:0.4000; stroke:none;">
<circle cx="74.5850" cy="111.0750" r="0.8000" /> 
<circle cx="77.1250" cy="111.0750" r="0.8000" /> 
<circle cx="79.6650" cy="111.0750" r="0.8000" /> 
<circle cx="82.2050" cy="111.0750" r="0.8000" /> 
<circle cx="84.7450" cy="111.0750" r="0.8000" /> 
<circle cx="87.2850" cy="111.0750" r="0.8000" /> 
<circle cx="89.8250" cy="111.0750" r="0.8000" /> 
<circle cx="89.8250" cy="103.4550" r="0.8000" /> 
<circle cx="87.2850" cy="103.4550" r="0.8000" /> 
<circle cx="84.7450" cy="103.4550" r="0.8000" /> 
<circle cx="82.2050" cy="103.4550" r="0.8000" /> 
<circle cx="79.6650" cy="103.4550" r="0.8000" /> 
<circle cx="77.1250" cy="103.4550" r="0.8000" /> 
<circle cx="74.5850" cy="103.4550" r="0.8000" /> 
<circle cx="72.0450" cy="103.4550" r="0.8000" /> 
<path style="fill:#D864FF; fill-opacity:0.4000; stroke:none;fill-rule:evenodd;"
d="M 62.3000,96.6950
62.3000,94.9950
64.0000,94.9950
64.0000,96.6950
Z" /> 
<circle cx="63.1500" cy="98.3850" r="0.8500" /> 
<circle cx="63.1500" cy="100.9250" r="0.8500" /> 
<circle cx="63.1500" cy="103.4650" r="0.8500" /> 
<circle cx="63.1500" cy="106.0050" r="0.8500" /> 
<circle cx="63.1500" cy="108.5450" r="0.8500" /> 
<circle cx="63.1500" cy="111.0850" r="0.8500" /> 
<circle cx="63.1500" cy="113.6250" r="0.8500" /> 
<circle cx="63.1500" cy="116.1650" r="0.8500" /> 
<circle cx="63.1500" cy="118.7050" r="0.8500" /> 
<circle cx="63.1500" cy="121.2450" r="0.8500" /> 
<path style="fill:none; 
stroke:#D0D2CD; stroke-width:0.0500; stroke-opacity:1; 
stroke-linecap:round; stroke-linejoin:round;fill:none"
d="M 0.0250,0.0250
190.0250,0.0250
190.0250,125.0250
0.0250,125.0250
Z" /> 
</g> 
</svg>
