<?xml version="1.0" standalone="no"?>
 <!DOCTYPE svg PUBLIC "-//W3C//DTD SVG 1.1//EN" 
 "http://www.w3.org/Graphics/SVG/1.1/DTD/svg11.dtd"> 
<svg
  xmlns:svg="http://www.w3.org/2000/svg"
  xmlns="http://www.w3.org/2000/svg"
  xmlns:xlink="http://www.w3.org/1999/xlink"
  version="1.1"
  width="190.1444mm" height="125.0442mm" viewBox="0.0000 0.0000 190.1444 125.0442">
<title>SVG Image created as bus-F_Courtyard.svg date 2024/09/21 09:19:45 </title>
  <desc>Image generated by PCBNEW </desc>
<g style="fill:#000000; fill-opacity:1.0000;stroke:#000000; stroke-opacity:1.0000;
stroke-linecap:round; stroke-linejoin:round;"
 transform="translate(0 0) scale(1 1)">
<path style="fill:none; 
stroke:#FF26E2; stroke-width:0.0500; stroke-opacity:1; 
stroke-linecap:round; stroke-linejoin:round;fill:none"
d="M 136.8000,61.5550
139.3400,61.5550
139.3400,74.2550
136.8000,74.2550
Z" /> 
</g>
<g style="fill:none; 
stroke:#FF26E2; stroke-width:0.0500; stroke-opacity:1; 
stroke-linecap:round; stroke-linejoin:round;">
<path d="M122.5450 6.4900
L122.5450 16.2900
" />
<path d="M122.5450 16.2900
L140.8950 16.2900
" />
<path d="M140.8950 6.4900
L122.5450 6.4900
" />
<path d="M140.8950 16.2900
L140.8950 6.4900
" />
<path style="fill:none; 
stroke:#FF26E2; stroke-width:0.0500; stroke-opacity:1; 
stroke-linecap:round; stroke-linejoin:round;fill:none"
d="M 156.8000,61.5550
159.3400,61.5550
159.3400,74.2550
156.8000,74.2550
Z" /> 
<path d="M81.3500 35.6550
L81.3500 95.1050
" />
<path d="M81.3500 95.1050
L84.9500 95.1050
" />
<path d="M84.9500 35.6550
L81.3500 35.6550
" />
<path d="M84.9500 95.1050
L84.9500 35.6550
" />
<path style="fill:none; 
stroke:#FF26E2; stroke-width:0.0500; stroke-opacity:1; 
stroke-linecap:round; stroke-linejoin:round;fill:none"
d="M 26.3100,67.1700
39.0100,67.1700
39.0100,74.7900
26.3100,74.7900
Z" /> 
<path style="fill:none; 
stroke:#FF26E2; stroke-width:0.0500; stroke-opacity:1; 
stroke-linecap:round; stroke-linejoin:round;fill:none"
d="M 26.3100,21.4500
39.0100,21.4500
39.0100,29.0700
26.3100,29.0700
Z" /> 
<path style="fill:none; 
stroke:#FF26E2; stroke-width:0.0500; stroke-opacity:1; 
stroke-linecap:round; stroke-linejoin:round;fill:none"
d="M 26.3100,77.1300
39.0100,77.1300
39.0100,84.7500
26.3100,84.7500
Z" /> 
<path d="M141.3500 35.6550
L141.3500 95.1050
" />
<path d="M141.3500 95.1050
L144.9500 95.1050
" />
<path d="M144.9500 35.6550
L141.3500 35.6550
" />
<path d="M144.9500 95.1050
L144.9500 35.6550
" />
<path d="M79.3550 8.4000
L79.3550 18.2000
" />
<path d="M79.3550 18.2000
L97.7050 18.2000
" />
<path d="M97.7050 8.4000
L79.3550 8.4000
" />
<path d="M97.7050 18.2000
L97.7050 8.4000
" />
<path d="M3.0050 33.2750
L3.0050 51.6250
" />
<path d="M3.0050 51.6250
L12.8050 51.6250
" />
<path d="M12.8050 33.2750
L3.0050 33.2750
" />
<path d="M12.8050 51.6250
L12.8050 33.2750
" />
<path d="M29.9000 7.0450
L29.9000 10.6450
" />
<path d="M29.9000 10.6450
L48.7500 10.6450
" />
<path d="M48.7500 7.0450
L29.9000 7.0450
" />
<path d="M48.7500 10.6450
L48.7500 7.0450
" />
<path style="fill:none; 
stroke:#FF26E2; stroke-width:0.0500; stroke-opacity:1; 
stroke-linecap:round; stroke-linejoin:round;fill:none"
d="M 116.8000,61.5550
119.3400,61.5550
119.3400,74.2550
116.8000,74.2550
Z" /> 
<path style="fill:none; 
stroke:#FF26E2; stroke-width:0.0500; stroke-opacity:1; 
stroke-linecap:round; stroke-linejoin:round;fill:none"
d="M 56.8000,61.5550
59.3400,61.5550
59.3400,74.2550
56.8000,74.2550
Z" /> 
<path d="M3.0050 61.2150
L3.0050 79.5650
" />
<path d="M3.0050 79.5650
L12.8050 79.5650
" />
<path d="M12.8050 61.2150
L3.0050 61.2150
" />
<path d="M12.8050 79.5650
L12.8050 61.2150
" />
<path d="M61.3500 35.6400
L61.3500 95.0900
" />
<path d="M61.3500 95.0900
L64.9500 95.0900
" />
<path d="M64.9500 35.6400
L61.3500 35.6400
" />
<path d="M64.9500 95.0900
L64.9500 35.6400
" />
<path style="fill:none; 
stroke:#FF26E2; stroke-width:0.0500; stroke-opacity:1; 
stroke-linecap:round; stroke-linejoin:round;fill:none"
d="M 26.3100,44.3100
39.0100,44.3100
39.0100,51.9300
26.3100,51.9300
Z" /> 
<path d="M42.3750 38.4200
L42.3750 64.3700
" />
<path d="M42.3750 64.3700
L52.1750 64.3700
" />
<path d="M52.1750 38.4200
L42.3750 38.4200
" />
<path d="M52.1750 64.3700
L52.1750 38.4200
" />
<path style="fill:none; 
stroke:#FF26E2; stroke-width:0.0500; stroke-opacity:1; 
stroke-linecap:round; stroke-linejoin:round;fill:none"
d="M 26.3100,51.9300
39.0100,51.9300
39.0100,59.5500
26.3100,59.5500
Z" /> 
<path d="M142.8700 102.3850
L142.8700 112.1850
" />
<path d="M142.8700 112.1850
L163.7200 112.1850
" />
<path d="M163.7200 102.3850
L142.8700 102.3850
" />
<path d="M163.7200 112.1850
L163.7200 102.3850
" />
<path d="M94.6100 102.3750
L94.6100 112.1750
" />
<path d="M94.6100 112.1750
L115.4600 112.1750
" />
<path d="M115.4600 102.3750
L94.6100 102.3750
" />
<path d="M115.4600 112.1750
L115.4600 102.3750
" />
<path style="fill:none; 
stroke:#FF26E2; stroke-width:0.0500; stroke-opacity:1; 
stroke-linecap:round; stroke-linejoin:round;fill:none"
d="M 159.3400,41.2350
156.8000,41.2350
156.8000,28.5350
159.3400,28.5350
Z" /> 
<path d="M38.1845 107.8900
L38.1845 122.8900
" />
<path d="M38.4345 107.8900
L38.1845 107.8900
" />
<path d="M38.4345 107.8900
L40.9345 107.8900
" />
<path d="M40.9345 106.8900
L44.9345 106.8900
" />
<path d="M40.9345 107.8900
L40.9345 106.8900
" />
<path d="M44.9345 106.8900
L44.9345 107.8900
" />
<path d="M44.9345 107.8900
L47.6845 107.8900
" />
<path d="M47.6845 107.8900
L47.6845 109.8900
" />
<path d="M47.6845 109.8900
L49.6845 109.8900
" />
<path d="M47.6845 113.8900
L47.6845 122.8900
" />
<path d="M47.6845 122.8900
L38.1845 122.8900
" />
<path d="M49.6845 109.8900
L49.6845 113.8900
" />
<path d="M49.6845 113.8900
L47.6845 113.8900
" />
<path style="fill:none; 
stroke:#FF26E2; stroke-width:0.0500; stroke-opacity:1; 
stroke-linecap:round; stroke-linejoin:round;fill:none"
d="M 26.3100,84.8500
39.0100,84.8500
39.0100,92.4700
26.3100,92.4700
Z" /> 
<path style="fill:none; 
stroke:#FF26E2; stroke-width:0.0500; stroke-opacity:1; 
stroke-linecap:round; stroke-linejoin:round;fill:none"
d="M 139.3400,41.2350
136.8000,41.2350
136.8000,28.5350
139.3400,28.5350
Z" /> 
<path d="M101.2250 35.5000
L101.2250 94.9500
" />
<path d="M101.2250 94.9500
L104.8250 94.9500
" />
<path d="M104.8250 35.5000
L101.2250 35.5000
" />
<path d="M104.8250 94.9500
L104.8250 35.5000
" />
<path style="fill:none; 
stroke:#FF26E2; stroke-width:0.0500; stroke-opacity:1; 
stroke-linecap:round; stroke-linejoin:round;fill:none"
d="M 119.3400,41.2350
116.8000,41.2350
116.8000,28.5350
119.3400,28.5350
Z" /> 
<path style="fill:none; 
stroke:#FF26E2; stroke-width:0.0500; stroke-opacity:1; 
stroke-linecap:round; stroke-linejoin:round;fill:none"
d="M 179.4200,41.2350
176.8800,41.2350
176.8800,28.5350
179.4200,28.5350
Z" /> 
<path d="M118.7550 102.3750
L118.7550 112.1750
" />
<path d="M118.7550 112.1750
L139.6050 112.1750
" />
<path d="M139.6050 102.3750
L118.7550 102.3750
" />
<path d="M139.6050 112.1750
L139.6050 102.3750
" />
<path d="M150.3050 2.8550
L150.3050 21.2050
" />
<path d="M150.3050 21.2050
L160.1050 21.2050
" />
<path d="M160.1050 2.8550
L150.3050 2.8550
" />
<path d="M160.1050 21.2050
L160.1050 2.8550
" />
<path d="M55.8650 8.3950
L55.8650 18.1950
" />
<path d="M55.8650 18.1950
L74.2150 18.1950
" />
<path d="M74.2150 8.3950
L55.8650 8.3950
" />
<path d="M74.2150 18.1950
L74.2150 8.3950
" />
<path style="fill:none; 
stroke:#FF26E2; stroke-width:0.0500; stroke-opacity:1; 
stroke-linecap:round; stroke-linejoin:round;fill:none"
d="M 59.3400,41.2200
56.8000,41.2200
56.8000,28.5200
59.3400,28.5200
Z" /> 
<path d="M161.3500 35.6550
L161.3500 95.1050
" />
<path d="M161.3500 95.1050
L164.9500 95.1050
" />
<path d="M164.9500 35.6550
L161.3500 35.6550
" />
<path d="M164.9500 95.1050
L164.9500 35.6550
" />
<path style="fill:none; 
stroke:#FF26E2; stroke-width:0.0500; stroke-opacity:1; 
stroke-linecap:round; stroke-linejoin:round;fill:none"
d="M 79.3400,41.2350
76.8000,41.2350
76.8000,28.5350
79.3400,28.5350
Z" /> 
<path d="M121.3500 35.6550
L121.3500 95.1050
" />
<path d="M121.3500 95.1050
L124.9500 95.1050
" />
<path d="M124.9500 35.6550
L121.3500 35.6550
" />
<path d="M124.9500 95.1050
L124.9500 35.6550
" />
<path style="fill:none; 
stroke:#FF26E2; stroke-width:0.0500; stroke-opacity:1; 
stroke-linecap:round; stroke-linejoin:round;fill:none"
d="M 96.6750,61.4000
99.2150,61.4000
99.2150,74.1000
96.6750,74.1000
Z" /> 
<path style="fill:none; 
stroke:#FF26E2; stroke-width:0.0500; stroke-opacity:1; 
stroke-linecap:round; stroke-linejoin:round;fill:none"
d="M 76.8000,61.5400
79.3400,61.5400
79.3400,74.2400
76.8000,74.2400
Z" /> 
<path style="fill:none; 
stroke:#FF26E2; stroke-width:0.0500; stroke-opacity:1; 
stroke-linecap:round; stroke-linejoin:round;fill:none"
d="M 176.8800,61.5550
179.4200,61.5550
179.4200,74.2550
176.8800,74.2550
Z" /> 
<path d="M2.9950 5.9750
L2.9950 24.3250
" />
<path d="M2.9950 24.3250
L12.7950 24.3250
" />
<path d="M12.7950 5.9750
L2.9950 5.9750
" />
<path d="M12.7950 24.3250
L12.7950 5.9750
" />
<path d="M3.0150 89.1500
L3.0150 107.5000
" />
<path d="M3.0150 107.5000
L12.8150 107.5000
" />
<path d="M12.8150 89.1500
L3.0150 89.1500
" />
<path d="M12.8150 107.5000
L12.8150 89.1500
" />
<path d="M104.5750 2.8500
L104.5750 21.2000
" />
<path d="M104.5750 21.2000
L114.3750 21.2000
" />
<path d="M114.3750 2.8500
L104.5750 2.8500
" />
<path d="M114.3750 21.2000
L114.3750 2.8500
" />
<path style="fill:none; 
stroke:#FF26E2; stroke-width:0.0500; stroke-opacity:1; 
stroke-linecap:round; stroke-linejoin:round;fill:none"
d="M 26.3100,36.6900
39.0100,36.6900
39.0100,44.3100
26.3100,44.3100
Z" /> 
<path d="M46.3340 83.7320
L46.3340 94.2320
" />
<path d="M46.3340 94.2320
L51.2440 94.2320
" />
<path d="M51.2440 83.7320
L46.3340 83.7320
" />
<path d="M51.2440 94.2320
L51.2440 83.7320
" />
<path style="fill:none; 
stroke:#FF26E2; stroke-width:0.0500; stroke-opacity:1; 
stroke-linecap:round; stroke-linejoin:round;fill:none"
d="M 26.3100,59.5500
39.0100,59.5500
39.0100,67.1700
26.3100,67.1700
Z" /> 
<path style="fill:none; 
stroke:#FF26E2; stroke-width:0.0500; stroke-opacity:1; 
stroke-linecap:round; stroke-linejoin:round;fill:none"
d="M 26.3100,13.7300
39.0100,13.7300
39.0100,21.3500
26.3100,21.3500
Z" /> 
<path d="M181.4300 35.6550
L181.4300 95.1050
" />
<path d="M181.4300 95.1050
L185.0300 95.1050
" />
<path d="M185.0300 35.6550
L181.4300 35.6550
" />
<path d="M185.0300 95.1050
L185.0300 35.6550
" />
<path style="fill:none; 
stroke:#FF26E2; stroke-width:0.0500; stroke-opacity:1; 
stroke-linecap:round; stroke-linejoin:round;fill:none"
d="M 26.3100,29.0700
39.0100,29.0700
39.0100,36.6900
26.3100,36.6900
Z" /> 
<path d="M70.4950 102.3750
L70.4950 112.1750
" />
<path d="M70.4950 112.1750
L91.3450 112.1750
" />
<path d="M91.3450 102.3750
L70.4950 102.3750
" />
<path d="M91.3450 112.1750
L91.3450 102.3750
" />
<path d="M61.3500 94.0450
L61.3500 123.0450
" />
<path d="M61.3500 123.0450
L64.9500 123.0450
" />
<path d="M64.9500 94.0450
L61.3500 94.0450
" />
<path d="M64.9500 123.0450
L64.9500 94.0450
" />
<path style="fill:none; 
stroke:#D0D2CD; stroke-width:0.0500; stroke-opacity:1; 
stroke-linecap:round; stroke-linejoin:round;fill:none"
d="M 0.0250,0.0250
190.0250,0.0250
190.0250,125.0250
0.0250,125.0250
Z" /> 
</g> 
</svg>
