<?xml version="1.0" standalone="no"?>
 <!DOCTYPE svg PUBLIC "-//W3C//DTD SVG 1.1//EN" 
 "http://www.w3.org/Graphics/SVG/1.1/DTD/svg11.dtd"> 
<svg
  xmlns:svg="http://www.w3.org/2000/svg"
  xmlns="http://www.w3.org/2000/svg"
  xmlns:xlink="http://www.w3.org/1999/xlink"
  version="1.1"
  width="190.1444mm" height="125.0442mm" viewBox="0.0000 0.0000 190.1444 125.0442">
<title>SVG Image created as bus-User_1.svg date 2024/09/21 09:19:45 </title>
  <desc>Image generated by PCBNEW </desc>
<g style="fill:#000000; fill-opacity:1.0000;stroke:#000000; stroke-opacity:1.0000;
stroke-linecap:round; stroke-linejoin:round;"
 transform="translate(0 0) scale(1 1)">
</g>
<g style="fill:none; 
stroke:#C2C2C2; stroke-width:0.1500; stroke-opacity:1; 
stroke-linecap:round; stroke-linejoin:round;">
<g transform="rotate(-359.976241 131.0282 120.3470)">
<text x="131.0282" y="120.8470"
textLength="9.8690" font-size="1.3333" lengthAdjust="spacingAndGlyphs"
text-anchor="middle" opacity="0">24.1150 mm</text>
</g>
<g class="stroked-text"><desc>24.1150 mm</desc>
<path d="M126.4093 119.8952
L126.4570 119.8476
" />
<path d="M126.4570 119.8476
L126.5522 119.8000
" />
<path d="M126.5522 119.8000
L126.7903 119.8001
" />
<path d="M126.7903 119.8001
L126.8855 119.8477
" />
<path d="M126.8855 119.8477
L126.9331 119.8954
" />
<path d="M126.9331 119.8954
L126.9807 119.9906
" />
<path d="M126.9807 119.9906
L126.9807 120.0859
" />
<path d="M126.9807 120.0859
L126.9330 120.2287
" />
<path d="M126.9330 120.2287
L126.3613 120.7999
" />
<path d="M126.3613 120.7999
L126.9804 120.8001
" />
<path d="M127.8378 120.1338
L127.8375 120.8005
" />
<path d="M127.5999 119.7528
L127.3615 120.4670
" />
<path d="M127.3615 120.4670
L127.9805 120.4672
" />
<path d="M128.3614 120.7055
L128.4090 120.7531
" />
<path d="M128.4090 120.7531
L128.3613 120.8007
" />
<path d="M128.3613 120.8007
L128.3137 120.7531
" />
<path d="M128.3137 120.7531
L128.3614 120.7055
" />
<path d="M128.3614 120.7055
L128.3613 120.8007
" />
<path d="M129.3613 120.8011
L128.7899 120.8009
" />
<path d="M129.0756 120.8010
L129.0760 119.8010
" />
<path d="M129.0760 119.8010
L128.9807 119.9438
" />
<path d="M128.9807 119.9438
L128.8854 120.0390
" />
<path d="M128.8854 120.0390
L128.7902 120.0866
" />
<path d="M130.3137 120.8015
L129.7423 120.8013
" />
<path d="M130.0280 120.8014
L130.0284 119.8014
" />
<path d="M130.0284 119.8014
L129.9331 119.9442
" />
<path d="M129.9331 119.9442
L129.8378 120.0394
" />
<path d="M129.8378 120.0394
L129.7426 120.0870
" />
<path d="M131.2189 119.8019
L130.7427 119.8017
" />
<path d="M130.7427 119.8017
L130.6949 120.2779
" />
<path d="M130.6949 120.2779
L130.7425 120.2303
" />
<path d="M130.7425 120.2303
L130.8378 120.1827
" />
<path d="M130.8378 120.1827
L131.0759 120.1828
" />
<path d="M131.0759 120.1828
L131.1711 120.2305
" />
<path d="M131.1711 120.2305
L131.2187 120.2781
" />
<path d="M131.2187 120.2781
L131.2663 120.3734
" />
<path d="M131.2663 120.3734
L131.2662 120.6114
" />
<path d="M131.2662 120.6114
L131.2185 120.7067
" />
<path d="M131.2185 120.7067
L131.1709 120.7543
" />
<path d="M131.1709 120.7543
L131.0756 120.8018
" />
<path d="M131.0756 120.8018
L130.8375 120.8017
" />
<path d="M130.8375 120.8017
L130.7423 120.7541
" />
<path d="M130.7423 120.7541
L130.6947 120.7065
" />
<path d="M131.8855 119.8022
L131.9808 119.8022
" />
<path d="M131.9808 119.8022
L132.0760 119.8499
" />
<path d="M132.0760 119.8499
L132.1236 119.8975
" />
<path d="M132.1236 119.8975
L132.1712 119.9928
" />
<path d="M132.1712 119.9928
L132.2187 120.1833
" />
<path d="M132.2187 120.1833
L132.2186 120.4214
" />
<path d="M132.2186 120.4214
L132.1709 120.6118
" />
<path d="M132.1709 120.6118
L132.1233 120.7070
" />
<path d="M132.1233 120.7070
L132.0756 120.7546
" />
<path d="M132.0756 120.7546
L131.9804 120.8022
" />
<path d="M131.9804 120.8022
L131.8851 120.8022
" />
<path d="M131.8851 120.8022
L131.7899 120.7545
" />
<path d="M131.7899 120.7545
L131.7423 120.7069
" />
<path d="M131.7423 120.7069
L131.6947 120.6116
" />
<path d="M131.6947 120.6116
L131.6472 120.4211
" />
<path d="M131.6472 120.4211
L131.6473 120.1830
" />
<path d="M131.6473 120.1830
L131.6950 119.9926
" />
<path d="M131.6950 119.9926
L131.7426 119.8974
" />
<path d="M131.7426 119.8974
L131.7903 119.8498
" />
<path d="M131.7903 119.8498
L131.8855 119.8022
" />
<path d="M133.4089 120.8028
L133.4092 120.1361
" />
<path d="M133.4092 120.2314
L133.4568 120.1838
" />
<path d="M133.4568 120.1838
L133.5521 120.1362
" />
<path d="M133.5521 120.1362
L133.6949 120.1363
" />
<path d="M133.6949 120.1363
L133.7901 120.1839
" />
<path d="M133.7901 120.1839
L133.8377 120.2792
" />
<path d="M133.8377 120.2792
L133.8375 120.8030
" />
<path d="M133.8377 120.2792
L133.8854 120.1840
" />
<path d="M133.8854 120.1840
L133.9806 120.1364
" />
<path d="M133.9806 120.1364
L134.1235 120.1364
" />
<path d="M134.1235 120.1364
L134.2187 120.1841
" />
<path d="M134.2187 120.1841
L134.2663 120.2794
" />
<path d="M134.2663 120.2794
L134.2661 120.8032
" />
<path d="M134.7423 120.8034
L134.7425 120.1367
" />
<path d="M134.7425 120.2319
L134.7901 120.1843
" />
<path d="M134.7901 120.1843
L134.8854 120.1368
" />
<path d="M134.8854 120.1368
L135.0283 120.1368
" />
<path d="M135.0283 120.1368
L135.1235 120.1845
" />
<path d="M135.1235 120.1845
L135.1711 120.2797
" />
<path d="M135.1711 120.2797
L135.1708 120.8035
" />
<path d="M135.1711 120.2797
L135.2187 120.1845
" />
<path d="M135.2187 120.1845
L135.3140 120.1369
" />
<path d="M135.3140 120.1369
L135.4568 120.1370
" />
<path d="M135.4568 120.1370
L135.5521 120.1847
" />
<path d="M135.5521 120.1847
L135.5996 120.2799
" />
<path d="M135.5996 120.2799
L135.5994 120.8037
" />
</g></g>
<g style="fill:none; 
stroke:#C2C2C2; stroke-width:0.1000; stroke-opacity:1; 
stroke-linecap:round; stroke-linejoin:round;">
<path d="M118.9748 110.4150
L118.9700 122.0784
" />
<path d="M143.0898 110.4250
L143.0850 122.0884
" />
<path d="M118.9702 121.4920
L143.0852 121.5020
" />
<path d="M118.9702 121.4920
L143.0852 121.5020
" />
<path d="M118.9702 121.4920
L120.0969 120.9061
" />
<path d="M118.9702 121.4920
L120.0965 122.0789
" />
<path d="M143.0852 121.5020
L141.9585 122.0880
" />
<path d="M143.0852 121.5020
L141.9589 120.9151
" />
</g>
<g style="fill:none; 
stroke:#C2C2C2; stroke-width:0.1500; stroke-opacity:1; 
stroke-linecap:round; stroke-linejoin:round;">
<text x="106.9025" y="120.8750"
textLength="9.8690" font-size="1.3333" lengthAdjust="spacingAndGlyphs"
text-anchor="middle" opacity="0">24.1450 mm</text>
<g class="stroked-text"><desc>24.1450 mm</desc>
<path d="M102.2835 119.9251
L102.3311 119.8774
" />
<path d="M102.3311 119.8774
L102.4263 119.8298
" />
<path d="M102.4263 119.8298
L102.6644 119.8298
" />
<path d="M102.6644 119.8298
L102.7596 119.8774
" />
<path d="M102.7596 119.8774
L102.8073 119.9251
" />
<path d="M102.8073 119.9251
L102.8549 120.0203
" />
<path d="M102.8549 120.0203
L102.8549 120.1155
" />
<path d="M102.8549 120.1155
L102.8073 120.2584
" />
<path d="M102.8073 120.2584
L102.2358 120.8298
" />
<path d="M102.2358 120.8298
L102.8549 120.8298
" />
<path d="M103.7120 120.1632
L103.7120 120.8298
" />
<path d="M103.4739 119.7822
L103.2358 120.4965
" />
<path d="M103.2358 120.4965
L103.8549 120.4965
" />
<path d="M104.2358 120.7346
L104.2835 120.7822
" />
<path d="M104.2835 120.7822
L104.2358 120.8298
" />
<path d="M104.2358 120.8298
L104.1882 120.7822
" />
<path d="M104.1882 120.7822
L104.2358 120.7346
" />
<path d="M104.2358 120.7346
L104.2358 120.8298
" />
<path d="M105.2358 120.8298
L104.6644 120.8298
" />
<path d="M104.9501 120.8298
L104.9501 119.8298
" />
<path d="M104.9501 119.8298
L104.8549 119.9727
" />
<path d="M104.8549 119.9727
L104.7596 120.0679
" />
<path d="M104.7596 120.0679
L104.6644 120.1155
" />
<path d="M106.0930 120.1632
L106.0930 120.8298
" />
<path d="M105.8549 119.7822
L105.6168 120.4965
" />
<path d="M105.6168 120.4965
L106.2358 120.4965
" />
<path d="M107.0930 119.8298
L106.6168 119.8298
" />
<path d="M106.6168 119.8298
L106.5692 120.3060
" />
<path d="M106.5692 120.3060
L106.6168 120.2584
" />
<path d="M106.6168 120.2584
L106.7120 120.2108
" />
<path d="M106.7120 120.2108
L106.9501 120.2108
" />
<path d="M106.9501 120.2108
L107.0454 120.2584
" />
<path d="M107.0454 120.2584
L107.0930 120.3060
" />
<path d="M107.0930 120.3060
L107.1406 120.4012
" />
<path d="M107.1406 120.4012
L107.1406 120.6393
" />
<path d="M107.1406 120.6393
L107.0930 120.7346
" />
<path d="M107.0930 120.7346
L107.0454 120.7822
" />
<path d="M107.0454 120.7822
L106.9501 120.8298
" />
<path d="M106.9501 120.8298
L106.7120 120.8298
" />
<path d="M106.7120 120.8298
L106.6168 120.7822
" />
<path d="M106.6168 120.7822
L106.5692 120.7346
" />
<path d="M107.7596 119.8298
L107.8549 119.8298
" />
<path d="M107.8549 119.8298
L107.9501 119.8774
" />
<path d="M107.9501 119.8774
L107.9977 119.9251
" />
<path d="M107.9977 119.9251
L108.0454 120.0203
" />
<path d="M108.0454 120.0203
L108.0930 120.2108
" />
<path d="M108.0930 120.2108
L108.0930 120.4489
" />
<path d="M108.0930 120.4489
L108.0454 120.6393
" />
<path d="M108.0454 120.6393
L107.9977 120.7346
" />
<path d="M107.9977 120.7346
L107.9501 120.7822
" />
<path d="M107.9501 120.7822
L107.8549 120.8298
" />
<path d="M107.8549 120.8298
L107.7596 120.8298
" />
<path d="M107.7596 120.8298
L107.6644 120.7822
" />
<path d="M107.6644 120.7822
L107.6168 120.7346
" />
<path d="M107.6168 120.7346
L107.5692 120.6393
" />
<path d="M107.5692 120.6393
L107.5215 120.4489
" />
<path d="M107.5215 120.4489
L107.5215 120.2108
" />
<path d="M107.5215 120.2108
L107.5692 120.0203
" />
<path d="M107.5692 120.0203
L107.6168 119.9251
" />
<path d="M107.6168 119.9251
L107.6644 119.8774
" />
<path d="M107.6644 119.8774
L107.7596 119.8298
" />
<path d="M109.2835 120.8298
L109.2835 120.1632
" />
<path d="M109.2835 120.2584
L109.3311 120.2108
" />
<path d="M109.3311 120.2108
L109.4263 120.1632
" />
<path d="M109.4263 120.1632
L109.5692 120.1632
" />
<path d="M109.5692 120.1632
L109.6644 120.2108
" />
<path d="M109.6644 120.2108
L109.7120 120.3060
" />
<path d="M109.7120 120.3060
L109.7120 120.8298
" />
<path d="M109.7120 120.3060
L109.7596 120.2108
" />
<path d="M109.7596 120.2108
L109.8549 120.1632
" />
<path d="M109.8549 120.1632
L109.9977 120.1632
" />
<path d="M109.9977 120.1632
L110.0930 120.2108
" />
<path d="M110.0930 120.2108
L110.1406 120.3060
" />
<path d="M110.1406 120.3060
L110.1406 120.8298
" />
<path d="M110.6168 120.8298
L110.6168 120.1632
" />
<path d="M110.6168 120.2584
L110.6644 120.2108
" />
<path d="M110.6644 120.2108
L110.7596 120.1632
" />
<path d="M110.7596 120.1632
L110.9025 120.1632
" />
<path d="M110.9025 120.1632
L110.9977 120.2108
" />
<path d="M110.9977 120.2108
L111.0454 120.3060
" />
<path d="M111.0454 120.3060
L111.0454 120.8298
" />
<path d="M111.0454 120.3060
L111.0930 120.2108
" />
<path d="M111.0930 120.2108
L111.1882 120.1632
" />
<path d="M111.1882 120.1632
L111.3311 120.1632
" />
<path d="M111.3311 120.1632
L111.4263 120.2108
" />
<path d="M111.4263 120.2108
L111.4739 120.3060
" />
<path d="M111.4739 120.3060
L111.4739 120.8298
" />
</g></g>
<g style="fill:none; 
stroke:#C2C2C2; stroke-width:0.1000; stroke-opacity:1; 
stroke-linecap:round; stroke-linejoin:round;">
<path d="M94.8300 110.4150
L94.8300 122.1114
" />
<path d="M118.9750 110.4150
L118.9750 122.1114
" />
<path d="M94.8300 121.5250
L118.9750 121.5250
" />
<path d="M94.8300 121.5250
L118.9750 121.5250
" />
<path d="M94.8300 121.5250
L95.9565 120.9386
" />
<path d="M94.8300 121.5250
L95.9565 122.1114
" />
<path d="M118.9750 121.5250
L117.8485 122.1114
" />
<path d="M118.9750 121.5250
L117.8485 120.9386
" />
</g>
<g style="fill:none; 
stroke:#C2C2C2; stroke-width:0.1500; stroke-opacity:1; 
stroke-linecap:round; stroke-linejoin:round;">
<text x="82.7725" y="120.8750"
textLength="9.8690" font-size="1.3333" lengthAdjust="spacingAndGlyphs"
text-anchor="middle" opacity="0">24.1150 mm</text>
<g class="stroked-text"><desc>24.1150 mm</desc>
<path d="M78.1535 119.9251
L78.2011 119.8774
" />
<path d="M78.2011 119.8774
L78.2963 119.8298
" />
<path d="M78.2963 119.8298
L78.5344 119.8298
" />
<path d="M78.5344 119.8298
L78.6296 119.8774
" />
<path d="M78.6296 119.8774
L78.6773 119.9251
" />
<path d="M78.6773 119.9251
L78.7249 120.0203
" />
<path d="M78.7249 120.0203
L78.7249 120.1155
" />
<path d="M78.7249 120.1155
L78.6773 120.2584
" />
<path d="M78.6773 120.2584
L78.1058 120.8298
" />
<path d="M78.1058 120.8298
L78.7249 120.8298
" />
<path d="M79.5820 120.1632
L79.5820 120.8298
" />
<path d="M79.3439 119.7822
L79.1058 120.4965
" />
<path d="M79.1058 120.4965
L79.7249 120.4965
" />
<path d="M80.1058 120.7346
L80.1535 120.7822
" />
<path d="M80.1535 120.7822
L80.1058 120.8298
" />
<path d="M80.1058 120.8298
L80.0582 120.7822
" />
<path d="M80.0582 120.7822
L80.1058 120.7346
" />
<path d="M80.1058 120.7346
L80.1058 120.8298
" />
<path d="M81.1058 120.8298
L80.5344 120.8298
" />
<path d="M80.8201 120.8298
L80.8201 119.8298
" />
<path d="M80.8201 119.8298
L80.7249 119.9727
" />
<path d="M80.7249 119.9727
L80.6296 120.0679
" />
<path d="M80.6296 120.0679
L80.5344 120.1155
" />
<path d="M82.0582 120.8298
L81.4868 120.8298
" />
<path d="M81.7725 120.8298
L81.7725 119.8298
" />
<path d="M81.7725 119.8298
L81.6773 119.9727
" />
<path d="M81.6773 119.9727
L81.5820 120.0679
" />
<path d="M81.5820 120.0679
L81.4868 120.1155
" />
<path d="M82.9630 119.8298
L82.4868 119.8298
" />
<path d="M82.4868 119.8298
L82.4392 120.3060
" />
<path d="M82.4392 120.3060
L82.4868 120.2584
" />
<path d="M82.4868 120.2584
L82.5820 120.2108
" />
<path d="M82.5820 120.2108
L82.8201 120.2108
" />
<path d="M82.8201 120.2108
L82.9154 120.2584
" />
<path d="M82.9154 120.2584
L82.9630 120.3060
" />
<path d="M82.9630 120.3060
L83.0106 120.4012
" />
<path d="M83.0106 120.4012
L83.0106 120.6393
" />
<path d="M83.0106 120.6393
L82.9630 120.7346
" />
<path d="M82.9630 120.7346
L82.9154 120.7822
" />
<path d="M82.9154 120.7822
L82.8201 120.8298
" />
<path d="M82.8201 120.8298
L82.5820 120.8298
" />
<path d="M82.5820 120.8298
L82.4868 120.7822
" />
<path d="M82.4868 120.7822
L82.4392 120.7346
" />
<path d="M83.6296 119.8298
L83.7249 119.8298
" />
<path d="M83.7249 119.8298
L83.8201 119.8774
" />
<path d="M83.8201 119.8774
L83.8677 119.9251
" />
<path d="M83.8677 119.9251
L83.9154 120.0203
" />
<path d="M83.9154 120.0203
L83.9630 120.2108
" />
<path d="M83.9630 120.2108
L83.9630 120.4489
" />
<path d="M83.9630 120.4489
L83.9154 120.6393
" />
<path d="M83.9154 120.6393
L83.8677 120.7346
" />
<path d="M83.8677 120.7346
L83.8201 120.7822
" />
<path d="M83.8201 120.7822
L83.7249 120.8298
" />
<path d="M83.7249 120.8298
L83.6296 120.8298
" />
<path d="M83.6296 120.8298
L83.5344 120.7822
" />
<path d="M83.5344 120.7822
L83.4868 120.7346
" />
<path d="M83.4868 120.7346
L83.4392 120.6393
" />
<path d="M83.4392 120.6393
L83.3915 120.4489
" />
<path d="M83.3915 120.4489
L83.3915 120.2108
" />
<path d="M83.3915 120.2108
L83.4392 120.0203
" />
<path d="M83.4392 120.0203
L83.4868 119.9251
" />
<path d="M83.4868 119.9251
L83.5344 119.8774
" />
<path d="M83.5344 119.8774
L83.6296 119.8298
" />
<path d="M85.1535 120.8298
L85.1535 120.1632
" />
<path d="M85.1535 120.2584
L85.2011 120.2108
" />
<path d="M85.2011 120.2108
L85.2963 120.1632
" />
<path d="M85.2963 120.1632
L85.4392 120.1632
" />
<path d="M85.4392 120.1632
L85.5344 120.2108
" />
<path d="M85.5344 120.2108
L85.5820 120.3060
" />
<path d="M85.5820 120.3060
L85.5820 120.8298
" />
<path d="M85.5820 120.3060
L85.6296 120.2108
" />
<path d="M85.6296 120.2108
L85.7249 120.1632
" />
<path d="M85.7249 120.1632
L85.8677 120.1632
" />
<path d="M85.8677 120.1632
L85.9630 120.2108
" />
<path d="M85.9630 120.2108
L86.0106 120.3060
" />
<path d="M86.0106 120.3060
L86.0106 120.8298
" />
<path d="M86.4868 120.8298
L86.4868 120.1632
" />
<path d="M86.4868 120.2584
L86.5344 120.2108
" />
<path d="M86.5344 120.2108
L86.6296 120.1632
" />
<path d="M86.6296 120.1632
L86.7725 120.1632
" />
<path d="M86.7725 120.1632
L86.8677 120.2108
" />
<path d="M86.8677 120.2108
L86.9154 120.3060
" />
<path d="M86.9154 120.3060
L86.9154 120.8298
" />
<path d="M86.9154 120.3060
L86.9630 120.2108
" />
<path d="M86.9630 120.2108
L87.0582 120.1632
" />
<path d="M87.0582 120.1632
L87.2011 120.1632
" />
<path d="M87.2011 120.1632
L87.2963 120.2108
" />
<path d="M87.2963 120.2108
L87.3439 120.3060
" />
<path d="M87.3439 120.3060
L87.3439 120.8298
" />
</g></g>
<g style="fill:none; 
stroke:#C2C2C2; stroke-width:0.1000; stroke-opacity:1; 
stroke-linecap:round; stroke-linejoin:round;">
<path d="M70.7150 110.4150
L70.7150 122.1114
" />
<path d="M94.8300 110.4150
L94.8300 122.1114
" />
<path d="M70.7150 121.5250
L94.8300 121.5250
" />
<path d="M70.7150 121.5250
L94.8300 121.5250
" />
<path d="M70.7150 121.5250
L71.8415 120.9386
" />
<path d="M70.7150 121.5250
L71.8415 122.1114
" />
<path d="M94.8300 121.5250
L93.7035 122.1114
" />
<path d="M94.8300 121.5250
L93.7035 120.9386
" />
<path style="fill:none; 
stroke:#D0D2CD; stroke-width:0.0500; stroke-opacity:1; 
stroke-linecap:round; stroke-linejoin:round;fill:none"
d="M 0.0250,0.0250
190.0250,0.0250
190.0250,125.0250
0.0250,125.0250
Z" /> 
</g> 
</svg>
