M48
; DRILL file {KiCad 8.0.2-1} date 2024-08-10T13:00:38-0400
; FORMAT={-:-/ absolute / inch / decimal}
; #@! TF.CreationDate,2024-08-10T13:00:38-04:00
; #@! TF.GenerationSoftware,Kicad,Pcbnew,8.0.2-1
; #@! TF.FileFunction,Plated,1,2,PTH
FMAT,2
INCH
; #@! TA.AperFunction,Plated,PTH,ViaDrill
T1C0.0118
; #@! TA.AperFunction,Plated,PTH,ComponentDrill
T2C0.0300
; #@! TA.AperFunction,Plated,PTH,ComponentDrill
T3C0.0315
; #@! TA.AperFunction,Plated,PTH,ComponentDrill
T4C0.0394
%
G90
G05
T1
X14.8781Y-16.795
X14.9499Y-15.6819
X14.9736Y-15.5677
X14.9786Y-15.6131
X15.0024Y-13.2952
X15.014Y-15.6492
X15.0374Y-16.7656
X15.0521Y-15.4795
X15.088Y-13.3477
X15.2085Y-15.3667
X15.2116Y-13.3682
X15.2451Y-12.3181
X15.4262Y-15.2531
X15.4906Y-15.1993
X15.5604Y-15.1594
X15.5737Y-16.5576
X15.5929Y-16.0538
X15.6032Y-16.677
X15.6486Y-17.008
X15.6489Y-17.3392
X15.6505Y-16.7468
X15.6834Y-12.6864
X15.6898Y-12.7596
X15.6922Y-17.5484
X15.7134Y-16.6327
X15.7301Y-17.3397
X15.7793Y-15.8539
X15.7962Y-16.6344
X15.8156Y-17.5981
X15.8259Y-17.4823
X15.8394Y-12.3266
X15.878Y-12.1633
X15.9056Y-11.995
X15.9085Y-15.0822
X15.9113Y-11.9504
X15.9322Y-15.985
X16.006Y-12.9341
X16.0162Y-14.9232
X16.0573Y-12.9367
X16.0607Y-11.9379
X16.0747Y-15.328
X16.1007Y-12.2027
X16.113Y-12.9174
X16.1359Y-16.1895
X16.1537Y-14.8445
X16.1589Y-15.4567
X16.387Y-11.7619
X16.4274Y-16.6472
X16.4591Y-14.7676
X16.4789Y-14.217
X16.5473Y-14.7669
X16.6091Y-14.7424
X16.6104Y-14.4572
X16.6204Y-15.2531
X16.6217Y-16.6616
X16.6946Y-14.1088
X16.7396Y-15.1996
X16.8396Y-15.1612
X16.8396Y-15.5677
X16.8501Y-15.8047
X16.8689Y-16.9191
X16.8717Y-12.9981
X16.8916Y-11.5069
X16.9396Y-15.6131
X16.9497Y-15.0812
X16.9563Y-16.6269
X16.9729Y-13.0715
X17.0134Y-14.7657
X17.0649Y-13.4887
X17.0756Y-13.3302
X17.083Y-12.1196
X17.1005Y-13.3794
X17.1121Y-16.6413
X17.1682Y-16.2983
X17.2181Y-12.5494
X17.2275Y-13.2625
X17.2887Y-16.3399
X17.3285Y-14.1082
X17.3774Y-12.8476
X17.4493Y-17.0254
X17.4701Y-15.6742
X17.5205Y-12.9981
X17.6695Y-15.4724
X17.7242Y-15.9202
X17.7411Y-15.4658
X17.7661Y-14.356
X17.8035Y-14.7199
X17.8694Y-12.7022
X17.8989Y-14.8463
X17.9164Y-16.7644
X17.9709Y-13.8067
X17.9709Y-13.9781
X17.9914Y-17.3776
X18.016Y-14.9242
X18.0297Y-12.6406
X18.1247Y-16.556
X18.1331Y-15.0038
X18.1706Y-16.6178
X18.1706Y-17.0159
X18.2158Y-15.0394
X18.2279Y-11.976
X18.2365Y-12.8962
X18.2389Y-16.8959
X18.255Y-16.3126
X18.2925Y-17.4848
X18.3386Y-15.1594
X18.3765Y-12.159
X18.3801Y-13.9781
X18.3968Y-16.7324
X18.3977Y-16.8711
X18.4102Y-15.1999
X18.4938Y-15.2531
X18.4964Y-12.9261
X18.5651Y-16.3999
X18.5651Y-16.556
X18.5776Y-14.5326
X18.5825Y-12.998
X18.5933Y-12.8901
X18.5995Y-11.9014
X18.6025Y-16.4337
X18.6919Y-16.9715
X18.6933Y-13.05
X18.694Y-15.328
X18.6995Y-16.835
X18.7063Y-15.9267
X18.7185Y-11.461
X18.7195Y-16.5719
X18.7444Y-15.328
X18.7899Y-16.255
X18.8594Y-16.6178
X18.8696Y-14.1451
X18.8875Y-16.88
X18.9293Y-16.8438
X18.9647Y-16.6542
X18.9692Y-17.7216
X18.9795Y-15.5035
X19.0921Y-14.8031
X19.1039Y-17.6379
X19.199Y-14.9243
X19.2699Y-16.4337
X19.299Y-15.0035
X19.399Y-15.0812
X19.4912Y-15.9698
X19.5102Y-15.1594
X19.6488Y-17.3627
X19.6566Y-17.0384
X19.6849Y-17.3884
X19.7664Y-13.4858
X19.7852Y-15.1988
X19.813Y-15.254
X19.8428Y-13.9021
X19.9009Y-12.7858
X19.915Y-14.2737
X19.9334Y-15.5941
X19.9569Y-15.3266
X20.1346Y-13.9787
X20.2361Y-14.6363
X20.2442Y-15.9531
X20.3399Y-14.7657
X20.3526Y-16.0615
X20.3625Y-12.0703
X20.3834Y-14.9232
X20.3979Y-13.5853
X20.481Y-15.0019
X20.5937Y-15.0818
X20.9357Y-15.2532
X21.2178Y-15.328
X21.3018Y-15.4752
X21.7194Y-13.1514
X21.8917Y-14.7989
X22.3512Y-12.9454
X22.3512Y-17.7571
T2
X14.9953Y-14.0913
X14.9953Y-14.4913
X15.1386Y-14.0913
X15.1386Y-14.4913
X15.2819Y-14.0913
X15.2819Y-14.4913
X15.4252Y-14.0913
X15.4252Y-14.4913
X15.5685Y-14.0913
X15.5685Y-14.4913
X15.7118Y-14.0913
X15.7118Y-14.4913
X15.8551Y-14.0913
X15.8551Y-14.4913
X15.9984Y-14.0913
X15.9984Y-14.4913
X16.1417Y-14.0913
X16.1417Y-14.4913
X20.2756Y-13.4071
X20.2756Y-13.5071
X20.2756Y-13.722
X20.2756Y-13.822
X20.2756Y-14.037
X20.2756Y-14.137
X20.2756Y-14.352
X20.2756Y-14.452
X20.2787Y-12.1079
X20.2787Y-12.2079
X20.2787Y-12.7772
X20.2787Y-12.8772
X20.2787Y-13.0921
X20.2787Y-13.1921
X20.2806Y-12.4591
X20.2806Y-12.5591
X20.3756Y-13.5071
X20.3756Y-13.822
X20.3756Y-14.137
X20.3756Y-14.452
X20.3787Y-12.2079
X20.3787Y-12.8772
X20.3787Y-13.1921
X20.3806Y-12.5591
X20.4756Y-13.4071
X20.4756Y-13.722
X20.4756Y-14.037
X20.4756Y-14.352
X20.4787Y-12.1079
X20.4787Y-12.7772
X20.4787Y-13.0921
X20.4806Y-12.4591
X20.5756Y-13.4071
X20.5756Y-13.722
X20.5756Y-14.037
X20.5756Y-14.352
X20.5787Y-12.1079
X20.5787Y-12.7772
X20.5787Y-13.0921
X20.5806Y-12.4591
X20.7756Y-13.4071
X20.7756Y-13.722
X20.7756Y-14.037
X20.7756Y-14.352
X20.7787Y-12.1079
X20.7787Y-12.7772
X20.7787Y-13.0921
X20.7806Y-12.4591
X21.5323Y-13.0709
X21.5323Y-13.1709
X21.5323Y-13.3827
X21.5323Y-13.4827
X21.5354Y-12.7559
X21.5354Y-12.8559
X21.5354Y-13.7008
X21.5354Y-13.8008
X21.5354Y-14.0157
X21.5354Y-14.1157
X21.5354Y-14.3276
X21.5354Y-14.4276
X21.6323Y-13.1709
X21.6323Y-13.4827
X21.6354Y-12.8559
X21.6354Y-13.8008
X21.6354Y-14.1157
X21.6354Y-14.4276
X21.7323Y-13.0709
X21.7323Y-13.3827
X21.7354Y-12.7559
X21.7354Y-13.7008
X21.7354Y-14.0157
X21.7354Y-14.3276
X21.8323Y-13.0709
X21.8323Y-13.3827
X21.8354Y-12.7559
X21.8354Y-13.7008
X21.8354Y-14.0157
X21.8354Y-14.3276
X22.0323Y-13.0709
X22.0323Y-13.3827
X22.0354Y-12.7559
X22.0354Y-13.7008
X22.0354Y-14.0157
X22.0354Y-14.3276
T3
X14.9435Y-16.1102
X14.9435Y-16.4102
X14.9685Y-16.7549
X14.9685Y-16.8549
X14.9685Y-16.9549
X14.9685Y-17.0549
X14.9685Y-17.1549
X14.9685Y-17.2549
X14.9685Y-17.3549
X14.9685Y-17.4549
X14.9685Y-17.5549
X14.9685Y-17.6549
X15.0152Y-11.937
X15.0152Y-12.237
X15.0435Y-16.1102
X15.0435Y-16.4102
X15.0545Y-12.5276
X15.0545Y-12.8276
X15.0724Y-11.3535
X15.0724Y-11.6535
X15.1152Y-11.937
X15.1152Y-12.237
X15.1435Y-16.1102
X15.1435Y-16.4102
X15.1545Y-12.5276
X15.1545Y-12.8276
X15.1724Y-11.3535
X15.1724Y-11.6535
X15.1906Y-15.4331
X15.1906Y-15.7331
X15.2152Y-11.937
X15.2152Y-12.237
X15.2435Y-16.1102
X15.2435Y-16.4102
X15.2545Y-12.5276
X15.2545Y-12.8276
X15.2685Y-16.7549
X15.2685Y-16.8549
X15.2685Y-16.9549
X15.2685Y-17.0549
X15.2685Y-17.1549
X15.2685Y-17.2549
X15.2685Y-17.3549
X15.2685Y-17.4549
X15.2685Y-17.5549
X15.2685Y-17.6549
X15.2693Y-13.2433
X15.2693Y-13.5433
X15.2724Y-11.3535
X15.2724Y-11.6535
X15.2906Y-15.4331
X15.2906Y-15.7331
X15.3152Y-11.937
X15.3152Y-12.237
X15.3435Y-16.1102
X15.3435Y-16.4102
X15.3545Y-12.5276
X15.3545Y-12.8276
X15.3693Y-13.2433
X15.3693Y-13.5433
X15.3724Y-11.3535
X15.3724Y-11.6535
X15.3906Y-15.4331
X15.3906Y-15.7331
X15.4152Y-11.937
X15.4152Y-12.237
X15.4435Y-16.1102
X15.4435Y-16.4102
X15.4545Y-12.5276
X15.4545Y-12.8276
X15.4693Y-13.2433
X15.4693Y-13.5433
X15.4724Y-11.3535
X15.4724Y-11.6535
X15.4906Y-15.4331
X15.4906Y-15.7331
X15.5152Y-11.937
X15.5152Y-12.237
X15.5435Y-16.1102
X15.5435Y-16.4102
X15.5545Y-12.5276
X15.5545Y-12.8276
X15.5693Y-13.2433
X15.5693Y-13.5433
X15.5724Y-11.3535
X15.5724Y-11.6535
X15.5906Y-15.4331
X15.5906Y-15.7331
X15.6152Y-11.937
X15.6152Y-12.237
X15.6435Y-16.1102
X15.6435Y-16.4102
X15.6545Y-12.5276
X15.6545Y-12.8276
X15.6693Y-13.2433
X15.6693Y-13.5433
X15.6724Y-11.3535
X15.6724Y-11.6535
X15.6906Y-15.4331
X15.6906Y-15.7331
X15.7435Y-16.1102
X15.7435Y-16.4102
X15.7693Y-13.2433
X15.7693Y-13.5433
X15.7906Y-15.4331
X15.7906Y-15.7331
X15.7992Y-17.0622
X15.7992Y-17.3622
X15.8435Y-16.1102
X15.8435Y-16.4102
X15.8693Y-13.2433
X15.8693Y-13.5433
X15.8906Y-15.4331
X15.8906Y-15.7331
X15.8992Y-17.0622
X15.8992Y-17.3622
X15.9906Y-15.4331
X15.9906Y-15.7331
X15.9992Y-17.0622
X15.9992Y-17.3622
X16.0906Y-15.4331
X16.0906Y-15.7331
X16.0992Y-17.0622
X16.0992Y-17.3622
X16.1717Y-12.0228
X16.1717Y-12.3228
X16.1992Y-17.0622
X16.1992Y-17.3622
X16.2717Y-12.0228
X16.2717Y-12.3228
X16.2717Y-12.8496
X16.2717Y-13.1496
X16.2825Y-16.1882
X16.2825Y-16.4882
X16.2992Y-17.0622
X16.2992Y-17.3622
X16.311Y-11.3142
X16.311Y-11.6142
X16.3717Y-12.0228
X16.3717Y-12.3228
X16.3717Y-12.8496
X16.3717Y-13.1496
X16.3825Y-16.1882
X16.3825Y-16.4882
X16.3992Y-17.0622
X16.3992Y-17.3622
X16.411Y-11.3142
X16.411Y-11.6142
X16.4396Y-15.4331
X16.4396Y-15.7331
X16.4717Y-12.0228
X16.4717Y-12.3228
X16.4717Y-12.8496
X16.4717Y-13.1496
X16.4825Y-16.1882
X16.4825Y-16.4882
X16.4992Y-17.0622
X16.4992Y-17.3622
X16.511Y-11.3142
X16.511Y-11.6142
X16.5396Y-15.4331
X16.5396Y-15.7331
X16.5717Y-12.0228
X16.5717Y-12.3228
X16.5717Y-12.8496
X16.5717Y-13.1496
X16.5825Y-16.1882
X16.5825Y-16.4882
X16.611Y-11.3142
X16.611Y-11.6142
X16.6396Y-15.4331
X16.6396Y-15.7331
X16.6683Y-14.3701
X16.6683Y-14.6701
X16.6717Y-12.0228
X16.6717Y-12.3228
X16.6717Y-12.8496
X16.6717Y-13.1496
X16.6825Y-16.1882
X16.6825Y-16.4882
X16.711Y-11.3142
X16.711Y-11.6142
X16.711Y-13.7157
X16.711Y-14.0157
X16.7396Y-15.4331
X16.7396Y-15.7331
X16.7683Y-14.3701
X16.7683Y-14.6701
X16.7717Y-12.0228
X16.7717Y-12.3228
X16.7717Y-12.8496
X16.7717Y-13.1496
X16.7825Y-16.1882
X16.7825Y-16.4882
X16.811Y-11.3142
X16.811Y-11.6142
X16.811Y-13.7157
X16.811Y-14.0157
X16.8396Y-15.4331
X16.8396Y-15.7331
X16.8541Y-17.1339
X16.8541Y-17.4339
X16.8683Y-14.3701
X16.8683Y-14.6701
X16.8717Y-12.0228
X16.8717Y-12.3228
X16.8717Y-12.8496
X16.8717Y-13.1496
X16.8825Y-16.1882
X16.8825Y-16.4882
X16.911Y-11.3142
X16.911Y-11.6142
X16.911Y-13.7157
X16.911Y-14.0157
X16.9396Y-15.4331
X16.9396Y-15.7331
X16.9541Y-17.1339
X16.9541Y-17.4339
X16.9683Y-14.3701
X16.9683Y-14.6701
X16.9717Y-12.0228
X16.9717Y-12.3228
X16.9717Y-12.8496
X16.9717Y-13.1496
X16.9825Y-16.1882
X16.9825Y-16.4882
X17.011Y-13.7157
X17.011Y-14.0157
X17.0396Y-15.4331
X17.0396Y-15.7331
X17.0541Y-17.1339
X17.0541Y-17.4339
X17.0683Y-14.3701
X17.0683Y-14.6701
X17.0717Y-12.0228
X17.0717Y-12.3228
X17.0717Y-12.8496
X17.0717Y-13.1496
X17.0825Y-16.1882
X17.0825Y-16.4882
X17.111Y-13.7157
X17.111Y-14.0157
X17.1396Y-15.4331
X17.1396Y-15.7331
X17.1541Y-17.1339
X17.1541Y-17.4339
X17.1683Y-14.3701
X17.1683Y-14.6701
X17.1717Y-12.8496
X17.1717Y-13.1496
X17.1825Y-16.1882
X17.1825Y-16.4882
X17.211Y-13.7157
X17.211Y-14.0157
X17.2396Y-15.4331
X17.2396Y-15.7331
X17.2541Y-17.1339
X17.2541Y-17.4339
X17.2683Y-14.3701
X17.2683Y-14.6701
X17.311Y-13.7157
X17.311Y-14.0157
X17.3396Y-15.4331
X17.3396Y-15.7331
X17.3541Y-17.1339
X17.3541Y-17.4339
X17.4242Y-16.1882
X17.4242Y-16.4882
X17.4541Y-17.1339
X17.4541Y-17.4339
X17.5242Y-16.1882
X17.5242Y-16.4882
X17.5541Y-17.1339
X17.5541Y-17.4339
X17.5559Y-12.0228
X17.5559Y-12.3228
X17.6134Y-12.7528
X17.6134Y-12.8528
X17.6134Y-12.9528
X17.6134Y-13.0528
X17.6134Y-13.1528
X17.6134Y-13.2528
X17.6134Y-13.3528
X17.6242Y-16.1882
X17.6242Y-16.4882
X17.6559Y-12.0228
X17.6559Y-12.3228
X17.7242Y-16.1882
X17.7242Y-16.4882
X17.7559Y-12.0228
X17.7559Y-12.3228
X17.8102Y-15.4236
X17.8102Y-15.7236
X17.8242Y-16.1882
X17.8242Y-16.4882
X17.8465Y-11.3535
X17.8465Y-11.6535
X17.8559Y-12.0228
X17.8559Y-12.3228
X17.9102Y-15.4236
X17.9102Y-15.7236
X17.9134Y-12.7528
X17.9134Y-12.8528
X17.9134Y-12.9528
X17.9134Y-13.0528
X17.9134Y-13.1528
X17.9134Y-13.2528
X17.9134Y-13.3528
X17.9242Y-16.1882
X17.9242Y-16.4882
X17.9333Y-17.1331
X17.9333Y-17.4331
X17.9465Y-11.3535
X17.9465Y-11.6535
X17.9559Y-12.0228
X17.9559Y-12.3228
X17.9709Y-14.3307
X17.9709Y-14.6307
X18.0102Y-15.4236
X18.0102Y-15.7236
X18.0242Y-16.1882
X18.0242Y-16.4882
X18.0333Y-17.1331
X18.0333Y-17.4331
X18.0465Y-11.3535
X18.0465Y-11.6535
X18.0559Y-12.0228
X18.0559Y-12.3228
X18.0709Y-14.3307
X18.0709Y-14.6307
X18.1102Y-15.4236
X18.1102Y-15.7236
X18.1242Y-16.1882
X18.1242Y-16.4882
X18.1333Y-17.1331
X18.1333Y-17.4331
X18.1465Y-11.3535
X18.1465Y-11.6535
X18.1559Y-12.0228
X18.1559Y-12.3228
X18.1709Y-14.3307
X18.1709Y-14.6307
X18.2102Y-15.4236
X18.2102Y-15.7236
X18.2242Y-16.1882
X18.2242Y-16.4882
X18.2333Y-17.1331
X18.2333Y-17.4331
X18.2465Y-11.3535
X18.2465Y-11.6535
X18.2709Y-14.3307
X18.2709Y-14.6307
X18.3102Y-15.4236
X18.3102Y-15.7236
X18.3242Y-16.1882
X18.3242Y-16.4882
X18.3333Y-17.1331
X18.3333Y-17.4331
X18.3465Y-11.3535
X18.3465Y-11.6535
X18.3709Y-14.3307
X18.3709Y-14.6307
X18.4008Y-13.1858
X18.4008Y-13.2858
X18.4008Y-13.3858
X18.4008Y-13.4858
X18.4008Y-13.5858
X18.4008Y-13.6858
X18.4008Y-13.7858
X18.4102Y-15.4236
X18.4102Y-15.7236
X18.4333Y-17.1331
X18.4333Y-17.4331
X18.4465Y-11.3535
X18.4465Y-11.6535
X18.4709Y-14.3307
X18.4709Y-14.6307
X18.5102Y-15.4236
X18.5102Y-15.7236
X18.5189Y-12.2197
X18.5189Y-12.3197
X18.5189Y-12.4197
X18.5189Y-12.5197
X18.5189Y-12.6197
X18.5189Y-12.7197
X18.5189Y-12.8197
X18.5333Y-17.1331
X18.5333Y-17.4331
X18.5709Y-14.3307
X18.5709Y-14.6307
X18.6102Y-15.4236
X18.6102Y-15.7236
X18.6333Y-17.1331
X18.6333Y-17.4331
X18.7008Y-13.1858
X18.7008Y-13.2858
X18.7008Y-13.3858
X18.7008Y-13.4858
X18.7008Y-13.5858
X18.7008Y-13.6858
X18.7008Y-13.7858
X18.7102Y-15.4236
X18.7102Y-15.7236
X18.8189Y-12.2197
X18.8189Y-12.3197
X18.8189Y-12.4197
X18.8189Y-12.5197
X18.8189Y-12.6197
X18.8189Y-12.7197
X18.8189Y-12.8197
X18.9014Y-17.2126
X18.9014Y-17.5126
X18.999Y-15.4402
X18.999Y-15.7402
X19.0014Y-17.2126
X19.0014Y-17.5126
X19.022Y-16.1876
X19.022Y-16.7876
X19.099Y-15.4402
X19.099Y-15.7402
X19.1014Y-17.2126
X19.1014Y-17.5126
X19.122Y-16.1876
X19.122Y-16.7876
X19.199Y-15.4402
X19.199Y-15.7402
X19.2014Y-17.2126
X19.2014Y-17.5126
X19.222Y-16.1876
X19.222Y-16.7876
X19.299Y-15.4402
X19.299Y-15.7402
X19.3014Y-17.2126
X19.3014Y-17.5126
X19.322Y-16.1876
X19.322Y-16.7876
X19.399Y-15.4402
X19.399Y-15.7402
X19.4014Y-17.2126
X19.4014Y-17.5126
X19.422Y-16.1876
X19.422Y-16.7876
X19.499Y-15.4402
X19.499Y-15.7402
X19.5014Y-17.2126
X19.5014Y-17.5126
X19.522Y-16.1876
X19.522Y-16.7876
X19.599Y-15.4402
X19.599Y-15.7402
X19.6014Y-17.2126
X19.6014Y-17.5126
X19.622Y-16.1876
X19.622Y-16.7876
X19.699Y-15.4402
X19.699Y-15.7402
X19.722Y-16.1876
X19.722Y-16.7876
X19.799Y-15.4402
X19.799Y-15.7402
X19.822Y-16.1876
X19.822Y-16.7876
X19.899Y-15.4402
X19.899Y-15.7402
X19.922Y-16.1876
X19.922Y-16.7876
X20.022Y-16.1876
X20.022Y-16.7876
X20.122Y-16.1876
X20.122Y-16.7876
X20.1937Y-15.4331
X20.1937Y-15.7331
X20.222Y-16.1876
X20.222Y-16.7876
X20.2937Y-15.4331
X20.2937Y-15.7331
X20.322Y-16.1876
X20.322Y-16.7876
X20.3937Y-15.4331
X20.3937Y-15.7331
X20.4937Y-15.4331
X20.4937Y-15.7331
X20.5709Y-16.8262
X20.5709Y-17.4262
X20.5937Y-15.4331
X20.5937Y-15.7331
X20.6709Y-16.8262
X20.6709Y-17.4262
X20.6937Y-15.4331
X20.6937Y-15.7331
X20.7709Y-16.8262
X20.7709Y-17.4262
X20.7937Y-15.4331
X20.7937Y-15.7331
X20.8709Y-16.8262
X20.8709Y-17.4262
X20.8937Y-15.4331
X20.8937Y-15.7331
X20.9709Y-16.8262
X20.9709Y-17.4262
X20.9937Y-15.4331
X20.9937Y-15.7331
X21.0709Y-16.8262
X21.0709Y-17.4262
X21.0937Y-15.4331
X21.0937Y-15.7331
X21.1709Y-16.8262
X21.1709Y-17.4262
X21.2709Y-16.8262
X21.2709Y-17.4262
X21.3709Y-16.8262
X21.3709Y-17.4262
X21.3961Y-15.4331
X21.3961Y-15.7331
X21.4709Y-16.8262
X21.4709Y-17.4262
X21.4961Y-15.4331
X21.4961Y-15.7331
X21.5709Y-16.8262
X21.5709Y-17.4262
X21.5961Y-15.4331
X21.5961Y-15.7331
X21.6709Y-16.8262
X21.6709Y-17.4262
X21.6961Y-15.4331
X21.6961Y-15.7331
X21.7709Y-16.8262
X21.7709Y-17.4262
X21.7961Y-15.4331
X21.7961Y-15.7331
X21.8709Y-16.8262
X21.8709Y-17.4262
X21.8961Y-15.4331
X21.8961Y-15.7331
X21.9961Y-15.4331
X21.9961Y-15.7331
X22.0961Y-15.4331
X22.0961Y-15.7331
X22.1961Y-15.4331
X22.1961Y-15.7331
X22.2961Y-15.4331
X22.2961Y-15.7331
T4
X14.6799Y-13.2906
X14.6799Y-13.3906
X14.6799Y-13.4906
X14.6799Y-13.5906
X14.6799Y-13.6906
X14.6799Y-13.7906
X14.6799Y-13.8906
X14.6799Y-13.9906
X14.6799Y-14.0906
X14.6799Y-14.1906
X14.6799Y-14.2906
X14.6799Y-14.3906
X14.6799Y-14.4906
X14.6799Y-14.5906
X14.6799Y-14.6906
X14.6799Y-14.7906
X14.6799Y-14.8906
X14.6799Y-14.9906
X14.6799Y-15.0906
X14.6799Y-15.1906
X14.6799Y-15.2906
X14.6799Y-15.3906
X14.6799Y-15.4906
M30
