M48
; DRILL file {KiCad 8.0.2-1} date 2024-08-11T09:55:21-0400
; FORMAT={-:-/ absolute / inch / decimal}
; #@! TF.CreationDate,2024-08-11T09:55:21-04:00
; #@! TF.GenerationSoftware,Kicad,Pcbnew,8.0.2-1
; #@! TF.FileFunction,Plated,1,2,PTH
FMAT,2
INCH
; #@! TA.AperFunction,Plated,PTH,ViaDrill
T1C0.0118
; #@! TA.AperFunction,Plated,PTH,ComponentDrill
T2C0.0300
; #@! TA.AperFunction,Plated,PTH,ComponentDrill
T3C0.0315
; #@! TA.AperFunction,Plated,PTH,ComponentDrill
T4C0.0394
%
G90
G05
T1
X4.5984Y-4.4358
X4.6421Y-4.3763
X4.7329Y-2.4303
X4.7329Y-4.3398
X4.9781Y-5.0113
X4.9813Y-5.1069
X5.0275Y-2.4684
X5.0896Y-3.653
X5.1067Y-3.809
X5.1462Y-4.9232
X5.219Y-4.9232
X5.3209Y-5.4087
X5.3662Y-3.1877
X5.3754Y-3.9343
X5.4265Y-5.0445
X5.5719Y-4.0869
X5.5906Y-4.0254
X5.597Y-5.6069
X5.6725Y-4.6677
X5.6861Y-3.8504
X5.704Y-4.0762
X5.7057Y-2.1333
X5.7158Y-3.1711
X5.79Y-4.4406
X5.8129Y-3.7876
X5.9783Y-4.666
X5.9886Y-2.1391
X6.0148Y-5.7461
X6.026Y-5.1816
X6.0512Y-2.1794
X6.0519Y-4.1922
X6.1065Y-4.7306
X6.1065Y-5.2713
X6.1426Y-4.8221
X6.1426Y-5.3613
X6.2742Y-3.3011
X6.2806Y-2.043
X6.3127Y-3.4586
X6.3303Y-4.1249
X6.391Y-2.9572
X6.3966Y-2.8134
X6.4169Y-4.12
X6.4309Y-3.2274
X6.4416Y-4.2516
X6.4649Y-3.1544
X6.5405Y-4.2123
X6.6291Y-5.3055
X6.6406Y-4.6941
X6.7006Y-3.6695
X6.7184Y-4.3663
X6.7476Y-4.6942
X6.9486Y-4.6843
X7.0134Y-5.2462
X7.0655Y-5.406
X7.2432Y-4.8713
X7.3216Y-5.1587
X7.442Y-2.6999
X7.4451Y-2.9129
X7.594Y-4.8977
X7.6729Y-3.2637
X7.7045Y-3.5725
X7.7077Y-4.227
X8.0155Y-2.2852
X8.053Y-2.3318
X8.2606Y-4.3431
T2
X7.2984Y-2.4409
X7.2984Y-2.5409
X7.2984Y-2.7559
X7.2984Y-2.8559
X7.2984Y-3.3858
X7.2984Y-3.4858
X7.2984Y-3.7008
X7.2984Y-3.8008
X7.2984Y-4.0157
X7.2984Y-4.1157
X7.2984Y-4.3307
X7.2984Y-4.4307
X7.3016Y-2.1291
X7.3016Y-2.2291
X7.3016Y-3.0709
X7.3016Y-3.1709
X7.3984Y-2.5409
X7.3984Y-2.8559
X7.3984Y-3.4858
X7.3984Y-3.8008
X7.3984Y-4.1157
X7.3984Y-4.4307
X7.4016Y-2.2291
X7.4016Y-3.1709
X7.4984Y-2.4409
X7.4984Y-2.7559
X7.4984Y-3.3858
X7.4984Y-3.7008
X7.4984Y-4.0157
X7.4984Y-4.3307
X7.5016Y-2.1291
X7.5016Y-3.0709
X7.5984Y-2.4409
X7.5984Y-2.7559
X7.5984Y-3.3858
X7.5984Y-3.7008
X7.5984Y-4.0157
X7.5984Y-4.3307
X7.6016Y-2.1291
X7.6016Y-3.0709
X7.7984Y-2.4409
X7.7984Y-2.7559
X7.7984Y-3.3858
X7.7984Y-3.7008
X7.7984Y-4.0157
X7.7984Y-4.3307
X7.8016Y-2.1291
X7.8016Y-3.0709
X7.9528Y-2.6378
X7.9528Y-3.0378
X7.9528Y-3.3465
X7.9528Y-3.7465
T3
X4.5425Y-4.1913
X4.5425Y-4.2913
X4.5425Y-4.3913
X4.5425Y-4.4913
X4.5425Y-4.5913
X4.5425Y-4.6913
X4.5425Y-4.7913
X4.5748Y-3.1858
X4.5748Y-3.2858
X4.5748Y-3.3858
X4.5748Y-3.4858
X4.5748Y-3.5858
X4.5748Y-3.6858
X4.5748Y-3.7858
X4.6142Y-2.1407
X4.6142Y-2.2407
X4.6142Y-2.3407
X4.6142Y-2.4407
X4.6142Y-2.5407
X4.6142Y-2.6407
X4.6142Y-2.7407
X4.7396Y-5.2835
X4.7396Y-5.5835
X4.8396Y-5.2835
X4.8396Y-5.5835
X4.8425Y-4.1913
X4.8425Y-4.2913
X4.8425Y-4.3913
X4.8425Y-4.4913
X4.8425Y-4.5913
X4.8425Y-4.6913
X4.8425Y-4.7913
X4.8748Y-3.1858
X4.8748Y-3.2858
X4.8748Y-3.3858
X4.8748Y-3.4858
X4.8748Y-3.5858
X4.8748Y-3.6858
X4.8748Y-3.7858
X4.9142Y-2.1407
X4.9142Y-2.2407
X4.9142Y-2.3407
X4.9142Y-2.4407
X4.9142Y-2.5407
X4.9142Y-2.6407
X4.9142Y-2.7407
X4.9396Y-5.2835
X4.9396Y-5.5835
X5.0396Y-5.2835
X5.0396Y-5.5835
X5.1396Y-5.2835
X5.1396Y-5.5835
X5.2396Y-5.2835
X5.2396Y-5.5835
X5.2441Y-2.1407
X5.2441Y-2.2407
X5.2441Y-2.3407
X5.2441Y-2.4407
X5.2441Y-2.5407
X5.2441Y-2.6407
X5.2441Y-2.7407
X5.2756Y-4.2094
X5.2756Y-4.3094
X5.2756Y-4.4094
X5.2756Y-4.5094
X5.2756Y-4.6094
X5.2756Y-4.7094
X5.2756Y-4.8094
X5.2906Y-3.1858
X5.2906Y-3.2858
X5.2906Y-3.3858
X5.2906Y-3.4858
X5.2906Y-3.5858
X5.2906Y-3.6858
X5.2906Y-3.7858
X5.3396Y-5.2835
X5.3396Y-5.5835
X5.5441Y-2.1407
X5.5441Y-2.2407
X5.5441Y-2.3407
X5.5441Y-2.4407
X5.5441Y-2.5407
X5.5441Y-2.6407
X5.5441Y-2.7407
X5.5756Y-4.2094
X5.5756Y-4.3094
X5.5756Y-4.4094
X5.5756Y-4.5094
X5.5756Y-4.6094
X5.5756Y-4.7094
X5.5756Y-4.8094
X5.5906Y-3.1858
X5.5906Y-3.2858
X5.5906Y-3.3858
X5.5906Y-3.4858
X5.5906Y-3.5858
X5.5906Y-3.6858
X5.5906Y-3.7858
X5.8346Y-2.1407
X5.8346Y-2.2407
X5.8346Y-2.3407
X5.8346Y-2.4407
X5.8346Y-2.5407
X5.8346Y-2.6407
X5.8346Y-2.7407
X5.8732Y-2.9959
X5.8732Y-3.0959
X5.8732Y-3.1959
X5.8732Y-3.2959
X5.8732Y-3.3959
X5.8732Y-3.4959
X5.8732Y-3.5959
X5.8732Y-3.6959
X5.874Y-3.9911
X5.874Y-4.0911
X5.874Y-4.1911
X5.874Y-4.2911
X5.874Y-4.3911
X5.874Y-4.4911
X5.874Y-4.5911
X5.9055Y-4.8969
X5.9055Y-4.9969
X5.9055Y-5.0969
X5.9055Y-5.1969
X5.9055Y-5.2969
X5.9055Y-5.3969
X5.9055Y-5.4969
X5.9055Y-5.5969
X5.9055Y-5.6969
X5.9055Y-5.7969
X6.1346Y-2.1407
X6.1346Y-2.2407
X6.1346Y-2.3407
X6.1346Y-2.4407
X6.1346Y-2.5407
X6.1346Y-2.6407
X6.1346Y-2.7407
X6.1732Y-2.9959
X6.1732Y-3.0959
X6.1732Y-3.1959
X6.1732Y-3.2959
X6.1732Y-3.3959
X6.1732Y-3.4959
X6.1732Y-3.5959
X6.1732Y-3.6959
X6.174Y-3.9911
X6.174Y-4.0911
X6.174Y-4.1911
X6.174Y-4.2911
X6.174Y-4.3911
X6.174Y-4.4911
X6.174Y-4.5911
X6.2055Y-4.8969
X6.2055Y-4.9969
X6.2055Y-5.0969
X6.2055Y-5.1969
X6.2055Y-5.2969
X6.2055Y-5.3969
X6.2055Y-5.4969
X6.2055Y-5.5969
X6.2055Y-5.6969
X6.2055Y-5.7969
X6.5354Y-4.8787
X6.5354Y-4.9787
X6.5354Y-5.0787
X6.5354Y-5.1787
X6.5354Y-5.2787
X6.5354Y-5.3787
X6.5354Y-5.4787
X6.5354Y-5.5787
X6.5354Y-5.6787
X6.5354Y-5.7787
X6.8354Y-4.8787
X6.8354Y-4.9787
X6.8354Y-5.0787
X6.8354Y-5.1787
X6.8354Y-5.2787
X6.8354Y-5.3787
X6.8354Y-5.4787
X6.8354Y-5.5787
X6.8354Y-5.6787
X6.8354Y-5.7787
X7.1732Y-5.0541
X7.1732Y-5.1541
X7.1732Y-5.2541
X7.1732Y-5.3541
X7.1732Y-5.4541
X7.1732Y-5.5541
X7.1732Y-5.6541
X7.4732Y-5.0541
X7.4732Y-5.1541
X7.4732Y-5.2541
X7.4732Y-5.3541
X7.4732Y-5.4541
X7.4732Y-5.5541
X7.4732Y-5.6541
X7.8031Y-5.0541
X7.8031Y-5.1541
X7.8031Y-5.2541
X7.8031Y-5.3541
X7.8031Y-5.4541
X7.8031Y-5.5541
X7.8031Y-5.6541
X8.1031Y-5.0541
X8.1031Y-5.1541
X8.1031Y-5.2541
X8.1031Y-5.3541
X8.1031Y-5.4541
X8.1031Y-5.5541
X8.1031Y-5.6541
T4
X8.173Y-2.2469
X8.173Y-2.3469
X8.173Y-2.4469
X8.173Y-2.5469
X8.173Y-2.6469
X8.173Y-2.7469
X8.173Y-2.8469
X8.173Y-2.9469
X8.173Y-3.0469
X8.173Y-3.1469
X8.173Y-3.2469
X8.173Y-3.3469
X8.173Y-3.4469
X8.173Y-3.5469
X8.173Y-3.6469
X8.173Y-3.7469
X8.173Y-3.8469
X8.173Y-3.9469
X8.173Y-4.0469
X8.173Y-4.1469
X8.173Y-4.2469
X8.173Y-4.3469
X8.173Y-4.4469
M30
