M48
; DRILL file {KiCad 8.0.2-1} date 2024-08-04T14:30:54-0400
; FORMAT={-:-/ absolute / inch / decimal}
; #@! TF.CreationDate,2024-08-04T14:30:54-04:00
; #@! TF.GenerationSoftware,Kicad,Pcbnew,8.0.2-1
; #@! TF.FileFunction,Plated,1,2,PTH
FMAT,2
INCH
; #@! TA.AperFunction,Plated,PTH,ViaDrill
T1C0.0118
; #@! TA.AperFunction,Plated,PTH,ComponentDrill
T2C0.0300
; #@! TA.AperFunction,Plated,PTH,ComponentDrill
T3C0.0315
; #@! TA.AperFunction,Plated,PTH,ComponentDrill
T4C0.0394
; #@! TA.AperFunction,Plated,PTH,ComponentDrill
T5C0.0433
%
G90
G05
T1
X2.5211Y-1.9731
X2.5724Y-2.284
X2.8716Y-4.2269
X2.966Y-2.2914
X3.0008Y-2.8043
X3.011Y-4.5469
X3.1516Y-4.8029
X3.3659Y-2.368
X3.4153Y-2.8884
X3.6636Y-2.8152
X3.7193Y-3.4009
X3.8848Y-4.5895
X3.8977Y-4.5406
X3.8996Y-4.179
X3.9544Y-4.4578
X4.2566Y-2.6414
X4.2894Y-2.3445
X4.4572Y-2.3011
X4.69Y-2.3115
X4.8572Y-2.5627
X4.92Y-6.0003
X4.9314Y-1.9338
X4.995Y-6.0253
X5.07Y-6.0503
X5.17Y-6.1503
X5.27Y-5.2753
X5.37Y-5.3859
X5.3824Y-2.474
X5.625Y-5.075
X5.6452Y-2.503
X5.75Y-5.45
X5.7926Y-2.5815
X5.9289Y-2.2688
X5.9326Y-2.3154
X5.945Y-5.3253
X6.045Y-5.9253
X6.12Y-5.9503
X6.2856Y-2.4362
X6.375Y-5.45
X6.395Y-5.9753
X6.5748Y-5.748
X6.7475Y-2.597
X6.85Y-5.75
X6.995Y-5.9253
X7.07Y-5.9503
X7.095Y-5.3859
X7.2209Y-2.6143
X7.245Y-5.9753
X7.295Y-5.4253
X7.295Y-5.7003
X7.37Y-5.4503
X7.445Y-5.2253
X7.47Y-5.6767
X7.57Y-4.9003
X7.57Y-5.2503
X7.6139Y-5.3942
X7.62Y-5.6253
X7.67Y-5.3503
X7.77Y-6.0003
X7.795Y-5.3253
X7.845Y-6.0253
X7.92Y-6.0503
X8.12Y-6.1503
T2
X3.27Y-2.1174
X3.27Y-2.2174
X3.27Y-2.4214
X3.27Y-2.5214
X3.27Y-2.7214
X3.27Y-2.8214
X3.27Y-3.0214
X3.27Y-3.1214
X3.27Y-3.3214
X3.27Y-3.4214
X3.27Y-3.6214
X3.27Y-3.7214
X3.27Y-3.9214
X3.27Y-4.0214
X3.27Y-4.2214
X3.27Y-4.3214
X3.27Y-4.6135
X3.27Y-4.7135
X3.27Y-4.9174
X3.27Y-5.0174
X3.37Y-2.2174
X3.37Y-2.5214
X3.37Y-2.8214
X3.37Y-3.1214
X3.37Y-3.4214
X3.37Y-3.7214
X3.37Y-4.0214
X3.37Y-4.3214
X3.37Y-4.7135
X3.37Y-5.0174
X3.47Y-2.1174
X3.47Y-2.4214
X3.47Y-2.7214
X3.47Y-3.0214
X3.47Y-3.3214
X3.47Y-3.6214
X3.47Y-3.9214
X3.47Y-4.2214
X3.47Y-4.6135
X3.47Y-4.9174
X3.57Y-2.1174
X3.57Y-2.4214
X3.57Y-2.7214
X3.57Y-3.0214
X3.57Y-3.3214
X3.57Y-3.6214
X3.57Y-3.9214
X3.57Y-4.2214
X3.57Y-4.6135
X3.57Y-4.9174
X3.77Y-2.1174
X3.77Y-2.4214
X3.77Y-2.7214
X3.77Y-3.0214
X3.77Y-3.3214
X3.77Y-3.6214
X3.77Y-3.9214
X3.77Y-4.2214
X3.77Y-4.6135
X3.77Y-4.9174
X4.42Y-2.6497
X4.42Y-3.0497
X4.42Y-3.9503
X4.42Y-4.3503
X5.07Y-2.6503
X5.07Y-3.0503
X5.07Y-3.9497
X5.07Y-4.3497
X5.72Y-3.9497
X5.72Y-4.3497
X6.37Y-2.6503
X6.37Y-3.0503
X6.37Y-3.9503
X6.37Y-4.3503
X7.02Y-2.6503
X7.02Y-3.0503
X7.02Y-3.9503
X7.02Y-4.3503
X7.67Y-2.6503
X7.67Y-3.0503
X7.67Y-3.9503
X7.67Y-4.3503
X8.32Y-2.6503
X8.32Y-3.0503
X8.32Y-3.9503
X8.32Y-4.3503
T3
X2.395Y-2.8483
X2.395Y-2.9483
X2.395Y-3.0483
X2.395Y-3.1483
X2.395Y-3.2483
X2.395Y-3.3483
X2.395Y-3.4483
X2.395Y-3.9483
X2.395Y-4.0483
X2.395Y-4.1483
X2.395Y-4.2483
X2.395Y-4.3483
X2.395Y-4.4483
X2.395Y-4.5483
X2.3954Y-1.7731
X2.3954Y-1.8731
X2.3954Y-1.9731
X2.3954Y-2.0731
X2.3954Y-2.1731
X2.3954Y-2.2731
X2.3954Y-2.3731
X2.3954Y-5.0481
X2.3954Y-5.1481
X2.3954Y-5.2481
X2.3954Y-5.3481
X2.3954Y-5.4481
X2.3954Y-5.5481
X2.3954Y-5.6481
X2.695Y-2.8483
X2.695Y-2.9483
X2.695Y-3.0483
X2.695Y-3.1483
X2.695Y-3.2483
X2.695Y-3.3483
X2.695Y-3.4483
X2.695Y-3.9483
X2.695Y-4.0483
X2.695Y-4.1483
X2.695Y-4.2483
X2.695Y-4.3483
X2.695Y-4.4483
X2.695Y-4.5483
X2.6954Y-1.7731
X2.6954Y-1.8731
X2.6954Y-1.9731
X2.6954Y-2.0731
X2.6954Y-2.1731
X2.6954Y-2.2731
X2.6954Y-2.3731
X2.6954Y-5.0481
X2.6954Y-5.1481
X2.6954Y-5.2481
X2.6954Y-5.3481
X2.6954Y-5.4481
X2.6954Y-5.5481
X2.6954Y-5.6481
X3.945Y-3.0501
X3.945Y-3.1501
X3.945Y-3.2501
X3.945Y-3.3501
X3.945Y-3.4501
X3.945Y-3.5501
X3.945Y-3.6501
X3.945Y-3.7501
X3.945Y-3.8501
X3.945Y-3.9501
X4.245Y-3.0501
X4.245Y-3.1501
X4.245Y-3.2501
X4.245Y-3.3501
X4.245Y-3.4501
X4.245Y-3.5501
X4.245Y-3.6501
X4.245Y-3.7501
X4.245Y-3.8501
X4.245Y-3.9501
X4.4946Y-1.8499
X4.4946Y-2.1499
X4.5946Y-1.8499
X4.5946Y-2.1499
X4.6946Y-1.8499
X4.6946Y-2.1499
X4.7946Y-1.8499
X4.7946Y-2.1499
X4.8946Y-1.8499
X4.8946Y-2.1499
X4.9946Y-1.8499
X4.9946Y-2.1499
X5.0706Y-5.5499
X5.0706Y-5.8499
X5.0946Y-1.8499
X5.0946Y-2.1499
X5.1706Y-5.5499
X5.1706Y-5.8499
X5.2706Y-5.5499
X5.2706Y-5.8499
X5.3706Y-5.5499
X5.3706Y-5.8499
X5.4194Y-1.8501
X5.4194Y-2.1501
X5.4706Y-5.5499
X5.4706Y-5.8499
X5.5194Y-1.8501
X5.5194Y-2.1501
X5.5706Y-5.5499
X5.5706Y-5.8499
X5.6194Y-1.8501
X5.6194Y-2.1501
X5.6706Y-5.5499
X5.6706Y-5.8499
X5.7194Y-1.8501
X5.7194Y-2.1501
X5.7706Y-5.5499
X5.7706Y-5.8499
X5.8194Y-1.8501
X5.8194Y-2.1501
X5.9194Y-1.8501
X5.9194Y-2.1501
X6.0194Y-1.8501
X6.0194Y-2.1501
X6.02Y-5.5499
X6.02Y-5.8499
X6.12Y-5.5499
X6.12Y-5.8499
X6.22Y-5.5499
X6.22Y-5.8499
X6.32Y-5.5499
X6.32Y-5.8499
X6.3946Y-1.6501
X6.3946Y-1.7501
X6.3946Y-1.8501
X6.3946Y-1.9501
X6.3946Y-2.0501
X6.3946Y-2.1501
X6.3946Y-2.2501
X6.42Y-5.5499
X6.42Y-5.8499
X6.52Y-5.5499
X6.52Y-5.8499
X6.62Y-5.5499
X6.62Y-5.8499
X6.6946Y-1.6501
X6.6946Y-1.7501
X6.6946Y-1.8501
X6.6946Y-1.9501
X6.6946Y-2.0501
X6.6946Y-2.1501
X6.6946Y-2.2501
X6.72Y-5.5499
X6.72Y-5.8499
X6.9706Y-5.5499
X6.9706Y-5.8499
X7.0706Y-5.5499
X7.0706Y-5.8499
X7.1198Y-1.7749
X7.1198Y-2.0749
X7.1706Y-5.5499
X7.1706Y-5.8499
X7.2198Y-1.7749
X7.2198Y-2.0749
X7.2706Y-5.5499
X7.2706Y-5.8499
X7.3198Y-1.7749
X7.3198Y-2.0749
X7.3706Y-5.5499
X7.3706Y-5.8499
X7.4198Y-1.7749
X7.4198Y-2.0749
X7.4706Y-5.5499
X7.4706Y-5.8499
X7.5198Y-1.7749
X7.5198Y-2.0749
X7.5706Y-5.5499
X7.5706Y-5.8499
X7.6198Y-1.7749
X7.6198Y-2.0749
X7.6706Y-5.5499
X7.6706Y-5.8499
X7.7198Y-1.7749
X7.7198Y-2.0749
X7.92Y-5.5503
X7.92Y-5.8503
X8.02Y-5.5503
X8.02Y-5.8503
X8.12Y-5.5503
X8.12Y-5.8503
X8.195Y-1.6503
X8.195Y-1.7503
X8.195Y-1.8503
X8.195Y-1.9503
X8.195Y-2.0503
X8.195Y-2.1503
X8.195Y-2.2503
X8.22Y-5.5503
X8.22Y-5.8503
X8.32Y-5.5503
X8.32Y-5.8503
X8.42Y-5.5503
X8.42Y-5.8503
X8.495Y-1.6503
X8.495Y-1.7503
X8.495Y-1.8503
X8.495Y-1.9503
X8.495Y-2.0503
X8.495Y-2.1503
X8.495Y-2.2503
X8.52Y-5.5503
X8.52Y-5.8503
X8.62Y-5.5503
X8.62Y-5.8503
T4
X3.4822Y-1.8251
X3.5822Y-1.8251
X3.6822Y-1.8251
X3.7822Y-1.8251
X3.8822Y-1.8251
X3.9822Y-1.8251
X4.0822Y-1.8251
X4.62Y-2.9497
X4.62Y-3.0497
X4.62Y-3.1497
X4.62Y-3.2497
X4.62Y-3.3497
X4.62Y-3.4497
X4.62Y-3.5497
X4.62Y-3.6497
X4.62Y-3.7497
X4.62Y-3.8497
X4.62Y-3.9497
X4.62Y-4.0497
X4.62Y-4.1497
X4.62Y-4.2497
X4.62Y-4.3497
X4.62Y-4.4497
X4.62Y-4.5497
X4.62Y-4.6497
X4.62Y-4.7497
X4.62Y-4.8497
X4.62Y-4.9497
X4.62Y-5.0497
X4.62Y-5.1497
X4.62Y-5.2503
X4.62Y-5.3503
X4.62Y-5.4503
X4.62Y-5.5503
X4.62Y-5.6503
X4.62Y-5.7503
X4.62Y-5.8503
X4.62Y-5.9503
X4.62Y-6.0503
X4.62Y-6.1503
X4.62Y-6.2503
X5.27Y-2.9503
X5.27Y-3.0503
X5.27Y-3.1503
X5.27Y-3.2503
X5.27Y-3.3503
X5.27Y-3.4503
X5.27Y-3.5503
X5.27Y-3.6503
X5.27Y-3.7503
X5.27Y-3.8503
X5.27Y-3.9503
X5.27Y-4.0503
X5.27Y-4.1503
X5.27Y-4.2503
X5.27Y-4.3503
X5.27Y-4.4503
X5.27Y-4.5503
X5.27Y-4.6503
X5.27Y-4.7503
X5.27Y-4.8503
X5.27Y-4.9503
X5.27Y-5.0503
X5.27Y-5.1503
X5.92Y-2.9497
X5.92Y-3.0497
X5.92Y-3.1497
X5.92Y-3.2497
X5.92Y-3.3497
X5.92Y-3.4497
X5.92Y-3.5497
X5.92Y-3.6497
X5.92Y-3.7497
X5.92Y-3.8497
X5.92Y-3.9497
X5.92Y-4.0497
X5.92Y-4.1497
X5.92Y-4.2497
X5.92Y-4.3497
X5.92Y-4.4497
X5.92Y-4.5497
X5.92Y-4.6497
X5.92Y-4.7497
X5.92Y-4.8497
X5.92Y-4.9497
X5.92Y-5.0497
X5.92Y-5.1497
X6.57Y-2.9503
X6.57Y-3.0503
X6.57Y-3.1503
X6.57Y-3.2503
X6.57Y-3.3503
X6.57Y-3.4503
X6.57Y-3.5503
X6.57Y-3.6503
X6.57Y-3.7503
X6.57Y-3.8503
X6.57Y-3.9503
X6.57Y-4.0503
X6.57Y-4.1503
X6.57Y-4.2503
X6.57Y-4.3503
X6.57Y-4.4503
X6.57Y-4.5503
X6.57Y-4.6503
X6.57Y-4.7503
X6.57Y-4.8503
X6.57Y-4.9503
X6.57Y-5.0503
X6.57Y-5.1503
X7.22Y-2.9503
X7.22Y-3.0503
X7.22Y-3.1503
X7.22Y-3.2503
X7.22Y-3.3503
X7.22Y-3.4503
X7.22Y-3.5503
X7.22Y-3.6503
X7.22Y-3.7503
X7.22Y-3.8503
X7.22Y-3.9503
X7.22Y-4.0503
X7.22Y-4.1503
X7.22Y-4.2503
X7.22Y-4.3503
X7.22Y-4.4503
X7.22Y-4.5503
X7.22Y-4.6503
X7.22Y-4.7503
X7.22Y-4.8503
X7.22Y-4.9503
X7.22Y-5.0503
X7.22Y-5.1503
X7.87Y-2.9503
X7.87Y-3.0503
X7.87Y-3.1503
X7.87Y-3.2503
X7.87Y-3.3503
X7.87Y-3.4503
X7.87Y-3.5503
X7.87Y-3.6503
X7.87Y-3.7503
X7.87Y-3.8503
X7.87Y-3.9503
X7.87Y-4.0503
X7.87Y-4.1503
X7.87Y-4.2503
X7.87Y-4.3503
X7.87Y-4.4503
X7.87Y-4.5503
X7.87Y-4.6503
X7.87Y-4.7503
X7.87Y-4.8503
X7.87Y-4.9503
X7.87Y-5.0503
X7.87Y-5.1503
X8.52Y-2.9503
X8.52Y-3.0503
X8.52Y-3.1503
X8.52Y-3.2503
X8.52Y-3.3503
X8.52Y-3.4503
X8.52Y-3.5503
X8.52Y-3.6503
X8.52Y-3.7503
X8.52Y-3.8503
X8.52Y-3.9503
X8.52Y-4.0503
X8.52Y-4.1503
X8.52Y-4.2503
X8.52Y-4.3503
X8.52Y-4.4503
X8.52Y-4.5503
X8.52Y-4.6503
X8.52Y-4.7503
X8.52Y-4.8503
X8.52Y-4.9503
X8.52Y-5.0503
X8.52Y-5.1503
T5
X4.1922Y-4.8801
X4.1922Y-4.9801
X4.1922Y-5.0801
T4
G00X3.8851Y-5.7639
M15
G01X3.9639Y-5.7639
M16
G05
G00X3.8851Y-6.0001
M15
G01X3.9639Y-6.0001
M16
G05
G00X4.1095Y-5.9214
M15
G01X4.1095Y-5.8426
M16
G05
M30
