%TF.GenerationSoftware,KiCad,Pcbnew,8.0.2-1*%
%TF.CreationDate,2024-08-04T14:30:48-04:00*%
%TF.ProjectId,bus,6275732e-6b69-4636-9164-5f7063625858,rev?*%
%TF.SameCoordinates,Original*%
%TF.FileFunction,Soldermask,Top*%
%TF.FilePolarity,Negative*%
%FSLAX46Y46*%
G04 Gerber Fmt 4.6, Leading zero omitted, Abs format (unit mm)*
G04 Created by KiCad (PCBNEW 8.0.2-1) date 2024-08-04 14:30:48*
%MOMM*%
%LPD*%
G01*
G04 APERTURE LIST*
G04 Aperture macros list*
%AMRoundRect*
0 Rectangle with rounded corners*
0 $1 Rounding radius*
0 $2 $3 $4 $5 $6 $7 $8 $9 X,Y pos of 4 corners*
0 Add a 4 corners polygon primitive as box body*
4,1,4,$2,$3,$4,$5,$6,$7,$8,$9,$2,$3,0*
0 Add four circle primitives for the rounded corners*
1,1,$1+$1,$2,$3*
1,1,$1+$1,$4,$5*
1,1,$1+$1,$6,$7*
1,1,$1+$1,$8,$9*
0 Add four rect primitives between the rounded corners*
20,1,$1+$1,$2,$3,$4,$5,0*
20,1,$1+$1,$4,$5,$6,$7,0*
20,1,$1+$1,$6,$7,$8,$9,0*
20,1,$1+$1,$8,$9,$2,$3,0*%
G04 Aperture macros list end*
%ADD10C,1.524000*%
%ADD11R,1.600000X1.600000*%
%ADD12O,1.600000X1.600000*%
%ADD13R,1.700000X1.700000*%
%ADD14O,1.700000X1.700000*%
%ADD15R,3.500000X3.500000*%
%ADD16RoundRect,0.750000X1.000000X-0.750000X1.000000X0.750000X-1.000000X0.750000X-1.000000X-0.750000X0*%
%ADD17RoundRect,0.875000X0.875000X-0.875000X0.875000X0.875000X-0.875000X0.875000X-0.875000X-0.875000X0*%
%ADD18R,2.000000X1.905000*%
%ADD19O,2.000000X1.905000*%
G04 APERTURE END LIST*
D10*
%TO.C,R8*%
X178308000Y-100337500D03*
X178308000Y-110497500D03*
%TD*%
D11*
%TO.C,U9*%
X180843000Y-52702500D03*
D12*
X183383000Y-52702500D03*
X185923000Y-52702500D03*
X188463000Y-52702500D03*
X191003000Y-52702500D03*
X193543000Y-52702500D03*
X196083000Y-52702500D03*
X196083000Y-45082500D03*
X193543000Y-45082500D03*
X191003000Y-45082500D03*
X188463000Y-45082500D03*
X185923000Y-45082500D03*
X183383000Y-45082500D03*
X180843000Y-45082500D03*
%TD*%
D10*
%TO.C,R10*%
X194818000Y-100337500D03*
X194818000Y-110497500D03*
%TD*%
D13*
%TO.C,U6*%
X133858000Y-130817500D03*
D14*
X133858000Y-128277500D03*
X133858000Y-125737500D03*
X133858000Y-123197500D03*
X133858000Y-120657500D03*
X133858000Y-118117500D03*
X133858000Y-115577500D03*
X133858000Y-113037500D03*
X133858000Y-110497500D03*
X133858000Y-107957500D03*
X133858000Y-105417500D03*
X133858000Y-102877500D03*
X133858000Y-100337500D03*
X133858000Y-97797500D03*
X133858000Y-95257500D03*
X133858000Y-92717500D03*
X133858000Y-90177500D03*
X133858000Y-87637500D03*
X133858000Y-85097500D03*
X133858000Y-82557500D03*
X133858000Y-80017500D03*
X133858000Y-77477500D03*
X133858000Y-74937500D03*
%TD*%
D10*
%TO.C,U22*%
X83058000Y-107222500D03*
X88138000Y-107222500D03*
X83058000Y-109762500D03*
X85598000Y-109762500D03*
X90678000Y-107222500D03*
X95758000Y-107222500D03*
%TD*%
%TO.C,U33*%
X83058000Y-61502500D03*
X88138000Y-61502500D03*
X83058000Y-64042500D03*
X85598000Y-64042500D03*
X90678000Y-61502500D03*
X95758000Y-61502500D03*
%TD*%
%TO.C,U26*%
X83058000Y-117182500D03*
X88138000Y-117182500D03*
X83058000Y-119722500D03*
X85598000Y-119722500D03*
X90678000Y-117182500D03*
X95758000Y-117182500D03*
%TD*%
D13*
%TO.C,U3*%
X183388000Y-130817500D03*
D14*
X183388000Y-128277500D03*
X183388000Y-125737500D03*
X183388000Y-123197500D03*
X183388000Y-120657500D03*
X183388000Y-118117500D03*
X183388000Y-115577500D03*
X183388000Y-113037500D03*
X183388000Y-110497500D03*
X183388000Y-107957500D03*
X183388000Y-105417500D03*
X183388000Y-102877500D03*
X183388000Y-100337500D03*
X183388000Y-97797500D03*
X183388000Y-95257500D03*
X183388000Y-92717500D03*
X183388000Y-90177500D03*
X183388000Y-87637500D03*
X183388000Y-85097500D03*
X183388000Y-82557500D03*
X183388000Y-80017500D03*
X183388000Y-77477500D03*
X183388000Y-74937500D03*
%TD*%
D11*
%TO.C,U23*%
X137653000Y-54612500D03*
D12*
X140193000Y-54612500D03*
X142733000Y-54612500D03*
X145273000Y-54612500D03*
X147813000Y-54612500D03*
X150353000Y-54612500D03*
X152893000Y-54612500D03*
X152893000Y-46992500D03*
X150353000Y-46992500D03*
X147813000Y-46992500D03*
X145273000Y-46992500D03*
X142733000Y-46992500D03*
X140193000Y-46992500D03*
X137653000Y-46992500D03*
%TD*%
D11*
%TO.C,U28*%
X68453000Y-87587500D03*
D12*
X68453000Y-85047500D03*
X68453000Y-82507500D03*
X68453000Y-79967500D03*
X68453000Y-77427500D03*
X68453000Y-74887500D03*
X68453000Y-72347500D03*
X60833000Y-72347500D03*
X60833000Y-74887500D03*
X60833000Y-77427500D03*
X60833000Y-79967500D03*
X60833000Y-82507500D03*
X60833000Y-85047500D03*
X60833000Y-87587500D03*
%TD*%
D13*
%TO.C,U34*%
X88448000Y-46357500D03*
D14*
X90988000Y-46357500D03*
X93528000Y-46357500D03*
X96068000Y-46357500D03*
X98608000Y-46357500D03*
X101148000Y-46357500D03*
X103688000Y-46357500D03*
%TD*%
D10*
%TO.C,R6*%
X161798000Y-100337500D03*
X161798000Y-110497500D03*
%TD*%
%TO.C,R4*%
X112268000Y-100337500D03*
X112268000Y-110497500D03*
%TD*%
D11*
%TO.C,U31*%
X68453000Y-115527500D03*
D12*
X68453000Y-112987500D03*
X68453000Y-110447500D03*
X68453000Y-107907500D03*
X68453000Y-105367500D03*
X68453000Y-102827500D03*
X68453000Y-100287500D03*
X60833000Y-100287500D03*
X60833000Y-102827500D03*
X60833000Y-105367500D03*
X60833000Y-107907500D03*
X60833000Y-110447500D03*
X60833000Y-112987500D03*
X60833000Y-115527500D03*
%TD*%
D13*
%TO.C,U7*%
X117348000Y-130802500D03*
D14*
X117348000Y-128262500D03*
X117348000Y-125722500D03*
X117348000Y-123182500D03*
X117348000Y-120642500D03*
X117348000Y-118102500D03*
X117348000Y-115562500D03*
X117348000Y-113022500D03*
X117348000Y-110482500D03*
X117348000Y-107942500D03*
X117348000Y-105402500D03*
X117348000Y-102862500D03*
X117348000Y-100322500D03*
X117348000Y-97782500D03*
X117348000Y-95242500D03*
X117348000Y-92702500D03*
X117348000Y-90162500D03*
X117348000Y-87622500D03*
X117348000Y-85082500D03*
X117348000Y-82542500D03*
X117348000Y-80002500D03*
X117348000Y-77462500D03*
X117348000Y-74922500D03*
%TD*%
D10*
%TO.C,U19*%
X83058000Y-84362500D03*
X88138000Y-84362500D03*
X83058000Y-86902500D03*
X85598000Y-86902500D03*
X90678000Y-84362500D03*
X95758000Y-84362500D03*
%TD*%
D11*
%TO.C,U15*%
X107823000Y-100332500D03*
D12*
X107823000Y-97792500D03*
X107823000Y-95252500D03*
X107823000Y-92712500D03*
X107823000Y-90172500D03*
X107823000Y-87632500D03*
X107823000Y-85092500D03*
X107823000Y-82552500D03*
X107823000Y-80012500D03*
X107823000Y-77472500D03*
X100203000Y-77472500D03*
X100203000Y-80012500D03*
X100203000Y-82552500D03*
X100203000Y-85092500D03*
X100203000Y-87632500D03*
X100203000Y-90172500D03*
X100203000Y-92712500D03*
X100203000Y-95252500D03*
X100203000Y-97792500D03*
X100203000Y-100332500D03*
%TD*%
D10*
%TO.C,U20*%
X83058000Y-91982500D03*
X88138000Y-91982500D03*
X83058000Y-94522500D03*
X85598000Y-94522500D03*
X90678000Y-91982500D03*
X95758000Y-91982500D03*
%TD*%
D11*
%TO.C,U13*%
X201168000Y-148597500D03*
D12*
X203708000Y-148597500D03*
X206248000Y-148597500D03*
X208788000Y-148597500D03*
X211328000Y-148597500D03*
X213868000Y-148597500D03*
X216408000Y-148597500D03*
X218948000Y-148597500D03*
X218948000Y-140977500D03*
X216408000Y-140977500D03*
X213868000Y-140977500D03*
X211328000Y-140977500D03*
X208788000Y-140977500D03*
X206248000Y-140977500D03*
X203708000Y-140977500D03*
X201168000Y-140977500D03*
%TD*%
D11*
%TO.C,U11*%
X152908000Y-148587500D03*
D12*
X155448000Y-148587500D03*
X157988000Y-148587500D03*
X160528000Y-148587500D03*
X163068000Y-148587500D03*
X165608000Y-148587500D03*
X168148000Y-148587500D03*
X170688000Y-148587500D03*
X170688000Y-140967500D03*
X168148000Y-140967500D03*
X165608000Y-140967500D03*
X163068000Y-140967500D03*
X160528000Y-140967500D03*
X157988000Y-140967500D03*
X155448000Y-140967500D03*
X152908000Y-140967500D03*
%TD*%
D10*
%TO.C,R11*%
X194818000Y-77477500D03*
X194818000Y-67317500D03*
%TD*%
D15*
%TO.C,J1*%
X99682500Y-146402500D03*
D16*
X99682500Y-152402500D03*
D17*
X104382500Y-149402500D03*
%TD*%
D10*
%TO.C,U27*%
X83058000Y-124902500D03*
X88138000Y-124902500D03*
X83058000Y-127442500D03*
X85598000Y-127442500D03*
X90678000Y-124902500D03*
X95758000Y-124902500D03*
%TD*%
%TO.C,R9*%
X178308000Y-77477500D03*
X178308000Y-67317500D03*
%TD*%
D13*
%TO.C,U5*%
X150368000Y-130802500D03*
D14*
X150368000Y-128262500D03*
X150368000Y-125722500D03*
X150368000Y-123182500D03*
X150368000Y-120642500D03*
X150368000Y-118102500D03*
X150368000Y-115562500D03*
X150368000Y-113022500D03*
X150368000Y-110482500D03*
X150368000Y-107942500D03*
X150368000Y-105402500D03*
X150368000Y-102862500D03*
X150368000Y-100322500D03*
X150368000Y-97782500D03*
X150368000Y-95242500D03*
X150368000Y-92702500D03*
X150368000Y-90162500D03*
X150368000Y-87622500D03*
X150368000Y-85082500D03*
X150368000Y-82542500D03*
X150368000Y-80002500D03*
X150368000Y-77462500D03*
X150368000Y-74922500D03*
%TD*%
D10*
%TO.C,R7*%
X161798000Y-77477500D03*
X161798000Y-67317500D03*
%TD*%
%TO.C,R14*%
X211328000Y-77477500D03*
X211328000Y-67317500D03*
%TD*%
D11*
%TO.C,U10*%
X177053000Y-148587500D03*
D12*
X179593000Y-148587500D03*
X182133000Y-148587500D03*
X184673000Y-148587500D03*
X187213000Y-148587500D03*
X189753000Y-148587500D03*
X192293000Y-148587500D03*
X194833000Y-148587500D03*
X194833000Y-140967500D03*
X192293000Y-140967500D03*
X189753000Y-140967500D03*
X187213000Y-140967500D03*
X184673000Y-140967500D03*
X182133000Y-140967500D03*
X179593000Y-140967500D03*
X177053000Y-140967500D03*
%TD*%
D11*
%TO.C,U25*%
X208153000Y-41917500D03*
D12*
X208153000Y-44457500D03*
X208153000Y-46997500D03*
X208153000Y-49537500D03*
X208153000Y-52077500D03*
X208153000Y-54617500D03*
X208153000Y-57157500D03*
X215773000Y-57157500D03*
X215773000Y-54617500D03*
X215773000Y-52077500D03*
X215773000Y-49537500D03*
X215773000Y-46997500D03*
X215773000Y-44457500D03*
X215773000Y-41917500D03*
%TD*%
D11*
%TO.C,U16*%
X114163000Y-54607500D03*
D12*
X116703000Y-54607500D03*
X119243000Y-54607500D03*
X121783000Y-54607500D03*
X124323000Y-54607500D03*
X126863000Y-54607500D03*
X129403000Y-54607500D03*
X129403000Y-46987500D03*
X126863000Y-46987500D03*
X124323000Y-46987500D03*
X121783000Y-46987500D03*
X119243000Y-46987500D03*
X116703000Y-46987500D03*
X114163000Y-46987500D03*
%TD*%
D10*
%TO.C,R1*%
X112268000Y-77462500D03*
X112268000Y-67302500D03*
%TD*%
D13*
%TO.C,U2*%
X199898000Y-130817500D03*
D14*
X199898000Y-128277500D03*
X199898000Y-125737500D03*
X199898000Y-123197500D03*
X199898000Y-120657500D03*
X199898000Y-118117500D03*
X199898000Y-115577500D03*
X199898000Y-113037500D03*
X199898000Y-110497500D03*
X199898000Y-107957500D03*
X199898000Y-105417500D03*
X199898000Y-102877500D03*
X199898000Y-100337500D03*
X199898000Y-97797500D03*
X199898000Y-95257500D03*
X199898000Y-92717500D03*
X199898000Y-90177500D03*
X199898000Y-87637500D03*
X199898000Y-85097500D03*
X199898000Y-82557500D03*
X199898000Y-80017500D03*
X199898000Y-77477500D03*
X199898000Y-74937500D03*
%TD*%
D10*
%TO.C,R3*%
X128778000Y-77477500D03*
X128778000Y-67317500D03*
%TD*%
D13*
%TO.C,U4*%
X166878000Y-130817500D03*
D14*
X166878000Y-128277500D03*
X166878000Y-125737500D03*
X166878000Y-123197500D03*
X166878000Y-120657500D03*
X166878000Y-118117500D03*
X166878000Y-115577500D03*
X166878000Y-113037500D03*
X166878000Y-110497500D03*
X166878000Y-107957500D03*
X166878000Y-105417500D03*
X166878000Y-102877500D03*
X166878000Y-100337500D03*
X166878000Y-97797500D03*
X166878000Y-95257500D03*
X166878000Y-92717500D03*
X166878000Y-90177500D03*
X166878000Y-87637500D03*
X166878000Y-85097500D03*
X166878000Y-82557500D03*
X166878000Y-80017500D03*
X166878000Y-77477500D03*
X166878000Y-74937500D03*
%TD*%
D10*
%TO.C,R5*%
X145288000Y-100322500D03*
X145288000Y-110482500D03*
%TD*%
%TO.C,R2*%
X128778000Y-100322500D03*
X128778000Y-110482500D03*
%TD*%
%TO.C,R13*%
X211328000Y-100337500D03*
X211328000Y-110497500D03*
%TD*%
D11*
%TO.C,U30*%
X60843000Y-45037500D03*
D12*
X60843000Y-47577500D03*
X60843000Y-50117500D03*
X60843000Y-52657500D03*
X60843000Y-55197500D03*
X60843000Y-57737500D03*
X60843000Y-60277500D03*
X68463000Y-60277500D03*
X68463000Y-57737500D03*
X68463000Y-55197500D03*
X68463000Y-52657500D03*
X68463000Y-50117500D03*
X68463000Y-47577500D03*
X68463000Y-45037500D03*
%TD*%
D11*
%TO.C,U14*%
X68463000Y-143462500D03*
D12*
X68463000Y-140922500D03*
X68463000Y-138382500D03*
X68463000Y-135842500D03*
X68463000Y-133302500D03*
X68463000Y-130762500D03*
X68463000Y-128222500D03*
X60843000Y-128222500D03*
X60843000Y-130762500D03*
X60843000Y-133302500D03*
X60843000Y-135842500D03*
X60843000Y-138382500D03*
X60843000Y-140922500D03*
X60843000Y-143462500D03*
%TD*%
D11*
%TO.C,U8*%
X162423000Y-41912500D03*
D12*
X162423000Y-44452500D03*
X162423000Y-46992500D03*
X162423000Y-49532500D03*
X162423000Y-52072500D03*
X162423000Y-54612500D03*
X162423000Y-57152500D03*
X170043000Y-57152500D03*
X170043000Y-54612500D03*
X170043000Y-52072500D03*
X170043000Y-49532500D03*
X170043000Y-46992500D03*
X170043000Y-44452500D03*
X170043000Y-41912500D03*
%TD*%
D10*
%TO.C,U18*%
X83058000Y-76742500D03*
X88138000Y-76742500D03*
X83058000Y-79282500D03*
X85598000Y-79282500D03*
X90678000Y-76742500D03*
X95758000Y-76742500D03*
%TD*%
D18*
%TO.C,U29*%
X106482000Y-129034500D03*
D19*
X106482000Y-126494500D03*
X106482000Y-123954500D03*
%TD*%
D10*
%TO.C,U21*%
X83058000Y-99602500D03*
X88138000Y-99602500D03*
X83058000Y-102142500D03*
X85598000Y-102142500D03*
X90678000Y-99602500D03*
X95758000Y-99602500D03*
%TD*%
%TO.C,U32*%
X83058000Y-53782500D03*
X88138000Y-53782500D03*
X83058000Y-56322500D03*
X85598000Y-56322500D03*
X90678000Y-53782500D03*
X95758000Y-53782500D03*
%TD*%
D13*
%TO.C,U24*%
X216408000Y-130817500D03*
D14*
X216408000Y-128277500D03*
X216408000Y-125737500D03*
X216408000Y-123197500D03*
X216408000Y-120657500D03*
X216408000Y-118117500D03*
X216408000Y-115577500D03*
X216408000Y-113037500D03*
X216408000Y-110497500D03*
X216408000Y-107957500D03*
X216408000Y-105417500D03*
X216408000Y-102877500D03*
X216408000Y-100337500D03*
X216408000Y-97797500D03*
X216408000Y-95257500D03*
X216408000Y-92717500D03*
X216408000Y-90177500D03*
X216408000Y-87637500D03*
X216408000Y-85097500D03*
X216408000Y-82557500D03*
X216408000Y-80017500D03*
X216408000Y-77477500D03*
X216408000Y-74937500D03*
%TD*%
D10*
%TO.C,U17*%
X83058000Y-69122500D03*
X88138000Y-69122500D03*
X83058000Y-71662500D03*
X85598000Y-71662500D03*
X90678000Y-69122500D03*
X95758000Y-69122500D03*
%TD*%
D11*
%TO.C,U12*%
X128793000Y-148587500D03*
D12*
X131333000Y-148587500D03*
X133873000Y-148587500D03*
X136413000Y-148587500D03*
X138953000Y-148587500D03*
X141493000Y-148587500D03*
X144033000Y-148587500D03*
X146573000Y-148587500D03*
X146573000Y-140967500D03*
X144033000Y-140967500D03*
X141493000Y-140967500D03*
X138953000Y-140967500D03*
X136413000Y-140967500D03*
X133873000Y-140967500D03*
X131333000Y-140967500D03*
X128793000Y-140967500D03*
%TD*%
D13*
%TO.C,U1*%
X117348000Y-133357500D03*
D14*
X117348000Y-135897500D03*
X117348000Y-138437500D03*
X117348000Y-140977500D03*
X117348000Y-143517500D03*
X117348000Y-146057500D03*
X117348000Y-148597500D03*
X117348000Y-151137500D03*
X117348000Y-153677500D03*
X117348000Y-156217500D03*
X117348000Y-158757500D03*
%TD*%
M02*
