%TF.GenerationSoftware,KiCad,Pcbnew,8.0.2-1*%
%TF.CreationDate,2024-06-24T15:07:34-04:00*%
%TF.ProjectId,stack_controller,73746163-6b5f-4636-9f6e-74726f6c6c65,rev?*%
%TF.SameCoordinates,Original*%
%TF.FileFunction,Soldermask,Bot*%
%TF.FilePolarity,Negative*%
%FSLAX46Y46*%
G04 Gerber Fmt 4.6, Leading zero omitted, Abs format (unit mm)*
G04 Created by KiCad (PCBNEW 8.0.2-1) date 2024-06-24 15:07:34*
%MOMM*%
%LPD*%
G01*
G04 APERTURE LIST*
%ADD10C,1.524000*%
%ADD11R,1.600000X1.600000*%
%ADD12O,1.600000X1.600000*%
%ADD13R,1.700000X1.700000*%
%ADD14O,1.700000X1.700000*%
G04 APERTURE END LIST*
D10*
%TO.C,U40*%
X171450000Y-121977000D03*
X176530000Y-121977000D03*
X171450000Y-124517000D03*
X173990000Y-124517000D03*
X179070000Y-121977000D03*
X184150000Y-121977000D03*
%TD*%
%TO.C,U44*%
X171370000Y-153107000D03*
X176450000Y-153107000D03*
X171370000Y-155647000D03*
X173910000Y-155647000D03*
X178990000Y-153107000D03*
X184070000Y-153107000D03*
%TD*%
D11*
%TO.C,U15*%
X84500000Y-78342000D03*
D12*
X84500000Y-80882000D03*
X84500000Y-83422000D03*
X84500000Y-85962000D03*
X84500000Y-88502000D03*
X84500000Y-91042000D03*
X84500000Y-93582000D03*
X84500000Y-96122000D03*
X92120000Y-96122000D03*
X92120000Y-93582000D03*
X92120000Y-91042000D03*
X92120000Y-88502000D03*
X92120000Y-85962000D03*
X92120000Y-83422000D03*
X92120000Y-80882000D03*
X92120000Y-78342000D03*
%TD*%
D11*
%TO.C,U8*%
X65420000Y-27597000D03*
D12*
X62880000Y-27597000D03*
X60340000Y-27597000D03*
X57800000Y-27597000D03*
X55260000Y-27597000D03*
X52720000Y-27597000D03*
X50180000Y-27597000D03*
X47640000Y-27597000D03*
X45100000Y-27597000D03*
X42560000Y-27597000D03*
X42560000Y-35217000D03*
X45100000Y-35217000D03*
X47640000Y-35217000D03*
X50180000Y-35217000D03*
X52720000Y-35217000D03*
X55260000Y-35217000D03*
X57800000Y-35217000D03*
X60340000Y-35217000D03*
X62880000Y-35217000D03*
X65420000Y-35217000D03*
%TD*%
D11*
%TO.C,U11*%
X199460000Y-60477000D03*
D12*
X196920000Y-60477000D03*
X194380000Y-60477000D03*
X191840000Y-60477000D03*
X189300000Y-60477000D03*
X186760000Y-60477000D03*
X184220000Y-60477000D03*
X181680000Y-60477000D03*
X179140000Y-60477000D03*
X176600000Y-60477000D03*
X174060000Y-60477000D03*
X171520000Y-60477000D03*
X168980000Y-60477000D03*
X166440000Y-60477000D03*
X166440000Y-75717000D03*
X168980000Y-75717000D03*
X171520000Y-75717000D03*
X174060000Y-75717000D03*
X176600000Y-75717000D03*
X179140000Y-75717000D03*
X181680000Y-75717000D03*
X184220000Y-75717000D03*
X186760000Y-75717000D03*
X189300000Y-75717000D03*
X191840000Y-75717000D03*
X194380000Y-75717000D03*
X196920000Y-75717000D03*
X199460000Y-75717000D03*
%TD*%
D11*
%TO.C,U24*%
X55180000Y-120177000D03*
D12*
X55180000Y-122717000D03*
X55180000Y-125257000D03*
X55180000Y-127797000D03*
X55180000Y-130337000D03*
X55180000Y-132877000D03*
X55180000Y-135417000D03*
X62800000Y-135417000D03*
X62800000Y-132877000D03*
X62800000Y-130337000D03*
X62800000Y-127797000D03*
X62800000Y-125257000D03*
X62800000Y-122717000D03*
X62800000Y-120177000D03*
%TD*%
D11*
%TO.C,U23*%
X187925000Y-32017000D03*
D12*
X190465000Y-32017000D03*
X193005000Y-32017000D03*
X195545000Y-32017000D03*
X198085000Y-32017000D03*
X200625000Y-32017000D03*
X203165000Y-32017000D03*
X205705000Y-32017000D03*
X205705000Y-24397000D03*
X203165000Y-24397000D03*
X200625000Y-24397000D03*
X198085000Y-24397000D03*
X195545000Y-24397000D03*
X193005000Y-24397000D03*
X190465000Y-24397000D03*
X187925000Y-24397000D03*
%TD*%
D11*
%TO.C,U4*%
X63500000Y-72842000D03*
D12*
X63500000Y-75382000D03*
X63500000Y-77922000D03*
X63500000Y-80462000D03*
X63500000Y-83002000D03*
X63500000Y-85542000D03*
X63500000Y-88082000D03*
X63500000Y-90622000D03*
X71120000Y-90622000D03*
X71120000Y-88082000D03*
X71120000Y-85542000D03*
X71120000Y-83002000D03*
X71120000Y-80462000D03*
X71120000Y-77922000D03*
X71120000Y-75382000D03*
X71120000Y-72842000D03*
%TD*%
D11*
%TO.C,U10*%
X236920000Y-60477000D03*
D12*
X234380000Y-60477000D03*
X231840000Y-60477000D03*
X229300000Y-60477000D03*
X226760000Y-60477000D03*
X224220000Y-60477000D03*
X221680000Y-60477000D03*
X219140000Y-60477000D03*
X216600000Y-60477000D03*
X214060000Y-60477000D03*
X211520000Y-60477000D03*
X208980000Y-60477000D03*
X206440000Y-60477000D03*
X203900000Y-60477000D03*
X203900000Y-75717000D03*
X206440000Y-75717000D03*
X208980000Y-75717000D03*
X211520000Y-75717000D03*
X214060000Y-75717000D03*
X216600000Y-75717000D03*
X219140000Y-75717000D03*
X221680000Y-75717000D03*
X224220000Y-75717000D03*
X226760000Y-75717000D03*
X229300000Y-75717000D03*
X231840000Y-75717000D03*
X234380000Y-75717000D03*
X236920000Y-75717000D03*
%TD*%
D10*
%TO.C,U39*%
X171450000Y-113977000D03*
X176530000Y-113977000D03*
X171450000Y-116517000D03*
X173990000Y-116517000D03*
X179070000Y-113977000D03*
X184150000Y-113977000D03*
%TD*%
%TO.C,U37*%
X127220000Y-136977000D03*
X132300000Y-136977000D03*
X127220000Y-139517000D03*
X129760000Y-139517000D03*
X134840000Y-136977000D03*
X139920000Y-136977000D03*
%TD*%
D11*
%TO.C,U2*%
X85500000Y-25342000D03*
D12*
X85500000Y-27882000D03*
X85500000Y-30422000D03*
X85500000Y-32962000D03*
X85500000Y-35502000D03*
X85500000Y-38042000D03*
X85500000Y-40582000D03*
X85500000Y-43122000D03*
X93120000Y-43122000D03*
X93120000Y-40582000D03*
X93120000Y-38042000D03*
X93120000Y-35502000D03*
X93120000Y-32962000D03*
X93120000Y-30422000D03*
X93120000Y-27882000D03*
X93120000Y-25342000D03*
%TD*%
D11*
%TO.C,U25*%
X73180000Y-116057000D03*
D12*
X73180000Y-118597000D03*
X73180000Y-121137000D03*
X73180000Y-123677000D03*
X73180000Y-126217000D03*
X73180000Y-128757000D03*
X73180000Y-131297000D03*
X80800000Y-131297000D03*
X80800000Y-128757000D03*
X80800000Y-126217000D03*
X80800000Y-123677000D03*
X80800000Y-121137000D03*
X80800000Y-118597000D03*
X80800000Y-116057000D03*
%TD*%
D11*
%TO.C,U13*%
X217800000Y-116057000D03*
D12*
X217800000Y-118597000D03*
X217800000Y-121137000D03*
X217800000Y-123677000D03*
X217800000Y-126217000D03*
X217800000Y-128757000D03*
X217800000Y-131297000D03*
X225420000Y-131297000D03*
X225420000Y-128757000D03*
X225420000Y-126217000D03*
X225420000Y-123677000D03*
X225420000Y-121137000D03*
X225420000Y-118597000D03*
X225420000Y-116057000D03*
%TD*%
D11*
%TO.C,U14*%
X42800000Y-72017000D03*
D12*
X42800000Y-74557000D03*
X42800000Y-77097000D03*
X42800000Y-79637000D03*
X42800000Y-82177000D03*
X42800000Y-84717000D03*
X42800000Y-87257000D03*
X42800000Y-89797000D03*
X50420000Y-89797000D03*
X50420000Y-87257000D03*
X50420000Y-84717000D03*
X50420000Y-82177000D03*
X50420000Y-79637000D03*
X50420000Y-77097000D03*
X50420000Y-74557000D03*
X50420000Y-72017000D03*
%TD*%
D11*
%TO.C,U3*%
X52300000Y-61337000D03*
D12*
X52300000Y-58797000D03*
X52300000Y-56257000D03*
X52300000Y-53717000D03*
X52300000Y-51177000D03*
X52300000Y-48637000D03*
X52300000Y-46097000D03*
X52300000Y-43557000D03*
X44680000Y-43557000D03*
X44680000Y-46097000D03*
X44680000Y-48637000D03*
X44680000Y-51177000D03*
X44680000Y-53717000D03*
X44680000Y-56257000D03*
X44680000Y-58797000D03*
X44680000Y-61337000D03*
%TD*%
D13*
%TO.C,U5*%
X38800000Y-165197000D03*
D14*
X38800000Y-162657000D03*
X38800000Y-160117000D03*
X38800000Y-157577000D03*
X38800000Y-155037000D03*
X38800000Y-152497000D03*
X38800000Y-149957000D03*
X38800000Y-147417000D03*
X38800000Y-144877000D03*
X38800000Y-142337000D03*
X38800000Y-139797000D03*
X38800000Y-137257000D03*
X38800000Y-134717000D03*
X38800000Y-132177000D03*
X38800000Y-129637000D03*
X38800000Y-127097000D03*
X38800000Y-124557000D03*
X38800000Y-122017000D03*
X38800000Y-119477000D03*
X38800000Y-116937000D03*
X38800000Y-114397000D03*
X38800000Y-111857000D03*
X38800000Y-109317000D03*
%TD*%
D11*
%TO.C,U28*%
X92000000Y-116592000D03*
D12*
X92000000Y-119132000D03*
X92000000Y-121672000D03*
X92000000Y-124212000D03*
X92000000Y-126752000D03*
X92000000Y-129292000D03*
X92000000Y-131832000D03*
X99620000Y-131832000D03*
X99620000Y-129292000D03*
X99620000Y-126752000D03*
X99620000Y-124212000D03*
X99620000Y-121672000D03*
X99620000Y-119132000D03*
X99620000Y-116592000D03*
%TD*%
D11*
%TO.C,U1*%
X105500000Y-24842000D03*
D12*
X105500000Y-27382000D03*
X105500000Y-29922000D03*
X105500000Y-32462000D03*
X105500000Y-35002000D03*
X105500000Y-37542000D03*
X105500000Y-40082000D03*
X105500000Y-42622000D03*
X113120000Y-42622000D03*
X113120000Y-40082000D03*
X113120000Y-37542000D03*
X113120000Y-35002000D03*
X113120000Y-32462000D03*
X113120000Y-29922000D03*
X113120000Y-27382000D03*
X113120000Y-24842000D03*
%TD*%
D11*
%TO.C,U20*%
X136925000Y-67517000D03*
D12*
X139465000Y-67517000D03*
X142005000Y-67517000D03*
X144545000Y-67517000D03*
X147085000Y-67517000D03*
X149625000Y-67517000D03*
X152165000Y-67517000D03*
X154705000Y-67517000D03*
X154705000Y-59897000D03*
X152165000Y-59897000D03*
X149625000Y-59897000D03*
X147085000Y-59897000D03*
X144545000Y-59897000D03*
X142005000Y-59897000D03*
X139465000Y-59897000D03*
X136925000Y-59897000D03*
%TD*%
D11*
%TO.C,U47*%
X115000000Y-151092000D03*
D12*
X115000000Y-153632000D03*
X115000000Y-156172000D03*
X115000000Y-158712000D03*
X115000000Y-161252000D03*
X115000000Y-163792000D03*
X115000000Y-166332000D03*
X122620000Y-166332000D03*
X122620000Y-163792000D03*
X122620000Y-161252000D03*
X122620000Y-158712000D03*
X122620000Y-156172000D03*
X122620000Y-153632000D03*
X122620000Y-151092000D03*
%TD*%
D10*
%TO.C,U36*%
X127140000Y-128977000D03*
X132220000Y-128977000D03*
X127140000Y-131517000D03*
X129680000Y-131517000D03*
X134760000Y-128977000D03*
X139840000Y-128977000D03*
%TD*%
D11*
%TO.C,U6*%
X122500000Y-24792000D03*
D12*
X122500000Y-27332000D03*
X122500000Y-29872000D03*
X122500000Y-32412000D03*
X122500000Y-34952000D03*
X122500000Y-37492000D03*
X122500000Y-40032000D03*
X122500000Y-42572000D03*
X122500000Y-45112000D03*
X122500000Y-47652000D03*
X130120000Y-47652000D03*
X130120000Y-45112000D03*
X130120000Y-42572000D03*
X130120000Y-40032000D03*
X130120000Y-37492000D03*
X130120000Y-34952000D03*
X130120000Y-32412000D03*
X130120000Y-29872000D03*
X130120000Y-27332000D03*
X130120000Y-24792000D03*
%TD*%
D10*
%TO.C,U43*%
X171450000Y-145217000D03*
X176530000Y-145217000D03*
X171450000Y-147757000D03*
X173990000Y-147757000D03*
X179070000Y-145217000D03*
X184150000Y-145217000D03*
%TD*%
D11*
%TO.C,U21*%
X148425000Y-50517000D03*
D12*
X150965000Y-50517000D03*
X153505000Y-50517000D03*
X156045000Y-50517000D03*
X158585000Y-50517000D03*
X161125000Y-50517000D03*
X163665000Y-50517000D03*
X166205000Y-50517000D03*
X166205000Y-42897000D03*
X163665000Y-42897000D03*
X161125000Y-42897000D03*
X158585000Y-42897000D03*
X156045000Y-42897000D03*
X153505000Y-42897000D03*
X150965000Y-42897000D03*
X148425000Y-42897000D03*
%TD*%
D11*
%TO.C,U18*%
X43640000Y-106357000D03*
D12*
X46180000Y-106357000D03*
X48720000Y-106357000D03*
X51260000Y-106357000D03*
X53800000Y-106357000D03*
X56340000Y-106357000D03*
X58880000Y-106357000D03*
X61420000Y-106357000D03*
X63960000Y-106357000D03*
X66500000Y-106357000D03*
X66500000Y-98737000D03*
X63960000Y-98737000D03*
X61420000Y-98737000D03*
X58880000Y-98737000D03*
X56340000Y-98737000D03*
X53800000Y-98737000D03*
X51260000Y-98737000D03*
X48720000Y-98737000D03*
X46180000Y-98737000D03*
X43640000Y-98737000D03*
%TD*%
D10*
%TO.C,U45*%
X127490000Y-157897000D03*
X132570000Y-157897000D03*
X127490000Y-160437000D03*
X130030000Y-160437000D03*
X135110000Y-157897000D03*
X140190000Y-157897000D03*
%TD*%
D11*
%TO.C,U7*%
X108000000Y-52292000D03*
D12*
X108000000Y-54832000D03*
X108000000Y-57372000D03*
X108000000Y-59912000D03*
X108000000Y-62452000D03*
X108000000Y-64992000D03*
X108000000Y-67532000D03*
X108000000Y-70072000D03*
X108000000Y-72612000D03*
X108000000Y-75152000D03*
X115620000Y-75152000D03*
X115620000Y-72612000D03*
X115620000Y-70072000D03*
X115620000Y-67532000D03*
X115620000Y-64992000D03*
X115620000Y-62452000D03*
X115620000Y-59912000D03*
X115620000Y-57372000D03*
X115620000Y-54832000D03*
X115620000Y-52292000D03*
%TD*%
D13*
%TO.C,U32*%
X205120000Y-91602000D03*
D14*
X202580000Y-91602000D03*
X200040000Y-91602000D03*
X197500000Y-91602000D03*
X194960000Y-91602000D03*
X192420000Y-91602000D03*
X189880000Y-91602000D03*
X187340000Y-91602000D03*
%TD*%
D11*
%TO.C,U16*%
X118880000Y-87217000D03*
D12*
X116340000Y-87217000D03*
X113800000Y-87217000D03*
X111260000Y-87217000D03*
X108720000Y-87217000D03*
X106180000Y-87217000D03*
X103640000Y-87217000D03*
X101100000Y-87217000D03*
X101100000Y-94837000D03*
X103640000Y-94837000D03*
X106180000Y-94837000D03*
X108720000Y-94837000D03*
X111260000Y-94837000D03*
X113800000Y-94837000D03*
X116340000Y-94837000D03*
X118880000Y-94837000D03*
%TD*%
D11*
%TO.C,U31*%
X108500000Y-120092000D03*
D12*
X108500000Y-122632000D03*
X108500000Y-125172000D03*
X108500000Y-127712000D03*
X108500000Y-130252000D03*
X108500000Y-132792000D03*
X108500000Y-135332000D03*
X116120000Y-135332000D03*
X116120000Y-132792000D03*
X116120000Y-130252000D03*
X116120000Y-127712000D03*
X116120000Y-125172000D03*
X116120000Y-122632000D03*
X116120000Y-120092000D03*
%TD*%
D13*
%TO.C,U33*%
X181332500Y-49409500D03*
D14*
X183872500Y-49409500D03*
X186412500Y-49409500D03*
X188952500Y-49409500D03*
X191492500Y-49409500D03*
X194032500Y-49409500D03*
X196572500Y-49409500D03*
X199112500Y-49409500D03*
X201652500Y-49409500D03*
X204192500Y-49409500D03*
X206732500Y-49409500D03*
X209272500Y-49409500D03*
X211812500Y-49409500D03*
X214352500Y-49409500D03*
X216892500Y-49409500D03*
X219432500Y-49409500D03*
%TD*%
D10*
%TO.C,U42*%
X171450000Y-137477000D03*
X176530000Y-137477000D03*
X171450000Y-140017000D03*
X173990000Y-140017000D03*
X179070000Y-137477000D03*
X184150000Y-137477000D03*
%TD*%
%TO.C,U35*%
X127260000Y-121094500D03*
X132340000Y-121094500D03*
X127260000Y-123634500D03*
X129800000Y-123634500D03*
X134880000Y-121094500D03*
X139960000Y-121094500D03*
%TD*%
D11*
%TO.C,U9*%
X60800000Y-145477000D03*
D12*
X60800000Y-148017000D03*
X60800000Y-150557000D03*
X60800000Y-153097000D03*
X60800000Y-155637000D03*
X60800000Y-158177000D03*
X60800000Y-160717000D03*
X60800000Y-163257000D03*
X60800000Y-165797000D03*
X60800000Y-168337000D03*
X68420000Y-168337000D03*
X68420000Y-165797000D03*
X68420000Y-163257000D03*
X68420000Y-160717000D03*
X68420000Y-158177000D03*
X68420000Y-155637000D03*
X68420000Y-153097000D03*
X68420000Y-150557000D03*
X68420000Y-148017000D03*
X68420000Y-145477000D03*
%TD*%
D11*
%TO.C,U22*%
X151925000Y-32637000D03*
D12*
X154465000Y-32637000D03*
X157005000Y-32637000D03*
X159545000Y-32637000D03*
X162085000Y-32637000D03*
X164625000Y-32637000D03*
X167165000Y-32637000D03*
X169705000Y-32637000D03*
X169705000Y-25017000D03*
X167165000Y-25017000D03*
X164625000Y-25017000D03*
X162085000Y-25017000D03*
X159545000Y-25017000D03*
X157005000Y-25017000D03*
X154465000Y-25017000D03*
X151925000Y-25017000D03*
%TD*%
D11*
%TO.C,U12*%
X69140000Y-62217000D03*
D12*
X71680000Y-62217000D03*
X74220000Y-62217000D03*
X76760000Y-62217000D03*
X79300000Y-62217000D03*
X81840000Y-62217000D03*
X84380000Y-62217000D03*
X86920000Y-62217000D03*
X89460000Y-62217000D03*
X92000000Y-62217000D03*
X92000000Y-54597000D03*
X89460000Y-54597000D03*
X86920000Y-54597000D03*
X84380000Y-54597000D03*
X81840000Y-54597000D03*
X79300000Y-54597000D03*
X76760000Y-54597000D03*
X74220000Y-54597000D03*
X71680000Y-54597000D03*
X69140000Y-54597000D03*
%TD*%
D10*
%TO.C,U38*%
X127220000Y-144977000D03*
X132300000Y-144977000D03*
X127220000Y-147517000D03*
X129760000Y-147517000D03*
X134840000Y-144977000D03*
X139920000Y-144977000D03*
%TD*%
D11*
%TO.C,U17*%
X128500000Y-80842000D03*
D12*
X128500000Y-83382000D03*
X128500000Y-85922000D03*
X128500000Y-88462000D03*
X128500000Y-91002000D03*
X128500000Y-93542000D03*
X128500000Y-96082000D03*
X128500000Y-98622000D03*
X136120000Y-98622000D03*
X136120000Y-96082000D03*
X136120000Y-93542000D03*
X136120000Y-91002000D03*
X136120000Y-88462000D03*
X136120000Y-85922000D03*
X136120000Y-83382000D03*
X136120000Y-80842000D03*
%TD*%
D10*
%TO.C,U41*%
X171450000Y-129847000D03*
X176530000Y-129847000D03*
X171450000Y-132387000D03*
X173990000Y-132387000D03*
X179070000Y-129847000D03*
X184150000Y-129847000D03*
%TD*%
D11*
%TO.C,U29*%
X207700000Y-96602000D03*
D12*
X205160000Y-96602000D03*
X202620000Y-96602000D03*
X200080000Y-96602000D03*
X197540000Y-96602000D03*
X195000000Y-96602000D03*
X192460000Y-96602000D03*
X189920000Y-96602000D03*
X187380000Y-96602000D03*
X184840000Y-96602000D03*
X184840000Y-104222000D03*
X187380000Y-104222000D03*
X189920000Y-104222000D03*
X192460000Y-104222000D03*
X195000000Y-104222000D03*
X197540000Y-104222000D03*
X200080000Y-104222000D03*
X202620000Y-104222000D03*
X205160000Y-104222000D03*
X207700000Y-104222000D03*
%TD*%
D10*
%TO.C,U46*%
X127490000Y-165897000D03*
X132570000Y-165897000D03*
X127490000Y-168437000D03*
X130030000Y-168437000D03*
X135110000Y-165897000D03*
X140190000Y-165897000D03*
%TD*%
%TO.C,U34*%
X127260000Y-113527000D03*
X132340000Y-113527000D03*
X127260000Y-116067000D03*
X129800000Y-116067000D03*
X134880000Y-113527000D03*
X139960000Y-113527000D03*
%TD*%
D11*
%TO.C,U19*%
X218180000Y-85597000D03*
D12*
X218180000Y-88137000D03*
X218180000Y-90677000D03*
X218180000Y-93217000D03*
X218180000Y-95757000D03*
X218180000Y-98297000D03*
X218180000Y-100837000D03*
X225800000Y-100837000D03*
X225800000Y-98297000D03*
X225800000Y-95757000D03*
X225800000Y-93217000D03*
X225800000Y-90677000D03*
X225800000Y-88137000D03*
X225800000Y-85597000D03*
%TD*%
D11*
%TO.C,U30*%
X152140000Y-99837000D03*
D12*
X154680000Y-99837000D03*
X157220000Y-99837000D03*
X159760000Y-99837000D03*
X162300000Y-99837000D03*
X164840000Y-99837000D03*
X167380000Y-99837000D03*
X169920000Y-99837000D03*
X172460000Y-99837000D03*
X175000000Y-99837000D03*
X175000000Y-92217000D03*
X172460000Y-92217000D03*
X169920000Y-92217000D03*
X167380000Y-92217000D03*
X164840000Y-92217000D03*
X162300000Y-92217000D03*
X159760000Y-92217000D03*
X157220000Y-92217000D03*
X154680000Y-92217000D03*
X152140000Y-92217000D03*
%TD*%
D11*
%TO.C,U26*%
X101680000Y-148557000D03*
D12*
X101680000Y-151097000D03*
X101680000Y-153637000D03*
X101680000Y-156177000D03*
X101680000Y-158717000D03*
X101680000Y-161257000D03*
X101680000Y-163797000D03*
X101680000Y-166337000D03*
X101680000Y-168877000D03*
X101680000Y-171417000D03*
X109300000Y-171417000D03*
X109300000Y-168877000D03*
X109300000Y-166337000D03*
X109300000Y-163797000D03*
X109300000Y-161257000D03*
X109300000Y-158717000D03*
X109300000Y-156177000D03*
X109300000Y-153637000D03*
X109300000Y-151097000D03*
X109300000Y-148557000D03*
%TD*%
D11*
%TO.C,U27*%
X91840000Y-153217000D03*
D12*
X89300000Y-153217000D03*
X86760000Y-153217000D03*
X84220000Y-153217000D03*
X81680000Y-153217000D03*
X79140000Y-153217000D03*
X76600000Y-153217000D03*
X76600000Y-160837000D03*
X79140000Y-160837000D03*
X81680000Y-160837000D03*
X84220000Y-160837000D03*
X86760000Y-160837000D03*
X89300000Y-160837000D03*
X91840000Y-160837000D03*
%TD*%
M02*
